%TF.GenerationSoftware,KiCad,Pcbnew,(6.0.0-rc1-dev-634-gb5e3f6406)*%
%TF.CreationDate,2019-05-27T20:40:42+09:00*%
%TF.ProjectId,xbee,786265652E6B696361645F7063620000,rev?*%
%TF.SameCoordinates,Original*%
%TF.FileFunction,Copper,L2,Bot,Signal*%
%TF.FilePolarity,Positive*%
%FSLAX46Y46*%
G04 Gerber Fmt 4.6, Leading zero omitted, Abs format (unit mm)*
G04 Created by KiCad (PCBNEW (6.0.0-rc1-dev-634-gb5e3f6406)) date 2019 May 27, Monday 20:40:42*
%MOMM*%
%LPD*%
G01*
G04 APERTURE LIST*
%ADD10C,0.150000*%
%ADD11R,2.700000X2.550000*%
%ADD12R,1.300000X1.500000*%
%ADD13C,1.400000*%
%ADD14R,1.700000X2.000000*%
%ADD15R,0.700000X1.500000*%
%ADD16R,1.000000X0.800000*%
%ADD17C,1.000000*%
%ADD18C,0.800000*%
%ADD19C,0.500000*%
%ADD20C,0.250000*%
G04 APERTURE END LIST*
D10*
X143250000Y-90250000D02*
X153500000Y-90250000D01*
X135750000Y-96750000D02*
X143250000Y-90250000D01*
X135750000Y-96750000D02*
X135850000Y-122250000D01*
X153500000Y-90250000D02*
X161201100Y-96750000D01*
X161201100Y-96750000D02*
X161250000Y-122250000D01*
X161250000Y-122250000D02*
X135850000Y-122250000D01*
D11*
X143550000Y-101800000D03*
X143550000Y-95450000D03*
D12*
X147250000Y-106950000D03*
X147250000Y-109650000D03*
X142250000Y-109650000D03*
X142250000Y-106950000D03*
X144750000Y-106950000D03*
X144750000Y-109650000D03*
D13*
X159400000Y-99350000D03*
X159400000Y-101350000D03*
X159400000Y-103350000D03*
X159400000Y-105350000D03*
X159400000Y-107350000D03*
X159400000Y-109350000D03*
X159400000Y-111350000D03*
X159400000Y-113350000D03*
X159400000Y-115350000D03*
X159400000Y-117350000D03*
X137400000Y-117350000D03*
X137400000Y-115350000D03*
X137400000Y-113350000D03*
X137400000Y-111350000D03*
X137400000Y-109350000D03*
X137400000Y-107350000D03*
X137400000Y-105350000D03*
X137400000Y-103350000D03*
X137400000Y-101350000D03*
X137400000Y-99350000D03*
D14*
X147350000Y-102250000D03*
X147350000Y-98250000D03*
D15*
X145050000Y-118820000D03*
X142050000Y-118820000D03*
X140550000Y-118820000D03*
D16*
X146450000Y-121680000D03*
X139150000Y-121680000D03*
X139150000Y-119470000D03*
X146450000Y-119470000D03*
D17*
X141475400Y-95440100D03*
X137550000Y-120150000D03*
X153050000Y-110650000D03*
X152750000Y-107450000D03*
D18*
X146020000Y-117077900D03*
X142300700Y-115070400D03*
X140820300Y-114001800D03*
D17*
X141202300Y-100812400D03*
X142092400Y-117174700D03*
D18*
X141917100Y-99835800D03*
X143501700Y-107438500D03*
X141087700Y-104701800D03*
X144457800Y-105547800D03*
D19*
X143550000Y-95450000D02*
X141749700Y-95450000D01*
X141475400Y-95440100D02*
X141739800Y-95440100D01*
X141739800Y-95440100D02*
X141749700Y-95450000D01*
X137400000Y-120000000D02*
X137550000Y-120150000D01*
X137400000Y-117350000D02*
X137400000Y-120000000D01*
X153050000Y-107750000D02*
X152750000Y-107450000D01*
X153050000Y-110650000D02*
X153050000Y-107750000D01*
X145400000Y-95450000D02*
X143550000Y-95450000D01*
X152750000Y-100989998D02*
X147210002Y-95450000D01*
X147210002Y-95450000D02*
X145400000Y-95450000D01*
X152750000Y-107450000D02*
X152750000Y-100989998D01*
X137400000Y-99350000D02*
X137767400Y-98982600D01*
X137767400Y-98982600D02*
X142457900Y-98982600D01*
X142457900Y-98982600D02*
X143550000Y-100074700D01*
X143550000Y-101800000D02*
X143550000Y-100074700D01*
X147350000Y-98250000D02*
X146049700Y-98250000D01*
X146049700Y-98250000D02*
X144225000Y-100074700D01*
X144225000Y-100074700D02*
X143550000Y-100074700D01*
D20*
X147250000Y-109600000D02*
X147250000Y-115847900D01*
X147250000Y-115847900D02*
X146020000Y-117077900D01*
X144750000Y-112421100D02*
X142300700Y-115070400D01*
X144750000Y-112421100D02*
X144750000Y-109650000D01*
X142250000Y-106950000D02*
X142250000Y-108025300D01*
X142250000Y-108025300D02*
X142496400Y-108025300D01*
X142496400Y-108025300D02*
X143233000Y-108761900D01*
X143233000Y-108761900D02*
X143233000Y-111589100D01*
X143233000Y-111589100D02*
X140820300Y-114001800D01*
D19*
X142092400Y-117174700D02*
X139969900Y-115052200D01*
X139969900Y-115052200D02*
X139969900Y-102044800D01*
X139969900Y-102044800D02*
X141202300Y-100812400D01*
X145050000Y-118820000D02*
X145050000Y-117619700D01*
X145050000Y-117619700D02*
X142537400Y-117619700D01*
X142537400Y-117619700D02*
X142092400Y-117174700D01*
D20*
X141917100Y-99835800D02*
X138914200Y-99835800D01*
X138914200Y-99835800D02*
X137400000Y-101350000D01*
X143974700Y-106965500D02*
X143501700Y-107438500D01*
X144734500Y-106965500D02*
X144750000Y-106950000D01*
X143974700Y-106965500D02*
X144734500Y-106965500D01*
D19*
X147350000Y-103575300D02*
X147350000Y-102250000D01*
X148430000Y-104655300D02*
X147350000Y-103575300D01*
X148430000Y-119200002D02*
X148430000Y-104655300D01*
X147190002Y-120440000D02*
X148430000Y-119200002D01*
X146210000Y-120450000D02*
X147190002Y-120440000D01*
X145010000Y-121530000D02*
X145969998Y-120450000D01*
X145969998Y-120450000D02*
X146210000Y-120450000D01*
X142050000Y-118820000D02*
X142050000Y-120070000D01*
X142050000Y-120070000D02*
X143340000Y-121540000D01*
X143340000Y-121540000D02*
X145010000Y-121530000D01*
D20*
X141274700Y-109650000D02*
X141274700Y-104888800D01*
X141274700Y-104888800D02*
X141087700Y-104701800D01*
X142250000Y-109650000D02*
X141274700Y-109650000D01*
X146274700Y-106900000D02*
X146274700Y-106357600D01*
X146274700Y-106357600D02*
X145464900Y-105547800D01*
X145464900Y-105547800D02*
X144457800Y-105547800D01*
X147250000Y-106900000D02*
X146274700Y-106900000D01*
M02*
