%TF.GenerationSoftware,KiCad,Pcbnew,(6.0.0-rc1-dev-634-gb5e3f6406)*%
%TF.CreationDate,2019-05-27T20:40:42+09:00*%
%TF.ProjectId,xbee,786265652E6B696361645F7063620000,rev?*%
%TF.SameCoordinates,Original*%
%TF.FileFunction,Soldermask,Bot*%
%TF.FilePolarity,Negative*%
%FSLAX46Y46*%
G04 Gerber Fmt 4.6, Leading zero omitted, Abs format (unit mm)*
G04 Created by KiCad (PCBNEW (6.0.0-rc1-dev-634-gb5e3f6406)) date 2019 May 27, Monday 20:40:42*
%MOMM*%
%LPD*%
G01*
G04 APERTURE LIST*
%ADD10C,0.150000*%
%ADD11C,0.100000*%
G04 APERTURE END LIST*
D10*
X143250000Y-90250000D02*
X153500000Y-90250000D01*
X135750000Y-96750000D02*
X143250000Y-90250000D01*
X135750000Y-96750000D02*
X135850000Y-122250000D01*
X153500000Y-90250000D02*
X161201100Y-96750000D01*
X161201100Y-96750000D02*
X161250000Y-122250000D01*
X161250000Y-122250000D02*
X135850000Y-122250000D01*
D11*
G36*
X147001000Y-122131000D02*
X145899000Y-122131000D01*
X145899000Y-121229000D01*
X147001000Y-121229000D01*
X147001000Y-122131000D01*
X147001000Y-122131000D01*
G37*
G36*
X139701000Y-122131000D02*
X138599000Y-122131000D01*
X138599000Y-121229000D01*
X139701000Y-121229000D01*
X139701000Y-122131000D01*
X139701000Y-122131000D01*
G37*
G36*
X144446136Y-120098253D02*
X144537312Y-120136019D01*
X144619372Y-120190850D01*
X144689150Y-120260628D01*
X144743981Y-120342688D01*
X144781747Y-120433864D01*
X144801000Y-120530656D01*
X144801000Y-120629344D01*
X144781747Y-120726136D01*
X144743981Y-120817312D01*
X144689150Y-120899372D01*
X144619372Y-120969150D01*
X144537312Y-121023981D01*
X144446136Y-121061747D01*
X144349344Y-121081000D01*
X144250656Y-121081000D01*
X144153864Y-121061747D01*
X144062688Y-121023981D01*
X143980628Y-120969150D01*
X143910850Y-120899372D01*
X143856019Y-120817312D01*
X143818253Y-120726136D01*
X143799000Y-120629344D01*
X143799000Y-120530656D01*
X143818253Y-120433864D01*
X143856019Y-120342688D01*
X143910850Y-120260628D01*
X143980628Y-120190850D01*
X144062688Y-120136019D01*
X144153864Y-120098253D01*
X144250656Y-120079000D01*
X144349344Y-120079000D01*
X144446136Y-120098253D01*
X144446136Y-120098253D01*
G37*
G36*
X141446136Y-120098253D02*
X141537312Y-120136019D01*
X141619372Y-120190850D01*
X141689150Y-120260628D01*
X141743981Y-120342688D01*
X141781747Y-120433864D01*
X141801000Y-120530656D01*
X141801000Y-120629344D01*
X141781747Y-120726136D01*
X141743981Y-120817312D01*
X141689150Y-120899372D01*
X141619372Y-120969150D01*
X141537312Y-121023981D01*
X141446136Y-121061747D01*
X141349344Y-121081000D01*
X141250656Y-121081000D01*
X141153864Y-121061747D01*
X141062688Y-121023981D01*
X140980628Y-120969150D01*
X140910850Y-120899372D01*
X140856019Y-120817312D01*
X140818253Y-120726136D01*
X140799000Y-120629344D01*
X140799000Y-120530656D01*
X140818253Y-120433864D01*
X140856019Y-120342688D01*
X140910850Y-120260628D01*
X140980628Y-120190850D01*
X141062688Y-120136019D01*
X141153864Y-120098253D01*
X141250656Y-120079000D01*
X141349344Y-120079000D01*
X141446136Y-120098253D01*
X141446136Y-120098253D01*
G37*
G36*
X147001000Y-119921000D02*
X145899000Y-119921000D01*
X145899000Y-119019000D01*
X147001000Y-119019000D01*
X147001000Y-119921000D01*
X147001000Y-119921000D01*
G37*
G36*
X139701000Y-119921000D02*
X138599000Y-119921000D01*
X138599000Y-119019000D01*
X139701000Y-119019000D01*
X139701000Y-119921000D01*
X139701000Y-119921000D01*
G37*
G36*
X140951000Y-119621000D02*
X140149000Y-119621000D01*
X140149000Y-118019000D01*
X140951000Y-118019000D01*
X140951000Y-119621000D01*
X140951000Y-119621000D01*
G37*
G36*
X142451000Y-119621000D02*
X141649000Y-119621000D01*
X141649000Y-118019000D01*
X142451000Y-118019000D01*
X142451000Y-119621000D01*
X142451000Y-119621000D01*
G37*
G36*
X145451000Y-119621000D02*
X144649000Y-119621000D01*
X144649000Y-118019000D01*
X145451000Y-118019000D01*
X145451000Y-119621000D01*
X145451000Y-119621000D01*
G37*
G36*
X159532004Y-116610544D02*
X159619059Y-116627860D01*
X159755732Y-116684472D01*
X159755733Y-116684473D01*
X159878738Y-116766662D01*
X159983338Y-116871262D01*
X159983340Y-116871265D01*
X160065528Y-116994268D01*
X160122140Y-117130941D01*
X160151000Y-117276033D01*
X160151000Y-117423967D01*
X160122140Y-117569059D01*
X160065528Y-117705732D01*
X160065527Y-117705733D01*
X159983338Y-117828738D01*
X159878738Y-117933338D01*
X159878735Y-117933340D01*
X159755732Y-118015528D01*
X159619059Y-118072140D01*
X159532004Y-118089456D01*
X159473969Y-118101000D01*
X159326031Y-118101000D01*
X159267996Y-118089456D01*
X159180941Y-118072140D01*
X159044268Y-118015528D01*
X158921265Y-117933340D01*
X158921262Y-117933338D01*
X158816662Y-117828738D01*
X158734473Y-117705733D01*
X158734472Y-117705732D01*
X158677860Y-117569059D01*
X158649000Y-117423967D01*
X158649000Y-117276033D01*
X158677860Y-117130941D01*
X158734472Y-116994268D01*
X158816660Y-116871265D01*
X158816662Y-116871262D01*
X158921262Y-116766662D01*
X159044267Y-116684473D01*
X159044268Y-116684472D01*
X159180941Y-116627860D01*
X159267996Y-116610544D01*
X159326031Y-116599000D01*
X159473969Y-116599000D01*
X159532004Y-116610544D01*
X159532004Y-116610544D01*
G37*
G36*
X137532004Y-116610544D02*
X137619059Y-116627860D01*
X137755732Y-116684472D01*
X137755733Y-116684473D01*
X137878738Y-116766662D01*
X137983338Y-116871262D01*
X137983340Y-116871265D01*
X138065528Y-116994268D01*
X138122140Y-117130941D01*
X138151000Y-117276033D01*
X138151000Y-117423967D01*
X138122140Y-117569059D01*
X138065528Y-117705732D01*
X138065527Y-117705733D01*
X137983338Y-117828738D01*
X137878738Y-117933338D01*
X137878735Y-117933340D01*
X137755732Y-118015528D01*
X137619059Y-118072140D01*
X137532004Y-118089456D01*
X137473969Y-118101000D01*
X137326031Y-118101000D01*
X137267996Y-118089456D01*
X137180941Y-118072140D01*
X137044268Y-118015528D01*
X136921265Y-117933340D01*
X136921262Y-117933338D01*
X136816662Y-117828738D01*
X136734473Y-117705733D01*
X136734472Y-117705732D01*
X136677860Y-117569059D01*
X136649000Y-117423967D01*
X136649000Y-117276033D01*
X136677860Y-117130941D01*
X136734472Y-116994268D01*
X136816660Y-116871265D01*
X136816662Y-116871262D01*
X136921262Y-116766662D01*
X137044267Y-116684473D01*
X137044268Y-116684472D01*
X137180941Y-116627860D01*
X137267996Y-116610544D01*
X137326031Y-116599000D01*
X137473969Y-116599000D01*
X137532004Y-116610544D01*
X137532004Y-116610544D01*
G37*
G36*
X159532004Y-114610544D02*
X159619059Y-114627860D01*
X159755732Y-114684472D01*
X159755733Y-114684473D01*
X159878738Y-114766662D01*
X159983338Y-114871262D01*
X159983340Y-114871265D01*
X160065528Y-114994268D01*
X160122140Y-115130941D01*
X160151000Y-115276033D01*
X160151000Y-115423967D01*
X160122140Y-115569059D01*
X160065528Y-115705732D01*
X160065527Y-115705733D01*
X159983338Y-115828738D01*
X159878738Y-115933338D01*
X159878735Y-115933340D01*
X159755732Y-116015528D01*
X159619059Y-116072140D01*
X159532004Y-116089456D01*
X159473969Y-116101000D01*
X159326031Y-116101000D01*
X159267996Y-116089456D01*
X159180941Y-116072140D01*
X159044268Y-116015528D01*
X158921265Y-115933340D01*
X158921262Y-115933338D01*
X158816662Y-115828738D01*
X158734473Y-115705733D01*
X158734472Y-115705732D01*
X158677860Y-115569059D01*
X158649000Y-115423967D01*
X158649000Y-115276033D01*
X158677860Y-115130941D01*
X158734472Y-114994268D01*
X158816660Y-114871265D01*
X158816662Y-114871262D01*
X158921262Y-114766662D01*
X159044267Y-114684473D01*
X159044268Y-114684472D01*
X159180941Y-114627860D01*
X159267996Y-114610544D01*
X159326031Y-114599000D01*
X159473969Y-114599000D01*
X159532004Y-114610544D01*
X159532004Y-114610544D01*
G37*
G36*
X137532004Y-114610544D02*
X137619059Y-114627860D01*
X137755732Y-114684472D01*
X137755733Y-114684473D01*
X137878738Y-114766662D01*
X137983338Y-114871262D01*
X137983340Y-114871265D01*
X138065528Y-114994268D01*
X138122140Y-115130941D01*
X138151000Y-115276033D01*
X138151000Y-115423967D01*
X138122140Y-115569059D01*
X138065528Y-115705732D01*
X138065527Y-115705733D01*
X137983338Y-115828738D01*
X137878738Y-115933338D01*
X137878735Y-115933340D01*
X137755732Y-116015528D01*
X137619059Y-116072140D01*
X137532004Y-116089456D01*
X137473969Y-116101000D01*
X137326031Y-116101000D01*
X137267996Y-116089456D01*
X137180941Y-116072140D01*
X137044268Y-116015528D01*
X136921265Y-115933340D01*
X136921262Y-115933338D01*
X136816662Y-115828738D01*
X136734473Y-115705733D01*
X136734472Y-115705732D01*
X136677860Y-115569059D01*
X136649000Y-115423967D01*
X136649000Y-115276033D01*
X136677860Y-115130941D01*
X136734472Y-114994268D01*
X136816660Y-114871265D01*
X136816662Y-114871262D01*
X136921262Y-114766662D01*
X137044267Y-114684473D01*
X137044268Y-114684472D01*
X137180941Y-114627860D01*
X137267996Y-114610544D01*
X137326031Y-114599000D01*
X137473969Y-114599000D01*
X137532004Y-114610544D01*
X137532004Y-114610544D01*
G37*
G36*
X159532004Y-112610544D02*
X159619059Y-112627860D01*
X159755732Y-112684472D01*
X159755733Y-112684473D01*
X159878738Y-112766662D01*
X159983338Y-112871262D01*
X159983340Y-112871265D01*
X160065528Y-112994268D01*
X160122140Y-113130941D01*
X160151000Y-113276033D01*
X160151000Y-113423967D01*
X160122140Y-113569059D01*
X160065528Y-113705732D01*
X160065527Y-113705733D01*
X159983338Y-113828738D01*
X159878738Y-113933338D01*
X159878735Y-113933340D01*
X159755732Y-114015528D01*
X159619059Y-114072140D01*
X159532004Y-114089456D01*
X159473969Y-114101000D01*
X159326031Y-114101000D01*
X159267996Y-114089456D01*
X159180941Y-114072140D01*
X159044268Y-114015528D01*
X158921265Y-113933340D01*
X158921262Y-113933338D01*
X158816662Y-113828738D01*
X158734473Y-113705733D01*
X158734472Y-113705732D01*
X158677860Y-113569059D01*
X158649000Y-113423967D01*
X158649000Y-113276033D01*
X158677860Y-113130941D01*
X158734472Y-112994268D01*
X158816660Y-112871265D01*
X158816662Y-112871262D01*
X158921262Y-112766662D01*
X159044267Y-112684473D01*
X159044268Y-112684472D01*
X159180941Y-112627860D01*
X159267996Y-112610544D01*
X159326031Y-112599000D01*
X159473969Y-112599000D01*
X159532004Y-112610544D01*
X159532004Y-112610544D01*
G37*
G36*
X137532004Y-112610544D02*
X137619059Y-112627860D01*
X137755732Y-112684472D01*
X137755733Y-112684473D01*
X137878738Y-112766662D01*
X137983338Y-112871262D01*
X137983340Y-112871265D01*
X138065528Y-112994268D01*
X138122140Y-113130941D01*
X138151000Y-113276033D01*
X138151000Y-113423967D01*
X138122140Y-113569059D01*
X138065528Y-113705732D01*
X138065527Y-113705733D01*
X137983338Y-113828738D01*
X137878738Y-113933338D01*
X137878735Y-113933340D01*
X137755732Y-114015528D01*
X137619059Y-114072140D01*
X137532004Y-114089456D01*
X137473969Y-114101000D01*
X137326031Y-114101000D01*
X137267996Y-114089456D01*
X137180941Y-114072140D01*
X137044268Y-114015528D01*
X136921265Y-113933340D01*
X136921262Y-113933338D01*
X136816662Y-113828738D01*
X136734473Y-113705733D01*
X136734472Y-113705732D01*
X136677860Y-113569059D01*
X136649000Y-113423967D01*
X136649000Y-113276033D01*
X136677860Y-113130941D01*
X136734472Y-112994268D01*
X136816660Y-112871265D01*
X136816662Y-112871262D01*
X136921262Y-112766662D01*
X137044267Y-112684473D01*
X137044268Y-112684472D01*
X137180941Y-112627860D01*
X137267996Y-112610544D01*
X137326031Y-112599000D01*
X137473969Y-112599000D01*
X137532004Y-112610544D01*
X137532004Y-112610544D01*
G37*
G36*
X159532004Y-110610544D02*
X159619059Y-110627860D01*
X159755732Y-110684472D01*
X159755733Y-110684473D01*
X159878738Y-110766662D01*
X159983338Y-110871262D01*
X159983340Y-110871265D01*
X160065528Y-110994268D01*
X160122140Y-111130941D01*
X160151000Y-111276033D01*
X160151000Y-111423967D01*
X160122140Y-111569059D01*
X160065528Y-111705732D01*
X160065527Y-111705733D01*
X159983338Y-111828738D01*
X159878738Y-111933338D01*
X159878735Y-111933340D01*
X159755732Y-112015528D01*
X159619059Y-112072140D01*
X159532004Y-112089456D01*
X159473969Y-112101000D01*
X159326031Y-112101000D01*
X159267996Y-112089456D01*
X159180941Y-112072140D01*
X159044268Y-112015528D01*
X158921265Y-111933340D01*
X158921262Y-111933338D01*
X158816662Y-111828738D01*
X158734473Y-111705733D01*
X158734472Y-111705732D01*
X158677860Y-111569059D01*
X158649000Y-111423967D01*
X158649000Y-111276033D01*
X158677860Y-111130941D01*
X158734472Y-110994268D01*
X158816660Y-110871265D01*
X158816662Y-110871262D01*
X158921262Y-110766662D01*
X159044267Y-110684473D01*
X159044268Y-110684472D01*
X159180941Y-110627860D01*
X159267996Y-110610544D01*
X159326031Y-110599000D01*
X159473969Y-110599000D01*
X159532004Y-110610544D01*
X159532004Y-110610544D01*
G37*
G36*
X137532004Y-110610544D02*
X137619059Y-110627860D01*
X137755732Y-110684472D01*
X137755733Y-110684473D01*
X137878738Y-110766662D01*
X137983338Y-110871262D01*
X137983340Y-110871265D01*
X138065528Y-110994268D01*
X138122140Y-111130941D01*
X138151000Y-111276033D01*
X138151000Y-111423967D01*
X138122140Y-111569059D01*
X138065528Y-111705732D01*
X138065527Y-111705733D01*
X137983338Y-111828738D01*
X137878738Y-111933338D01*
X137878735Y-111933340D01*
X137755732Y-112015528D01*
X137619059Y-112072140D01*
X137532004Y-112089456D01*
X137473969Y-112101000D01*
X137326031Y-112101000D01*
X137267996Y-112089456D01*
X137180941Y-112072140D01*
X137044268Y-112015528D01*
X136921265Y-111933340D01*
X136921262Y-111933338D01*
X136816662Y-111828738D01*
X136734473Y-111705733D01*
X136734472Y-111705732D01*
X136677860Y-111569059D01*
X136649000Y-111423967D01*
X136649000Y-111276033D01*
X136677860Y-111130941D01*
X136734472Y-110994268D01*
X136816660Y-110871265D01*
X136816662Y-110871262D01*
X136921262Y-110766662D01*
X137044267Y-110684473D01*
X137044268Y-110684472D01*
X137180941Y-110627860D01*
X137267996Y-110610544D01*
X137326031Y-110599000D01*
X137473969Y-110599000D01*
X137532004Y-110610544D01*
X137532004Y-110610544D01*
G37*
G36*
X142951000Y-110451000D02*
X141549000Y-110451000D01*
X141549000Y-108849000D01*
X142951000Y-108849000D01*
X142951000Y-110451000D01*
X142951000Y-110451000D01*
G37*
G36*
X147951000Y-110451000D02*
X146549000Y-110451000D01*
X146549000Y-108849000D01*
X147951000Y-108849000D01*
X147951000Y-110451000D01*
X147951000Y-110451000D01*
G37*
G36*
X145451000Y-110451000D02*
X144049000Y-110451000D01*
X144049000Y-108849000D01*
X145451000Y-108849000D01*
X145451000Y-110451000D01*
X145451000Y-110451000D01*
G37*
G36*
X159532004Y-108610544D02*
X159619059Y-108627860D01*
X159755732Y-108684472D01*
X159755733Y-108684473D01*
X159878738Y-108766662D01*
X159983338Y-108871262D01*
X159983340Y-108871265D01*
X160065528Y-108994268D01*
X160122140Y-109130941D01*
X160151000Y-109276033D01*
X160151000Y-109423967D01*
X160122140Y-109569059D01*
X160065528Y-109705732D01*
X160065527Y-109705733D01*
X159983338Y-109828738D01*
X159878738Y-109933338D01*
X159878735Y-109933340D01*
X159755732Y-110015528D01*
X159619059Y-110072140D01*
X159532004Y-110089456D01*
X159473969Y-110101000D01*
X159326031Y-110101000D01*
X159267996Y-110089456D01*
X159180941Y-110072140D01*
X159044268Y-110015528D01*
X158921265Y-109933340D01*
X158921262Y-109933338D01*
X158816662Y-109828738D01*
X158734473Y-109705733D01*
X158734472Y-109705732D01*
X158677860Y-109569059D01*
X158649000Y-109423967D01*
X158649000Y-109276033D01*
X158677860Y-109130941D01*
X158734472Y-108994268D01*
X158816660Y-108871265D01*
X158816662Y-108871262D01*
X158921262Y-108766662D01*
X159044267Y-108684473D01*
X159044268Y-108684472D01*
X159180941Y-108627860D01*
X159267996Y-108610544D01*
X159326031Y-108599000D01*
X159473969Y-108599000D01*
X159532004Y-108610544D01*
X159532004Y-108610544D01*
G37*
G36*
X137532004Y-108610544D02*
X137619059Y-108627860D01*
X137755732Y-108684472D01*
X137755733Y-108684473D01*
X137878738Y-108766662D01*
X137983338Y-108871262D01*
X137983340Y-108871265D01*
X138065528Y-108994268D01*
X138122140Y-109130941D01*
X138151000Y-109276033D01*
X138151000Y-109423967D01*
X138122140Y-109569059D01*
X138065528Y-109705732D01*
X138065527Y-109705733D01*
X137983338Y-109828738D01*
X137878738Y-109933338D01*
X137878735Y-109933340D01*
X137755732Y-110015528D01*
X137619059Y-110072140D01*
X137532004Y-110089456D01*
X137473969Y-110101000D01*
X137326031Y-110101000D01*
X137267996Y-110089456D01*
X137180941Y-110072140D01*
X137044268Y-110015528D01*
X136921265Y-109933340D01*
X136921262Y-109933338D01*
X136816662Y-109828738D01*
X136734473Y-109705733D01*
X136734472Y-109705732D01*
X136677860Y-109569059D01*
X136649000Y-109423967D01*
X136649000Y-109276033D01*
X136677860Y-109130941D01*
X136734472Y-108994268D01*
X136816660Y-108871265D01*
X136816662Y-108871262D01*
X136921262Y-108766662D01*
X137044267Y-108684473D01*
X137044268Y-108684472D01*
X137180941Y-108627860D01*
X137267996Y-108610544D01*
X137326031Y-108599000D01*
X137473969Y-108599000D01*
X137532004Y-108610544D01*
X137532004Y-108610544D01*
G37*
G36*
X159532004Y-106610544D02*
X159619059Y-106627860D01*
X159755732Y-106684472D01*
X159755733Y-106684473D01*
X159878738Y-106766662D01*
X159983338Y-106871262D01*
X159983340Y-106871265D01*
X160065528Y-106994268D01*
X160122140Y-107130941D01*
X160151000Y-107276033D01*
X160151000Y-107423967D01*
X160122140Y-107569059D01*
X160065528Y-107705732D01*
X160065527Y-107705733D01*
X159983338Y-107828738D01*
X159878738Y-107933338D01*
X159878735Y-107933340D01*
X159755732Y-108015528D01*
X159619059Y-108072140D01*
X159532004Y-108089456D01*
X159473969Y-108101000D01*
X159326031Y-108101000D01*
X159267996Y-108089456D01*
X159180941Y-108072140D01*
X159044268Y-108015528D01*
X158921265Y-107933340D01*
X158921262Y-107933338D01*
X158816662Y-107828738D01*
X158734473Y-107705733D01*
X158734472Y-107705732D01*
X158677860Y-107569059D01*
X158649000Y-107423967D01*
X158649000Y-107276033D01*
X158677860Y-107130941D01*
X158734472Y-106994268D01*
X158816660Y-106871265D01*
X158816662Y-106871262D01*
X158921262Y-106766662D01*
X159044267Y-106684473D01*
X159044268Y-106684472D01*
X159180941Y-106627860D01*
X159267996Y-106610544D01*
X159326031Y-106599000D01*
X159473969Y-106599000D01*
X159532004Y-106610544D01*
X159532004Y-106610544D01*
G37*
G36*
X137532004Y-106610544D02*
X137619059Y-106627860D01*
X137755732Y-106684472D01*
X137755733Y-106684473D01*
X137878738Y-106766662D01*
X137983338Y-106871262D01*
X137983340Y-106871265D01*
X138065528Y-106994268D01*
X138122140Y-107130941D01*
X138151000Y-107276033D01*
X138151000Y-107423967D01*
X138122140Y-107569059D01*
X138065528Y-107705732D01*
X138065527Y-107705733D01*
X137983338Y-107828738D01*
X137878738Y-107933338D01*
X137878735Y-107933340D01*
X137755732Y-108015528D01*
X137619059Y-108072140D01*
X137532004Y-108089456D01*
X137473969Y-108101000D01*
X137326031Y-108101000D01*
X137267996Y-108089456D01*
X137180941Y-108072140D01*
X137044268Y-108015528D01*
X136921265Y-107933340D01*
X136921262Y-107933338D01*
X136816662Y-107828738D01*
X136734473Y-107705733D01*
X136734472Y-107705732D01*
X136677860Y-107569059D01*
X136649000Y-107423967D01*
X136649000Y-107276033D01*
X136677860Y-107130941D01*
X136734472Y-106994268D01*
X136816660Y-106871265D01*
X136816662Y-106871262D01*
X136921262Y-106766662D01*
X137044267Y-106684473D01*
X137044268Y-106684472D01*
X137180941Y-106627860D01*
X137267996Y-106610544D01*
X137326031Y-106599000D01*
X137473969Y-106599000D01*
X137532004Y-106610544D01*
X137532004Y-106610544D01*
G37*
G36*
X147951000Y-107751000D02*
X146549000Y-107751000D01*
X146549000Y-106149000D01*
X147951000Y-106149000D01*
X147951000Y-107751000D01*
X147951000Y-107751000D01*
G37*
G36*
X142951000Y-107751000D02*
X141549000Y-107751000D01*
X141549000Y-106149000D01*
X142951000Y-106149000D01*
X142951000Y-107751000D01*
X142951000Y-107751000D01*
G37*
G36*
X145451000Y-107751000D02*
X144049000Y-107751000D01*
X144049000Y-106149000D01*
X145451000Y-106149000D01*
X145451000Y-107751000D01*
X145451000Y-107751000D01*
G37*
G36*
X159532004Y-104610544D02*
X159619059Y-104627860D01*
X159755732Y-104684472D01*
X159755733Y-104684473D01*
X159878738Y-104766662D01*
X159983338Y-104871262D01*
X159983340Y-104871265D01*
X160065528Y-104994268D01*
X160122140Y-105130941D01*
X160151000Y-105276033D01*
X160151000Y-105423967D01*
X160122140Y-105569059D01*
X160065528Y-105705732D01*
X160065527Y-105705733D01*
X159983338Y-105828738D01*
X159878738Y-105933338D01*
X159878735Y-105933340D01*
X159755732Y-106015528D01*
X159619059Y-106072140D01*
X159532004Y-106089456D01*
X159473969Y-106101000D01*
X159326031Y-106101000D01*
X159267996Y-106089456D01*
X159180941Y-106072140D01*
X159044268Y-106015528D01*
X158921265Y-105933340D01*
X158921262Y-105933338D01*
X158816662Y-105828738D01*
X158734473Y-105705733D01*
X158734472Y-105705732D01*
X158677860Y-105569059D01*
X158649000Y-105423967D01*
X158649000Y-105276033D01*
X158677860Y-105130941D01*
X158734472Y-104994268D01*
X158816660Y-104871265D01*
X158816662Y-104871262D01*
X158921262Y-104766662D01*
X159044267Y-104684473D01*
X159044268Y-104684472D01*
X159180941Y-104627860D01*
X159267996Y-104610544D01*
X159326031Y-104599000D01*
X159473969Y-104599000D01*
X159532004Y-104610544D01*
X159532004Y-104610544D01*
G37*
G36*
X137532004Y-104610544D02*
X137619059Y-104627860D01*
X137755732Y-104684472D01*
X137755733Y-104684473D01*
X137878738Y-104766662D01*
X137983338Y-104871262D01*
X137983340Y-104871265D01*
X138065528Y-104994268D01*
X138122140Y-105130941D01*
X138151000Y-105276033D01*
X138151000Y-105423967D01*
X138122140Y-105569059D01*
X138065528Y-105705732D01*
X138065527Y-105705733D01*
X137983338Y-105828738D01*
X137878738Y-105933338D01*
X137878735Y-105933340D01*
X137755732Y-106015528D01*
X137619059Y-106072140D01*
X137532004Y-106089456D01*
X137473969Y-106101000D01*
X137326031Y-106101000D01*
X137267996Y-106089456D01*
X137180941Y-106072140D01*
X137044268Y-106015528D01*
X136921265Y-105933340D01*
X136921262Y-105933338D01*
X136816662Y-105828738D01*
X136734473Y-105705733D01*
X136734472Y-105705732D01*
X136677860Y-105569059D01*
X136649000Y-105423967D01*
X136649000Y-105276033D01*
X136677860Y-105130941D01*
X136734472Y-104994268D01*
X136816660Y-104871265D01*
X136816662Y-104871262D01*
X136921262Y-104766662D01*
X137044267Y-104684473D01*
X137044268Y-104684472D01*
X137180941Y-104627860D01*
X137267996Y-104610544D01*
X137326031Y-104599000D01*
X137473969Y-104599000D01*
X137532004Y-104610544D01*
X137532004Y-104610544D01*
G37*
G36*
X159532004Y-102610544D02*
X159619059Y-102627860D01*
X159755732Y-102684472D01*
X159755733Y-102684473D01*
X159878738Y-102766662D01*
X159983338Y-102871262D01*
X159983340Y-102871265D01*
X160065528Y-102994268D01*
X160122140Y-103130941D01*
X160151000Y-103276033D01*
X160151000Y-103423967D01*
X160122140Y-103569059D01*
X160065528Y-103705732D01*
X160065527Y-103705733D01*
X159983338Y-103828738D01*
X159878738Y-103933338D01*
X159878735Y-103933340D01*
X159755732Y-104015528D01*
X159619059Y-104072140D01*
X159532004Y-104089456D01*
X159473969Y-104101000D01*
X159326031Y-104101000D01*
X159267996Y-104089456D01*
X159180941Y-104072140D01*
X159044268Y-104015528D01*
X158921265Y-103933340D01*
X158921262Y-103933338D01*
X158816662Y-103828738D01*
X158734473Y-103705733D01*
X158734472Y-103705732D01*
X158677860Y-103569059D01*
X158649000Y-103423967D01*
X158649000Y-103276033D01*
X158677860Y-103130941D01*
X158734472Y-102994268D01*
X158816660Y-102871265D01*
X158816662Y-102871262D01*
X158921262Y-102766662D01*
X159044267Y-102684473D01*
X159044268Y-102684472D01*
X159180941Y-102627860D01*
X159267996Y-102610544D01*
X159326031Y-102599000D01*
X159473969Y-102599000D01*
X159532004Y-102610544D01*
X159532004Y-102610544D01*
G37*
G36*
X137532004Y-102610544D02*
X137619059Y-102627860D01*
X137755732Y-102684472D01*
X137755733Y-102684473D01*
X137878738Y-102766662D01*
X137983338Y-102871262D01*
X137983340Y-102871265D01*
X138065528Y-102994268D01*
X138122140Y-103130941D01*
X138151000Y-103276033D01*
X138151000Y-103423967D01*
X138122140Y-103569059D01*
X138065528Y-103705732D01*
X138065527Y-103705733D01*
X137983338Y-103828738D01*
X137878738Y-103933338D01*
X137878735Y-103933340D01*
X137755732Y-104015528D01*
X137619059Y-104072140D01*
X137532004Y-104089456D01*
X137473969Y-104101000D01*
X137326031Y-104101000D01*
X137267996Y-104089456D01*
X137180941Y-104072140D01*
X137044268Y-104015528D01*
X136921265Y-103933340D01*
X136921262Y-103933338D01*
X136816662Y-103828738D01*
X136734473Y-103705733D01*
X136734472Y-103705732D01*
X136677860Y-103569059D01*
X136649000Y-103423967D01*
X136649000Y-103276033D01*
X136677860Y-103130941D01*
X136734472Y-102994268D01*
X136816660Y-102871265D01*
X136816662Y-102871262D01*
X136921262Y-102766662D01*
X137044267Y-102684473D01*
X137044268Y-102684472D01*
X137180941Y-102627860D01*
X137267996Y-102610544D01*
X137326031Y-102599000D01*
X137473969Y-102599000D01*
X137532004Y-102610544D01*
X137532004Y-102610544D01*
G37*
G36*
X148251000Y-103301000D02*
X146449000Y-103301000D01*
X146449000Y-101199000D01*
X148251000Y-101199000D01*
X148251000Y-103301000D01*
X148251000Y-103301000D01*
G37*
G36*
X144951000Y-103126000D02*
X142149000Y-103126000D01*
X142149000Y-100474000D01*
X144951000Y-100474000D01*
X144951000Y-103126000D01*
X144951000Y-103126000D01*
G37*
G36*
X137532004Y-100610544D02*
X137619059Y-100627860D01*
X137755732Y-100684472D01*
X137755733Y-100684473D01*
X137878738Y-100766662D01*
X137983338Y-100871262D01*
X137983340Y-100871265D01*
X138065528Y-100994268D01*
X138122140Y-101130941D01*
X138151000Y-101276033D01*
X138151000Y-101423967D01*
X138122140Y-101569059D01*
X138065528Y-101705732D01*
X138065527Y-101705733D01*
X137983338Y-101828738D01*
X137878738Y-101933338D01*
X137878735Y-101933340D01*
X137755732Y-102015528D01*
X137619059Y-102072140D01*
X137532004Y-102089456D01*
X137473969Y-102101000D01*
X137326031Y-102101000D01*
X137267996Y-102089456D01*
X137180941Y-102072140D01*
X137044268Y-102015528D01*
X136921265Y-101933340D01*
X136921262Y-101933338D01*
X136816662Y-101828738D01*
X136734473Y-101705733D01*
X136734472Y-101705732D01*
X136677860Y-101569059D01*
X136649000Y-101423967D01*
X136649000Y-101276033D01*
X136677860Y-101130941D01*
X136734472Y-100994268D01*
X136816660Y-100871265D01*
X136816662Y-100871262D01*
X136921262Y-100766662D01*
X137044267Y-100684473D01*
X137044268Y-100684472D01*
X137180941Y-100627860D01*
X137267996Y-100610544D01*
X137326031Y-100599000D01*
X137473969Y-100599000D01*
X137532004Y-100610544D01*
X137532004Y-100610544D01*
G37*
G36*
X159532004Y-100610544D02*
X159619059Y-100627860D01*
X159755732Y-100684472D01*
X159755733Y-100684473D01*
X159878738Y-100766662D01*
X159983338Y-100871262D01*
X159983340Y-100871265D01*
X160065528Y-100994268D01*
X160122140Y-101130941D01*
X160151000Y-101276033D01*
X160151000Y-101423967D01*
X160122140Y-101569059D01*
X160065528Y-101705732D01*
X160065527Y-101705733D01*
X159983338Y-101828738D01*
X159878738Y-101933338D01*
X159878735Y-101933340D01*
X159755732Y-102015528D01*
X159619059Y-102072140D01*
X159532004Y-102089456D01*
X159473969Y-102101000D01*
X159326031Y-102101000D01*
X159267996Y-102089456D01*
X159180941Y-102072140D01*
X159044268Y-102015528D01*
X158921265Y-101933340D01*
X158921262Y-101933338D01*
X158816662Y-101828738D01*
X158734473Y-101705733D01*
X158734472Y-101705732D01*
X158677860Y-101569059D01*
X158649000Y-101423967D01*
X158649000Y-101276033D01*
X158677860Y-101130941D01*
X158734472Y-100994268D01*
X158816660Y-100871265D01*
X158816662Y-100871262D01*
X158921262Y-100766662D01*
X159044267Y-100684473D01*
X159044268Y-100684472D01*
X159180941Y-100627860D01*
X159267996Y-100610544D01*
X159326031Y-100599000D01*
X159473969Y-100599000D01*
X159532004Y-100610544D01*
X159532004Y-100610544D01*
G37*
G36*
X137532004Y-98610544D02*
X137619059Y-98627860D01*
X137755732Y-98684472D01*
X137755733Y-98684473D01*
X137878738Y-98766662D01*
X137983338Y-98871262D01*
X137983340Y-98871265D01*
X138065528Y-98994268D01*
X138122140Y-99130941D01*
X138151000Y-99276033D01*
X138151000Y-99423967D01*
X138122140Y-99569059D01*
X138065528Y-99705732D01*
X138065527Y-99705733D01*
X137983338Y-99828738D01*
X137878738Y-99933338D01*
X137878735Y-99933340D01*
X137755732Y-100015528D01*
X137619059Y-100072140D01*
X137532004Y-100089456D01*
X137473969Y-100101000D01*
X137326031Y-100101000D01*
X137267996Y-100089456D01*
X137180941Y-100072140D01*
X137044268Y-100015528D01*
X136921265Y-99933340D01*
X136921262Y-99933338D01*
X136816662Y-99828738D01*
X136734473Y-99705733D01*
X136734472Y-99705732D01*
X136677860Y-99569059D01*
X136649000Y-99423967D01*
X136649000Y-99276033D01*
X136677860Y-99130941D01*
X136734472Y-98994268D01*
X136816660Y-98871265D01*
X136816662Y-98871262D01*
X136921262Y-98766662D01*
X137044267Y-98684473D01*
X137044268Y-98684472D01*
X137180941Y-98627860D01*
X137267996Y-98610544D01*
X137326031Y-98599000D01*
X137473969Y-98599000D01*
X137532004Y-98610544D01*
X137532004Y-98610544D01*
G37*
G36*
X159532004Y-98610544D02*
X159619059Y-98627860D01*
X159755732Y-98684472D01*
X159755733Y-98684473D01*
X159878738Y-98766662D01*
X159983338Y-98871262D01*
X159983340Y-98871265D01*
X160065528Y-98994268D01*
X160122140Y-99130941D01*
X160151000Y-99276033D01*
X160151000Y-99423967D01*
X160122140Y-99569059D01*
X160065528Y-99705732D01*
X160065527Y-99705733D01*
X159983338Y-99828738D01*
X159878738Y-99933338D01*
X159878735Y-99933340D01*
X159755732Y-100015528D01*
X159619059Y-100072140D01*
X159532004Y-100089456D01*
X159473969Y-100101000D01*
X159326031Y-100101000D01*
X159267996Y-100089456D01*
X159180941Y-100072140D01*
X159044268Y-100015528D01*
X158921265Y-99933340D01*
X158921262Y-99933338D01*
X158816662Y-99828738D01*
X158734473Y-99705733D01*
X158734472Y-99705732D01*
X158677860Y-99569059D01*
X158649000Y-99423967D01*
X158649000Y-99276033D01*
X158677860Y-99130941D01*
X158734472Y-98994268D01*
X158816660Y-98871265D01*
X158816662Y-98871262D01*
X158921262Y-98766662D01*
X159044267Y-98684473D01*
X159044268Y-98684472D01*
X159180941Y-98627860D01*
X159267996Y-98610544D01*
X159326031Y-98599000D01*
X159473969Y-98599000D01*
X159532004Y-98610544D01*
X159532004Y-98610544D01*
G37*
G36*
X148251000Y-99301000D02*
X146449000Y-99301000D01*
X146449000Y-97199000D01*
X148251000Y-97199000D01*
X148251000Y-99301000D01*
X148251000Y-99301000D01*
G37*
G36*
X144951000Y-96776000D02*
X142149000Y-96776000D01*
X142149000Y-94124000D01*
X144951000Y-94124000D01*
X144951000Y-96776000D01*
X144951000Y-96776000D01*
G37*
M02*
