G04 #@! TF.GenerationSoftware,KiCad,Pcbnew,7.99.0-unknown-c07e9c834f~172~ubuntu22.04.1*
G04 #@! TF.CreationDate,2023-09-07T22:16:35+09:00*
G04 #@! TF.ProjectId,bGeigieCast V1.6.0(StampS3),62476569-6769-4654-9361-73742056312e,rev?*
G04 #@! TF.SameCoordinates,Original*
G04 #@! TF.FileFunction,Legend,Top*
G04 #@! TF.FilePolarity,Positive*
%FSLAX46Y46*%
G04 Gerber Fmt 4.6, Leading zero omitted, Abs format (unit mm)*
G04 Created by KiCad (PCBNEW 7.99.0-unknown-c07e9c834f~172~ubuntu22.04.1) date 2023-09-07 22:16:35*
%MOMM*%
%LPD*%
G01*
G04 APERTURE LIST*
%ADD10C,0.100000*%
%ADD11C,0.150000*%
G04 #@! TA.AperFunction,Profile*
%ADD12C,0.150000*%
G04 #@! TD*
G04 APERTURE END LIST*
D10*
X143429334Y-93171153D02*
X143429334Y-92471153D01*
X143429334Y-92737820D02*
X143496001Y-92704486D01*
X143496001Y-92704486D02*
X143629334Y-92704486D01*
X143629334Y-92704486D02*
X143696001Y-92737820D01*
X143696001Y-92737820D02*
X143729334Y-92771153D01*
X143729334Y-92771153D02*
X143762668Y-92837820D01*
X143762668Y-92837820D02*
X143762668Y-93037820D01*
X143762668Y-93037820D02*
X143729334Y-93104486D01*
X143729334Y-93104486D02*
X143696001Y-93137820D01*
X143696001Y-93137820D02*
X143629334Y-93171153D01*
X143629334Y-93171153D02*
X143496001Y-93171153D01*
X143496001Y-93171153D02*
X143429334Y-93137820D01*
X144429334Y-92504486D02*
X144362667Y-92471153D01*
X144362667Y-92471153D02*
X144262667Y-92471153D01*
X144262667Y-92471153D02*
X144162667Y-92504486D01*
X144162667Y-92504486D02*
X144096001Y-92571153D01*
X144096001Y-92571153D02*
X144062667Y-92637820D01*
X144062667Y-92637820D02*
X144029334Y-92771153D01*
X144029334Y-92771153D02*
X144029334Y-92871153D01*
X144029334Y-92871153D02*
X144062667Y-93004486D01*
X144062667Y-93004486D02*
X144096001Y-93071153D01*
X144096001Y-93071153D02*
X144162667Y-93137820D01*
X144162667Y-93137820D02*
X144262667Y-93171153D01*
X144262667Y-93171153D02*
X144329334Y-93171153D01*
X144329334Y-93171153D02*
X144429334Y-93137820D01*
X144429334Y-93137820D02*
X144462667Y-93104486D01*
X144462667Y-93104486D02*
X144462667Y-92871153D01*
X144462667Y-92871153D02*
X144329334Y-92871153D01*
X145029334Y-93137820D02*
X144962667Y-93171153D01*
X144962667Y-93171153D02*
X144829334Y-93171153D01*
X144829334Y-93171153D02*
X144762667Y-93137820D01*
X144762667Y-93137820D02*
X144729334Y-93071153D01*
X144729334Y-93071153D02*
X144729334Y-92804486D01*
X144729334Y-92804486D02*
X144762667Y-92737820D01*
X144762667Y-92737820D02*
X144829334Y-92704486D01*
X144829334Y-92704486D02*
X144962667Y-92704486D01*
X144962667Y-92704486D02*
X145029334Y-92737820D01*
X145029334Y-92737820D02*
X145062667Y-92804486D01*
X145062667Y-92804486D02*
X145062667Y-92871153D01*
X145062667Y-92871153D02*
X144729334Y-92937820D01*
X145362667Y-93171153D02*
X145362667Y-92704486D01*
X145362667Y-92471153D02*
X145329334Y-92504486D01*
X145329334Y-92504486D02*
X145362667Y-92537820D01*
X145362667Y-92537820D02*
X145396001Y-92504486D01*
X145396001Y-92504486D02*
X145362667Y-92471153D01*
X145362667Y-92471153D02*
X145362667Y-92537820D01*
X145996000Y-92704486D02*
X145996000Y-93271153D01*
X145996000Y-93271153D02*
X145962667Y-93337820D01*
X145962667Y-93337820D02*
X145929334Y-93371153D01*
X145929334Y-93371153D02*
X145862667Y-93404486D01*
X145862667Y-93404486D02*
X145762667Y-93404486D01*
X145762667Y-93404486D02*
X145696000Y-93371153D01*
X145996000Y-93137820D02*
X145929334Y-93171153D01*
X145929334Y-93171153D02*
X145796000Y-93171153D01*
X145796000Y-93171153D02*
X145729334Y-93137820D01*
X145729334Y-93137820D02*
X145696000Y-93104486D01*
X145696000Y-93104486D02*
X145662667Y-93037820D01*
X145662667Y-93037820D02*
X145662667Y-92837820D01*
X145662667Y-92837820D02*
X145696000Y-92771153D01*
X145696000Y-92771153D02*
X145729334Y-92737820D01*
X145729334Y-92737820D02*
X145796000Y-92704486D01*
X145796000Y-92704486D02*
X145929334Y-92704486D01*
X145929334Y-92704486D02*
X145996000Y-92737820D01*
X146329333Y-93171153D02*
X146329333Y-92704486D01*
X146329333Y-92471153D02*
X146296000Y-92504486D01*
X146296000Y-92504486D02*
X146329333Y-92537820D01*
X146329333Y-92537820D02*
X146362667Y-92504486D01*
X146362667Y-92504486D02*
X146329333Y-92471153D01*
X146329333Y-92471153D02*
X146329333Y-92537820D01*
X146929333Y-93137820D02*
X146862666Y-93171153D01*
X146862666Y-93171153D02*
X146729333Y-93171153D01*
X146729333Y-93171153D02*
X146662666Y-93137820D01*
X146662666Y-93137820D02*
X146629333Y-93071153D01*
X146629333Y-93071153D02*
X146629333Y-92804486D01*
X146629333Y-92804486D02*
X146662666Y-92737820D01*
X146662666Y-92737820D02*
X146729333Y-92704486D01*
X146729333Y-92704486D02*
X146862666Y-92704486D01*
X146862666Y-92704486D02*
X146929333Y-92737820D01*
X146929333Y-92737820D02*
X146962666Y-92804486D01*
X146962666Y-92804486D02*
X146962666Y-92871153D01*
X146962666Y-92871153D02*
X146629333Y-92937820D01*
X147662666Y-93104486D02*
X147629333Y-93137820D01*
X147629333Y-93137820D02*
X147529333Y-93171153D01*
X147529333Y-93171153D02*
X147462666Y-93171153D01*
X147462666Y-93171153D02*
X147362666Y-93137820D01*
X147362666Y-93137820D02*
X147296000Y-93071153D01*
X147296000Y-93071153D02*
X147262666Y-93004486D01*
X147262666Y-93004486D02*
X147229333Y-92871153D01*
X147229333Y-92871153D02*
X147229333Y-92771153D01*
X147229333Y-92771153D02*
X147262666Y-92637820D01*
X147262666Y-92637820D02*
X147296000Y-92571153D01*
X147296000Y-92571153D02*
X147362666Y-92504486D01*
X147362666Y-92504486D02*
X147462666Y-92471153D01*
X147462666Y-92471153D02*
X147529333Y-92471153D01*
X147529333Y-92471153D02*
X147629333Y-92504486D01*
X147629333Y-92504486D02*
X147662666Y-92537820D01*
X148262666Y-93171153D02*
X148262666Y-92804486D01*
X148262666Y-92804486D02*
X148229333Y-92737820D01*
X148229333Y-92737820D02*
X148162666Y-92704486D01*
X148162666Y-92704486D02*
X148029333Y-92704486D01*
X148029333Y-92704486D02*
X147962666Y-92737820D01*
X148262666Y-93137820D02*
X148196000Y-93171153D01*
X148196000Y-93171153D02*
X148029333Y-93171153D01*
X148029333Y-93171153D02*
X147962666Y-93137820D01*
X147962666Y-93137820D02*
X147929333Y-93071153D01*
X147929333Y-93071153D02*
X147929333Y-93004486D01*
X147929333Y-93004486D02*
X147962666Y-92937820D01*
X147962666Y-92937820D02*
X148029333Y-92904486D01*
X148029333Y-92904486D02*
X148196000Y-92904486D01*
X148196000Y-92904486D02*
X148262666Y-92871153D01*
X148562666Y-93137820D02*
X148629333Y-93171153D01*
X148629333Y-93171153D02*
X148762666Y-93171153D01*
X148762666Y-93171153D02*
X148829333Y-93137820D01*
X148829333Y-93137820D02*
X148862666Y-93071153D01*
X148862666Y-93071153D02*
X148862666Y-93037820D01*
X148862666Y-93037820D02*
X148829333Y-92971153D01*
X148829333Y-92971153D02*
X148762666Y-92937820D01*
X148762666Y-92937820D02*
X148662666Y-92937820D01*
X148662666Y-92937820D02*
X148595999Y-92904486D01*
X148595999Y-92904486D02*
X148562666Y-92837820D01*
X148562666Y-92837820D02*
X148562666Y-92804486D01*
X148562666Y-92804486D02*
X148595999Y-92737820D01*
X148595999Y-92737820D02*
X148662666Y-92704486D01*
X148662666Y-92704486D02*
X148762666Y-92704486D01*
X148762666Y-92704486D02*
X148829333Y-92737820D01*
X149062666Y-92704486D02*
X149329333Y-92704486D01*
X149162666Y-92471153D02*
X149162666Y-93071153D01*
X149162666Y-93071153D02*
X149196000Y-93137820D01*
X149196000Y-93137820D02*
X149262666Y-93171153D01*
X149262666Y-93171153D02*
X149329333Y-93171153D01*
X149995999Y-92471153D02*
X150229333Y-93171153D01*
X150229333Y-93171153D02*
X150462666Y-92471153D01*
X151062666Y-93171153D02*
X150662666Y-93171153D01*
X150862666Y-93171153D02*
X150862666Y-92471153D01*
X150862666Y-92471153D02*
X150795999Y-92571153D01*
X150795999Y-92571153D02*
X150729333Y-92637820D01*
X150729333Y-92637820D02*
X150662666Y-92671153D01*
X151362666Y-93104486D02*
X151396000Y-93137820D01*
X151396000Y-93137820D02*
X151362666Y-93171153D01*
X151362666Y-93171153D02*
X151329333Y-93137820D01*
X151329333Y-93137820D02*
X151362666Y-93104486D01*
X151362666Y-93104486D02*
X151362666Y-93171153D01*
X151995999Y-92471153D02*
X151862666Y-92471153D01*
X151862666Y-92471153D02*
X151795999Y-92504486D01*
X151795999Y-92504486D02*
X151762666Y-92537820D01*
X151762666Y-92537820D02*
X151695999Y-92637820D01*
X151695999Y-92637820D02*
X151662666Y-92771153D01*
X151662666Y-92771153D02*
X151662666Y-93037820D01*
X151662666Y-93037820D02*
X151695999Y-93104486D01*
X151695999Y-93104486D02*
X151729333Y-93137820D01*
X151729333Y-93137820D02*
X151795999Y-93171153D01*
X151795999Y-93171153D02*
X151929333Y-93171153D01*
X151929333Y-93171153D02*
X151995999Y-93137820D01*
X151995999Y-93137820D02*
X152029333Y-93104486D01*
X152029333Y-93104486D02*
X152062666Y-93037820D01*
X152062666Y-93037820D02*
X152062666Y-92871153D01*
X152062666Y-92871153D02*
X152029333Y-92804486D01*
X152029333Y-92804486D02*
X151995999Y-92771153D01*
X151995999Y-92771153D02*
X151929333Y-92737820D01*
X151929333Y-92737820D02*
X151795999Y-92737820D01*
X151795999Y-92737820D02*
X151729333Y-92771153D01*
X151729333Y-92771153D02*
X151695999Y-92804486D01*
X151695999Y-92804486D02*
X151662666Y-92871153D01*
X152362666Y-93104486D02*
X152396000Y-93137820D01*
X152396000Y-93137820D02*
X152362666Y-93171153D01*
X152362666Y-93171153D02*
X152329333Y-93137820D01*
X152329333Y-93137820D02*
X152362666Y-93104486D01*
X152362666Y-93104486D02*
X152362666Y-93171153D01*
X152662666Y-92537820D02*
X152695999Y-92504486D01*
X152695999Y-92504486D02*
X152762666Y-92471153D01*
X152762666Y-92471153D02*
X152929333Y-92471153D01*
X152929333Y-92471153D02*
X152995999Y-92504486D01*
X152995999Y-92504486D02*
X153029333Y-92537820D01*
X153029333Y-92537820D02*
X153062666Y-92604486D01*
X153062666Y-92604486D02*
X153062666Y-92671153D01*
X153062666Y-92671153D02*
X153029333Y-92771153D01*
X153029333Y-92771153D02*
X152629333Y-93171153D01*
X152629333Y-93171153D02*
X153062666Y-93171153D01*
X144829333Y-94264781D02*
X144896000Y-94298114D01*
X144896000Y-94298114D02*
X145029333Y-94298114D01*
X145029333Y-94298114D02*
X145096000Y-94264781D01*
X145096000Y-94264781D02*
X145129333Y-94198114D01*
X145129333Y-94198114D02*
X145129333Y-94164781D01*
X145129333Y-94164781D02*
X145096000Y-94098114D01*
X145096000Y-94098114D02*
X145029333Y-94064781D01*
X145029333Y-94064781D02*
X144929333Y-94064781D01*
X144929333Y-94064781D02*
X144862666Y-94031447D01*
X144862666Y-94031447D02*
X144829333Y-93964781D01*
X144829333Y-93964781D02*
X144829333Y-93931447D01*
X144829333Y-93931447D02*
X144862666Y-93864781D01*
X144862666Y-93864781D02*
X144929333Y-93831447D01*
X144929333Y-93831447D02*
X145029333Y-93831447D01*
X145029333Y-93831447D02*
X145096000Y-93864781D01*
X145729333Y-94298114D02*
X145729333Y-93931447D01*
X145729333Y-93931447D02*
X145696000Y-93864781D01*
X145696000Y-93864781D02*
X145629333Y-93831447D01*
X145629333Y-93831447D02*
X145496000Y-93831447D01*
X145496000Y-93831447D02*
X145429333Y-93864781D01*
X145729333Y-94264781D02*
X145662667Y-94298114D01*
X145662667Y-94298114D02*
X145496000Y-94298114D01*
X145496000Y-94298114D02*
X145429333Y-94264781D01*
X145429333Y-94264781D02*
X145396000Y-94198114D01*
X145396000Y-94198114D02*
X145396000Y-94131447D01*
X145396000Y-94131447D02*
X145429333Y-94064781D01*
X145429333Y-94064781D02*
X145496000Y-94031447D01*
X145496000Y-94031447D02*
X145662667Y-94031447D01*
X145662667Y-94031447D02*
X145729333Y-93998114D01*
X145962666Y-93831447D02*
X146229333Y-93831447D01*
X146062666Y-94298114D02*
X146062666Y-93698114D01*
X146062666Y-93698114D02*
X146096000Y-93631447D01*
X146096000Y-93631447D02*
X146162666Y-93598114D01*
X146162666Y-93598114D02*
X146229333Y-93598114D01*
X146729333Y-94264781D02*
X146662666Y-94298114D01*
X146662666Y-94298114D02*
X146529333Y-94298114D01*
X146529333Y-94298114D02*
X146462666Y-94264781D01*
X146462666Y-94264781D02*
X146429333Y-94198114D01*
X146429333Y-94198114D02*
X146429333Y-93931447D01*
X146429333Y-93931447D02*
X146462666Y-93864781D01*
X146462666Y-93864781D02*
X146529333Y-93831447D01*
X146529333Y-93831447D02*
X146662666Y-93831447D01*
X146662666Y-93831447D02*
X146729333Y-93864781D01*
X146729333Y-93864781D02*
X146762666Y-93931447D01*
X146762666Y-93931447D02*
X146762666Y-93998114D01*
X146762666Y-93998114D02*
X146429333Y-94064781D01*
X147362666Y-94264781D02*
X147296000Y-94298114D01*
X147296000Y-94298114D02*
X147162666Y-94298114D01*
X147162666Y-94298114D02*
X147096000Y-94264781D01*
X147096000Y-94264781D02*
X147062666Y-94231447D01*
X147062666Y-94231447D02*
X147029333Y-94164781D01*
X147029333Y-94164781D02*
X147029333Y-93964781D01*
X147029333Y-93964781D02*
X147062666Y-93898114D01*
X147062666Y-93898114D02*
X147096000Y-93864781D01*
X147096000Y-93864781D02*
X147162666Y-93831447D01*
X147162666Y-93831447D02*
X147296000Y-93831447D01*
X147296000Y-93831447D02*
X147362666Y-93864781D01*
X147962666Y-94298114D02*
X147962666Y-93931447D01*
X147962666Y-93931447D02*
X147929333Y-93864781D01*
X147929333Y-93864781D02*
X147862666Y-93831447D01*
X147862666Y-93831447D02*
X147729333Y-93831447D01*
X147729333Y-93831447D02*
X147662666Y-93864781D01*
X147962666Y-94264781D02*
X147896000Y-94298114D01*
X147896000Y-94298114D02*
X147729333Y-94298114D01*
X147729333Y-94298114D02*
X147662666Y-94264781D01*
X147662666Y-94264781D02*
X147629333Y-94198114D01*
X147629333Y-94198114D02*
X147629333Y-94131447D01*
X147629333Y-94131447D02*
X147662666Y-94064781D01*
X147662666Y-94064781D02*
X147729333Y-94031447D01*
X147729333Y-94031447D02*
X147896000Y-94031447D01*
X147896000Y-94031447D02*
X147962666Y-93998114D01*
X148262666Y-94264781D02*
X148329333Y-94298114D01*
X148329333Y-94298114D02*
X148462666Y-94298114D01*
X148462666Y-94298114D02*
X148529333Y-94264781D01*
X148529333Y-94264781D02*
X148562666Y-94198114D01*
X148562666Y-94198114D02*
X148562666Y-94164781D01*
X148562666Y-94164781D02*
X148529333Y-94098114D01*
X148529333Y-94098114D02*
X148462666Y-94064781D01*
X148462666Y-94064781D02*
X148362666Y-94064781D01*
X148362666Y-94064781D02*
X148295999Y-94031447D01*
X148295999Y-94031447D02*
X148262666Y-93964781D01*
X148262666Y-93964781D02*
X148262666Y-93931447D01*
X148262666Y-93931447D02*
X148295999Y-93864781D01*
X148295999Y-93864781D02*
X148362666Y-93831447D01*
X148362666Y-93831447D02*
X148462666Y-93831447D01*
X148462666Y-93831447D02*
X148529333Y-93864781D01*
X148762666Y-93831447D02*
X149029333Y-93831447D01*
X148862666Y-93598114D02*
X148862666Y-94198114D01*
X148862666Y-94198114D02*
X148896000Y-94264781D01*
X148896000Y-94264781D02*
X148962666Y-94298114D01*
X148962666Y-94298114D02*
X149029333Y-94298114D01*
X149762666Y-93664781D02*
X149795999Y-93631447D01*
X149795999Y-93631447D02*
X149862666Y-93598114D01*
X149862666Y-93598114D02*
X150029333Y-93598114D01*
X150029333Y-93598114D02*
X150095999Y-93631447D01*
X150095999Y-93631447D02*
X150129333Y-93664781D01*
X150129333Y-93664781D02*
X150162666Y-93731447D01*
X150162666Y-93731447D02*
X150162666Y-93798114D01*
X150162666Y-93798114D02*
X150129333Y-93898114D01*
X150129333Y-93898114D02*
X149729333Y-94298114D01*
X149729333Y-94298114D02*
X150162666Y-94298114D01*
X150596000Y-93598114D02*
X150662666Y-93598114D01*
X150662666Y-93598114D02*
X150729333Y-93631447D01*
X150729333Y-93631447D02*
X150762666Y-93664781D01*
X150762666Y-93664781D02*
X150796000Y-93731447D01*
X150796000Y-93731447D02*
X150829333Y-93864781D01*
X150829333Y-93864781D02*
X150829333Y-94031447D01*
X150829333Y-94031447D02*
X150796000Y-94164781D01*
X150796000Y-94164781D02*
X150762666Y-94231447D01*
X150762666Y-94231447D02*
X150729333Y-94264781D01*
X150729333Y-94264781D02*
X150662666Y-94298114D01*
X150662666Y-94298114D02*
X150596000Y-94298114D01*
X150596000Y-94298114D02*
X150529333Y-94264781D01*
X150529333Y-94264781D02*
X150496000Y-94231447D01*
X150496000Y-94231447D02*
X150462666Y-94164781D01*
X150462666Y-94164781D02*
X150429333Y-94031447D01*
X150429333Y-94031447D02*
X150429333Y-93864781D01*
X150429333Y-93864781D02*
X150462666Y-93731447D01*
X150462666Y-93731447D02*
X150496000Y-93664781D01*
X150496000Y-93664781D02*
X150529333Y-93631447D01*
X150529333Y-93631447D02*
X150596000Y-93598114D01*
X151096000Y-93664781D02*
X151129333Y-93631447D01*
X151129333Y-93631447D02*
X151196000Y-93598114D01*
X151196000Y-93598114D02*
X151362667Y-93598114D01*
X151362667Y-93598114D02*
X151429333Y-93631447D01*
X151429333Y-93631447D02*
X151462667Y-93664781D01*
X151462667Y-93664781D02*
X151496000Y-93731447D01*
X151496000Y-93731447D02*
X151496000Y-93798114D01*
X151496000Y-93798114D02*
X151462667Y-93898114D01*
X151462667Y-93898114D02*
X151062667Y-94298114D01*
X151062667Y-94298114D02*
X151496000Y-94298114D01*
X151729334Y-93598114D02*
X152162667Y-93598114D01*
X152162667Y-93598114D02*
X151929334Y-93864781D01*
X151929334Y-93864781D02*
X152029334Y-93864781D01*
X152029334Y-93864781D02*
X152096000Y-93898114D01*
X152096000Y-93898114D02*
X152129334Y-93931447D01*
X152129334Y-93931447D02*
X152162667Y-93998114D01*
X152162667Y-93998114D02*
X152162667Y-94164781D01*
X152162667Y-94164781D02*
X152129334Y-94231447D01*
X152129334Y-94231447D02*
X152096000Y-94264781D01*
X152096000Y-94264781D02*
X152029334Y-94298114D01*
X152029334Y-94298114D02*
X151829334Y-94298114D01*
X151829334Y-94298114D02*
X151762667Y-94264781D01*
X151762667Y-94264781D02*
X151729334Y-94231447D01*
D11*
X155782666Y-111666819D02*
X155782666Y-112381104D01*
X155782666Y-112381104D02*
X155735047Y-112523961D01*
X155735047Y-112523961D02*
X155639809Y-112619200D01*
X155639809Y-112619200D02*
X155496952Y-112666819D01*
X155496952Y-112666819D02*
X155401714Y-112666819D01*
X156211238Y-111762057D02*
X156258857Y-111714438D01*
X156258857Y-111714438D02*
X156354095Y-111666819D01*
X156354095Y-111666819D02*
X156592190Y-111666819D01*
X156592190Y-111666819D02*
X156687428Y-111714438D01*
X156687428Y-111714438D02*
X156735047Y-111762057D01*
X156735047Y-111762057D02*
X156782666Y-111857295D01*
X156782666Y-111857295D02*
X156782666Y-111952533D01*
X156782666Y-111952533D02*
X156735047Y-112095390D01*
X156735047Y-112095390D02*
X156163619Y-112666819D01*
X156163619Y-112666819D02*
X156782666Y-112666819D01*
X155716666Y-119286819D02*
X155716666Y-120001104D01*
X155716666Y-120001104D02*
X155669047Y-120143961D01*
X155669047Y-120143961D02*
X155573809Y-120239200D01*
X155573809Y-120239200D02*
X155430952Y-120286819D01*
X155430952Y-120286819D02*
X155335714Y-120286819D01*
X156145238Y-119382057D02*
X156192857Y-119334438D01*
X156192857Y-119334438D02*
X156288095Y-119286819D01*
X156288095Y-119286819D02*
X156526190Y-119286819D01*
X156526190Y-119286819D02*
X156621428Y-119334438D01*
X156621428Y-119334438D02*
X156669047Y-119382057D01*
X156669047Y-119382057D02*
X156716666Y-119477295D01*
X156716666Y-119477295D02*
X156716666Y-119572533D01*
X156716666Y-119572533D02*
X156669047Y-119715390D01*
X156669047Y-119715390D02*
X156097619Y-120286819D01*
X156097619Y-120286819D02*
X156716666Y-120286819D01*
X138129666Y-118270819D02*
X138129666Y-118985104D01*
X138129666Y-118985104D02*
X138082047Y-119127961D01*
X138082047Y-119127961D02*
X137986809Y-119223200D01*
X137986809Y-119223200D02*
X137843952Y-119270819D01*
X137843952Y-119270819D02*
X137748714Y-119270819D01*
X139129666Y-119270819D02*
X138558238Y-119270819D01*
X138843952Y-119270819D02*
X138843952Y-118270819D01*
X138843952Y-118270819D02*
X138748714Y-118413676D01*
X138748714Y-118413676D02*
X138653476Y-118508914D01*
X138653476Y-118508914D02*
X138558238Y-118556533D01*
X147638095Y-89314819D02*
X147638095Y-90124342D01*
X147638095Y-90124342D02*
X147685714Y-90219580D01*
X147685714Y-90219580D02*
X147733333Y-90267200D01*
X147733333Y-90267200D02*
X147828571Y-90314819D01*
X147828571Y-90314819D02*
X148019047Y-90314819D01*
X148019047Y-90314819D02*
X148114285Y-90267200D01*
X148114285Y-90267200D02*
X148161904Y-90219580D01*
X148161904Y-90219580D02*
X148209523Y-90124342D01*
X148209523Y-90124342D02*
X148209523Y-89314819D01*
X148638095Y-89410057D02*
X148685714Y-89362438D01*
X148685714Y-89362438D02*
X148780952Y-89314819D01*
X148780952Y-89314819D02*
X149019047Y-89314819D01*
X149019047Y-89314819D02*
X149114285Y-89362438D01*
X149114285Y-89362438D02*
X149161904Y-89410057D01*
X149161904Y-89410057D02*
X149209523Y-89505295D01*
X149209523Y-89505295D02*
X149209523Y-89600533D01*
X149209523Y-89600533D02*
X149161904Y-89743390D01*
X149161904Y-89743390D02*
X148590476Y-90314819D01*
X148590476Y-90314819D02*
X149209523Y-90314819D01*
D10*
X136000000Y-98850000D02*
X136000000Y-99350000D01*
X136000000Y-98850000D02*
X136400000Y-98450000D01*
X136000000Y-108350000D02*
X136000000Y-112150000D01*
X136050000Y-119050000D02*
X136050000Y-118550000D01*
X136050000Y-119050000D02*
X136550000Y-119050000D01*
X143600000Y-91250000D02*
X143200000Y-91650000D01*
X143600000Y-91250000D02*
X144100000Y-91250000D01*
X153200000Y-91250000D02*
X152700000Y-91250000D01*
X153200000Y-91250000D02*
X153600000Y-91650000D01*
X160750000Y-119050000D02*
X160250000Y-119050000D01*
X160750000Y-119050000D02*
X160750000Y-118550000D01*
X160800000Y-98850000D02*
X160400000Y-98450000D01*
X160800000Y-98850000D02*
X160800000Y-99350000D01*
X160800000Y-108350000D02*
X160800000Y-112150000D01*
D12*
X135836040Y-119197000D02*
X136431000Y-119705000D01*
X135923000Y-96718000D02*
X135836040Y-119197000D01*
X141765000Y-119705000D02*
X136431000Y-119705000D01*
X160306500Y-119705000D02*
X154998400Y-119679600D01*
X160942000Y-119197000D02*
X161005500Y-97353000D01*
X142019000Y-91257000D02*
X135923000Y-96718000D01*
X160942000Y-119197000D02*
X160306500Y-119705000D01*
X141587200Y-96057600D02*
X141587200Y-119679600D01*
X156360127Y-102138500D02*
X154973000Y-103576000D01*
X155544500Y-91257000D02*
X161005500Y-97353000D01*
X154642800Y-94482800D02*
X156370000Y-96337000D01*
X154973000Y-103576000D02*
X154998400Y-119679600D01*
X155544500Y-91257000D02*
X142019000Y-91257000D01*
X142984200Y-94533600D02*
X141587200Y-96057600D01*
X154642800Y-94482800D02*
X142984200Y-94533600D01*
X156370000Y-96337000D02*
X156360127Y-102138500D01*
M02*
