%TF.GenerationSoftware,KiCad,Pcbnew,(6.0.0-rc1-dev-634-gb5e3f6406)*%
%TF.CreationDate,2019-05-27T20:40:42+09:00*%
%TF.ProjectId,xbee,786265652E6B696361645F7063620000,rev?*%
%TF.SameCoordinates,Original*%
%TF.FileFunction,Legend,Top*%
%TF.FilePolarity,Positive*%
%FSLAX46Y46*%
G04 Gerber Fmt 4.6, Leading zero omitted, Abs format (unit mm)*
G04 Created by KiCad (PCBNEW (6.0.0-rc1-dev-634-gb5e3f6406)) date 2019 May 27, Monday 20:40:42*
%MOMM*%
%LPD*%
G01*
G04 APERTURE LIST*
%ADD10C,0.050000*%
%ADD11C,0.150000*%
%ADD12C,0.100000*%
%ADD13C,0.120000*%
%ADD14C,0.075000*%
G04 APERTURE END LIST*
D10*
X141076190Y-121509523D02*
X141504761Y-121509523D01*
X141695238Y-121676190D02*
X141695238Y-121176190D01*
X141885714Y-121176190D01*
X141933333Y-121200000D01*
X141957142Y-121223809D01*
X141980952Y-121271428D01*
X141980952Y-121342857D01*
X141957142Y-121390476D01*
X141933333Y-121414285D01*
X141885714Y-121438095D01*
X141695238Y-121438095D01*
X142290476Y-121176190D02*
X142385714Y-121176190D01*
X142433333Y-121200000D01*
X142480952Y-121247619D01*
X142504761Y-121342857D01*
X142504761Y-121509523D01*
X142480952Y-121604761D01*
X142433333Y-121652380D01*
X142385714Y-121676190D01*
X142290476Y-121676190D01*
X142242857Y-121652380D01*
X142195238Y-121604761D01*
X142171428Y-121509523D01*
X142171428Y-121342857D01*
X142195238Y-121247619D01*
X142242857Y-121200000D01*
X142290476Y-121176190D01*
X142671428Y-121176190D02*
X142790476Y-121676190D01*
X142885714Y-121319047D01*
X142980952Y-121676190D01*
X143100000Y-121176190D01*
X143290476Y-121414285D02*
X143457142Y-121414285D01*
X143528571Y-121676190D02*
X143290476Y-121676190D01*
X143290476Y-121176190D01*
X143528571Y-121176190D01*
X144028571Y-121676190D02*
X143861904Y-121438095D01*
X143742857Y-121676190D02*
X143742857Y-121176190D01*
X143933333Y-121176190D01*
X143980952Y-121200000D01*
X144004761Y-121223809D01*
X144028571Y-121271428D01*
X144028571Y-121342857D01*
X144004761Y-121390476D01*
X143980952Y-121414285D01*
X143933333Y-121438095D01*
X143742857Y-121438095D01*
X144195238Y-121509523D02*
X144623809Y-121509523D01*
X138988095Y-121061904D02*
X139140476Y-121061904D01*
X139216666Y-121100000D01*
X139292857Y-121176190D01*
X139330952Y-121328571D01*
X139330952Y-121595238D01*
X139292857Y-121747619D01*
X139216666Y-121823809D01*
X139140476Y-121861904D01*
X138988095Y-121861904D01*
X138911904Y-121823809D01*
X138835714Y-121747619D01*
X138797619Y-121595238D01*
X138797619Y-121328571D01*
X138835714Y-121176190D01*
X138911904Y-121100000D01*
X138988095Y-121061904D01*
X139940476Y-121442857D02*
X139673809Y-121442857D01*
X139673809Y-121861904D02*
X139673809Y-121061904D01*
X140054761Y-121061904D01*
X140626190Y-121442857D02*
X140359523Y-121442857D01*
X140359523Y-121861904D02*
X140359523Y-121061904D01*
X140740476Y-121061904D01*
X145254761Y-121061904D02*
X145407142Y-121061904D01*
X145483333Y-121100000D01*
X145559523Y-121176190D01*
X145597619Y-121328571D01*
X145597619Y-121595238D01*
X145559523Y-121747619D01*
X145483333Y-121823809D01*
X145407142Y-121861904D01*
X145254761Y-121861904D01*
X145178571Y-121823809D01*
X145102380Y-121747619D01*
X145064285Y-121595238D01*
X145064285Y-121328571D01*
X145102380Y-121176190D01*
X145178571Y-121100000D01*
X145254761Y-121061904D01*
X145940476Y-121861904D02*
X145940476Y-121061904D01*
X146397619Y-121861904D01*
X146397619Y-121061904D01*
D11*
X143250000Y-90250000D02*
X153500000Y-90250000D01*
X135750000Y-96750000D02*
X143250000Y-90250000D01*
X135750000Y-96750000D02*
X135850000Y-122250000D01*
X153500000Y-90250000D02*
X161201100Y-96750000D01*
X161201100Y-96750000D02*
X161250000Y-122250000D01*
X161250000Y-122250000D02*
X135850000Y-122250000D01*
D10*
X147989642Y-121628571D02*
X147989642Y-121178571D01*
X147989642Y-121350000D02*
X148032500Y-121328571D01*
X148118214Y-121328571D01*
X148161071Y-121350000D01*
X148182500Y-121371428D01*
X148203928Y-121414285D01*
X148203928Y-121542857D01*
X148182500Y-121585714D01*
X148161071Y-121607142D01*
X148118214Y-121628571D01*
X148032500Y-121628571D01*
X147989642Y-121607142D01*
X148632500Y-121200000D02*
X148589642Y-121178571D01*
X148525357Y-121178571D01*
X148461071Y-121200000D01*
X148418214Y-121242857D01*
X148396785Y-121285714D01*
X148375357Y-121371428D01*
X148375357Y-121435714D01*
X148396785Y-121521428D01*
X148418214Y-121564285D01*
X148461071Y-121607142D01*
X148525357Y-121628571D01*
X148568214Y-121628571D01*
X148632500Y-121607142D01*
X148653928Y-121585714D01*
X148653928Y-121435714D01*
X148568214Y-121435714D01*
X149018214Y-121607142D02*
X148975357Y-121628571D01*
X148889642Y-121628571D01*
X148846785Y-121607142D01*
X148825357Y-121564285D01*
X148825357Y-121392857D01*
X148846785Y-121350000D01*
X148889642Y-121328571D01*
X148975357Y-121328571D01*
X149018214Y-121350000D01*
X149039642Y-121392857D01*
X149039642Y-121435714D01*
X148825357Y-121478571D01*
X149232500Y-121628571D02*
X149232500Y-121328571D01*
X149232500Y-121178571D02*
X149211071Y-121200000D01*
X149232500Y-121221428D01*
X149253928Y-121200000D01*
X149232500Y-121178571D01*
X149232500Y-121221428D01*
X149639642Y-121328571D02*
X149639642Y-121692857D01*
X149618214Y-121735714D01*
X149596785Y-121757142D01*
X149553928Y-121778571D01*
X149489642Y-121778571D01*
X149446785Y-121757142D01*
X149639642Y-121607142D02*
X149596785Y-121628571D01*
X149511071Y-121628571D01*
X149468214Y-121607142D01*
X149446785Y-121585714D01*
X149425357Y-121542857D01*
X149425357Y-121414285D01*
X149446785Y-121371428D01*
X149468214Y-121350000D01*
X149511071Y-121328571D01*
X149596785Y-121328571D01*
X149639642Y-121350000D01*
X149853928Y-121628571D02*
X149853928Y-121328571D01*
X149853928Y-121178571D02*
X149832500Y-121200000D01*
X149853928Y-121221428D01*
X149875357Y-121200000D01*
X149853928Y-121178571D01*
X149853928Y-121221428D01*
X150239642Y-121607142D02*
X150196785Y-121628571D01*
X150111071Y-121628571D01*
X150068214Y-121607142D01*
X150046785Y-121564285D01*
X150046785Y-121392857D01*
X150068214Y-121350000D01*
X150111071Y-121328571D01*
X150196785Y-121328571D01*
X150239642Y-121350000D01*
X150261071Y-121392857D01*
X150261071Y-121435714D01*
X150046785Y-121478571D01*
X150453928Y-121457142D02*
X150796785Y-121457142D01*
X151268214Y-121585714D02*
X151246785Y-121607142D01*
X151182500Y-121628571D01*
X151139642Y-121628571D01*
X151075357Y-121607142D01*
X151032500Y-121564285D01*
X151011071Y-121521428D01*
X150989642Y-121435714D01*
X150989642Y-121371428D01*
X151011071Y-121285714D01*
X151032500Y-121242857D01*
X151075357Y-121200000D01*
X151139642Y-121178571D01*
X151182500Y-121178571D01*
X151246785Y-121200000D01*
X151268214Y-121221428D01*
X151653928Y-121628571D02*
X151653928Y-121392857D01*
X151632500Y-121350000D01*
X151589642Y-121328571D01*
X151503928Y-121328571D01*
X151461071Y-121350000D01*
X151653928Y-121607142D02*
X151611071Y-121628571D01*
X151503928Y-121628571D01*
X151461071Y-121607142D01*
X151439642Y-121564285D01*
X151439642Y-121521428D01*
X151461071Y-121478571D01*
X151503928Y-121457142D01*
X151611071Y-121457142D01*
X151653928Y-121435714D01*
X151846785Y-121607142D02*
X151889642Y-121628571D01*
X151975357Y-121628571D01*
X152018214Y-121607142D01*
X152039642Y-121564285D01*
X152039642Y-121542857D01*
X152018214Y-121500000D01*
X151975357Y-121478571D01*
X151911071Y-121478571D01*
X151868214Y-121457142D01*
X151846785Y-121414285D01*
X151846785Y-121392857D01*
X151868214Y-121350000D01*
X151911071Y-121328571D01*
X151975357Y-121328571D01*
X152018214Y-121350000D01*
X152168214Y-121328571D02*
X152339642Y-121328571D01*
X152232500Y-121178571D02*
X152232500Y-121564285D01*
X152253928Y-121607142D01*
X152296785Y-121628571D01*
X152339642Y-121628571D01*
X152768214Y-121178571D02*
X152918214Y-121628571D01*
X153068214Y-121178571D01*
X153453928Y-121628571D02*
X153196785Y-121628571D01*
X153325357Y-121628571D02*
X153325357Y-121178571D01*
X153282500Y-121242857D01*
X153239642Y-121285714D01*
X153196785Y-121307142D01*
X153646785Y-121585714D02*
X153668214Y-121607142D01*
X153646785Y-121628571D01*
X153625357Y-121607142D01*
X153646785Y-121585714D01*
X153646785Y-121628571D01*
X153818214Y-121178571D02*
X154096785Y-121178571D01*
X153946785Y-121350000D01*
X154011071Y-121350000D01*
X154053928Y-121371428D01*
X154075357Y-121392857D01*
X154096785Y-121435714D01*
X154096785Y-121542857D01*
X154075357Y-121585714D01*
X154053928Y-121607142D01*
X154011071Y-121628571D01*
X153882500Y-121628571D01*
X153839642Y-121607142D01*
X153818214Y-121585714D01*
X154289642Y-121585714D02*
X154311071Y-121607142D01*
X154289642Y-121628571D01*
X154268214Y-121607142D01*
X154289642Y-121585714D01*
X154289642Y-121628571D01*
X154589642Y-121178571D02*
X154632500Y-121178571D01*
X154675357Y-121200000D01*
X154696785Y-121221428D01*
X154718214Y-121264285D01*
X154739642Y-121350000D01*
X154739642Y-121457142D01*
X154718214Y-121542857D01*
X154696785Y-121585714D01*
X154675357Y-121607142D01*
X154632500Y-121628571D01*
X154589642Y-121628571D01*
X154546785Y-121607142D01*
X154525357Y-121585714D01*
X154503928Y-121542857D01*
X154482500Y-121457142D01*
X154482500Y-121350000D01*
X154503928Y-121264285D01*
X154525357Y-121221428D01*
X154546785Y-121200000D01*
X154589642Y-121178571D01*
X155253928Y-121607142D02*
X155318214Y-121628571D01*
X155425357Y-121628571D01*
X155468214Y-121607142D01*
X155489642Y-121585714D01*
X155511071Y-121542857D01*
X155511071Y-121500000D01*
X155489642Y-121457142D01*
X155468214Y-121435714D01*
X155425357Y-121414285D01*
X155339642Y-121392857D01*
X155296785Y-121371428D01*
X155275357Y-121350000D01*
X155253928Y-121307142D01*
X155253928Y-121264285D01*
X155275357Y-121221428D01*
X155296785Y-121200000D01*
X155339642Y-121178571D01*
X155446785Y-121178571D01*
X155511071Y-121200000D01*
X155682500Y-121500000D02*
X155896785Y-121500000D01*
X155639642Y-121628571D02*
X155789642Y-121178571D01*
X155939642Y-121628571D01*
X156239642Y-121392857D02*
X156089642Y-121392857D01*
X156089642Y-121628571D02*
X156089642Y-121178571D01*
X156303928Y-121178571D01*
X156475357Y-121392857D02*
X156625357Y-121392857D01*
X156689642Y-121628571D02*
X156475357Y-121628571D01*
X156475357Y-121178571D01*
X156689642Y-121178571D01*
X157139642Y-121585714D02*
X157118214Y-121607142D01*
X157053928Y-121628571D01*
X157011071Y-121628571D01*
X156946785Y-121607142D01*
X156903928Y-121564285D01*
X156882500Y-121521428D01*
X156861071Y-121435714D01*
X156861071Y-121371428D01*
X156882500Y-121285714D01*
X156903928Y-121242857D01*
X156946785Y-121200000D01*
X157011071Y-121178571D01*
X157053928Y-121178571D01*
X157118214Y-121200000D01*
X157139642Y-121221428D01*
X157311071Y-121500000D02*
X157525357Y-121500000D01*
X157268214Y-121628571D02*
X157418214Y-121178571D01*
X157568214Y-121628571D01*
X157696785Y-121607142D02*
X157761071Y-121628571D01*
X157868214Y-121628571D01*
X157911071Y-121607142D01*
X157932500Y-121585714D01*
X157953928Y-121542857D01*
X157953928Y-121500000D01*
X157932500Y-121457142D01*
X157911071Y-121435714D01*
X157868214Y-121414285D01*
X157782500Y-121392857D01*
X157739642Y-121371428D01*
X157718214Y-121350000D01*
X157696785Y-121307142D01*
X157696785Y-121264285D01*
X157718214Y-121221428D01*
X157739642Y-121200000D01*
X157782500Y-121178571D01*
X157889642Y-121178571D01*
X157953928Y-121200000D01*
X158082500Y-121178571D02*
X158339642Y-121178571D01*
X158211071Y-121628571D02*
X158211071Y-121178571D01*
X158811071Y-121221428D02*
X158832500Y-121200000D01*
X158875357Y-121178571D01*
X158982500Y-121178571D01*
X159025357Y-121200000D01*
X159046785Y-121221428D01*
X159068214Y-121264285D01*
X159068214Y-121307142D01*
X159046785Y-121371428D01*
X158789642Y-121628571D01*
X159068214Y-121628571D01*
X159346785Y-121178571D02*
X159389642Y-121178571D01*
X159432500Y-121200000D01*
X159453928Y-121221428D01*
X159475357Y-121264285D01*
X159496785Y-121350000D01*
X159496785Y-121457142D01*
X159475357Y-121542857D01*
X159453928Y-121585714D01*
X159432500Y-121607142D01*
X159389642Y-121628571D01*
X159346785Y-121628571D01*
X159303928Y-121607142D01*
X159282500Y-121585714D01*
X159261071Y-121542857D01*
X159239642Y-121457142D01*
X159239642Y-121350000D01*
X159261071Y-121264285D01*
X159282500Y-121221428D01*
X159303928Y-121200000D01*
X159346785Y-121178571D01*
X159925357Y-121628571D02*
X159668214Y-121628571D01*
X159796785Y-121628571D02*
X159796785Y-121178571D01*
X159753928Y-121242857D01*
X159711071Y-121285714D01*
X159668214Y-121307142D01*
X160139642Y-121628571D02*
X160225357Y-121628571D01*
X160268214Y-121607142D01*
X160289642Y-121585714D01*
X160332500Y-121521428D01*
X160353928Y-121435714D01*
X160353928Y-121264285D01*
X160332500Y-121221428D01*
X160311071Y-121200000D01*
X160268214Y-121178571D01*
X160182500Y-121178571D01*
X160139642Y-121200000D01*
X160118214Y-121221428D01*
X160096785Y-121264285D01*
X160096785Y-121371428D01*
X160118214Y-121414285D01*
X160139642Y-121435714D01*
X160182500Y-121457142D01*
X160268214Y-121457142D01*
X160311071Y-121435714D01*
X160332500Y-121414285D01*
X160353928Y-121371428D01*
D12*
X160750000Y-119050000D02*
X160250000Y-119050000D01*
X160750000Y-119050000D02*
X160750000Y-118550000D01*
X136050000Y-119050000D02*
X136550000Y-119050000D01*
X136050000Y-119050000D02*
X136050000Y-118550000D01*
X136000000Y-98850000D02*
X136000000Y-99350000D01*
X136000000Y-98850000D02*
X136400000Y-98450000D01*
X160800000Y-98850000D02*
X160400000Y-98450000D01*
X160800000Y-98850000D02*
X160800000Y-99350000D01*
X143600000Y-91250000D02*
X143200000Y-91650000D01*
X143600000Y-91250000D02*
X144100000Y-91250000D01*
X153200000Y-91250000D02*
X152700000Y-91250000D01*
X153200000Y-91250000D02*
X153600000Y-91650000D01*
X136000000Y-108350000D02*
X136000000Y-112150000D01*
X160800000Y-108350000D02*
X160800000Y-112150000D01*
D13*
X147050000Y-115100000D02*
X147050000Y-118100000D01*
X141956000Y-115100000D02*
X147050000Y-115100000D01*
X141956000Y-118900000D02*
X141956000Y-115100000D01*
X146250000Y-118900000D02*
X141956000Y-118900000D01*
X147050000Y-118100000D02*
X146250000Y-118900000D01*
D11*
X157600434Y-93982662D02*
X139600434Y-93982662D01*
X139600434Y-87982662D02*
X139600434Y-113482662D01*
X157600434Y-87982662D02*
X157600434Y-113482662D01*
X157600434Y-113482662D02*
X139600434Y-113482662D01*
X157600434Y-87982662D02*
X139600434Y-87982662D01*
D13*
X154450000Y-115700000D02*
X154000000Y-115250000D01*
X151050000Y-115700000D02*
X151500000Y-115250000D01*
X151050000Y-120300000D02*
X151500000Y-120750000D01*
X154450000Y-120300000D02*
X154000000Y-120750000D01*
X150000000Y-119000000D02*
X150000000Y-117000000D01*
X154000000Y-115250000D02*
X151500000Y-115250000D01*
X155500000Y-119000000D02*
X155500000Y-117000000D01*
X154000000Y-120750000D02*
X151500000Y-120750000D01*
D11*
X147638095Y-89312380D02*
X147638095Y-90121904D01*
X147685714Y-90217142D01*
X147733333Y-90264761D01*
X147828571Y-90312380D01*
X148019047Y-90312380D01*
X148114285Y-90264761D01*
X148161904Y-90217142D01*
X148209523Y-90121904D01*
X148209523Y-89312380D01*
X148638095Y-89407619D02*
X148685714Y-89360000D01*
X148780952Y-89312380D01*
X149019047Y-89312380D01*
X149114285Y-89360000D01*
X149161904Y-89407619D01*
X149209523Y-89502857D01*
X149209523Y-89598095D01*
X149161904Y-89740952D01*
X148590476Y-90312380D01*
X149209523Y-90312380D01*
D14*
X144280952Y-119776190D02*
X144280952Y-119276190D01*
X144400000Y-119276190D01*
X144471428Y-119300000D01*
X144519047Y-119347619D01*
X144542857Y-119395238D01*
X144566666Y-119490476D01*
X144566666Y-119561904D01*
X144542857Y-119657142D01*
X144519047Y-119704761D01*
X144471428Y-119752380D01*
X144400000Y-119776190D01*
X144280952Y-119776190D01*
X145042857Y-119776190D02*
X144757142Y-119776190D01*
X144900000Y-119776190D02*
X144900000Y-119276190D01*
X144852380Y-119347619D01*
X144804761Y-119395238D01*
X144757142Y-119419047D01*
D11*
X147291095Y-95352380D02*
X147291095Y-96161904D01*
X147338714Y-96257142D01*
X147386333Y-96304761D01*
X147481571Y-96352380D01*
X147672047Y-96352380D01*
X147767285Y-96304761D01*
X147814904Y-96257142D01*
X147862523Y-96161904D01*
X147862523Y-95352380D01*
X148862523Y-96352380D02*
X148291095Y-96352380D01*
X148576809Y-96352380D02*
X148576809Y-95352380D01*
X148481571Y-95495238D01*
X148386333Y-95590476D01*
X148291095Y-95638095D01*
D10*
X157083333Y-120202380D02*
X157154761Y-120226190D01*
X157273809Y-120226190D01*
X157321428Y-120202380D01*
X157345238Y-120178571D01*
X157369047Y-120130952D01*
X157369047Y-120083333D01*
X157345238Y-120035714D01*
X157321428Y-120011904D01*
X157273809Y-119988095D01*
X157178571Y-119964285D01*
X157130952Y-119940476D01*
X157107142Y-119916666D01*
X157083333Y-119869047D01*
X157083333Y-119821428D01*
X157107142Y-119773809D01*
X157130952Y-119750000D01*
X157178571Y-119726190D01*
X157297619Y-119726190D01*
X157369047Y-119750000D01*
X157535714Y-119726190D02*
X157654761Y-120226190D01*
X157750000Y-119869047D01*
X157845238Y-120226190D01*
X157964285Y-119726190D01*
X158416666Y-120226190D02*
X158130952Y-120226190D01*
X158273809Y-120226190D02*
X158273809Y-119726190D01*
X158226190Y-119797619D01*
X158178571Y-119845238D01*
X158130952Y-119869047D01*
M02*
