%TF.GenerationSoftware,KiCad,Pcbnew,(6.0.0-rc1-dev-634-gb5e3f6406)*%
%TF.CreationDate,2019-05-27T20:40:42+09:00*%
%TF.ProjectId,xbee,786265652E6B696361645F7063620000,rev?*%
%TF.SameCoordinates,Original*%
%TF.FileFunction,Paste,Top*%
%TF.FilePolarity,Positive*%
%FSLAX46Y46*%
G04 Gerber Fmt 4.6, Leading zero omitted, Abs format (unit mm)*
G04 Created by KiCad (PCBNEW (6.0.0-rc1-dev-634-gb5e3f6406)) date 2019 May 27, Monday 20:40:42*
%MOMM*%
%LPD*%
G01*
G04 APERTURE LIST*
%ADD10C,0.150000*%
%ADD11R,1.200000X0.700000*%
%ADD12R,1.750000X0.900000*%
%ADD13R,0.900000X1.750000*%
%ADD14R,6.000000X6.000000*%
%ADD15R,1.700000X1.000000*%
G04 APERTURE END LIST*
D10*
X143250000Y-90250000D02*
X153500000Y-90250000D01*
X135750000Y-96750000D02*
X143250000Y-90250000D01*
X135750000Y-96750000D02*
X135850000Y-122250000D01*
X153500000Y-90250000D02*
X161201100Y-96750000D01*
X161201100Y-96750000D02*
X161250000Y-122250000D01*
X161250000Y-122250000D02*
X135850000Y-122250000D01*
D11*
X146020000Y-115950000D03*
X143226000Y-115984000D03*
X146020000Y-118050000D03*
X143226000Y-118050000D03*
D12*
X157600434Y-95482662D03*
X157600434Y-96752662D03*
X157600434Y-98022662D03*
X157600434Y-99292662D03*
X157600434Y-100562662D03*
X157600434Y-101832662D03*
X157600434Y-103102662D03*
X157600434Y-104372662D03*
X157600434Y-105642662D03*
X157600434Y-106912662D03*
X157600434Y-108182662D03*
X157600434Y-109452662D03*
X157600434Y-110722662D03*
X157600434Y-111992662D03*
D13*
X154315434Y-113482662D03*
X153045434Y-113482662D03*
X151775434Y-113482662D03*
X150505434Y-113482662D03*
X149235434Y-113482662D03*
X147965434Y-113482662D03*
X146695434Y-113482662D03*
X145425434Y-113482662D03*
X144155434Y-113482662D03*
X142885434Y-113482662D03*
D12*
X139600434Y-111992662D03*
X139600434Y-110722662D03*
X139600434Y-109452662D03*
X139600434Y-108182662D03*
X139600434Y-106912662D03*
X139600434Y-105642662D03*
X139600434Y-104372662D03*
X139600434Y-103102662D03*
X139600434Y-101832662D03*
X139600434Y-100562662D03*
X139600434Y-99292662D03*
X139600434Y-98022662D03*
X139600434Y-96752662D03*
X139600434Y-95482662D03*
D14*
X148300434Y-103182662D03*
D15*
X155900000Y-119900000D03*
X149600000Y-119900000D03*
X155900000Y-116100000D03*
X149600000Y-116100000D03*
M02*
