%TF.GenerationSoftware,KiCad,Pcbnew,(6.0.0-rc1-dev-634-gb5e3f6406)*%
%TF.CreationDate,2019-05-27T20:40:42+09:00*%
%TF.ProjectId,xbee,786265652E6B696361645F7063620000,rev?*%
%TF.SameCoordinates,Original*%
%TF.FileFunction,Soldermask,Top*%
%TF.FilePolarity,Negative*%
%FSLAX46Y46*%
G04 Gerber Fmt 4.6, Leading zero omitted, Abs format (unit mm)*
G04 Created by KiCad (PCBNEW (6.0.0-rc1-dev-634-gb5e3f6406)) date 2019 May 27, Monday 20:40:42*
%MOMM*%
%LPD*%
G01*
G04 APERTURE LIST*
%ADD10C,0.150000*%
%ADD11C,0.100000*%
G04 APERTURE END LIST*
D10*
X143250000Y-90250000D02*
X153500000Y-90250000D01*
X135750000Y-96750000D02*
X143250000Y-90250000D01*
X135750000Y-96750000D02*
X135850000Y-122250000D01*
X153500000Y-90250000D02*
X161201100Y-96750000D01*
X161201100Y-96750000D02*
X161250000Y-122250000D01*
X161250000Y-122250000D02*
X135850000Y-122250000D01*
D11*
G36*
X144446136Y-120098253D02*
X144537312Y-120136019D01*
X144619372Y-120190850D01*
X144689150Y-120260628D01*
X144743981Y-120342688D01*
X144781747Y-120433864D01*
X144801000Y-120530656D01*
X144801000Y-120629344D01*
X144781747Y-120726136D01*
X144743981Y-120817312D01*
X144689150Y-120899372D01*
X144619372Y-120969150D01*
X144537312Y-121023981D01*
X144446136Y-121061747D01*
X144349344Y-121081000D01*
X144250656Y-121081000D01*
X144153864Y-121061747D01*
X144062688Y-121023981D01*
X143980628Y-120969150D01*
X143910850Y-120899372D01*
X143856019Y-120817312D01*
X143818253Y-120726136D01*
X143799000Y-120629344D01*
X143799000Y-120530656D01*
X143818253Y-120433864D01*
X143856019Y-120342688D01*
X143910850Y-120260628D01*
X143980628Y-120190850D01*
X144062688Y-120136019D01*
X144153864Y-120098253D01*
X144250656Y-120079000D01*
X144349344Y-120079000D01*
X144446136Y-120098253D01*
X144446136Y-120098253D01*
G37*
G36*
X141446136Y-120098253D02*
X141537312Y-120136019D01*
X141619372Y-120190850D01*
X141689150Y-120260628D01*
X141743981Y-120342688D01*
X141781747Y-120433864D01*
X141801000Y-120530656D01*
X141801000Y-120629344D01*
X141781747Y-120726136D01*
X141743981Y-120817312D01*
X141689150Y-120899372D01*
X141619372Y-120969150D01*
X141537312Y-121023981D01*
X141446136Y-121061747D01*
X141349344Y-121081000D01*
X141250656Y-121081000D01*
X141153864Y-121061747D01*
X141062688Y-121023981D01*
X140980628Y-120969150D01*
X140910850Y-120899372D01*
X140856019Y-120817312D01*
X140818253Y-120726136D01*
X140799000Y-120629344D01*
X140799000Y-120530656D01*
X140818253Y-120433864D01*
X140856019Y-120342688D01*
X140910850Y-120260628D01*
X140980628Y-120190850D01*
X141062688Y-120136019D01*
X141153864Y-120098253D01*
X141250656Y-120079000D01*
X141349344Y-120079000D01*
X141446136Y-120098253D01*
X141446136Y-120098253D01*
G37*
G36*
X156801000Y-120451000D02*
X154999000Y-120451000D01*
X154999000Y-119349000D01*
X156801000Y-119349000D01*
X156801000Y-120451000D01*
X156801000Y-120451000D01*
G37*
G36*
X150501000Y-120451000D02*
X148699000Y-120451000D01*
X148699000Y-119349000D01*
X150501000Y-119349000D01*
X150501000Y-120451000D01*
X150501000Y-120451000D01*
G37*
G36*
X146671000Y-118451000D02*
X145369000Y-118451000D01*
X145369000Y-117649000D01*
X146671000Y-117649000D01*
X146671000Y-118451000D01*
X146671000Y-118451000D01*
G37*
G36*
X143877000Y-118451000D02*
X142575000Y-118451000D01*
X142575000Y-117649000D01*
X143877000Y-117649000D01*
X143877000Y-118451000D01*
X143877000Y-118451000D01*
G37*
G36*
X159532004Y-116610544D02*
X159619059Y-116627860D01*
X159755732Y-116684472D01*
X159755733Y-116684473D01*
X159878738Y-116766662D01*
X159983338Y-116871262D01*
X159983340Y-116871265D01*
X160065528Y-116994268D01*
X160122140Y-117130941D01*
X160151000Y-117276033D01*
X160151000Y-117423967D01*
X160122140Y-117569059D01*
X160065528Y-117705732D01*
X160065527Y-117705733D01*
X159983338Y-117828738D01*
X159878738Y-117933338D01*
X159878735Y-117933340D01*
X159755732Y-118015528D01*
X159619059Y-118072140D01*
X159532004Y-118089456D01*
X159473969Y-118101000D01*
X159326031Y-118101000D01*
X159267996Y-118089456D01*
X159180941Y-118072140D01*
X159044268Y-118015528D01*
X158921265Y-117933340D01*
X158921262Y-117933338D01*
X158816662Y-117828738D01*
X158734473Y-117705733D01*
X158734472Y-117705732D01*
X158677860Y-117569059D01*
X158649000Y-117423967D01*
X158649000Y-117276033D01*
X158677860Y-117130941D01*
X158734472Y-116994268D01*
X158816660Y-116871265D01*
X158816662Y-116871262D01*
X158921262Y-116766662D01*
X159044267Y-116684473D01*
X159044268Y-116684472D01*
X159180941Y-116627860D01*
X159267996Y-116610544D01*
X159326031Y-116599000D01*
X159473969Y-116599000D01*
X159532004Y-116610544D01*
X159532004Y-116610544D01*
G37*
G36*
X137532004Y-116610544D02*
X137619059Y-116627860D01*
X137755732Y-116684472D01*
X137755733Y-116684473D01*
X137878738Y-116766662D01*
X137983338Y-116871262D01*
X137983340Y-116871265D01*
X138065528Y-116994268D01*
X138122140Y-117130941D01*
X138151000Y-117276033D01*
X138151000Y-117423967D01*
X138122140Y-117569059D01*
X138065528Y-117705732D01*
X138065527Y-117705733D01*
X137983338Y-117828738D01*
X137878738Y-117933338D01*
X137878735Y-117933340D01*
X137755732Y-118015528D01*
X137619059Y-118072140D01*
X137532004Y-118089456D01*
X137473969Y-118101000D01*
X137326031Y-118101000D01*
X137267996Y-118089456D01*
X137180941Y-118072140D01*
X137044268Y-118015528D01*
X136921265Y-117933340D01*
X136921262Y-117933338D01*
X136816662Y-117828738D01*
X136734473Y-117705733D01*
X136734472Y-117705732D01*
X136677860Y-117569059D01*
X136649000Y-117423967D01*
X136649000Y-117276033D01*
X136677860Y-117130941D01*
X136734472Y-116994268D01*
X136816660Y-116871265D01*
X136816662Y-116871262D01*
X136921262Y-116766662D01*
X137044267Y-116684473D01*
X137044268Y-116684472D01*
X137180941Y-116627860D01*
X137267996Y-116610544D01*
X137326031Y-116599000D01*
X137473969Y-116599000D01*
X137532004Y-116610544D01*
X137532004Y-116610544D01*
G37*
G36*
X150501000Y-116651000D02*
X148699000Y-116651000D01*
X148699000Y-115549000D01*
X150501000Y-115549000D01*
X150501000Y-116651000D01*
X150501000Y-116651000D01*
G37*
G36*
X156801000Y-116651000D02*
X154999000Y-116651000D01*
X154999000Y-115549000D01*
X156801000Y-115549000D01*
X156801000Y-116651000D01*
X156801000Y-116651000D01*
G37*
G36*
X143877000Y-116385000D02*
X142575000Y-116385000D01*
X142575000Y-115583000D01*
X143877000Y-115583000D01*
X143877000Y-116385000D01*
X143877000Y-116385000D01*
G37*
G36*
X146671000Y-116351000D02*
X145369000Y-116351000D01*
X145369000Y-115549000D01*
X146671000Y-115549000D01*
X146671000Y-116351000D01*
X146671000Y-116351000D01*
G37*
G36*
X159532004Y-114610544D02*
X159619059Y-114627860D01*
X159755732Y-114684472D01*
X159755733Y-114684473D01*
X159878738Y-114766662D01*
X159983338Y-114871262D01*
X159983340Y-114871265D01*
X160065528Y-114994268D01*
X160122140Y-115130941D01*
X160151000Y-115276033D01*
X160151000Y-115423967D01*
X160122140Y-115569059D01*
X160065528Y-115705732D01*
X160065527Y-115705733D01*
X159983338Y-115828738D01*
X159878738Y-115933338D01*
X159878735Y-115933340D01*
X159755732Y-116015528D01*
X159619059Y-116072140D01*
X159532004Y-116089456D01*
X159473969Y-116101000D01*
X159326031Y-116101000D01*
X159267996Y-116089456D01*
X159180941Y-116072140D01*
X159044268Y-116015528D01*
X158921265Y-115933340D01*
X158921262Y-115933338D01*
X158816662Y-115828738D01*
X158734473Y-115705733D01*
X158734472Y-115705732D01*
X158677860Y-115569059D01*
X158649000Y-115423967D01*
X158649000Y-115276033D01*
X158677860Y-115130941D01*
X158734472Y-114994268D01*
X158816660Y-114871265D01*
X158816662Y-114871262D01*
X158921262Y-114766662D01*
X159044267Y-114684473D01*
X159044268Y-114684472D01*
X159180941Y-114627860D01*
X159267996Y-114610544D01*
X159326031Y-114599000D01*
X159473969Y-114599000D01*
X159532004Y-114610544D01*
X159532004Y-114610544D01*
G37*
G36*
X137532004Y-114610544D02*
X137619059Y-114627860D01*
X137755732Y-114684472D01*
X137755733Y-114684473D01*
X137878738Y-114766662D01*
X137983338Y-114871262D01*
X137983340Y-114871265D01*
X138065528Y-114994268D01*
X138122140Y-115130941D01*
X138151000Y-115276033D01*
X138151000Y-115423967D01*
X138122140Y-115569059D01*
X138065528Y-115705732D01*
X138065527Y-115705733D01*
X137983338Y-115828738D01*
X137878738Y-115933338D01*
X137878735Y-115933340D01*
X137755732Y-116015528D01*
X137619059Y-116072140D01*
X137532004Y-116089456D01*
X137473969Y-116101000D01*
X137326031Y-116101000D01*
X137267996Y-116089456D01*
X137180941Y-116072140D01*
X137044268Y-116015528D01*
X136921265Y-115933340D01*
X136921262Y-115933338D01*
X136816662Y-115828738D01*
X136734473Y-115705733D01*
X136734472Y-115705732D01*
X136677860Y-115569059D01*
X136649000Y-115423967D01*
X136649000Y-115276033D01*
X136677860Y-115130941D01*
X136734472Y-114994268D01*
X136816660Y-114871265D01*
X136816662Y-114871262D01*
X136921262Y-114766662D01*
X137044267Y-114684473D01*
X137044268Y-114684472D01*
X137180941Y-114627860D01*
X137267996Y-114610544D01*
X137326031Y-114599000D01*
X137473969Y-114599000D01*
X137532004Y-114610544D01*
X137532004Y-114610544D01*
G37*
G36*
X143386434Y-114408662D02*
X142384434Y-114408662D01*
X142384434Y-112556662D01*
X143386434Y-112556662D01*
X143386434Y-114408662D01*
X143386434Y-114408662D01*
G37*
G36*
X144656434Y-114408662D02*
X143654434Y-114408662D01*
X143654434Y-112556662D01*
X144656434Y-112556662D01*
X144656434Y-114408662D01*
X144656434Y-114408662D01*
G37*
G36*
X145926434Y-114408662D02*
X144924434Y-114408662D01*
X144924434Y-112556662D01*
X145926434Y-112556662D01*
X145926434Y-114408662D01*
X145926434Y-114408662D01*
G37*
G36*
X147196434Y-114408662D02*
X146194434Y-114408662D01*
X146194434Y-112556662D01*
X147196434Y-112556662D01*
X147196434Y-114408662D01*
X147196434Y-114408662D01*
G37*
G36*
X148466434Y-114408662D02*
X147464434Y-114408662D01*
X147464434Y-112556662D01*
X148466434Y-112556662D01*
X148466434Y-114408662D01*
X148466434Y-114408662D01*
G37*
G36*
X149736434Y-114408662D02*
X148734434Y-114408662D01*
X148734434Y-112556662D01*
X149736434Y-112556662D01*
X149736434Y-114408662D01*
X149736434Y-114408662D01*
G37*
G36*
X151006434Y-114408662D02*
X150004434Y-114408662D01*
X150004434Y-112556662D01*
X151006434Y-112556662D01*
X151006434Y-114408662D01*
X151006434Y-114408662D01*
G37*
G36*
X152276434Y-114408662D02*
X151274434Y-114408662D01*
X151274434Y-112556662D01*
X152276434Y-112556662D01*
X152276434Y-114408662D01*
X152276434Y-114408662D01*
G37*
G36*
X153546434Y-114408662D02*
X152544434Y-114408662D01*
X152544434Y-112556662D01*
X153546434Y-112556662D01*
X153546434Y-114408662D01*
X153546434Y-114408662D01*
G37*
G36*
X154816434Y-114408662D02*
X153814434Y-114408662D01*
X153814434Y-112556662D01*
X154816434Y-112556662D01*
X154816434Y-114408662D01*
X154816434Y-114408662D01*
G37*
G36*
X159532004Y-112610544D02*
X159619059Y-112627860D01*
X159755732Y-112684472D01*
X159755733Y-112684473D01*
X159878738Y-112766662D01*
X159983338Y-112871262D01*
X159983340Y-112871265D01*
X160065528Y-112994268D01*
X160122140Y-113130941D01*
X160151000Y-113276033D01*
X160151000Y-113423967D01*
X160122140Y-113569059D01*
X160065528Y-113705732D01*
X160065527Y-113705733D01*
X159983338Y-113828738D01*
X159878738Y-113933338D01*
X159878735Y-113933340D01*
X159755732Y-114015528D01*
X159619059Y-114072140D01*
X159532004Y-114089456D01*
X159473969Y-114101000D01*
X159326031Y-114101000D01*
X159267996Y-114089456D01*
X159180941Y-114072140D01*
X159044268Y-114015528D01*
X158921265Y-113933340D01*
X158921262Y-113933338D01*
X158816662Y-113828738D01*
X158734473Y-113705733D01*
X158734472Y-113705732D01*
X158677860Y-113569059D01*
X158649000Y-113423967D01*
X158649000Y-113276033D01*
X158677860Y-113130941D01*
X158734472Y-112994268D01*
X158816660Y-112871265D01*
X158816662Y-112871262D01*
X158921262Y-112766662D01*
X159044267Y-112684473D01*
X159044268Y-112684472D01*
X159180941Y-112627860D01*
X159267996Y-112610544D01*
X159326031Y-112599000D01*
X159473969Y-112599000D01*
X159532004Y-112610544D01*
X159532004Y-112610544D01*
G37*
G36*
X137532004Y-112610544D02*
X137619059Y-112627860D01*
X137755732Y-112684472D01*
X137755733Y-112684473D01*
X137878738Y-112766662D01*
X137983338Y-112871262D01*
X137983340Y-112871265D01*
X138065528Y-112994268D01*
X138122140Y-113130941D01*
X138151000Y-113276033D01*
X138151000Y-113423967D01*
X138122140Y-113569059D01*
X138065528Y-113705732D01*
X138065527Y-113705733D01*
X137983338Y-113828738D01*
X137878738Y-113933338D01*
X137878735Y-113933340D01*
X137755732Y-114015528D01*
X137619059Y-114072140D01*
X137532004Y-114089456D01*
X137473969Y-114101000D01*
X137326031Y-114101000D01*
X137267996Y-114089456D01*
X137180941Y-114072140D01*
X137044268Y-114015528D01*
X136921265Y-113933340D01*
X136921262Y-113933338D01*
X136816662Y-113828738D01*
X136734473Y-113705733D01*
X136734472Y-113705732D01*
X136677860Y-113569059D01*
X136649000Y-113423967D01*
X136649000Y-113276033D01*
X136677860Y-113130941D01*
X136734472Y-112994268D01*
X136816660Y-112871265D01*
X136816662Y-112871262D01*
X136921262Y-112766662D01*
X137044267Y-112684473D01*
X137044268Y-112684472D01*
X137180941Y-112627860D01*
X137267996Y-112610544D01*
X137326031Y-112599000D01*
X137473969Y-112599000D01*
X137532004Y-112610544D01*
X137532004Y-112610544D01*
G37*
G36*
X158526434Y-110893549D02*
X158528836Y-110917935D01*
X158535949Y-110941384D01*
X158547500Y-110962995D01*
X158563046Y-110981937D01*
X158581988Y-110997483D01*
X158603599Y-111009034D01*
X158627048Y-111016147D01*
X158651434Y-111018549D01*
X158675820Y-111016147D01*
X158699269Y-111009034D01*
X158720880Y-110997483D01*
X158739822Y-110981937D01*
X158755368Y-110962995D01*
X158816662Y-110871262D01*
X158921262Y-110766662D01*
X159044267Y-110684473D01*
X159044268Y-110684472D01*
X159180941Y-110627860D01*
X159267996Y-110610544D01*
X159326031Y-110599000D01*
X159473969Y-110599000D01*
X159532004Y-110610544D01*
X159619059Y-110627860D01*
X159755732Y-110684472D01*
X159755733Y-110684473D01*
X159878738Y-110766662D01*
X159983338Y-110871262D01*
X159983340Y-110871265D01*
X160065528Y-110994268D01*
X160122140Y-111130941D01*
X160139456Y-111217996D01*
X160151000Y-111276031D01*
X160151000Y-111423969D01*
X160141725Y-111470596D01*
X160122140Y-111569059D01*
X160065528Y-111705732D01*
X160044632Y-111737005D01*
X159983338Y-111828738D01*
X159878738Y-111933338D01*
X159878735Y-111933340D01*
X159755732Y-112015528D01*
X159619059Y-112072140D01*
X159532004Y-112089456D01*
X159473969Y-112101000D01*
X159326031Y-112101000D01*
X159267996Y-112089456D01*
X159180941Y-112072140D01*
X159044268Y-112015528D01*
X158921265Y-111933340D01*
X158921262Y-111933338D01*
X158816662Y-111828738D01*
X158755368Y-111737005D01*
X158739822Y-111718063D01*
X158720880Y-111702517D01*
X158699270Y-111690966D01*
X158675820Y-111683853D01*
X158651434Y-111681451D01*
X158627048Y-111683853D01*
X158603599Y-111690966D01*
X158581988Y-111702517D01*
X158563046Y-111718063D01*
X158547500Y-111737005D01*
X158535949Y-111758615D01*
X158528836Y-111782065D01*
X158526434Y-111806451D01*
X158526434Y-112493662D01*
X156674434Y-112493662D01*
X156674434Y-111491662D01*
X158524000Y-111491662D01*
X158548386Y-111489260D01*
X158571835Y-111482147D01*
X158593446Y-111470596D01*
X158612388Y-111455050D01*
X158627934Y-111436108D01*
X158639485Y-111414497D01*
X158646598Y-111391048D01*
X158649000Y-111366662D01*
X158649000Y-111348662D01*
X158646598Y-111324276D01*
X158639485Y-111300827D01*
X158627934Y-111279216D01*
X158612388Y-111260274D01*
X158593446Y-111244728D01*
X158571835Y-111233177D01*
X158548386Y-111226064D01*
X158524000Y-111223662D01*
X156674434Y-111223662D01*
X156674434Y-110221662D01*
X158526434Y-110221662D01*
X158526434Y-110893549D01*
X158526434Y-110893549D01*
G37*
G36*
X140526434Y-112493662D02*
X138674434Y-112493662D01*
X138674434Y-111491662D01*
X140526434Y-111491662D01*
X140526434Y-112493662D01*
X140526434Y-112493662D01*
G37*
G36*
X137532004Y-110610544D02*
X137619059Y-110627860D01*
X137755732Y-110684472D01*
X137755733Y-110684473D01*
X137878738Y-110766662D01*
X137983338Y-110871262D01*
X137983340Y-110871265D01*
X138065528Y-110994268D01*
X138122140Y-111130941D01*
X138139456Y-111217996D01*
X138151000Y-111276031D01*
X138151000Y-111423969D01*
X138141725Y-111470596D01*
X138122140Y-111569059D01*
X138065528Y-111705732D01*
X138044632Y-111737005D01*
X137983338Y-111828738D01*
X137878738Y-111933338D01*
X137878735Y-111933340D01*
X137755732Y-112015528D01*
X137619059Y-112072140D01*
X137532004Y-112089456D01*
X137473969Y-112101000D01*
X137326031Y-112101000D01*
X137267996Y-112089456D01*
X137180941Y-112072140D01*
X137044268Y-112015528D01*
X136921265Y-111933340D01*
X136921262Y-111933338D01*
X136816662Y-111828738D01*
X136755368Y-111737005D01*
X136734472Y-111705732D01*
X136677860Y-111569059D01*
X136658275Y-111470596D01*
X136649000Y-111423969D01*
X136649000Y-111276031D01*
X136660544Y-111217996D01*
X136677860Y-111130941D01*
X136734472Y-110994268D01*
X136816660Y-110871265D01*
X136816662Y-110871262D01*
X136921262Y-110766662D01*
X137044267Y-110684473D01*
X137044268Y-110684472D01*
X137180941Y-110627860D01*
X137267996Y-110610544D01*
X137326031Y-110599000D01*
X137473969Y-110599000D01*
X137532004Y-110610544D01*
X137532004Y-110610544D01*
G37*
G36*
X140526434Y-111223662D02*
X138674434Y-111223662D01*
X138674434Y-110221662D01*
X140526434Y-110221662D01*
X140526434Y-111223662D01*
X140526434Y-111223662D01*
G37*
G36*
X137532004Y-108610544D02*
X137619059Y-108627860D01*
X137755732Y-108684472D01*
X137755733Y-108684473D01*
X137878738Y-108766662D01*
X137983338Y-108871262D01*
X137983340Y-108871265D01*
X138065528Y-108994268D01*
X138122140Y-109130941D01*
X138151000Y-109276033D01*
X138151000Y-109423967D01*
X138122140Y-109569059D01*
X138065528Y-109705732D01*
X138044632Y-109737005D01*
X137983338Y-109828738D01*
X137878738Y-109933338D01*
X137878735Y-109933340D01*
X137755732Y-110015528D01*
X137619059Y-110072140D01*
X137532004Y-110089456D01*
X137473969Y-110101000D01*
X137326031Y-110101000D01*
X137267996Y-110089456D01*
X137180941Y-110072140D01*
X137044268Y-110015528D01*
X136921265Y-109933340D01*
X136921262Y-109933338D01*
X136816662Y-109828738D01*
X136755368Y-109737005D01*
X136734472Y-109705732D01*
X136677860Y-109569059D01*
X136649000Y-109423967D01*
X136649000Y-109276033D01*
X136677860Y-109130941D01*
X136734472Y-108994268D01*
X136816660Y-108871265D01*
X136816662Y-108871262D01*
X136921262Y-108766662D01*
X137044267Y-108684473D01*
X137044268Y-108684472D01*
X137180941Y-108627860D01*
X137267996Y-108610544D01*
X137326031Y-108599000D01*
X137473969Y-108599000D01*
X137532004Y-108610544D01*
X137532004Y-108610544D01*
G37*
G36*
X159532004Y-108610544D02*
X159619059Y-108627860D01*
X159755732Y-108684472D01*
X159755733Y-108684473D01*
X159878738Y-108766662D01*
X159983338Y-108871262D01*
X159983340Y-108871265D01*
X160065528Y-108994268D01*
X160122140Y-109130941D01*
X160151000Y-109276033D01*
X160151000Y-109423967D01*
X160122140Y-109569059D01*
X160065528Y-109705732D01*
X160044632Y-109737005D01*
X159983338Y-109828738D01*
X159878738Y-109933338D01*
X159878735Y-109933340D01*
X159755732Y-110015528D01*
X159619059Y-110072140D01*
X159532004Y-110089456D01*
X159473969Y-110101000D01*
X159326031Y-110101000D01*
X159267996Y-110089456D01*
X159180941Y-110072140D01*
X159044268Y-110015528D01*
X158921265Y-109933340D01*
X158921262Y-109933338D01*
X158816662Y-109828738D01*
X158755368Y-109737005D01*
X158739822Y-109718063D01*
X158720880Y-109702517D01*
X158699270Y-109690966D01*
X158675820Y-109683853D01*
X158651434Y-109681451D01*
X158627048Y-109683853D01*
X158603599Y-109690966D01*
X158581988Y-109702517D01*
X158563046Y-109718063D01*
X158547500Y-109737005D01*
X158535949Y-109758615D01*
X158528836Y-109782065D01*
X158526434Y-109806451D01*
X158526434Y-109953662D01*
X156674434Y-109953662D01*
X156674434Y-108951662D01*
X158541443Y-108951662D01*
X158547500Y-108962995D01*
X158563046Y-108981937D01*
X158581988Y-108997483D01*
X158603599Y-109009034D01*
X158627048Y-109016147D01*
X158651434Y-109018549D01*
X158675820Y-109016147D01*
X158699269Y-109009034D01*
X158720880Y-108997483D01*
X158739822Y-108981937D01*
X158755368Y-108962995D01*
X158816662Y-108871262D01*
X158921262Y-108766662D01*
X159044267Y-108684473D01*
X159044268Y-108684472D01*
X159180941Y-108627860D01*
X159267996Y-108610544D01*
X159326031Y-108599000D01*
X159473969Y-108599000D01*
X159532004Y-108610544D01*
X159532004Y-108610544D01*
G37*
G36*
X140526434Y-109953662D02*
X138674434Y-109953662D01*
X138674434Y-108951662D01*
X140526434Y-108951662D01*
X140526434Y-109953662D01*
X140526434Y-109953662D01*
G37*
G36*
X158526434Y-106893549D02*
X158528836Y-106917935D01*
X158535949Y-106941384D01*
X158547500Y-106962995D01*
X158563046Y-106981937D01*
X158581988Y-106997483D01*
X158603599Y-107009034D01*
X158627048Y-107016147D01*
X158651434Y-107018549D01*
X158675820Y-107016147D01*
X158699269Y-107009034D01*
X158720880Y-106997483D01*
X158739822Y-106981937D01*
X158755368Y-106962995D01*
X158816662Y-106871262D01*
X158921262Y-106766662D01*
X159044267Y-106684473D01*
X159044268Y-106684472D01*
X159180941Y-106627860D01*
X159267996Y-106610544D01*
X159326031Y-106599000D01*
X159473969Y-106599000D01*
X159532004Y-106610544D01*
X159619059Y-106627860D01*
X159755732Y-106684472D01*
X159755733Y-106684473D01*
X159878738Y-106766662D01*
X159983338Y-106871262D01*
X159983340Y-106871265D01*
X160065528Y-106994268D01*
X160122140Y-107130941D01*
X160151000Y-107276033D01*
X160151000Y-107423967D01*
X160122140Y-107569059D01*
X160065528Y-107705732D01*
X160044632Y-107737005D01*
X159983338Y-107828738D01*
X159878738Y-107933338D01*
X159878735Y-107933340D01*
X159755732Y-108015528D01*
X159619059Y-108072140D01*
X159532004Y-108089456D01*
X159473969Y-108101000D01*
X159326031Y-108101000D01*
X159267996Y-108089456D01*
X159180941Y-108072140D01*
X159044268Y-108015528D01*
X158921265Y-107933340D01*
X158921262Y-107933338D01*
X158816662Y-107828738D01*
X158755368Y-107737005D01*
X158739822Y-107718063D01*
X158720880Y-107702517D01*
X158699270Y-107690966D01*
X158675820Y-107683853D01*
X158651434Y-107681451D01*
X158627048Y-107683853D01*
X158603599Y-107690966D01*
X158581988Y-107702517D01*
X158563046Y-107718063D01*
X158547500Y-107737005D01*
X158535949Y-107758615D01*
X158528836Y-107782065D01*
X158526434Y-107806451D01*
X158526434Y-108683662D01*
X156674434Y-108683662D01*
X156674434Y-107681662D01*
X158547946Y-107681662D01*
X158572332Y-107679260D01*
X158595781Y-107672147D01*
X158617392Y-107660596D01*
X158636334Y-107645050D01*
X158651880Y-107626108D01*
X158663431Y-107604497D01*
X158670544Y-107581048D01*
X158672946Y-107556662D01*
X158670543Y-107532272D01*
X158666962Y-107514272D01*
X158659848Y-107490823D01*
X158648297Y-107469213D01*
X158632751Y-107450271D01*
X158613808Y-107434726D01*
X158592197Y-107423176D01*
X158568748Y-107416063D01*
X158544365Y-107413662D01*
X156674434Y-107413662D01*
X156674434Y-106411662D01*
X158526434Y-106411662D01*
X158526434Y-106893549D01*
X158526434Y-106893549D01*
G37*
G36*
X140526434Y-108683662D02*
X138674434Y-108683662D01*
X138674434Y-107681662D01*
X140526434Y-107681662D01*
X140526434Y-108683662D01*
X140526434Y-108683662D01*
G37*
G36*
X137532004Y-106610544D02*
X137619059Y-106627860D01*
X137755732Y-106684472D01*
X137755733Y-106684473D01*
X137878738Y-106766662D01*
X137983338Y-106871262D01*
X137983340Y-106871265D01*
X138065528Y-106994268D01*
X138122140Y-107130941D01*
X138151000Y-107276033D01*
X138151000Y-107423967D01*
X138122140Y-107569059D01*
X138065528Y-107705732D01*
X138044632Y-107737005D01*
X137983338Y-107828738D01*
X137878738Y-107933338D01*
X137878735Y-107933340D01*
X137755732Y-108015528D01*
X137619059Y-108072140D01*
X137532004Y-108089456D01*
X137473969Y-108101000D01*
X137326031Y-108101000D01*
X137267996Y-108089456D01*
X137180941Y-108072140D01*
X137044268Y-108015528D01*
X136921265Y-107933340D01*
X136921262Y-107933338D01*
X136816662Y-107828738D01*
X136755368Y-107737005D01*
X136734472Y-107705732D01*
X136677860Y-107569059D01*
X136649000Y-107423967D01*
X136649000Y-107276033D01*
X136677860Y-107130941D01*
X136734472Y-106994268D01*
X136816660Y-106871265D01*
X136816662Y-106871262D01*
X136921262Y-106766662D01*
X137044267Y-106684473D01*
X137044268Y-106684472D01*
X137180941Y-106627860D01*
X137267996Y-106610544D01*
X137326031Y-106599000D01*
X137473969Y-106599000D01*
X137532004Y-106610544D01*
X137532004Y-106610544D01*
G37*
G36*
X140526434Y-107413662D02*
X138674434Y-107413662D01*
X138674434Y-106411662D01*
X140526434Y-106411662D01*
X140526434Y-107413662D01*
X140526434Y-107413662D01*
G37*
G36*
X151351434Y-106233662D02*
X145249434Y-106233662D01*
X145249434Y-100131662D01*
X151351434Y-100131662D01*
X151351434Y-106233662D01*
X151351434Y-106233662D01*
G37*
G36*
X140526434Y-106143662D02*
X138674434Y-106143662D01*
X138674434Y-105141662D01*
X140526434Y-105141662D01*
X140526434Y-106143662D01*
X140526434Y-106143662D01*
G37*
G36*
X159532004Y-104610544D02*
X159619059Y-104627860D01*
X159755732Y-104684472D01*
X159755733Y-104684473D01*
X159878738Y-104766662D01*
X159983338Y-104871262D01*
X159983340Y-104871265D01*
X160065528Y-104994268D01*
X160122140Y-105130941D01*
X160151000Y-105276033D01*
X160151000Y-105423967D01*
X160122140Y-105569059D01*
X160065528Y-105705732D01*
X160044632Y-105737005D01*
X159983338Y-105828738D01*
X159878738Y-105933338D01*
X159878735Y-105933340D01*
X159755732Y-106015528D01*
X159619059Y-106072140D01*
X159532004Y-106089456D01*
X159473969Y-106101000D01*
X159326031Y-106101000D01*
X159267996Y-106089456D01*
X159180941Y-106072140D01*
X159044268Y-106015528D01*
X158921265Y-105933340D01*
X158921262Y-105933338D01*
X158816662Y-105828738D01*
X158755368Y-105737005D01*
X158739822Y-105718063D01*
X158720880Y-105702517D01*
X158699270Y-105690966D01*
X158675820Y-105683853D01*
X158651434Y-105681451D01*
X158627048Y-105683853D01*
X158603599Y-105690966D01*
X158581988Y-105702517D01*
X158563046Y-105718063D01*
X158547500Y-105737005D01*
X158535949Y-105758615D01*
X158528836Y-105782065D01*
X158526434Y-105806451D01*
X158526434Y-106143662D01*
X156674434Y-106143662D01*
X156674434Y-105141662D01*
X158589897Y-105141662D01*
X158614283Y-105139260D01*
X158637732Y-105132147D01*
X158659343Y-105120596D01*
X158678285Y-105105050D01*
X158693831Y-105086108D01*
X158705382Y-105064498D01*
X158712838Y-105046498D01*
X158719951Y-105023049D01*
X158722353Y-104998663D01*
X158722135Y-104996453D01*
X158739822Y-104981937D01*
X158755368Y-104962995D01*
X158816662Y-104871262D01*
X158921262Y-104766662D01*
X159044267Y-104684473D01*
X159044268Y-104684472D01*
X159180941Y-104627860D01*
X159267996Y-104610544D01*
X159326031Y-104599000D01*
X159473969Y-104599000D01*
X159532004Y-104610544D01*
X159532004Y-104610544D01*
G37*
G36*
X137532004Y-104610544D02*
X137619059Y-104627860D01*
X137755732Y-104684472D01*
X137755733Y-104684473D01*
X137878738Y-104766662D01*
X137983338Y-104871262D01*
X137983340Y-104871265D01*
X138065528Y-104994268D01*
X138122140Y-105130941D01*
X138151000Y-105276033D01*
X138151000Y-105423967D01*
X138122140Y-105569059D01*
X138065528Y-105705732D01*
X138044632Y-105737005D01*
X137983338Y-105828738D01*
X137878738Y-105933338D01*
X137878735Y-105933340D01*
X137755732Y-106015528D01*
X137619059Y-106072140D01*
X137532004Y-106089456D01*
X137473969Y-106101000D01*
X137326031Y-106101000D01*
X137267996Y-106089456D01*
X137180941Y-106072140D01*
X137044268Y-106015528D01*
X136921265Y-105933340D01*
X136921262Y-105933338D01*
X136816662Y-105828738D01*
X136755368Y-105737005D01*
X136734472Y-105705732D01*
X136677860Y-105569059D01*
X136649000Y-105423967D01*
X136649000Y-105276033D01*
X136677860Y-105130941D01*
X136734472Y-104994268D01*
X136816660Y-104871265D01*
X136816662Y-104871262D01*
X136921262Y-104766662D01*
X137044267Y-104684473D01*
X137044268Y-104684472D01*
X137180941Y-104627860D01*
X137267996Y-104610544D01*
X137326031Y-104599000D01*
X137473969Y-104599000D01*
X137532004Y-104610544D01*
X137532004Y-104610544D01*
G37*
G36*
X140526434Y-104873662D02*
X138674434Y-104873662D01*
X138674434Y-103871662D01*
X140526434Y-103871662D01*
X140526434Y-104873662D01*
X140526434Y-104873662D01*
G37*
G36*
X158526434Y-104873662D02*
X156674434Y-104873662D01*
X156674434Y-103871662D01*
X158526434Y-103871662D01*
X158526434Y-104873662D01*
X158526434Y-104873662D01*
G37*
G36*
X137532004Y-102610544D02*
X137619059Y-102627860D01*
X137755732Y-102684472D01*
X137755733Y-102684473D01*
X137878738Y-102766662D01*
X137983338Y-102871262D01*
X137983340Y-102871265D01*
X138065528Y-102994268D01*
X138122140Y-103130941D01*
X138151000Y-103276033D01*
X138151000Y-103423967D01*
X138122140Y-103569059D01*
X138065528Y-103705732D01*
X138044632Y-103737005D01*
X137983338Y-103828738D01*
X137878738Y-103933338D01*
X137878735Y-103933340D01*
X137755732Y-104015528D01*
X137619059Y-104072140D01*
X137532004Y-104089456D01*
X137473969Y-104101000D01*
X137326031Y-104101000D01*
X137267996Y-104089456D01*
X137180941Y-104072140D01*
X137044268Y-104015528D01*
X136921265Y-103933340D01*
X136921262Y-103933338D01*
X136816662Y-103828738D01*
X136755368Y-103737005D01*
X136734472Y-103705732D01*
X136677860Y-103569059D01*
X136649000Y-103423967D01*
X136649000Y-103276033D01*
X136677860Y-103130941D01*
X136734472Y-102994268D01*
X136816660Y-102871265D01*
X136816662Y-102871262D01*
X136921262Y-102766662D01*
X137044267Y-102684473D01*
X137044268Y-102684472D01*
X137180941Y-102627860D01*
X137267996Y-102610544D01*
X137326031Y-102599000D01*
X137473969Y-102599000D01*
X137532004Y-102610544D01*
X137532004Y-102610544D01*
G37*
G36*
X159532004Y-102610544D02*
X159619059Y-102627860D01*
X159755732Y-102684472D01*
X159755733Y-102684473D01*
X159878738Y-102766662D01*
X159983338Y-102871262D01*
X159983340Y-102871265D01*
X160065528Y-102994268D01*
X160122140Y-103130941D01*
X160151000Y-103276033D01*
X160151000Y-103423967D01*
X160122140Y-103569059D01*
X160065528Y-103705732D01*
X160044632Y-103737005D01*
X159983338Y-103828738D01*
X159878738Y-103933338D01*
X159878735Y-103933340D01*
X159755732Y-104015528D01*
X159619059Y-104072140D01*
X159532004Y-104089456D01*
X159473969Y-104101000D01*
X159326031Y-104101000D01*
X159267996Y-104089456D01*
X159180941Y-104072140D01*
X159044268Y-104015528D01*
X158921265Y-103933340D01*
X158921262Y-103933338D01*
X158816662Y-103828738D01*
X158755368Y-103737005D01*
X158739822Y-103718063D01*
X158736660Y-103715468D01*
X158731614Y-103698831D01*
X158724154Y-103680822D01*
X158712604Y-103659215D01*
X158697059Y-103640273D01*
X158678117Y-103624728D01*
X158656506Y-103613177D01*
X158633056Y-103606064D01*
X158608671Y-103603662D01*
X156674434Y-103603662D01*
X156674434Y-102601662D01*
X158526434Y-102601662D01*
X158526434Y-102893549D01*
X158528836Y-102917935D01*
X158535949Y-102941384D01*
X158547500Y-102962995D01*
X158563046Y-102981937D01*
X158581988Y-102997483D01*
X158603599Y-103009034D01*
X158627048Y-103016147D01*
X158651434Y-103018549D01*
X158675820Y-103016147D01*
X158699269Y-103009034D01*
X158720880Y-102997483D01*
X158739822Y-102981937D01*
X158755368Y-102962995D01*
X158816662Y-102871262D01*
X158921262Y-102766662D01*
X159044267Y-102684473D01*
X159044268Y-102684472D01*
X159180941Y-102627860D01*
X159267996Y-102610544D01*
X159326031Y-102599000D01*
X159473969Y-102599000D01*
X159532004Y-102610544D01*
X159532004Y-102610544D01*
G37*
G36*
X140526434Y-103603662D02*
X138674434Y-103603662D01*
X138674434Y-102601662D01*
X140526434Y-102601662D01*
X140526434Y-103603662D01*
X140526434Y-103603662D01*
G37*
G36*
X158526434Y-100893549D02*
X158528836Y-100917935D01*
X158535949Y-100941384D01*
X158547500Y-100962995D01*
X158563046Y-100981937D01*
X158581988Y-100997483D01*
X158603599Y-101009034D01*
X158627048Y-101016147D01*
X158651434Y-101018549D01*
X158675820Y-101016147D01*
X158699269Y-101009034D01*
X158720880Y-100997483D01*
X158739822Y-100981937D01*
X158755368Y-100962995D01*
X158816662Y-100871262D01*
X158921262Y-100766662D01*
X159044267Y-100684473D01*
X159044268Y-100684472D01*
X159180941Y-100627860D01*
X159267996Y-100610544D01*
X159326031Y-100599000D01*
X159473969Y-100599000D01*
X159532004Y-100610544D01*
X159619059Y-100627860D01*
X159755732Y-100684472D01*
X159755733Y-100684473D01*
X159878738Y-100766662D01*
X159983338Y-100871262D01*
X159983340Y-100871265D01*
X160065528Y-100994268D01*
X160122140Y-101130941D01*
X160138471Y-101213046D01*
X160146717Y-101254497D01*
X160151000Y-101276033D01*
X160151000Y-101423967D01*
X160122140Y-101569059D01*
X160065528Y-101705732D01*
X160044632Y-101737005D01*
X159983338Y-101828738D01*
X159878738Y-101933338D01*
X159878735Y-101933340D01*
X159755732Y-102015528D01*
X159619059Y-102072140D01*
X159532004Y-102089456D01*
X159473969Y-102101000D01*
X159326031Y-102101000D01*
X159267996Y-102089456D01*
X159180941Y-102072140D01*
X159044268Y-102015528D01*
X158921265Y-101933340D01*
X158921262Y-101933338D01*
X158816662Y-101828738D01*
X158755368Y-101737005D01*
X158739822Y-101718063D01*
X158720880Y-101702517D01*
X158699270Y-101690966D01*
X158675820Y-101683853D01*
X158651434Y-101681451D01*
X158627048Y-101683853D01*
X158603599Y-101690966D01*
X158581988Y-101702517D01*
X158563046Y-101718063D01*
X158547500Y-101737005D01*
X158535949Y-101758615D01*
X158528836Y-101782065D01*
X158526434Y-101806451D01*
X158526434Y-102333662D01*
X156674434Y-102333662D01*
X156674434Y-101331662D01*
X158535350Y-101331662D01*
X158559736Y-101329260D01*
X158583185Y-101322147D01*
X158604796Y-101310596D01*
X158623738Y-101295050D01*
X158639284Y-101276108D01*
X158650835Y-101254497D01*
X158657947Y-101231053D01*
X158661529Y-101213042D01*
X158663930Y-101188659D01*
X158661528Y-101164273D01*
X158654414Y-101140824D01*
X158642862Y-101119213D01*
X158627316Y-101100272D01*
X158608374Y-101084727D01*
X158586763Y-101073176D01*
X158563314Y-101066063D01*
X158538930Y-101063662D01*
X156674434Y-101063662D01*
X156674434Y-100061662D01*
X158526434Y-100061662D01*
X158526434Y-100893549D01*
X158526434Y-100893549D01*
G37*
G36*
X140526434Y-102333662D02*
X138674434Y-102333662D01*
X138674434Y-101331662D01*
X140526434Y-101331662D01*
X140526434Y-102333662D01*
X140526434Y-102333662D01*
G37*
G36*
X137532004Y-100610544D02*
X137619059Y-100627860D01*
X137755732Y-100684472D01*
X137755733Y-100684473D01*
X137878738Y-100766662D01*
X137983338Y-100871262D01*
X137983340Y-100871265D01*
X138065528Y-100994268D01*
X138122140Y-101130941D01*
X138138471Y-101213046D01*
X138146717Y-101254497D01*
X138151000Y-101276033D01*
X138151000Y-101423967D01*
X138122140Y-101569059D01*
X138065528Y-101705732D01*
X138044632Y-101737005D01*
X137983338Y-101828738D01*
X137878738Y-101933338D01*
X137878735Y-101933340D01*
X137755732Y-102015528D01*
X137619059Y-102072140D01*
X137532004Y-102089456D01*
X137473969Y-102101000D01*
X137326031Y-102101000D01*
X137267996Y-102089456D01*
X137180941Y-102072140D01*
X137044268Y-102015528D01*
X136921265Y-101933340D01*
X136921262Y-101933338D01*
X136816662Y-101828738D01*
X136755368Y-101737005D01*
X136734472Y-101705732D01*
X136677860Y-101569059D01*
X136649000Y-101423967D01*
X136649000Y-101276033D01*
X136653284Y-101254497D01*
X136661529Y-101213046D01*
X136677860Y-101130941D01*
X136734472Y-100994268D01*
X136816660Y-100871265D01*
X136816662Y-100871262D01*
X136921262Y-100766662D01*
X137044267Y-100684473D01*
X137044268Y-100684472D01*
X137180941Y-100627860D01*
X137267996Y-100610544D01*
X137326031Y-100599000D01*
X137473969Y-100599000D01*
X137532004Y-100610544D01*
X137532004Y-100610544D01*
G37*
G36*
X140526434Y-101063662D02*
X138674434Y-101063662D01*
X138674434Y-100061662D01*
X140526434Y-100061662D01*
X140526434Y-101063662D01*
X140526434Y-101063662D01*
G37*
G36*
X137532004Y-98610544D02*
X137619059Y-98627860D01*
X137755732Y-98684472D01*
X137755733Y-98684473D01*
X137878738Y-98766662D01*
X137983338Y-98871262D01*
X137983340Y-98871265D01*
X138065528Y-98994268D01*
X138122140Y-99130941D01*
X138151000Y-99276033D01*
X138151000Y-99423967D01*
X138122140Y-99569059D01*
X138065528Y-99705732D01*
X138044632Y-99737005D01*
X137983338Y-99828738D01*
X137878738Y-99933338D01*
X137878735Y-99933340D01*
X137755732Y-100015528D01*
X137619059Y-100072140D01*
X137532004Y-100089456D01*
X137473969Y-100101000D01*
X137326031Y-100101000D01*
X137267996Y-100089456D01*
X137180941Y-100072140D01*
X137044268Y-100015528D01*
X136921265Y-99933340D01*
X136921262Y-99933338D01*
X136816662Y-99828738D01*
X136755368Y-99737005D01*
X136734472Y-99705732D01*
X136677860Y-99569059D01*
X136649000Y-99423967D01*
X136649000Y-99276033D01*
X136677860Y-99130941D01*
X136734472Y-98994268D01*
X136816660Y-98871265D01*
X136816662Y-98871262D01*
X136921262Y-98766662D01*
X137044267Y-98684473D01*
X137044268Y-98684472D01*
X137180941Y-98627860D01*
X137267996Y-98610544D01*
X137326031Y-98599000D01*
X137473969Y-98599000D01*
X137532004Y-98610544D01*
X137532004Y-98610544D01*
G37*
G36*
X159532004Y-98610544D02*
X159619059Y-98627860D01*
X159755732Y-98684472D01*
X159755733Y-98684473D01*
X159878738Y-98766662D01*
X159983338Y-98871262D01*
X159983340Y-98871265D01*
X160065528Y-98994268D01*
X160122140Y-99130941D01*
X160151000Y-99276033D01*
X160151000Y-99423967D01*
X160122140Y-99569059D01*
X160065528Y-99705732D01*
X160044632Y-99737005D01*
X159983338Y-99828738D01*
X159878738Y-99933338D01*
X159878735Y-99933340D01*
X159755732Y-100015528D01*
X159619059Y-100072140D01*
X159532004Y-100089456D01*
X159473969Y-100101000D01*
X159326031Y-100101000D01*
X159267996Y-100089456D01*
X159180941Y-100072140D01*
X159044268Y-100015528D01*
X158921265Y-99933340D01*
X158921262Y-99933338D01*
X158816662Y-99828738D01*
X158755368Y-99737005D01*
X158739822Y-99718063D01*
X158720880Y-99702517D01*
X158699270Y-99690966D01*
X158675820Y-99683853D01*
X158651434Y-99681451D01*
X158627048Y-99683853D01*
X158603599Y-99690966D01*
X158581988Y-99702517D01*
X158563046Y-99718063D01*
X158547500Y-99737005D01*
X158535949Y-99758615D01*
X158528836Y-99782065D01*
X158527694Y-99793662D01*
X156674434Y-99793662D01*
X156674434Y-98791662D01*
X158526434Y-98791662D01*
X158526434Y-98893549D01*
X158528836Y-98917935D01*
X158535949Y-98941384D01*
X158547500Y-98962995D01*
X158563046Y-98981937D01*
X158581988Y-98997483D01*
X158603599Y-99009034D01*
X158627048Y-99016147D01*
X158651434Y-99018549D01*
X158675820Y-99016147D01*
X158699269Y-99009034D01*
X158720880Y-98997483D01*
X158739822Y-98981937D01*
X158755368Y-98962995D01*
X158816662Y-98871262D01*
X158921262Y-98766662D01*
X159044267Y-98684473D01*
X159044268Y-98684472D01*
X159180941Y-98627860D01*
X159267996Y-98610544D01*
X159326031Y-98599000D01*
X159473969Y-98599000D01*
X159532004Y-98610544D01*
X159532004Y-98610544D01*
G37*
G36*
X140526434Y-99793662D02*
X138674434Y-99793662D01*
X138674434Y-98791662D01*
X140526434Y-98791662D01*
X140526434Y-99793662D01*
X140526434Y-99793662D01*
G37*
G36*
X158526434Y-98523662D02*
X156674434Y-98523662D01*
X156674434Y-97521662D01*
X158526434Y-97521662D01*
X158526434Y-98523662D01*
X158526434Y-98523662D01*
G37*
G36*
X140526434Y-98523662D02*
X138674434Y-98523662D01*
X138674434Y-97521662D01*
X140526434Y-97521662D01*
X140526434Y-98523662D01*
X140526434Y-98523662D01*
G37*
G36*
X158526434Y-97253662D02*
X156674434Y-97253662D01*
X156674434Y-96251662D01*
X158526434Y-96251662D01*
X158526434Y-97253662D01*
X158526434Y-97253662D01*
G37*
G36*
X140526434Y-97253662D02*
X138674434Y-97253662D01*
X138674434Y-96251662D01*
X140526434Y-96251662D01*
X140526434Y-97253662D01*
X140526434Y-97253662D01*
G37*
G36*
X140526434Y-95983662D02*
X138674434Y-95983662D01*
X138674434Y-94981662D01*
X140526434Y-94981662D01*
X140526434Y-95983662D01*
X140526434Y-95983662D01*
G37*
G36*
X158526434Y-95983662D02*
X156674434Y-95983662D01*
X156674434Y-94981662D01*
X158526434Y-94981662D01*
X158526434Y-95983662D01*
X158526434Y-95983662D01*
G37*
M02*
