<?xml version="1.0" standalone="no"?>
 <!DOCTYPE svg PUBLIC "-//W3C//DTD SVG 1.1//EN" 
 "http://www.w3.org/Graphics/SVG/1.1/DTD/svg11.dtd"> 
<svg
  xmlns:svg="http://www.w3.org/2000/svg"
  xmlns="http://www.w3.org/2000/svg"
  xmlns:xlink="http://www.w3.org/1999/xlink"
  version="1.1"
  width="29.700220cm" height="21.000720cm" viewBox="0 0 297002200 210007200">
<title>SVG Picture created as xbee-B_Paste.svg date 2021/02/24 12:35:42 </title>
  <desc>Picture generated by PCBNEW </desc>
<g style="fill:#000000; fill-opacity:1.000000;stroke:#000000; stroke-opacity:1.000000;
stroke-linecap:round; stroke-linejoin:round;"
 transform="translate(0 0) scale(1 1)">
</g>
<g style="fill:#000000; fill-opacity:0.0; 
stroke:#000000; stroke-width:0.000000; stroke-opacity:1; 
stroke-linecap:round; stroke-linejoin:round;">
</g>
<g style="fill:#000000; fill-opacity:0.0; 
stroke:#000000; stroke-width:150000.000000; stroke-opacity:1; 
stroke-linecap:round; stroke-linejoin:round;">
<path d="M143250000 90250000
L153500000 90250000
" />
<path d="M135750000 96750000
L143250000 90250000
" />
<path d="M135750000 96750000
L135850000 122250000
" />
<path d="M161250000 122250000
L135850000 122250000
" />
<path d="M161201100 96750000
L161250000 122250000
" />
<path d="M153500000 90250000
L161201100 96750000
" />
<g >
</g>
<g >
</g>
<g >
</g>
<g >
</g>
<g >
</g>
<g style="fill:#000000; fill-opacity:0.0; 
stroke:#000000; stroke-width:150000.000000; stroke-opacity:1; 
stroke-linecap:round; stroke-linejoin:round;">
</g>
<g style="fill:#000000; fill-opacity:0.0; 
stroke:#000000; stroke-width:1.000000; stroke-opacity:1; 
stroke-linecap:round; stroke-linejoin:round;">
</g>
<g style="fill:#000000; fill-opacity:1.0; 
stroke:#000000; stroke-width:1.000000; stroke-opacity:1; 
stroke-linecap:round; stroke-linejoin:round;">
<path style="fill:#000000; fill-opacity:1.0; 
stroke:#000000; stroke-width:1.000000; stroke-opacity:1; 
stroke-linecap:round; stroke-linejoin:round;fill-rule:evenodd;"
d="M 139649999.000000,121280001.000000
139649999.000000,122079999.000000
138650001.000000,122079999.000000
138650001.000000,121280001.000000
Z" /> 
<path style="fill:#000000; fill-opacity:1.0; 
stroke:#000000; stroke-width:1.000000; stroke-opacity:1; 
stroke-linecap:round; stroke-linejoin:round;fill-rule:evenodd;"
d="M 146949999.000000,119070001.000000
146949999.000000,119869999.000000
145950001.000000,119869999.000000
145950001.000000,119070001.000000
Z" /> 
<path style="fill:#000000; fill-opacity:1.0; 
stroke:#000000; stroke-width:1.000000; stroke-opacity:1; 
stroke-linecap:round; stroke-linejoin:round;fill-rule:evenodd;"
d="M 139649999.000000,119070001.000000
139649999.000000,119869999.000000
138650001.000000,119869999.000000
138650001.000000,119070001.000000
Z" /> 
<path style="fill:#000000; fill-opacity:1.0; 
stroke:#000000; stroke-width:1.000000; stroke-opacity:1; 
stroke-linecap:round; stroke-linejoin:round;fill-rule:evenodd;"
d="M 146949999.000000,121280001.000000
146949999.000000,122079999.000000
145950001.000000,122079999.000000
145950001.000000,121280001.000000
Z" /> 
<path style="fill:#000000; fill-opacity:1.0; 
stroke:#000000; stroke-width:1.000000; stroke-opacity:1; 
stroke-linecap:round; stroke-linejoin:round;fill-rule:evenodd;"
d="M 145399999.000000,118070001.000000
145399999.000000,119569999.000000
144700001.000000,119569999.000000
144700001.000000,118070001.000000
Z" /> 
<path style="fill:#000000; fill-opacity:1.0; 
stroke:#000000; stroke-width:1.000000; stroke-opacity:1; 
stroke-linecap:round; stroke-linejoin:round;fill-rule:evenodd;"
d="M 142399999.000000,118070001.000000
142399999.000000,119569999.000000
141700001.000000,119569999.000000
141700001.000000,118070001.000000
Z" /> 
<path style="fill:#000000; fill-opacity:1.0; 
stroke:#000000; stroke-width:1.000000; stroke-opacity:1; 
stroke-linecap:round; stroke-linejoin:round;fill-rule:evenodd;"
d="M 140899999.000000,118070001.000000
140899999.000000,119569999.000000
140200001.000000,119569999.000000
140200001.000000,118070001.000000
Z" /> 
</g>
<g >
</g>
<g style="fill:#000000; fill-opacity:1.0; 
stroke:#000000; stroke-width:1.000000; stroke-opacity:1; 
stroke-linecap:round; stroke-linejoin:round;">
<path style="fill:#000000; fill-opacity:1.0; 
stroke:#000000; stroke-width:1.000000; stroke-opacity:1; 
stroke-linecap:round; stroke-linejoin:round;fill-rule:evenodd;"
d="M 144475000.000000,102300000.000000
144570671.000000,102280970.000000
144651777.000000,102226777.000000
144705970.000000,102145671.000000
144725000.000000,102050000.000000
144725000.000000,100300000.000000
144705970.000000,100204329.000000
144651777.000000,100123223.000000
144570671.000000,100069030.000000
144475000.000000,100050000.000000
142625000.000000,100050000.000000
142529329.000000,100069030.000000
142448223.000000,100123223.000000
142394030.000000,100204329.000000
142375000.000000,100300000.000000
142375000.000000,102050000.000000
142394030.000000,102145671.000000
142448223.000000,102226777.000000
142529329.000000,102280970.000000
142625000.000000,102300000.000000
Z" /> 
<path style="fill:#000000; fill-opacity:1.0; 
stroke:#000000; stroke-width:1.000000; stroke-opacity:1; 
stroke-linecap:round; stroke-linejoin:round;fill-rule:evenodd;"
d="M 144475000.000000,97200000.000000
144570671.000000,97180970.000000
144651777.000000,97126777.000000
144705970.000000,97045671.000000
144725000.000000,96950000.000000
144725000.000000,95200000.000000
144705970.000000,95104329.000000
144651777.000000,95023223.000000
144570671.000000,94969030.000000
144475000.000000,94950000.000000
142625000.000000,94950000.000000
142529329.000000,94969030.000000
142448223.000000,95023223.000000
142394030.000000,95104329.000000
142375000.000000,95200000.000000
142375000.000000,96950000.000000
142394030.000000,97045671.000000
142448223.000000,97126777.000000
142529329.000000,97180970.000000
142625000.000000,97200000.000000
Z" /> 
</g>
<g >
</g>
<g style="fill:#000000; fill-opacity:1.0; 
stroke:#000000; stroke-width:1.000000; stroke-opacity:1; 
stroke-linecap:round; stroke-linejoin:round;">
<path style="fill:#000000; fill-opacity:1.0; 
stroke:#000000; stroke-width:1.000000; stroke-opacity:1; 
stroke-linecap:round; stroke-linejoin:round;fill-rule:evenodd;"
d="M 144100001.000000,106200001.000000
145399999.000000,106200001.000000
145399999.000000,107699999.000000
144100001.000000,107699999.000000
Z" /> 
<path style="fill:#000000; fill-opacity:1.0; 
stroke:#000000; stroke-width:1.000000; stroke-opacity:1; 
stroke-linecap:round; stroke-linejoin:round;fill-rule:evenodd;"
d="M 144100001.000000,108900001.000000
145399999.000000,108900001.000000
145399999.000000,110399999.000000
144100001.000000,110399999.000000
Z" /> 
</g>
<g >
</g>
<g style="fill:#000000; fill-opacity:1.0; 
stroke:#000000; stroke-width:1.000000; stroke-opacity:1; 
stroke-linecap:round; stroke-linejoin:round;">
<path style="fill:#000000; fill-opacity:1.0; 
stroke:#000000; stroke-width:1.000000; stroke-opacity:1; 
stroke-linecap:round; stroke-linejoin:round;fill-rule:evenodd;"
d="M 142899999.000000,110399999.000000
141600001.000000,110399999.000000
141600001.000000,108900001.000000
142899999.000000,108900001.000000
Z" /> 
<path style="fill:#000000; fill-opacity:1.0; 
stroke:#000000; stroke-width:1.000000; stroke-opacity:1; 
stroke-linecap:round; stroke-linejoin:round;fill-rule:evenodd;"
d="M 142899999.000000,107699999.000000
141600001.000000,107699999.000000
141600001.000000,106200001.000000
142899999.000000,106200001.000000
Z" /> 
</g>
<g >
</g>
<g style="fill:#000000; fill-opacity:1.0; 
stroke:#000000; stroke-width:1.000000; stroke-opacity:1; 
stroke-linecap:round; stroke-linejoin:round;">
<path style="fill:#000000; fill-opacity:1.0; 
stroke:#000000; stroke-width:1.000000; stroke-opacity:1; 
stroke-linecap:round; stroke-linejoin:round;fill-rule:evenodd;"
d="M 146600001.000000,106200001.000000
147899999.000000,106200001.000000
147899999.000000,107699999.000000
146600001.000000,107699999.000000
Z" /> 
<path style="fill:#000000; fill-opacity:1.0; 
stroke:#000000; stroke-width:1.000000; stroke-opacity:1; 
stroke-linecap:round; stroke-linejoin:round;fill-rule:evenodd;"
d="M 146600001.000000,108900001.000000
147899999.000000,108900001.000000
147899999.000000,110399999.000000
146600001.000000,110399999.000000
Z" /> 
</g>
<g >
</g>
<g >
</g>
<g >
</g>
<g >
</g>
</g> 
</svg>
