<?xml version="1.0" standalone="no"?>
 <!DOCTYPE svg PUBLIC "-//W3C//DTD SVG 1.1//EN" 
 "http://www.w3.org/Graphics/SVG/1.1/DTD/svg11.dtd"> 
<svg
  xmlns:svg="http://www.w3.org/2000/svg"
  xmlns="http://www.w3.org/2000/svg"
  xmlns:xlink="http://www.w3.org/1999/xlink"
  version="1.1"
  width="29.700220cm" height="21.000720cm" viewBox="0 0 297002200 210007200">
<title>SVG Picture created as xbee-F_Mask.svg date 2021/02/24 12:35:42 </title>
  <desc>Picture generated by PCBNEW </desc>
<g style="fill:#000000; fill-opacity:1.000000;stroke:#000000; stroke-opacity:1.000000;
stroke-linecap:round; stroke-linejoin:round;"
 transform="translate(0 0) scale(1 1)">
</g>
<g style="fill:#000000; fill-opacity:0.0; 
stroke:#000000; stroke-width:0.000000; stroke-opacity:1; 
stroke-linecap:round; stroke-linejoin:round;">
</g>
<g style="fill:#000000; fill-opacity:0.0; 
stroke:#000000; stroke-width:150000.000000; stroke-opacity:1; 
stroke-linecap:round; stroke-linejoin:round;">
<path d="M143250000 90250000
L153500000 90250000
" />
<path d="M135750000 96750000
L143250000 90250000
" />
<path d="M135750000 96750000
L135850000 122250000
" />
<path d="M161250000 122250000
L135850000 122250000
" />
<path d="M161201100 96750000
L161250000 122250000
" />
<path d="M153500000 90250000
L161201100 96750000
" />
<path d="M143250000 90250000
L153500000 90250000
" />
<path d="M135750000 96750000
L143250000 90250000
" />
<path d="M135750000 96750000
L135850000 122250000
" />
<path d="M161250000 122250000
L135850000 122250000
" />
<path d="M161201100 96750000
L161250000 122250000
" />
<path d="M153500000 90250000
L161201100 96750000
" />
<g >
</g>
<g style="fill:#000000; fill-opacity:0.0; 
stroke:#000000; stroke-width:1.000000; stroke-opacity:1; 
stroke-linecap:round; stroke-linejoin:round;">
</g>
<g style="fill:#000000; fill-opacity:1.0; 
stroke:#000000; stroke-width:1.000000; stroke-opacity:1; 
stroke-linecap:round; stroke-linejoin:round;">
<path style="fill:#000000; fill-opacity:1.0; 
stroke:#000000; stroke-width:1.000000; stroke-opacity:1; 
stroke-linecap:round; stroke-linejoin:round;fill-rule:evenodd;"
d="M 150501000.000000,119400000.000000
150497118.000000,119380483.000000
150486062.000000,119363938.000000
150469517.000000,119352882.000000
150450000.000000,119349000.000000
148750000.000000,119349000.000000
148730483.000000,119352882.000000
148713938.000000,119363938.000000
148702882.000000,119380483.000000
148699000.000000,119400000.000000
148699000.000000,120400000.000000
148702882.000000,120419517.000000
148713938.000000,120436062.000000
148730483.000000,120447118.000000
148750000.000000,120451000.000000
150450000.000000,120451000.000000
150469517.000000,120447118.000000
150486062.000000,120436062.000000
150497118.000000,120419517.000000
150501000.000000,120400000.000000
Z" /> 
<path style="fill:#000000; fill-opacity:1.0; 
stroke:#000000; stroke-width:1.000000; stroke-opacity:1; 
stroke-linecap:round; stroke-linejoin:round;fill-rule:evenodd;"
d="M 156801000.000000,119400000.000000
156797118.000000,119380483.000000
156786062.000000,119363938.000000
156769517.000000,119352882.000000
156750000.000000,119349000.000000
155050000.000000,119349000.000000
155030483.000000,119352882.000000
155013938.000000,119363938.000000
155002882.000000,119380483.000000
154999000.000000,119400000.000000
154999000.000000,120400000.000000
155002882.000000,120419517.000000
155013938.000000,120436062.000000
155030483.000000,120447118.000000
155050000.000000,120451000.000000
156750000.000000,120451000.000000
156769517.000000,120447118.000000
156786062.000000,120436062.000000
156797118.000000,120419517.000000
156801000.000000,120400000.000000
Z" /> 
<path style="fill:#000000; fill-opacity:1.0; 
stroke:#000000; stroke-width:1.000000; stroke-opacity:1; 
stroke-linecap:round; stroke-linejoin:round;fill-rule:evenodd;"
d="M 156801000.000000,115600000.000000
156797118.000000,115580483.000000
156786062.000000,115563938.000000
156769517.000000,115552882.000000
156750000.000000,115549000.000000
155050000.000000,115549000.000000
155030483.000000,115552882.000000
155013938.000000,115563938.000000
155002882.000000,115580483.000000
154999000.000000,115600000.000000
154999000.000000,116600000.000000
155002882.000000,116619517.000000
155013938.000000,116636062.000000
155030483.000000,116647118.000000
155050000.000000,116651000.000000
156750000.000000,116651000.000000
156769517.000000,116647118.000000
156786062.000000,116636062.000000
156797118.000000,116619517.000000
156801000.000000,116600000.000000
Z" /> 
<path style="fill:#000000; fill-opacity:1.0; 
stroke:#000000; stroke-width:1.000000; stroke-opacity:1; 
stroke-linecap:round; stroke-linejoin:round;fill-rule:evenodd;"
d="M 150501000.000000,115600000.000000
150497118.000000,115580483.000000
150486062.000000,115563938.000000
150469517.000000,115552882.000000
150450000.000000,115549000.000000
148750000.000000,115549000.000000
148730483.000000,115552882.000000
148713938.000000,115563938.000000
148702882.000000,115580483.000000
148699000.000000,115600000.000000
148699000.000000,116600000.000000
148702882.000000,116619517.000000
148713938.000000,116636062.000000
148730483.000000,116647118.000000
148750000.000000,116651000.000000
150450000.000000,116651000.000000
150469517.000000,116647118.000000
150486062.000000,116636062.000000
150497118.000000,116619517.000000
150501000.000000,116600000.000000
Z" /> 
</g>
<g >
</g>
<g style="fill:#000000; fill-opacity:1.0; 
stroke:#000000; stroke-width:1.000000; stroke-opacity:1; 
stroke-linecap:round; stroke-linejoin:round;">
<path style="fill:#000000; fill-opacity:1.0; 
stroke:#000000; stroke-width:1.000000; stroke-opacity:1; 
stroke-linecap:round; stroke-linejoin:round;fill-rule:evenodd;"
d="M 146620000.000000,118451000.000000
146639517.000000,118447118.000000
146656062.000000,118436062.000000
146667118.000000,118419517.000000
146671000.000000,118400000.000000
146671000.000000,117700000.000000
146667118.000000,117680483.000000
146656062.000000,117663938.000000
146639517.000000,117652882.000000
146620000.000000,117649000.000000
145420000.000000,117649000.000000
145400483.000000,117652882.000000
145383938.000000,117663938.000000
145372882.000000,117680483.000000
145369000.000000,117700000.000000
145369000.000000,118400000.000000
145372882.000000,118419517.000000
145383938.000000,118436062.000000
145400483.000000,118447118.000000
145420000.000000,118451000.000000
Z" /> 
<path style="fill:#000000; fill-opacity:1.0; 
stroke:#000000; stroke-width:1.000000; stroke-opacity:1; 
stroke-linecap:round; stroke-linejoin:round;fill-rule:evenodd;"
d="M 143826000.000000,118451000.000000
143845517.000000,118447118.000000
143862062.000000,118436062.000000
143873118.000000,118419517.000000
143877000.000000,118400000.000000
143877000.000000,117700000.000000
143873118.000000,117680483.000000
143862062.000000,117663938.000000
143845517.000000,117652882.000000
143826000.000000,117649000.000000
142626000.000000,117649000.000000
142606483.000000,117652882.000000
142589938.000000,117663938.000000
142578882.000000,117680483.000000
142575000.000000,117700000.000000
142575000.000000,118400000.000000
142578882.000000,118419517.000000
142589938.000000,118436062.000000
142606483.000000,118447118.000000
142626000.000000,118451000.000000
Z" /> 
<path style="fill:#000000; fill-opacity:1.0; 
stroke:#000000; stroke-width:1.000000; stroke-opacity:1; 
stroke-linecap:round; stroke-linejoin:round;fill-rule:evenodd;"
d="M 143826000.000000,116385000.000000
143845517.000000,116381118.000000
143862062.000000,116370062.000000
143873118.000000,116353517.000000
143877000.000000,116334000.000000
143877000.000000,115634000.000000
143873118.000000,115614483.000000
143862062.000000,115597938.000000
143845517.000000,115586882.000000
143826000.000000,115583000.000000
142626000.000000,115583000.000000
142606483.000000,115586882.000000
142589938.000000,115597938.000000
142578882.000000,115614483.000000
142575000.000000,115634000.000000
142575000.000000,116334000.000000
142578882.000000,116353517.000000
142589938.000000,116370062.000000
142606483.000000,116381118.000000
142626000.000000,116385000.000000
Z" /> 
<path style="fill:#000000; fill-opacity:1.0; 
stroke:#000000; stroke-width:1.000000; stroke-opacity:1; 
stroke-linecap:round; stroke-linejoin:round;fill-rule:evenodd;"
d="M 146620000.000000,116351000.000000
146639517.000000,116347118.000000
146656062.000000,116336062.000000
146667118.000000,116319517.000000
146671000.000000,116300000.000000
146671000.000000,115600000.000000
146667118.000000,115580483.000000
146656062.000000,115563938.000000
146639517.000000,115552882.000000
146620000.000000,115549000.000000
145420000.000000,115549000.000000
145400483.000000,115552882.000000
145383938.000000,115563938.000000
145372882.000000,115580483.000000
145369000.000000,115600000.000000
145369000.000000,116300000.000000
145372882.000000,116319517.000000
145383938.000000,116336062.000000
145400483.000000,116347118.000000
145420000.000000,116351000.000000
Z" /> 
</g>
<g >
</g>
<g style="fill:#000000; fill-opacity:1.0; 
stroke:#000000; stroke-width:1.000000; stroke-opacity:1; 
stroke-linecap:round; stroke-linejoin:round;">
<circle cx="137400000.000000" cy="99350000.000000" r="751000.000000" /> 
</g>
<g style="fill:#000000; fill-opacity:1.0; 
stroke:#000000; stroke-width:21200.000000; stroke-opacity:1; 
stroke-linecap:round; stroke-linejoin:round;">
</g>
<g style="fill:#000000; fill-opacity:1.0; 
stroke:#000000; stroke-width:1.000000; stroke-opacity:1; 
stroke-linecap:round; stroke-linejoin:round;">
<circle cx="137400000.000000" cy="101350000.000000" r="751000.000000" /> 
</g>
<g style="fill:#000000; fill-opacity:1.0; 
stroke:#000000; stroke-width:21200.000000; stroke-opacity:1; 
stroke-linecap:round; stroke-linejoin:round;">
</g>
<g style="fill:#000000; fill-opacity:1.0; 
stroke:#000000; stroke-width:1.000000; stroke-opacity:1; 
stroke-linecap:round; stroke-linejoin:round;">
<circle cx="137400000.000000" cy="103350000.000000" r="751000.000000" /> 
</g>
<g style="fill:#000000; fill-opacity:1.0; 
stroke:#000000; stroke-width:21200.000000; stroke-opacity:1; 
stroke-linecap:round; stroke-linejoin:round;">
</g>
<g style="fill:#000000; fill-opacity:1.0; 
stroke:#000000; stroke-width:1.000000; stroke-opacity:1; 
stroke-linecap:round; stroke-linejoin:round;">
<circle cx="137400000.000000" cy="105350000.000000" r="751000.000000" /> 
</g>
<g style="fill:#000000; fill-opacity:1.0; 
stroke:#000000; stroke-width:21200.000000; stroke-opacity:1; 
stroke-linecap:round; stroke-linejoin:round;">
</g>
<g style="fill:#000000; fill-opacity:1.0; 
stroke:#000000; stroke-width:1.000000; stroke-opacity:1; 
stroke-linecap:round; stroke-linejoin:round;">
<circle cx="137400000.000000" cy="107350000.000000" r="751000.000000" /> 
</g>
<g style="fill:#000000; fill-opacity:1.0; 
stroke:#000000; stroke-width:21200.000000; stroke-opacity:1; 
stroke-linecap:round; stroke-linejoin:round;">
</g>
<g style="fill:#000000; fill-opacity:1.0; 
stroke:#000000; stroke-width:1.000000; stroke-opacity:1; 
stroke-linecap:round; stroke-linejoin:round;">
<circle cx="137400000.000000" cy="109350000.000000" r="751000.000000" /> 
</g>
<g style="fill:#000000; fill-opacity:1.0; 
stroke:#000000; stroke-width:21200.000000; stroke-opacity:1; 
stroke-linecap:round; stroke-linejoin:round;">
</g>
<g style="fill:#000000; fill-opacity:1.0; 
stroke:#000000; stroke-width:1.000000; stroke-opacity:1; 
stroke-linecap:round; stroke-linejoin:round;">
<circle cx="137400000.000000" cy="111350000.000000" r="751000.000000" /> 
</g>
<g style="fill:#000000; fill-opacity:1.0; 
stroke:#000000; stroke-width:21200.000000; stroke-opacity:1; 
stroke-linecap:round; stroke-linejoin:round;">
</g>
<g style="fill:#000000; fill-opacity:1.0; 
stroke:#000000; stroke-width:1.000000; stroke-opacity:1; 
stroke-linecap:round; stroke-linejoin:round;">
<circle cx="137400000.000000" cy="113350000.000000" r="751000.000000" /> 
</g>
<g style="fill:#000000; fill-opacity:1.0; 
stroke:#000000; stroke-width:21200.000000; stroke-opacity:1; 
stroke-linecap:round; stroke-linejoin:round;">
</g>
<g style="fill:#000000; fill-opacity:1.0; 
stroke:#000000; stroke-width:1.000000; stroke-opacity:1; 
stroke-linecap:round; stroke-linejoin:round;">
<circle cx="137400000.000000" cy="115350000.000000" r="751000.000000" /> 
</g>
<g style="fill:#000000; fill-opacity:1.0; 
stroke:#000000; stroke-width:21200.000000; stroke-opacity:1; 
stroke-linecap:round; stroke-linejoin:round;">
</g>
<g style="fill:#000000; fill-opacity:1.0; 
stroke:#000000; stroke-width:1.000000; stroke-opacity:1; 
stroke-linecap:round; stroke-linejoin:round;">
<circle cx="137400000.000000" cy="117350000.000000" r="751000.000000" /> 
</g>
<g style="fill:#000000; fill-opacity:1.0; 
stroke:#000000; stroke-width:21200.000000; stroke-opacity:1; 
stroke-linecap:round; stroke-linejoin:round;">
</g>
<g style="fill:#000000; fill-opacity:1.0; 
stroke:#000000; stroke-width:1.000000; stroke-opacity:1; 
stroke-linecap:round; stroke-linejoin:round;">
<circle cx="159400000.000000" cy="117350000.000000" r="751000.000000" /> 
</g>
<g style="fill:#000000; fill-opacity:1.0; 
stroke:#000000; stroke-width:21200.000000; stroke-opacity:1; 
stroke-linecap:round; stroke-linejoin:round;">
</g>
<g style="fill:#000000; fill-opacity:1.0; 
stroke:#000000; stroke-width:1.000000; stroke-opacity:1; 
stroke-linecap:round; stroke-linejoin:round;">
<circle cx="159400000.000000" cy="115350000.000000" r="751000.000000" /> 
</g>
<g style="fill:#000000; fill-opacity:1.0; 
stroke:#000000; stroke-width:21200.000000; stroke-opacity:1; 
stroke-linecap:round; stroke-linejoin:round;">
</g>
<g style="fill:#000000; fill-opacity:1.0; 
stroke:#000000; stroke-width:1.000000; stroke-opacity:1; 
stroke-linecap:round; stroke-linejoin:round;">
<circle cx="159400000.000000" cy="113350000.000000" r="751000.000000" /> 
</g>
<g style="fill:#000000; fill-opacity:1.0; 
stroke:#000000; stroke-width:21200.000000; stroke-opacity:1; 
stroke-linecap:round; stroke-linejoin:round;">
</g>
<g style="fill:#000000; fill-opacity:1.0; 
stroke:#000000; stroke-width:1.000000; stroke-opacity:1; 
stroke-linecap:round; stroke-linejoin:round;">
<circle cx="159400000.000000" cy="111350000.000000" r="751000.000000" /> 
</g>
<g style="fill:#000000; fill-opacity:1.0; 
stroke:#000000; stroke-width:21200.000000; stroke-opacity:1; 
stroke-linecap:round; stroke-linejoin:round;">
</g>
<g style="fill:#000000; fill-opacity:1.0; 
stroke:#000000; stroke-width:1.000000; stroke-opacity:1; 
stroke-linecap:round; stroke-linejoin:round;">
<circle cx="159400000.000000" cy="109350000.000000" r="751000.000000" /> 
</g>
<g style="fill:#000000; fill-opacity:1.0; 
stroke:#000000; stroke-width:21200.000000; stroke-opacity:1; 
stroke-linecap:round; stroke-linejoin:round;">
</g>
<g style="fill:#000000; fill-opacity:1.0; 
stroke:#000000; stroke-width:1.000000; stroke-opacity:1; 
stroke-linecap:round; stroke-linejoin:round;">
<circle cx="159400000.000000" cy="107350000.000000" r="751000.000000" /> 
</g>
<g style="fill:#000000; fill-opacity:1.0; 
stroke:#000000; stroke-width:21200.000000; stroke-opacity:1; 
stroke-linecap:round; stroke-linejoin:round;">
</g>
<g style="fill:#000000; fill-opacity:1.0; 
stroke:#000000; stroke-width:1.000000; stroke-opacity:1; 
stroke-linecap:round; stroke-linejoin:round;">
<circle cx="159400000.000000" cy="105350000.000000" r="751000.000000" /> 
</g>
<g style="fill:#000000; fill-opacity:1.0; 
stroke:#000000; stroke-width:21200.000000; stroke-opacity:1; 
stroke-linecap:round; stroke-linejoin:round;">
</g>
<g style="fill:#000000; fill-opacity:1.0; 
stroke:#000000; stroke-width:1.000000; stroke-opacity:1; 
stroke-linecap:round; stroke-linejoin:round;">
<circle cx="159400000.000000" cy="103350000.000000" r="751000.000000" /> 
</g>
<g style="fill:#000000; fill-opacity:1.0; 
stroke:#000000; stroke-width:21200.000000; stroke-opacity:1; 
stroke-linecap:round; stroke-linejoin:round;">
</g>
<g style="fill:#000000; fill-opacity:1.0; 
stroke:#000000; stroke-width:1.000000; stroke-opacity:1; 
stroke-linecap:round; stroke-linejoin:round;">
<circle cx="159400000.000000" cy="101350000.000000" r="751000.000000" /> 
</g>
<g style="fill:#000000; fill-opacity:1.0; 
stroke:#000000; stroke-width:21200.000000; stroke-opacity:1; 
stroke-linecap:round; stroke-linejoin:round;">
</g>
<g style="fill:#000000; fill-opacity:1.0; 
stroke:#000000; stroke-width:1.000000; stroke-opacity:1; 
stroke-linecap:round; stroke-linejoin:round;">
<circle cx="159400000.000000" cy="99350000.000000" r="751000.000000" /> 
</g>
<g style="fill:#000000; fill-opacity:1.0; 
stroke:#000000; stroke-width:21200.000000; stroke-opacity:1; 
stroke-linecap:round; stroke-linejoin:round;">
</g>
<g >
</g>
<g style="fill:#000000; fill-opacity:1.0; 
stroke:#000000; stroke-width:21200.000000; stroke-opacity:1; 
stroke-linecap:round; stroke-linejoin:round;">
</g>
<g style="fill:#000000; fill-opacity:1.0; 
stroke:#000000; stroke-width:1.000000; stroke-opacity:1; 
stroke-linecap:round; stroke-linejoin:round;">
<path style="fill:#000000; fill-opacity:1.0; 
stroke:#000000; stroke-width:1.000000; stroke-opacity:1; 
stroke-linecap:round; stroke-linejoin:round;fill-rule:evenodd;"
d="M 140526434.000000,95032662.000000
140522552.000000,95013145.000000
140511496.000000,94996600.000000
140494951.000000,94985544.000000
140475434.000000,94981662.000000
138725434.000000,94981662.000000
138705917.000000,94985544.000000
138689372.000000,94996600.000000
138678316.000000,95013145.000000
138674434.000000,95032662.000000
138674434.000000,95932662.000000
138678316.000000,95952179.000000
138689372.000000,95968724.000000
138705917.000000,95979780.000000
138725434.000000,95983662.000000
140475434.000000,95983662.000000
140494951.000000,95979780.000000
140511496.000000,95968724.000000
140522552.000000,95952179.000000
140526434.000000,95932662.000000
Z" /> 
<path style="fill:#000000; fill-opacity:1.0; 
stroke:#000000; stroke-width:1.000000; stroke-opacity:1; 
stroke-linecap:round; stroke-linejoin:round;fill-rule:evenodd;"
d="M 140526434.000000,96302662.000000
140522552.000000,96283145.000000
140511496.000000,96266600.000000
140494951.000000,96255544.000000
140475434.000000,96251662.000000
138725434.000000,96251662.000000
138705917.000000,96255544.000000
138689372.000000,96266600.000000
138678316.000000,96283145.000000
138674434.000000,96302662.000000
138674434.000000,97202662.000000
138678316.000000,97222179.000000
138689372.000000,97238724.000000
138705917.000000,97249780.000000
138725434.000000,97253662.000000
140475434.000000,97253662.000000
140494951.000000,97249780.000000
140511496.000000,97238724.000000
140522552.000000,97222179.000000
140526434.000000,97202662.000000
Z" /> 
<path style="fill:#000000; fill-opacity:1.0; 
stroke:#000000; stroke-width:1.000000; stroke-opacity:1; 
stroke-linecap:round; stroke-linejoin:round;fill-rule:evenodd;"
d="M 140526434.000000,97572662.000000
140522552.000000,97553145.000000
140511496.000000,97536600.000000
140494951.000000,97525544.000000
140475434.000000,97521662.000000
138725434.000000,97521662.000000
138705917.000000,97525544.000000
138689372.000000,97536600.000000
138678316.000000,97553145.000000
138674434.000000,97572662.000000
138674434.000000,98472662.000000
138678316.000000,98492179.000000
138689372.000000,98508724.000000
138705917.000000,98519780.000000
138725434.000000,98523662.000000
140475434.000000,98523662.000000
140494951.000000,98519780.000000
140511496.000000,98508724.000000
140522552.000000,98492179.000000
140526434.000000,98472662.000000
Z" /> 
<path style="fill:#000000; fill-opacity:1.0; 
stroke:#000000; stroke-width:1.000000; stroke-opacity:1; 
stroke-linecap:round; stroke-linejoin:round;fill-rule:evenodd;"
d="M 140526434.000000,98842662.000000
140522552.000000,98823145.000000
140511496.000000,98806600.000000
140494951.000000,98795544.000000
140475434.000000,98791662.000000
138725434.000000,98791662.000000
138705917.000000,98795544.000000
138689372.000000,98806600.000000
138678316.000000,98823145.000000
138674434.000000,98842662.000000
138674434.000000,99742662.000000
138678316.000000,99762179.000000
138689372.000000,99778724.000000
138705917.000000,99789780.000000
138725434.000000,99793662.000000
140475434.000000,99793662.000000
140494951.000000,99789780.000000
140511496.000000,99778724.000000
140522552.000000,99762179.000000
140526434.000000,99742662.000000
Z" /> 
<path style="fill:#000000; fill-opacity:1.0; 
stroke:#000000; stroke-width:1.000000; stroke-opacity:1; 
stroke-linecap:round; stroke-linejoin:round;fill-rule:evenodd;"
d="M 140526434.000000,100112662.000000
140522552.000000,100093145.000000
140511496.000000,100076600.000000
140494951.000000,100065544.000000
140475434.000000,100061662.000000
138725434.000000,100061662.000000
138705917.000000,100065544.000000
138689372.000000,100076600.000000
138678316.000000,100093145.000000
138674434.000000,100112662.000000
138674434.000000,101012662.000000
138678316.000000,101032179.000000
138689372.000000,101048724.000000
138705917.000000,101059780.000000
138725434.000000,101063662.000000
140475434.000000,101063662.000000
140494951.000000,101059780.000000
140511496.000000,101048724.000000
140522552.000000,101032179.000000
140526434.000000,101012662.000000
Z" /> 
<path style="fill:#000000; fill-opacity:1.0; 
stroke:#000000; stroke-width:1.000000; stroke-opacity:1; 
stroke-linecap:round; stroke-linejoin:round;fill-rule:evenodd;"
d="M 140526434.000000,101382662.000000
140522552.000000,101363145.000000
140511496.000000,101346600.000000
140494951.000000,101335544.000000
140475434.000000,101331662.000000
138725434.000000,101331662.000000
138705917.000000,101335544.000000
138689372.000000,101346600.000000
138678316.000000,101363145.000000
138674434.000000,101382662.000000
138674434.000000,102282662.000000
138678316.000000,102302179.000000
138689372.000000,102318724.000000
138705917.000000,102329780.000000
138725434.000000,102333662.000000
140475434.000000,102333662.000000
140494951.000000,102329780.000000
140511496.000000,102318724.000000
140522552.000000,102302179.000000
140526434.000000,102282662.000000
Z" /> 
<path style="fill:#000000; fill-opacity:1.0; 
stroke:#000000; stroke-width:1.000000; stroke-opacity:1; 
stroke-linecap:round; stroke-linejoin:round;fill-rule:evenodd;"
d="M 140526434.000000,102652662.000000
140522552.000000,102633145.000000
140511496.000000,102616600.000000
140494951.000000,102605544.000000
140475434.000000,102601662.000000
138725434.000000,102601662.000000
138705917.000000,102605544.000000
138689372.000000,102616600.000000
138678316.000000,102633145.000000
138674434.000000,102652662.000000
138674434.000000,103552662.000000
138678316.000000,103572179.000000
138689372.000000,103588724.000000
138705917.000000,103599780.000000
138725434.000000,103603662.000000
140475434.000000,103603662.000000
140494951.000000,103599780.000000
140511496.000000,103588724.000000
140522552.000000,103572179.000000
140526434.000000,103552662.000000
Z" /> 
<path style="fill:#000000; fill-opacity:1.0; 
stroke:#000000; stroke-width:1.000000; stroke-opacity:1; 
stroke-linecap:round; stroke-linejoin:round;fill-rule:evenodd;"
d="M 140526434.000000,103922662.000000
140522552.000000,103903145.000000
140511496.000000,103886600.000000
140494951.000000,103875544.000000
140475434.000000,103871662.000000
138725434.000000,103871662.000000
138705917.000000,103875544.000000
138689372.000000,103886600.000000
138678316.000000,103903145.000000
138674434.000000,103922662.000000
138674434.000000,104822662.000000
138678316.000000,104842179.000000
138689372.000000,104858724.000000
138705917.000000,104869780.000000
138725434.000000,104873662.000000
140475434.000000,104873662.000000
140494951.000000,104869780.000000
140511496.000000,104858724.000000
140522552.000000,104842179.000000
140526434.000000,104822662.000000
Z" /> 
<path style="fill:#000000; fill-opacity:1.0; 
stroke:#000000; stroke-width:1.000000; stroke-opacity:1; 
stroke-linecap:round; stroke-linejoin:round;fill-rule:evenodd;"
d="M 140526434.000000,105192662.000000
140522552.000000,105173145.000000
140511496.000000,105156600.000000
140494951.000000,105145544.000000
140475434.000000,105141662.000000
138725434.000000,105141662.000000
138705917.000000,105145544.000000
138689372.000000,105156600.000000
138678316.000000,105173145.000000
138674434.000000,105192662.000000
138674434.000000,106092662.000000
138678316.000000,106112179.000000
138689372.000000,106128724.000000
138705917.000000,106139780.000000
138725434.000000,106143662.000000
140475434.000000,106143662.000000
140494951.000000,106139780.000000
140511496.000000,106128724.000000
140522552.000000,106112179.000000
140526434.000000,106092662.000000
Z" /> 
<path style="fill:#000000; fill-opacity:1.0; 
stroke:#000000; stroke-width:1.000000; stroke-opacity:1; 
stroke-linecap:round; stroke-linejoin:round;fill-rule:evenodd;"
d="M 140526434.000000,106462662.000000
140522552.000000,106443145.000000
140511496.000000,106426600.000000
140494951.000000,106415544.000000
140475434.000000,106411662.000000
138725434.000000,106411662.000000
138705917.000000,106415544.000000
138689372.000000,106426600.000000
138678316.000000,106443145.000000
138674434.000000,106462662.000000
138674434.000000,107362662.000000
138678316.000000,107382179.000000
138689372.000000,107398724.000000
138705917.000000,107409780.000000
138725434.000000,107413662.000000
140475434.000000,107413662.000000
140494951.000000,107409780.000000
140511496.000000,107398724.000000
140522552.000000,107382179.000000
140526434.000000,107362662.000000
Z" /> 
<path style="fill:#000000; fill-opacity:1.0; 
stroke:#000000; stroke-width:1.000000; stroke-opacity:1; 
stroke-linecap:round; stroke-linejoin:round;fill-rule:evenodd;"
d="M 140526434.000000,107732662.000000
140522552.000000,107713145.000000
140511496.000000,107696600.000000
140494951.000000,107685544.000000
140475434.000000,107681662.000000
138725434.000000,107681662.000000
138705917.000000,107685544.000000
138689372.000000,107696600.000000
138678316.000000,107713145.000000
138674434.000000,107732662.000000
138674434.000000,108632662.000000
138678316.000000,108652179.000000
138689372.000000,108668724.000000
138705917.000000,108679780.000000
138725434.000000,108683662.000000
140475434.000000,108683662.000000
140494951.000000,108679780.000000
140511496.000000,108668724.000000
140522552.000000,108652179.000000
140526434.000000,108632662.000000
Z" /> 
<path style="fill:#000000; fill-opacity:1.0; 
stroke:#000000; stroke-width:1.000000; stroke-opacity:1; 
stroke-linecap:round; stroke-linejoin:round;fill-rule:evenodd;"
d="M 140526434.000000,109002662.000000
140522552.000000,108983145.000000
140511496.000000,108966600.000000
140494951.000000,108955544.000000
140475434.000000,108951662.000000
138725434.000000,108951662.000000
138705917.000000,108955544.000000
138689372.000000,108966600.000000
138678316.000000,108983145.000000
138674434.000000,109002662.000000
138674434.000000,109902662.000000
138678316.000000,109922179.000000
138689372.000000,109938724.000000
138705917.000000,109949780.000000
138725434.000000,109953662.000000
140475434.000000,109953662.000000
140494951.000000,109949780.000000
140511496.000000,109938724.000000
140522552.000000,109922179.000000
140526434.000000,109902662.000000
Z" /> 
<path style="fill:#000000; fill-opacity:1.0; 
stroke:#000000; stroke-width:1.000000; stroke-opacity:1; 
stroke-linecap:round; stroke-linejoin:round;fill-rule:evenodd;"
d="M 140526434.000000,110272662.000000
140522552.000000,110253145.000000
140511496.000000,110236600.000000
140494951.000000,110225544.000000
140475434.000000,110221662.000000
138725434.000000,110221662.000000
138705917.000000,110225544.000000
138689372.000000,110236600.000000
138678316.000000,110253145.000000
138674434.000000,110272662.000000
138674434.000000,111172662.000000
138678316.000000,111192179.000000
138689372.000000,111208724.000000
138705917.000000,111219780.000000
138725434.000000,111223662.000000
140475434.000000,111223662.000000
140494951.000000,111219780.000000
140511496.000000,111208724.000000
140522552.000000,111192179.000000
140526434.000000,111172662.000000
Z" /> 
<path style="fill:#000000; fill-opacity:1.0; 
stroke:#000000; stroke-width:1.000000; stroke-opacity:1; 
stroke-linecap:round; stroke-linejoin:round;fill-rule:evenodd;"
d="M 140526434.000000,111542662.000000
140522552.000000,111523145.000000
140511496.000000,111506600.000000
140494951.000000,111495544.000000
140475434.000000,111491662.000000
138725434.000000,111491662.000000
138705917.000000,111495544.000000
138689372.000000,111506600.000000
138678316.000000,111523145.000000
138674434.000000,111542662.000000
138674434.000000,112442662.000000
138678316.000000,112462179.000000
138689372.000000,112478724.000000
138705917.000000,112489780.000000
138725434.000000,112493662.000000
140475434.000000,112493662.000000
140494951.000000,112489780.000000
140511496.000000,112478724.000000
140522552.000000,112462179.000000
140526434.000000,112442662.000000
Z" /> 
<path style="fill:#000000; fill-opacity:1.0; 
stroke:#000000; stroke-width:1.000000; stroke-opacity:1; 
stroke-linecap:round; stroke-linejoin:round;fill-rule:evenodd;"
d="M 143386434.000000,112607662.000000
143382552.000000,112588145.000000
143371496.000000,112571600.000000
143354951.000000,112560544.000000
143335434.000000,112556662.000000
142435434.000000,112556662.000000
142415917.000000,112560544.000000
142399372.000000,112571600.000000
142388316.000000,112588145.000000
142384434.000000,112607662.000000
142384434.000000,114357662.000000
142388316.000000,114377179.000000
142399372.000000,114393724.000000
142415917.000000,114404780.000000
142435434.000000,114408662.000000
143335434.000000,114408662.000000
143354951.000000,114404780.000000
143371496.000000,114393724.000000
143382552.000000,114377179.000000
143386434.000000,114357662.000000
Z" /> 
<path style="fill:#000000; fill-opacity:1.0; 
stroke:#000000; stroke-width:1.000000; stroke-opacity:1; 
stroke-linecap:round; stroke-linejoin:round;fill-rule:evenodd;"
d="M 144656434.000000,112607662.000000
144652552.000000,112588145.000000
144641496.000000,112571600.000000
144624951.000000,112560544.000000
144605434.000000,112556662.000000
143705434.000000,112556662.000000
143685917.000000,112560544.000000
143669372.000000,112571600.000000
143658316.000000,112588145.000000
143654434.000000,112607662.000000
143654434.000000,114357662.000000
143658316.000000,114377179.000000
143669372.000000,114393724.000000
143685917.000000,114404780.000000
143705434.000000,114408662.000000
144605434.000000,114408662.000000
144624951.000000,114404780.000000
144641496.000000,114393724.000000
144652552.000000,114377179.000000
144656434.000000,114357662.000000
Z" /> 
<path style="fill:#000000; fill-opacity:1.0; 
stroke:#000000; stroke-width:1.000000; stroke-opacity:1; 
stroke-linecap:round; stroke-linejoin:round;fill-rule:evenodd;"
d="M 145926434.000000,112607662.000000
145922552.000000,112588145.000000
145911496.000000,112571600.000000
145894951.000000,112560544.000000
145875434.000000,112556662.000000
144975434.000000,112556662.000000
144955917.000000,112560544.000000
144939372.000000,112571600.000000
144928316.000000,112588145.000000
144924434.000000,112607662.000000
144924434.000000,114357662.000000
144928316.000000,114377179.000000
144939372.000000,114393724.000000
144955917.000000,114404780.000000
144975434.000000,114408662.000000
145875434.000000,114408662.000000
145894951.000000,114404780.000000
145911496.000000,114393724.000000
145922552.000000,114377179.000000
145926434.000000,114357662.000000
Z" /> 
<path style="fill:#000000; fill-opacity:1.0; 
stroke:#000000; stroke-width:1.000000; stroke-opacity:1; 
stroke-linecap:round; stroke-linejoin:round;fill-rule:evenodd;"
d="M 147196434.000000,112607662.000000
147192552.000000,112588145.000000
147181496.000000,112571600.000000
147164951.000000,112560544.000000
147145434.000000,112556662.000000
146245434.000000,112556662.000000
146225917.000000,112560544.000000
146209372.000000,112571600.000000
146198316.000000,112588145.000000
146194434.000000,112607662.000000
146194434.000000,114357662.000000
146198316.000000,114377179.000000
146209372.000000,114393724.000000
146225917.000000,114404780.000000
146245434.000000,114408662.000000
147145434.000000,114408662.000000
147164951.000000,114404780.000000
147181496.000000,114393724.000000
147192552.000000,114377179.000000
147196434.000000,114357662.000000
Z" /> 
<path style="fill:#000000; fill-opacity:1.0; 
stroke:#000000; stroke-width:1.000000; stroke-opacity:1; 
stroke-linecap:round; stroke-linejoin:round;fill-rule:evenodd;"
d="M 148466434.000000,112607662.000000
148462552.000000,112588145.000000
148451496.000000,112571600.000000
148434951.000000,112560544.000000
148415434.000000,112556662.000000
147515434.000000,112556662.000000
147495917.000000,112560544.000000
147479372.000000,112571600.000000
147468316.000000,112588145.000000
147464434.000000,112607662.000000
147464434.000000,114357662.000000
147468316.000000,114377179.000000
147479372.000000,114393724.000000
147495917.000000,114404780.000000
147515434.000000,114408662.000000
148415434.000000,114408662.000000
148434951.000000,114404780.000000
148451496.000000,114393724.000000
148462552.000000,114377179.000000
148466434.000000,114357662.000000
Z" /> 
<path style="fill:#000000; fill-opacity:1.0; 
stroke:#000000; stroke-width:1.000000; stroke-opacity:1; 
stroke-linecap:round; stroke-linejoin:round;fill-rule:evenodd;"
d="M 149736434.000000,112607662.000000
149732552.000000,112588145.000000
149721496.000000,112571600.000000
149704951.000000,112560544.000000
149685434.000000,112556662.000000
148785434.000000,112556662.000000
148765917.000000,112560544.000000
148749372.000000,112571600.000000
148738316.000000,112588145.000000
148734434.000000,112607662.000000
148734434.000000,114357662.000000
148738316.000000,114377179.000000
148749372.000000,114393724.000000
148765917.000000,114404780.000000
148785434.000000,114408662.000000
149685434.000000,114408662.000000
149704951.000000,114404780.000000
149721496.000000,114393724.000000
149732552.000000,114377179.000000
149736434.000000,114357662.000000
Z" /> 
<path style="fill:#000000; fill-opacity:1.0; 
stroke:#000000; stroke-width:1.000000; stroke-opacity:1; 
stroke-linecap:round; stroke-linejoin:round;fill-rule:evenodd;"
d="M 151006434.000000,112607662.000000
151002552.000000,112588145.000000
150991496.000000,112571600.000000
150974951.000000,112560544.000000
150955434.000000,112556662.000000
150055434.000000,112556662.000000
150035917.000000,112560544.000000
150019372.000000,112571600.000000
150008316.000000,112588145.000000
150004434.000000,112607662.000000
150004434.000000,114357662.000000
150008316.000000,114377179.000000
150019372.000000,114393724.000000
150035917.000000,114404780.000000
150055434.000000,114408662.000000
150955434.000000,114408662.000000
150974951.000000,114404780.000000
150991496.000000,114393724.000000
151002552.000000,114377179.000000
151006434.000000,114357662.000000
Z" /> 
<path style="fill:#000000; fill-opacity:1.0; 
stroke:#000000; stroke-width:1.000000; stroke-opacity:1; 
stroke-linecap:round; stroke-linejoin:round;fill-rule:evenodd;"
d="M 152276434.000000,112607662.000000
152272552.000000,112588145.000000
152261496.000000,112571600.000000
152244951.000000,112560544.000000
152225434.000000,112556662.000000
151325434.000000,112556662.000000
151305917.000000,112560544.000000
151289372.000000,112571600.000000
151278316.000000,112588145.000000
151274434.000000,112607662.000000
151274434.000000,114357662.000000
151278316.000000,114377179.000000
151289372.000000,114393724.000000
151305917.000000,114404780.000000
151325434.000000,114408662.000000
152225434.000000,114408662.000000
152244951.000000,114404780.000000
152261496.000000,114393724.000000
152272552.000000,114377179.000000
152276434.000000,114357662.000000
Z" /> 
<path style="fill:#000000; fill-opacity:1.0; 
stroke:#000000; stroke-width:1.000000; stroke-opacity:1; 
stroke-linecap:round; stroke-linejoin:round;fill-rule:evenodd;"
d="M 153546434.000000,112607662.000000
153542552.000000,112588145.000000
153531496.000000,112571600.000000
153514951.000000,112560544.000000
153495434.000000,112556662.000000
152595434.000000,112556662.000000
152575917.000000,112560544.000000
152559372.000000,112571600.000000
152548316.000000,112588145.000000
152544434.000000,112607662.000000
152544434.000000,114357662.000000
152548316.000000,114377179.000000
152559372.000000,114393724.000000
152575917.000000,114404780.000000
152595434.000000,114408662.000000
153495434.000000,114408662.000000
153514951.000000,114404780.000000
153531496.000000,114393724.000000
153542552.000000,114377179.000000
153546434.000000,114357662.000000
Z" /> 
<path style="fill:#000000; fill-opacity:1.0; 
stroke:#000000; stroke-width:1.000000; stroke-opacity:1; 
stroke-linecap:round; stroke-linejoin:round;fill-rule:evenodd;"
d="M 154816434.000000,112607662.000000
154812552.000000,112588145.000000
154801496.000000,112571600.000000
154784951.000000,112560544.000000
154765434.000000,112556662.000000
153865434.000000,112556662.000000
153845917.000000,112560544.000000
153829372.000000,112571600.000000
153818316.000000,112588145.000000
153814434.000000,112607662.000000
153814434.000000,114357662.000000
153818316.000000,114377179.000000
153829372.000000,114393724.000000
153845917.000000,114404780.000000
153865434.000000,114408662.000000
154765434.000000,114408662.000000
154784951.000000,114404780.000000
154801496.000000,114393724.000000
154812552.000000,114377179.000000
154816434.000000,114357662.000000
Z" /> 
<path style="fill:#000000; fill-opacity:1.0; 
stroke:#000000; stroke-width:1.000000; stroke-opacity:1; 
stroke-linecap:round; stroke-linejoin:round;fill-rule:evenodd;"
d="M 158526434.000000,111542662.000000
158522552.000000,111523145.000000
158511496.000000,111506600.000000
158494951.000000,111495544.000000
158475434.000000,111491662.000000
156725434.000000,111491662.000000
156705917.000000,111495544.000000
156689372.000000,111506600.000000
156678316.000000,111523145.000000
156674434.000000,111542662.000000
156674434.000000,112442662.000000
156678316.000000,112462179.000000
156689372.000000,112478724.000000
156705917.000000,112489780.000000
156725434.000000,112493662.000000
158475434.000000,112493662.000000
158494951.000000,112489780.000000
158511496.000000,112478724.000000
158522552.000000,112462179.000000
158526434.000000,112442662.000000
Z" /> 
<path style="fill:#000000; fill-opacity:1.0; 
stroke:#000000; stroke-width:1.000000; stroke-opacity:1; 
stroke-linecap:round; stroke-linejoin:round;fill-rule:evenodd;"
d="M 158526434.000000,110272662.000000
158522552.000000,110253145.000000
158511496.000000,110236600.000000
158494951.000000,110225544.000000
158475434.000000,110221662.000000
156725434.000000,110221662.000000
156705917.000000,110225544.000000
156689372.000000,110236600.000000
156678316.000000,110253145.000000
156674434.000000,110272662.000000
156674434.000000,111172662.000000
156678316.000000,111192179.000000
156689372.000000,111208724.000000
156705917.000000,111219780.000000
156725434.000000,111223662.000000
158475434.000000,111223662.000000
158494951.000000,111219780.000000
158511496.000000,111208724.000000
158522552.000000,111192179.000000
158526434.000000,111172662.000000
Z" /> 
<path style="fill:#000000; fill-opacity:1.0; 
stroke:#000000; stroke-width:1.000000; stroke-opacity:1; 
stroke-linecap:round; stroke-linejoin:round;fill-rule:evenodd;"
d="M 158526434.000000,109002662.000000
158522552.000000,108983145.000000
158511496.000000,108966600.000000
158494951.000000,108955544.000000
158475434.000000,108951662.000000
156725434.000000,108951662.000000
156705917.000000,108955544.000000
156689372.000000,108966600.000000
156678316.000000,108983145.000000
156674434.000000,109002662.000000
156674434.000000,109902662.000000
156678316.000000,109922179.000000
156689372.000000,109938724.000000
156705917.000000,109949780.000000
156725434.000000,109953662.000000
158475434.000000,109953662.000000
158494951.000000,109949780.000000
158511496.000000,109938724.000000
158522552.000000,109922179.000000
158526434.000000,109902662.000000
Z" /> 
<path style="fill:#000000; fill-opacity:1.0; 
stroke:#000000; stroke-width:1.000000; stroke-opacity:1; 
stroke-linecap:round; stroke-linejoin:round;fill-rule:evenodd;"
d="M 158526434.000000,107732662.000000
158522552.000000,107713145.000000
158511496.000000,107696600.000000
158494951.000000,107685544.000000
158475434.000000,107681662.000000
156725434.000000,107681662.000000
156705917.000000,107685544.000000
156689372.000000,107696600.000000
156678316.000000,107713145.000000
156674434.000000,107732662.000000
156674434.000000,108632662.000000
156678316.000000,108652179.000000
156689372.000000,108668724.000000
156705917.000000,108679780.000000
156725434.000000,108683662.000000
158475434.000000,108683662.000000
158494951.000000,108679780.000000
158511496.000000,108668724.000000
158522552.000000,108652179.000000
158526434.000000,108632662.000000
Z" /> 
<path style="fill:#000000; fill-opacity:1.0; 
stroke:#000000; stroke-width:1.000000; stroke-opacity:1; 
stroke-linecap:round; stroke-linejoin:round;fill-rule:evenodd;"
d="M 158526434.000000,106462662.000000
158522552.000000,106443145.000000
158511496.000000,106426600.000000
158494951.000000,106415544.000000
158475434.000000,106411662.000000
156725434.000000,106411662.000000
156705917.000000,106415544.000000
156689372.000000,106426600.000000
156678316.000000,106443145.000000
156674434.000000,106462662.000000
156674434.000000,107362662.000000
156678316.000000,107382179.000000
156689372.000000,107398724.000000
156705917.000000,107409780.000000
156725434.000000,107413662.000000
158475434.000000,107413662.000000
158494951.000000,107409780.000000
158511496.000000,107398724.000000
158522552.000000,107382179.000000
158526434.000000,107362662.000000
Z" /> 
<path style="fill:#000000; fill-opacity:1.0; 
stroke:#000000; stroke-width:1.000000; stroke-opacity:1; 
stroke-linecap:round; stroke-linejoin:round;fill-rule:evenodd;"
d="M 158526434.000000,105192662.000000
158522552.000000,105173145.000000
158511496.000000,105156600.000000
158494951.000000,105145544.000000
158475434.000000,105141662.000000
156725434.000000,105141662.000000
156705917.000000,105145544.000000
156689372.000000,105156600.000000
156678316.000000,105173145.000000
156674434.000000,105192662.000000
156674434.000000,106092662.000000
156678316.000000,106112179.000000
156689372.000000,106128724.000000
156705917.000000,106139780.000000
156725434.000000,106143662.000000
158475434.000000,106143662.000000
158494951.000000,106139780.000000
158511496.000000,106128724.000000
158522552.000000,106112179.000000
158526434.000000,106092662.000000
Z" /> 
<path style="fill:#000000; fill-opacity:1.0; 
stroke:#000000; stroke-width:1.000000; stroke-opacity:1; 
stroke-linecap:round; stroke-linejoin:round;fill-rule:evenodd;"
d="M 158526434.000000,103922662.000000
158522552.000000,103903145.000000
158511496.000000,103886600.000000
158494951.000000,103875544.000000
158475434.000000,103871662.000000
156725434.000000,103871662.000000
156705917.000000,103875544.000000
156689372.000000,103886600.000000
156678316.000000,103903145.000000
156674434.000000,103922662.000000
156674434.000000,104822662.000000
156678316.000000,104842179.000000
156689372.000000,104858724.000000
156705917.000000,104869780.000000
156725434.000000,104873662.000000
158475434.000000,104873662.000000
158494951.000000,104869780.000000
158511496.000000,104858724.000000
158522552.000000,104842179.000000
158526434.000000,104822662.000000
Z" /> 
<path style="fill:#000000; fill-opacity:1.0; 
stroke:#000000; stroke-width:1.000000; stroke-opacity:1; 
stroke-linecap:round; stroke-linejoin:round;fill-rule:evenodd;"
d="M 158526434.000000,102652662.000000
158522552.000000,102633145.000000
158511496.000000,102616600.000000
158494951.000000,102605544.000000
158475434.000000,102601662.000000
156725434.000000,102601662.000000
156705917.000000,102605544.000000
156689372.000000,102616600.000000
156678316.000000,102633145.000000
156674434.000000,102652662.000000
156674434.000000,103552662.000000
156678316.000000,103572179.000000
156689372.000000,103588724.000000
156705917.000000,103599780.000000
156725434.000000,103603662.000000
158475434.000000,103603662.000000
158494951.000000,103599780.000000
158511496.000000,103588724.000000
158522552.000000,103572179.000000
158526434.000000,103552662.000000
Z" /> 
<path style="fill:#000000; fill-opacity:1.0; 
stroke:#000000; stroke-width:1.000000; stroke-opacity:1; 
stroke-linecap:round; stroke-linejoin:round;fill-rule:evenodd;"
d="M 158526434.000000,101382662.000000
158522552.000000,101363145.000000
158511496.000000,101346600.000000
158494951.000000,101335544.000000
158475434.000000,101331662.000000
156725434.000000,101331662.000000
156705917.000000,101335544.000000
156689372.000000,101346600.000000
156678316.000000,101363145.000000
156674434.000000,101382662.000000
156674434.000000,102282662.000000
156678316.000000,102302179.000000
156689372.000000,102318724.000000
156705917.000000,102329780.000000
156725434.000000,102333662.000000
158475434.000000,102333662.000000
158494951.000000,102329780.000000
158511496.000000,102318724.000000
158522552.000000,102302179.000000
158526434.000000,102282662.000000
Z" /> 
<path style="fill:#000000; fill-opacity:1.0; 
stroke:#000000; stroke-width:1.000000; stroke-opacity:1; 
stroke-linecap:round; stroke-linejoin:round;fill-rule:evenodd;"
d="M 158526434.000000,100112662.000000
158522552.000000,100093145.000000
158511496.000000,100076600.000000
158494951.000000,100065544.000000
158475434.000000,100061662.000000
156725434.000000,100061662.000000
156705917.000000,100065544.000000
156689372.000000,100076600.000000
156678316.000000,100093145.000000
156674434.000000,100112662.000000
156674434.000000,101012662.000000
156678316.000000,101032179.000000
156689372.000000,101048724.000000
156705917.000000,101059780.000000
156725434.000000,101063662.000000
158475434.000000,101063662.000000
158494951.000000,101059780.000000
158511496.000000,101048724.000000
158522552.000000,101032179.000000
158526434.000000,101012662.000000
Z" /> 
<path style="fill:#000000; fill-opacity:1.0; 
stroke:#000000; stroke-width:1.000000; stroke-opacity:1; 
stroke-linecap:round; stroke-linejoin:round;fill-rule:evenodd;"
d="M 158526434.000000,98842662.000000
158522552.000000,98823145.000000
158511496.000000,98806600.000000
158494951.000000,98795544.000000
158475434.000000,98791662.000000
156725434.000000,98791662.000000
156705917.000000,98795544.000000
156689372.000000,98806600.000000
156678316.000000,98823145.000000
156674434.000000,98842662.000000
156674434.000000,99742662.000000
156678316.000000,99762179.000000
156689372.000000,99778724.000000
156705917.000000,99789780.000000
156725434.000000,99793662.000000
158475434.000000,99793662.000000
158494951.000000,99789780.000000
158511496.000000,99778724.000000
158522552.000000,99762179.000000
158526434.000000,99742662.000000
Z" /> 
<path style="fill:#000000; fill-opacity:1.0; 
stroke:#000000; stroke-width:1.000000; stroke-opacity:1; 
stroke-linecap:round; stroke-linejoin:round;fill-rule:evenodd;"
d="M 158526434.000000,97572662.000000
158522552.000000,97553145.000000
158511496.000000,97536600.000000
158494951.000000,97525544.000000
158475434.000000,97521662.000000
156725434.000000,97521662.000000
156705917.000000,97525544.000000
156689372.000000,97536600.000000
156678316.000000,97553145.000000
156674434.000000,97572662.000000
156674434.000000,98472662.000000
156678316.000000,98492179.000000
156689372.000000,98508724.000000
156705917.000000,98519780.000000
156725434.000000,98523662.000000
158475434.000000,98523662.000000
158494951.000000,98519780.000000
158511496.000000,98508724.000000
158522552.000000,98492179.000000
158526434.000000,98472662.000000
Z" /> 
<path style="fill:#000000; fill-opacity:1.0; 
stroke:#000000; stroke-width:1.000000; stroke-opacity:1; 
stroke-linecap:round; stroke-linejoin:round;fill-rule:evenodd;"
d="M 158526434.000000,96302662.000000
158522552.000000,96283145.000000
158511496.000000,96266600.000000
158494951.000000,96255544.000000
158475434.000000,96251662.000000
156725434.000000,96251662.000000
156705917.000000,96255544.000000
156689372.000000,96266600.000000
156678316.000000,96283145.000000
156674434.000000,96302662.000000
156674434.000000,97202662.000000
156678316.000000,97222179.000000
156689372.000000,97238724.000000
156705917.000000,97249780.000000
156725434.000000,97253662.000000
158475434.000000,97253662.000000
158494951.000000,97249780.000000
158511496.000000,97238724.000000
158522552.000000,97222179.000000
158526434.000000,97202662.000000
Z" /> 
<path style="fill:#000000; fill-opacity:1.0; 
stroke:#000000; stroke-width:1.000000; stroke-opacity:1; 
stroke-linecap:round; stroke-linejoin:round;fill-rule:evenodd;"
d="M 158526434.000000,95032662.000000
158522552.000000,95013145.000000
158511496.000000,94996600.000000
158494951.000000,94985544.000000
158475434.000000,94981662.000000
156725434.000000,94981662.000000
156705917.000000,94985544.000000
156689372.000000,94996600.000000
156678316.000000,95013145.000000
156674434.000000,95032662.000000
156674434.000000,95932662.000000
156678316.000000,95952179.000000
156689372.000000,95968724.000000
156705917.000000,95979780.000000
156725434.000000,95983662.000000
158475434.000000,95983662.000000
158494951.000000,95979780.000000
158511496.000000,95968724.000000
158522552.000000,95952179.000000
158526434.000000,95932662.000000
Z" /> 
<path style="fill:#000000; fill-opacity:1.0; 
stroke:#000000; stroke-width:1.000000; stroke-opacity:1; 
stroke-linecap:round; stroke-linejoin:round;fill-rule:evenodd;"
d="M 151351434.000000,100182662.000000
151347552.000000,100163145.000000
151336496.000000,100146600.000000
151319951.000000,100135544.000000
151300434.000000,100131662.000000
145300434.000000,100131662.000000
145280917.000000,100135544.000000
145264372.000000,100146600.000000
145253316.000000,100163145.000000
145249434.000000,100182662.000000
145249434.000000,106182662.000000
145253316.000000,106202179.000000
145264372.000000,106218724.000000
145280917.000000,106229780.000000
145300434.000000,106233662.000000
151300434.000000,106233662.000000
151319951.000000,106229780.000000
151336496.000000,106218724.000000
151347552.000000,106202179.000000
151351434.000000,106182662.000000
Z" /> 
</g>
<g >
</g>
<g style="fill:#000000; fill-opacity:1.0; 
stroke:#000000; stroke-width:1.000000; stroke-opacity:1; 
stroke-linecap:round; stroke-linejoin:round;">
<circle cx="141300000.000000" cy="120580000.000000" r="501000.000000" /> 
</g>
<g style="fill:#000000; fill-opacity:1.0; 
stroke:#000000; stroke-width:21200.000000; stroke-opacity:1; 
stroke-linecap:round; stroke-linejoin:round;">
</g>
<g style="fill:#000000; fill-opacity:1.0; 
stroke:#000000; stroke-width:1.000000; stroke-opacity:1; 
stroke-linecap:round; stroke-linejoin:round;">
<circle cx="144300000.000000" cy="120580000.000000" r="501000.000000" /> 
</g>
<g style="fill:#000000; fill-opacity:1.0; 
stroke:#000000; stroke-width:21200.000000; stroke-opacity:1; 
stroke-linecap:round; stroke-linejoin:round;">
</g>
<g >
</g>
<g >
</g>
<g >
</g>
<g >
</g>
<g >
</g>
<g >
</g>
<g >
</g>
<g >
</g>
</g>
<g style="fill:#000000; fill-opacity:1.0; 
stroke:#000000; stroke-width:21200.000000; stroke-opacity:1; 
stroke-linecap:round; stroke-linejoin:round;">
<path style="fill:#000000; fill-opacity:1.0; 
stroke:#000000; stroke-width:21200.000000; stroke-opacity:1; 
stroke-linecap:round; stroke-linejoin:round;fill-rule:evenodd;"
d="M 158655293.000000,111377082.000000
158655807.000000,111378436.000000
158655395.000000,111430890.000000
158693975.000000,111600019.000000
158763253.000000,111741123.000000
158763119.000000,111743118.000000
158761324.000000,111743999.000000
158759861.000000,111743208.000000
158749837.000000,111729906.000000
158694022.000000,111688398.000000
158624925.000000,111683676.000000
158564244.000000,111717061.000000
158531154.000000,111778119.000000
158528423.000000,111803910.000000
158527246.000000,111805527.000000
158525257.000000,111805316.000000
158524434.000000,111803699.000000
158524434.000000,111542861.000000
158520667.000000,111523924.000000
158510054.000000,111508042.000000
158499059.000000,111500694.000000
158498174.000000,111498900.000000
158499286.000000,111497237.000000
158500560.000000,111497069.000000
158504747.000000,111497902.000000
158574027.000000,111491703.000000
158628700.000000,111449233.000000
158651905.000000,111377802.000000
158653391.000000,111376464.000000
Z" /> 
<path style="fill:#000000; fill-opacity:1.0; 
stroke:#000000; stroke-width:21200.000000; stroke-opacity:1; 
stroke-linecap:round; stroke-linejoin:round;fill-rule:evenodd;"
d="M 158528353.000000,110894690.000000
158548030.000000,110961705.000000
158600373.000000,111007060.000000
158668926.000000,111016917.000000
158732102.000000,110988065.000000
158749205.000000,110969881.000000
158764605.000000,110949738.000000
158766452.000000,110948970.000000
158768040.000000,110950184.000000
158767975.000000,110951863.000000
158697989.000000,111088923.000000
158656757.000000,111257425.000000
158656122.000000,111338297.000000
158655108.000000,111340021.000000
158653108.000000,111340005.000000
158652201.000000,111338838.000000
158632794.000000,111271882.000000
158580634.000000,111226365.000000
158504856.000000,111217400.000000
158500559.000000,111218255.000000
158498665.000000,111217612.000000
158498275.000000,111215650.000000
158499058.000000,111214630.000000
158510054.000000,111207282.000000
158520667.000000,111191400.000000
158524434.000000,111172463.000000
158524434.000000,110895253.000000
158525434.000000,110893521.000000
158527434.000000,110893521.000000
Z" /> 
<path style="fill:#000000; fill-opacity:1.0; 
stroke:#000000; stroke-width:21200.000000; stroke-opacity:1; 
stroke-linecap:round; stroke-linejoin:round;fill-rule:evenodd;"
d="M 158768041.000000,108950183.000000
158767976.000000,108951862.000000
158697989.000000,109088923.000000
158656757.000000,109257425.000000
158655395.000000,109430890.000000
158693975.000000,109600019.000000
158763253.000000,109741123.000000
158763119.000000,109743118.000000
158761324.000000,109743999.000000
158759861.000000,109743208.000000
158749837.000000,109729906.000000
158694022.000000,109688398.000000
158624925.000000,109683676.000000
158564244.000000,109717061.000000
158531154.000000,109778119.000000
158528423.000000,109803910.000000
158527246.000000,109805527.000000
158525257.000000,109805316.000000
158524434.000000,109803699.000000
158524434.000000,109002861.000000
158521815.000000,108989692.000000
158522458.000000,108987798.000000
158524420.000000,108987408.000000
158525440.000000,108988191.000000
158532326.000000,108998497.000000
158585702.000000,109043104.000000
158654418.000000,109051735.000000
158716975.000000,109021806.000000
158746316.000000,108982202.000000
158756437.000000,108960498.000000
158756661.000000,108960128.000000
158764606.000000,108949737.000000
158766453.000000,108948969.000000
Z" /> 
<path style="fill:#000000; fill-opacity:1.0; 
stroke:#000000; stroke-width:21200.000000; stroke-opacity:1; 
stroke-linecap:round; stroke-linejoin:round;fill-rule:evenodd;"
d="M 158528353.000000,106894690.000000
158548030.000000,106961705.000000
158600373.000000,107007060.000000
158668926.000000,107016917.000000
158732102.000000,106988065.000000
158749205.000000,106969881.000000
158764605.000000,106949738.000000
158766452.000000,106948970.000000
158768040.000000,106950184.000000
158767975.000000,106951863.000000
158697989.000000,107088923.000000
158656757.000000,107257425.000000
158655395.000000,107430890.000000
158670064.000000,107495196.000000
158669474.000000,107497107.000000
158667524.000000,107497552.000000
158666357.000000,107496597.000000
158633400.000000,107436060.000000
158572656.000000,107402791.000000
158518919.000000,107406566.000000
158517121.000000,107405690.000000
158516840.000000,107405017.000000
158503781.000000,107407614.000000
158503533.000000,107407647.000000
158503309.000000,107407663.000000
158503006.000000,107407769.000000
158500558.000000,107408256.000000
158498664.000000,107407613.000000
158498274.000000,107405651.000000
158499057.000000,107404631.000000
158510054.000000,107397282.000000
158520667.000000,107381400.000000
158524434.000000,107362463.000000
158524434.000000,106895253.000000
158525434.000000,106893521.000000
158527434.000000,106893521.000000
Z" /> 
<path style="fill:#000000; fill-opacity:1.0; 
stroke:#000000; stroke-width:21200.000000; stroke-opacity:1; 
stroke-linecap:round; stroke-linejoin:round;fill-rule:evenodd;"
d="M 158694443.000000,105100546.000000
158694748.000000,105102168.000000
158656757.000000,105257425.000000
158655395.000000,105430890.000000
158693975.000000,105600019.000000
158763253.000000,105741123.000000
158763119.000000,105743118.000000
158761324.000000,105743999.000000
158759861.000000,105743208.000000
158749837.000000,105729906.000000
158694022.000000,105688398.000000
158624925.000000,105683676.000000
158564244.000000,105717061.000000
158531154.000000,105778119.000000
158528423.000000,105803910.000000
158527246.000000,105805527.000000
158525257.000000,105805316.000000
158524434.000000,105803699.000000
158524434.000000,105192861.000000
158520667.000000,105173925.000000
158511234.000000,105159808.000000
158511103.000000,105157813.000000
158512766.000000,105156701.000000
158513495.000000,105156788.000000
158575283.000000,105176135.000000
158642068.000000,105157814.000000
158689075.000000,105104959.000000
158690992.000000,105100848.000000
158692631.000000,105099701.000000
Z" /> 
<path style="fill:#000000; fill-opacity:1.0; 
stroke:#000000; stroke-width:21200.000000; stroke-opacity:1; 
stroke-linecap:round; stroke-linejoin:round;fill-rule:evenodd;"
d="M 158528353.000000,102894690.000000
158548030.000000,102961705.000000
158600373.000000,103007060.000000
158668926.000000,103016917.000000
158732102.000000,102988065.000000
158749205.000000,102969881.000000
158764605.000000,102949738.000000
158766452.000000,102948970.000000
158768040.000000,102950184.000000
158767975.000000,102951863.000000
158697989.000000,103088923.000000
158656757.000000,103257425.000000
158655395.000000,103430890.000000
158693975.000000,103600019.000000
158705984.000000,103624479.000000
158705850.000000,103626474.000000
158704055.000000,103627355.000000
158702679.000000,103626671.000000
158660168.000000,103577705.000000
158593704.000000,103558257.000000
158525230.000000,103579065.000000
158516093.000000,103585171.000000
158514098.000000,103585302.000000
158512986.000000,103583639.000000
158513319.000000,103582397.000000
158520667.000000,103571400.000000
158524434.000000,103552463.000000
158524434.000000,102895253.000000
158525434.000000,102893521.000000
158527434.000000,102893521.000000
Z" /> 
<path style="fill:#000000; fill-opacity:1.0; 
stroke:#000000; stroke-width:21200.000000; stroke-opacity:1; 
stroke-linecap:round; stroke-linejoin:round;fill-rule:evenodd;"
d="M 158657313.000000,101252196.000000
158657634.000000,101253841.000000
158656757.000000,101257425.000000
158655395.000000,101430890.000000
158693975.000000,101600019.000000
158763253.000000,101741123.000000
158763119.000000,101743118.000000
158761324.000000,101743999.000000
158759861.000000,101743208.000000
158749837.000000,101729906.000000
158694022.000000,101688398.000000
158624925.000000,101683676.000000
158564244.000000,101717061.000000
158531154.000000,101778119.000000
158528423.000000,101803910.000000
158527246.000000,101805527.000000
158525257.000000,101805316.000000
158524434.000000,101803699.000000
158524434.000000,101382861.000000
158520667.000000,101363924.000000
158510054.000000,101348042.000000
158499058.000000,101340694.000000
158498173.000000,101338900.000000
158499284.000000,101337237.000000
158500559.000000,101337069.000000
158512662.000000,101339476.000000
158581941.000000,101333276.000000
158636706.000000,101290734.000000
158653867.000000,101252546.000000
158655489.000000,101251376.000000
Z" /> 
<path style="fill:#000000; fill-opacity:1.0; 
stroke:#000000; stroke-width:21200.000000; stroke-opacity:1; 
stroke-linecap:round; stroke-linejoin:round;fill-rule:evenodd;"
d="M 158528353.000000,100894690.000000
158548030.000000,100961705.000000
158600373.000000,101007060.000000
158668926.000000,101016917.000000
158732102.000000,100988065.000000
158749205.000000,100969881.000000
158764605.000000,100949738.000000
158766452.000000,100948970.000000
158768040.000000,100950184.000000
158767975.000000,100951863.000000
158697989.000000,101088923.000000
158671206.000000,101198376.000000
158669823.000000,101199821.000000
158667880.000000,101199346.000000
158667267.000000,101198032.000000
158662785.000000,101129900.000000
158621599.000000,101074221.000000
158556847.000000,101049647.000000
158519400.000000,101057569.000000
158517498.000000,101056949.000000
158517024.000000,101056002.000000
158516828.000000,101055019.000000
158500559.000000,101058255.000000
158498665.000000,101057612.000000
158498275.000000,101055650.000000
158499058.000000,101054630.000000
158510054.000000,101047282.000000
158520667.000000,101031400.000000
158524434.000000,101012463.000000
158524434.000000,100895253.000000
158525434.000000,100893521.000000
158527434.000000,100893521.000000
Z" /> 
<path style="fill:#000000; fill-opacity:1.0; 
stroke:#000000; stroke-width:21200.000000; stroke-opacity:1; 
stroke-linecap:round; stroke-linejoin:round;fill-rule:evenodd;"
d="M 158528353.000000,98894690.000000
158548030.000000,98961705.000000
158600373.000000,99007060.000000
158668926.000000,99016917.000000
158732102.000000,98988065.000000
158749205.000000,98969881.000000
158764605.000000,98949738.000000
158766452.000000,98948970.000000
158768040.000000,98950184.000000
158767975.000000,98951863.000000
158697989.000000,99088923.000000
158656757.000000,99257425.000000
158655395.000000,99430890.000000
158693975.000000,99600019.000000
158763253.000000,99741123.000000
158763119.000000,99743118.000000
158761324.000000,99743999.000000
158759861.000000,99743208.000000
158746763.000000,99725826.000000
158745519.000000,99725979.000000
158744790.000000,99725449.000000
158708863.000000,99684068.000000
158642389.000000,99664617.000000
158575957.000000,99684193.000000
158530533.000000,99736716.000000
158528206.000000,99743932.000000
158526723.000000,99745273.000000
158524820.000000,99744660.000000
158524342.000000,99742926.000000
158524434.000000,99742465.000000
158524434.000000,98895253.000000
158525434.000000,98893521.000000
158527434.000000,98893521.000000
Z" /> 
</g> 
</svg>
