<?xml version="1.0" standalone="no"?>
 <!DOCTYPE svg PUBLIC "-//W3C//DTD SVG 1.1//EN" 
 "http://www.w3.org/Graphics/SVG/1.1/DTD/svg11.dtd"> 
<svg
  xmlns:svg="http://www.w3.org/2000/svg"
  xmlns="http://www.w3.org/2000/svg"
  xmlns:xlink="http://www.w3.org/1999/xlink"
  version="1.1"
  width="29.700220cm" height="21.000720cm" viewBox="0 0 297002200 210007200">
<title>SVG Picture created as xbee-B_Mask.svg date 2021/02/24 12:35:42 </title>
  <desc>Picture generated by PCBNEW </desc>
<g style="fill:#000000; fill-opacity:1.000000;stroke:#000000; stroke-opacity:1.000000;
stroke-linecap:round; stroke-linejoin:round;"
 transform="translate(0 0) scale(1 1)">
</g>
<g style="fill:#000000; fill-opacity:0.0; 
stroke:#000000; stroke-width:0.000000; stroke-opacity:1; 
stroke-linecap:round; stroke-linejoin:round;">
</g>
<g style="fill:#000000; fill-opacity:0.0; 
stroke:#000000; stroke-width:150000.000000; stroke-opacity:1; 
stroke-linecap:round; stroke-linejoin:round;">
<path d="M143250000 90250000
L153500000 90250000
" />
<path d="M135750000 96750000
L143250000 90250000
" />
<path d="M135750000 96750000
L135850000 122250000
" />
<path d="M161250000 122250000
L135850000 122250000
" />
<path d="M161201100 96750000
L161250000 122250000
" />
<path d="M153500000 90250000
L161201100 96750000
" />
<path d="M143250000 90250000
L153500000 90250000
" />
<path d="M135750000 96750000
L143250000 90250000
" />
<path d="M135750000 96750000
L135850000 122250000
" />
<path d="M161250000 122250000
L135850000 122250000
" />
<path d="M161201100 96750000
L161250000 122250000
" />
<path d="M153500000 90250000
L161201100 96750000
" />
<g >
</g>
<g >
</g>
<g >
</g>
<g style="fill:#000000; fill-opacity:0.0; 
stroke:#000000; stroke-width:150000.000000; stroke-opacity:1; 
stroke-linecap:round; stroke-linejoin:round;">
</g>
<g style="fill:#000000; fill-opacity:1.0; 
stroke:#000000; stroke-width:1.000000; stroke-opacity:1; 
stroke-linecap:round; stroke-linejoin:round;">
<circle cx="137400000.000000" cy="99350000.000000" r="751000.000000" /> 
</g>
<g style="fill:#000000; fill-opacity:1.0; 
stroke:#000000; stroke-width:21200.000000; stroke-opacity:1; 
stroke-linecap:round; stroke-linejoin:round;">
</g>
<g style="fill:#000000; fill-opacity:1.0; 
stroke:#000000; stroke-width:1.000000; stroke-opacity:1; 
stroke-linecap:round; stroke-linejoin:round;">
<circle cx="137400000.000000" cy="101350000.000000" r="751000.000000" /> 
</g>
<g style="fill:#000000; fill-opacity:1.0; 
stroke:#000000; stroke-width:21200.000000; stroke-opacity:1; 
stroke-linecap:round; stroke-linejoin:round;">
</g>
<g style="fill:#000000; fill-opacity:1.0; 
stroke:#000000; stroke-width:1.000000; stroke-opacity:1; 
stroke-linecap:round; stroke-linejoin:round;">
<circle cx="137400000.000000" cy="103350000.000000" r="751000.000000" /> 
</g>
<g style="fill:#000000; fill-opacity:1.0; 
stroke:#000000; stroke-width:21200.000000; stroke-opacity:1; 
stroke-linecap:round; stroke-linejoin:round;">
</g>
<g style="fill:#000000; fill-opacity:1.0; 
stroke:#000000; stroke-width:1.000000; stroke-opacity:1; 
stroke-linecap:round; stroke-linejoin:round;">
<circle cx="137400000.000000" cy="105350000.000000" r="751000.000000" /> 
</g>
<g style="fill:#000000; fill-opacity:1.0; 
stroke:#000000; stroke-width:21200.000000; stroke-opacity:1; 
stroke-linecap:round; stroke-linejoin:round;">
</g>
<g style="fill:#000000; fill-opacity:1.0; 
stroke:#000000; stroke-width:1.000000; stroke-opacity:1; 
stroke-linecap:round; stroke-linejoin:round;">
<circle cx="137400000.000000" cy="107350000.000000" r="751000.000000" /> 
</g>
<g style="fill:#000000; fill-opacity:1.0; 
stroke:#000000; stroke-width:21200.000000; stroke-opacity:1; 
stroke-linecap:round; stroke-linejoin:round;">
</g>
<g style="fill:#000000; fill-opacity:1.0; 
stroke:#000000; stroke-width:1.000000; stroke-opacity:1; 
stroke-linecap:round; stroke-linejoin:round;">
<circle cx="137400000.000000" cy="109350000.000000" r="751000.000000" /> 
</g>
<g style="fill:#000000; fill-opacity:1.0; 
stroke:#000000; stroke-width:21200.000000; stroke-opacity:1; 
stroke-linecap:round; stroke-linejoin:round;">
</g>
<g style="fill:#000000; fill-opacity:1.0; 
stroke:#000000; stroke-width:1.000000; stroke-opacity:1; 
stroke-linecap:round; stroke-linejoin:round;">
<circle cx="137400000.000000" cy="111350000.000000" r="751000.000000" /> 
</g>
<g style="fill:#000000; fill-opacity:1.0; 
stroke:#000000; stroke-width:21200.000000; stroke-opacity:1; 
stroke-linecap:round; stroke-linejoin:round;">
</g>
<g style="fill:#000000; fill-opacity:1.0; 
stroke:#000000; stroke-width:1.000000; stroke-opacity:1; 
stroke-linecap:round; stroke-linejoin:round;">
<circle cx="137400000.000000" cy="113350000.000000" r="751000.000000" /> 
</g>
<g style="fill:#000000; fill-opacity:1.0; 
stroke:#000000; stroke-width:21200.000000; stroke-opacity:1; 
stroke-linecap:round; stroke-linejoin:round;">
</g>
<g style="fill:#000000; fill-opacity:1.0; 
stroke:#000000; stroke-width:1.000000; stroke-opacity:1; 
stroke-linecap:round; stroke-linejoin:round;">
<circle cx="137400000.000000" cy="115350000.000000" r="751000.000000" /> 
</g>
<g style="fill:#000000; fill-opacity:1.0; 
stroke:#000000; stroke-width:21200.000000; stroke-opacity:1; 
stroke-linecap:round; stroke-linejoin:round;">
</g>
<g style="fill:#000000; fill-opacity:1.0; 
stroke:#000000; stroke-width:1.000000; stroke-opacity:1; 
stroke-linecap:round; stroke-linejoin:round;">
<circle cx="137400000.000000" cy="117350000.000000" r="751000.000000" /> 
</g>
<g style="fill:#000000; fill-opacity:1.0; 
stroke:#000000; stroke-width:21200.000000; stroke-opacity:1; 
stroke-linecap:round; stroke-linejoin:round;">
</g>
<g style="fill:#000000; fill-opacity:1.0; 
stroke:#000000; stroke-width:1.000000; stroke-opacity:1; 
stroke-linecap:round; stroke-linejoin:round;">
<circle cx="159400000.000000" cy="117350000.000000" r="751000.000000" /> 
</g>
<g style="fill:#000000; fill-opacity:1.0; 
stroke:#000000; stroke-width:21200.000000; stroke-opacity:1; 
stroke-linecap:round; stroke-linejoin:round;">
</g>
<g style="fill:#000000; fill-opacity:1.0; 
stroke:#000000; stroke-width:1.000000; stroke-opacity:1; 
stroke-linecap:round; stroke-linejoin:round;">
<circle cx="159400000.000000" cy="115350000.000000" r="751000.000000" /> 
</g>
<g style="fill:#000000; fill-opacity:1.0; 
stroke:#000000; stroke-width:21200.000000; stroke-opacity:1; 
stroke-linecap:round; stroke-linejoin:round;">
</g>
<g style="fill:#000000; fill-opacity:1.0; 
stroke:#000000; stroke-width:1.000000; stroke-opacity:1; 
stroke-linecap:round; stroke-linejoin:round;">
<circle cx="159400000.000000" cy="113350000.000000" r="751000.000000" /> 
</g>
<g style="fill:#000000; fill-opacity:1.0; 
stroke:#000000; stroke-width:21200.000000; stroke-opacity:1; 
stroke-linecap:round; stroke-linejoin:round;">
</g>
<g style="fill:#000000; fill-opacity:1.0; 
stroke:#000000; stroke-width:1.000000; stroke-opacity:1; 
stroke-linecap:round; stroke-linejoin:round;">
<circle cx="159400000.000000" cy="111350000.000000" r="751000.000000" /> 
</g>
<g style="fill:#000000; fill-opacity:1.0; 
stroke:#000000; stroke-width:21200.000000; stroke-opacity:1; 
stroke-linecap:round; stroke-linejoin:round;">
</g>
<g style="fill:#000000; fill-opacity:1.0; 
stroke:#000000; stroke-width:1.000000; stroke-opacity:1; 
stroke-linecap:round; stroke-linejoin:round;">
<circle cx="159400000.000000" cy="109350000.000000" r="751000.000000" /> 
</g>
<g style="fill:#000000; fill-opacity:1.0; 
stroke:#000000; stroke-width:21200.000000; stroke-opacity:1; 
stroke-linecap:round; stroke-linejoin:round;">
</g>
<g style="fill:#000000; fill-opacity:1.0; 
stroke:#000000; stroke-width:1.000000; stroke-opacity:1; 
stroke-linecap:round; stroke-linejoin:round;">
<circle cx="159400000.000000" cy="107350000.000000" r="751000.000000" /> 
</g>
<g style="fill:#000000; fill-opacity:1.0; 
stroke:#000000; stroke-width:21200.000000; stroke-opacity:1; 
stroke-linecap:round; stroke-linejoin:round;">
</g>
<g style="fill:#000000; fill-opacity:1.0; 
stroke:#000000; stroke-width:1.000000; stroke-opacity:1; 
stroke-linecap:round; stroke-linejoin:round;">
<circle cx="159400000.000000" cy="105350000.000000" r="751000.000000" /> 
</g>
<g style="fill:#000000; fill-opacity:1.0; 
stroke:#000000; stroke-width:21200.000000; stroke-opacity:1; 
stroke-linecap:round; stroke-linejoin:round;">
</g>
<g style="fill:#000000; fill-opacity:1.0; 
stroke:#000000; stroke-width:1.000000; stroke-opacity:1; 
stroke-linecap:round; stroke-linejoin:round;">
<circle cx="159400000.000000" cy="103350000.000000" r="751000.000000" /> 
</g>
<g style="fill:#000000; fill-opacity:1.0; 
stroke:#000000; stroke-width:21200.000000; stroke-opacity:1; 
stroke-linecap:round; stroke-linejoin:round;">
</g>
<g style="fill:#000000; fill-opacity:1.0; 
stroke:#000000; stroke-width:1.000000; stroke-opacity:1; 
stroke-linecap:round; stroke-linejoin:round;">
<circle cx="159400000.000000" cy="101350000.000000" r="751000.000000" /> 
</g>
<g style="fill:#000000; fill-opacity:1.0; 
stroke:#000000; stroke-width:21200.000000; stroke-opacity:1; 
stroke-linecap:round; stroke-linejoin:round;">
</g>
<g style="fill:#000000; fill-opacity:1.0; 
stroke:#000000; stroke-width:1.000000; stroke-opacity:1; 
stroke-linecap:round; stroke-linejoin:round;">
<circle cx="159400000.000000" cy="99350000.000000" r="751000.000000" /> 
</g>
<g style="fill:#000000; fill-opacity:1.0; 
stroke:#000000; stroke-width:21200.000000; stroke-opacity:1; 
stroke-linecap:round; stroke-linejoin:round;">
</g>
<g >
</g>
<g >
</g>
<g style="fill:#000000; fill-opacity:1.0; 
stroke:#000000; stroke-width:21200.000000; stroke-opacity:1; 
stroke-linecap:round; stroke-linejoin:round;">
</g>
<g style="fill:#000000; fill-opacity:1.0; 
stroke:#000000; stroke-width:1.000000; stroke-opacity:1; 
stroke-linecap:round; stroke-linejoin:round;">
<path style="fill:#000000; fill-opacity:1.0; 
stroke:#000000; stroke-width:1.000000; stroke-opacity:1; 
stroke-linecap:round; stroke-linejoin:round;fill-rule:evenodd;"
d="M 139701000.000000,121280000.000000
139697118.000000,121260483.000000
139686062.000000,121243938.000000
139669517.000000,121232882.000000
139650000.000000,121229000.000000
138650000.000000,121229000.000000
138630483.000000,121232882.000000
138613938.000000,121243938.000000
138602882.000000,121260483.000000
138599000.000000,121280000.000000
138599000.000000,122080000.000000
138602882.000000,122099517.000000
138613938.000000,122116062.000000
138630483.000000,122127118.000000
138650000.000000,122131000.000000
139650000.000000,122131000.000000
139669517.000000,122127118.000000
139686062.000000,122116062.000000
139697118.000000,122099517.000000
139701000.000000,122080000.000000
Z" /> 
<path style="fill:#000000; fill-opacity:1.0; 
stroke:#000000; stroke-width:1.000000; stroke-opacity:1; 
stroke-linecap:round; stroke-linejoin:round;fill-rule:evenodd;"
d="M 147001000.000000,119070000.000000
146997118.000000,119050483.000000
146986062.000000,119033938.000000
146969517.000000,119022882.000000
146950000.000000,119019000.000000
145950000.000000,119019000.000000
145930483.000000,119022882.000000
145913938.000000,119033938.000000
145902882.000000,119050483.000000
145899000.000000,119070000.000000
145899000.000000,119870000.000000
145902882.000000,119889517.000000
145913938.000000,119906062.000000
145930483.000000,119917118.000000
145950000.000000,119921000.000000
146950000.000000,119921000.000000
146969517.000000,119917118.000000
146986062.000000,119906062.000000
146997118.000000,119889517.000000
147001000.000000,119870000.000000
Z" /> 
<path style="fill:#000000; fill-opacity:1.0; 
stroke:#000000; stroke-width:1.000000; stroke-opacity:1; 
stroke-linecap:round; stroke-linejoin:round;fill-rule:evenodd;"
d="M 139701000.000000,119070000.000000
139697118.000000,119050483.000000
139686062.000000,119033938.000000
139669517.000000,119022882.000000
139650000.000000,119019000.000000
138650000.000000,119019000.000000
138630483.000000,119022882.000000
138613938.000000,119033938.000000
138602882.000000,119050483.000000
138599000.000000,119070000.000000
138599000.000000,119870000.000000
138602882.000000,119889517.000000
138613938.000000,119906062.000000
138630483.000000,119917118.000000
138650000.000000,119921000.000000
139650000.000000,119921000.000000
139669517.000000,119917118.000000
139686062.000000,119906062.000000
139697118.000000,119889517.000000
139701000.000000,119870000.000000
Z" /> 
<circle cx="141300000.000000" cy="120580000.000000" r="501000.000000" /> 
</g>
<g style="fill:#000000; fill-opacity:1.0; 
stroke:#000000; stroke-width:21200.000000; stroke-opacity:1; 
stroke-linecap:round; stroke-linejoin:round;">
</g>
<g style="fill:#000000; fill-opacity:1.0; 
stroke:#000000; stroke-width:1.000000; stroke-opacity:1; 
stroke-linecap:round; stroke-linejoin:round;">
<circle cx="144300000.000000" cy="120580000.000000" r="501000.000000" /> 
</g>
<g style="fill:#000000; fill-opacity:1.0; 
stroke:#000000; stroke-width:21200.000000; stroke-opacity:1; 
stroke-linecap:round; stroke-linejoin:round;">
</g>
<g style="fill:#000000; fill-opacity:1.0; 
stroke:#000000; stroke-width:1.000000; stroke-opacity:1; 
stroke-linecap:round; stroke-linejoin:round;">
<path style="fill:#000000; fill-opacity:1.0; 
stroke:#000000; stroke-width:1.000000; stroke-opacity:1; 
stroke-linecap:round; stroke-linejoin:round;fill-rule:evenodd;"
d="M 147001000.000000,121280000.000000
146997118.000000,121260483.000000
146986062.000000,121243938.000000
146969517.000000,121232882.000000
146950000.000000,121229000.000000
145950000.000000,121229000.000000
145930483.000000,121232882.000000
145913938.000000,121243938.000000
145902882.000000,121260483.000000
145899000.000000,121280000.000000
145899000.000000,122080000.000000
145902882.000000,122099517.000000
145913938.000000,122116062.000000
145930483.000000,122127118.000000
145950000.000000,122131000.000000
146950000.000000,122131000.000000
146969517.000000,122127118.000000
146986062.000000,122116062.000000
146997118.000000,122099517.000000
147001000.000000,122080000.000000
Z" /> 
<path style="fill:#000000; fill-opacity:1.0; 
stroke:#000000; stroke-width:1.000000; stroke-opacity:1; 
stroke-linecap:round; stroke-linejoin:round;fill-rule:evenodd;"
d="M 145451000.000000,118070000.000000
145447118.000000,118050483.000000
145436062.000000,118033938.000000
145419517.000000,118022882.000000
145400000.000000,118019000.000000
144700000.000000,118019000.000000
144680483.000000,118022882.000000
144663938.000000,118033938.000000
144652882.000000,118050483.000000
144649000.000000,118070000.000000
144649000.000000,119570000.000000
144652882.000000,119589517.000000
144663938.000000,119606062.000000
144680483.000000,119617118.000000
144700000.000000,119621000.000000
145400000.000000,119621000.000000
145419517.000000,119617118.000000
145436062.000000,119606062.000000
145447118.000000,119589517.000000
145451000.000000,119570000.000000
Z" /> 
<path style="fill:#000000; fill-opacity:1.0; 
stroke:#000000; stroke-width:1.000000; stroke-opacity:1; 
stroke-linecap:round; stroke-linejoin:round;fill-rule:evenodd;"
d="M 142451000.000000,118070000.000000
142447118.000000,118050483.000000
142436062.000000,118033938.000000
142419517.000000,118022882.000000
142400000.000000,118019000.000000
141700000.000000,118019000.000000
141680483.000000,118022882.000000
141663938.000000,118033938.000000
141652882.000000,118050483.000000
141649000.000000,118070000.000000
141649000.000000,119570000.000000
141652882.000000,119589517.000000
141663938.000000,119606062.000000
141680483.000000,119617118.000000
141700000.000000,119621000.000000
142400000.000000,119621000.000000
142419517.000000,119617118.000000
142436062.000000,119606062.000000
142447118.000000,119589517.000000
142451000.000000,119570000.000000
Z" /> 
<path style="fill:#000000; fill-opacity:1.0; 
stroke:#000000; stroke-width:1.000000; stroke-opacity:1; 
stroke-linecap:round; stroke-linejoin:round;fill-rule:evenodd;"
d="M 140951000.000000,118070000.000000
140947118.000000,118050483.000000
140936062.000000,118033938.000000
140919517.000000,118022882.000000
140900000.000000,118019000.000000
140200000.000000,118019000.000000
140180483.000000,118022882.000000
140163938.000000,118033938.000000
140152882.000000,118050483.000000
140149000.000000,118070000.000000
140149000.000000,119570000.000000
140152882.000000,119589517.000000
140163938.000000,119606062.000000
140180483.000000,119617118.000000
140200000.000000,119621000.000000
140900000.000000,119621000.000000
140919517.000000,119617118.000000
140936062.000000,119606062.000000
140947118.000000,119589517.000000
140951000.000000,119570000.000000
Z" /> 
</g>
<g >
</g>
<g style="fill:#000000; fill-opacity:1.0; 
stroke:#000000; stroke-width:1.000000; stroke-opacity:1; 
stroke-linecap:round; stroke-linejoin:round;">
<path style="fill:#000000; fill-opacity:1.0; 
stroke:#000000; stroke-width:1.000000; stroke-opacity:1; 
stroke-linecap:round; stroke-linejoin:round;fill-rule:evenodd;"
d="M 144514667.000000,102351000.000000
144614675.000000,102331107.000000
144699457.000000,102274457.000000
144756107.000000,102189675.000000
144776000.000000,102089667.000000
144776000.000000,100260333.000000
144756107.000000,100160325.000000
144699457.000000,100075543.000000
144614675.000000,100018893.000000
144514667.000000,99999000.000000
142585333.000000,99999000.000000
142485325.000000,100018893.000000
142400543.000000,100075543.000000
142343893.000000,100160325.000000
142324000.000000,100260333.000000
142324000.000000,102089667.000000
142343893.000000,102189675.000000
142400543.000000,102274457.000000
142485325.000000,102331107.000000
142585333.000000,102351000.000000
Z" /> 
<path style="fill:#000000; fill-opacity:1.0; 
stroke:#000000; stroke-width:1.000000; stroke-opacity:1; 
stroke-linecap:round; stroke-linejoin:round;fill-rule:evenodd;"
d="M 144514667.000000,97251000.000000
144614675.000000,97231107.000000
144699457.000000,97174457.000000
144756107.000000,97089675.000000
144776000.000000,96989667.000000
144776000.000000,95160333.000000
144756107.000000,95060325.000000
144699457.000000,94975543.000000
144614675.000000,94918893.000000
144514667.000000,94899000.000000
142585333.000000,94899000.000000
142485325.000000,94918893.000000
142400543.000000,94975543.000000
142343893.000000,95060325.000000
142324000.000000,95160333.000000
142324000.000000,96989667.000000
142343893.000000,97089675.000000
142400543.000000,97174457.000000
142485325.000000,97231107.000000
142585333.000000,97251000.000000
Z" /> 
</g>
<g >
</g>
<g style="fill:#000000; fill-opacity:1.0; 
stroke:#000000; stroke-width:1.000000; stroke-opacity:1; 
stroke-linecap:round; stroke-linejoin:round;">
<path style="fill:#000000; fill-opacity:1.0; 
stroke:#000000; stroke-width:1.000000; stroke-opacity:1; 
stroke-linecap:round; stroke-linejoin:round;fill-rule:evenodd;"
d="M 144100000.000000,106149000.000000
144080483.000000,106152882.000000
144063938.000000,106163938.000000
144052882.000000,106180483.000000
144049000.000000,106200000.000000
144049000.000000,107700000.000000
144052882.000000,107719517.000000
144063938.000000,107736062.000000
144080483.000000,107747118.000000
144100000.000000,107751000.000000
145400000.000000,107751000.000000
145419517.000000,107747118.000000
145436062.000000,107736062.000000
145447118.000000,107719517.000000
145451000.000000,107700000.000000
145451000.000000,106200000.000000
145447118.000000,106180483.000000
145436062.000000,106163938.000000
145419517.000000,106152882.000000
145400000.000000,106149000.000000
Z" /> 
<path style="fill:#000000; fill-opacity:1.0; 
stroke:#000000; stroke-width:1.000000; stroke-opacity:1; 
stroke-linecap:round; stroke-linejoin:round;fill-rule:evenodd;"
d="M 144100000.000000,108849000.000000
144080483.000000,108852882.000000
144063938.000000,108863938.000000
144052882.000000,108880483.000000
144049000.000000,108900000.000000
144049000.000000,110400000.000000
144052882.000000,110419517.000000
144063938.000000,110436062.000000
144080483.000000,110447118.000000
144100000.000000,110451000.000000
145400000.000000,110451000.000000
145419517.000000,110447118.000000
145436062.000000,110436062.000000
145447118.000000,110419517.000000
145451000.000000,110400000.000000
145451000.000000,108900000.000000
145447118.000000,108880483.000000
145436062.000000,108863938.000000
145419517.000000,108852882.000000
145400000.000000,108849000.000000
Z" /> 
</g>
<g >
</g>
<g style="fill:#000000; fill-opacity:1.0; 
stroke:#000000; stroke-width:1.000000; stroke-opacity:1; 
stroke-linecap:round; stroke-linejoin:round;">
<path style="fill:#000000; fill-opacity:1.0; 
stroke:#000000; stroke-width:1.000000; stroke-opacity:1; 
stroke-linecap:round; stroke-linejoin:round;fill-rule:evenodd;"
d="M 142900000.000000,110451000.000000
142919517.000000,110447118.000000
142936062.000000,110436062.000000
142947118.000000,110419517.000000
142951000.000000,110400000.000000
142951000.000000,108900000.000000
142947118.000000,108880483.000000
142936062.000000,108863938.000000
142919517.000000,108852882.000000
142900000.000000,108849000.000000
141600000.000000,108849000.000000
141580483.000000,108852882.000000
141563938.000000,108863938.000000
141552882.000000,108880483.000000
141549000.000000,108900000.000000
141549000.000000,110400000.000000
141552882.000000,110419517.000000
141563938.000000,110436062.000000
141580483.000000,110447118.000000
141600000.000000,110451000.000000
Z" /> 
<path style="fill:#000000; fill-opacity:1.0; 
stroke:#000000; stroke-width:1.000000; stroke-opacity:1; 
stroke-linecap:round; stroke-linejoin:round;fill-rule:evenodd;"
d="M 142900000.000000,107751000.000000
142919517.000000,107747118.000000
142936062.000000,107736062.000000
142947118.000000,107719517.000000
142951000.000000,107700000.000000
142951000.000000,106200000.000000
142947118.000000,106180483.000000
142936062.000000,106163938.000000
142919517.000000,106152882.000000
142900000.000000,106149000.000000
141600000.000000,106149000.000000
141580483.000000,106152882.000000
141563938.000000,106163938.000000
141552882.000000,106180483.000000
141549000.000000,106200000.000000
141549000.000000,107700000.000000
141552882.000000,107719517.000000
141563938.000000,107736062.000000
141580483.000000,107747118.000000
141600000.000000,107751000.000000
Z" /> 
</g>
<g >
</g>
<g style="fill:#000000; fill-opacity:1.0; 
stroke:#000000; stroke-width:1.000000; stroke-opacity:1; 
stroke-linecap:round; stroke-linejoin:round;">
<path style="fill:#000000; fill-opacity:1.0; 
stroke:#000000; stroke-width:1.000000; stroke-opacity:1; 
stroke-linecap:round; stroke-linejoin:round;fill-rule:evenodd;"
d="M 146600000.000000,106149000.000000
146580483.000000,106152882.000000
146563938.000000,106163938.000000
146552882.000000,106180483.000000
146549000.000000,106200000.000000
146549000.000000,107700000.000000
146552882.000000,107719517.000000
146563938.000000,107736062.000000
146580483.000000,107747118.000000
146600000.000000,107751000.000000
147900000.000000,107751000.000000
147919517.000000,107747118.000000
147936062.000000,107736062.000000
147947118.000000,107719517.000000
147951000.000000,107700000.000000
147951000.000000,106200000.000000
147947118.000000,106180483.000000
147936062.000000,106163938.000000
147919517.000000,106152882.000000
147900000.000000,106149000.000000
Z" /> 
<path style="fill:#000000; fill-opacity:1.0; 
stroke:#000000; stroke-width:1.000000; stroke-opacity:1; 
stroke-linecap:round; stroke-linejoin:round;fill-rule:evenodd;"
d="M 146600000.000000,108849000.000000
146580483.000000,108852882.000000
146563938.000000,108863938.000000
146552882.000000,108880483.000000
146549000.000000,108900000.000000
146549000.000000,110400000.000000
146552882.000000,110419517.000000
146563938.000000,110436062.000000
146580483.000000,110447118.000000
146600000.000000,110451000.000000
147900000.000000,110451000.000000
147919517.000000,110447118.000000
147936062.000000,110436062.000000
147947118.000000,110419517.000000
147951000.000000,110400000.000000
147951000.000000,108900000.000000
147947118.000000,108880483.000000
147936062.000000,108863938.000000
147919517.000000,108852882.000000
147900000.000000,108849000.000000
Z" /> 
</g>
<g >
</g>
<g >
</g>
<g >
</g>
<g >
</g>
</g> 
</svg>
