<?xml version="1.0" standalone="no"?>
 <!DOCTYPE svg PUBLIC "-//W3C//DTD SVG 1.1//EN" 
 "http://www.w3.org/Graphics/SVG/1.1/DTD/svg11.dtd"> 
<svg
  xmlns:svg="http://www.w3.org/2000/svg"
  xmlns="http://www.w3.org/2000/svg"
  xmlns:xlink="http://www.w3.org/1999/xlink"
  version="1.1"
  width="29.700220cm" height="21.000720cm" viewBox="0 0 297002200 210007200">
<title>SVG Picture created as xbee-F_Paste.svg date 2021/02/24 12:35:42 </title>
  <desc>Picture generated by PCBNEW </desc>
<g style="fill:#000000; fill-opacity:1.000000;stroke:#000000; stroke-opacity:1.000000;
stroke-linecap:round; stroke-linejoin:round;"
 transform="translate(0 0) scale(1 1)">
</g>
<g style="fill:#000000; fill-opacity:0.0; 
stroke:#000000; stroke-width:0.000000; stroke-opacity:1; 
stroke-linecap:round; stroke-linejoin:round;">
</g>
<g style="fill:#000000; fill-opacity:0.0; 
stroke:#000000; stroke-width:150000.000000; stroke-opacity:1; 
stroke-linecap:round; stroke-linejoin:round;">
<path d="M143250000 90250000
L153500000 90250000
" />
<path d="M135750000 96750000
L143250000 90250000
" />
<path d="M135750000 96750000
L135850000 122250000
" />
<path d="M161250000 122250000
L135850000 122250000
" />
<path d="M161201100 96750000
L161250000 122250000
" />
<path d="M153500000 90250000
L161201100 96750000
" />
<g >
</g>
<g style="fill:#000000; fill-opacity:0.0; 
stroke:#000000; stroke-width:1.000000; stroke-opacity:1; 
stroke-linecap:round; stroke-linejoin:round;">
</g>
<g style="fill:#000000; fill-opacity:1.0; 
stroke:#000000; stroke-width:1.000000; stroke-opacity:1; 
stroke-linecap:round; stroke-linejoin:round;">
<path style="fill:#000000; fill-opacity:1.0; 
stroke:#000000; stroke-width:1.000000; stroke-opacity:1; 
stroke-linecap:round; stroke-linejoin:round;fill-rule:evenodd;"
d="M 150449999.000000,119400001.000000
150449999.000000,120399999.000000
148750001.000000,120399999.000000
148750001.000000,119400001.000000
Z" /> 
<path style="fill:#000000; fill-opacity:1.0; 
stroke:#000000; stroke-width:1.000000; stroke-opacity:1; 
stroke-linecap:round; stroke-linejoin:round;fill-rule:evenodd;"
d="M 156749999.000000,119400001.000000
156749999.000000,120399999.000000
155050001.000000,120399999.000000
155050001.000000,119400001.000000
Z" /> 
<path style="fill:#000000; fill-opacity:1.0; 
stroke:#000000; stroke-width:1.000000; stroke-opacity:1; 
stroke-linecap:round; stroke-linejoin:round;fill-rule:evenodd;"
d="M 156749999.000000,115600001.000000
156749999.000000,116599999.000000
155050001.000000,116599999.000000
155050001.000000,115600001.000000
Z" /> 
<path style="fill:#000000; fill-opacity:1.0; 
stroke:#000000; stroke-width:1.000000; stroke-opacity:1; 
stroke-linecap:round; stroke-linejoin:round;fill-rule:evenodd;"
d="M 150449999.000000,115600001.000000
150449999.000000,116599999.000000
148750001.000000,116599999.000000
148750001.000000,115600001.000000
Z" /> 
</g>
<g >
</g>
<g style="fill:#000000; fill-opacity:1.0; 
stroke:#000000; stroke-width:1.000000; stroke-opacity:1; 
stroke-linecap:round; stroke-linejoin:round;">
<path style="fill:#000000; fill-opacity:1.0; 
stroke:#000000; stroke-width:1.000000; stroke-opacity:1; 
stroke-linecap:round; stroke-linejoin:round;fill-rule:evenodd;"
d="M 146619999.000000,118399999.000000
145420001.000000,118399999.000000
145420001.000000,117700001.000000
146619999.000000,117700001.000000
Z" /> 
<path style="fill:#000000; fill-opacity:1.0; 
stroke:#000000; stroke-width:1.000000; stroke-opacity:1; 
stroke-linecap:round; stroke-linejoin:round;fill-rule:evenodd;"
d="M 143825999.000000,118399999.000000
142626001.000000,118399999.000000
142626001.000000,117700001.000000
143825999.000000,117700001.000000
Z" /> 
<path style="fill:#000000; fill-opacity:1.0; 
stroke:#000000; stroke-width:1.000000; stroke-opacity:1; 
stroke-linecap:round; stroke-linejoin:round;fill-rule:evenodd;"
d="M 143825999.000000,116333999.000000
142626001.000000,116333999.000000
142626001.000000,115634001.000000
143825999.000000,115634001.000000
Z" /> 
<path style="fill:#000000; fill-opacity:1.0; 
stroke:#000000; stroke-width:1.000000; stroke-opacity:1; 
stroke-linecap:round; stroke-linejoin:round;fill-rule:evenodd;"
d="M 146619999.000000,116299999.000000
145420001.000000,116299999.000000
145420001.000000,115600001.000000
146619999.000000,115600001.000000
Z" /> 
</g>
<g >
</g>
<g >
</g>
<g style="fill:#000000; fill-opacity:1.0; 
stroke:#000000; stroke-width:1.000000; stroke-opacity:1; 
stroke-linecap:round; stroke-linejoin:round;">
<path style="fill:#000000; fill-opacity:1.0; 
stroke:#000000; stroke-width:1.000000; stroke-opacity:1; 
stroke-linecap:round; stroke-linejoin:round;fill-rule:evenodd;"
d="M 140475433.000000,95032663.000000
140475433.000000,95932661.000000
138725435.000000,95932661.000000
138725435.000000,95032663.000000
Z" /> 
<path style="fill:#000000; fill-opacity:1.0; 
stroke:#000000; stroke-width:1.000000; stroke-opacity:1; 
stroke-linecap:round; stroke-linejoin:round;fill-rule:evenodd;"
d="M 140475433.000000,96302663.000000
140475433.000000,97202661.000000
138725435.000000,97202661.000000
138725435.000000,96302663.000000
Z" /> 
<path style="fill:#000000; fill-opacity:1.0; 
stroke:#000000; stroke-width:1.000000; stroke-opacity:1; 
stroke-linecap:round; stroke-linejoin:round;fill-rule:evenodd;"
d="M 140475433.000000,97572663.000000
140475433.000000,98472661.000000
138725435.000000,98472661.000000
138725435.000000,97572663.000000
Z" /> 
<path style="fill:#000000; fill-opacity:1.0; 
stroke:#000000; stroke-width:1.000000; stroke-opacity:1; 
stroke-linecap:round; stroke-linejoin:round;fill-rule:evenodd;"
d="M 140475433.000000,98842663.000000
140475433.000000,99742661.000000
138725435.000000,99742661.000000
138725435.000000,98842663.000000
Z" /> 
<path style="fill:#000000; fill-opacity:1.0; 
stroke:#000000; stroke-width:1.000000; stroke-opacity:1; 
stroke-linecap:round; stroke-linejoin:round;fill-rule:evenodd;"
d="M 140475433.000000,100112663.000000
140475433.000000,101012661.000000
138725435.000000,101012661.000000
138725435.000000,100112663.000000
Z" /> 
<path style="fill:#000000; fill-opacity:1.0; 
stroke:#000000; stroke-width:1.000000; stroke-opacity:1; 
stroke-linecap:round; stroke-linejoin:round;fill-rule:evenodd;"
d="M 140475433.000000,101382663.000000
140475433.000000,102282661.000000
138725435.000000,102282661.000000
138725435.000000,101382663.000000
Z" /> 
<path style="fill:#000000; fill-opacity:1.0; 
stroke:#000000; stroke-width:1.000000; stroke-opacity:1; 
stroke-linecap:round; stroke-linejoin:round;fill-rule:evenodd;"
d="M 140475433.000000,102652663.000000
140475433.000000,103552661.000000
138725435.000000,103552661.000000
138725435.000000,102652663.000000
Z" /> 
<path style="fill:#000000; fill-opacity:1.0; 
stroke:#000000; stroke-width:1.000000; stroke-opacity:1; 
stroke-linecap:round; stroke-linejoin:round;fill-rule:evenodd;"
d="M 140475433.000000,103922663.000000
140475433.000000,104822661.000000
138725435.000000,104822661.000000
138725435.000000,103922663.000000
Z" /> 
<path style="fill:#000000; fill-opacity:1.0; 
stroke:#000000; stroke-width:1.000000; stroke-opacity:1; 
stroke-linecap:round; stroke-linejoin:round;fill-rule:evenodd;"
d="M 140475433.000000,105192663.000000
140475433.000000,106092661.000000
138725435.000000,106092661.000000
138725435.000000,105192663.000000
Z" /> 
<path style="fill:#000000; fill-opacity:1.0; 
stroke:#000000; stroke-width:1.000000; stroke-opacity:1; 
stroke-linecap:round; stroke-linejoin:round;fill-rule:evenodd;"
d="M 140475433.000000,106462663.000000
140475433.000000,107362661.000000
138725435.000000,107362661.000000
138725435.000000,106462663.000000
Z" /> 
<path style="fill:#000000; fill-opacity:1.0; 
stroke:#000000; stroke-width:1.000000; stroke-opacity:1; 
stroke-linecap:round; stroke-linejoin:round;fill-rule:evenodd;"
d="M 140475433.000000,107732663.000000
140475433.000000,108632661.000000
138725435.000000,108632661.000000
138725435.000000,107732663.000000
Z" /> 
<path style="fill:#000000; fill-opacity:1.0; 
stroke:#000000; stroke-width:1.000000; stroke-opacity:1; 
stroke-linecap:round; stroke-linejoin:round;fill-rule:evenodd;"
d="M 140475433.000000,109002663.000000
140475433.000000,109902661.000000
138725435.000000,109902661.000000
138725435.000000,109002663.000000
Z" /> 
<path style="fill:#000000; fill-opacity:1.0; 
stroke:#000000; stroke-width:1.000000; stroke-opacity:1; 
stroke-linecap:round; stroke-linejoin:round;fill-rule:evenodd;"
d="M 140475433.000000,110272663.000000
140475433.000000,111172661.000000
138725435.000000,111172661.000000
138725435.000000,110272663.000000
Z" /> 
<path style="fill:#000000; fill-opacity:1.0; 
stroke:#000000; stroke-width:1.000000; stroke-opacity:1; 
stroke-linecap:round; stroke-linejoin:round;fill-rule:evenodd;"
d="M 140475433.000000,111542663.000000
140475433.000000,112442661.000000
138725435.000000,112442661.000000
138725435.000000,111542663.000000
Z" /> 
<path style="fill:#000000; fill-opacity:1.0; 
stroke:#000000; stroke-width:1.000000; stroke-opacity:1; 
stroke-linecap:round; stroke-linejoin:round;fill-rule:evenodd;"
d="M 143335433.000000,112607663.000000
143335433.000000,114357661.000000
142435435.000000,114357661.000000
142435435.000000,112607663.000000
Z" /> 
<path style="fill:#000000; fill-opacity:1.0; 
stroke:#000000; stroke-width:1.000000; stroke-opacity:1; 
stroke-linecap:round; stroke-linejoin:round;fill-rule:evenodd;"
d="M 144605433.000000,112607663.000000
144605433.000000,114357661.000000
143705435.000000,114357661.000000
143705435.000000,112607663.000000
Z" /> 
<path style="fill:#000000; fill-opacity:1.0; 
stroke:#000000; stroke-width:1.000000; stroke-opacity:1; 
stroke-linecap:round; stroke-linejoin:round;fill-rule:evenodd;"
d="M 145875433.000000,112607663.000000
145875433.000000,114357661.000000
144975435.000000,114357661.000000
144975435.000000,112607663.000000
Z" /> 
<path style="fill:#000000; fill-opacity:1.0; 
stroke:#000000; stroke-width:1.000000; stroke-opacity:1; 
stroke-linecap:round; stroke-linejoin:round;fill-rule:evenodd;"
d="M 147145433.000000,112607663.000000
147145433.000000,114357661.000000
146245435.000000,114357661.000000
146245435.000000,112607663.000000
Z" /> 
<path style="fill:#000000; fill-opacity:1.0; 
stroke:#000000; stroke-width:1.000000; stroke-opacity:1; 
stroke-linecap:round; stroke-linejoin:round;fill-rule:evenodd;"
d="M 148415433.000000,112607663.000000
148415433.000000,114357661.000000
147515435.000000,114357661.000000
147515435.000000,112607663.000000
Z" /> 
<path style="fill:#000000; fill-opacity:1.0; 
stroke:#000000; stroke-width:1.000000; stroke-opacity:1; 
stroke-linecap:round; stroke-linejoin:round;fill-rule:evenodd;"
d="M 149685433.000000,112607663.000000
149685433.000000,114357661.000000
148785435.000000,114357661.000000
148785435.000000,112607663.000000
Z" /> 
<path style="fill:#000000; fill-opacity:1.0; 
stroke:#000000; stroke-width:1.000000; stroke-opacity:1; 
stroke-linecap:round; stroke-linejoin:round;fill-rule:evenodd;"
d="M 150955433.000000,112607663.000000
150955433.000000,114357661.000000
150055435.000000,114357661.000000
150055435.000000,112607663.000000
Z" /> 
<path style="fill:#000000; fill-opacity:1.0; 
stroke:#000000; stroke-width:1.000000; stroke-opacity:1; 
stroke-linecap:round; stroke-linejoin:round;fill-rule:evenodd;"
d="M 152225433.000000,112607663.000000
152225433.000000,114357661.000000
151325435.000000,114357661.000000
151325435.000000,112607663.000000
Z" /> 
<path style="fill:#000000; fill-opacity:1.0; 
stroke:#000000; stroke-width:1.000000; stroke-opacity:1; 
stroke-linecap:round; stroke-linejoin:round;fill-rule:evenodd;"
d="M 153495433.000000,112607663.000000
153495433.000000,114357661.000000
152595435.000000,114357661.000000
152595435.000000,112607663.000000
Z" /> 
<path style="fill:#000000; fill-opacity:1.0; 
stroke:#000000; stroke-width:1.000000; stroke-opacity:1; 
stroke-linecap:round; stroke-linejoin:round;fill-rule:evenodd;"
d="M 154765433.000000,112607663.000000
154765433.000000,114357661.000000
153865435.000000,114357661.000000
153865435.000000,112607663.000000
Z" /> 
<path style="fill:#000000; fill-opacity:1.0; 
stroke:#000000; stroke-width:1.000000; stroke-opacity:1; 
stroke-linecap:round; stroke-linejoin:round;fill-rule:evenodd;"
d="M 158475433.000000,111542663.000000
158475433.000000,112442661.000000
156725435.000000,112442661.000000
156725435.000000,111542663.000000
Z" /> 
<path style="fill:#000000; fill-opacity:1.0; 
stroke:#000000; stroke-width:1.000000; stroke-opacity:1; 
stroke-linecap:round; stroke-linejoin:round;fill-rule:evenodd;"
d="M 158475433.000000,110272663.000000
158475433.000000,111172661.000000
156725435.000000,111172661.000000
156725435.000000,110272663.000000
Z" /> 
<path style="fill:#000000; fill-opacity:1.0; 
stroke:#000000; stroke-width:1.000000; stroke-opacity:1; 
stroke-linecap:round; stroke-linejoin:round;fill-rule:evenodd;"
d="M 158475433.000000,109002663.000000
158475433.000000,109902661.000000
156725435.000000,109902661.000000
156725435.000000,109002663.000000
Z" /> 
<path style="fill:#000000; fill-opacity:1.0; 
stroke:#000000; stroke-width:1.000000; stroke-opacity:1; 
stroke-linecap:round; stroke-linejoin:round;fill-rule:evenodd;"
d="M 158475433.000000,107732663.000000
158475433.000000,108632661.000000
156725435.000000,108632661.000000
156725435.000000,107732663.000000
Z" /> 
<path style="fill:#000000; fill-opacity:1.0; 
stroke:#000000; stroke-width:1.000000; stroke-opacity:1; 
stroke-linecap:round; stroke-linejoin:round;fill-rule:evenodd;"
d="M 158475433.000000,106462663.000000
158475433.000000,107362661.000000
156725435.000000,107362661.000000
156725435.000000,106462663.000000
Z" /> 
<path style="fill:#000000; fill-opacity:1.0; 
stroke:#000000; stroke-width:1.000000; stroke-opacity:1; 
stroke-linecap:round; stroke-linejoin:round;fill-rule:evenodd;"
d="M 158475433.000000,105192663.000000
158475433.000000,106092661.000000
156725435.000000,106092661.000000
156725435.000000,105192663.000000
Z" /> 
<path style="fill:#000000; fill-opacity:1.0; 
stroke:#000000; stroke-width:1.000000; stroke-opacity:1; 
stroke-linecap:round; stroke-linejoin:round;fill-rule:evenodd;"
d="M 158475433.000000,103922663.000000
158475433.000000,104822661.000000
156725435.000000,104822661.000000
156725435.000000,103922663.000000
Z" /> 
<path style="fill:#000000; fill-opacity:1.0; 
stroke:#000000; stroke-width:1.000000; stroke-opacity:1; 
stroke-linecap:round; stroke-linejoin:round;fill-rule:evenodd;"
d="M 158475433.000000,102652663.000000
158475433.000000,103552661.000000
156725435.000000,103552661.000000
156725435.000000,102652663.000000
Z" /> 
<path style="fill:#000000; fill-opacity:1.0; 
stroke:#000000; stroke-width:1.000000; stroke-opacity:1; 
stroke-linecap:round; stroke-linejoin:round;fill-rule:evenodd;"
d="M 158475433.000000,101382663.000000
158475433.000000,102282661.000000
156725435.000000,102282661.000000
156725435.000000,101382663.000000
Z" /> 
<path style="fill:#000000; fill-opacity:1.0; 
stroke:#000000; stroke-width:1.000000; stroke-opacity:1; 
stroke-linecap:round; stroke-linejoin:round;fill-rule:evenodd;"
d="M 158475433.000000,100112663.000000
158475433.000000,101012661.000000
156725435.000000,101012661.000000
156725435.000000,100112663.000000
Z" /> 
<path style="fill:#000000; fill-opacity:1.0; 
stroke:#000000; stroke-width:1.000000; stroke-opacity:1; 
stroke-linecap:round; stroke-linejoin:round;fill-rule:evenodd;"
d="M 158475433.000000,98842663.000000
158475433.000000,99742661.000000
156725435.000000,99742661.000000
156725435.000000,98842663.000000
Z" /> 
<path style="fill:#000000; fill-opacity:1.0; 
stroke:#000000; stroke-width:1.000000; stroke-opacity:1; 
stroke-linecap:round; stroke-linejoin:round;fill-rule:evenodd;"
d="M 158475433.000000,97572663.000000
158475433.000000,98472661.000000
156725435.000000,98472661.000000
156725435.000000,97572663.000000
Z" /> 
<path style="fill:#000000; fill-opacity:1.0; 
stroke:#000000; stroke-width:1.000000; stroke-opacity:1; 
stroke-linecap:round; stroke-linejoin:round;fill-rule:evenodd;"
d="M 158475433.000000,96302663.000000
158475433.000000,97202661.000000
156725435.000000,97202661.000000
156725435.000000,96302663.000000
Z" /> 
<path style="fill:#000000; fill-opacity:1.0; 
stroke:#000000; stroke-width:1.000000; stroke-opacity:1; 
stroke-linecap:round; stroke-linejoin:round;fill-rule:evenodd;"
d="M 158475433.000000,95032663.000000
158475433.000000,95932661.000000
156725435.000000,95932661.000000
156725435.000000,95032663.000000
Z" /> 
<path style="fill:#000000; fill-opacity:1.0; 
stroke:#000000; stroke-width:1.000000; stroke-opacity:1; 
stroke-linecap:round; stroke-linejoin:round;fill-rule:evenodd;"
d="M 151300433.000000,100182663.000000
151300433.000000,106182661.000000
145300435.000000,106182661.000000
145300435.000000,100182663.000000
Z" /> 
</g>
<g >
</g>
<g >
</g>
<g >
</g>
<g >
</g>
<g >
</g>
<g >
</g>
<g >
</g>
<g >
</g>
<g >
</g>
</g> 
</svg>
