G04 #@! TF.GenerationSoftware,KiCad,Pcbnew,7.99.0-unknown-556120554e~172~ubuntu22.04.1*
G04 #@! TF.CreationDate,2023-08-17T23:45:12+09:00*
G04 #@! TF.ProjectId,bGeigieCast V1.6.0(StampS3),62476569-6769-4654-9361-73742056312e,rev?*
G04 #@! TF.SameCoordinates,Original*
G04 #@! TF.FileFunction,Soldermask,Top*
G04 #@! TF.FilePolarity,Negative*
%FSLAX46Y46*%
G04 Gerber Fmt 4.6, Leading zero omitted, Abs format (unit mm)*
G04 Created by KiCad (PCBNEW 7.99.0-unknown-556120554e~172~ubuntu22.04.1) date 2023-08-17 23:45:12*
%MOMM*%
%LPD*%
G01*
G04 APERTURE LIST*
%ADD10C,1.400000*%
%ADD11R,1.700000X1.700000*%
%ADD12O,1.700000X1.700000*%
G04 #@! TA.AperFunction,Profile*
%ADD13C,0.150000*%
G04 #@! TD*
G04 APERTURE END LIST*
D10*
X137400000Y-99350000D03*
X137400000Y-101350000D03*
X137400000Y-103350000D03*
X137400000Y-105350000D03*
X137400000Y-107350000D03*
X137400000Y-109350000D03*
X137400000Y-111350000D03*
X137400000Y-113350000D03*
X137400000Y-115350000D03*
X137400000Y-117350000D03*
X159400000Y-117350000D03*
X159400000Y-115350000D03*
X159400000Y-113350000D03*
X159400000Y-111350000D03*
X159400000Y-109350000D03*
X159400000Y-107350000D03*
X159400000Y-105350000D03*
X159400000Y-103350000D03*
X159400000Y-101350000D03*
X159400000Y-99350000D03*
D11*
X140796000Y-104592000D03*
D12*
X140796000Y-107132000D03*
X140796000Y-109672000D03*
X140796000Y-112212000D03*
X140796000Y-114752000D03*
X140796000Y-117292000D03*
D11*
X156050000Y-104592000D03*
D12*
X156050000Y-107132000D03*
X156050000Y-109672000D03*
X156050000Y-112212000D03*
X156050000Y-114752000D03*
X156050000Y-117292000D03*
D13*
X135836040Y-117988000D02*
X136850000Y-118750000D01*
X135923000Y-98496000D02*
X135836040Y-117988000D01*
X141765000Y-118741000D02*
X136850000Y-118750000D01*
X159832000Y-118816000D02*
X154973000Y-118816000D01*
X160850000Y-117950000D02*
X160866000Y-97996000D01*
X143670000Y-91257000D02*
X135923000Y-98496000D01*
X160850000Y-117950000D02*
X159832000Y-118816000D01*
X141765000Y-96718000D02*
X141765000Y-118741000D01*
X156360127Y-102138500D02*
X154973000Y-103576000D01*
X154719000Y-95194000D02*
X156370000Y-96972000D01*
X154973000Y-103576000D02*
X154973000Y-118816000D01*
X153068000Y-91257000D02*
X143670000Y-91257000D01*
X143162000Y-95194000D02*
X141765000Y-96718000D01*
X154719000Y-95194000D02*
X143162000Y-95194000D01*
X156379872Y-96972000D02*
X156360127Y-102138500D01*
X153068000Y-91257000D02*
X160866000Y-97996000D01*
M02*
