G04 #@! TF.GenerationSoftware,KiCad,Pcbnew,7.99.0-unknown-4c4bbdc8f3~172~ubuntu22.04.1*
G04 #@! TF.CreationDate,2023-08-08T20:27:13+09:00*
G04 #@! TF.ProjectId,bGeigieCast V1.6.0(StampS3),62476569-6769-4654-9361-73742056312e,rev?*
G04 #@! TF.SameCoordinates,Original*
G04 #@! TF.FileFunction,Legend,Top*
G04 #@! TF.FilePolarity,Positive*
%FSLAX46Y46*%
G04 Gerber Fmt 4.6, Leading zero omitted, Abs format (unit mm)*
G04 Created by KiCad (PCBNEW 7.99.0-unknown-4c4bbdc8f3~172~ubuntu22.04.1) date 2023-08-08 20:27:13*
%MOMM*%
%LPD*%
G01*
G04 APERTURE LIST*
%ADD10C,0.100000*%
%ADD11C,0.150000*%
%ADD12C,0.120000*%
G04 #@! TA.AperFunction,Profile*
%ADD13C,0.150000*%
G04 #@! TD*
G04 APERTURE END LIST*
D10*
X143429334Y-93171133D02*
X143429334Y-92471133D01*
X143429334Y-92737800D02*
X143496001Y-92704466D01*
X143496001Y-92704466D02*
X143629334Y-92704466D01*
X143629334Y-92704466D02*
X143696001Y-92737800D01*
X143696001Y-92737800D02*
X143729334Y-92771133D01*
X143729334Y-92771133D02*
X143762668Y-92837800D01*
X143762668Y-92837800D02*
X143762668Y-93037800D01*
X143762668Y-93037800D02*
X143729334Y-93104466D01*
X143729334Y-93104466D02*
X143696001Y-93137800D01*
X143696001Y-93137800D02*
X143629334Y-93171133D01*
X143629334Y-93171133D02*
X143496001Y-93171133D01*
X143496001Y-93171133D02*
X143429334Y-93137800D01*
X144429334Y-92504466D02*
X144362667Y-92471133D01*
X144362667Y-92471133D02*
X144262667Y-92471133D01*
X144262667Y-92471133D02*
X144162667Y-92504466D01*
X144162667Y-92504466D02*
X144096001Y-92571133D01*
X144096001Y-92571133D02*
X144062667Y-92637800D01*
X144062667Y-92637800D02*
X144029334Y-92771133D01*
X144029334Y-92771133D02*
X144029334Y-92871133D01*
X144029334Y-92871133D02*
X144062667Y-93004466D01*
X144062667Y-93004466D02*
X144096001Y-93071133D01*
X144096001Y-93071133D02*
X144162667Y-93137800D01*
X144162667Y-93137800D02*
X144262667Y-93171133D01*
X144262667Y-93171133D02*
X144329334Y-93171133D01*
X144329334Y-93171133D02*
X144429334Y-93137800D01*
X144429334Y-93137800D02*
X144462667Y-93104466D01*
X144462667Y-93104466D02*
X144462667Y-92871133D01*
X144462667Y-92871133D02*
X144329334Y-92871133D01*
X145029334Y-93137800D02*
X144962667Y-93171133D01*
X144962667Y-93171133D02*
X144829334Y-93171133D01*
X144829334Y-93171133D02*
X144762667Y-93137800D01*
X144762667Y-93137800D02*
X144729334Y-93071133D01*
X144729334Y-93071133D02*
X144729334Y-92804466D01*
X144729334Y-92804466D02*
X144762667Y-92737800D01*
X144762667Y-92737800D02*
X144829334Y-92704466D01*
X144829334Y-92704466D02*
X144962667Y-92704466D01*
X144962667Y-92704466D02*
X145029334Y-92737800D01*
X145029334Y-92737800D02*
X145062667Y-92804466D01*
X145062667Y-92804466D02*
X145062667Y-92871133D01*
X145062667Y-92871133D02*
X144729334Y-92937800D01*
X145362667Y-93171133D02*
X145362667Y-92704466D01*
X145362667Y-92471133D02*
X145329334Y-92504466D01*
X145329334Y-92504466D02*
X145362667Y-92537800D01*
X145362667Y-92537800D02*
X145396001Y-92504466D01*
X145396001Y-92504466D02*
X145362667Y-92471133D01*
X145362667Y-92471133D02*
X145362667Y-92537800D01*
X145996000Y-92704466D02*
X145996000Y-93271133D01*
X145996000Y-93271133D02*
X145962667Y-93337800D01*
X145962667Y-93337800D02*
X145929334Y-93371133D01*
X145929334Y-93371133D02*
X145862667Y-93404466D01*
X145862667Y-93404466D02*
X145762667Y-93404466D01*
X145762667Y-93404466D02*
X145696000Y-93371133D01*
X145996000Y-93137800D02*
X145929334Y-93171133D01*
X145929334Y-93171133D02*
X145796000Y-93171133D01*
X145796000Y-93171133D02*
X145729334Y-93137800D01*
X145729334Y-93137800D02*
X145696000Y-93104466D01*
X145696000Y-93104466D02*
X145662667Y-93037800D01*
X145662667Y-93037800D02*
X145662667Y-92837800D01*
X145662667Y-92837800D02*
X145696000Y-92771133D01*
X145696000Y-92771133D02*
X145729334Y-92737800D01*
X145729334Y-92737800D02*
X145796000Y-92704466D01*
X145796000Y-92704466D02*
X145929334Y-92704466D01*
X145929334Y-92704466D02*
X145996000Y-92737800D01*
X146329333Y-93171133D02*
X146329333Y-92704466D01*
X146329333Y-92471133D02*
X146296000Y-92504466D01*
X146296000Y-92504466D02*
X146329333Y-92537800D01*
X146329333Y-92537800D02*
X146362667Y-92504466D01*
X146362667Y-92504466D02*
X146329333Y-92471133D01*
X146329333Y-92471133D02*
X146329333Y-92537800D01*
X146929333Y-93137800D02*
X146862666Y-93171133D01*
X146862666Y-93171133D02*
X146729333Y-93171133D01*
X146729333Y-93171133D02*
X146662666Y-93137800D01*
X146662666Y-93137800D02*
X146629333Y-93071133D01*
X146629333Y-93071133D02*
X146629333Y-92804466D01*
X146629333Y-92804466D02*
X146662666Y-92737800D01*
X146662666Y-92737800D02*
X146729333Y-92704466D01*
X146729333Y-92704466D02*
X146862666Y-92704466D01*
X146862666Y-92704466D02*
X146929333Y-92737800D01*
X146929333Y-92737800D02*
X146962666Y-92804466D01*
X146962666Y-92804466D02*
X146962666Y-92871133D01*
X146962666Y-92871133D02*
X146629333Y-92937800D01*
X147662666Y-93104466D02*
X147629333Y-93137800D01*
X147629333Y-93137800D02*
X147529333Y-93171133D01*
X147529333Y-93171133D02*
X147462666Y-93171133D01*
X147462666Y-93171133D02*
X147362666Y-93137800D01*
X147362666Y-93137800D02*
X147296000Y-93071133D01*
X147296000Y-93071133D02*
X147262666Y-93004466D01*
X147262666Y-93004466D02*
X147229333Y-92871133D01*
X147229333Y-92871133D02*
X147229333Y-92771133D01*
X147229333Y-92771133D02*
X147262666Y-92637800D01*
X147262666Y-92637800D02*
X147296000Y-92571133D01*
X147296000Y-92571133D02*
X147362666Y-92504466D01*
X147362666Y-92504466D02*
X147462666Y-92471133D01*
X147462666Y-92471133D02*
X147529333Y-92471133D01*
X147529333Y-92471133D02*
X147629333Y-92504466D01*
X147629333Y-92504466D02*
X147662666Y-92537800D01*
X148262666Y-93171133D02*
X148262666Y-92804466D01*
X148262666Y-92804466D02*
X148229333Y-92737800D01*
X148229333Y-92737800D02*
X148162666Y-92704466D01*
X148162666Y-92704466D02*
X148029333Y-92704466D01*
X148029333Y-92704466D02*
X147962666Y-92737800D01*
X148262666Y-93137800D02*
X148196000Y-93171133D01*
X148196000Y-93171133D02*
X148029333Y-93171133D01*
X148029333Y-93171133D02*
X147962666Y-93137800D01*
X147962666Y-93137800D02*
X147929333Y-93071133D01*
X147929333Y-93071133D02*
X147929333Y-93004466D01*
X147929333Y-93004466D02*
X147962666Y-92937800D01*
X147962666Y-92937800D02*
X148029333Y-92904466D01*
X148029333Y-92904466D02*
X148196000Y-92904466D01*
X148196000Y-92904466D02*
X148262666Y-92871133D01*
X148562666Y-93137800D02*
X148629333Y-93171133D01*
X148629333Y-93171133D02*
X148762666Y-93171133D01*
X148762666Y-93171133D02*
X148829333Y-93137800D01*
X148829333Y-93137800D02*
X148862666Y-93071133D01*
X148862666Y-93071133D02*
X148862666Y-93037800D01*
X148862666Y-93037800D02*
X148829333Y-92971133D01*
X148829333Y-92971133D02*
X148762666Y-92937800D01*
X148762666Y-92937800D02*
X148662666Y-92937800D01*
X148662666Y-92937800D02*
X148595999Y-92904466D01*
X148595999Y-92904466D02*
X148562666Y-92837800D01*
X148562666Y-92837800D02*
X148562666Y-92804466D01*
X148562666Y-92804466D02*
X148595999Y-92737800D01*
X148595999Y-92737800D02*
X148662666Y-92704466D01*
X148662666Y-92704466D02*
X148762666Y-92704466D01*
X148762666Y-92704466D02*
X148829333Y-92737800D01*
X149062666Y-92704466D02*
X149329333Y-92704466D01*
X149162666Y-92471133D02*
X149162666Y-93071133D01*
X149162666Y-93071133D02*
X149196000Y-93137800D01*
X149196000Y-93137800D02*
X149262666Y-93171133D01*
X149262666Y-93171133D02*
X149329333Y-93171133D01*
X149995999Y-92471133D02*
X150229333Y-93171133D01*
X150229333Y-93171133D02*
X150462666Y-92471133D01*
X151062666Y-93171133D02*
X150662666Y-93171133D01*
X150862666Y-93171133D02*
X150862666Y-92471133D01*
X150862666Y-92471133D02*
X150795999Y-92571133D01*
X150795999Y-92571133D02*
X150729333Y-92637800D01*
X150729333Y-92637800D02*
X150662666Y-92671133D01*
X151362666Y-93104466D02*
X151396000Y-93137800D01*
X151396000Y-93137800D02*
X151362666Y-93171133D01*
X151362666Y-93171133D02*
X151329333Y-93137800D01*
X151329333Y-93137800D02*
X151362666Y-93104466D01*
X151362666Y-93104466D02*
X151362666Y-93171133D01*
X151995999Y-92471133D02*
X151862666Y-92471133D01*
X151862666Y-92471133D02*
X151795999Y-92504466D01*
X151795999Y-92504466D02*
X151762666Y-92537800D01*
X151762666Y-92537800D02*
X151695999Y-92637800D01*
X151695999Y-92637800D02*
X151662666Y-92771133D01*
X151662666Y-92771133D02*
X151662666Y-93037800D01*
X151662666Y-93037800D02*
X151695999Y-93104466D01*
X151695999Y-93104466D02*
X151729333Y-93137800D01*
X151729333Y-93137800D02*
X151795999Y-93171133D01*
X151795999Y-93171133D02*
X151929333Y-93171133D01*
X151929333Y-93171133D02*
X151995999Y-93137800D01*
X151995999Y-93137800D02*
X152029333Y-93104466D01*
X152029333Y-93104466D02*
X152062666Y-93037800D01*
X152062666Y-93037800D02*
X152062666Y-92871133D01*
X152062666Y-92871133D02*
X152029333Y-92804466D01*
X152029333Y-92804466D02*
X151995999Y-92771133D01*
X151995999Y-92771133D02*
X151929333Y-92737800D01*
X151929333Y-92737800D02*
X151795999Y-92737800D01*
X151795999Y-92737800D02*
X151729333Y-92771133D01*
X151729333Y-92771133D02*
X151695999Y-92804466D01*
X151695999Y-92804466D02*
X151662666Y-92871133D01*
X152362666Y-93104466D02*
X152396000Y-93137800D01*
X152396000Y-93137800D02*
X152362666Y-93171133D01*
X152362666Y-93171133D02*
X152329333Y-93137800D01*
X152329333Y-93137800D02*
X152362666Y-93104466D01*
X152362666Y-93104466D02*
X152362666Y-93171133D01*
X152829333Y-92471133D02*
X152895999Y-92471133D01*
X152895999Y-92471133D02*
X152962666Y-92504466D01*
X152962666Y-92504466D02*
X152995999Y-92537800D01*
X152995999Y-92537800D02*
X153029333Y-92604466D01*
X153029333Y-92604466D02*
X153062666Y-92737800D01*
X153062666Y-92737800D02*
X153062666Y-92904466D01*
X153062666Y-92904466D02*
X153029333Y-93037800D01*
X153029333Y-93037800D02*
X152995999Y-93104466D01*
X152995999Y-93104466D02*
X152962666Y-93137800D01*
X152962666Y-93137800D02*
X152895999Y-93171133D01*
X152895999Y-93171133D02*
X152829333Y-93171133D01*
X152829333Y-93171133D02*
X152762666Y-93137800D01*
X152762666Y-93137800D02*
X152729333Y-93104466D01*
X152729333Y-93104466D02*
X152695999Y-93037800D01*
X152695999Y-93037800D02*
X152662666Y-92904466D01*
X152662666Y-92904466D02*
X152662666Y-92737800D01*
X152662666Y-92737800D02*
X152695999Y-92604466D01*
X152695999Y-92604466D02*
X152729333Y-92537800D01*
X152729333Y-92537800D02*
X152762666Y-92504466D01*
X152762666Y-92504466D02*
X152829333Y-92471133D01*
X144829333Y-94264800D02*
X144896000Y-94298133D01*
X144896000Y-94298133D02*
X145029333Y-94298133D01*
X145029333Y-94298133D02*
X145096000Y-94264800D01*
X145096000Y-94264800D02*
X145129333Y-94198133D01*
X145129333Y-94198133D02*
X145129333Y-94164800D01*
X145129333Y-94164800D02*
X145096000Y-94098133D01*
X145096000Y-94098133D02*
X145029333Y-94064800D01*
X145029333Y-94064800D02*
X144929333Y-94064800D01*
X144929333Y-94064800D02*
X144862666Y-94031466D01*
X144862666Y-94031466D02*
X144829333Y-93964800D01*
X144829333Y-93964800D02*
X144829333Y-93931466D01*
X144829333Y-93931466D02*
X144862666Y-93864800D01*
X144862666Y-93864800D02*
X144929333Y-93831466D01*
X144929333Y-93831466D02*
X145029333Y-93831466D01*
X145029333Y-93831466D02*
X145096000Y-93864800D01*
X145729333Y-94298133D02*
X145729333Y-93931466D01*
X145729333Y-93931466D02*
X145696000Y-93864800D01*
X145696000Y-93864800D02*
X145629333Y-93831466D01*
X145629333Y-93831466D02*
X145496000Y-93831466D01*
X145496000Y-93831466D02*
X145429333Y-93864800D01*
X145729333Y-94264800D02*
X145662667Y-94298133D01*
X145662667Y-94298133D02*
X145496000Y-94298133D01*
X145496000Y-94298133D02*
X145429333Y-94264800D01*
X145429333Y-94264800D02*
X145396000Y-94198133D01*
X145396000Y-94198133D02*
X145396000Y-94131466D01*
X145396000Y-94131466D02*
X145429333Y-94064800D01*
X145429333Y-94064800D02*
X145496000Y-94031466D01*
X145496000Y-94031466D02*
X145662667Y-94031466D01*
X145662667Y-94031466D02*
X145729333Y-93998133D01*
X145962666Y-93831466D02*
X146229333Y-93831466D01*
X146062666Y-94298133D02*
X146062666Y-93698133D01*
X146062666Y-93698133D02*
X146096000Y-93631466D01*
X146096000Y-93631466D02*
X146162666Y-93598133D01*
X146162666Y-93598133D02*
X146229333Y-93598133D01*
X146729333Y-94264800D02*
X146662666Y-94298133D01*
X146662666Y-94298133D02*
X146529333Y-94298133D01*
X146529333Y-94298133D02*
X146462666Y-94264800D01*
X146462666Y-94264800D02*
X146429333Y-94198133D01*
X146429333Y-94198133D02*
X146429333Y-93931466D01*
X146429333Y-93931466D02*
X146462666Y-93864800D01*
X146462666Y-93864800D02*
X146529333Y-93831466D01*
X146529333Y-93831466D02*
X146662666Y-93831466D01*
X146662666Y-93831466D02*
X146729333Y-93864800D01*
X146729333Y-93864800D02*
X146762666Y-93931466D01*
X146762666Y-93931466D02*
X146762666Y-93998133D01*
X146762666Y-93998133D02*
X146429333Y-94064800D01*
X147362666Y-94264800D02*
X147296000Y-94298133D01*
X147296000Y-94298133D02*
X147162666Y-94298133D01*
X147162666Y-94298133D02*
X147096000Y-94264800D01*
X147096000Y-94264800D02*
X147062666Y-94231466D01*
X147062666Y-94231466D02*
X147029333Y-94164800D01*
X147029333Y-94164800D02*
X147029333Y-93964800D01*
X147029333Y-93964800D02*
X147062666Y-93898133D01*
X147062666Y-93898133D02*
X147096000Y-93864800D01*
X147096000Y-93864800D02*
X147162666Y-93831466D01*
X147162666Y-93831466D02*
X147296000Y-93831466D01*
X147296000Y-93831466D02*
X147362666Y-93864800D01*
X147962666Y-94298133D02*
X147962666Y-93931466D01*
X147962666Y-93931466D02*
X147929333Y-93864800D01*
X147929333Y-93864800D02*
X147862666Y-93831466D01*
X147862666Y-93831466D02*
X147729333Y-93831466D01*
X147729333Y-93831466D02*
X147662666Y-93864800D01*
X147962666Y-94264800D02*
X147896000Y-94298133D01*
X147896000Y-94298133D02*
X147729333Y-94298133D01*
X147729333Y-94298133D02*
X147662666Y-94264800D01*
X147662666Y-94264800D02*
X147629333Y-94198133D01*
X147629333Y-94198133D02*
X147629333Y-94131466D01*
X147629333Y-94131466D02*
X147662666Y-94064800D01*
X147662666Y-94064800D02*
X147729333Y-94031466D01*
X147729333Y-94031466D02*
X147896000Y-94031466D01*
X147896000Y-94031466D02*
X147962666Y-93998133D01*
X148262666Y-94264800D02*
X148329333Y-94298133D01*
X148329333Y-94298133D02*
X148462666Y-94298133D01*
X148462666Y-94298133D02*
X148529333Y-94264800D01*
X148529333Y-94264800D02*
X148562666Y-94198133D01*
X148562666Y-94198133D02*
X148562666Y-94164800D01*
X148562666Y-94164800D02*
X148529333Y-94098133D01*
X148529333Y-94098133D02*
X148462666Y-94064800D01*
X148462666Y-94064800D02*
X148362666Y-94064800D01*
X148362666Y-94064800D02*
X148295999Y-94031466D01*
X148295999Y-94031466D02*
X148262666Y-93964800D01*
X148262666Y-93964800D02*
X148262666Y-93931466D01*
X148262666Y-93931466D02*
X148295999Y-93864800D01*
X148295999Y-93864800D02*
X148362666Y-93831466D01*
X148362666Y-93831466D02*
X148462666Y-93831466D01*
X148462666Y-93831466D02*
X148529333Y-93864800D01*
X148762666Y-93831466D02*
X149029333Y-93831466D01*
X148862666Y-93598133D02*
X148862666Y-94198133D01*
X148862666Y-94198133D02*
X148896000Y-94264800D01*
X148896000Y-94264800D02*
X148962666Y-94298133D01*
X148962666Y-94298133D02*
X149029333Y-94298133D01*
X149762666Y-93664800D02*
X149795999Y-93631466D01*
X149795999Y-93631466D02*
X149862666Y-93598133D01*
X149862666Y-93598133D02*
X150029333Y-93598133D01*
X150029333Y-93598133D02*
X150095999Y-93631466D01*
X150095999Y-93631466D02*
X150129333Y-93664800D01*
X150129333Y-93664800D02*
X150162666Y-93731466D01*
X150162666Y-93731466D02*
X150162666Y-93798133D01*
X150162666Y-93798133D02*
X150129333Y-93898133D01*
X150129333Y-93898133D02*
X149729333Y-94298133D01*
X149729333Y-94298133D02*
X150162666Y-94298133D01*
X150596000Y-93598133D02*
X150662666Y-93598133D01*
X150662666Y-93598133D02*
X150729333Y-93631466D01*
X150729333Y-93631466D02*
X150762666Y-93664800D01*
X150762666Y-93664800D02*
X150796000Y-93731466D01*
X150796000Y-93731466D02*
X150829333Y-93864800D01*
X150829333Y-93864800D02*
X150829333Y-94031466D01*
X150829333Y-94031466D02*
X150796000Y-94164800D01*
X150796000Y-94164800D02*
X150762666Y-94231466D01*
X150762666Y-94231466D02*
X150729333Y-94264800D01*
X150729333Y-94264800D02*
X150662666Y-94298133D01*
X150662666Y-94298133D02*
X150596000Y-94298133D01*
X150596000Y-94298133D02*
X150529333Y-94264800D01*
X150529333Y-94264800D02*
X150496000Y-94231466D01*
X150496000Y-94231466D02*
X150462666Y-94164800D01*
X150462666Y-94164800D02*
X150429333Y-94031466D01*
X150429333Y-94031466D02*
X150429333Y-93864800D01*
X150429333Y-93864800D02*
X150462666Y-93731466D01*
X150462666Y-93731466D02*
X150496000Y-93664800D01*
X150496000Y-93664800D02*
X150529333Y-93631466D01*
X150529333Y-93631466D02*
X150596000Y-93598133D01*
X151096000Y-93664800D02*
X151129333Y-93631466D01*
X151129333Y-93631466D02*
X151196000Y-93598133D01*
X151196000Y-93598133D02*
X151362667Y-93598133D01*
X151362667Y-93598133D02*
X151429333Y-93631466D01*
X151429333Y-93631466D02*
X151462667Y-93664800D01*
X151462667Y-93664800D02*
X151496000Y-93731466D01*
X151496000Y-93731466D02*
X151496000Y-93798133D01*
X151496000Y-93798133D02*
X151462667Y-93898133D01*
X151462667Y-93898133D02*
X151062667Y-94298133D01*
X151062667Y-94298133D02*
X151496000Y-94298133D01*
X151729334Y-93598133D02*
X152162667Y-93598133D01*
X152162667Y-93598133D02*
X151929334Y-93864800D01*
X151929334Y-93864800D02*
X152029334Y-93864800D01*
X152029334Y-93864800D02*
X152096000Y-93898133D01*
X152096000Y-93898133D02*
X152129334Y-93931466D01*
X152129334Y-93931466D02*
X152162667Y-93998133D01*
X152162667Y-93998133D02*
X152162667Y-94164800D01*
X152162667Y-94164800D02*
X152129334Y-94231466D01*
X152129334Y-94231466D02*
X152096000Y-94264800D01*
X152096000Y-94264800D02*
X152029334Y-94298133D01*
X152029334Y-94298133D02*
X151829334Y-94298133D01*
X151829334Y-94298133D02*
X151762667Y-94264800D01*
X151762667Y-94264800D02*
X151729334Y-94231466D01*
D11*
X156544666Y-102014819D02*
X156544666Y-102729104D01*
X156544666Y-102729104D02*
X156497047Y-102871961D01*
X156497047Y-102871961D02*
X156401809Y-102967200D01*
X156401809Y-102967200D02*
X156258952Y-103014819D01*
X156258952Y-103014819D02*
X156163714Y-103014819D01*
X156973238Y-102110057D02*
X157020857Y-102062438D01*
X157020857Y-102062438D02*
X157116095Y-102014819D01*
X157116095Y-102014819D02*
X157354190Y-102014819D01*
X157354190Y-102014819D02*
X157449428Y-102062438D01*
X157449428Y-102062438D02*
X157497047Y-102110057D01*
X157497047Y-102110057D02*
X157544666Y-102205295D01*
X157544666Y-102205295D02*
X157544666Y-102300533D01*
X157544666Y-102300533D02*
X157497047Y-102443390D01*
X157497047Y-102443390D02*
X156925619Y-103014819D01*
X156925619Y-103014819D02*
X157544666Y-103014819D01*
X140462666Y-101716819D02*
X140462666Y-102431104D01*
X140462666Y-102431104D02*
X140415047Y-102573961D01*
X140415047Y-102573961D02*
X140319809Y-102669200D01*
X140319809Y-102669200D02*
X140176952Y-102716819D01*
X140176952Y-102716819D02*
X140081714Y-102716819D01*
X141462666Y-102716819D02*
X140891238Y-102716819D01*
X141176952Y-102716819D02*
X141176952Y-101716819D01*
X141176952Y-101716819D02*
X141081714Y-101859676D01*
X141081714Y-101859676D02*
X140986476Y-101954914D01*
X140986476Y-101954914D02*
X140891238Y-102002533D01*
X147638095Y-89314819D02*
X147638095Y-90124342D01*
X147638095Y-90124342D02*
X147685714Y-90219580D01*
X147685714Y-90219580D02*
X147733333Y-90267200D01*
X147733333Y-90267200D02*
X147828571Y-90314819D01*
X147828571Y-90314819D02*
X148019047Y-90314819D01*
X148019047Y-90314819D02*
X148114285Y-90267200D01*
X148114285Y-90267200D02*
X148161904Y-90219580D01*
X148161904Y-90219580D02*
X148209523Y-90124342D01*
X148209523Y-90124342D02*
X148209523Y-89314819D01*
X148638095Y-89410057D02*
X148685714Y-89362438D01*
X148685714Y-89362438D02*
X148780952Y-89314819D01*
X148780952Y-89314819D02*
X149019047Y-89314819D01*
X149019047Y-89314819D02*
X149114285Y-89362438D01*
X149114285Y-89362438D02*
X149161904Y-89410057D01*
X149161904Y-89410057D02*
X149209523Y-89505295D01*
X149209523Y-89505295D02*
X149209523Y-89600533D01*
X149209523Y-89600533D02*
X149161904Y-89743390D01*
X149161904Y-89743390D02*
X148590476Y-90314819D01*
X148590476Y-90314819D02*
X149209523Y-90314819D01*
D12*
X154720000Y-103262000D02*
X156050000Y-103262000D01*
X154720000Y-104592000D02*
X154720000Y-103262000D01*
X154720000Y-105862000D02*
X154720000Y-118622000D01*
X154720000Y-105862000D02*
X157380000Y-105862000D01*
X154720000Y-118622000D02*
X157380000Y-118622000D01*
X157380000Y-105862000D02*
X157380000Y-118622000D01*
X139466000Y-103262000D02*
X140796000Y-103262000D01*
X139466000Y-104592000D02*
X139466000Y-103262000D01*
X139466000Y-105862000D02*
X139466000Y-118622000D01*
X139466000Y-105862000D02*
X142126000Y-105862000D01*
X139466000Y-118622000D02*
X142126000Y-118622000D01*
X142126000Y-105862000D02*
X142126000Y-118622000D01*
D10*
X136000000Y-98850000D02*
X136000000Y-99350000D01*
X136000000Y-98850000D02*
X136400000Y-98450000D01*
X136000000Y-108350000D02*
X136000000Y-112150000D01*
X136050000Y-119050000D02*
X136050000Y-118550000D01*
X136050000Y-119050000D02*
X136550000Y-119050000D01*
X143600000Y-91250000D02*
X143200000Y-91650000D01*
X143600000Y-91250000D02*
X144100000Y-91250000D01*
X153200000Y-91250000D02*
X152700000Y-91250000D01*
X153200000Y-91250000D02*
X153600000Y-91650000D01*
X160750000Y-119050000D02*
X160250000Y-119050000D01*
X160750000Y-119050000D02*
X160750000Y-118550000D01*
X160800000Y-98850000D02*
X160400000Y-98450000D01*
X160800000Y-98850000D02*
X160800000Y-99350000D01*
X160800000Y-108350000D02*
X160800000Y-112150000D01*
D13*
X135836040Y-117988000D02*
X136850000Y-118750000D01*
X136050000Y-98750000D02*
X135836040Y-117988000D01*
X142273000Y-118741000D02*
X136850000Y-118750000D01*
X159832000Y-118816000D02*
X154593020Y-118816000D01*
X160850000Y-117950000D02*
X160866000Y-98766000D01*
X143670000Y-91384000D02*
X136050000Y-98750000D01*
X160850000Y-117950000D02*
X159832000Y-118816000D01*
X142185490Y-96164000D02*
X142273000Y-118741000D01*
X155969255Y-102138500D02*
X154592000Y-103235500D01*
X154338000Y-95194000D02*
X155989000Y-96972000D01*
X154592000Y-103235500D02*
X154593020Y-118816000D01*
X153322000Y-91384000D02*
X143670000Y-91384000D01*
X143416000Y-95240000D02*
X142185490Y-96164000D01*
X154338000Y-95194000D02*
X143416000Y-95240000D01*
X155989000Y-96972000D02*
X155969255Y-102138500D01*
X153322000Y-91384000D02*
X160866000Y-98766000D01*
M02*
