M48
INCH,TZ
T1C0.0157
T2C0.0276
T3C0.0394
%
G90
G05
T1
X55113Y-38828
T2
X54094Y-39114
X54094Y-39902
X54094Y-40689
X54094Y-41476
X54094Y-42264
X54094Y-43051
X54094Y-43839
X54094Y-44626
X54094Y-45413
X54094Y-46201
X62756Y-39114
X62756Y-39902
X62756Y-40689
X62756Y-41476
X62756Y-42264
X62756Y-43051
X62756Y-43839
X62756Y-44626
X62756Y-45413
X62756Y-46201
T3
X55431Y-41178
X55431Y-42178
X55431Y-43178
X55431Y-44178
X55431Y-45178
X55431Y-46178
X61437Y-41178
X61437Y-42178
X61437Y-43178
X61437Y-44178
X61437Y-45178
X61437Y-46178
T0
M30
