G04 #@! TF.GenerationSoftware,KiCad,Pcbnew,7.99.0-unknown-556120554e~172~ubuntu22.04.1*
G04 #@! TF.CreationDate,2023-08-17T23:45:12+09:00*
G04 #@! TF.ProjectId,bGeigieCast V1.6.0(StampS3),62476569-6769-4654-9361-73742056312e,rev?*
G04 #@! TF.SameCoordinates,Original*
G04 #@! TF.FileFunction,Copper,L1,Top*
G04 #@! TF.FilePolarity,Positive*
%FSLAX46Y46*%
G04 Gerber Fmt 4.6, Leading zero omitted, Abs format (unit mm)*
G04 Created by KiCad (PCBNEW 7.99.0-unknown-556120554e~172~ubuntu22.04.1) date 2023-08-17 23:45:12*
%MOMM*%
%LPD*%
G01*
G04 APERTURE LIST*
G04 #@! TA.AperFunction,ComponentPad*
%ADD10C,1.400000*%
G04 #@! TD*
G04 #@! TA.AperFunction,ComponentPad*
%ADD11R,1.700000X1.700000*%
G04 #@! TD*
G04 #@! TA.AperFunction,ComponentPad*
%ADD12O,1.700000X1.700000*%
G04 #@! TD*
G04 #@! TA.AperFunction,ViaPad*
%ADD13C,0.800000*%
G04 #@! TD*
G04 #@! TA.AperFunction,Conductor*
%ADD14C,0.500000*%
G04 #@! TD*
G04 #@! TA.AperFunction,Conductor*
%ADD15C,0.250000*%
G04 #@! TD*
G04 #@! TA.AperFunction,Profile*
%ADD16C,0.150000*%
G04 #@! TD*
G04 APERTURE END LIST*
D10*
X137400000Y-99350000D03*
X137400000Y-101350000D03*
X137400000Y-103350000D03*
X137400000Y-105350000D03*
X137400000Y-107350000D03*
X137400000Y-109350000D03*
X137400000Y-111350000D03*
X137400000Y-113350000D03*
X137400000Y-115350000D03*
X137400000Y-117350000D03*
X159400000Y-117350000D03*
X159400000Y-115350000D03*
X159400000Y-113350000D03*
X159400000Y-111350000D03*
X159400000Y-109350000D03*
X159400000Y-107350000D03*
X159400000Y-105350000D03*
X159400000Y-103350000D03*
X159400000Y-101350000D03*
X159400000Y-99350000D03*
D11*
X140796000Y-104592000D03*
D12*
X140796000Y-107132000D03*
X140796000Y-109672000D03*
X140796000Y-112212000D03*
X140796000Y-114752000D03*
X140796000Y-117292000D03*
D11*
X156050000Y-104592000D03*
D12*
X156050000Y-107132000D03*
X156050000Y-109672000D03*
X156050000Y-112212000D03*
X156050000Y-114752000D03*
X156050000Y-117292000D03*
D13*
X139987000Y-98623000D03*
D14*
X158148000Y-103068000D02*
X157894000Y-114498000D01*
X139987000Y-96464000D02*
X142527000Y-93966333D01*
X142527000Y-93966333D02*
X154973000Y-93924000D01*
X139987000Y-98623000D02*
X139987000Y-96464000D01*
X157513000Y-96650267D02*
X157513000Y-102179000D01*
X157894000Y-114498000D02*
X156050000Y-117292000D01*
X154973000Y-93924000D02*
X157513000Y-96650267D01*
X157513000Y-102179000D02*
X158148000Y-103068000D01*
D15*
X154846000Y-94686000D02*
X156878000Y-96845000D01*
X137400000Y-103350000D02*
X141130000Y-99766000D01*
X156878000Y-102306000D02*
X157317506Y-103195000D01*
X141257000Y-96464000D02*
X143035000Y-94686000D01*
X143035000Y-94686000D02*
X154846000Y-94686000D01*
X157259000Y-108402000D02*
X156050000Y-109672000D01*
X141130000Y-99766000D02*
X141257000Y-96464000D01*
X156878000Y-96845000D02*
X156878000Y-102306000D01*
X157317506Y-103195000D02*
X157259000Y-108402000D01*
D16*
X135836040Y-117988000D02*
X136850000Y-118750000D01*
X135923000Y-98496000D02*
X135836040Y-117988000D01*
X141765000Y-118741000D02*
X136850000Y-118750000D01*
X159832000Y-118816000D02*
X154973000Y-118816000D01*
X160850000Y-117950000D02*
X160866000Y-97996000D01*
X143670000Y-91257000D02*
X135923000Y-98496000D01*
X160850000Y-117950000D02*
X159832000Y-118816000D01*
X141765000Y-96718000D02*
X141765000Y-118741000D01*
X156360127Y-102138500D02*
X154973000Y-103576000D01*
X154719000Y-95194000D02*
X156370000Y-96972000D01*
X154973000Y-103576000D02*
X154973000Y-118816000D01*
X153068000Y-91257000D02*
X143670000Y-91257000D01*
X143162000Y-95194000D02*
X141765000Y-96718000D01*
X154719000Y-95194000D02*
X143162000Y-95194000D01*
X156379872Y-96972000D02*
X156360127Y-102138500D01*
X153068000Y-91257000D02*
X160866000Y-97996000D01*
M02*
