<?xml version="1.0" encoding="UTF-8" standalone="no"?>
<svg
   version="1.0"
   width="1280.000000pt"
   height="1180.000000pt"
   viewBox="0 0 1280.000000 1180.000000"
   preserveAspectRatio="xMidYMid meet"
   id="svg3"
   sodipodi:docname="logo.svg"
   inkscape:version="1.4-dev (3db96bf, 2023-07-22)"
   inkscape:export-filename="logo.png"
   inkscape:export-xdpi="96"
   inkscape:export-ydpi="96"
   xmlns:inkscape="http://www.inkscape.org/namespaces/inkscape"
   xmlns:sodipodi="http://sodipodi.sourceforge.net/DTD/sodipodi-0.dtd"
   xmlns="http://www.w3.org/2000/svg"
   xmlns:svg="http://www.w3.org/2000/svg">
  <defs
     id="defs3" />
  <sodipodi:namedview
     id="namedview3"
     pagecolor="#ffffff"
     bordercolor="#000000"
     borderopacity="0.25"
     inkscape:showpageshadow="2"
     inkscape:pageopacity="0.0"
     inkscape:pagecheckerboard="0"
     inkscape:deskcolor="#d1d1d1"
     inkscape:document-units="pt"
     showgrid="false"
     inkscape:zoom="0.41986485"
     inkscape:cx="852.65532"
     inkscape:cy="715.70649"
     inkscape:window-width="1920"
     inkscape:window-height="1018"
     inkscape:window-x="0"
     inkscape:window-y="0"
     inkscape:window-maximized="1"
     inkscape:current-layer="g3" />
  <metadata
     id="metadata1">&#10;Created by potrace 1.15, written by Peter Selinger 2001-2017&#10;</metadata>
  <g
     transform="translate(0.000000,1180.000000) scale(0.100000,-0.100000)"
     fill="#000000"
     stroke="none"
     id="g3">
    <path
       d="M 6095.6586,10203.045 C 4314.0598,10115.791 2751.0879,9503.9994 1640.085,8457.9678 1527.6183,8351.437 1500.2899,8320.9996 1506.5964,8305.7809 c 4.2044,-10.1458 209.1671,-319.5925 456.1734,-685.8557 l 448.8158,-667.5932 21.0218,27.3936 c 11.5619,15.2187 57.81,70.006 103.0069,121.7496 375.2393,431.1962 866.0987,790.3573 1452.6074,1064.2938 558.1292,260.7469 1182.4771,427.1379 1860.4306,498.1585 222.8312,22.3208 919.7044,26.3791 1129.9225,5.0729 670.5959,-66.9622 1238.1849,-206.9742 1783.701,-442.3567 521.3411,-224.222 979.6166,-523.523 1354.8562,-883.6986 l 170.277,-162.3328 474.041,644.258 474.043,644.258 -87.241,79.1371 c -579.151,532.6542 -1396.8993,996.3171 -2254.5898,1276.341 -591.7642,192.7706 -1162.5064,306.4026 -1812.0805,359.1616 -182.8898,15.219 -816.6975,27.393 -985.9231,19.277 z"
       id="path1"
       style="stroke-width:1.03268" />
    <path
       d="m 5990.5495,6783.9118 c -1010.0982,-70.006 -1944.5179,-439.3129 -2699.201,-1066.323 l -34.686,-28.4082 385.7503,-573.2373 c 211.2693,-315.5343 385.7503,-574.252 387.8525,-576.2812 2.1021,-2.0291 39.9414,24.3499 83.0361,57.831 463.5311,355.1028 1044.7843,600.6311 1619.7309,684.8411 376.2904,55.8019 790.4203,51.7436 1153.0466,-9.1312 500.3191,-84.2101 978.5654,-276.9802 1405.3082,-565.1207 98.8026,-66.9623 120.8755,-79.1372 132.4375,-67.9768 46.248,48.6998 805.1355,1098.7895 800.9312,1108.9353 -6.3066,14.2041 -223.8824,178.566 -341.6045,257.7032 -623.2968,415.9775 -1330.681,671.6515 -2104.2837,757.8908 -135.5907,15.2187 -657.9828,28.4082 -788.3181,19.277 z"
       id="path2"
       style="stroke-width:1.03268" />
    <path
       d="m 6064.1259,3789.8879 c -303.7653,-45.6561 -565.4868,-191.7555 -738.9168,-411.9192 -219.678,-276.9802 -289.05,-627.0102 -190.2475,-958.7776 174.4811,-588.4561 828.2595,-920.2235 1429.4835,-726.4389 269.0792,87.2539 503.4724,279.0094 633.8077,520.4793 103.0069,191.7555 142.9483,377.4236 125.0798,596.5727 -44.1459,558.0186 -539.2096,993.2732 -1122.5649,986.1712 -60.9633,-1.0146 -121.9266,-3.0438 -136.6418,-6.0875 z"
       id="path3"
       style="fill:#6ea6be;fill-opacity:1;stroke-width:1.03268" />
  </g>
</svg>
