<?xml version="1.0" encoding="UTF-8" standalone="no"?>
<svg
   version="1.0"
   width="1280.000000pt"
   height="1180.000000pt"
   viewBox="0 0 1280.000000 1180.000000"
   preserveAspectRatio="xMidYMid meet"
   id="svg3"
   sodipodi:docname="logo inverted.svg"
   inkscape:version="1.4-dev (3db96bf, 2023-07-22)"
   inkscape:export-filename="logo inverted.png"
   inkscape:export-xdpi="96"
   inkscape:export-ydpi="96"
   xmlns:inkscape="http://www.inkscape.org/namespaces/inkscape"
   xmlns:sodipodi="http://sodipodi.sourceforge.net/DTD/sodipodi-0.dtd"
   xmlns="http://www.w3.org/2000/svg"
   xmlns:svg="http://www.w3.org/2000/svg">
  <defs
     id="defs3" />
  <sodipodi:namedview
     id="namedview3"
     pagecolor="#ffffff"
     bordercolor="#000000"
     borderopacity="0.25"
     inkscape:showpageshadow="2"
     inkscape:pageopacity="0.0"
     inkscape:pagecheckerboard="0"
     inkscape:deskcolor="#d1d1d1"
     inkscape:document-units="pt"
     showgrid="false"
     inkscape:zoom="0.41986485"
     inkscape:cx="852.65532"
     inkscape:cy="715.70649"
     inkscape:window-width="1920"
     inkscape:window-height="1018"
     inkscape:window-x="0"
     inkscape:window-y="0"
     inkscape:window-maximized="1"
     inkscape:current-layer="g3" />
  <metadata
     id="metadata1">&#10;Created by potrace 1.15, written by Peter Selinger 2001-2017&#10;</metadata>
  <g
     transform="translate(0.000000,1180.000000) scale(0.100000,-0.100000)"
     fill="#000000"
     stroke="none"
     id="g3">
    <rect
       style="fill:#000000;fill-opacity:1;stroke-width:7.51513"
       id="rect3"
       width="12820.426"
       height="11784.668"
       x="4.019805"
       y="-11777.362"
       transform="scale(1,-1)" />
    <path
       d="M 6062.5784,10203.347 C 4298.7546,10114.551 2751.3765,9491.9477 1651.458,8427.4321 c -111.3446,-108.4133 -138.4003,-139.3885 -132.1567,-154.8762 4.1624,-10.325 207.0802,-325.2398 451.6222,-697.9751 l 444.3379,-679.39 20.8121,27.8777 c 11.4465,15.4876 57.2332,71.2431 101.9792,123.901 371.4956,438.8157 857.4576,804.3234 1438.1148,1083.1005 552.5606,265.3544 1170.6795,434.6857 1841.869,506.9612 220.6081,22.7152 910.5285,26.8452 1118.6492,5.1626 663.9055,-68.1455 1225.8316,-210.6316 1765.9051,-450.1734 516.1396,-228.1841 969.8429,-532.7739 1341.3382,-899.3141 l 168.578,-165.2012 469.312,655.6423 469.313,655.6424 -86.37,80.5355 c -573.374,542.0665 -1382.9624,1013.9226 -2232.0957,1298.8951 -585.8601,196.1766 -1150.9081,311.8176 -1794.0013,365.5076 -181.0651,15.488 -808.5493,27.878 -976.0866,19.619 z"
       id="path1"
       style="fill:#ffffff;fill-opacity:1;stroke-width:1.03655" />
    <path
       d="M 5958.518,6723.7945 C 4958.4976,6652.5515 4033.4006,6276.7188 3286.247,5638.629 l -34.34,-28.9101 381.9017,-583.3668 c 209.1614,-321.11 381.9016,-584.3994 383.9829,-586.4644 2.0811,-2.065 39.5429,24.7802 82.2076,58.853 458.9064,361.3776 1034.3605,611.2444 1603.5709,696.9426 372.5361,56.7879 782.5342,52.6579 1141.5425,-9.2926 495.3275,-85.6982 968.8023,-281.8746 1391.2876,-575.1067 97.8168,-68.1456 119.6695,-80.5356 131.1161,-69.178 45.7866,49.5603 797.1027,1118.2057 792.9402,1128.5308 -6.2435,14.4551 -221.6485,181.7214 -338.1962,262.2569 -617.0782,423.3281 -1317.4047,683.52 -2083.2893,771.2833 -134.2379,15.4875 -651.418,28.9101 -780.453,19.6175 z"
       id="path2"
       style="fill:#ffffff;fill-opacity:1;stroke-width:1.03655" />
    <path
       d="m 6031.3604,3676.8645 c -300.7347,-46.4628 -559.845,-195.1439 -731.5447,-419.198 -217.4863,-281.8747 -286.1661,-638.0898 -188.3493,-975.7197 172.7402,-598.8545 819.9959,-936.4844 1415.2214,-739.2756 266.3947,88.7958 498.4493,283.9397 627.4842,529.6765 101.9792,195.1439 141.5222,384.0929 123.8319,607.1145 -43.7054,567.8791 -533.8298,1010.825 -1111.365,1003.5974 -60.3551,-1.0325 -120.7101,-3.0976 -135.2785,-6.1951 z"
       id="path3"
       style="fill:#6ea6be;fill-opacity:1;stroke-width:1.03655" />
  </g>
</svg>
