M48
; DRILL file {KiCad (5.1.0-4-gc924fc765)} date 2019 March 12, Tuesday 10:18:23
; FORMAT={-:-/ absolute / inch / decimal}
; #@! TF.CreationDate,2019-03-12T10:18:23+09:00
; #@! TF.GenerationSoftware,Kicad,Pcbnew,(5.1.0-4-gc924fc765)
FMAT,2
INCH
T1C0.0157
T2C0.0197
T3C0.0276
T4C0.0354
%
G90
G05
T1
X5.5547Y-3.8859
X5.5552Y-4.0324
X6.1448Y-3.9592
T2
X5.4823Y-4.6457
X5.6201Y-3.8673
X5.6642Y-4.5523
X5.7419Y-3.8916
T3
X5.4173Y-3.874
X5.4173Y-3.9528
X5.4173Y-4.0315
X5.4173Y-4.1102
X5.4173Y-4.189
X5.4173Y-4.2677
X5.4173Y-4.3465
X5.4173Y-4.4252
X5.4173Y-4.5039
X5.4173Y-4.5827
X6.2835Y-3.874
X6.2835Y-3.9528
X6.2835Y-4.0315
X6.2835Y-4.1102
X6.2835Y-4.189
X6.2835Y-4.2677
X6.2835Y-4.3465
X6.2835Y-4.4252
X6.2835Y-4.5039
X6.2835Y-4.5827
T4
X5.563Y-4.7925
X5.6811Y-4.7925
T0
M30
