%TF.GenerationSoftware,KiCad,Pcbnew,(5.1.0-4-gc924fc765)*%
%TF.CreationDate,2019-03-12T10:18:20+09:00*%
%TF.ProjectId,xbee,78626565-2e6b-4696-9361-645f70636258,rev?*%
%TF.SameCoordinates,Original*%
%TF.FileFunction,Copper,L2,Bot*%
%TF.FilePolarity,Positive*%
%FSLAX46Y46*%
G04 Gerber Fmt 4.6, Leading zero omitted, Abs format (unit mm)*
G04 Created by KiCad (PCBNEW (5.1.0-4-gc924fc765)) date 2019-03-12 10:18:20*
%MOMM*%
%LPD*%
G04 APERTURE LIST*
%ADD10C,1.300000*%
%ADD11R,0.700000X1.500000*%
%ADD12R,1.000000X0.800000*%
%ADD13C,1.000000*%
%ADD14C,0.800000*%
%ADD15C,0.500000*%
%ADD16C,0.250000*%
G04 APERTURE END LIST*
D10*
X159600000Y-98400000D03*
X159600000Y-100400000D03*
X159600000Y-102400000D03*
X159600000Y-104400000D03*
X159600000Y-106400000D03*
X159600000Y-108400000D03*
X159600000Y-110400000D03*
X159600000Y-112400000D03*
X159600000Y-114400000D03*
X159600000Y-116400000D03*
X137600000Y-116400000D03*
X137600000Y-114400000D03*
X137600000Y-112400000D03*
X137600000Y-110400000D03*
X137600000Y-108400000D03*
X137600000Y-106400000D03*
X137600000Y-104400000D03*
X137600000Y-102400000D03*
X137600000Y-100400000D03*
X137600000Y-98400000D03*
D11*
X145050000Y-119970000D03*
X142050000Y-119970000D03*
X140550000Y-119970000D03*
D12*
X146450000Y-122830000D03*
X139150000Y-122830000D03*
X139150000Y-120620000D03*
X146450000Y-120620000D03*
D13*
X145845514Y-98845514D03*
X142750000Y-98229400D03*
X143870714Y-115629286D03*
X139250000Y-118000000D03*
D14*
X141089500Y-98702200D03*
X141102100Y-102422200D03*
X156078000Y-100562700D03*
D15*
X143366114Y-98845514D02*
X145845514Y-98845514D01*
X142750000Y-98229400D02*
X143366114Y-98845514D01*
X143100000Y-116400000D02*
X143870714Y-115629286D01*
X137600000Y-116400000D02*
X143100000Y-116400000D01*
X138282500Y-98400000D02*
X137600000Y-98400000D01*
X140480000Y-118000000D02*
X139250000Y-118000000D01*
X142050000Y-119570000D02*
X140480000Y-118000000D01*
X142050000Y-119970000D02*
X142050000Y-119570000D01*
D16*
X145050000Y-119970000D02*
X145050000Y-102662700D01*
X145050000Y-102662700D02*
X141089500Y-98702200D01*
X141102100Y-102422200D02*
X137622200Y-102422200D01*
X137622200Y-102422200D02*
X137600000Y-102400000D01*
X137600000Y-100400000D02*
X136575400Y-99375400D01*
X136575400Y-99375400D02*
X136575400Y-98023100D01*
X136575400Y-98023100D02*
X137194100Y-97404400D01*
X137194100Y-97404400D02*
X152919700Y-97404400D01*
X152919700Y-97404400D02*
X156078000Y-100562700D01*
M02*
