M48
; DRILL file {KiCad (5.1.0-47-g0a9c99914)} date 2019 April 02, Tuesday 18:09:55
; FORMAT={-:-/ absolute / inch / decimal}
; #@! TF.CreationDate,2019-04-02T18:09:55+09:00
; #@! TF.GenerationSoftware,Kicad,Pcbnew,(5.1.0-47-g0a9c99914)
FMAT,2
INCH
T1C0.0157
T2C0.0197
T3C0.0276
T4C0.0354
%
G90
G05
T1
X5.6267Y-4.2517
X5.7939Y-4.6461
X6.0929Y-3.9473
X6.1465Y-3.9592
T2
X5.6988Y-4.6063
X5.7365Y-4.747
T3
X5.4173Y-3.9173
X5.4173Y-3.9961
X5.4173Y-4.0748
X5.4173Y-4.1535
X5.4173Y-4.2323
X5.4173Y-4.311
X5.4173Y-4.3898
X5.4173Y-4.4685
X5.4173Y-4.5472
X5.4173Y-4.626
X6.2835Y-3.9173
X6.2835Y-3.9961
X6.2835Y-4.0748
X6.2835Y-4.1535
X6.2835Y-4.2323
X6.2835Y-4.311
X6.2835Y-4.3898
X6.2835Y-4.4685
X6.2835Y-4.5472
X6.2835Y-4.626
T4
X5.563Y-4.7472
X5.6811Y-4.7472
T0
M30
