%TF.GenerationSoftware,KiCad,Pcbnew,(5.1.0-47-g0a9c99914)*%
%TF.CreationDate,2019-04-02T18:09:47+09:00*%
%TF.ProjectId,xbee,78626565-2e6b-4696-9361-645f70636258,rev?*%
%TF.SameCoordinates,Original*%
%TF.FileFunction,Copper,L2,Bot*%
%TF.FilePolarity,Positive*%
%FSLAX46Y46*%
G04 Gerber Fmt 4.6, Leading zero omitted, Abs format (unit mm)*
G04 Created by KiCad (PCBNEW (5.1.0-47-g0a9c99914)) date 2019-04-02 18:09:47*
%MOMM*%
%LPD*%
G04 APERTURE LIST*
%ADD10C,1.300000*%
%ADD11R,0.700000X1.500000*%
%ADD12R,1.000000X0.800000*%
%ADD13C,1.000000*%
%ADD14C,0.800000*%
%ADD15C,0.500000*%
%ADD16C,0.250000*%
G04 APERTURE END LIST*
D10*
X159600000Y-99500000D03*
X159600000Y-101500000D03*
X159600000Y-103500000D03*
X159600000Y-105500000D03*
X159600000Y-107500000D03*
X159600000Y-109500000D03*
X159600000Y-111500000D03*
X159600000Y-113500000D03*
X159600000Y-115500000D03*
X159600000Y-117500000D03*
X137600000Y-117500000D03*
X137600000Y-115500000D03*
X137600000Y-113500000D03*
X137600000Y-111500000D03*
X137600000Y-109500000D03*
X137600000Y-107500000D03*
X137600000Y-105500000D03*
X137600000Y-103500000D03*
X137600000Y-101500000D03*
X137600000Y-99500000D03*
D11*
X145050000Y-118820000D03*
X142050000Y-118820000D03*
X140550000Y-118820000D03*
D12*
X146450000Y-121680000D03*
X139150000Y-121680000D03*
X139150000Y-119470000D03*
X146450000Y-119470000D03*
D13*
X144750000Y-117000000D03*
D14*
X147164400Y-118011100D03*
X142918700Y-107992000D03*
X156120600Y-100562700D03*
X154759300Y-100262200D03*
D13*
X145707300Y-120575000D03*
D15*
X137600000Y-117500000D02*
X137500000Y-119750000D01*
X137500000Y-119750000D02*
X138200000Y-120230000D01*
X138200000Y-120230000D02*
X138290000Y-120320000D01*
X138290000Y-120320000D02*
X139708000Y-120320000D01*
X139708000Y-120320000D02*
X140868000Y-121480000D01*
X140868000Y-121480000D02*
X141732000Y-121480000D01*
X141732000Y-121480000D02*
X143000000Y-120212000D01*
X143000000Y-120212000D02*
X143000000Y-118750000D01*
X143000000Y-118750000D02*
X144750000Y-117000000D01*
X142050000Y-118820000D02*
X142050000Y-103950000D01*
X142050000Y-103950000D02*
X137600000Y-99500000D01*
D16*
X147164400Y-118011100D02*
X147164400Y-112237700D01*
X147164400Y-112237700D02*
X142918700Y-107992000D01*
X156120600Y-100562700D02*
X153615600Y-98057700D01*
X153615600Y-98057700D02*
X137007500Y-98057700D01*
X137007500Y-98057700D02*
X136125100Y-98940100D01*
X136125100Y-98940100D02*
X136125100Y-102025100D01*
X136125100Y-102025100D02*
X137600000Y-103500000D01*
X137600000Y-101500000D02*
X136575500Y-100475500D01*
X136575500Y-100475500D02*
X136575500Y-99126600D01*
X136575500Y-99126600D02*
X137194000Y-98508100D01*
X137194000Y-98508100D02*
X153005200Y-98508100D01*
X153005200Y-98508100D02*
X154759300Y-100262200D01*
D15*
X145050000Y-118820000D02*
X145050000Y-120020300D01*
X145707300Y-120575000D02*
X145152600Y-120020300D01*
X145152600Y-120020300D02*
X145050000Y-120020300D01*
M02*
