%TF.GenerationSoftware,KiCad,Pcbnew,(5.1.0-511-gbeef7c9f2)*%
%TF.CreationDate,2019-05-09T19:05:29+09:00*%
%TF.ProjectId,xbee,78626565-2e6b-4696-9361-645f70636258,rev?*%
%TF.SameCoordinates,Original*%
%TF.FileFunction,Soldermask,Bot*%
%TF.FilePolarity,Negative*%
%FSLAX46Y46*%
G04 Gerber Fmt 4.6, Leading zero omitted, Abs format (unit mm)*
G04 Created by KiCad (PCBNEW (5.1.0-511-gbeef7c9f2)) date 2019-05-09 19:05:29*
%MOMM*%
%LPD*%
G04 APERTURE LIST*
%ADD10C,0.150000*%
%ADD11C,0.100000*%
G04 APERTURE END LIST*
D10*
X143250000Y-90250000D02*
X153500000Y-90250000D01*
X135750000Y-96750000D02*
X143250000Y-90250000D01*
X135750000Y-96750000D02*
X135850000Y-122250000D01*
X153500000Y-90250000D02*
X161201100Y-96750000D01*
X161201100Y-96750000D02*
X161250000Y-122250000D01*
X161250000Y-122250000D02*
X135850000Y-122250000D01*
D11*
G36*
X147001000Y-122131000D02*
G01*
X145899000Y-122131000D01*
X145899000Y-121229000D01*
X147001000Y-121229000D01*
X147001000Y-122131000D01*
X147001000Y-122131000D01*
G37*
G36*
X139701000Y-122131000D02*
G01*
X138599000Y-122131000D01*
X138599000Y-121229000D01*
X139701000Y-121229000D01*
X139701000Y-122131000D01*
X139701000Y-122131000D01*
G37*
G36*
X144397740Y-120088627D02*
G01*
X144446136Y-120098253D01*
X144483902Y-120113896D01*
X144537311Y-120136019D01*
X144537312Y-120136020D01*
X144619369Y-120190848D01*
X144689152Y-120260631D01*
X144689153Y-120260633D01*
X144743981Y-120342689D01*
X144781747Y-120433865D01*
X144801000Y-120530655D01*
X144801000Y-120629345D01*
X144781747Y-120726135D01*
X144743981Y-120817311D01*
X144743980Y-120817312D01*
X144689152Y-120899369D01*
X144619369Y-120969152D01*
X144578062Y-120996752D01*
X144537311Y-121023981D01*
X144483902Y-121046104D01*
X144446136Y-121061747D01*
X144397740Y-121071374D01*
X144349345Y-121081000D01*
X144250655Y-121081000D01*
X144202260Y-121071374D01*
X144153864Y-121061747D01*
X144116098Y-121046104D01*
X144062689Y-121023981D01*
X144021938Y-120996752D01*
X143980631Y-120969152D01*
X143910848Y-120899369D01*
X143856020Y-120817312D01*
X143856019Y-120817311D01*
X143818253Y-120726135D01*
X143799000Y-120629345D01*
X143799000Y-120530655D01*
X143818253Y-120433865D01*
X143856019Y-120342689D01*
X143910847Y-120260633D01*
X143910848Y-120260631D01*
X143980631Y-120190848D01*
X144062688Y-120136020D01*
X144062689Y-120136019D01*
X144116098Y-120113896D01*
X144153864Y-120098253D01*
X144202260Y-120088627D01*
X144250655Y-120079000D01*
X144349345Y-120079000D01*
X144397740Y-120088627D01*
X144397740Y-120088627D01*
G37*
G36*
X141397740Y-120088627D02*
G01*
X141446136Y-120098253D01*
X141483902Y-120113896D01*
X141537311Y-120136019D01*
X141537312Y-120136020D01*
X141619369Y-120190848D01*
X141689152Y-120260631D01*
X141689153Y-120260633D01*
X141743981Y-120342689D01*
X141781747Y-120433865D01*
X141801000Y-120530655D01*
X141801000Y-120629345D01*
X141781747Y-120726135D01*
X141743981Y-120817311D01*
X141743980Y-120817312D01*
X141689152Y-120899369D01*
X141619369Y-120969152D01*
X141578062Y-120996752D01*
X141537311Y-121023981D01*
X141483902Y-121046104D01*
X141446136Y-121061747D01*
X141397740Y-121071374D01*
X141349345Y-121081000D01*
X141250655Y-121081000D01*
X141202260Y-121071374D01*
X141153864Y-121061747D01*
X141116098Y-121046104D01*
X141062689Y-121023981D01*
X141021938Y-120996752D01*
X140980631Y-120969152D01*
X140910848Y-120899369D01*
X140856020Y-120817312D01*
X140856019Y-120817311D01*
X140818253Y-120726135D01*
X140799000Y-120629345D01*
X140799000Y-120530655D01*
X140818253Y-120433865D01*
X140856019Y-120342689D01*
X140910847Y-120260633D01*
X140910848Y-120260631D01*
X140980631Y-120190848D01*
X141062688Y-120136020D01*
X141062689Y-120136019D01*
X141116098Y-120113896D01*
X141153864Y-120098253D01*
X141202260Y-120088627D01*
X141250655Y-120079000D01*
X141349345Y-120079000D01*
X141397740Y-120088627D01*
X141397740Y-120088627D01*
G37*
G36*
X147001000Y-119921000D02*
G01*
X145899000Y-119921000D01*
X145899000Y-119019000D01*
X147001000Y-119019000D01*
X147001000Y-119921000D01*
X147001000Y-119921000D01*
G37*
G36*
X139701000Y-119921000D02*
G01*
X138599000Y-119921000D01*
X138599000Y-119019000D01*
X139701000Y-119019000D01*
X139701000Y-119921000D01*
X139701000Y-119921000D01*
G37*
G36*
X142451000Y-119621000D02*
G01*
X141649000Y-119621000D01*
X141649000Y-118019000D01*
X142451000Y-118019000D01*
X142451000Y-119621000D01*
X142451000Y-119621000D01*
G37*
G36*
X140951000Y-119621000D02*
G01*
X140149000Y-119621000D01*
X140149000Y-118019000D01*
X140951000Y-118019000D01*
X140951000Y-119621000D01*
X140951000Y-119621000D01*
G37*
G36*
X145451000Y-119621000D02*
G01*
X144649000Y-119621000D01*
X144649000Y-118019000D01*
X145451000Y-118019000D01*
X145451000Y-119621000D01*
X145451000Y-119621000D01*
G37*
G36*
X159619059Y-116627860D02*
G01*
X159755732Y-116684472D01*
X159878735Y-116766660D01*
X159983340Y-116871265D01*
X160065528Y-116994268D01*
X160122140Y-117130941D01*
X160151000Y-117276033D01*
X160151000Y-117423967D01*
X160122140Y-117569059D01*
X160065528Y-117705732D01*
X159983340Y-117828735D01*
X159878735Y-117933340D01*
X159755732Y-118015528D01*
X159755731Y-118015529D01*
X159755730Y-118015529D01*
X159619059Y-118072140D01*
X159473968Y-118101000D01*
X159326032Y-118101000D01*
X159180941Y-118072140D01*
X159044270Y-118015529D01*
X159044269Y-118015529D01*
X159044268Y-118015528D01*
X158921265Y-117933340D01*
X158816660Y-117828735D01*
X158734472Y-117705732D01*
X158677860Y-117569059D01*
X158649000Y-117423967D01*
X158649000Y-117276033D01*
X158677860Y-117130941D01*
X158734472Y-116994268D01*
X158816660Y-116871265D01*
X158921265Y-116766660D01*
X159044268Y-116684472D01*
X159180941Y-116627860D01*
X159326032Y-116599000D01*
X159473968Y-116599000D01*
X159619059Y-116627860D01*
X159619059Y-116627860D01*
G37*
G36*
X137619059Y-116627860D02*
G01*
X137755732Y-116684472D01*
X137878735Y-116766660D01*
X137983340Y-116871265D01*
X138065528Y-116994268D01*
X138122140Y-117130941D01*
X138151000Y-117276033D01*
X138151000Y-117423967D01*
X138122140Y-117569059D01*
X138065528Y-117705732D01*
X137983340Y-117828735D01*
X137878735Y-117933340D01*
X137755732Y-118015528D01*
X137755731Y-118015529D01*
X137755730Y-118015529D01*
X137619059Y-118072140D01*
X137473968Y-118101000D01*
X137326032Y-118101000D01*
X137180941Y-118072140D01*
X137044270Y-118015529D01*
X137044269Y-118015529D01*
X137044268Y-118015528D01*
X136921265Y-117933340D01*
X136816660Y-117828735D01*
X136734472Y-117705732D01*
X136677860Y-117569059D01*
X136649000Y-117423967D01*
X136649000Y-117276033D01*
X136677860Y-117130941D01*
X136734472Y-116994268D01*
X136816660Y-116871265D01*
X136921265Y-116766660D01*
X137044268Y-116684472D01*
X137180941Y-116627860D01*
X137326032Y-116599000D01*
X137473968Y-116599000D01*
X137619059Y-116627860D01*
X137619059Y-116627860D01*
G37*
G36*
X137619059Y-114627860D02*
G01*
X137755732Y-114684472D01*
X137878735Y-114766660D01*
X137983340Y-114871265D01*
X138065528Y-114994268D01*
X138122140Y-115130941D01*
X138151000Y-115276033D01*
X138151000Y-115423967D01*
X138122140Y-115569059D01*
X138065528Y-115705732D01*
X137983340Y-115828735D01*
X137878735Y-115933340D01*
X137755732Y-116015528D01*
X137755731Y-116015529D01*
X137755730Y-116015529D01*
X137619059Y-116072140D01*
X137473968Y-116101000D01*
X137326032Y-116101000D01*
X137180941Y-116072140D01*
X137044270Y-116015529D01*
X137044269Y-116015529D01*
X137044268Y-116015528D01*
X136921265Y-115933340D01*
X136816660Y-115828735D01*
X136734472Y-115705732D01*
X136677860Y-115569059D01*
X136649000Y-115423967D01*
X136649000Y-115276033D01*
X136677860Y-115130941D01*
X136734472Y-114994268D01*
X136816660Y-114871265D01*
X136921265Y-114766660D01*
X137044268Y-114684472D01*
X137180941Y-114627860D01*
X137326032Y-114599000D01*
X137473968Y-114599000D01*
X137619059Y-114627860D01*
X137619059Y-114627860D01*
G37*
G36*
X159619059Y-114627860D02*
G01*
X159755732Y-114684472D01*
X159878735Y-114766660D01*
X159983340Y-114871265D01*
X160065528Y-114994268D01*
X160122140Y-115130941D01*
X160151000Y-115276033D01*
X160151000Y-115423967D01*
X160122140Y-115569059D01*
X160065528Y-115705732D01*
X159983340Y-115828735D01*
X159878735Y-115933340D01*
X159755732Y-116015528D01*
X159755731Y-116015529D01*
X159755730Y-116015529D01*
X159619059Y-116072140D01*
X159473968Y-116101000D01*
X159326032Y-116101000D01*
X159180941Y-116072140D01*
X159044270Y-116015529D01*
X159044269Y-116015529D01*
X159044268Y-116015528D01*
X158921265Y-115933340D01*
X158816660Y-115828735D01*
X158734472Y-115705732D01*
X158677860Y-115569059D01*
X158649000Y-115423967D01*
X158649000Y-115276033D01*
X158677860Y-115130941D01*
X158734472Y-114994268D01*
X158816660Y-114871265D01*
X158921265Y-114766660D01*
X159044268Y-114684472D01*
X159180941Y-114627860D01*
X159326032Y-114599000D01*
X159473968Y-114599000D01*
X159619059Y-114627860D01*
X159619059Y-114627860D01*
G37*
G36*
X137619059Y-112627860D02*
G01*
X137755732Y-112684472D01*
X137878735Y-112766660D01*
X137983340Y-112871265D01*
X138065528Y-112994268D01*
X138122140Y-113130941D01*
X138151000Y-113276033D01*
X138151000Y-113423967D01*
X138122140Y-113569059D01*
X138065528Y-113705732D01*
X137983340Y-113828735D01*
X137878735Y-113933340D01*
X137755732Y-114015528D01*
X137755731Y-114015529D01*
X137755730Y-114015529D01*
X137619059Y-114072140D01*
X137473968Y-114101000D01*
X137326032Y-114101000D01*
X137180941Y-114072140D01*
X137044270Y-114015529D01*
X137044269Y-114015529D01*
X137044268Y-114015528D01*
X136921265Y-113933340D01*
X136816660Y-113828735D01*
X136734472Y-113705732D01*
X136677860Y-113569059D01*
X136649000Y-113423967D01*
X136649000Y-113276033D01*
X136677860Y-113130941D01*
X136734472Y-112994268D01*
X136816660Y-112871265D01*
X136921265Y-112766660D01*
X137044268Y-112684472D01*
X137180941Y-112627860D01*
X137326032Y-112599000D01*
X137473968Y-112599000D01*
X137619059Y-112627860D01*
X137619059Y-112627860D01*
G37*
G36*
X159619059Y-112627860D02*
G01*
X159755732Y-112684472D01*
X159878735Y-112766660D01*
X159983340Y-112871265D01*
X160065528Y-112994268D01*
X160122140Y-113130941D01*
X160151000Y-113276033D01*
X160151000Y-113423967D01*
X160122140Y-113569059D01*
X160065528Y-113705732D01*
X159983340Y-113828735D01*
X159878735Y-113933340D01*
X159755732Y-114015528D01*
X159755731Y-114015529D01*
X159755730Y-114015529D01*
X159619059Y-114072140D01*
X159473968Y-114101000D01*
X159326032Y-114101000D01*
X159180941Y-114072140D01*
X159044270Y-114015529D01*
X159044269Y-114015529D01*
X159044268Y-114015528D01*
X158921265Y-113933340D01*
X158816660Y-113828735D01*
X158734472Y-113705732D01*
X158677860Y-113569059D01*
X158649000Y-113423967D01*
X158649000Y-113276033D01*
X158677860Y-113130941D01*
X158734472Y-112994268D01*
X158816660Y-112871265D01*
X158921265Y-112766660D01*
X159044268Y-112684472D01*
X159180941Y-112627860D01*
X159326032Y-112599000D01*
X159473968Y-112599000D01*
X159619059Y-112627860D01*
X159619059Y-112627860D01*
G37*
G36*
X145551000Y-113901000D02*
G01*
X143749000Y-113901000D01*
X143749000Y-111799000D01*
X145551000Y-111799000D01*
X145551000Y-113901000D01*
X145551000Y-113901000D01*
G37*
G36*
X137619059Y-110627860D02*
G01*
X137755732Y-110684472D01*
X137878735Y-110766660D01*
X137983340Y-110871265D01*
X138065528Y-110994268D01*
X138122140Y-111130941D01*
X138151000Y-111276033D01*
X138151000Y-111423967D01*
X138122140Y-111569059D01*
X138065528Y-111705732D01*
X137983340Y-111828735D01*
X137878735Y-111933340D01*
X137755732Y-112015528D01*
X137755731Y-112015529D01*
X137755730Y-112015529D01*
X137619059Y-112072140D01*
X137473968Y-112101000D01*
X137326032Y-112101000D01*
X137180941Y-112072140D01*
X137044270Y-112015529D01*
X137044269Y-112015529D01*
X137044268Y-112015528D01*
X136921265Y-111933340D01*
X136816660Y-111828735D01*
X136734472Y-111705732D01*
X136677860Y-111569059D01*
X136649000Y-111423967D01*
X136649000Y-111276033D01*
X136677860Y-111130941D01*
X136734472Y-110994268D01*
X136816660Y-110871265D01*
X136921265Y-110766660D01*
X137044268Y-110684472D01*
X137180941Y-110627860D01*
X137326032Y-110599000D01*
X137473968Y-110599000D01*
X137619059Y-110627860D01*
X137619059Y-110627860D01*
G37*
G36*
X159619059Y-110627860D02*
G01*
X159755732Y-110684472D01*
X159878735Y-110766660D01*
X159983340Y-110871265D01*
X160065528Y-110994268D01*
X160122140Y-111130941D01*
X160151000Y-111276033D01*
X160151000Y-111423967D01*
X160122140Y-111569059D01*
X160065528Y-111705732D01*
X159983340Y-111828735D01*
X159878735Y-111933340D01*
X159755732Y-112015528D01*
X159755731Y-112015529D01*
X159755730Y-112015529D01*
X159619059Y-112072140D01*
X159473968Y-112101000D01*
X159326032Y-112101000D01*
X159180941Y-112072140D01*
X159044270Y-112015529D01*
X159044269Y-112015529D01*
X159044268Y-112015528D01*
X158921265Y-111933340D01*
X158816660Y-111828735D01*
X158734472Y-111705732D01*
X158677860Y-111569059D01*
X158649000Y-111423967D01*
X158649000Y-111276033D01*
X158677860Y-111130941D01*
X158734472Y-110994268D01*
X158816660Y-110871265D01*
X158921265Y-110766660D01*
X159044268Y-110684472D01*
X159180941Y-110627860D01*
X159326032Y-110599000D01*
X159473968Y-110599000D01*
X159619059Y-110627860D01*
X159619059Y-110627860D01*
G37*
G36*
X137619059Y-108627860D02*
G01*
X137755732Y-108684472D01*
X137878735Y-108766660D01*
X137983340Y-108871265D01*
X138065528Y-108994268D01*
X138122140Y-109130941D01*
X138151000Y-109276033D01*
X138151000Y-109423967D01*
X138122140Y-109569059D01*
X138065528Y-109705732D01*
X137983340Y-109828735D01*
X137878735Y-109933340D01*
X137755732Y-110015528D01*
X137755731Y-110015529D01*
X137755730Y-110015529D01*
X137619059Y-110072140D01*
X137473968Y-110101000D01*
X137326032Y-110101000D01*
X137180941Y-110072140D01*
X137044270Y-110015529D01*
X137044269Y-110015529D01*
X137044268Y-110015528D01*
X136921265Y-109933340D01*
X136816660Y-109828735D01*
X136734472Y-109705732D01*
X136677860Y-109569059D01*
X136649000Y-109423967D01*
X136649000Y-109276033D01*
X136677860Y-109130941D01*
X136734472Y-108994268D01*
X136816660Y-108871265D01*
X136921265Y-108766660D01*
X137044268Y-108684472D01*
X137180941Y-108627860D01*
X137326032Y-108599000D01*
X137473968Y-108599000D01*
X137619059Y-108627860D01*
X137619059Y-108627860D01*
G37*
G36*
X159619059Y-108627860D02*
G01*
X159755732Y-108684472D01*
X159878735Y-108766660D01*
X159983340Y-108871265D01*
X160065528Y-108994268D01*
X160122140Y-109130941D01*
X160151000Y-109276033D01*
X160151000Y-109423967D01*
X160122140Y-109569059D01*
X160065528Y-109705732D01*
X159983340Y-109828735D01*
X159878735Y-109933340D01*
X159755732Y-110015528D01*
X159755731Y-110015529D01*
X159755730Y-110015529D01*
X159619059Y-110072140D01*
X159473968Y-110101000D01*
X159326032Y-110101000D01*
X159180941Y-110072140D01*
X159044270Y-110015529D01*
X159044269Y-110015529D01*
X159044268Y-110015528D01*
X158921265Y-109933340D01*
X158816660Y-109828735D01*
X158734472Y-109705732D01*
X158677860Y-109569059D01*
X158649000Y-109423967D01*
X158649000Y-109276033D01*
X158677860Y-109130941D01*
X158734472Y-108994268D01*
X158816660Y-108871265D01*
X158921265Y-108766660D01*
X159044268Y-108684472D01*
X159180941Y-108627860D01*
X159326032Y-108599000D01*
X159473968Y-108599000D01*
X159619059Y-108627860D01*
X159619059Y-108627860D01*
G37*
G36*
X145551000Y-109901000D02*
G01*
X143749000Y-109901000D01*
X143749000Y-107799000D01*
X145551000Y-107799000D01*
X145551000Y-109901000D01*
X145551000Y-109901000D01*
G37*
G36*
X159619059Y-106627860D02*
G01*
X159755732Y-106684472D01*
X159878735Y-106766660D01*
X159983340Y-106871265D01*
X160065528Y-106994268D01*
X160122140Y-107130941D01*
X160151000Y-107276033D01*
X160151000Y-107423967D01*
X160122140Y-107569059D01*
X160065528Y-107705732D01*
X159983340Y-107828735D01*
X159878735Y-107933340D01*
X159755732Y-108015528D01*
X159755731Y-108015529D01*
X159755730Y-108015529D01*
X159619059Y-108072140D01*
X159473968Y-108101000D01*
X159326032Y-108101000D01*
X159180941Y-108072140D01*
X159044270Y-108015529D01*
X159044269Y-108015529D01*
X159044268Y-108015528D01*
X158921265Y-107933340D01*
X158816660Y-107828735D01*
X158734472Y-107705732D01*
X158677860Y-107569059D01*
X158649000Y-107423967D01*
X158649000Y-107276033D01*
X158677860Y-107130941D01*
X158734472Y-106994268D01*
X158816660Y-106871265D01*
X158921265Y-106766660D01*
X159044268Y-106684472D01*
X159180941Y-106627860D01*
X159326032Y-106599000D01*
X159473968Y-106599000D01*
X159619059Y-106627860D01*
X159619059Y-106627860D01*
G37*
G36*
X137619059Y-106627860D02*
G01*
X137755732Y-106684472D01*
X137878735Y-106766660D01*
X137983340Y-106871265D01*
X138065528Y-106994268D01*
X138122140Y-107130941D01*
X138151000Y-107276033D01*
X138151000Y-107423967D01*
X138122140Y-107569059D01*
X138065528Y-107705732D01*
X137983340Y-107828735D01*
X137878735Y-107933340D01*
X137755732Y-108015528D01*
X137755731Y-108015529D01*
X137755730Y-108015529D01*
X137619059Y-108072140D01*
X137473968Y-108101000D01*
X137326032Y-108101000D01*
X137180941Y-108072140D01*
X137044270Y-108015529D01*
X137044269Y-108015529D01*
X137044268Y-108015528D01*
X136921265Y-107933340D01*
X136816660Y-107828735D01*
X136734472Y-107705732D01*
X136677860Y-107569059D01*
X136649000Y-107423967D01*
X136649000Y-107276033D01*
X136677860Y-107130941D01*
X136734472Y-106994268D01*
X136816660Y-106871265D01*
X136921265Y-106766660D01*
X137044268Y-106684472D01*
X137180941Y-106627860D01*
X137326032Y-106599000D01*
X137473968Y-106599000D01*
X137619059Y-106627860D01*
X137619059Y-106627860D01*
G37*
G36*
X159619059Y-104627860D02*
G01*
X159755732Y-104684472D01*
X159878735Y-104766660D01*
X159983340Y-104871265D01*
X160065528Y-104994268D01*
X160122140Y-105130941D01*
X160151000Y-105276033D01*
X160151000Y-105423967D01*
X160122140Y-105569059D01*
X160065528Y-105705732D01*
X159983340Y-105828735D01*
X159878735Y-105933340D01*
X159755732Y-106015528D01*
X159755731Y-106015529D01*
X159755730Y-106015529D01*
X159619059Y-106072140D01*
X159473968Y-106101000D01*
X159326032Y-106101000D01*
X159180941Y-106072140D01*
X159044270Y-106015529D01*
X159044269Y-106015529D01*
X159044268Y-106015528D01*
X158921265Y-105933340D01*
X158816660Y-105828735D01*
X158734472Y-105705732D01*
X158677860Y-105569059D01*
X158649000Y-105423967D01*
X158649000Y-105276033D01*
X158677860Y-105130941D01*
X158734472Y-104994268D01*
X158816660Y-104871265D01*
X158921265Y-104766660D01*
X159044268Y-104684472D01*
X159180941Y-104627860D01*
X159326032Y-104599000D01*
X159473968Y-104599000D01*
X159619059Y-104627860D01*
X159619059Y-104627860D01*
G37*
G36*
X137619059Y-104627860D02*
G01*
X137755732Y-104684472D01*
X137878735Y-104766660D01*
X137983340Y-104871265D01*
X138065528Y-104994268D01*
X138122140Y-105130941D01*
X138151000Y-105276033D01*
X138151000Y-105423967D01*
X138122140Y-105569059D01*
X138065528Y-105705732D01*
X137983340Y-105828735D01*
X137878735Y-105933340D01*
X137755732Y-106015528D01*
X137755731Y-106015529D01*
X137755730Y-106015529D01*
X137619059Y-106072140D01*
X137473968Y-106101000D01*
X137326032Y-106101000D01*
X137180941Y-106072140D01*
X137044270Y-106015529D01*
X137044269Y-106015529D01*
X137044268Y-106015528D01*
X136921265Y-105933340D01*
X136816660Y-105828735D01*
X136734472Y-105705732D01*
X136677860Y-105569059D01*
X136649000Y-105423967D01*
X136649000Y-105276033D01*
X136677860Y-105130941D01*
X136734472Y-104994268D01*
X136816660Y-104871265D01*
X136921265Y-104766660D01*
X137044268Y-104684472D01*
X137180941Y-104627860D01*
X137326032Y-104599000D01*
X137473968Y-104599000D01*
X137619059Y-104627860D01*
X137619059Y-104627860D01*
G37*
G36*
X146051000Y-105176000D02*
G01*
X143249000Y-105176000D01*
X143249000Y-101324000D01*
X146051000Y-101324000D01*
X146051000Y-105176000D01*
X146051000Y-105176000D01*
G37*
G36*
X159619059Y-102627860D02*
G01*
X159755732Y-102684472D01*
X159878735Y-102766660D01*
X159983340Y-102871265D01*
X160065528Y-102994268D01*
X160122140Y-103130941D01*
X160151000Y-103276033D01*
X160151000Y-103423967D01*
X160122140Y-103569059D01*
X160065528Y-103705732D01*
X159983340Y-103828735D01*
X159878735Y-103933340D01*
X159755732Y-104015528D01*
X159755731Y-104015529D01*
X159755730Y-104015529D01*
X159619059Y-104072140D01*
X159473968Y-104101000D01*
X159326032Y-104101000D01*
X159180941Y-104072140D01*
X159044270Y-104015529D01*
X159044269Y-104015529D01*
X159044268Y-104015528D01*
X158921265Y-103933340D01*
X158816660Y-103828735D01*
X158734472Y-103705732D01*
X158677860Y-103569059D01*
X158649000Y-103423967D01*
X158649000Y-103276033D01*
X158677860Y-103130941D01*
X158734472Y-102994268D01*
X158816660Y-102871265D01*
X158921265Y-102766660D01*
X159044268Y-102684472D01*
X159180941Y-102627860D01*
X159326032Y-102599000D01*
X159473968Y-102599000D01*
X159619059Y-102627860D01*
X159619059Y-102627860D01*
G37*
G36*
X137619059Y-102627860D02*
G01*
X137755732Y-102684472D01*
X137878735Y-102766660D01*
X137983340Y-102871265D01*
X138065528Y-102994268D01*
X138122140Y-103130941D01*
X138151000Y-103276033D01*
X138151000Y-103423967D01*
X138122140Y-103569059D01*
X138065528Y-103705732D01*
X137983340Y-103828735D01*
X137878735Y-103933340D01*
X137755732Y-104015528D01*
X137755731Y-104015529D01*
X137755730Y-104015529D01*
X137619059Y-104072140D01*
X137473968Y-104101000D01*
X137326032Y-104101000D01*
X137180941Y-104072140D01*
X137044270Y-104015529D01*
X137044269Y-104015529D01*
X137044268Y-104015528D01*
X136921265Y-103933340D01*
X136816660Y-103828735D01*
X136734472Y-103705732D01*
X136677860Y-103569059D01*
X136649000Y-103423967D01*
X136649000Y-103276033D01*
X136677860Y-103130941D01*
X136734472Y-102994268D01*
X136816660Y-102871265D01*
X136921265Y-102766660D01*
X137044268Y-102684472D01*
X137180941Y-102627860D01*
X137326032Y-102599000D01*
X137473968Y-102599000D01*
X137619059Y-102627860D01*
X137619059Y-102627860D01*
G37*
G36*
X159619059Y-100627860D02*
G01*
X159755732Y-100684472D01*
X159878735Y-100766660D01*
X159983340Y-100871265D01*
X160065528Y-100994268D01*
X160122140Y-101130941D01*
X160151000Y-101276033D01*
X160151000Y-101423967D01*
X160122140Y-101569059D01*
X160065528Y-101705732D01*
X159983340Y-101828735D01*
X159878735Y-101933340D01*
X159755732Y-102015528D01*
X159755731Y-102015529D01*
X159755730Y-102015529D01*
X159619059Y-102072140D01*
X159473968Y-102101000D01*
X159326032Y-102101000D01*
X159180941Y-102072140D01*
X159044270Y-102015529D01*
X159044269Y-102015529D01*
X159044268Y-102015528D01*
X158921265Y-101933340D01*
X158816660Y-101828735D01*
X158734472Y-101705732D01*
X158677860Y-101569059D01*
X158649000Y-101423967D01*
X158649000Y-101276033D01*
X158677860Y-101130941D01*
X158734472Y-100994268D01*
X158816660Y-100871265D01*
X158921265Y-100766660D01*
X159044268Y-100684472D01*
X159180941Y-100627860D01*
X159326032Y-100599000D01*
X159473968Y-100599000D01*
X159619059Y-100627860D01*
X159619059Y-100627860D01*
G37*
G36*
X137619059Y-100627860D02*
G01*
X137755732Y-100684472D01*
X137878735Y-100766660D01*
X137983340Y-100871265D01*
X138065528Y-100994268D01*
X138122140Y-101130941D01*
X138151000Y-101276033D01*
X138151000Y-101423967D01*
X138122140Y-101569059D01*
X138065528Y-101705732D01*
X137983340Y-101828735D01*
X137878735Y-101933340D01*
X137755732Y-102015528D01*
X137755731Y-102015529D01*
X137755730Y-102015529D01*
X137619059Y-102072140D01*
X137473968Y-102101000D01*
X137326032Y-102101000D01*
X137180941Y-102072140D01*
X137044270Y-102015529D01*
X137044269Y-102015529D01*
X137044268Y-102015528D01*
X136921265Y-101933340D01*
X136816660Y-101828735D01*
X136734472Y-101705732D01*
X136677860Y-101569059D01*
X136649000Y-101423967D01*
X136649000Y-101276033D01*
X136677860Y-101130941D01*
X136734472Y-100994268D01*
X136816660Y-100871265D01*
X136921265Y-100766660D01*
X137044268Y-100684472D01*
X137180941Y-100627860D01*
X137326032Y-100599000D01*
X137473968Y-100599000D01*
X137619059Y-100627860D01*
X137619059Y-100627860D01*
G37*
G36*
X137619059Y-98627860D02*
G01*
X137755732Y-98684472D01*
X137878735Y-98766660D01*
X137983340Y-98871265D01*
X138065528Y-98994268D01*
X138122140Y-99130941D01*
X138151000Y-99276033D01*
X138151000Y-99423967D01*
X138122140Y-99569059D01*
X138065528Y-99705732D01*
X137983340Y-99828735D01*
X137878735Y-99933340D01*
X137755732Y-100015528D01*
X137755731Y-100015529D01*
X137755730Y-100015529D01*
X137619059Y-100072140D01*
X137473968Y-100101000D01*
X137326032Y-100101000D01*
X137180941Y-100072140D01*
X137044270Y-100015529D01*
X137044269Y-100015529D01*
X137044268Y-100015528D01*
X136921265Y-99933340D01*
X136816660Y-99828735D01*
X136734472Y-99705732D01*
X136677860Y-99569059D01*
X136649000Y-99423967D01*
X136649000Y-99276033D01*
X136677860Y-99130941D01*
X136734472Y-98994268D01*
X136816660Y-98871265D01*
X136921265Y-98766660D01*
X137044268Y-98684472D01*
X137180941Y-98627860D01*
X137326032Y-98599000D01*
X137473968Y-98599000D01*
X137619059Y-98627860D01*
X137619059Y-98627860D01*
G37*
G36*
X159619059Y-98627860D02*
G01*
X159755732Y-98684472D01*
X159878735Y-98766660D01*
X159983340Y-98871265D01*
X160065528Y-98994268D01*
X160122140Y-99130941D01*
X160151000Y-99276033D01*
X160151000Y-99423967D01*
X160122140Y-99569059D01*
X160065528Y-99705732D01*
X159983340Y-99828735D01*
X159878735Y-99933340D01*
X159755732Y-100015528D01*
X159755731Y-100015529D01*
X159755730Y-100015529D01*
X159619059Y-100072140D01*
X159473968Y-100101000D01*
X159326032Y-100101000D01*
X159180941Y-100072140D01*
X159044270Y-100015529D01*
X159044269Y-100015529D01*
X159044268Y-100015528D01*
X158921265Y-99933340D01*
X158816660Y-99828735D01*
X158734472Y-99705732D01*
X158677860Y-99569059D01*
X158649000Y-99423967D01*
X158649000Y-99276033D01*
X158677860Y-99130941D01*
X158734472Y-98994268D01*
X158816660Y-98871265D01*
X158921265Y-98766660D01*
X159044268Y-98684472D01*
X159180941Y-98627860D01*
X159326032Y-98599000D01*
X159473968Y-98599000D01*
X159619059Y-98627860D01*
X159619059Y-98627860D01*
G37*
G36*
X146051000Y-97626000D02*
G01*
X143249000Y-97626000D01*
X143249000Y-93774000D01*
X146051000Y-93774000D01*
X146051000Y-97626000D01*
X146051000Y-97626000D01*
G37*
M02*
