%TF.GenerationSoftware,KiCad,Pcbnew,(5.1.0-4-gc924fc765)*%
%TF.CreationDate,2019-03-12T10:18:20+09:00*%
%TF.ProjectId,xbee,78626565-2e6b-4696-9361-645f70636258,rev?*%
%TF.SameCoordinates,Original*%
%TF.FileFunction,Copper,L1,Top*%
%TF.FilePolarity,Positive*%
%FSLAX46Y46*%
G04 Gerber Fmt 4.6, Leading zero omitted, Abs format (unit mm)*
G04 Created by KiCad (PCBNEW (5.1.0-4-gc924fc765)) date 2019-03-12 10:18:20*
%MOMM*%
%LPD*%
G04 APERTURE LIST*
%ADD10R,0.900000X1.200000*%
%ADD11R,1.200000X0.700000*%
%ADD12C,1.300000*%
%ADD13R,1.750000X0.900000*%
%ADD14R,0.900000X1.750000*%
%ADD15R,6.000000X6.000000*%
%ADD16R,1.700000X1.000000*%
%ADD17C,1.000000*%
%ADD18C,0.800000*%
%ADD19C,0.500000*%
%ADD20C,0.250000*%
%ADD21C,0.254000*%
G04 APERTURE END LIST*
D10*
X137250000Y-121600000D03*
X137250000Y-119400000D03*
D11*
X144950000Y-116950000D03*
X142550000Y-116950000D03*
X144950000Y-119050000D03*
X142550000Y-119050000D03*
D12*
X159600000Y-98400000D03*
X159600000Y-100400000D03*
X159600000Y-102400000D03*
X159600000Y-104400000D03*
X159600000Y-106400000D03*
X159600000Y-108400000D03*
X159600000Y-110400000D03*
X159600000Y-112400000D03*
X159600000Y-114400000D03*
X159600000Y-116400000D03*
X137600000Y-116400000D03*
X137600000Y-114400000D03*
X137600000Y-112400000D03*
X137600000Y-110400000D03*
X137600000Y-108400000D03*
X137600000Y-106400000D03*
X137600000Y-104400000D03*
X137600000Y-102400000D03*
X137600000Y-100400000D03*
X137600000Y-98400000D03*
D13*
X157600434Y-95482662D03*
X157600434Y-96752662D03*
X157600434Y-98022662D03*
X157600434Y-99292662D03*
X157600434Y-100562662D03*
X157600434Y-101832662D03*
X157600434Y-103102662D03*
X157600434Y-104372662D03*
X157600434Y-105642662D03*
X157600434Y-106912662D03*
X157600434Y-108182662D03*
X157600434Y-109452662D03*
X157600434Y-110722662D03*
X157600434Y-111992662D03*
D14*
X154315434Y-113482662D03*
X153045434Y-113482662D03*
X151775434Y-113482662D03*
X150505434Y-113482662D03*
X149235434Y-113482662D03*
X147965434Y-113482662D03*
X146695434Y-113482662D03*
X145425434Y-113482662D03*
X144155434Y-113482662D03*
X142885434Y-113482662D03*
D13*
X139600434Y-111992662D03*
X139600434Y-110722662D03*
X139600434Y-109452662D03*
X139600434Y-108182662D03*
X139600434Y-106912662D03*
X139600434Y-105642662D03*
X139600434Y-104372662D03*
X139600434Y-103102662D03*
X139600434Y-101832662D03*
X139600434Y-100562662D03*
X139600434Y-99292662D03*
X139600434Y-98022662D03*
X139600434Y-96752662D03*
X139600434Y-95482662D03*
D15*
X148300434Y-103182662D03*
D16*
X155650000Y-120900000D03*
X149350000Y-120900000D03*
X155650000Y-117100000D03*
X149350000Y-117100000D03*
D17*
X145845514Y-98845514D03*
X142750000Y-98229400D03*
X143870714Y-115629286D03*
X139250000Y-118000000D03*
D18*
X141089500Y-98702200D03*
X141102100Y-102422200D03*
X156078000Y-100562700D03*
D19*
X142885434Y-114347664D02*
X142885434Y-113482662D01*
X143345433Y-114807663D02*
X142885434Y-114347664D01*
X148000000Y-117100000D02*
X145707663Y-114807663D01*
X149350000Y-117100000D02*
X148000000Y-117100000D01*
X144800434Y-103182662D02*
X148300434Y-103182662D01*
X142885434Y-105097662D02*
X144800434Y-103182662D01*
X142885434Y-113482662D02*
X142885434Y-105097662D01*
X148300434Y-99682662D02*
X147617772Y-99000000D01*
X148300434Y-103182662D02*
X148300434Y-99682662D01*
X147617772Y-99000000D02*
X146000000Y-99000000D01*
X146000000Y-99000000D02*
X145845514Y-98845514D01*
X142250001Y-97729401D02*
X142250001Y-96757229D01*
X140975434Y-95482662D02*
X139600434Y-95482662D01*
X142250001Y-96757229D02*
X140975434Y-95482662D01*
X142750000Y-98229400D02*
X142250001Y-97729401D01*
X143870714Y-114922180D02*
X143756197Y-114807663D01*
X143870714Y-115629286D02*
X143870714Y-114922180D01*
X143756197Y-114807663D02*
X143557663Y-114807663D01*
X143557663Y-114807663D02*
X143345433Y-114807663D01*
X145707663Y-114807663D02*
X143557663Y-114807663D01*
X137250000Y-119400000D02*
X137250000Y-118349700D01*
X137600000Y-98400000D02*
X136486600Y-99513400D01*
X136486600Y-99513400D02*
X136486600Y-117586300D01*
X136486600Y-117586300D02*
X137250000Y-118349700D01*
X138650000Y-118000000D02*
X137250000Y-119400000D01*
X139250000Y-118000000D02*
X138650000Y-118000000D01*
D20*
X144950000Y-119050000D02*
X144024700Y-119050000D01*
X139600400Y-106912700D02*
X140800700Y-106912700D01*
X140800700Y-106912700D02*
X140800700Y-116650000D01*
X140800700Y-116650000D02*
X142525400Y-118374700D01*
X142525400Y-118374700D02*
X143349400Y-118374700D01*
X143349400Y-118374700D02*
X144024700Y-119050000D01*
X137250000Y-121600000D02*
X138025300Y-121600000D01*
X142550000Y-119050000D02*
X140575300Y-119050000D01*
X140575300Y-119050000D02*
X138025300Y-121600000D01*
X139600400Y-105642700D02*
X140800700Y-105642700D01*
X140800700Y-105642700D02*
X141251100Y-106093100D01*
X141251100Y-106093100D02*
X141251100Y-115651100D01*
X141251100Y-115651100D02*
X142550000Y-116950000D01*
X139600400Y-104372700D02*
X140800700Y-104372700D01*
X144950000Y-116950000D02*
X144024700Y-116950000D01*
X140800700Y-104372700D02*
X141944600Y-105516600D01*
X141944600Y-105516600D02*
X141944600Y-114869900D01*
X141944600Y-114869900D02*
X144024700Y-116950000D01*
X141089500Y-98702200D02*
X140305300Y-97918000D01*
X140305300Y-97918000D02*
X140800700Y-97422600D01*
X140800700Y-97422600D02*
X140800700Y-96752700D01*
X140200600Y-98022700D02*
X140305300Y-97918000D01*
X139600400Y-96752700D02*
X140800700Y-96752700D01*
X139600400Y-98022700D02*
X140200600Y-98022700D01*
X154439500Y-120900000D02*
X155650000Y-120900000D01*
X149350000Y-120900000D02*
X154439500Y-120900000D01*
X154439500Y-120900000D02*
X154439500Y-115629000D01*
X154439500Y-115629000D02*
X156400100Y-113668400D01*
X156400100Y-113668400D02*
X156400100Y-111992700D01*
X157600400Y-111992700D02*
X156400100Y-111992700D01*
X146024300Y-97500000D02*
X141102100Y-102422200D01*
X155250000Y-99250000D02*
X153500000Y-97500000D01*
X157557700Y-99250000D02*
X155250000Y-99250000D01*
X153500000Y-97500000D02*
X146024300Y-97500000D01*
X157600400Y-99292700D02*
X157557700Y-99250000D01*
X157600400Y-100562700D02*
X156078000Y-100562700D01*
D21*
G36*
X158601875Y-113219140D02*
G01*
X158780860Y-113398125D01*
X158783666Y-113400000D01*
X158780860Y-113401875D01*
X158601875Y-113580860D01*
X158461247Y-113791324D01*
X158364381Y-114025179D01*
X158315000Y-114273439D01*
X158315000Y-114526561D01*
X158364381Y-114774821D01*
X158461247Y-115008676D01*
X158601875Y-115219140D01*
X158780860Y-115398125D01*
X158783666Y-115400000D01*
X158780860Y-115401875D01*
X158601875Y-115580860D01*
X158461247Y-115791324D01*
X158364381Y-116025179D01*
X158315000Y-116273439D01*
X158315000Y-116526561D01*
X158364381Y-116774821D01*
X158461247Y-117008676D01*
X158601875Y-117219140D01*
X158780860Y-117398125D01*
X158991324Y-117538753D01*
X159225179Y-117635619D01*
X159473439Y-117685000D01*
X159726561Y-117685000D01*
X159974821Y-117635619D01*
X160208676Y-117538753D01*
X160419140Y-117398125D01*
X160528644Y-117288621D01*
X160538701Y-122790000D01*
X144532547Y-122790000D01*
X144616483Y-122773304D01*
X144813940Y-122691515D01*
X144991647Y-122572775D01*
X145142775Y-122421647D01*
X145261515Y-122243940D01*
X145343304Y-122046483D01*
X145385000Y-121836863D01*
X145385000Y-121623137D01*
X145343304Y-121413517D01*
X145261515Y-121216060D01*
X145142775Y-121038353D01*
X144991647Y-120887225D01*
X144813940Y-120768485D01*
X144616483Y-120686696D01*
X144406863Y-120645000D01*
X144193137Y-120645000D01*
X143983517Y-120686696D01*
X143786060Y-120768485D01*
X143608353Y-120887225D01*
X143457225Y-121038353D01*
X143338485Y-121216060D01*
X143256696Y-121413517D01*
X143215000Y-121623137D01*
X143215000Y-121836863D01*
X143256696Y-122046483D01*
X143338485Y-122243940D01*
X143457225Y-122421647D01*
X143608353Y-122572775D01*
X143786060Y-122691515D01*
X143983517Y-122773304D01*
X144067453Y-122790000D01*
X141532547Y-122790000D01*
X141616483Y-122773304D01*
X141813940Y-122691515D01*
X141991647Y-122572775D01*
X142142775Y-122421647D01*
X142261515Y-122243940D01*
X142343304Y-122046483D01*
X142385000Y-121836863D01*
X142385000Y-121623137D01*
X142343304Y-121413517D01*
X142261515Y-121216060D01*
X142142775Y-121038353D01*
X141991647Y-120887225D01*
X141813940Y-120768485D01*
X141616483Y-120686696D01*
X141406863Y-120645000D01*
X141193137Y-120645000D01*
X140983517Y-120686696D01*
X140786060Y-120768485D01*
X140608353Y-120887225D01*
X140457225Y-121038353D01*
X140338485Y-121216060D01*
X140256696Y-121413517D01*
X140215000Y-121623137D01*
X140215000Y-121836863D01*
X140256696Y-122046483D01*
X140338485Y-122243940D01*
X140457225Y-122421647D01*
X140608353Y-122572775D01*
X140786060Y-122691515D01*
X140983517Y-122773304D01*
X141067453Y-122790000D01*
X137942538Y-122790000D01*
X137944180Y-122789502D01*
X138054494Y-122730537D01*
X138151185Y-122651185D01*
X138230537Y-122554494D01*
X138289502Y-122444180D01*
X138325812Y-122324482D01*
X138328240Y-122299830D01*
X138449576Y-122234974D01*
X138565301Y-122140001D01*
X138589104Y-122110997D01*
X140890102Y-119810000D01*
X141465015Y-119810000D01*
X141498815Y-119851185D01*
X141595506Y-119930537D01*
X141705820Y-119989502D01*
X141825518Y-120025812D01*
X141950000Y-120038072D01*
X143150000Y-120038072D01*
X143274482Y-120025812D01*
X143394180Y-119989502D01*
X143504494Y-119930537D01*
X143601185Y-119851185D01*
X143680537Y-119754494D01*
X143691636Y-119733729D01*
X143732453Y-119755546D01*
X143849453Y-119791037D01*
X143898815Y-119851185D01*
X143995506Y-119930537D01*
X144105820Y-119989502D01*
X144225518Y-120025812D01*
X144350000Y-120038072D01*
X145550000Y-120038072D01*
X145674482Y-120025812D01*
X145794180Y-119989502D01*
X145904494Y-119930537D01*
X146001185Y-119851185D01*
X146080537Y-119754494D01*
X146139502Y-119644180D01*
X146175812Y-119524482D01*
X146188072Y-119400000D01*
X146188072Y-118700000D01*
X146175812Y-118575518D01*
X146139502Y-118455820D01*
X146080537Y-118345506D01*
X146001185Y-118248815D01*
X145904494Y-118169463D01*
X145794180Y-118110498D01*
X145674482Y-118074188D01*
X145550000Y-118061928D01*
X144350000Y-118061928D01*
X144225518Y-118074188D01*
X144147390Y-118097888D01*
X143913203Y-117863702D01*
X143889401Y-117834699D01*
X143773676Y-117739726D01*
X143660316Y-117679133D01*
X143680537Y-117654494D01*
X143691636Y-117633729D01*
X143732453Y-117655546D01*
X143849453Y-117691037D01*
X143898815Y-117751185D01*
X143995506Y-117830537D01*
X144105820Y-117889502D01*
X144225518Y-117925812D01*
X144350000Y-117938072D01*
X145550000Y-117938072D01*
X145674482Y-117925812D01*
X145794180Y-117889502D01*
X145904494Y-117830537D01*
X146001185Y-117751185D01*
X146080537Y-117654494D01*
X146109665Y-117600000D01*
X147861928Y-117600000D01*
X147874188Y-117724482D01*
X147910498Y-117844180D01*
X147969463Y-117954494D01*
X148048815Y-118051185D01*
X148145506Y-118130537D01*
X148255820Y-118189502D01*
X148375518Y-118225812D01*
X148500000Y-118238072D01*
X149064250Y-118235000D01*
X149223000Y-118076250D01*
X149223000Y-117227000D01*
X149477000Y-117227000D01*
X149477000Y-118076250D01*
X149635750Y-118235000D01*
X150200000Y-118238072D01*
X150324482Y-118225812D01*
X150444180Y-118189502D01*
X150554494Y-118130537D01*
X150651185Y-118051185D01*
X150730537Y-117954494D01*
X150789502Y-117844180D01*
X150825812Y-117724482D01*
X150838072Y-117600000D01*
X150835000Y-117385750D01*
X150676250Y-117227000D01*
X149477000Y-117227000D01*
X149223000Y-117227000D01*
X148023750Y-117227000D01*
X147865000Y-117385750D01*
X147861928Y-117600000D01*
X146109665Y-117600000D01*
X146139502Y-117544180D01*
X146175812Y-117424482D01*
X146188072Y-117300000D01*
X146188072Y-116600000D01*
X147861928Y-116600000D01*
X147865000Y-116814250D01*
X148023750Y-116973000D01*
X149223000Y-116973000D01*
X149223000Y-116123750D01*
X149477000Y-116123750D01*
X149477000Y-116973000D01*
X150676250Y-116973000D01*
X150835000Y-116814250D01*
X150838072Y-116600000D01*
X150825812Y-116475518D01*
X150789502Y-116355820D01*
X150730537Y-116245506D01*
X150651185Y-116148815D01*
X150554494Y-116069463D01*
X150444180Y-116010498D01*
X150324482Y-115974188D01*
X150200000Y-115961928D01*
X149635750Y-115965000D01*
X149477000Y-116123750D01*
X149223000Y-116123750D01*
X149064250Y-115965000D01*
X148500000Y-115961928D01*
X148375518Y-115974188D01*
X148255820Y-116010498D01*
X148145506Y-116069463D01*
X148048815Y-116148815D01*
X147969463Y-116245506D01*
X147910498Y-116355820D01*
X147874188Y-116475518D01*
X147861928Y-116600000D01*
X146188072Y-116600000D01*
X146175812Y-116475518D01*
X146139502Y-116355820D01*
X146080537Y-116245506D01*
X146001185Y-116148815D01*
X145904494Y-116069463D01*
X145794180Y-116010498D01*
X145674482Y-115974188D01*
X145550000Y-115961928D01*
X144350000Y-115961928D01*
X144225518Y-115974188D01*
X144147390Y-115997888D01*
X143012436Y-114862935D01*
X143012436Y-114833914D01*
X143171184Y-114992662D01*
X143335434Y-114995734D01*
X143459916Y-114983474D01*
X143520434Y-114965116D01*
X143580952Y-114983474D01*
X143705434Y-114995734D01*
X144605434Y-114995734D01*
X144729916Y-114983474D01*
X144790434Y-114965116D01*
X144850952Y-114983474D01*
X144975434Y-114995734D01*
X145875434Y-114995734D01*
X145999916Y-114983474D01*
X146060434Y-114965116D01*
X146120952Y-114983474D01*
X146245434Y-114995734D01*
X147145434Y-114995734D01*
X147269916Y-114983474D01*
X147330434Y-114965116D01*
X147390952Y-114983474D01*
X147515434Y-114995734D01*
X148415434Y-114995734D01*
X148539916Y-114983474D01*
X148600434Y-114965116D01*
X148660952Y-114983474D01*
X148785434Y-114995734D01*
X149685434Y-114995734D01*
X149809916Y-114983474D01*
X149870434Y-114965116D01*
X149930952Y-114983474D01*
X150055434Y-114995734D01*
X150955434Y-114995734D01*
X151079916Y-114983474D01*
X151140434Y-114965116D01*
X151200952Y-114983474D01*
X151325434Y-114995734D01*
X152225434Y-114995734D01*
X152349916Y-114983474D01*
X152410434Y-114965116D01*
X152470952Y-114983474D01*
X152595434Y-114995734D01*
X153495434Y-114995734D01*
X153619916Y-114983474D01*
X153680434Y-114965116D01*
X153740952Y-114983474D01*
X153865434Y-114995734D01*
X153997965Y-114995734D01*
X153928498Y-115065201D01*
X153899500Y-115088999D01*
X153875702Y-115117997D01*
X153875701Y-115117998D01*
X153804526Y-115204724D01*
X153733954Y-115336754D01*
X153715338Y-115398125D01*
X153690498Y-115480014D01*
X153687104Y-115514473D01*
X153675824Y-115629000D01*
X153679501Y-115666332D01*
X153679500Y-120140000D01*
X150781046Y-120140000D01*
X150730537Y-120045506D01*
X150651185Y-119948815D01*
X150554494Y-119869463D01*
X150444180Y-119810498D01*
X150324482Y-119774188D01*
X150200000Y-119761928D01*
X148500000Y-119761928D01*
X148375518Y-119774188D01*
X148255820Y-119810498D01*
X148145506Y-119869463D01*
X148048815Y-119948815D01*
X147969463Y-120045506D01*
X147910498Y-120155820D01*
X147874188Y-120275518D01*
X147861928Y-120400000D01*
X147861928Y-121400000D01*
X147874188Y-121524482D01*
X147910498Y-121644180D01*
X147969463Y-121754494D01*
X148048815Y-121851185D01*
X148145506Y-121930537D01*
X148255820Y-121989502D01*
X148375518Y-122025812D01*
X148500000Y-122038072D01*
X150200000Y-122038072D01*
X150324482Y-122025812D01*
X150444180Y-121989502D01*
X150554494Y-121930537D01*
X150651185Y-121851185D01*
X150730537Y-121754494D01*
X150781046Y-121660000D01*
X154218954Y-121660000D01*
X154269463Y-121754494D01*
X154348815Y-121851185D01*
X154445506Y-121930537D01*
X154555820Y-121989502D01*
X154675518Y-122025812D01*
X154800000Y-122038072D01*
X156500000Y-122038072D01*
X156624482Y-122025812D01*
X156744180Y-121989502D01*
X156854494Y-121930537D01*
X156951185Y-121851185D01*
X157030537Y-121754494D01*
X157089502Y-121644180D01*
X157125812Y-121524482D01*
X157138072Y-121400000D01*
X157138072Y-120400000D01*
X157125812Y-120275518D01*
X157089502Y-120155820D01*
X157030537Y-120045506D01*
X156951185Y-119948815D01*
X156854494Y-119869463D01*
X156744180Y-119810498D01*
X156624482Y-119774188D01*
X156500000Y-119761928D01*
X155199500Y-119761928D01*
X155199500Y-118235897D01*
X155364250Y-118235000D01*
X155523000Y-118076250D01*
X155523000Y-117227000D01*
X155777000Y-117227000D01*
X155777000Y-118076250D01*
X155935750Y-118235000D01*
X156500000Y-118238072D01*
X156624482Y-118225812D01*
X156744180Y-118189502D01*
X156854494Y-118130537D01*
X156951185Y-118051185D01*
X157030537Y-117954494D01*
X157089502Y-117844180D01*
X157125812Y-117724482D01*
X157138072Y-117600000D01*
X157135000Y-117385750D01*
X156976250Y-117227000D01*
X155777000Y-117227000D01*
X155523000Y-117227000D01*
X155503000Y-117227000D01*
X155503000Y-116973000D01*
X155523000Y-116973000D01*
X155523000Y-116123750D01*
X155777000Y-116123750D01*
X155777000Y-116973000D01*
X156976250Y-116973000D01*
X157135000Y-116814250D01*
X157138072Y-116600000D01*
X157125812Y-116475518D01*
X157089502Y-116355820D01*
X157030537Y-116245506D01*
X156951185Y-116148815D01*
X156854494Y-116069463D01*
X156744180Y-116010498D01*
X156624482Y-115974188D01*
X156500000Y-115961928D01*
X155935750Y-115965000D01*
X155777000Y-116123750D01*
X155523000Y-116123750D01*
X155364250Y-115965000D01*
X155199500Y-115964103D01*
X155199500Y-115943801D01*
X156911104Y-114232198D01*
X156940101Y-114208401D01*
X156966432Y-114176317D01*
X157035074Y-114092677D01*
X157105646Y-113960647D01*
X157105646Y-113960646D01*
X157149103Y-113817386D01*
X157160100Y-113705733D01*
X157160100Y-113705724D01*
X157163776Y-113668401D01*
X157160100Y-113631078D01*
X157160100Y-113080734D01*
X158475434Y-113080734D01*
X158507298Y-113077596D01*
X158601875Y-113219140D01*
X158601875Y-113219140D01*
G37*
X158601875Y-113219140D02*
X158780860Y-113398125D01*
X158783666Y-113400000D01*
X158780860Y-113401875D01*
X158601875Y-113580860D01*
X158461247Y-113791324D01*
X158364381Y-114025179D01*
X158315000Y-114273439D01*
X158315000Y-114526561D01*
X158364381Y-114774821D01*
X158461247Y-115008676D01*
X158601875Y-115219140D01*
X158780860Y-115398125D01*
X158783666Y-115400000D01*
X158780860Y-115401875D01*
X158601875Y-115580860D01*
X158461247Y-115791324D01*
X158364381Y-116025179D01*
X158315000Y-116273439D01*
X158315000Y-116526561D01*
X158364381Y-116774821D01*
X158461247Y-117008676D01*
X158601875Y-117219140D01*
X158780860Y-117398125D01*
X158991324Y-117538753D01*
X159225179Y-117635619D01*
X159473439Y-117685000D01*
X159726561Y-117685000D01*
X159974821Y-117635619D01*
X160208676Y-117538753D01*
X160419140Y-117398125D01*
X160528644Y-117288621D01*
X160538701Y-122790000D01*
X144532547Y-122790000D01*
X144616483Y-122773304D01*
X144813940Y-122691515D01*
X144991647Y-122572775D01*
X145142775Y-122421647D01*
X145261515Y-122243940D01*
X145343304Y-122046483D01*
X145385000Y-121836863D01*
X145385000Y-121623137D01*
X145343304Y-121413517D01*
X145261515Y-121216060D01*
X145142775Y-121038353D01*
X144991647Y-120887225D01*
X144813940Y-120768485D01*
X144616483Y-120686696D01*
X144406863Y-120645000D01*
X144193137Y-120645000D01*
X143983517Y-120686696D01*
X143786060Y-120768485D01*
X143608353Y-120887225D01*
X143457225Y-121038353D01*
X143338485Y-121216060D01*
X143256696Y-121413517D01*
X143215000Y-121623137D01*
X143215000Y-121836863D01*
X143256696Y-122046483D01*
X143338485Y-122243940D01*
X143457225Y-122421647D01*
X143608353Y-122572775D01*
X143786060Y-122691515D01*
X143983517Y-122773304D01*
X144067453Y-122790000D01*
X141532547Y-122790000D01*
X141616483Y-122773304D01*
X141813940Y-122691515D01*
X141991647Y-122572775D01*
X142142775Y-122421647D01*
X142261515Y-122243940D01*
X142343304Y-122046483D01*
X142385000Y-121836863D01*
X142385000Y-121623137D01*
X142343304Y-121413517D01*
X142261515Y-121216060D01*
X142142775Y-121038353D01*
X141991647Y-120887225D01*
X141813940Y-120768485D01*
X141616483Y-120686696D01*
X141406863Y-120645000D01*
X141193137Y-120645000D01*
X140983517Y-120686696D01*
X140786060Y-120768485D01*
X140608353Y-120887225D01*
X140457225Y-121038353D01*
X140338485Y-121216060D01*
X140256696Y-121413517D01*
X140215000Y-121623137D01*
X140215000Y-121836863D01*
X140256696Y-122046483D01*
X140338485Y-122243940D01*
X140457225Y-122421647D01*
X140608353Y-122572775D01*
X140786060Y-122691515D01*
X140983517Y-122773304D01*
X141067453Y-122790000D01*
X137942538Y-122790000D01*
X137944180Y-122789502D01*
X138054494Y-122730537D01*
X138151185Y-122651185D01*
X138230537Y-122554494D01*
X138289502Y-122444180D01*
X138325812Y-122324482D01*
X138328240Y-122299830D01*
X138449576Y-122234974D01*
X138565301Y-122140001D01*
X138589104Y-122110997D01*
X140890102Y-119810000D01*
X141465015Y-119810000D01*
X141498815Y-119851185D01*
X141595506Y-119930537D01*
X141705820Y-119989502D01*
X141825518Y-120025812D01*
X141950000Y-120038072D01*
X143150000Y-120038072D01*
X143274482Y-120025812D01*
X143394180Y-119989502D01*
X143504494Y-119930537D01*
X143601185Y-119851185D01*
X143680537Y-119754494D01*
X143691636Y-119733729D01*
X143732453Y-119755546D01*
X143849453Y-119791037D01*
X143898815Y-119851185D01*
X143995506Y-119930537D01*
X144105820Y-119989502D01*
X144225518Y-120025812D01*
X144350000Y-120038072D01*
X145550000Y-120038072D01*
X145674482Y-120025812D01*
X145794180Y-119989502D01*
X145904494Y-119930537D01*
X146001185Y-119851185D01*
X146080537Y-119754494D01*
X146139502Y-119644180D01*
X146175812Y-119524482D01*
X146188072Y-119400000D01*
X146188072Y-118700000D01*
X146175812Y-118575518D01*
X146139502Y-118455820D01*
X146080537Y-118345506D01*
X146001185Y-118248815D01*
X145904494Y-118169463D01*
X145794180Y-118110498D01*
X145674482Y-118074188D01*
X145550000Y-118061928D01*
X144350000Y-118061928D01*
X144225518Y-118074188D01*
X144147390Y-118097888D01*
X143913203Y-117863702D01*
X143889401Y-117834699D01*
X143773676Y-117739726D01*
X143660316Y-117679133D01*
X143680537Y-117654494D01*
X143691636Y-117633729D01*
X143732453Y-117655546D01*
X143849453Y-117691037D01*
X143898815Y-117751185D01*
X143995506Y-117830537D01*
X144105820Y-117889502D01*
X144225518Y-117925812D01*
X144350000Y-117938072D01*
X145550000Y-117938072D01*
X145674482Y-117925812D01*
X145794180Y-117889502D01*
X145904494Y-117830537D01*
X146001185Y-117751185D01*
X146080537Y-117654494D01*
X146109665Y-117600000D01*
X147861928Y-117600000D01*
X147874188Y-117724482D01*
X147910498Y-117844180D01*
X147969463Y-117954494D01*
X148048815Y-118051185D01*
X148145506Y-118130537D01*
X148255820Y-118189502D01*
X148375518Y-118225812D01*
X148500000Y-118238072D01*
X149064250Y-118235000D01*
X149223000Y-118076250D01*
X149223000Y-117227000D01*
X149477000Y-117227000D01*
X149477000Y-118076250D01*
X149635750Y-118235000D01*
X150200000Y-118238072D01*
X150324482Y-118225812D01*
X150444180Y-118189502D01*
X150554494Y-118130537D01*
X150651185Y-118051185D01*
X150730537Y-117954494D01*
X150789502Y-117844180D01*
X150825812Y-117724482D01*
X150838072Y-117600000D01*
X150835000Y-117385750D01*
X150676250Y-117227000D01*
X149477000Y-117227000D01*
X149223000Y-117227000D01*
X148023750Y-117227000D01*
X147865000Y-117385750D01*
X147861928Y-117600000D01*
X146109665Y-117600000D01*
X146139502Y-117544180D01*
X146175812Y-117424482D01*
X146188072Y-117300000D01*
X146188072Y-116600000D01*
X147861928Y-116600000D01*
X147865000Y-116814250D01*
X148023750Y-116973000D01*
X149223000Y-116973000D01*
X149223000Y-116123750D01*
X149477000Y-116123750D01*
X149477000Y-116973000D01*
X150676250Y-116973000D01*
X150835000Y-116814250D01*
X150838072Y-116600000D01*
X150825812Y-116475518D01*
X150789502Y-116355820D01*
X150730537Y-116245506D01*
X150651185Y-116148815D01*
X150554494Y-116069463D01*
X150444180Y-116010498D01*
X150324482Y-115974188D01*
X150200000Y-115961928D01*
X149635750Y-115965000D01*
X149477000Y-116123750D01*
X149223000Y-116123750D01*
X149064250Y-115965000D01*
X148500000Y-115961928D01*
X148375518Y-115974188D01*
X148255820Y-116010498D01*
X148145506Y-116069463D01*
X148048815Y-116148815D01*
X147969463Y-116245506D01*
X147910498Y-116355820D01*
X147874188Y-116475518D01*
X147861928Y-116600000D01*
X146188072Y-116600000D01*
X146175812Y-116475518D01*
X146139502Y-116355820D01*
X146080537Y-116245506D01*
X146001185Y-116148815D01*
X145904494Y-116069463D01*
X145794180Y-116010498D01*
X145674482Y-115974188D01*
X145550000Y-115961928D01*
X144350000Y-115961928D01*
X144225518Y-115974188D01*
X144147390Y-115997888D01*
X143012436Y-114862935D01*
X143012436Y-114833914D01*
X143171184Y-114992662D01*
X143335434Y-114995734D01*
X143459916Y-114983474D01*
X143520434Y-114965116D01*
X143580952Y-114983474D01*
X143705434Y-114995734D01*
X144605434Y-114995734D01*
X144729916Y-114983474D01*
X144790434Y-114965116D01*
X144850952Y-114983474D01*
X144975434Y-114995734D01*
X145875434Y-114995734D01*
X145999916Y-114983474D01*
X146060434Y-114965116D01*
X146120952Y-114983474D01*
X146245434Y-114995734D01*
X147145434Y-114995734D01*
X147269916Y-114983474D01*
X147330434Y-114965116D01*
X147390952Y-114983474D01*
X147515434Y-114995734D01*
X148415434Y-114995734D01*
X148539916Y-114983474D01*
X148600434Y-114965116D01*
X148660952Y-114983474D01*
X148785434Y-114995734D01*
X149685434Y-114995734D01*
X149809916Y-114983474D01*
X149870434Y-114965116D01*
X149930952Y-114983474D01*
X150055434Y-114995734D01*
X150955434Y-114995734D01*
X151079916Y-114983474D01*
X151140434Y-114965116D01*
X151200952Y-114983474D01*
X151325434Y-114995734D01*
X152225434Y-114995734D01*
X152349916Y-114983474D01*
X152410434Y-114965116D01*
X152470952Y-114983474D01*
X152595434Y-114995734D01*
X153495434Y-114995734D01*
X153619916Y-114983474D01*
X153680434Y-114965116D01*
X153740952Y-114983474D01*
X153865434Y-114995734D01*
X153997965Y-114995734D01*
X153928498Y-115065201D01*
X153899500Y-115088999D01*
X153875702Y-115117997D01*
X153875701Y-115117998D01*
X153804526Y-115204724D01*
X153733954Y-115336754D01*
X153715338Y-115398125D01*
X153690498Y-115480014D01*
X153687104Y-115514473D01*
X153675824Y-115629000D01*
X153679501Y-115666332D01*
X153679500Y-120140000D01*
X150781046Y-120140000D01*
X150730537Y-120045506D01*
X150651185Y-119948815D01*
X150554494Y-119869463D01*
X150444180Y-119810498D01*
X150324482Y-119774188D01*
X150200000Y-119761928D01*
X148500000Y-119761928D01*
X148375518Y-119774188D01*
X148255820Y-119810498D01*
X148145506Y-119869463D01*
X148048815Y-119948815D01*
X147969463Y-120045506D01*
X147910498Y-120155820D01*
X147874188Y-120275518D01*
X147861928Y-120400000D01*
X147861928Y-121400000D01*
X147874188Y-121524482D01*
X147910498Y-121644180D01*
X147969463Y-121754494D01*
X148048815Y-121851185D01*
X148145506Y-121930537D01*
X148255820Y-121989502D01*
X148375518Y-122025812D01*
X148500000Y-122038072D01*
X150200000Y-122038072D01*
X150324482Y-122025812D01*
X150444180Y-121989502D01*
X150554494Y-121930537D01*
X150651185Y-121851185D01*
X150730537Y-121754494D01*
X150781046Y-121660000D01*
X154218954Y-121660000D01*
X154269463Y-121754494D01*
X154348815Y-121851185D01*
X154445506Y-121930537D01*
X154555820Y-121989502D01*
X154675518Y-122025812D01*
X154800000Y-122038072D01*
X156500000Y-122038072D01*
X156624482Y-122025812D01*
X156744180Y-121989502D01*
X156854494Y-121930537D01*
X156951185Y-121851185D01*
X157030537Y-121754494D01*
X157089502Y-121644180D01*
X157125812Y-121524482D01*
X157138072Y-121400000D01*
X157138072Y-120400000D01*
X157125812Y-120275518D01*
X157089502Y-120155820D01*
X157030537Y-120045506D01*
X156951185Y-119948815D01*
X156854494Y-119869463D01*
X156744180Y-119810498D01*
X156624482Y-119774188D01*
X156500000Y-119761928D01*
X155199500Y-119761928D01*
X155199500Y-118235897D01*
X155364250Y-118235000D01*
X155523000Y-118076250D01*
X155523000Y-117227000D01*
X155777000Y-117227000D01*
X155777000Y-118076250D01*
X155935750Y-118235000D01*
X156500000Y-118238072D01*
X156624482Y-118225812D01*
X156744180Y-118189502D01*
X156854494Y-118130537D01*
X156951185Y-118051185D01*
X157030537Y-117954494D01*
X157089502Y-117844180D01*
X157125812Y-117724482D01*
X157138072Y-117600000D01*
X157135000Y-117385750D01*
X156976250Y-117227000D01*
X155777000Y-117227000D01*
X155523000Y-117227000D01*
X155503000Y-117227000D01*
X155503000Y-116973000D01*
X155523000Y-116973000D01*
X155523000Y-116123750D01*
X155777000Y-116123750D01*
X155777000Y-116973000D01*
X156976250Y-116973000D01*
X157135000Y-116814250D01*
X157138072Y-116600000D01*
X157125812Y-116475518D01*
X157089502Y-116355820D01*
X157030537Y-116245506D01*
X156951185Y-116148815D01*
X156854494Y-116069463D01*
X156744180Y-116010498D01*
X156624482Y-115974188D01*
X156500000Y-115961928D01*
X155935750Y-115965000D01*
X155777000Y-116123750D01*
X155523000Y-116123750D01*
X155364250Y-115965000D01*
X155199500Y-115964103D01*
X155199500Y-115943801D01*
X156911104Y-114232198D01*
X156940101Y-114208401D01*
X156966432Y-114176317D01*
X157035074Y-114092677D01*
X157105646Y-113960647D01*
X157105646Y-113960646D01*
X157149103Y-113817386D01*
X157160100Y-113705733D01*
X157160100Y-113705724D01*
X157163776Y-113668401D01*
X157160100Y-113631078D01*
X157160100Y-113080734D01*
X158475434Y-113080734D01*
X158507298Y-113077596D01*
X158601875Y-113219140D01*
G36*
X138725434Y-113080734D02*
G01*
X140040701Y-113080734D01*
X140040701Y-116612668D01*
X140037024Y-116650000D01*
X140051698Y-116798985D01*
X140095154Y-116942246D01*
X140165726Y-117074276D01*
X140209657Y-117127805D01*
X140260700Y-117190001D01*
X140289698Y-117213799D01*
X141365898Y-118290000D01*
X140612633Y-118290000D01*
X140575300Y-118286323D01*
X140537967Y-118290000D01*
X140426314Y-118300997D01*
X140342295Y-118326484D01*
X140385000Y-118111788D01*
X140385000Y-117888212D01*
X140341383Y-117668933D01*
X140255824Y-117462376D01*
X140131612Y-117276480D01*
X139973520Y-117118388D01*
X139787624Y-116994176D01*
X139581067Y-116908617D01*
X139361788Y-116865000D01*
X139138212Y-116865000D01*
X138918933Y-116908617D01*
X138747848Y-116979483D01*
X138820095Y-116822626D01*
X138879102Y-116576476D01*
X138888952Y-116323545D01*
X138849270Y-116073551D01*
X138761578Y-115836104D01*
X138714201Y-115747466D01*
X138485527Y-115694078D01*
X137779605Y-116400000D01*
X137793748Y-116414143D01*
X137614143Y-116593748D01*
X137600000Y-116579605D01*
X137585858Y-116593748D01*
X137406253Y-116414143D01*
X137420395Y-116400000D01*
X137406253Y-116385858D01*
X137585858Y-116206253D01*
X137600000Y-116220395D01*
X138305922Y-115514473D01*
X138297703Y-115479267D01*
X138419140Y-115398125D01*
X138598125Y-115219140D01*
X138738753Y-115008676D01*
X138835619Y-114774821D01*
X138885000Y-114526561D01*
X138885000Y-114273439D01*
X138835619Y-114025179D01*
X138738753Y-113791324D01*
X138598125Y-113580860D01*
X138419140Y-113401875D01*
X138416334Y-113400000D01*
X138419140Y-113398125D01*
X138598125Y-113219140D01*
X138692756Y-113077516D01*
X138725434Y-113080734D01*
X138725434Y-113080734D01*
G37*
X138725434Y-113080734D02*
X140040701Y-113080734D01*
X140040701Y-116612668D01*
X140037024Y-116650000D01*
X140051698Y-116798985D01*
X140095154Y-116942246D01*
X140165726Y-117074276D01*
X140209657Y-117127805D01*
X140260700Y-117190001D01*
X140289698Y-117213799D01*
X141365898Y-118290000D01*
X140612633Y-118290000D01*
X140575300Y-118286323D01*
X140537967Y-118290000D01*
X140426314Y-118300997D01*
X140342295Y-118326484D01*
X140385000Y-118111788D01*
X140385000Y-117888212D01*
X140341383Y-117668933D01*
X140255824Y-117462376D01*
X140131612Y-117276480D01*
X139973520Y-117118388D01*
X139787624Y-116994176D01*
X139581067Y-116908617D01*
X139361788Y-116865000D01*
X139138212Y-116865000D01*
X138918933Y-116908617D01*
X138747848Y-116979483D01*
X138820095Y-116822626D01*
X138879102Y-116576476D01*
X138888952Y-116323545D01*
X138849270Y-116073551D01*
X138761578Y-115836104D01*
X138714201Y-115747466D01*
X138485527Y-115694078D01*
X137779605Y-116400000D01*
X137793748Y-116414143D01*
X137614143Y-116593748D01*
X137600000Y-116579605D01*
X137585858Y-116593748D01*
X137406253Y-116414143D01*
X137420395Y-116400000D01*
X137406253Y-116385858D01*
X137585858Y-116206253D01*
X137600000Y-116220395D01*
X138305922Y-115514473D01*
X138297703Y-115479267D01*
X138419140Y-115398125D01*
X138598125Y-115219140D01*
X138738753Y-115008676D01*
X138835619Y-114774821D01*
X138885000Y-114526561D01*
X138885000Y-114273439D01*
X138835619Y-114025179D01*
X138738753Y-113791324D01*
X138598125Y-113580860D01*
X138419140Y-113401875D01*
X138416334Y-113400000D01*
X138419140Y-113398125D01*
X138598125Y-113219140D01*
X138692756Y-113077516D01*
X138725434Y-113080734D01*
G36*
X154686200Y-99761002D02*
G01*
X154709999Y-99790001D01*
X154825724Y-99884974D01*
X154957753Y-99955546D01*
X155101014Y-99999003D01*
X155203145Y-100009062D01*
X155160795Y-100072444D01*
X155082774Y-100260802D01*
X155043000Y-100460761D01*
X155043000Y-100664639D01*
X155082774Y-100864598D01*
X155160795Y-101052956D01*
X155274063Y-101222474D01*
X155418226Y-101366637D01*
X155587744Y-101479905D01*
X155776102Y-101557926D01*
X155976061Y-101597700D01*
X156087362Y-101597700D01*
X156087362Y-102282662D01*
X156099622Y-102407144D01*
X156117980Y-102467662D01*
X156099622Y-102528180D01*
X156087362Y-102652662D01*
X156087362Y-103552662D01*
X156099622Y-103677144D01*
X156117980Y-103737662D01*
X156099622Y-103798180D01*
X156087362Y-103922662D01*
X156087362Y-104822662D01*
X156099622Y-104947144D01*
X156117980Y-105007662D01*
X156099622Y-105068180D01*
X156087362Y-105192662D01*
X156087362Y-106092662D01*
X156099622Y-106217144D01*
X156117980Y-106277662D01*
X156099622Y-106338180D01*
X156087362Y-106462662D01*
X156087362Y-107362662D01*
X156099622Y-107487144D01*
X156117980Y-107547662D01*
X156099622Y-107608180D01*
X156087362Y-107732662D01*
X156087362Y-108632662D01*
X156099622Y-108757144D01*
X156117980Y-108817662D01*
X156099622Y-108878180D01*
X156087362Y-109002662D01*
X156087362Y-109902662D01*
X156099622Y-110027144D01*
X156117980Y-110087662D01*
X156099622Y-110148180D01*
X156087362Y-110272662D01*
X156087362Y-111172662D01*
X156099099Y-111291833D01*
X155975824Y-111357726D01*
X155860099Y-111452699D01*
X155765126Y-111568424D01*
X155694554Y-111700453D01*
X155651097Y-111843714D01*
X155636423Y-111992700D01*
X155640101Y-112030043D01*
X155640100Y-113353598D01*
X155403506Y-113590192D01*
X155403506Y-112607662D01*
X155391246Y-112483180D01*
X155354936Y-112363482D01*
X155295971Y-112253168D01*
X155216619Y-112156477D01*
X155119928Y-112077125D01*
X155009614Y-112018160D01*
X154889916Y-111981850D01*
X154765434Y-111969590D01*
X153865434Y-111969590D01*
X153740952Y-111981850D01*
X153680434Y-112000208D01*
X153619916Y-111981850D01*
X153495434Y-111969590D01*
X152595434Y-111969590D01*
X152470952Y-111981850D01*
X152410434Y-112000208D01*
X152349916Y-111981850D01*
X152225434Y-111969590D01*
X151325434Y-111969590D01*
X151200952Y-111981850D01*
X151140434Y-112000208D01*
X151079916Y-111981850D01*
X150955434Y-111969590D01*
X150055434Y-111969590D01*
X149930952Y-111981850D01*
X149870434Y-112000208D01*
X149809916Y-111981850D01*
X149685434Y-111969590D01*
X148785434Y-111969590D01*
X148660952Y-111981850D01*
X148600434Y-112000208D01*
X148539916Y-111981850D01*
X148415434Y-111969590D01*
X147515434Y-111969590D01*
X147390952Y-111981850D01*
X147330434Y-112000208D01*
X147269916Y-111981850D01*
X147145434Y-111969590D01*
X146245434Y-111969590D01*
X146120952Y-111981850D01*
X146060434Y-112000208D01*
X145999916Y-111981850D01*
X145875434Y-111969590D01*
X144975434Y-111969590D01*
X144850952Y-111981850D01*
X144790434Y-112000208D01*
X144729916Y-111981850D01*
X144605434Y-111969590D01*
X143705434Y-111969590D01*
X143580952Y-111981850D01*
X143520434Y-112000208D01*
X143459916Y-111981850D01*
X143335434Y-111969590D01*
X143171184Y-111972662D01*
X143012434Y-112131412D01*
X143012434Y-113355662D01*
X143032434Y-113355662D01*
X143032434Y-113609662D01*
X143012434Y-113609662D01*
X143012434Y-113629662D01*
X142758434Y-113629662D01*
X142758434Y-113609662D01*
X142738434Y-113609662D01*
X142738434Y-113355662D01*
X142758434Y-113355662D01*
X142758434Y-112131412D01*
X142704600Y-112077578D01*
X142704600Y-106182662D01*
X144662362Y-106182662D01*
X144674622Y-106307144D01*
X144710932Y-106426842D01*
X144769897Y-106537156D01*
X144849249Y-106633847D01*
X144945940Y-106713199D01*
X145056254Y-106772164D01*
X145175952Y-106808474D01*
X145300434Y-106820734D01*
X148014684Y-106817662D01*
X148173434Y-106658912D01*
X148173434Y-103309662D01*
X148427434Y-103309662D01*
X148427434Y-106658912D01*
X148586184Y-106817662D01*
X151300434Y-106820734D01*
X151424916Y-106808474D01*
X151544614Y-106772164D01*
X151654928Y-106713199D01*
X151751619Y-106633847D01*
X151830971Y-106537156D01*
X151889936Y-106426842D01*
X151926246Y-106307144D01*
X151938506Y-106182662D01*
X151935434Y-103468412D01*
X151776684Y-103309662D01*
X148427434Y-103309662D01*
X148173434Y-103309662D01*
X144824184Y-103309662D01*
X144665434Y-103468412D01*
X144662362Y-106182662D01*
X142704600Y-106182662D01*
X142704600Y-105553923D01*
X142708276Y-105516600D01*
X142704600Y-105479277D01*
X142704600Y-105479267D01*
X142693603Y-105367614D01*
X142650146Y-105224353D01*
X142633207Y-105192662D01*
X142579574Y-105092323D01*
X142508399Y-105005597D01*
X142484601Y-104976599D01*
X142455604Y-104952802D01*
X141364504Y-103861702D01*
X141340701Y-103832699D01*
X141224976Y-103737726D01*
X141101766Y-103671868D01*
X141113506Y-103552662D01*
X141113506Y-103457200D01*
X141204039Y-103457200D01*
X141403998Y-103417426D01*
X141592356Y-103339405D01*
X141761874Y-103226137D01*
X141906037Y-103081974D01*
X142019305Y-102912456D01*
X142097326Y-102724098D01*
X142137100Y-102524139D01*
X142137100Y-102462001D01*
X144768707Y-99830395D01*
X144710932Y-99938482D01*
X144674622Y-100058180D01*
X144662362Y-100182662D01*
X144665434Y-102896912D01*
X144824184Y-103055662D01*
X148173434Y-103055662D01*
X148173434Y-99706412D01*
X148427434Y-99706412D01*
X148427434Y-103055662D01*
X151776684Y-103055662D01*
X151935434Y-102896912D01*
X151938506Y-100182662D01*
X151926246Y-100058180D01*
X151889936Y-99938482D01*
X151830971Y-99828168D01*
X151751619Y-99731477D01*
X151654928Y-99652125D01*
X151544614Y-99593160D01*
X151424916Y-99556850D01*
X151300434Y-99544590D01*
X148586184Y-99547662D01*
X148427434Y-99706412D01*
X148173434Y-99706412D01*
X148014684Y-99547662D01*
X145300434Y-99544590D01*
X145175952Y-99556850D01*
X145056254Y-99593160D01*
X144948167Y-99650935D01*
X146339102Y-98260000D01*
X153185199Y-98260000D01*
X154686200Y-99761002D01*
X154686200Y-99761002D01*
G37*
X154686200Y-99761002D02*
X154709999Y-99790001D01*
X154825724Y-99884974D01*
X154957753Y-99955546D01*
X155101014Y-99999003D01*
X155203145Y-100009062D01*
X155160795Y-100072444D01*
X155082774Y-100260802D01*
X155043000Y-100460761D01*
X155043000Y-100664639D01*
X155082774Y-100864598D01*
X155160795Y-101052956D01*
X155274063Y-101222474D01*
X155418226Y-101366637D01*
X155587744Y-101479905D01*
X155776102Y-101557926D01*
X155976061Y-101597700D01*
X156087362Y-101597700D01*
X156087362Y-102282662D01*
X156099622Y-102407144D01*
X156117980Y-102467662D01*
X156099622Y-102528180D01*
X156087362Y-102652662D01*
X156087362Y-103552662D01*
X156099622Y-103677144D01*
X156117980Y-103737662D01*
X156099622Y-103798180D01*
X156087362Y-103922662D01*
X156087362Y-104822662D01*
X156099622Y-104947144D01*
X156117980Y-105007662D01*
X156099622Y-105068180D01*
X156087362Y-105192662D01*
X156087362Y-106092662D01*
X156099622Y-106217144D01*
X156117980Y-106277662D01*
X156099622Y-106338180D01*
X156087362Y-106462662D01*
X156087362Y-107362662D01*
X156099622Y-107487144D01*
X156117980Y-107547662D01*
X156099622Y-107608180D01*
X156087362Y-107732662D01*
X156087362Y-108632662D01*
X156099622Y-108757144D01*
X156117980Y-108817662D01*
X156099622Y-108878180D01*
X156087362Y-109002662D01*
X156087362Y-109902662D01*
X156099622Y-110027144D01*
X156117980Y-110087662D01*
X156099622Y-110148180D01*
X156087362Y-110272662D01*
X156087362Y-111172662D01*
X156099099Y-111291833D01*
X155975824Y-111357726D01*
X155860099Y-111452699D01*
X155765126Y-111568424D01*
X155694554Y-111700453D01*
X155651097Y-111843714D01*
X155636423Y-111992700D01*
X155640101Y-112030043D01*
X155640100Y-113353598D01*
X155403506Y-113590192D01*
X155403506Y-112607662D01*
X155391246Y-112483180D01*
X155354936Y-112363482D01*
X155295971Y-112253168D01*
X155216619Y-112156477D01*
X155119928Y-112077125D01*
X155009614Y-112018160D01*
X154889916Y-111981850D01*
X154765434Y-111969590D01*
X153865434Y-111969590D01*
X153740952Y-111981850D01*
X153680434Y-112000208D01*
X153619916Y-111981850D01*
X153495434Y-111969590D01*
X152595434Y-111969590D01*
X152470952Y-111981850D01*
X152410434Y-112000208D01*
X152349916Y-111981850D01*
X152225434Y-111969590D01*
X151325434Y-111969590D01*
X151200952Y-111981850D01*
X151140434Y-112000208D01*
X151079916Y-111981850D01*
X150955434Y-111969590D01*
X150055434Y-111969590D01*
X149930952Y-111981850D01*
X149870434Y-112000208D01*
X149809916Y-111981850D01*
X149685434Y-111969590D01*
X148785434Y-111969590D01*
X148660952Y-111981850D01*
X148600434Y-112000208D01*
X148539916Y-111981850D01*
X148415434Y-111969590D01*
X147515434Y-111969590D01*
X147390952Y-111981850D01*
X147330434Y-112000208D01*
X147269916Y-111981850D01*
X147145434Y-111969590D01*
X146245434Y-111969590D01*
X146120952Y-111981850D01*
X146060434Y-112000208D01*
X145999916Y-111981850D01*
X145875434Y-111969590D01*
X144975434Y-111969590D01*
X144850952Y-111981850D01*
X144790434Y-112000208D01*
X144729916Y-111981850D01*
X144605434Y-111969590D01*
X143705434Y-111969590D01*
X143580952Y-111981850D01*
X143520434Y-112000208D01*
X143459916Y-111981850D01*
X143335434Y-111969590D01*
X143171184Y-111972662D01*
X143012434Y-112131412D01*
X143012434Y-113355662D01*
X143032434Y-113355662D01*
X143032434Y-113609662D01*
X143012434Y-113609662D01*
X143012434Y-113629662D01*
X142758434Y-113629662D01*
X142758434Y-113609662D01*
X142738434Y-113609662D01*
X142738434Y-113355662D01*
X142758434Y-113355662D01*
X142758434Y-112131412D01*
X142704600Y-112077578D01*
X142704600Y-106182662D01*
X144662362Y-106182662D01*
X144674622Y-106307144D01*
X144710932Y-106426842D01*
X144769897Y-106537156D01*
X144849249Y-106633847D01*
X144945940Y-106713199D01*
X145056254Y-106772164D01*
X145175952Y-106808474D01*
X145300434Y-106820734D01*
X148014684Y-106817662D01*
X148173434Y-106658912D01*
X148173434Y-103309662D01*
X148427434Y-103309662D01*
X148427434Y-106658912D01*
X148586184Y-106817662D01*
X151300434Y-106820734D01*
X151424916Y-106808474D01*
X151544614Y-106772164D01*
X151654928Y-106713199D01*
X151751619Y-106633847D01*
X151830971Y-106537156D01*
X151889936Y-106426842D01*
X151926246Y-106307144D01*
X151938506Y-106182662D01*
X151935434Y-103468412D01*
X151776684Y-103309662D01*
X148427434Y-103309662D01*
X148173434Y-103309662D01*
X144824184Y-103309662D01*
X144665434Y-103468412D01*
X144662362Y-106182662D01*
X142704600Y-106182662D01*
X142704600Y-105553923D01*
X142708276Y-105516600D01*
X142704600Y-105479277D01*
X142704600Y-105479267D01*
X142693603Y-105367614D01*
X142650146Y-105224353D01*
X142633207Y-105192662D01*
X142579574Y-105092323D01*
X142508399Y-105005597D01*
X142484601Y-104976599D01*
X142455604Y-104952802D01*
X141364504Y-103861702D01*
X141340701Y-103832699D01*
X141224976Y-103737726D01*
X141101766Y-103671868D01*
X141113506Y-103552662D01*
X141113506Y-103457200D01*
X141204039Y-103457200D01*
X141403998Y-103417426D01*
X141592356Y-103339405D01*
X141761874Y-103226137D01*
X141906037Y-103081974D01*
X142019305Y-102912456D01*
X142097326Y-102724098D01*
X142137100Y-102524139D01*
X142137100Y-102462001D01*
X144768707Y-99830395D01*
X144710932Y-99938482D01*
X144674622Y-100058180D01*
X144662362Y-100182662D01*
X144665434Y-102896912D01*
X144824184Y-103055662D01*
X148173434Y-103055662D01*
X148173434Y-99706412D01*
X148427434Y-99706412D01*
X148427434Y-103055662D01*
X151776684Y-103055662D01*
X151935434Y-102896912D01*
X151938506Y-100182662D01*
X151926246Y-100058180D01*
X151889936Y-99938482D01*
X151830971Y-99828168D01*
X151751619Y-99731477D01*
X151654928Y-99652125D01*
X151544614Y-99593160D01*
X151424916Y-99556850D01*
X151300434Y-99544590D01*
X148586184Y-99547662D01*
X148427434Y-99706412D01*
X148173434Y-99706412D01*
X148014684Y-99547662D01*
X145300434Y-99544590D01*
X145175952Y-99556850D01*
X145056254Y-99593160D01*
X144948167Y-99650935D01*
X146339102Y-98260000D01*
X153185199Y-98260000D01*
X154686200Y-99761002D01*
G36*
X157225954Y-94323932D02*
G01*
X157309668Y-94394590D01*
X156725434Y-94394590D01*
X156600952Y-94406850D01*
X156481254Y-94443160D01*
X156370940Y-94502125D01*
X156274249Y-94581477D01*
X156194897Y-94678168D01*
X156135932Y-94788482D01*
X156099622Y-94908180D01*
X156087362Y-95032662D01*
X156087362Y-95932662D01*
X156099622Y-96057144D01*
X156117980Y-96117662D01*
X156099622Y-96178180D01*
X156087362Y-96302662D01*
X156087362Y-97202662D01*
X156099622Y-97327144D01*
X156117980Y-97387662D01*
X156099622Y-97448180D01*
X156087362Y-97572662D01*
X156087362Y-98472662D01*
X156089070Y-98490000D01*
X155564802Y-98490000D01*
X154063804Y-96989003D01*
X154040001Y-96959999D01*
X153924276Y-96865026D01*
X153792247Y-96794454D01*
X153648986Y-96750997D01*
X153537333Y-96740000D01*
X153537322Y-96740000D01*
X153500000Y-96736324D01*
X153462678Y-96740000D01*
X146061622Y-96740000D01*
X146024300Y-96736324D01*
X145986977Y-96740000D01*
X145986967Y-96740000D01*
X145875314Y-96750997D01*
X145732053Y-96794454D01*
X145600023Y-96865026D01*
X145516383Y-96933668D01*
X145484299Y-96959999D01*
X145460501Y-96988997D01*
X141109322Y-101340177D01*
X141101246Y-101258180D01*
X141082888Y-101197662D01*
X141101246Y-101137144D01*
X141113506Y-101012662D01*
X141113506Y-100112662D01*
X141101246Y-99988180D01*
X141082888Y-99927662D01*
X141101246Y-99867144D01*
X141113506Y-99742662D01*
X141113506Y-99737200D01*
X141191439Y-99737200D01*
X141391398Y-99697426D01*
X141579756Y-99619405D01*
X141749274Y-99506137D01*
X141893437Y-99361974D01*
X142006705Y-99192456D01*
X142084726Y-99004098D01*
X142124500Y-98804139D01*
X142124500Y-98600261D01*
X142084726Y-98400302D01*
X142006705Y-98211944D01*
X141893437Y-98042426D01*
X141749274Y-97898263D01*
X141579756Y-97784995D01*
X141488873Y-97747350D01*
X141506246Y-97714847D01*
X141549703Y-97571586D01*
X141560700Y-97459933D01*
X141560700Y-97459924D01*
X141564376Y-97422601D01*
X141560700Y-97385278D01*
X141560700Y-96790033D01*
X141564377Y-96752700D01*
X141549703Y-96603714D01*
X141506246Y-96460453D01*
X141435674Y-96328424D01*
X141340701Y-96212699D01*
X141224976Y-96117726D01*
X141101766Y-96051868D01*
X141113506Y-95932662D01*
X141110434Y-95768412D01*
X140951684Y-95609662D01*
X139727434Y-95609662D01*
X139727434Y-95629662D01*
X139473434Y-95629662D01*
X139473434Y-95609662D01*
X139453434Y-95609662D01*
X139453434Y-95355662D01*
X139473434Y-95355662D01*
X139473434Y-94556412D01*
X139727434Y-94556412D01*
X139727434Y-95355662D01*
X140951684Y-95355662D01*
X141110434Y-95196912D01*
X141113506Y-95032662D01*
X141101246Y-94908180D01*
X141064936Y-94788482D01*
X141005971Y-94678168D01*
X140926619Y-94581477D01*
X140829928Y-94502125D01*
X140719614Y-94443160D01*
X140599916Y-94406850D01*
X140475434Y-94394590D01*
X139886184Y-94397662D01*
X139727434Y-94556412D01*
X139473434Y-94556412D01*
X139423158Y-94506136D01*
X139741279Y-94230431D01*
X157225954Y-94323932D01*
X157225954Y-94323932D01*
G37*
X157225954Y-94323932D02*
X157309668Y-94394590D01*
X156725434Y-94394590D01*
X156600952Y-94406850D01*
X156481254Y-94443160D01*
X156370940Y-94502125D01*
X156274249Y-94581477D01*
X156194897Y-94678168D01*
X156135932Y-94788482D01*
X156099622Y-94908180D01*
X156087362Y-95032662D01*
X156087362Y-95932662D01*
X156099622Y-96057144D01*
X156117980Y-96117662D01*
X156099622Y-96178180D01*
X156087362Y-96302662D01*
X156087362Y-97202662D01*
X156099622Y-97327144D01*
X156117980Y-97387662D01*
X156099622Y-97448180D01*
X156087362Y-97572662D01*
X156087362Y-98472662D01*
X156089070Y-98490000D01*
X155564802Y-98490000D01*
X154063804Y-96989003D01*
X154040001Y-96959999D01*
X153924276Y-96865026D01*
X153792247Y-96794454D01*
X153648986Y-96750997D01*
X153537333Y-96740000D01*
X153537322Y-96740000D01*
X153500000Y-96736324D01*
X153462678Y-96740000D01*
X146061622Y-96740000D01*
X146024300Y-96736324D01*
X145986977Y-96740000D01*
X145986967Y-96740000D01*
X145875314Y-96750997D01*
X145732053Y-96794454D01*
X145600023Y-96865026D01*
X145516383Y-96933668D01*
X145484299Y-96959999D01*
X145460501Y-96988997D01*
X141109322Y-101340177D01*
X141101246Y-101258180D01*
X141082888Y-101197662D01*
X141101246Y-101137144D01*
X141113506Y-101012662D01*
X141113506Y-100112662D01*
X141101246Y-99988180D01*
X141082888Y-99927662D01*
X141101246Y-99867144D01*
X141113506Y-99742662D01*
X141113506Y-99737200D01*
X141191439Y-99737200D01*
X141391398Y-99697426D01*
X141579756Y-99619405D01*
X141749274Y-99506137D01*
X141893437Y-99361974D01*
X142006705Y-99192456D01*
X142084726Y-99004098D01*
X142124500Y-98804139D01*
X142124500Y-98600261D01*
X142084726Y-98400302D01*
X142006705Y-98211944D01*
X141893437Y-98042426D01*
X141749274Y-97898263D01*
X141579756Y-97784995D01*
X141488873Y-97747350D01*
X141506246Y-97714847D01*
X141549703Y-97571586D01*
X141560700Y-97459933D01*
X141560700Y-97459924D01*
X141564376Y-97422601D01*
X141560700Y-97385278D01*
X141560700Y-96790033D01*
X141564377Y-96752700D01*
X141549703Y-96603714D01*
X141506246Y-96460453D01*
X141435674Y-96328424D01*
X141340701Y-96212699D01*
X141224976Y-96117726D01*
X141101766Y-96051868D01*
X141113506Y-95932662D01*
X141110434Y-95768412D01*
X140951684Y-95609662D01*
X139727434Y-95609662D01*
X139727434Y-95629662D01*
X139473434Y-95629662D01*
X139473434Y-95609662D01*
X139453434Y-95609662D01*
X139453434Y-95355662D01*
X139473434Y-95355662D01*
X139473434Y-94556412D01*
X139727434Y-94556412D01*
X139727434Y-95355662D01*
X140951684Y-95355662D01*
X141110434Y-95196912D01*
X141113506Y-95032662D01*
X141101246Y-94908180D01*
X141064936Y-94788482D01*
X141005971Y-94678168D01*
X140926619Y-94581477D01*
X140829928Y-94502125D01*
X140719614Y-94443160D01*
X140599916Y-94406850D01*
X140475434Y-94394590D01*
X139886184Y-94397662D01*
X139727434Y-94556412D01*
X139473434Y-94556412D01*
X139423158Y-94506136D01*
X139741279Y-94230431D01*
X157225954Y-94323932D01*
M02*
