%TF.GenerationSoftware,KiCad,Pcbnew,(5.1.0-47-g0a9c99914)*%
%TF.CreationDate,2019-04-04T20:09:24+09:00*%
%TF.ProjectId,xbee,78626565-2e6b-4696-9361-645f70636258,rev?*%
%TF.SameCoordinates,Original*%
%TF.FileFunction,Copper,L1,Top*%
%TF.FilePolarity,Positive*%
%FSLAX46Y46*%
G04 Gerber Fmt 4.6, Leading zero omitted, Abs format (unit mm)*
G04 Created by KiCad (PCBNEW (5.1.0-47-g0a9c99914)) date 2019-04-04 20:09:24*
%MOMM*%
%LPD*%
G04 APERTURE LIST*
%ADD10R,1.300000X1.500000*%
%ADD11R,1.200000X0.700000*%
%ADD12C,1.300000*%
%ADD13R,1.750000X0.900000*%
%ADD14R,0.900000X1.750000*%
%ADD15R,6.000000X6.000000*%
%ADD16R,1.700000X1.000000*%
%ADD17C,1.000000*%
%ADD18C,0.800000*%
%ADD19C,0.500000*%
%ADD20C,0.250000*%
%ADD21C,0.254000*%
G04 APERTURE END LIST*
D10*
X140250000Y-118000000D03*
X140250000Y-115300000D03*
D11*
X145950000Y-115950000D03*
X143550000Y-115950000D03*
X145950000Y-118050000D03*
X143550000Y-118050000D03*
D12*
X159600000Y-99500000D03*
X159600000Y-101500000D03*
X159600000Y-103500000D03*
X159600000Y-105500000D03*
X159600000Y-107500000D03*
X159600000Y-109500000D03*
X159600000Y-111500000D03*
X159600000Y-113500000D03*
X159600000Y-115500000D03*
X159600000Y-117500000D03*
X137600000Y-117500000D03*
X137600000Y-115500000D03*
X137600000Y-113500000D03*
X137600000Y-111500000D03*
X137600000Y-109500000D03*
X137600000Y-107500000D03*
X137600000Y-105500000D03*
X137600000Y-103500000D03*
X137600000Y-101500000D03*
X137600000Y-99500000D03*
D13*
X157600434Y-95482662D03*
X157600434Y-96752662D03*
X157600434Y-98022662D03*
X157600434Y-99292662D03*
X157600434Y-100562662D03*
X157600434Y-101832662D03*
X157600434Y-103102662D03*
X157600434Y-104372662D03*
X157600434Y-105642662D03*
X157600434Y-106912662D03*
X157600434Y-108182662D03*
X157600434Y-109452662D03*
X157600434Y-110722662D03*
X157600434Y-111992662D03*
D14*
X154315434Y-113482662D03*
X153045434Y-113482662D03*
X151775434Y-113482662D03*
X150505434Y-113482662D03*
X149235434Y-113482662D03*
X147965434Y-113482662D03*
X146695434Y-113482662D03*
X145425434Y-113482662D03*
X144155434Y-113482662D03*
X142885434Y-113482662D03*
D13*
X139600434Y-111992662D03*
X139600434Y-110722662D03*
X139600434Y-109452662D03*
X139600434Y-108182662D03*
X139600434Y-106912662D03*
X139600434Y-105642662D03*
X139600434Y-104372662D03*
X139600434Y-103102662D03*
X139600434Y-101832662D03*
X139600434Y-100562662D03*
X139600434Y-99292662D03*
X139600434Y-98022662D03*
X139600434Y-96752662D03*
X139600434Y-95482662D03*
D15*
X148300434Y-103182662D03*
D16*
X155900000Y-119900000D03*
X149600000Y-119900000D03*
X155900000Y-116100000D03*
X149600000Y-116100000D03*
D17*
X144750000Y-117000000D03*
D18*
X142919000Y-107992000D03*
X147164000Y-118011000D03*
X156097400Y-100562700D03*
D17*
X145707000Y-120575000D03*
D18*
X153782000Y-99292700D03*
D19*
X155900000Y-116100000D02*
X155900000Y-115100000D01*
X155900000Y-115100000D02*
X155666000Y-114866000D01*
X155666000Y-114866000D02*
X155666000Y-110548000D01*
X155666000Y-110548000D02*
X148300000Y-103183000D01*
X144750000Y-117000000D02*
X144600000Y-116850000D01*
X144600000Y-116850000D02*
X144600000Y-115240000D01*
X144600000Y-115240000D02*
X144168000Y-114808000D01*
X144168000Y-114808000D02*
X143345000Y-114808000D01*
X143345000Y-114808000D02*
X142885000Y-114348000D01*
X142885000Y-114348000D02*
X142885000Y-113483000D01*
X144750000Y-117000000D02*
X148700000Y-117000000D01*
X148700000Y-117000000D02*
X149600000Y-116100000D01*
X149600000Y-116100000D02*
X155900000Y-116100000D01*
D20*
X139600700Y-105643000D02*
X139600400Y-105642700D01*
X139600700Y-105643000D02*
X140801000Y-105643000D01*
X140801000Y-105643000D02*
X140801000Y-105874000D01*
X140801000Y-105874000D02*
X142919000Y-107992000D01*
X139600000Y-105643000D02*
X139600700Y-105643000D01*
X145950000Y-118050000D02*
X146875000Y-118050000D01*
X146875000Y-118050000D02*
X146914000Y-118011000D01*
X146914000Y-118011000D02*
X147164000Y-118011000D01*
X143550000Y-118050000D02*
X142625000Y-118050000D01*
X142625000Y-118050000D02*
X142625000Y-115815000D01*
X142625000Y-115815000D02*
X141035000Y-114225000D01*
X141035000Y-114225000D02*
X139440000Y-114225000D01*
X139440000Y-114225000D02*
X139275000Y-114390000D01*
X139275000Y-114390000D02*
X139275000Y-118000000D01*
X139275000Y-118000000D02*
X140250000Y-118000000D01*
X139600700Y-106913000D02*
X139600400Y-106912700D01*
X139600700Y-106913000D02*
X140801000Y-106913000D01*
X140801000Y-106913000D02*
X140801000Y-113201000D01*
X140801000Y-113201000D02*
X143550000Y-115950000D01*
X139600000Y-106913000D02*
X139600700Y-106913000D01*
X139600700Y-104373000D02*
X139600400Y-104372700D01*
X139600700Y-104373000D02*
X142878000Y-104373000D01*
X142878000Y-104373000D02*
X150787000Y-112282000D01*
X150787000Y-112282000D02*
X154900000Y-112282000D01*
X154900000Y-112282000D02*
X155091000Y-112473000D01*
X155091000Y-112473000D02*
X155091000Y-114545000D01*
X155091000Y-114545000D02*
X154361000Y-115275000D01*
X154361000Y-115275000D02*
X147551000Y-115275000D01*
X147551000Y-115275000D02*
X146875000Y-115950000D01*
X146875000Y-115950000D02*
X145950000Y-115950000D01*
X139600000Y-104373000D02*
X139600700Y-104373000D01*
X157600000Y-111993000D02*
X157600100Y-111993000D01*
X157600100Y-111993000D02*
X157600400Y-111992700D01*
X157600000Y-111993000D02*
X156400000Y-111993000D01*
X156400000Y-111993000D02*
X156400000Y-112768000D01*
X156400000Y-112768000D02*
X157075000Y-113443000D01*
X157075000Y-113443000D02*
X157075000Y-119900000D01*
X157075000Y-119900000D02*
X155900000Y-119900000D01*
X149600000Y-119900000D02*
X155900000Y-119900000D01*
X156400100Y-100562700D02*
X156097400Y-100562700D01*
X156512700Y-100562700D02*
X156400100Y-100562700D01*
X157600400Y-100562700D02*
X156512700Y-100562700D01*
X157600400Y-109452700D02*
X156400100Y-109452700D01*
X156400100Y-109452700D02*
X156400100Y-100562700D01*
D19*
X139600000Y-97467000D02*
X139600400Y-97467400D01*
X139600400Y-97467400D02*
X139600400Y-98022700D01*
X139600000Y-97467000D02*
X139600000Y-97705200D01*
X139600000Y-97228900D02*
X139600000Y-97467000D01*
X139600000Y-96752700D02*
X139600400Y-96752700D01*
X139600000Y-96752700D02*
X137247000Y-96752700D01*
X137247000Y-96752700D02*
X136500000Y-97500000D01*
X136500000Y-97500000D02*
X136500000Y-118028000D01*
X136500000Y-118028000D02*
X137672000Y-119200000D01*
X137672000Y-119200000D02*
X141260000Y-119200000D01*
X141260000Y-119200000D02*
X141330000Y-119130000D01*
X139600000Y-97228900D02*
X139600000Y-96752700D01*
X139600000Y-97228900D02*
X139600000Y-96752700D01*
X141330000Y-119130000D02*
X141400000Y-119060000D01*
X141400000Y-119060000D02*
X141400000Y-116450000D01*
X141400000Y-116450000D02*
X140250000Y-115300000D01*
X141330000Y-119130000D02*
X144262000Y-119130000D01*
X144262000Y-119130000D02*
X145707000Y-120575000D01*
D20*
X157600400Y-99292700D02*
X153782000Y-99292700D01*
D21*
G36*
X158364381Y-113125179D02*
G01*
X158315000Y-113373439D01*
X158315000Y-113626561D01*
X158364381Y-113874821D01*
X158461247Y-114108676D01*
X158601875Y-114319140D01*
X158780860Y-114498125D01*
X158783666Y-114500000D01*
X158780860Y-114501875D01*
X158601875Y-114680860D01*
X158461247Y-114891324D01*
X158364381Y-115125179D01*
X158315000Y-115373439D01*
X158315000Y-115626561D01*
X158364381Y-115874821D01*
X158461247Y-116108676D01*
X158601875Y-116319140D01*
X158780860Y-116498125D01*
X158783666Y-116500000D01*
X158780860Y-116501875D01*
X158601875Y-116680860D01*
X158461247Y-116891324D01*
X158364381Y-117125179D01*
X158315000Y-117373439D01*
X158315000Y-117626561D01*
X158364381Y-117874821D01*
X158461247Y-118108676D01*
X158601875Y-118319140D01*
X158780860Y-118498125D01*
X158991324Y-118638753D01*
X159225179Y-118735619D01*
X159473439Y-118785000D01*
X159726561Y-118785000D01*
X159974821Y-118735619D01*
X160208676Y-118638753D01*
X160419140Y-118498125D01*
X160532587Y-118384678D01*
X160538638Y-121540000D01*
X146305721Y-121540000D01*
X146430520Y-121456612D01*
X146588612Y-121298520D01*
X146712824Y-121112624D01*
X146798383Y-120906067D01*
X146842000Y-120686788D01*
X146842000Y-120463212D01*
X146798383Y-120243933D01*
X146712824Y-120037376D01*
X146588612Y-119851480D01*
X146430520Y-119693388D01*
X146244624Y-119569176D01*
X146038067Y-119483617D01*
X145824768Y-119441190D01*
X145421650Y-119038072D01*
X146550000Y-119038072D01*
X146674482Y-119025812D01*
X146794180Y-118989502D01*
X146806207Y-118983073D01*
X146862102Y-119006226D01*
X147062061Y-119046000D01*
X147265939Y-119046000D01*
X147465898Y-119006226D01*
X147654256Y-118928205D01*
X147823774Y-118814937D01*
X147967937Y-118670774D01*
X148081205Y-118501256D01*
X148159226Y-118312898D01*
X148199000Y-118112939D01*
X148199000Y-117909061D01*
X148159226Y-117709102D01*
X148081205Y-117520744D01*
X147967937Y-117351226D01*
X147823774Y-117207063D01*
X147654256Y-117093795D01*
X147465898Y-117015774D01*
X147265939Y-116976000D01*
X147062061Y-116976000D01*
X146862102Y-117015774D01*
X146701380Y-117082348D01*
X146674482Y-117074188D01*
X146550000Y-117061928D01*
X145350000Y-117061928D01*
X145225518Y-117074188D01*
X145105820Y-117110498D01*
X144995506Y-117169463D01*
X144898815Y-117248815D01*
X144819463Y-117345506D01*
X144760498Y-117455820D01*
X144750000Y-117490427D01*
X144739502Y-117455820D01*
X144680537Y-117345506D01*
X144601185Y-117248815D01*
X144504494Y-117169463D01*
X144394180Y-117110498D01*
X144274482Y-117074188D01*
X144150000Y-117061928D01*
X143385000Y-117061928D01*
X143385000Y-116938072D01*
X144150000Y-116938072D01*
X144274482Y-116925812D01*
X144394180Y-116889502D01*
X144504494Y-116830537D01*
X144601185Y-116751185D01*
X144680537Y-116654494D01*
X144739502Y-116544180D01*
X144750000Y-116509573D01*
X144760498Y-116544180D01*
X144819463Y-116654494D01*
X144898815Y-116751185D01*
X144995506Y-116830537D01*
X145105820Y-116889502D01*
X145225518Y-116925812D01*
X145350000Y-116938072D01*
X146550000Y-116938072D01*
X146674482Y-116925812D01*
X146794180Y-116889502D01*
X146904494Y-116830537D01*
X147001185Y-116751185D01*
X147050647Y-116690916D01*
X147096307Y-116677065D01*
X147166724Y-116655762D01*
X147166973Y-116655629D01*
X147167247Y-116655546D01*
X147233988Y-116619872D01*
X147271230Y-116600000D01*
X148111928Y-116600000D01*
X148124188Y-116724482D01*
X148160498Y-116844180D01*
X148219463Y-116954494D01*
X148298815Y-117051185D01*
X148395506Y-117130537D01*
X148505820Y-117189502D01*
X148625518Y-117225812D01*
X148750000Y-117238072D01*
X149314250Y-117235000D01*
X149473000Y-117076250D01*
X149473000Y-116227000D01*
X149727000Y-116227000D01*
X149727000Y-117076250D01*
X149885750Y-117235000D01*
X150450000Y-117238072D01*
X150574482Y-117225812D01*
X150694180Y-117189502D01*
X150804494Y-117130537D01*
X150901185Y-117051185D01*
X150980537Y-116954494D01*
X151039502Y-116844180D01*
X151075812Y-116724482D01*
X151088072Y-116600000D01*
X154411928Y-116600000D01*
X154424188Y-116724482D01*
X154460498Y-116844180D01*
X154519463Y-116954494D01*
X154598815Y-117051185D01*
X154695506Y-117130537D01*
X154805820Y-117189502D01*
X154925518Y-117225812D01*
X155050000Y-117238072D01*
X155614250Y-117235000D01*
X155773000Y-117076250D01*
X155773000Y-116227000D01*
X154573750Y-116227000D01*
X154415000Y-116385750D01*
X154411928Y-116600000D01*
X151088072Y-116600000D01*
X151085000Y-116385750D01*
X150926250Y-116227000D01*
X149727000Y-116227000D01*
X149473000Y-116227000D01*
X148273750Y-116227000D01*
X148115000Y-116385750D01*
X148111928Y-116600000D01*
X147271230Y-116600000D01*
X147298805Y-116585287D01*
X147299020Y-116585111D01*
X147299276Y-116584974D01*
X147357642Y-116537075D01*
X147385585Y-116514177D01*
X147385781Y-116513981D01*
X147415001Y-116490001D01*
X147438623Y-116461218D01*
X147865472Y-116035000D01*
X154323678Y-116035000D01*
X154361000Y-116038676D01*
X154398322Y-116035000D01*
X154398333Y-116035000D01*
X154509986Y-116024003D01*
X154653247Y-115980546D01*
X154667364Y-115973000D01*
X155773000Y-115973000D01*
X155773000Y-115123750D01*
X155677541Y-115028291D01*
X155692144Y-115010498D01*
X155725974Y-114969277D01*
X155796546Y-114837247D01*
X155806042Y-114805941D01*
X155840003Y-114693986D01*
X155851000Y-114582333D01*
X155851000Y-114582323D01*
X155854676Y-114545000D01*
X155851000Y-114507677D01*
X155851000Y-113297034D01*
X155860000Y-113308001D01*
X155888998Y-113331799D01*
X156315000Y-113757802D01*
X156315000Y-114964296D01*
X156185750Y-114965000D01*
X156027000Y-115123750D01*
X156027000Y-115973000D01*
X156047000Y-115973000D01*
X156047000Y-116227000D01*
X156027000Y-116227000D01*
X156027000Y-117076250D01*
X156185750Y-117235000D01*
X156315001Y-117235704D01*
X156315001Y-118761928D01*
X155050000Y-118761928D01*
X154925518Y-118774188D01*
X154805820Y-118810498D01*
X154695506Y-118869463D01*
X154598815Y-118948815D01*
X154519463Y-119045506D01*
X154468954Y-119140000D01*
X151031046Y-119140000D01*
X150980537Y-119045506D01*
X150901185Y-118948815D01*
X150804494Y-118869463D01*
X150694180Y-118810498D01*
X150574482Y-118774188D01*
X150450000Y-118761928D01*
X148750000Y-118761928D01*
X148625518Y-118774188D01*
X148505820Y-118810498D01*
X148395506Y-118869463D01*
X148298815Y-118948815D01*
X148219463Y-119045506D01*
X148160498Y-119155820D01*
X148124188Y-119275518D01*
X148111928Y-119400000D01*
X148111928Y-120400000D01*
X148124188Y-120524482D01*
X148160498Y-120644180D01*
X148219463Y-120754494D01*
X148298815Y-120851185D01*
X148395506Y-120930537D01*
X148505820Y-120989502D01*
X148625518Y-121025812D01*
X148750000Y-121038072D01*
X150450000Y-121038072D01*
X150574482Y-121025812D01*
X150694180Y-120989502D01*
X150804494Y-120930537D01*
X150901185Y-120851185D01*
X150980537Y-120754494D01*
X151031046Y-120660000D01*
X154468954Y-120660000D01*
X154519463Y-120754494D01*
X154598815Y-120851185D01*
X154695506Y-120930537D01*
X154805820Y-120989502D01*
X154925518Y-121025812D01*
X155050000Y-121038072D01*
X156750000Y-121038072D01*
X156874482Y-121025812D01*
X156994180Y-120989502D01*
X157104494Y-120930537D01*
X157201185Y-120851185D01*
X157280537Y-120754494D01*
X157339502Y-120644180D01*
X157349597Y-120610900D01*
X157367247Y-120605546D01*
X157499276Y-120534974D01*
X157615001Y-120440001D01*
X157709974Y-120324276D01*
X157780546Y-120192247D01*
X157824003Y-120048986D01*
X157835000Y-119937333D01*
X157838677Y-119900000D01*
X157835000Y-119862667D01*
X157835000Y-113480322D01*
X157838676Y-113442999D01*
X157835000Y-113405676D01*
X157835000Y-113405667D01*
X157824003Y-113294014D01*
X157780546Y-113150753D01*
X157743120Y-113080734D01*
X158382791Y-113080734D01*
X158364381Y-113125179D01*
X158364381Y-113125179D01*
G37*
X158364381Y-113125179D02*
X158315000Y-113373439D01*
X158315000Y-113626561D01*
X158364381Y-113874821D01*
X158461247Y-114108676D01*
X158601875Y-114319140D01*
X158780860Y-114498125D01*
X158783666Y-114500000D01*
X158780860Y-114501875D01*
X158601875Y-114680860D01*
X158461247Y-114891324D01*
X158364381Y-115125179D01*
X158315000Y-115373439D01*
X158315000Y-115626561D01*
X158364381Y-115874821D01*
X158461247Y-116108676D01*
X158601875Y-116319140D01*
X158780860Y-116498125D01*
X158783666Y-116500000D01*
X158780860Y-116501875D01*
X158601875Y-116680860D01*
X158461247Y-116891324D01*
X158364381Y-117125179D01*
X158315000Y-117373439D01*
X158315000Y-117626561D01*
X158364381Y-117874821D01*
X158461247Y-118108676D01*
X158601875Y-118319140D01*
X158780860Y-118498125D01*
X158991324Y-118638753D01*
X159225179Y-118735619D01*
X159473439Y-118785000D01*
X159726561Y-118785000D01*
X159974821Y-118735619D01*
X160208676Y-118638753D01*
X160419140Y-118498125D01*
X160532587Y-118384678D01*
X160538638Y-121540000D01*
X146305721Y-121540000D01*
X146430520Y-121456612D01*
X146588612Y-121298520D01*
X146712824Y-121112624D01*
X146798383Y-120906067D01*
X146842000Y-120686788D01*
X146842000Y-120463212D01*
X146798383Y-120243933D01*
X146712824Y-120037376D01*
X146588612Y-119851480D01*
X146430520Y-119693388D01*
X146244624Y-119569176D01*
X146038067Y-119483617D01*
X145824768Y-119441190D01*
X145421650Y-119038072D01*
X146550000Y-119038072D01*
X146674482Y-119025812D01*
X146794180Y-118989502D01*
X146806207Y-118983073D01*
X146862102Y-119006226D01*
X147062061Y-119046000D01*
X147265939Y-119046000D01*
X147465898Y-119006226D01*
X147654256Y-118928205D01*
X147823774Y-118814937D01*
X147967937Y-118670774D01*
X148081205Y-118501256D01*
X148159226Y-118312898D01*
X148199000Y-118112939D01*
X148199000Y-117909061D01*
X148159226Y-117709102D01*
X148081205Y-117520744D01*
X147967937Y-117351226D01*
X147823774Y-117207063D01*
X147654256Y-117093795D01*
X147465898Y-117015774D01*
X147265939Y-116976000D01*
X147062061Y-116976000D01*
X146862102Y-117015774D01*
X146701380Y-117082348D01*
X146674482Y-117074188D01*
X146550000Y-117061928D01*
X145350000Y-117061928D01*
X145225518Y-117074188D01*
X145105820Y-117110498D01*
X144995506Y-117169463D01*
X144898815Y-117248815D01*
X144819463Y-117345506D01*
X144760498Y-117455820D01*
X144750000Y-117490427D01*
X144739502Y-117455820D01*
X144680537Y-117345506D01*
X144601185Y-117248815D01*
X144504494Y-117169463D01*
X144394180Y-117110498D01*
X144274482Y-117074188D01*
X144150000Y-117061928D01*
X143385000Y-117061928D01*
X143385000Y-116938072D01*
X144150000Y-116938072D01*
X144274482Y-116925812D01*
X144394180Y-116889502D01*
X144504494Y-116830537D01*
X144601185Y-116751185D01*
X144680537Y-116654494D01*
X144739502Y-116544180D01*
X144750000Y-116509573D01*
X144760498Y-116544180D01*
X144819463Y-116654494D01*
X144898815Y-116751185D01*
X144995506Y-116830537D01*
X145105820Y-116889502D01*
X145225518Y-116925812D01*
X145350000Y-116938072D01*
X146550000Y-116938072D01*
X146674482Y-116925812D01*
X146794180Y-116889502D01*
X146904494Y-116830537D01*
X147001185Y-116751185D01*
X147050647Y-116690916D01*
X147096307Y-116677065D01*
X147166724Y-116655762D01*
X147166973Y-116655629D01*
X147167247Y-116655546D01*
X147233988Y-116619872D01*
X147271230Y-116600000D01*
X148111928Y-116600000D01*
X148124188Y-116724482D01*
X148160498Y-116844180D01*
X148219463Y-116954494D01*
X148298815Y-117051185D01*
X148395506Y-117130537D01*
X148505820Y-117189502D01*
X148625518Y-117225812D01*
X148750000Y-117238072D01*
X149314250Y-117235000D01*
X149473000Y-117076250D01*
X149473000Y-116227000D01*
X149727000Y-116227000D01*
X149727000Y-117076250D01*
X149885750Y-117235000D01*
X150450000Y-117238072D01*
X150574482Y-117225812D01*
X150694180Y-117189502D01*
X150804494Y-117130537D01*
X150901185Y-117051185D01*
X150980537Y-116954494D01*
X151039502Y-116844180D01*
X151075812Y-116724482D01*
X151088072Y-116600000D01*
X154411928Y-116600000D01*
X154424188Y-116724482D01*
X154460498Y-116844180D01*
X154519463Y-116954494D01*
X154598815Y-117051185D01*
X154695506Y-117130537D01*
X154805820Y-117189502D01*
X154925518Y-117225812D01*
X155050000Y-117238072D01*
X155614250Y-117235000D01*
X155773000Y-117076250D01*
X155773000Y-116227000D01*
X154573750Y-116227000D01*
X154415000Y-116385750D01*
X154411928Y-116600000D01*
X151088072Y-116600000D01*
X151085000Y-116385750D01*
X150926250Y-116227000D01*
X149727000Y-116227000D01*
X149473000Y-116227000D01*
X148273750Y-116227000D01*
X148115000Y-116385750D01*
X148111928Y-116600000D01*
X147271230Y-116600000D01*
X147298805Y-116585287D01*
X147299020Y-116585111D01*
X147299276Y-116584974D01*
X147357642Y-116537075D01*
X147385585Y-116514177D01*
X147385781Y-116513981D01*
X147415001Y-116490001D01*
X147438623Y-116461218D01*
X147865472Y-116035000D01*
X154323678Y-116035000D01*
X154361000Y-116038676D01*
X154398322Y-116035000D01*
X154398333Y-116035000D01*
X154509986Y-116024003D01*
X154653247Y-115980546D01*
X154667364Y-115973000D01*
X155773000Y-115973000D01*
X155773000Y-115123750D01*
X155677541Y-115028291D01*
X155692144Y-115010498D01*
X155725974Y-114969277D01*
X155796546Y-114837247D01*
X155806042Y-114805941D01*
X155840003Y-114693986D01*
X155851000Y-114582333D01*
X155851000Y-114582323D01*
X155854676Y-114545000D01*
X155851000Y-114507677D01*
X155851000Y-113297034D01*
X155860000Y-113308001D01*
X155888998Y-113331799D01*
X156315000Y-113757802D01*
X156315000Y-114964296D01*
X156185750Y-114965000D01*
X156027000Y-115123750D01*
X156027000Y-115973000D01*
X156047000Y-115973000D01*
X156047000Y-116227000D01*
X156027000Y-116227000D01*
X156027000Y-117076250D01*
X156185750Y-117235000D01*
X156315001Y-117235704D01*
X156315001Y-118761928D01*
X155050000Y-118761928D01*
X154925518Y-118774188D01*
X154805820Y-118810498D01*
X154695506Y-118869463D01*
X154598815Y-118948815D01*
X154519463Y-119045506D01*
X154468954Y-119140000D01*
X151031046Y-119140000D01*
X150980537Y-119045506D01*
X150901185Y-118948815D01*
X150804494Y-118869463D01*
X150694180Y-118810498D01*
X150574482Y-118774188D01*
X150450000Y-118761928D01*
X148750000Y-118761928D01*
X148625518Y-118774188D01*
X148505820Y-118810498D01*
X148395506Y-118869463D01*
X148298815Y-118948815D01*
X148219463Y-119045506D01*
X148160498Y-119155820D01*
X148124188Y-119275518D01*
X148111928Y-119400000D01*
X148111928Y-120400000D01*
X148124188Y-120524482D01*
X148160498Y-120644180D01*
X148219463Y-120754494D01*
X148298815Y-120851185D01*
X148395506Y-120930537D01*
X148505820Y-120989502D01*
X148625518Y-121025812D01*
X148750000Y-121038072D01*
X150450000Y-121038072D01*
X150574482Y-121025812D01*
X150694180Y-120989502D01*
X150804494Y-120930537D01*
X150901185Y-120851185D01*
X150980537Y-120754494D01*
X151031046Y-120660000D01*
X154468954Y-120660000D01*
X154519463Y-120754494D01*
X154598815Y-120851185D01*
X154695506Y-120930537D01*
X154805820Y-120989502D01*
X154925518Y-121025812D01*
X155050000Y-121038072D01*
X156750000Y-121038072D01*
X156874482Y-121025812D01*
X156994180Y-120989502D01*
X157104494Y-120930537D01*
X157201185Y-120851185D01*
X157280537Y-120754494D01*
X157339502Y-120644180D01*
X157349597Y-120610900D01*
X157367247Y-120605546D01*
X157499276Y-120534974D01*
X157615001Y-120440001D01*
X157709974Y-120324276D01*
X157780546Y-120192247D01*
X157824003Y-120048986D01*
X157835000Y-119937333D01*
X157838677Y-119900000D01*
X157835000Y-119862667D01*
X157835000Y-113480322D01*
X157838676Y-113442999D01*
X157835000Y-113405676D01*
X157835000Y-113405667D01*
X157824003Y-113294014D01*
X157780546Y-113150753D01*
X157743120Y-113080734D01*
X158382791Y-113080734D01*
X158364381Y-113125179D01*
G36*
X138515001Y-116800959D02*
G01*
X138485527Y-116794078D01*
X137779605Y-117500000D01*
X137793748Y-117514143D01*
X137614143Y-117693748D01*
X137600000Y-117679605D01*
X137585858Y-117693748D01*
X137406253Y-117514143D01*
X137420395Y-117500000D01*
X137406253Y-117485858D01*
X137585858Y-117306253D01*
X137600000Y-117320395D01*
X138305922Y-116614473D01*
X138297703Y-116579267D01*
X138419140Y-116498125D01*
X138515001Y-116402264D01*
X138515001Y-116800959D01*
X138515001Y-116800959D01*
G37*
X138515001Y-116800959D02*
X138485527Y-116794078D01*
X137779605Y-117500000D01*
X137793748Y-117514143D01*
X137614143Y-117693748D01*
X137600000Y-117679605D01*
X137585858Y-117693748D01*
X137406253Y-117514143D01*
X137420395Y-117500000D01*
X137406253Y-117485858D01*
X137585858Y-117306253D01*
X137600000Y-117320395D01*
X138305922Y-116614473D01*
X138297703Y-116579267D01*
X138419140Y-116498125D01*
X138515001Y-116402264D01*
X138515001Y-116800959D01*
G36*
X144850952Y-114983474D02*
G01*
X144975434Y-114995734D01*
X145154490Y-114995734D01*
X145105820Y-115010498D01*
X144995506Y-115069463D01*
X144898815Y-115148815D01*
X144819463Y-115245506D01*
X144760498Y-115355820D01*
X144750000Y-115390427D01*
X144739502Y-115355820D01*
X144680537Y-115245506D01*
X144601185Y-115148815D01*
X144504494Y-115069463D01*
X144394180Y-115010498D01*
X144345510Y-114995734D01*
X144605434Y-114995734D01*
X144729916Y-114983474D01*
X144790434Y-114965116D01*
X144850952Y-114983474D01*
X144850952Y-114983474D01*
G37*
X144850952Y-114983474D02*
X144975434Y-114995734D01*
X145154490Y-114995734D01*
X145105820Y-115010498D01*
X144995506Y-115069463D01*
X144898815Y-115148815D01*
X144819463Y-115245506D01*
X144760498Y-115355820D01*
X144750000Y-115390427D01*
X144739502Y-115355820D01*
X144680537Y-115245506D01*
X144601185Y-115148815D01*
X144504494Y-115069463D01*
X144394180Y-115010498D01*
X144345510Y-114995734D01*
X144605434Y-114995734D01*
X144729916Y-114983474D01*
X144790434Y-114965116D01*
X144850952Y-114983474D01*
G36*
X149399788Y-111969590D02*
G01*
X148785434Y-111969590D01*
X148660952Y-111981850D01*
X148600434Y-112000208D01*
X148539916Y-111981850D01*
X148415434Y-111969590D01*
X147515434Y-111969590D01*
X147390952Y-111981850D01*
X147330434Y-112000208D01*
X147269916Y-111981850D01*
X147145434Y-111969590D01*
X146245434Y-111969590D01*
X146120952Y-111981850D01*
X146060434Y-112000208D01*
X145999916Y-111981850D01*
X145875434Y-111969590D01*
X144975434Y-111969590D01*
X144850952Y-111981850D01*
X144790434Y-112000208D01*
X144729916Y-111981850D01*
X144605434Y-111969590D01*
X143705434Y-111969590D01*
X143580952Y-111981850D01*
X143520434Y-112000208D01*
X143459916Y-111981850D01*
X143335434Y-111969590D01*
X143171184Y-111972662D01*
X143012434Y-112131412D01*
X143012434Y-113355662D01*
X143032434Y-113355662D01*
X143032434Y-113609662D01*
X143012434Y-113609662D01*
X143012434Y-113629662D01*
X142758434Y-113629662D01*
X142758434Y-113609662D01*
X142738434Y-113609662D01*
X142738434Y-113355662D01*
X142758434Y-113355662D01*
X142758434Y-112131412D01*
X142599684Y-111972662D01*
X142435434Y-111969590D01*
X142310952Y-111981850D01*
X142191254Y-112018160D01*
X142080940Y-112077125D01*
X141984249Y-112156477D01*
X141904897Y-112253168D01*
X141845932Y-112363482D01*
X141809622Y-112483180D01*
X141797362Y-112607662D01*
X141800060Y-113125259D01*
X141561000Y-112886199D01*
X141561000Y-107708802D01*
X141884000Y-108031802D01*
X141884000Y-108093939D01*
X141923774Y-108293898D01*
X142001795Y-108482256D01*
X142115063Y-108651774D01*
X142259226Y-108795937D01*
X142428744Y-108909205D01*
X142617102Y-108987226D01*
X142817061Y-109027000D01*
X143020939Y-109027000D01*
X143220898Y-108987226D01*
X143409256Y-108909205D01*
X143578774Y-108795937D01*
X143722937Y-108651774D01*
X143836205Y-108482256D01*
X143914226Y-108293898D01*
X143954000Y-108093939D01*
X143954000Y-107890061D01*
X143914226Y-107690102D01*
X143836205Y-107501744D01*
X143722937Y-107332226D01*
X143578774Y-107188063D01*
X143409256Y-107074795D01*
X143220898Y-106996774D01*
X143020939Y-106957000D01*
X142958802Y-106957000D01*
X141555923Y-105554122D01*
X141550003Y-105494014D01*
X141506546Y-105350753D01*
X141435974Y-105218724D01*
X141365622Y-105133000D01*
X142563199Y-105133000D01*
X149399788Y-111969590D01*
X149399788Y-111969590D01*
G37*
X149399788Y-111969590D02*
X148785434Y-111969590D01*
X148660952Y-111981850D01*
X148600434Y-112000208D01*
X148539916Y-111981850D01*
X148415434Y-111969590D01*
X147515434Y-111969590D01*
X147390952Y-111981850D01*
X147330434Y-112000208D01*
X147269916Y-111981850D01*
X147145434Y-111969590D01*
X146245434Y-111969590D01*
X146120952Y-111981850D01*
X146060434Y-112000208D01*
X145999916Y-111981850D01*
X145875434Y-111969590D01*
X144975434Y-111969590D01*
X144850952Y-111981850D01*
X144790434Y-112000208D01*
X144729916Y-111981850D01*
X144605434Y-111969590D01*
X143705434Y-111969590D01*
X143580952Y-111981850D01*
X143520434Y-112000208D01*
X143459916Y-111981850D01*
X143335434Y-111969590D01*
X143171184Y-111972662D01*
X143012434Y-112131412D01*
X143012434Y-113355662D01*
X143032434Y-113355662D01*
X143032434Y-113609662D01*
X143012434Y-113609662D01*
X143012434Y-113629662D01*
X142758434Y-113629662D01*
X142758434Y-113609662D01*
X142738434Y-113609662D01*
X142738434Y-113355662D01*
X142758434Y-113355662D01*
X142758434Y-112131412D01*
X142599684Y-111972662D01*
X142435434Y-111969590D01*
X142310952Y-111981850D01*
X142191254Y-112018160D01*
X142080940Y-112077125D01*
X141984249Y-112156477D01*
X141904897Y-112253168D01*
X141845932Y-112363482D01*
X141809622Y-112483180D01*
X141797362Y-112607662D01*
X141800060Y-113125259D01*
X141561000Y-112886199D01*
X141561000Y-107708802D01*
X141884000Y-108031802D01*
X141884000Y-108093939D01*
X141923774Y-108293898D01*
X142001795Y-108482256D01*
X142115063Y-108651774D01*
X142259226Y-108795937D01*
X142428744Y-108909205D01*
X142617102Y-108987226D01*
X142817061Y-109027000D01*
X143020939Y-109027000D01*
X143220898Y-108987226D01*
X143409256Y-108909205D01*
X143578774Y-108795937D01*
X143722937Y-108651774D01*
X143836205Y-108482256D01*
X143914226Y-108293898D01*
X143954000Y-108093939D01*
X143954000Y-107890061D01*
X143914226Y-107690102D01*
X143836205Y-107501744D01*
X143722937Y-107332226D01*
X143578774Y-107188063D01*
X143409256Y-107074795D01*
X143220898Y-106996774D01*
X143020939Y-106957000D01*
X142958802Y-106957000D01*
X141555923Y-105554122D01*
X141550003Y-105494014D01*
X141506546Y-105350753D01*
X141435974Y-105218724D01*
X141365622Y-105133000D01*
X142563199Y-105133000D01*
X149399788Y-111969590D01*
G36*
X157222217Y-94320779D02*
G01*
X157309668Y-94394590D01*
X156725434Y-94394590D01*
X156600952Y-94406850D01*
X156481254Y-94443160D01*
X156370940Y-94502125D01*
X156274249Y-94581477D01*
X156194897Y-94678168D01*
X156135932Y-94788482D01*
X156099622Y-94908180D01*
X156087362Y-95032662D01*
X156087362Y-95932662D01*
X156099622Y-96057144D01*
X156117980Y-96117662D01*
X156099622Y-96178180D01*
X156087362Y-96302662D01*
X156087362Y-97202662D01*
X156099622Y-97327144D01*
X156117980Y-97387662D01*
X156099622Y-97448180D01*
X156087362Y-97572662D01*
X156087362Y-98472662D01*
X156093275Y-98532700D01*
X154485711Y-98532700D01*
X154441774Y-98488763D01*
X154272256Y-98375495D01*
X154083898Y-98297474D01*
X153883939Y-98257700D01*
X153680061Y-98257700D01*
X153480102Y-98297474D01*
X153291744Y-98375495D01*
X153122226Y-98488763D01*
X152978063Y-98632926D01*
X152864795Y-98802444D01*
X152786774Y-98990802D01*
X152747000Y-99190761D01*
X152747000Y-99394639D01*
X152786774Y-99594598D01*
X152864795Y-99782956D01*
X152978063Y-99952474D01*
X153122226Y-100096637D01*
X153291744Y-100209905D01*
X153480102Y-100287926D01*
X153680061Y-100327700D01*
X153883939Y-100327700D01*
X154083898Y-100287926D01*
X154272256Y-100209905D01*
X154441774Y-100096637D01*
X154485711Y-100052700D01*
X155193387Y-100052700D01*
X155180195Y-100072444D01*
X155102174Y-100260802D01*
X155062400Y-100460761D01*
X155062400Y-100664639D01*
X155102174Y-100864598D01*
X155180195Y-101052956D01*
X155293463Y-101222474D01*
X155437626Y-101366637D01*
X155607144Y-101479905D01*
X155640101Y-101493556D01*
X155640100Y-109415367D01*
X155636423Y-109452700D01*
X155651097Y-109601686D01*
X155694554Y-109744947D01*
X155765126Y-109876976D01*
X155860099Y-109992701D01*
X155975824Y-110087674D01*
X156099092Y-110153563D01*
X156087362Y-110272662D01*
X156087362Y-111172662D01*
X156099122Y-111292067D01*
X155975724Y-111358026D01*
X155859999Y-111452999D01*
X155765026Y-111568724D01*
X155694454Y-111700753D01*
X155650997Y-111844014D01*
X155641029Y-111945218D01*
X155631001Y-111932999D01*
X155601998Y-111909197D01*
X155463804Y-111771003D01*
X155440001Y-111741999D01*
X155324276Y-111647026D01*
X155192247Y-111576454D01*
X155048986Y-111532997D01*
X154937333Y-111522000D01*
X154937322Y-111522000D01*
X154900000Y-111518324D01*
X154862678Y-111522000D01*
X151101802Y-111522000D01*
X146399292Y-106819490D01*
X148014684Y-106817662D01*
X148173434Y-106658912D01*
X148173434Y-103309662D01*
X148427434Y-103309662D01*
X148427434Y-106658912D01*
X148586184Y-106817662D01*
X151300434Y-106820734D01*
X151424916Y-106808474D01*
X151544614Y-106772164D01*
X151654928Y-106713199D01*
X151751619Y-106633847D01*
X151830971Y-106537156D01*
X151889936Y-106426842D01*
X151926246Y-106307144D01*
X151938506Y-106182662D01*
X151935434Y-103468412D01*
X151776684Y-103309662D01*
X148427434Y-103309662D01*
X148173434Y-103309662D01*
X144824184Y-103309662D01*
X144665434Y-103468412D01*
X144663606Y-105083805D01*
X143441804Y-103862003D01*
X143418001Y-103832999D01*
X143302276Y-103738026D01*
X143170247Y-103667454D01*
X143026986Y-103623997D01*
X142915333Y-103613000D01*
X142915322Y-103613000D01*
X142878000Y-103609324D01*
X142840678Y-103613000D01*
X141107563Y-103613000D01*
X141113506Y-103552662D01*
X141113506Y-102652662D01*
X141101246Y-102528180D01*
X141082888Y-102467662D01*
X141101246Y-102407144D01*
X141113506Y-102282662D01*
X141113506Y-101382662D01*
X141101246Y-101258180D01*
X141082888Y-101197662D01*
X141101246Y-101137144D01*
X141113506Y-101012662D01*
X141113506Y-100182662D01*
X144662362Y-100182662D01*
X144665434Y-102896912D01*
X144824184Y-103055662D01*
X148173434Y-103055662D01*
X148173434Y-99706412D01*
X148427434Y-99706412D01*
X148427434Y-103055662D01*
X151776684Y-103055662D01*
X151935434Y-102896912D01*
X151938506Y-100182662D01*
X151926246Y-100058180D01*
X151889936Y-99938482D01*
X151830971Y-99828168D01*
X151751619Y-99731477D01*
X151654928Y-99652125D01*
X151544614Y-99593160D01*
X151424916Y-99556850D01*
X151300434Y-99544590D01*
X148586184Y-99547662D01*
X148427434Y-99706412D01*
X148173434Y-99706412D01*
X148014684Y-99547662D01*
X145300434Y-99544590D01*
X145175952Y-99556850D01*
X145056254Y-99593160D01*
X144945940Y-99652125D01*
X144849249Y-99731477D01*
X144769897Y-99828168D01*
X144710932Y-99938482D01*
X144674622Y-100058180D01*
X144662362Y-100182662D01*
X141113506Y-100182662D01*
X141113506Y-100112662D01*
X141101246Y-99988180D01*
X141082888Y-99927662D01*
X141101246Y-99867144D01*
X141113506Y-99742662D01*
X141113506Y-98842662D01*
X141101246Y-98718180D01*
X141082888Y-98657662D01*
X141101246Y-98597144D01*
X141113506Y-98472662D01*
X141113506Y-97572662D01*
X141101246Y-97448180D01*
X141082888Y-97387662D01*
X141101246Y-97327144D01*
X141113506Y-97202662D01*
X141113506Y-96302662D01*
X141101246Y-96178180D01*
X141082888Y-96117662D01*
X141101246Y-96057144D01*
X141113506Y-95932662D01*
X141110434Y-95768412D01*
X140951684Y-95609662D01*
X139727434Y-95609662D01*
X139727434Y-95629662D01*
X139473434Y-95629662D01*
X139473434Y-95609662D01*
X139453434Y-95609662D01*
X139453434Y-95355662D01*
X139473434Y-95355662D01*
X139473434Y-94556412D01*
X139727434Y-94556412D01*
X139727434Y-95355662D01*
X140951684Y-95355662D01*
X141110434Y-95196912D01*
X141113506Y-95032662D01*
X141101246Y-94908180D01*
X141064936Y-94788482D01*
X141005971Y-94678168D01*
X140926619Y-94581477D01*
X140829928Y-94502125D01*
X140719614Y-94443160D01*
X140599916Y-94406850D01*
X140475434Y-94394590D01*
X139886184Y-94397662D01*
X139727434Y-94556412D01*
X139473434Y-94556412D01*
X139423158Y-94506136D01*
X139853111Y-94133510D01*
X157222217Y-94320779D01*
X157222217Y-94320779D01*
G37*
X157222217Y-94320779D02*
X157309668Y-94394590D01*
X156725434Y-94394590D01*
X156600952Y-94406850D01*
X156481254Y-94443160D01*
X156370940Y-94502125D01*
X156274249Y-94581477D01*
X156194897Y-94678168D01*
X156135932Y-94788482D01*
X156099622Y-94908180D01*
X156087362Y-95032662D01*
X156087362Y-95932662D01*
X156099622Y-96057144D01*
X156117980Y-96117662D01*
X156099622Y-96178180D01*
X156087362Y-96302662D01*
X156087362Y-97202662D01*
X156099622Y-97327144D01*
X156117980Y-97387662D01*
X156099622Y-97448180D01*
X156087362Y-97572662D01*
X156087362Y-98472662D01*
X156093275Y-98532700D01*
X154485711Y-98532700D01*
X154441774Y-98488763D01*
X154272256Y-98375495D01*
X154083898Y-98297474D01*
X153883939Y-98257700D01*
X153680061Y-98257700D01*
X153480102Y-98297474D01*
X153291744Y-98375495D01*
X153122226Y-98488763D01*
X152978063Y-98632926D01*
X152864795Y-98802444D01*
X152786774Y-98990802D01*
X152747000Y-99190761D01*
X152747000Y-99394639D01*
X152786774Y-99594598D01*
X152864795Y-99782956D01*
X152978063Y-99952474D01*
X153122226Y-100096637D01*
X153291744Y-100209905D01*
X153480102Y-100287926D01*
X153680061Y-100327700D01*
X153883939Y-100327700D01*
X154083898Y-100287926D01*
X154272256Y-100209905D01*
X154441774Y-100096637D01*
X154485711Y-100052700D01*
X155193387Y-100052700D01*
X155180195Y-100072444D01*
X155102174Y-100260802D01*
X155062400Y-100460761D01*
X155062400Y-100664639D01*
X155102174Y-100864598D01*
X155180195Y-101052956D01*
X155293463Y-101222474D01*
X155437626Y-101366637D01*
X155607144Y-101479905D01*
X155640101Y-101493556D01*
X155640100Y-109415367D01*
X155636423Y-109452700D01*
X155651097Y-109601686D01*
X155694554Y-109744947D01*
X155765126Y-109876976D01*
X155860099Y-109992701D01*
X155975824Y-110087674D01*
X156099092Y-110153563D01*
X156087362Y-110272662D01*
X156087362Y-111172662D01*
X156099122Y-111292067D01*
X155975724Y-111358026D01*
X155859999Y-111452999D01*
X155765026Y-111568724D01*
X155694454Y-111700753D01*
X155650997Y-111844014D01*
X155641029Y-111945218D01*
X155631001Y-111932999D01*
X155601998Y-111909197D01*
X155463804Y-111771003D01*
X155440001Y-111741999D01*
X155324276Y-111647026D01*
X155192247Y-111576454D01*
X155048986Y-111532997D01*
X154937333Y-111522000D01*
X154937322Y-111522000D01*
X154900000Y-111518324D01*
X154862678Y-111522000D01*
X151101802Y-111522000D01*
X146399292Y-106819490D01*
X148014684Y-106817662D01*
X148173434Y-106658912D01*
X148173434Y-103309662D01*
X148427434Y-103309662D01*
X148427434Y-106658912D01*
X148586184Y-106817662D01*
X151300434Y-106820734D01*
X151424916Y-106808474D01*
X151544614Y-106772164D01*
X151654928Y-106713199D01*
X151751619Y-106633847D01*
X151830971Y-106537156D01*
X151889936Y-106426842D01*
X151926246Y-106307144D01*
X151938506Y-106182662D01*
X151935434Y-103468412D01*
X151776684Y-103309662D01*
X148427434Y-103309662D01*
X148173434Y-103309662D01*
X144824184Y-103309662D01*
X144665434Y-103468412D01*
X144663606Y-105083805D01*
X143441804Y-103862003D01*
X143418001Y-103832999D01*
X143302276Y-103738026D01*
X143170247Y-103667454D01*
X143026986Y-103623997D01*
X142915333Y-103613000D01*
X142915322Y-103613000D01*
X142878000Y-103609324D01*
X142840678Y-103613000D01*
X141107563Y-103613000D01*
X141113506Y-103552662D01*
X141113506Y-102652662D01*
X141101246Y-102528180D01*
X141082888Y-102467662D01*
X141101246Y-102407144D01*
X141113506Y-102282662D01*
X141113506Y-101382662D01*
X141101246Y-101258180D01*
X141082888Y-101197662D01*
X141101246Y-101137144D01*
X141113506Y-101012662D01*
X141113506Y-100182662D01*
X144662362Y-100182662D01*
X144665434Y-102896912D01*
X144824184Y-103055662D01*
X148173434Y-103055662D01*
X148173434Y-99706412D01*
X148427434Y-99706412D01*
X148427434Y-103055662D01*
X151776684Y-103055662D01*
X151935434Y-102896912D01*
X151938506Y-100182662D01*
X151926246Y-100058180D01*
X151889936Y-99938482D01*
X151830971Y-99828168D01*
X151751619Y-99731477D01*
X151654928Y-99652125D01*
X151544614Y-99593160D01*
X151424916Y-99556850D01*
X151300434Y-99544590D01*
X148586184Y-99547662D01*
X148427434Y-99706412D01*
X148173434Y-99706412D01*
X148014684Y-99547662D01*
X145300434Y-99544590D01*
X145175952Y-99556850D01*
X145056254Y-99593160D01*
X144945940Y-99652125D01*
X144849249Y-99731477D01*
X144769897Y-99828168D01*
X144710932Y-99938482D01*
X144674622Y-100058180D01*
X144662362Y-100182662D01*
X141113506Y-100182662D01*
X141113506Y-100112662D01*
X141101246Y-99988180D01*
X141082888Y-99927662D01*
X141101246Y-99867144D01*
X141113506Y-99742662D01*
X141113506Y-98842662D01*
X141101246Y-98718180D01*
X141082888Y-98657662D01*
X141101246Y-98597144D01*
X141113506Y-98472662D01*
X141113506Y-97572662D01*
X141101246Y-97448180D01*
X141082888Y-97387662D01*
X141101246Y-97327144D01*
X141113506Y-97202662D01*
X141113506Y-96302662D01*
X141101246Y-96178180D01*
X141082888Y-96117662D01*
X141101246Y-96057144D01*
X141113506Y-95932662D01*
X141110434Y-95768412D01*
X140951684Y-95609662D01*
X139727434Y-95609662D01*
X139727434Y-95629662D01*
X139473434Y-95629662D01*
X139473434Y-95609662D01*
X139453434Y-95609662D01*
X139453434Y-95355662D01*
X139473434Y-95355662D01*
X139473434Y-94556412D01*
X139727434Y-94556412D01*
X139727434Y-95355662D01*
X140951684Y-95355662D01*
X141110434Y-95196912D01*
X141113506Y-95032662D01*
X141101246Y-94908180D01*
X141064936Y-94788482D01*
X141005971Y-94678168D01*
X140926619Y-94581477D01*
X140829928Y-94502125D01*
X140719614Y-94443160D01*
X140599916Y-94406850D01*
X140475434Y-94394590D01*
X139886184Y-94397662D01*
X139727434Y-94556412D01*
X139473434Y-94556412D01*
X139423158Y-94506136D01*
X139853111Y-94133510D01*
X157222217Y-94320779D01*
M02*
