%TF.GenerationSoftware,KiCad,Pcbnew,(5.1.0-511-gbeef7c9f2)*%
%TF.CreationDate,2019-05-09T19:05:29+09:00*%
%TF.ProjectId,xbee,78626565-2e6b-4696-9361-645f70636258,rev?*%
%TF.SameCoordinates,Original*%
%TF.FileFunction,Copper,L1,Top*%
%TF.FilePolarity,Positive*%
%FSLAX46Y46*%
G04 Gerber Fmt 4.6, Leading zero omitted, Abs format (unit mm)*
G04 Created by KiCad (PCBNEW (5.1.0-511-gbeef7c9f2)) date 2019-05-09 19:05:29*
%MOMM*%
%LPD*%
G04 APERTURE LIST*
%ADD10C,0.150000*%
%ADD11C,1.400000*%
%ADD12R,1.200000X0.700000*%
%ADD13R,1.300000X1.500000*%
%ADD14R,1.750000X0.900000*%
%ADD15R,0.900000X1.750000*%
%ADD16R,6.000000X6.000000*%
%ADD17R,1.700000X1.000000*%
%ADD18C,1.000000*%
%ADD19C,0.800000*%
%ADD20C,0.500000*%
%ADD21C,0.250000*%
%ADD22C,0.254000*%
G04 APERTURE END LIST*
D10*
X143250000Y-90250000D02*
X153500000Y-90250000D01*
X135750000Y-96750000D02*
X143250000Y-90250000D01*
X135750000Y-96750000D02*
X135850000Y-122250000D01*
X153500000Y-90250000D02*
X161201100Y-96750000D01*
X161201100Y-96750000D02*
X161250000Y-122250000D01*
X161250000Y-122250000D02*
X135850000Y-122250000D01*
D11*
X159400000Y-99350000D03*
X159400000Y-101350000D03*
X159400000Y-103350000D03*
X159400000Y-105350000D03*
X159400000Y-107350000D03*
X159400000Y-109350000D03*
X159400000Y-111350000D03*
X159400000Y-113350000D03*
X159400000Y-115350000D03*
X159400000Y-117350000D03*
X137400000Y-117350000D03*
X137400000Y-115350000D03*
X137400000Y-113350000D03*
X137400000Y-111350000D03*
X137400000Y-109350000D03*
X137400000Y-107350000D03*
X137400000Y-105350000D03*
X137400000Y-103350000D03*
X137400000Y-101350000D03*
X137400000Y-99350000D03*
D12*
X146020000Y-115950000D03*
X143226000Y-115984000D03*
X146020000Y-118050000D03*
X143226000Y-118050000D03*
D13*
X140250000Y-118000000D03*
X140250000Y-115300000D03*
D14*
X157600434Y-95482662D03*
X157600434Y-96752662D03*
X157600434Y-98022662D03*
X157600434Y-99292662D03*
X157600434Y-100562662D03*
X157600434Y-101832662D03*
X157600434Y-103102662D03*
X157600434Y-104372662D03*
X157600434Y-105642662D03*
X157600434Y-106912662D03*
X157600434Y-108182662D03*
X157600434Y-109452662D03*
X157600434Y-110722662D03*
X157600434Y-111992662D03*
D15*
X154315434Y-113482662D03*
X153045434Y-113482662D03*
X151775434Y-113482662D03*
X150505434Y-113482662D03*
X149235434Y-113482662D03*
X147965434Y-113482662D03*
X146695434Y-113482662D03*
X145425434Y-113482662D03*
X144155434Y-113482662D03*
X142885434Y-113482662D03*
D14*
X139600434Y-111992662D03*
X139600434Y-110722662D03*
X139600434Y-109452662D03*
X139600434Y-108182662D03*
X139600434Y-106912662D03*
X139600434Y-105642662D03*
X139600434Y-104372662D03*
X139600434Y-103102662D03*
X139600434Y-101832662D03*
X139600434Y-100562662D03*
X139600434Y-99292662D03*
X139600434Y-98022662D03*
X139600434Y-96752662D03*
X139600434Y-95482662D03*
D16*
X148300434Y-103182662D03*
D17*
X155900000Y-119900000D03*
X149600000Y-119900000D03*
X155900000Y-116100000D03*
X149600000Y-116100000D03*
D18*
X142588000Y-95516500D03*
X156250000Y-114350000D03*
X138899998Y-114650000D03*
X143050000Y-110750000D03*
X151750000Y-115950000D03*
D19*
X145326800Y-117077300D03*
X141108000Y-105975000D03*
D18*
X146210600Y-107806300D03*
X143165200Y-119200400D03*
D19*
X156122700Y-99292700D03*
D20*
X155900000Y-114700000D02*
X156250000Y-114350000D01*
X155900000Y-116100000D02*
X155900000Y-114700000D01*
X138899998Y-115850002D02*
X138899998Y-114650000D01*
X137400000Y-117350000D02*
X138899998Y-115850002D01*
X143050000Y-113318096D02*
X142885434Y-113482662D01*
X143050000Y-110750000D02*
X143050000Y-113318096D01*
X149750000Y-115950000D02*
X149600000Y-116100000D01*
X151750000Y-115950000D02*
X149750000Y-115950000D01*
D21*
X140800700Y-105642700D02*
X140800700Y-105667700D01*
X140800700Y-105667700D02*
X141108000Y-105975000D01*
X139600400Y-105642700D02*
X140800700Y-105642700D01*
X145326800Y-117077300D02*
X145094700Y-117309400D01*
X145094700Y-117309400D02*
X145094700Y-118050000D01*
X146020000Y-118050000D02*
X145094700Y-118050000D01*
X143226000Y-118050000D02*
X142300700Y-118050000D01*
X140250000Y-118000000D02*
X142250700Y-118000000D01*
X142250700Y-118000000D02*
X142300700Y-118050000D01*
X143226000Y-115984000D02*
X142300700Y-115984000D01*
X139600400Y-106912700D02*
X140800700Y-106912700D01*
X140800700Y-106912700D02*
X140800700Y-113885400D01*
X140800700Y-113885400D02*
X142300700Y-115385400D01*
X142300700Y-115385400D02*
X142300700Y-115984000D01*
X146020000Y-115950000D02*
X145094700Y-115950000D01*
X139600400Y-104372700D02*
X140800700Y-104372700D01*
X140800700Y-104372700D02*
X142013400Y-105585400D01*
X142013400Y-105585400D02*
X142013400Y-114461200D01*
X142013400Y-114461200D02*
X142826900Y-115274700D01*
X142826900Y-115274700D02*
X144419400Y-115274700D01*
X144419400Y-115274700D02*
X145094700Y-115950000D01*
X155900000Y-119900000D02*
X157075300Y-119900000D01*
X157075300Y-119900000D02*
X157075300Y-113443200D01*
X157075300Y-113443200D02*
X156400100Y-112768000D01*
X156400100Y-112768000D02*
X156400100Y-111992700D01*
X149600000Y-119900000D02*
X155900000Y-119900000D01*
X157600400Y-111992700D02*
X156400100Y-111992700D01*
X156400100Y-109452700D02*
X155172300Y-110680500D01*
X155172300Y-110680500D02*
X155172300Y-114423500D01*
X155172300Y-114423500D02*
X150870400Y-118725400D01*
X150870400Y-118725400D02*
X148952400Y-118725400D01*
X148952400Y-118725400D02*
X146316600Y-121361200D01*
X146316600Y-121361200D02*
X139676700Y-121361200D01*
X139676700Y-121361200D02*
X136185400Y-117869900D01*
X136185400Y-117869900D02*
X136185400Y-104564600D01*
X136185400Y-104564600D02*
X137400000Y-103350000D01*
X156400100Y-100562700D02*
X156400100Y-109452700D01*
X157600400Y-100562700D02*
X156400100Y-100562700D01*
X157600400Y-109452700D02*
X156400100Y-109452700D01*
D20*
X143165200Y-119200400D02*
X139405900Y-119200400D01*
X139405900Y-119200400D02*
X139149600Y-118944100D01*
X139149600Y-118944100D02*
X139149600Y-116999800D01*
X139149600Y-116999800D02*
X139649100Y-116500300D01*
X139649100Y-116500300D02*
X140250000Y-116500300D01*
X146210600Y-107806300D02*
X140925700Y-102521400D01*
X140925700Y-102521400D02*
X140925700Y-98022700D01*
X140925700Y-98022700D02*
X140925700Y-96752700D01*
X140263100Y-98022700D02*
X140925700Y-98022700D01*
X140250000Y-115300000D02*
X140250000Y-116500300D01*
X139600400Y-96752700D02*
X140925700Y-96752700D01*
X139600400Y-98022700D02*
X140263100Y-98022700D01*
D21*
X157600400Y-99292700D02*
X156122700Y-99292700D01*
D22*
G36*
X152470952Y-114983474D02*
G01*
X152595434Y-114995734D01*
X153495434Y-114995734D01*
X153528523Y-114992475D01*
X150555599Y-117965400D01*
X148989722Y-117965400D01*
X148952399Y-117961724D01*
X148915076Y-117965400D01*
X148915067Y-117965400D01*
X148803414Y-117976397D01*
X148676333Y-118014946D01*
X148660153Y-118019854D01*
X148528123Y-118090426D01*
X148456768Y-118148986D01*
X148412399Y-118185399D01*
X148388601Y-118214397D01*
X146001799Y-120601200D01*
X145385000Y-120601200D01*
X145385000Y-120473137D01*
X145343304Y-120263517D01*
X145261515Y-120066060D01*
X145142775Y-119888353D01*
X144991647Y-119737225D01*
X144813940Y-119618485D01*
X144616483Y-119536696D01*
X144406863Y-119495000D01*
X144263837Y-119495000D01*
X144300200Y-119312188D01*
X144300200Y-119088612D01*
X144256583Y-118869333D01*
X144256200Y-118868407D01*
X144277185Y-118851185D01*
X144356537Y-118754494D01*
X144415502Y-118644180D01*
X144451812Y-118524482D01*
X144457219Y-118469585D01*
X144459726Y-118474276D01*
X144554699Y-118590001D01*
X144670424Y-118684974D01*
X144802453Y-118755546D01*
X144919453Y-118791037D01*
X144968815Y-118851185D01*
X145065506Y-118930537D01*
X145175820Y-118989502D01*
X145295518Y-119025812D01*
X145420000Y-119038072D01*
X146620000Y-119038072D01*
X146744482Y-119025812D01*
X146864180Y-118989502D01*
X146974494Y-118930537D01*
X147071185Y-118851185D01*
X147150537Y-118754494D01*
X147209502Y-118644180D01*
X147245812Y-118524482D01*
X147258072Y-118400000D01*
X147258072Y-117700000D01*
X147245812Y-117575518D01*
X147209502Y-117455820D01*
X147150537Y-117345506D01*
X147071185Y-117248815D01*
X146974494Y-117169463D01*
X146864180Y-117110498D01*
X146744482Y-117074188D01*
X146620000Y-117061928D01*
X146361800Y-117061928D01*
X146361800Y-116975361D01*
X146354383Y-116938072D01*
X146620000Y-116938072D01*
X146744482Y-116925812D01*
X146864180Y-116889502D01*
X146974494Y-116830537D01*
X147071185Y-116751185D01*
X147150537Y-116654494D01*
X147179665Y-116600000D01*
X148111928Y-116600000D01*
X148124188Y-116724482D01*
X148160498Y-116844180D01*
X148219463Y-116954494D01*
X148298815Y-117051185D01*
X148395506Y-117130537D01*
X148505820Y-117189502D01*
X148625518Y-117225812D01*
X148750000Y-117238072D01*
X149314250Y-117235000D01*
X149473000Y-117076250D01*
X149473000Y-116227000D01*
X149727000Y-116227000D01*
X149727000Y-117076250D01*
X149885750Y-117235000D01*
X150450000Y-117238072D01*
X150574482Y-117225812D01*
X150694180Y-117189502D01*
X150804494Y-117130537D01*
X150901185Y-117051185D01*
X150980537Y-116954494D01*
X151039502Y-116844180D01*
X151075812Y-116724482D01*
X151088072Y-116600000D01*
X151085000Y-116385750D01*
X150926250Y-116227000D01*
X149727000Y-116227000D01*
X149473000Y-116227000D01*
X148273750Y-116227000D01*
X148115000Y-116385750D01*
X148111928Y-116600000D01*
X147179665Y-116600000D01*
X147209502Y-116544180D01*
X147245812Y-116424482D01*
X147258072Y-116300000D01*
X147258072Y-115600000D01*
X147245812Y-115475518D01*
X147209502Y-115355820D01*
X147150537Y-115245506D01*
X147071185Y-115148815D01*
X146974494Y-115069463D01*
X146864180Y-115010498D01*
X146815510Y-114995734D01*
X147145434Y-114995734D01*
X147269916Y-114983474D01*
X147330434Y-114965116D01*
X147390952Y-114983474D01*
X147515434Y-114995734D01*
X148415434Y-114995734D01*
X148539916Y-114983474D01*
X148600434Y-114965116D01*
X148629158Y-114973829D01*
X148625518Y-114974188D01*
X148505820Y-115010498D01*
X148395506Y-115069463D01*
X148298815Y-115148815D01*
X148219463Y-115245506D01*
X148160498Y-115355820D01*
X148124188Y-115475518D01*
X148111928Y-115600000D01*
X148115000Y-115814250D01*
X148273750Y-115973000D01*
X149473000Y-115973000D01*
X149473000Y-115953000D01*
X149727000Y-115953000D01*
X149727000Y-115973000D01*
X150926250Y-115973000D01*
X151085000Y-115814250D01*
X151088072Y-115600000D01*
X151075812Y-115475518D01*
X151039502Y-115355820D01*
X150980537Y-115245506D01*
X150901185Y-115148815D01*
X150804494Y-115069463D01*
X150694180Y-115010498D01*
X150645510Y-114995734D01*
X150955434Y-114995734D01*
X151079916Y-114983474D01*
X151140434Y-114965116D01*
X151200952Y-114983474D01*
X151325434Y-114995734D01*
X152225434Y-114995734D01*
X152349916Y-114983474D01*
X152410434Y-114965116D01*
X152470952Y-114983474D01*
X152470952Y-114983474D01*
G37*
X152470952Y-114983474D02*
X152595434Y-114995734D01*
X153495434Y-114995734D01*
X153528523Y-114992475D01*
X150555599Y-117965400D01*
X148989722Y-117965400D01*
X148952399Y-117961724D01*
X148915076Y-117965400D01*
X148915067Y-117965400D01*
X148803414Y-117976397D01*
X148676333Y-118014946D01*
X148660153Y-118019854D01*
X148528123Y-118090426D01*
X148456768Y-118148986D01*
X148412399Y-118185399D01*
X148388601Y-118214397D01*
X146001799Y-120601200D01*
X145385000Y-120601200D01*
X145385000Y-120473137D01*
X145343304Y-120263517D01*
X145261515Y-120066060D01*
X145142775Y-119888353D01*
X144991647Y-119737225D01*
X144813940Y-119618485D01*
X144616483Y-119536696D01*
X144406863Y-119495000D01*
X144263837Y-119495000D01*
X144300200Y-119312188D01*
X144300200Y-119088612D01*
X144256583Y-118869333D01*
X144256200Y-118868407D01*
X144277185Y-118851185D01*
X144356537Y-118754494D01*
X144415502Y-118644180D01*
X144451812Y-118524482D01*
X144457219Y-118469585D01*
X144459726Y-118474276D01*
X144554699Y-118590001D01*
X144670424Y-118684974D01*
X144802453Y-118755546D01*
X144919453Y-118791037D01*
X144968815Y-118851185D01*
X145065506Y-118930537D01*
X145175820Y-118989502D01*
X145295518Y-119025812D01*
X145420000Y-119038072D01*
X146620000Y-119038072D01*
X146744482Y-119025812D01*
X146864180Y-118989502D01*
X146974494Y-118930537D01*
X147071185Y-118851185D01*
X147150537Y-118754494D01*
X147209502Y-118644180D01*
X147245812Y-118524482D01*
X147258072Y-118400000D01*
X147258072Y-117700000D01*
X147245812Y-117575518D01*
X147209502Y-117455820D01*
X147150537Y-117345506D01*
X147071185Y-117248815D01*
X146974494Y-117169463D01*
X146864180Y-117110498D01*
X146744482Y-117074188D01*
X146620000Y-117061928D01*
X146361800Y-117061928D01*
X146361800Y-116975361D01*
X146354383Y-116938072D01*
X146620000Y-116938072D01*
X146744482Y-116925812D01*
X146864180Y-116889502D01*
X146974494Y-116830537D01*
X147071185Y-116751185D01*
X147150537Y-116654494D01*
X147179665Y-116600000D01*
X148111928Y-116600000D01*
X148124188Y-116724482D01*
X148160498Y-116844180D01*
X148219463Y-116954494D01*
X148298815Y-117051185D01*
X148395506Y-117130537D01*
X148505820Y-117189502D01*
X148625518Y-117225812D01*
X148750000Y-117238072D01*
X149314250Y-117235000D01*
X149473000Y-117076250D01*
X149473000Y-116227000D01*
X149727000Y-116227000D01*
X149727000Y-117076250D01*
X149885750Y-117235000D01*
X150450000Y-117238072D01*
X150574482Y-117225812D01*
X150694180Y-117189502D01*
X150804494Y-117130537D01*
X150901185Y-117051185D01*
X150980537Y-116954494D01*
X151039502Y-116844180D01*
X151075812Y-116724482D01*
X151088072Y-116600000D01*
X151085000Y-116385750D01*
X150926250Y-116227000D01*
X149727000Y-116227000D01*
X149473000Y-116227000D01*
X148273750Y-116227000D01*
X148115000Y-116385750D01*
X148111928Y-116600000D01*
X147179665Y-116600000D01*
X147209502Y-116544180D01*
X147245812Y-116424482D01*
X147258072Y-116300000D01*
X147258072Y-115600000D01*
X147245812Y-115475518D01*
X147209502Y-115355820D01*
X147150537Y-115245506D01*
X147071185Y-115148815D01*
X146974494Y-115069463D01*
X146864180Y-115010498D01*
X146815510Y-114995734D01*
X147145434Y-114995734D01*
X147269916Y-114983474D01*
X147330434Y-114965116D01*
X147390952Y-114983474D01*
X147515434Y-114995734D01*
X148415434Y-114995734D01*
X148539916Y-114983474D01*
X148600434Y-114965116D01*
X148629158Y-114973829D01*
X148625518Y-114974188D01*
X148505820Y-115010498D01*
X148395506Y-115069463D01*
X148298815Y-115148815D01*
X148219463Y-115245506D01*
X148160498Y-115355820D01*
X148124188Y-115475518D01*
X148111928Y-115600000D01*
X148115000Y-115814250D01*
X148273750Y-115973000D01*
X149473000Y-115973000D01*
X149473000Y-115953000D01*
X149727000Y-115953000D01*
X149727000Y-115973000D01*
X150926250Y-115973000D01*
X151085000Y-115814250D01*
X151088072Y-115600000D01*
X151075812Y-115475518D01*
X151039502Y-115355820D01*
X150980537Y-115245506D01*
X150901185Y-115148815D01*
X150804494Y-115069463D01*
X150694180Y-115010498D01*
X150645510Y-114995734D01*
X150955434Y-114995734D01*
X151079916Y-114983474D01*
X151140434Y-114965116D01*
X151200952Y-114983474D01*
X151325434Y-114995734D01*
X152225434Y-114995734D01*
X152349916Y-114983474D01*
X152410434Y-114965116D01*
X152470952Y-114983474D01*
G36*
X156315301Y-113758003D02*
G01*
X156315301Y-114964295D01*
X156185750Y-114965000D01*
X156027000Y-115123750D01*
X156027000Y-115973000D01*
X156047000Y-115973000D01*
X156047000Y-116227000D01*
X156027000Y-116227000D01*
X156027000Y-117076250D01*
X156185750Y-117235000D01*
X156315300Y-117235705D01*
X156315300Y-118761928D01*
X155050000Y-118761928D01*
X154925518Y-118774188D01*
X154805820Y-118810498D01*
X154695506Y-118869463D01*
X154598815Y-118948815D01*
X154519463Y-119045506D01*
X154468954Y-119140000D01*
X151530601Y-119140000D01*
X154443600Y-116227002D01*
X154573748Y-116227002D01*
X154415000Y-116385750D01*
X154411928Y-116600000D01*
X154424188Y-116724482D01*
X154460498Y-116844180D01*
X154519463Y-116954494D01*
X154598815Y-117051185D01*
X154695506Y-117130537D01*
X154805820Y-117189502D01*
X154925518Y-117225812D01*
X155050000Y-117238072D01*
X155614250Y-117235000D01*
X155773000Y-117076250D01*
X155773000Y-116227000D01*
X155753000Y-116227000D01*
X155753000Y-115973000D01*
X155773000Y-115973000D01*
X155773000Y-115123750D01*
X155659926Y-115010676D01*
X155683303Y-114987299D01*
X155712301Y-114963501D01*
X155807274Y-114847776D01*
X155877846Y-114715747D01*
X155921303Y-114572486D01*
X155932300Y-114460833D01*
X155932300Y-114460824D01*
X155935976Y-114423501D01*
X155932300Y-114386178D01*
X155932300Y-113375001D01*
X156315301Y-113758003D01*
X156315301Y-113758003D01*
G37*
X156315301Y-113758003D02*
X156315301Y-114964295D01*
X156185750Y-114965000D01*
X156027000Y-115123750D01*
X156027000Y-115973000D01*
X156047000Y-115973000D01*
X156047000Y-116227000D01*
X156027000Y-116227000D01*
X156027000Y-117076250D01*
X156185750Y-117235000D01*
X156315300Y-117235705D01*
X156315300Y-118761928D01*
X155050000Y-118761928D01*
X154925518Y-118774188D01*
X154805820Y-118810498D01*
X154695506Y-118869463D01*
X154598815Y-118948815D01*
X154519463Y-119045506D01*
X154468954Y-119140000D01*
X151530601Y-119140000D01*
X154443600Y-116227002D01*
X154573748Y-116227002D01*
X154415000Y-116385750D01*
X154411928Y-116600000D01*
X154424188Y-116724482D01*
X154460498Y-116844180D01*
X154519463Y-116954494D01*
X154598815Y-117051185D01*
X154695506Y-117130537D01*
X154805820Y-117189502D01*
X154925518Y-117225812D01*
X155050000Y-117238072D01*
X155614250Y-117235000D01*
X155773000Y-117076250D01*
X155773000Y-116227000D01*
X155753000Y-116227000D01*
X155753000Y-115973000D01*
X155773000Y-115973000D01*
X155773000Y-115123750D01*
X155659926Y-115010676D01*
X155683303Y-114987299D01*
X155712301Y-114963501D01*
X155807274Y-114847776D01*
X155877846Y-114715747D01*
X155921303Y-114572486D01*
X155932300Y-114460833D01*
X155932300Y-114460824D01*
X155935976Y-114423501D01*
X155932300Y-114386178D01*
X155932300Y-113375001D01*
X156315301Y-113758003D01*
G36*
X138725434Y-113080734D02*
G01*
X140040701Y-113080734D01*
X140040701Y-113848068D01*
X140037024Y-113885400D01*
X140039637Y-113911928D01*
X139600000Y-113911928D01*
X139475518Y-113924188D01*
X139355820Y-113960498D01*
X139245506Y-114019463D01*
X139148815Y-114098815D01*
X139069463Y-114195506D01*
X139010498Y-114305820D01*
X138974188Y-114425518D01*
X138961928Y-114550000D01*
X138961928Y-115935894D01*
X138554552Y-116343270D01*
X138520784Y-116370983D01*
X138493071Y-116404751D01*
X138493068Y-116404754D01*
X138410190Y-116505741D01*
X138351273Y-116615968D01*
X138321269Y-116608336D01*
X137579605Y-117350000D01*
X137593748Y-117364143D01*
X137414143Y-117543748D01*
X137400000Y-117529605D01*
X137385858Y-117543748D01*
X137206253Y-117364143D01*
X137220395Y-117350000D01*
X137206253Y-117335858D01*
X137385858Y-117156253D01*
X137400000Y-117170395D01*
X138047352Y-116523043D01*
X138251013Y-116386962D01*
X138436962Y-116201013D01*
X138583061Y-115982359D01*
X138683696Y-115739405D01*
X138735000Y-115481486D01*
X138735000Y-115218514D01*
X138683696Y-114960595D01*
X138583061Y-114717641D01*
X138436962Y-114498987D01*
X138287975Y-114350000D01*
X138436962Y-114201013D01*
X138583061Y-113982359D01*
X138683696Y-113739405D01*
X138735000Y-113481486D01*
X138735000Y-113218514D01*
X138707237Y-113078942D01*
X138725434Y-113080734D01*
X138725434Y-113080734D01*
G37*
X138725434Y-113080734D02*
X140040701Y-113080734D01*
X140040701Y-113848068D01*
X140037024Y-113885400D01*
X140039637Y-113911928D01*
X139600000Y-113911928D01*
X139475518Y-113924188D01*
X139355820Y-113960498D01*
X139245506Y-114019463D01*
X139148815Y-114098815D01*
X139069463Y-114195506D01*
X139010498Y-114305820D01*
X138974188Y-114425518D01*
X138961928Y-114550000D01*
X138961928Y-115935894D01*
X138554552Y-116343270D01*
X138520784Y-116370983D01*
X138493071Y-116404751D01*
X138493068Y-116404754D01*
X138410190Y-116505741D01*
X138351273Y-116615968D01*
X138321269Y-116608336D01*
X137579605Y-117350000D01*
X137593748Y-117364143D01*
X137414143Y-117543748D01*
X137400000Y-117529605D01*
X137385858Y-117543748D01*
X137206253Y-117364143D01*
X137220395Y-117350000D01*
X137206253Y-117335858D01*
X137385858Y-117156253D01*
X137400000Y-117170395D01*
X138047352Y-116523043D01*
X138251013Y-116386962D01*
X138436962Y-116201013D01*
X138583061Y-115982359D01*
X138683696Y-115739405D01*
X138735000Y-115481486D01*
X138735000Y-115218514D01*
X138683696Y-114960595D01*
X138583061Y-114717641D01*
X138436962Y-114498987D01*
X138287975Y-114350000D01*
X138436962Y-114201013D01*
X138583061Y-113982359D01*
X138683696Y-113739405D01*
X138735000Y-113481486D01*
X138735000Y-113218514D01*
X138707237Y-113078942D01*
X138725434Y-113080734D01*
G36*
X157340002Y-94322049D02*
G01*
X157425948Y-94394590D01*
X156725434Y-94394590D01*
X156600952Y-94406850D01*
X156481254Y-94443160D01*
X156370940Y-94502125D01*
X156274249Y-94581477D01*
X156194897Y-94678168D01*
X156135932Y-94788482D01*
X156099622Y-94908180D01*
X156087362Y-95032662D01*
X156087362Y-95932662D01*
X156099622Y-96057144D01*
X156117980Y-96117662D01*
X156099622Y-96178180D01*
X156087362Y-96302662D01*
X156087362Y-97202662D01*
X156099622Y-97327144D01*
X156117980Y-97387662D01*
X156099622Y-97448180D01*
X156087362Y-97572662D01*
X156087362Y-98257700D01*
X156020761Y-98257700D01*
X155820802Y-98297474D01*
X155632444Y-98375495D01*
X155462926Y-98488763D01*
X155318763Y-98632926D01*
X155205495Y-98802444D01*
X155127474Y-98990802D01*
X155087700Y-99190761D01*
X155087700Y-99394639D01*
X155127474Y-99594598D01*
X155205495Y-99782956D01*
X155318763Y-99952474D01*
X155462926Y-100096637D01*
X155632444Y-100209905D01*
X155709793Y-100241944D01*
X155694554Y-100270453D01*
X155651097Y-100413714D01*
X155636423Y-100562700D01*
X155640100Y-100600033D01*
X155640101Y-109137896D01*
X154661302Y-110116697D01*
X154632299Y-110140499D01*
X154582637Y-110201013D01*
X154537326Y-110256224D01*
X154536828Y-110257156D01*
X154466754Y-110388254D01*
X154423297Y-110531515D01*
X154412300Y-110643168D01*
X154412300Y-110643178D01*
X154408624Y-110680500D01*
X154412300Y-110717823D01*
X154412300Y-111969590D01*
X153865434Y-111969590D01*
X153740952Y-111981850D01*
X153680434Y-112000208D01*
X153619916Y-111981850D01*
X153495434Y-111969590D01*
X152595434Y-111969590D01*
X152470952Y-111981850D01*
X152410434Y-112000208D01*
X152349916Y-111981850D01*
X152225434Y-111969590D01*
X151325434Y-111969590D01*
X151200952Y-111981850D01*
X151140434Y-112000208D01*
X151079916Y-111981850D01*
X150955434Y-111969590D01*
X150055434Y-111969590D01*
X149930952Y-111981850D01*
X149870434Y-112000208D01*
X149809916Y-111981850D01*
X149685434Y-111969590D01*
X148785434Y-111969590D01*
X148660952Y-111981850D01*
X148600434Y-112000208D01*
X148539916Y-111981850D01*
X148415434Y-111969590D01*
X147515434Y-111969590D01*
X147390952Y-111981850D01*
X147330434Y-112000208D01*
X147269916Y-111981850D01*
X147145434Y-111969590D01*
X146245434Y-111969590D01*
X146120952Y-111981850D01*
X146060434Y-112000208D01*
X145999916Y-111981850D01*
X145875434Y-111969590D01*
X144975434Y-111969590D01*
X144850952Y-111981850D01*
X144790434Y-112000208D01*
X144729916Y-111981850D01*
X144605434Y-111969590D01*
X143705434Y-111969590D01*
X143580952Y-111981850D01*
X143520434Y-112000208D01*
X143459916Y-111981850D01*
X143335434Y-111969590D01*
X143171184Y-111972662D01*
X143012434Y-112131412D01*
X143012434Y-113355662D01*
X143032434Y-113355662D01*
X143032434Y-113609662D01*
X143012434Y-113609662D01*
X143012434Y-113629662D01*
X142773400Y-113629662D01*
X142773400Y-105622725D01*
X142773584Y-105620862D01*
X145076790Y-107924068D01*
X145119217Y-108137367D01*
X145204776Y-108343924D01*
X145328988Y-108529820D01*
X145487080Y-108687912D01*
X145672976Y-108812124D01*
X145879533Y-108897683D01*
X146098812Y-108941300D01*
X146322388Y-108941300D01*
X146541667Y-108897683D01*
X146748224Y-108812124D01*
X146934120Y-108687912D01*
X147092212Y-108529820D01*
X147216424Y-108343924D01*
X147301983Y-108137367D01*
X147345600Y-107918088D01*
X147345600Y-107694512D01*
X147301983Y-107475233D01*
X147216424Y-107268676D01*
X147092212Y-107082780D01*
X146934120Y-106924688D01*
X146776043Y-106819064D01*
X148014684Y-106817662D01*
X148173434Y-106658912D01*
X148173434Y-103309662D01*
X148427434Y-103309662D01*
X148427434Y-106658912D01*
X148586184Y-106817662D01*
X151300434Y-106820734D01*
X151424916Y-106808474D01*
X151544614Y-106772164D01*
X151654928Y-106713199D01*
X151751619Y-106633847D01*
X151830971Y-106537156D01*
X151889936Y-106426842D01*
X151926246Y-106307144D01*
X151938506Y-106182662D01*
X151935434Y-103468412D01*
X151776684Y-103309662D01*
X148427434Y-103309662D01*
X148173434Y-103309662D01*
X144824184Y-103309662D01*
X144665434Y-103468412D01*
X144663692Y-105007813D01*
X141810700Y-102154822D01*
X141810700Y-100182662D01*
X144662362Y-100182662D01*
X144665434Y-102896912D01*
X144824184Y-103055662D01*
X148173434Y-103055662D01*
X148173434Y-99706412D01*
X148427434Y-99706412D01*
X148427434Y-103055662D01*
X151776684Y-103055662D01*
X151935434Y-102896912D01*
X151938506Y-100182662D01*
X151926246Y-100058180D01*
X151889936Y-99938482D01*
X151830971Y-99828168D01*
X151751619Y-99731477D01*
X151654928Y-99652125D01*
X151544614Y-99593160D01*
X151424916Y-99556850D01*
X151300434Y-99544590D01*
X148586184Y-99547662D01*
X148427434Y-99706412D01*
X148173434Y-99706412D01*
X148014684Y-99547662D01*
X145300434Y-99544590D01*
X145175952Y-99556850D01*
X145056254Y-99593160D01*
X144945940Y-99652125D01*
X144849249Y-99731477D01*
X144769897Y-99828168D01*
X144710932Y-99938482D01*
X144674622Y-100058180D01*
X144662362Y-100182662D01*
X141810700Y-100182662D01*
X141810700Y-98066176D01*
X141814982Y-98022700D01*
X141810700Y-97979223D01*
X141810700Y-96796177D01*
X141814982Y-96752700D01*
X141797895Y-96579210D01*
X141747289Y-96412387D01*
X141665111Y-96258641D01*
X141554517Y-96123883D01*
X141419759Y-96013289D01*
X141266013Y-95931111D01*
X141112607Y-95884575D01*
X141110434Y-95768412D01*
X140951684Y-95609662D01*
X139727434Y-95609662D01*
X139727434Y-95629662D01*
X139473434Y-95629662D01*
X139473434Y-95609662D01*
X139453434Y-95609662D01*
X139453434Y-95355662D01*
X139473434Y-95355662D01*
X139473434Y-94556412D01*
X139727434Y-94556412D01*
X139727434Y-95355662D01*
X140951684Y-95355662D01*
X141110434Y-95196912D01*
X141113506Y-95032662D01*
X141101246Y-94908180D01*
X141064936Y-94788482D01*
X141005971Y-94678168D01*
X140926619Y-94581477D01*
X140829928Y-94502125D01*
X140719614Y-94443160D01*
X140599916Y-94406850D01*
X140475434Y-94394590D01*
X139886184Y-94397662D01*
X139727434Y-94556412D01*
X139473434Y-94556412D01*
X139369990Y-94452968D01*
X139740003Y-94132290D01*
X157340002Y-94322049D01*
X157340002Y-94322049D01*
G37*
X157340002Y-94322049D02*
X157425948Y-94394590D01*
X156725434Y-94394590D01*
X156600952Y-94406850D01*
X156481254Y-94443160D01*
X156370940Y-94502125D01*
X156274249Y-94581477D01*
X156194897Y-94678168D01*
X156135932Y-94788482D01*
X156099622Y-94908180D01*
X156087362Y-95032662D01*
X156087362Y-95932662D01*
X156099622Y-96057144D01*
X156117980Y-96117662D01*
X156099622Y-96178180D01*
X156087362Y-96302662D01*
X156087362Y-97202662D01*
X156099622Y-97327144D01*
X156117980Y-97387662D01*
X156099622Y-97448180D01*
X156087362Y-97572662D01*
X156087362Y-98257700D01*
X156020761Y-98257700D01*
X155820802Y-98297474D01*
X155632444Y-98375495D01*
X155462926Y-98488763D01*
X155318763Y-98632926D01*
X155205495Y-98802444D01*
X155127474Y-98990802D01*
X155087700Y-99190761D01*
X155087700Y-99394639D01*
X155127474Y-99594598D01*
X155205495Y-99782956D01*
X155318763Y-99952474D01*
X155462926Y-100096637D01*
X155632444Y-100209905D01*
X155709793Y-100241944D01*
X155694554Y-100270453D01*
X155651097Y-100413714D01*
X155636423Y-100562700D01*
X155640100Y-100600033D01*
X155640101Y-109137896D01*
X154661302Y-110116697D01*
X154632299Y-110140499D01*
X154582637Y-110201013D01*
X154537326Y-110256224D01*
X154536828Y-110257156D01*
X154466754Y-110388254D01*
X154423297Y-110531515D01*
X154412300Y-110643168D01*
X154412300Y-110643178D01*
X154408624Y-110680500D01*
X154412300Y-110717823D01*
X154412300Y-111969590D01*
X153865434Y-111969590D01*
X153740952Y-111981850D01*
X153680434Y-112000208D01*
X153619916Y-111981850D01*
X153495434Y-111969590D01*
X152595434Y-111969590D01*
X152470952Y-111981850D01*
X152410434Y-112000208D01*
X152349916Y-111981850D01*
X152225434Y-111969590D01*
X151325434Y-111969590D01*
X151200952Y-111981850D01*
X151140434Y-112000208D01*
X151079916Y-111981850D01*
X150955434Y-111969590D01*
X150055434Y-111969590D01*
X149930952Y-111981850D01*
X149870434Y-112000208D01*
X149809916Y-111981850D01*
X149685434Y-111969590D01*
X148785434Y-111969590D01*
X148660952Y-111981850D01*
X148600434Y-112000208D01*
X148539916Y-111981850D01*
X148415434Y-111969590D01*
X147515434Y-111969590D01*
X147390952Y-111981850D01*
X147330434Y-112000208D01*
X147269916Y-111981850D01*
X147145434Y-111969590D01*
X146245434Y-111969590D01*
X146120952Y-111981850D01*
X146060434Y-112000208D01*
X145999916Y-111981850D01*
X145875434Y-111969590D01*
X144975434Y-111969590D01*
X144850952Y-111981850D01*
X144790434Y-112000208D01*
X144729916Y-111981850D01*
X144605434Y-111969590D01*
X143705434Y-111969590D01*
X143580952Y-111981850D01*
X143520434Y-112000208D01*
X143459916Y-111981850D01*
X143335434Y-111969590D01*
X143171184Y-111972662D01*
X143012434Y-112131412D01*
X143012434Y-113355662D01*
X143032434Y-113355662D01*
X143032434Y-113609662D01*
X143012434Y-113609662D01*
X143012434Y-113629662D01*
X142773400Y-113629662D01*
X142773400Y-105622725D01*
X142773584Y-105620862D01*
X145076790Y-107924068D01*
X145119217Y-108137367D01*
X145204776Y-108343924D01*
X145328988Y-108529820D01*
X145487080Y-108687912D01*
X145672976Y-108812124D01*
X145879533Y-108897683D01*
X146098812Y-108941300D01*
X146322388Y-108941300D01*
X146541667Y-108897683D01*
X146748224Y-108812124D01*
X146934120Y-108687912D01*
X147092212Y-108529820D01*
X147216424Y-108343924D01*
X147301983Y-108137367D01*
X147345600Y-107918088D01*
X147345600Y-107694512D01*
X147301983Y-107475233D01*
X147216424Y-107268676D01*
X147092212Y-107082780D01*
X146934120Y-106924688D01*
X146776043Y-106819064D01*
X148014684Y-106817662D01*
X148173434Y-106658912D01*
X148173434Y-103309662D01*
X148427434Y-103309662D01*
X148427434Y-106658912D01*
X148586184Y-106817662D01*
X151300434Y-106820734D01*
X151424916Y-106808474D01*
X151544614Y-106772164D01*
X151654928Y-106713199D01*
X151751619Y-106633847D01*
X151830971Y-106537156D01*
X151889936Y-106426842D01*
X151926246Y-106307144D01*
X151938506Y-106182662D01*
X151935434Y-103468412D01*
X151776684Y-103309662D01*
X148427434Y-103309662D01*
X148173434Y-103309662D01*
X144824184Y-103309662D01*
X144665434Y-103468412D01*
X144663692Y-105007813D01*
X141810700Y-102154822D01*
X141810700Y-100182662D01*
X144662362Y-100182662D01*
X144665434Y-102896912D01*
X144824184Y-103055662D01*
X148173434Y-103055662D01*
X148173434Y-99706412D01*
X148427434Y-99706412D01*
X148427434Y-103055662D01*
X151776684Y-103055662D01*
X151935434Y-102896912D01*
X151938506Y-100182662D01*
X151926246Y-100058180D01*
X151889936Y-99938482D01*
X151830971Y-99828168D01*
X151751619Y-99731477D01*
X151654928Y-99652125D01*
X151544614Y-99593160D01*
X151424916Y-99556850D01*
X151300434Y-99544590D01*
X148586184Y-99547662D01*
X148427434Y-99706412D01*
X148173434Y-99706412D01*
X148014684Y-99547662D01*
X145300434Y-99544590D01*
X145175952Y-99556850D01*
X145056254Y-99593160D01*
X144945940Y-99652125D01*
X144849249Y-99731477D01*
X144769897Y-99828168D01*
X144710932Y-99938482D01*
X144674622Y-100058180D01*
X144662362Y-100182662D01*
X141810700Y-100182662D01*
X141810700Y-98066176D01*
X141814982Y-98022700D01*
X141810700Y-97979223D01*
X141810700Y-96796177D01*
X141814982Y-96752700D01*
X141797895Y-96579210D01*
X141747289Y-96412387D01*
X141665111Y-96258641D01*
X141554517Y-96123883D01*
X141419759Y-96013289D01*
X141266013Y-95931111D01*
X141112607Y-95884575D01*
X141110434Y-95768412D01*
X140951684Y-95609662D01*
X139727434Y-95609662D01*
X139727434Y-95629662D01*
X139473434Y-95629662D01*
X139473434Y-95609662D01*
X139453434Y-95609662D01*
X139453434Y-95355662D01*
X139473434Y-95355662D01*
X139473434Y-94556412D01*
X139727434Y-94556412D01*
X139727434Y-95355662D01*
X140951684Y-95355662D01*
X141110434Y-95196912D01*
X141113506Y-95032662D01*
X141101246Y-94908180D01*
X141064936Y-94788482D01*
X141005971Y-94678168D01*
X140926619Y-94581477D01*
X140829928Y-94502125D01*
X140719614Y-94443160D01*
X140599916Y-94406850D01*
X140475434Y-94394590D01*
X139886184Y-94397662D01*
X139727434Y-94556412D01*
X139473434Y-94556412D01*
X139369990Y-94452968D01*
X139740003Y-94132290D01*
X157340002Y-94322049D01*
M02*
