%TF.GenerationSoftware,KiCad,Pcbnew,(5.1.0-47-g0a9c99914)*%
%TF.CreationDate,2019-04-04T20:09:24+09:00*%
%TF.ProjectId,xbee,78626565-2e6b-4696-9361-645f70636258,rev?*%
%TF.SameCoordinates,Original*%
%TF.FileFunction,Legend,Top*%
%TF.FilePolarity,Positive*%
%FSLAX46Y46*%
G04 Gerber Fmt 4.6, Leading zero omitted, Abs format (unit mm)*
G04 Created by KiCad (PCBNEW (5.1.0-47-g0a9c99914)) date 2019-04-04 20:09:24*
%MOMM*%
%LPD*%
G04 APERTURE LIST*
%ADD10C,0.050000*%
%ADD11C,0.120000*%
%ADD12C,0.150000*%
G04 APERTURE END LIST*
D10*
X138988095Y-121061904D02*
X139140476Y-121061904D01*
X139216666Y-121100000D01*
X139292857Y-121176190D01*
X139330952Y-121328571D01*
X139330952Y-121595238D01*
X139292857Y-121747619D01*
X139216666Y-121823809D01*
X139140476Y-121861904D01*
X138988095Y-121861904D01*
X138911904Y-121823809D01*
X138835714Y-121747619D01*
X138797619Y-121595238D01*
X138797619Y-121328571D01*
X138835714Y-121176190D01*
X138911904Y-121100000D01*
X138988095Y-121061904D01*
X139940476Y-121442857D02*
X139673809Y-121442857D01*
X139673809Y-121861904D02*
X139673809Y-121061904D01*
X140054761Y-121061904D01*
X140626190Y-121442857D02*
X140359523Y-121442857D01*
X140359523Y-121861904D02*
X140359523Y-121061904D01*
X140740476Y-121061904D01*
X145254761Y-121061904D02*
X145407142Y-121061904D01*
X145483333Y-121100000D01*
X145559523Y-121176190D01*
X145597619Y-121328571D01*
X145597619Y-121595238D01*
X145559523Y-121747619D01*
X145483333Y-121823809D01*
X145407142Y-121861904D01*
X145254761Y-121861904D01*
X145178571Y-121823809D01*
X145102380Y-121747619D01*
X145064285Y-121595238D01*
X145064285Y-121328571D01*
X145102380Y-121176190D01*
X145178571Y-121100000D01*
X145254761Y-121061904D01*
X145940476Y-121861904D02*
X145940476Y-121061904D01*
X146397619Y-121861904D01*
X146397619Y-121061904D01*
X149639642Y-121492857D02*
X149789642Y-121492857D01*
X149853928Y-121728571D02*
X149639642Y-121728571D01*
X149639642Y-121278571D01*
X149853928Y-121278571D01*
X150025357Y-121707142D02*
X150089642Y-121728571D01*
X150196785Y-121728571D01*
X150239642Y-121707142D01*
X150261071Y-121685714D01*
X150282500Y-121642857D01*
X150282500Y-121600000D01*
X150261071Y-121557142D01*
X150239642Y-121535714D01*
X150196785Y-121514285D01*
X150111071Y-121492857D01*
X150068214Y-121471428D01*
X150046785Y-121450000D01*
X150025357Y-121407142D01*
X150025357Y-121364285D01*
X150046785Y-121321428D01*
X150068214Y-121300000D01*
X150111071Y-121278571D01*
X150218214Y-121278571D01*
X150282500Y-121300000D01*
X150475357Y-121728571D02*
X150475357Y-121278571D01*
X150646785Y-121278571D01*
X150689642Y-121300000D01*
X150711071Y-121321428D01*
X150732500Y-121364285D01*
X150732500Y-121428571D01*
X150711071Y-121471428D01*
X150689642Y-121492857D01*
X150646785Y-121514285D01*
X150475357Y-121514285D01*
X150882500Y-121278571D02*
X151161071Y-121278571D01*
X151011071Y-121450000D01*
X151075357Y-121450000D01*
X151118214Y-121471428D01*
X151139642Y-121492857D01*
X151161071Y-121535714D01*
X151161071Y-121642857D01*
X151139642Y-121685714D01*
X151118214Y-121707142D01*
X151075357Y-121728571D01*
X150946785Y-121728571D01*
X150903928Y-121707142D01*
X150882500Y-121685714D01*
X151332500Y-121321428D02*
X151353928Y-121300000D01*
X151396785Y-121278571D01*
X151503928Y-121278571D01*
X151546785Y-121300000D01*
X151568214Y-121321428D01*
X151589642Y-121364285D01*
X151589642Y-121407142D01*
X151568214Y-121471428D01*
X151311071Y-121728571D01*
X151589642Y-121728571D01*
X151782500Y-121557142D02*
X152125357Y-121557142D01*
X152296785Y-121278571D02*
X152596785Y-121728571D01*
X152596785Y-121278571D02*
X152296785Y-121728571D01*
X153046785Y-121278571D02*
X153196785Y-121728571D01*
X153346785Y-121278571D01*
X153732500Y-121728571D02*
X153475357Y-121728571D01*
X153603928Y-121728571D02*
X153603928Y-121278571D01*
X153561071Y-121342857D01*
X153518214Y-121385714D01*
X153475357Y-121407142D01*
X153925357Y-121685714D02*
X153946785Y-121707142D01*
X153925357Y-121728571D01*
X153903928Y-121707142D01*
X153925357Y-121685714D01*
X153925357Y-121728571D01*
X154375357Y-121728571D02*
X154118214Y-121728571D01*
X154246785Y-121728571D02*
X154246785Y-121278571D01*
X154203928Y-121342857D01*
X154161071Y-121385714D01*
X154118214Y-121407142D01*
X154568214Y-121685714D02*
X154589642Y-121707142D01*
X154568214Y-121728571D01*
X154546785Y-121707142D01*
X154568214Y-121685714D01*
X154568214Y-121728571D01*
X154868214Y-121278571D02*
X154911071Y-121278571D01*
X154953928Y-121300000D01*
X154975357Y-121321428D01*
X154996785Y-121364285D01*
X155018214Y-121450000D01*
X155018214Y-121557142D01*
X154996785Y-121642857D01*
X154975357Y-121685714D01*
X154953928Y-121707142D01*
X154911071Y-121728571D01*
X154868214Y-121728571D01*
X154825357Y-121707142D01*
X154803928Y-121685714D01*
X154782500Y-121642857D01*
X154761071Y-121557142D01*
X154761071Y-121450000D01*
X154782500Y-121364285D01*
X154803928Y-121321428D01*
X154825357Y-121300000D01*
X154868214Y-121278571D01*
X155532500Y-121707142D02*
X155596785Y-121728571D01*
X155703928Y-121728571D01*
X155746785Y-121707142D01*
X155768214Y-121685714D01*
X155789642Y-121642857D01*
X155789642Y-121600000D01*
X155768214Y-121557142D01*
X155746785Y-121535714D01*
X155703928Y-121514285D01*
X155618214Y-121492857D01*
X155575357Y-121471428D01*
X155553928Y-121450000D01*
X155532500Y-121407142D01*
X155532500Y-121364285D01*
X155553928Y-121321428D01*
X155575357Y-121300000D01*
X155618214Y-121278571D01*
X155725357Y-121278571D01*
X155789642Y-121300000D01*
X155961071Y-121600000D02*
X156175357Y-121600000D01*
X155918214Y-121728571D02*
X156068214Y-121278571D01*
X156218214Y-121728571D01*
X156518214Y-121492857D02*
X156368214Y-121492857D01*
X156368214Y-121728571D02*
X156368214Y-121278571D01*
X156582500Y-121278571D01*
X156753928Y-121492857D02*
X156903928Y-121492857D01*
X156968214Y-121728571D02*
X156753928Y-121728571D01*
X156753928Y-121278571D01*
X156968214Y-121278571D01*
X157418214Y-121685714D02*
X157396785Y-121707142D01*
X157332500Y-121728571D01*
X157289642Y-121728571D01*
X157225357Y-121707142D01*
X157182500Y-121664285D01*
X157161071Y-121621428D01*
X157139642Y-121535714D01*
X157139642Y-121471428D01*
X157161071Y-121385714D01*
X157182500Y-121342857D01*
X157225357Y-121300000D01*
X157289642Y-121278571D01*
X157332500Y-121278571D01*
X157396785Y-121300000D01*
X157418214Y-121321428D01*
X157589642Y-121600000D02*
X157803928Y-121600000D01*
X157546785Y-121728571D02*
X157696785Y-121278571D01*
X157846785Y-121728571D01*
X157975357Y-121707142D02*
X158039642Y-121728571D01*
X158146785Y-121728571D01*
X158189642Y-121707142D01*
X158211071Y-121685714D01*
X158232500Y-121642857D01*
X158232500Y-121600000D01*
X158211071Y-121557142D01*
X158189642Y-121535714D01*
X158146785Y-121514285D01*
X158061071Y-121492857D01*
X158018214Y-121471428D01*
X157996785Y-121450000D01*
X157975357Y-121407142D01*
X157975357Y-121364285D01*
X157996785Y-121321428D01*
X158018214Y-121300000D01*
X158061071Y-121278571D01*
X158168214Y-121278571D01*
X158232500Y-121300000D01*
X158361071Y-121278571D02*
X158618214Y-121278571D01*
X158489642Y-121728571D02*
X158489642Y-121278571D01*
X159089642Y-121321428D02*
X159111071Y-121300000D01*
X159153928Y-121278571D01*
X159261071Y-121278571D01*
X159303928Y-121300000D01*
X159325357Y-121321428D01*
X159346785Y-121364285D01*
X159346785Y-121407142D01*
X159325357Y-121471428D01*
X159068214Y-121728571D01*
X159346785Y-121728571D01*
X159625357Y-121278571D02*
X159668214Y-121278571D01*
X159711071Y-121300000D01*
X159732500Y-121321428D01*
X159753928Y-121364285D01*
X159775357Y-121450000D01*
X159775357Y-121557142D01*
X159753928Y-121642857D01*
X159732500Y-121685714D01*
X159711071Y-121707142D01*
X159668214Y-121728571D01*
X159625357Y-121728571D01*
X159582500Y-121707142D01*
X159561071Y-121685714D01*
X159539642Y-121642857D01*
X159518214Y-121557142D01*
X159518214Y-121450000D01*
X159539642Y-121364285D01*
X159561071Y-121321428D01*
X159582500Y-121300000D01*
X159625357Y-121278571D01*
X160203928Y-121728571D02*
X159946785Y-121728571D01*
X160075357Y-121728571D02*
X160075357Y-121278571D01*
X160032500Y-121342857D01*
X159989642Y-121385714D01*
X159946785Y-121407142D01*
X160418214Y-121728571D02*
X160503928Y-121728571D01*
X160546785Y-121707142D01*
X160568214Y-121685714D01*
X160611071Y-121621428D01*
X160632500Y-121535714D01*
X160632500Y-121364285D01*
X160611071Y-121321428D01*
X160589642Y-121300000D01*
X160546785Y-121278571D01*
X160461071Y-121278571D01*
X160418214Y-121300000D01*
X160396785Y-121321428D01*
X160375357Y-121364285D01*
X160375357Y-121471428D01*
X160396785Y-121514285D01*
X160418214Y-121535714D01*
X160461071Y-121557142D01*
X160546785Y-121557142D01*
X160589642Y-121535714D01*
X160611071Y-121514285D01*
X160632500Y-121471428D01*
D11*
X141130000Y-116050000D02*
X141130000Y-117250000D01*
X139370000Y-117250000D02*
X139370000Y-116050000D01*
X147050000Y-115100000D02*
X147050000Y-118100000D01*
X142450000Y-115100000D02*
X147050000Y-115100000D01*
X142450000Y-118900000D02*
X142450000Y-115100000D01*
X146250000Y-118900000D02*
X142450000Y-118900000D01*
X147050000Y-118100000D02*
X146250000Y-118900000D01*
D12*
X157600434Y-93982662D02*
X139600434Y-93982662D01*
X139600434Y-87982662D02*
X139600434Y-113482662D01*
X157600434Y-87982662D02*
X157600434Y-113482662D01*
X157600434Y-113482662D02*
X139600434Y-113482662D01*
X157600434Y-87982662D02*
X139600434Y-87982662D01*
D11*
X154450000Y-115700000D02*
X154000000Y-115250000D01*
X151050000Y-115700000D02*
X151500000Y-115250000D01*
X151050000Y-120300000D02*
X151500000Y-120750000D01*
X154450000Y-120300000D02*
X154000000Y-120750000D01*
X150000000Y-119000000D02*
X150000000Y-117000000D01*
X154000000Y-115250000D02*
X151500000Y-115250000D01*
X155500000Y-119000000D02*
X155500000Y-117000000D01*
X154000000Y-120750000D02*
X151500000Y-120750000D01*
D10*
X143630952Y-119976190D02*
X143630952Y-119476190D01*
X143750000Y-119476190D01*
X143821428Y-119500000D01*
X143869047Y-119547619D01*
X143892857Y-119595238D01*
X143916666Y-119690476D01*
X143916666Y-119761904D01*
X143892857Y-119857142D01*
X143869047Y-119904761D01*
X143821428Y-119952380D01*
X143750000Y-119976190D01*
X143630952Y-119976190D01*
X144392857Y-119976190D02*
X144107142Y-119976190D01*
X144250000Y-119976190D02*
X144250000Y-119476190D01*
X144202380Y-119547619D01*
X144154761Y-119595238D01*
X144107142Y-119619047D01*
D12*
X147291095Y-95352380D02*
X147291095Y-96161904D01*
X147338714Y-96257142D01*
X147386333Y-96304761D01*
X147481571Y-96352380D01*
X147672047Y-96352380D01*
X147767285Y-96304761D01*
X147814904Y-96257142D01*
X147862523Y-96161904D01*
X147862523Y-95352380D01*
X148862523Y-96352380D02*
X148291095Y-96352380D01*
X148576809Y-96352380D02*
X148576809Y-95352380D01*
X148481571Y-95495238D01*
X148386333Y-95590476D01*
X148291095Y-95638095D01*
D10*
X157083333Y-120202380D02*
X157154761Y-120226190D01*
X157273809Y-120226190D01*
X157321428Y-120202380D01*
X157345238Y-120178571D01*
X157369047Y-120130952D01*
X157369047Y-120083333D01*
X157345238Y-120035714D01*
X157321428Y-120011904D01*
X157273809Y-119988095D01*
X157178571Y-119964285D01*
X157130952Y-119940476D01*
X157107142Y-119916666D01*
X157083333Y-119869047D01*
X157083333Y-119821428D01*
X157107142Y-119773809D01*
X157130952Y-119750000D01*
X157178571Y-119726190D01*
X157297619Y-119726190D01*
X157369047Y-119750000D01*
X157535714Y-119726190D02*
X157654761Y-120226190D01*
X157750000Y-119869047D01*
X157845238Y-120226190D01*
X157964285Y-119726190D01*
X158416666Y-120226190D02*
X158130952Y-120226190D01*
X158273809Y-120226190D02*
X158273809Y-119726190D01*
X158226190Y-119797619D01*
X158178571Y-119845238D01*
X158130952Y-119869047D01*
M02*
