%TF.GenerationSoftware,KiCad,Pcbnew,(5.1.0-4-gc924fc765)*%
%TF.CreationDate,2019-03-12T10:18:20+09:00*%
%TF.ProjectId,xbee,78626565-2e6b-4696-9361-645f70636258,rev?*%
%TF.SameCoordinates,Original*%
%TF.FileFunction,Legend,Bot*%
%TF.FilePolarity,Positive*%
%FSLAX46Y46*%
G04 Gerber Fmt 4.6, Leading zero omitted, Abs format (unit mm)*
G04 Created by KiCad (PCBNEW (5.1.0-4-gc924fc765)) date 2019-03-12 10:18:20*
%MOMM*%
%LPD*%
G04 APERTURE LIST*
%ADD10C,0.100000*%
%ADD11C,0.120000*%
G04 APERTURE END LIST*
D10*
X145657142Y-91505476D02*
X145657142Y-92115000D01*
X145161904Y-92991190D02*
X145161904Y-93448333D01*
X145961904Y-93219761D02*
X145161904Y-93219761D01*
X145961904Y-93829285D02*
X145923809Y-93753095D01*
X145885714Y-93715000D01*
X145809523Y-93676904D01*
X145580952Y-93676904D01*
X145504761Y-93715000D01*
X145466666Y-93753095D01*
X145428571Y-93829285D01*
X145428571Y-93943571D01*
X145466666Y-94019761D01*
X145504761Y-94057857D01*
X145580952Y-94095952D01*
X145809523Y-94095952D01*
X145885714Y-94057857D01*
X145923809Y-94019761D01*
X145961904Y-93943571D01*
X145961904Y-93829285D01*
X145428571Y-94934047D02*
X145428571Y-95238809D01*
X145161904Y-95048333D02*
X145847619Y-95048333D01*
X145923809Y-95086428D01*
X145961904Y-95162619D01*
X145961904Y-95238809D01*
X145961904Y-95619761D02*
X145923809Y-95543571D01*
X145885714Y-95505476D01*
X145809523Y-95467380D01*
X145580952Y-95467380D01*
X145504761Y-95505476D01*
X145466666Y-95543571D01*
X145428571Y-95619761D01*
X145428571Y-95734047D01*
X145466666Y-95810238D01*
X145504761Y-95848333D01*
X145580952Y-95886428D01*
X145809523Y-95886428D01*
X145885714Y-95848333D01*
X145923809Y-95810238D01*
X145961904Y-95734047D01*
X145961904Y-95619761D01*
X145428571Y-96572142D02*
X146076190Y-96572142D01*
X146152380Y-96534047D01*
X146190476Y-96495952D01*
X146228571Y-96419761D01*
X146228571Y-96305476D01*
X146190476Y-96229285D01*
X145923809Y-96572142D02*
X145961904Y-96495952D01*
X145961904Y-96343571D01*
X145923809Y-96267380D01*
X145885714Y-96229285D01*
X145809523Y-96191190D01*
X145580952Y-96191190D01*
X145504761Y-96229285D01*
X145466666Y-96267380D01*
X145428571Y-96343571D01*
X145428571Y-96495952D01*
X145466666Y-96572142D01*
X145428571Y-97295952D02*
X146076190Y-97295952D01*
X146152380Y-97257857D01*
X146190476Y-97219761D01*
X146228571Y-97143571D01*
X146228571Y-97029285D01*
X146190476Y-96953095D01*
X145923809Y-97295952D02*
X145961904Y-97219761D01*
X145961904Y-97067380D01*
X145923809Y-96991190D01*
X145885714Y-96953095D01*
X145809523Y-96915000D01*
X145580952Y-96915000D01*
X145504761Y-96953095D01*
X145466666Y-96991190D01*
X145428571Y-97067380D01*
X145428571Y-97219761D01*
X145466666Y-97295952D01*
X145961904Y-97791190D02*
X145923809Y-97715000D01*
X145847619Y-97676904D01*
X145161904Y-97676904D01*
X145923809Y-98400714D02*
X145961904Y-98324523D01*
X145961904Y-98172142D01*
X145923809Y-98095952D01*
X145847619Y-98057857D01*
X145542857Y-98057857D01*
X145466666Y-98095952D01*
X145428571Y-98172142D01*
X145428571Y-98324523D01*
X145466666Y-98400714D01*
X145542857Y-98438809D01*
X145619047Y-98438809D01*
X145695238Y-98057857D01*
X145961904Y-99391190D02*
X145161904Y-99391190D01*
X145466666Y-99391190D02*
X145428571Y-99467380D01*
X145428571Y-99619761D01*
X145466666Y-99695952D01*
X145504761Y-99734047D01*
X145580952Y-99772142D01*
X145809523Y-99772142D01*
X145885714Y-99734047D01*
X145923809Y-99695952D01*
X145961904Y-99619761D01*
X145961904Y-99467380D01*
X145923809Y-99391190D01*
X145923809Y-100419761D02*
X145961904Y-100343571D01*
X145961904Y-100191190D01*
X145923809Y-100115000D01*
X145847619Y-100076904D01*
X145542857Y-100076904D01*
X145466666Y-100115000D01*
X145428571Y-100191190D01*
X145428571Y-100343571D01*
X145466666Y-100419761D01*
X145542857Y-100457857D01*
X145619047Y-100457857D01*
X145695238Y-100076904D01*
X145428571Y-100686428D02*
X145428571Y-100991190D01*
X145161904Y-100800714D02*
X145847619Y-100800714D01*
X145923809Y-100838809D01*
X145961904Y-100915000D01*
X145961904Y-100991190D01*
X145428571Y-101181666D02*
X145961904Y-101334047D01*
X145580952Y-101486428D01*
X145961904Y-101638809D01*
X145428571Y-101791190D01*
X145923809Y-102400714D02*
X145961904Y-102324523D01*
X145961904Y-102172142D01*
X145923809Y-102095952D01*
X145847619Y-102057857D01*
X145542857Y-102057857D01*
X145466666Y-102095952D01*
X145428571Y-102172142D01*
X145428571Y-102324523D01*
X145466666Y-102400714D01*
X145542857Y-102438809D01*
X145619047Y-102438809D01*
X145695238Y-102057857D01*
X145923809Y-103086428D02*
X145961904Y-103010238D01*
X145961904Y-102857857D01*
X145923809Y-102781666D01*
X145847619Y-102743571D01*
X145542857Y-102743571D01*
X145466666Y-102781666D01*
X145428571Y-102857857D01*
X145428571Y-103010238D01*
X145466666Y-103086428D01*
X145542857Y-103124523D01*
X145619047Y-103124523D01*
X145695238Y-102743571D01*
X145428571Y-103467380D02*
X145961904Y-103467380D01*
X145504761Y-103467380D02*
X145466666Y-103505476D01*
X145428571Y-103581666D01*
X145428571Y-103695952D01*
X145466666Y-103772142D01*
X145542857Y-103810238D01*
X145961904Y-103810238D01*
X145428571Y-104686428D02*
X145428571Y-104991190D01*
X145961904Y-104800714D02*
X145276190Y-104800714D01*
X145200000Y-104838809D01*
X145161904Y-104915000D01*
X145161904Y-104991190D01*
X145961904Y-105257857D02*
X145428571Y-105257857D01*
X145161904Y-105257857D02*
X145200000Y-105219761D01*
X145238095Y-105257857D01*
X145200000Y-105295952D01*
X145161904Y-105257857D01*
X145238095Y-105257857D01*
X145961904Y-105562619D02*
X145428571Y-105981666D01*
X145428571Y-105562619D02*
X145961904Y-105981666D01*
X145961904Y-107238809D02*
X145542857Y-107238809D01*
X145466666Y-107200714D01*
X145428571Y-107124523D01*
X145428571Y-106972142D01*
X145466666Y-106895952D01*
X145923809Y-107238809D02*
X145961904Y-107162619D01*
X145961904Y-106972142D01*
X145923809Y-106895952D01*
X145847619Y-106857857D01*
X145771428Y-106857857D01*
X145695238Y-106895952D01*
X145657142Y-106972142D01*
X145657142Y-107162619D01*
X145619047Y-107238809D01*
X145428571Y-107619761D02*
X145961904Y-107619761D01*
X145504761Y-107619761D02*
X145466666Y-107657857D01*
X145428571Y-107734047D01*
X145428571Y-107848333D01*
X145466666Y-107924523D01*
X145542857Y-107962619D01*
X145961904Y-107962619D01*
X145961904Y-108686428D02*
X145161904Y-108686428D01*
X145923809Y-108686428D02*
X145961904Y-108610238D01*
X145961904Y-108457857D01*
X145923809Y-108381666D01*
X145885714Y-108343571D01*
X145809523Y-108305476D01*
X145580952Y-108305476D01*
X145504761Y-108343571D01*
X145466666Y-108381666D01*
X145428571Y-108457857D01*
X145428571Y-108610238D01*
X145466666Y-108686428D01*
X145961904Y-109676904D02*
X145428571Y-109676904D01*
X145504761Y-109676904D02*
X145466666Y-109715000D01*
X145428571Y-109791190D01*
X145428571Y-109905476D01*
X145466666Y-109981666D01*
X145542857Y-110019761D01*
X145961904Y-110019761D01*
X145542857Y-110019761D02*
X145466666Y-110057857D01*
X145428571Y-110134047D01*
X145428571Y-110248333D01*
X145466666Y-110324523D01*
X145542857Y-110362619D01*
X145961904Y-110362619D01*
X145961904Y-110857857D02*
X145923809Y-110781666D01*
X145885714Y-110743571D01*
X145809523Y-110705476D01*
X145580952Y-110705476D01*
X145504761Y-110743571D01*
X145466666Y-110781666D01*
X145428571Y-110857857D01*
X145428571Y-110972142D01*
X145466666Y-111048333D01*
X145504761Y-111086428D01*
X145580952Y-111124523D01*
X145809523Y-111124523D01*
X145885714Y-111086428D01*
X145923809Y-111048333D01*
X145961904Y-110972142D01*
X145961904Y-110857857D01*
X145961904Y-111467380D02*
X145161904Y-111467380D01*
X145466666Y-111467380D02*
X145428571Y-111543571D01*
X145428571Y-111695952D01*
X145466666Y-111772142D01*
X145504761Y-111810238D01*
X145580952Y-111848333D01*
X145809523Y-111848333D01*
X145885714Y-111810238D01*
X145923809Y-111772142D01*
X145961904Y-111695952D01*
X145961904Y-111543571D01*
X145923809Y-111467380D01*
X145961904Y-112191190D02*
X145428571Y-112191190D01*
X145161904Y-112191190D02*
X145200000Y-112153095D01*
X145238095Y-112191190D01*
X145200000Y-112229285D01*
X145161904Y-112191190D01*
X145238095Y-112191190D01*
X145961904Y-112686428D02*
X145923809Y-112610238D01*
X145847619Y-112572142D01*
X145161904Y-112572142D01*
X145923809Y-113295952D02*
X145961904Y-113219761D01*
X145961904Y-113067380D01*
X145923809Y-112991190D01*
X145847619Y-112953095D01*
X145542857Y-112953095D01*
X145466666Y-112991190D01*
X145428571Y-113067380D01*
X145428571Y-113219761D01*
X145466666Y-113295952D01*
X145542857Y-113334047D01*
X145619047Y-113334047D01*
X145695238Y-112953095D01*
X145961904Y-114286428D02*
X145428571Y-114286428D01*
X145504761Y-114286428D02*
X145466666Y-114324523D01*
X145428571Y-114400714D01*
X145428571Y-114515000D01*
X145466666Y-114591190D01*
X145542857Y-114629285D01*
X145961904Y-114629285D01*
X145542857Y-114629285D02*
X145466666Y-114667380D01*
X145428571Y-114743571D01*
X145428571Y-114857857D01*
X145466666Y-114934047D01*
X145542857Y-114972142D01*
X145961904Y-114972142D01*
X145961904Y-115467380D02*
X145923809Y-115391190D01*
X145885714Y-115353095D01*
X145809523Y-115315000D01*
X145580952Y-115315000D01*
X145504761Y-115353095D01*
X145466666Y-115391190D01*
X145428571Y-115467380D01*
X145428571Y-115581666D01*
X145466666Y-115657857D01*
X145504761Y-115695952D01*
X145580952Y-115734047D01*
X145809523Y-115734047D01*
X145885714Y-115695952D01*
X145923809Y-115657857D01*
X145961904Y-115581666D01*
X145961904Y-115467380D01*
X145961904Y-116419761D02*
X145161904Y-116419761D01*
X145923809Y-116419761D02*
X145961904Y-116343571D01*
X145961904Y-116191190D01*
X145923809Y-116115000D01*
X145885714Y-116076904D01*
X145809523Y-116038809D01*
X145580952Y-116038809D01*
X145504761Y-116076904D01*
X145466666Y-116115000D01*
X145428571Y-116191190D01*
X145428571Y-116343571D01*
X145466666Y-116419761D01*
X145923809Y-117105476D02*
X145961904Y-117029285D01*
X145961904Y-116876904D01*
X145923809Y-116800714D01*
X145847619Y-116762619D01*
X145542857Y-116762619D01*
X145466666Y-116800714D01*
X145428571Y-116876904D01*
X145428571Y-117029285D01*
X145466666Y-117105476D01*
X145542857Y-117143571D01*
X145619047Y-117143571D01*
X145695238Y-116762619D01*
X146728571Y-93334047D02*
X147528571Y-93334047D01*
X146766666Y-93334047D02*
X146728571Y-93410238D01*
X146728571Y-93562619D01*
X146766666Y-93638809D01*
X146804761Y-93676904D01*
X146880952Y-93715000D01*
X147109523Y-93715000D01*
X147185714Y-93676904D01*
X147223809Y-93638809D01*
X147261904Y-93562619D01*
X147261904Y-93410238D01*
X147223809Y-93334047D01*
X147261904Y-94057857D02*
X146728571Y-94057857D01*
X146880952Y-94057857D02*
X146804761Y-94095952D01*
X146766666Y-94134047D01*
X146728571Y-94210238D01*
X146728571Y-94286428D01*
X147223809Y-94857857D02*
X147261904Y-94781666D01*
X147261904Y-94629285D01*
X147223809Y-94553095D01*
X147147619Y-94515000D01*
X146842857Y-94515000D01*
X146766666Y-94553095D01*
X146728571Y-94629285D01*
X146728571Y-94781666D01*
X146766666Y-94857857D01*
X146842857Y-94895952D01*
X146919047Y-94895952D01*
X146995238Y-94515000D01*
X147223809Y-95200714D02*
X147261904Y-95276904D01*
X147261904Y-95429285D01*
X147223809Y-95505476D01*
X147147619Y-95543571D01*
X147109523Y-95543571D01*
X147033333Y-95505476D01*
X146995238Y-95429285D01*
X146995238Y-95315000D01*
X146957142Y-95238809D01*
X146880952Y-95200714D01*
X146842857Y-95200714D01*
X146766666Y-95238809D01*
X146728571Y-95315000D01*
X146728571Y-95429285D01*
X146766666Y-95505476D01*
X147223809Y-95848333D02*
X147261904Y-95924523D01*
X147261904Y-96076904D01*
X147223809Y-96153095D01*
X147147619Y-96191190D01*
X147109523Y-96191190D01*
X147033333Y-96153095D01*
X146995238Y-96076904D01*
X146995238Y-95962619D01*
X146957142Y-95886428D01*
X146880952Y-95848333D01*
X146842857Y-95848333D01*
X146766666Y-95886428D01*
X146728571Y-95962619D01*
X146728571Y-96076904D01*
X146766666Y-96153095D01*
X146728571Y-97029285D02*
X146728571Y-97334047D01*
X146461904Y-97143571D02*
X147147619Y-97143571D01*
X147223809Y-97181666D01*
X147261904Y-97257857D01*
X147261904Y-97334047D01*
X147261904Y-97600714D02*
X146461904Y-97600714D01*
X147261904Y-97943571D02*
X146842857Y-97943571D01*
X146766666Y-97905476D01*
X146728571Y-97829285D01*
X146728571Y-97715000D01*
X146766666Y-97638809D01*
X146804761Y-97600714D01*
X147223809Y-98629285D02*
X147261904Y-98553095D01*
X147261904Y-98400714D01*
X147223809Y-98324523D01*
X147147619Y-98286428D01*
X146842857Y-98286428D01*
X146766666Y-98324523D01*
X146728571Y-98400714D01*
X146728571Y-98553095D01*
X146766666Y-98629285D01*
X146842857Y-98667380D01*
X146919047Y-98667380D01*
X146995238Y-98286428D01*
X147261904Y-99619761D02*
X146461904Y-99619761D01*
X146766666Y-99619761D02*
X146728571Y-99695952D01*
X146728571Y-99848333D01*
X146766666Y-99924523D01*
X146804761Y-99962619D01*
X146880952Y-100000714D01*
X147109523Y-100000714D01*
X147185714Y-99962619D01*
X147223809Y-99924523D01*
X147261904Y-99848333D01*
X147261904Y-99695952D01*
X147223809Y-99619761D01*
X146728571Y-100686428D02*
X147261904Y-100686428D01*
X146728571Y-100343571D02*
X147147619Y-100343571D01*
X147223809Y-100381666D01*
X147261904Y-100457857D01*
X147261904Y-100572142D01*
X147223809Y-100648333D01*
X147185714Y-100686428D01*
X146728571Y-100953095D02*
X146728571Y-101257857D01*
X146461904Y-101067380D02*
X147147619Y-101067380D01*
X147223809Y-101105476D01*
X147261904Y-101181666D01*
X147261904Y-101257857D01*
X146728571Y-101410238D02*
X146728571Y-101715000D01*
X146461904Y-101524523D02*
X147147619Y-101524523D01*
X147223809Y-101562619D01*
X147261904Y-101638809D01*
X147261904Y-101715000D01*
X147261904Y-102095952D02*
X147223809Y-102019761D01*
X147185714Y-101981666D01*
X147109523Y-101943571D01*
X146880952Y-101943571D01*
X146804761Y-101981666D01*
X146766666Y-102019761D01*
X146728571Y-102095952D01*
X146728571Y-102210238D01*
X146766666Y-102286428D01*
X146804761Y-102324523D01*
X146880952Y-102362619D01*
X147109523Y-102362619D01*
X147185714Y-102324523D01*
X147223809Y-102286428D01*
X147261904Y-102210238D01*
X147261904Y-102095952D01*
X146728571Y-102705476D02*
X147261904Y-102705476D01*
X146804761Y-102705476D02*
X146766666Y-102743571D01*
X146728571Y-102819761D01*
X146728571Y-102934047D01*
X146766666Y-103010238D01*
X146842857Y-103048333D01*
X147261904Y-103048333D01*
X147261904Y-104153095D02*
X147223809Y-104076904D01*
X147185714Y-104038809D01*
X147109523Y-104000714D01*
X146880952Y-104000714D01*
X146804761Y-104038809D01*
X146766666Y-104076904D01*
X146728571Y-104153095D01*
X146728571Y-104267380D01*
X146766666Y-104343571D01*
X146804761Y-104381666D01*
X146880952Y-104419761D01*
X147109523Y-104419761D01*
X147185714Y-104381666D01*
X147223809Y-104343571D01*
X147261904Y-104267380D01*
X147261904Y-104153095D01*
X146728571Y-104762619D02*
X147261904Y-104762619D01*
X146804761Y-104762619D02*
X146766666Y-104800714D01*
X146728571Y-104876904D01*
X146728571Y-104991190D01*
X146766666Y-105067380D01*
X146842857Y-105105476D01*
X147261904Y-105105476D01*
X147223809Y-105829285D02*
X147261904Y-105753095D01*
X147261904Y-105600714D01*
X147223809Y-105524523D01*
X147185714Y-105486428D01*
X147109523Y-105448333D01*
X146880952Y-105448333D01*
X146804761Y-105486428D01*
X146766666Y-105524523D01*
X146728571Y-105600714D01*
X146728571Y-105753095D01*
X146766666Y-105829285D01*
X147223809Y-106476904D02*
X147261904Y-106400714D01*
X147261904Y-106248333D01*
X147223809Y-106172142D01*
X147147619Y-106134047D01*
X146842857Y-106134047D01*
X146766666Y-106172142D01*
X146728571Y-106248333D01*
X146728571Y-106400714D01*
X146766666Y-106476904D01*
X146842857Y-106515000D01*
X146919047Y-106515000D01*
X146995238Y-106134047D01*
X147185714Y-106857857D02*
X147223809Y-106895952D01*
X147261904Y-106857857D01*
X147223809Y-106819761D01*
X147185714Y-106857857D01*
X147261904Y-106857857D01*
X148257142Y-91505476D02*
X148257142Y-92115000D01*
X147761904Y-92991190D02*
X147761904Y-93448333D01*
X148561904Y-93219761D02*
X147761904Y-93219761D01*
X148561904Y-93829285D02*
X148523809Y-93753095D01*
X148485714Y-93715000D01*
X148409523Y-93676904D01*
X148180952Y-93676904D01*
X148104761Y-93715000D01*
X148066666Y-93753095D01*
X148028571Y-93829285D01*
X148028571Y-93943571D01*
X148066666Y-94019761D01*
X148104761Y-94057857D01*
X148180952Y-94095952D01*
X148409523Y-94095952D01*
X148485714Y-94057857D01*
X148523809Y-94019761D01*
X148561904Y-93943571D01*
X148561904Y-93829285D01*
X148561904Y-95048333D02*
X147761904Y-95048333D01*
X148561904Y-95391190D02*
X148142857Y-95391190D01*
X148066666Y-95353095D01*
X148028571Y-95276904D01*
X148028571Y-95162619D01*
X148066666Y-95086428D01*
X148104761Y-95048333D01*
X148561904Y-96115000D02*
X148142857Y-96115000D01*
X148066666Y-96076904D01*
X148028571Y-96000714D01*
X148028571Y-95848333D01*
X148066666Y-95772142D01*
X148523809Y-96115000D02*
X148561904Y-96038809D01*
X148561904Y-95848333D01*
X148523809Y-95772142D01*
X148447619Y-95734047D01*
X148371428Y-95734047D01*
X148295238Y-95772142D01*
X148257142Y-95848333D01*
X148257142Y-96038809D01*
X148219047Y-96115000D01*
X148561904Y-96495952D02*
X148028571Y-96495952D01*
X148180952Y-96495952D02*
X148104761Y-96534047D01*
X148066666Y-96572142D01*
X148028571Y-96648333D01*
X148028571Y-96724523D01*
X148561904Y-97334047D02*
X147761904Y-97334047D01*
X148523809Y-97334047D02*
X148561904Y-97257857D01*
X148561904Y-97105476D01*
X148523809Y-97029285D01*
X148485714Y-96991190D01*
X148409523Y-96953095D01*
X148180952Y-96953095D01*
X148104761Y-96991190D01*
X148066666Y-97029285D01*
X148028571Y-97105476D01*
X148028571Y-97257857D01*
X148066666Y-97334047D01*
X148561904Y-98324523D02*
X148028571Y-98324523D01*
X148180952Y-98324523D02*
X148104761Y-98362619D01*
X148066666Y-98400714D01*
X148028571Y-98476904D01*
X148028571Y-98553095D01*
X148523809Y-99124523D02*
X148561904Y-99048333D01*
X148561904Y-98895952D01*
X148523809Y-98819761D01*
X148447619Y-98781666D01*
X148142857Y-98781666D01*
X148066666Y-98819761D01*
X148028571Y-98895952D01*
X148028571Y-99048333D01*
X148066666Y-99124523D01*
X148142857Y-99162619D01*
X148219047Y-99162619D01*
X148295238Y-98781666D01*
X148523809Y-99467380D02*
X148561904Y-99543571D01*
X148561904Y-99695952D01*
X148523809Y-99772142D01*
X148447619Y-99810238D01*
X148409523Y-99810238D01*
X148333333Y-99772142D01*
X148295238Y-99695952D01*
X148295238Y-99581666D01*
X148257142Y-99505476D01*
X148180952Y-99467380D01*
X148142857Y-99467380D01*
X148066666Y-99505476D01*
X148028571Y-99581666D01*
X148028571Y-99695952D01*
X148066666Y-99772142D01*
X148523809Y-100457857D02*
X148561904Y-100381666D01*
X148561904Y-100229285D01*
X148523809Y-100153095D01*
X148447619Y-100115000D01*
X148142857Y-100115000D01*
X148066666Y-100153095D01*
X148028571Y-100229285D01*
X148028571Y-100381666D01*
X148066666Y-100457857D01*
X148142857Y-100495952D01*
X148219047Y-100495952D01*
X148295238Y-100115000D01*
X148028571Y-100724523D02*
X148028571Y-101029285D01*
X147761904Y-100838809D02*
X148447619Y-100838809D01*
X148523809Y-100876904D01*
X148561904Y-100953095D01*
X148561904Y-101029285D01*
X148561904Y-101905476D02*
X147761904Y-101905476D01*
X148561904Y-102248333D02*
X148142857Y-102248333D01*
X148066666Y-102210238D01*
X148028571Y-102134047D01*
X148028571Y-102019761D01*
X148066666Y-101943571D01*
X148104761Y-101905476D01*
X148561904Y-102743571D02*
X148523809Y-102667380D01*
X148485714Y-102629285D01*
X148409523Y-102591190D01*
X148180952Y-102591190D01*
X148104761Y-102629285D01*
X148066666Y-102667380D01*
X148028571Y-102743571D01*
X148028571Y-102857857D01*
X148066666Y-102934047D01*
X148104761Y-102972142D01*
X148180952Y-103010238D01*
X148409523Y-103010238D01*
X148485714Y-102972142D01*
X148523809Y-102934047D01*
X148561904Y-102857857D01*
X148561904Y-102743571D01*
X148561904Y-103467380D02*
X148523809Y-103391190D01*
X148447619Y-103353095D01*
X147761904Y-103353095D01*
X148561904Y-104115000D02*
X147761904Y-104115000D01*
X148523809Y-104115000D02*
X148561904Y-104038809D01*
X148561904Y-103886428D01*
X148523809Y-103810238D01*
X148485714Y-103772142D01*
X148409523Y-103734047D01*
X148180952Y-103734047D01*
X148104761Y-103772142D01*
X148066666Y-103810238D01*
X148028571Y-103886428D01*
X148028571Y-104038809D01*
X148066666Y-104115000D01*
X148561904Y-105105476D02*
X147761904Y-105105476D01*
X148066666Y-105105476D02*
X148028571Y-105181666D01*
X148028571Y-105334047D01*
X148066666Y-105410238D01*
X148104761Y-105448333D01*
X148180952Y-105486428D01*
X148409523Y-105486428D01*
X148485714Y-105448333D01*
X148523809Y-105410238D01*
X148561904Y-105334047D01*
X148561904Y-105181666D01*
X148523809Y-105105476D01*
X148028571Y-106172142D02*
X148561904Y-106172142D01*
X148028571Y-105829285D02*
X148447619Y-105829285D01*
X148523809Y-105867380D01*
X148561904Y-105943571D01*
X148561904Y-106057857D01*
X148523809Y-106134047D01*
X148485714Y-106172142D01*
X148028571Y-106438809D02*
X148028571Y-106743571D01*
X147761904Y-106553095D02*
X148447619Y-106553095D01*
X148523809Y-106591190D01*
X148561904Y-106667380D01*
X148561904Y-106743571D01*
X148028571Y-106895952D02*
X148028571Y-107200714D01*
X147761904Y-107010238D02*
X148447619Y-107010238D01*
X148523809Y-107048333D01*
X148561904Y-107124523D01*
X148561904Y-107200714D01*
X148561904Y-107581666D02*
X148523809Y-107505476D01*
X148485714Y-107467380D01*
X148409523Y-107429285D01*
X148180952Y-107429285D01*
X148104761Y-107467380D01*
X148066666Y-107505476D01*
X148028571Y-107581666D01*
X148028571Y-107695952D01*
X148066666Y-107772142D01*
X148104761Y-107810238D01*
X148180952Y-107848333D01*
X148409523Y-107848333D01*
X148485714Y-107810238D01*
X148523809Y-107772142D01*
X148561904Y-107695952D01*
X148561904Y-107581666D01*
X148028571Y-108191190D02*
X148561904Y-108191190D01*
X148104761Y-108191190D02*
X148066666Y-108229285D01*
X148028571Y-108305476D01*
X148028571Y-108419761D01*
X148066666Y-108495952D01*
X148142857Y-108534047D01*
X148561904Y-108534047D01*
X148028571Y-109410238D02*
X148028571Y-109715000D01*
X148561904Y-109524523D02*
X147876190Y-109524523D01*
X147800000Y-109562619D01*
X147761904Y-109638809D01*
X147761904Y-109715000D01*
X148561904Y-110095952D02*
X148523809Y-110019761D01*
X148485714Y-109981666D01*
X148409523Y-109943571D01*
X148180952Y-109943571D01*
X148104761Y-109981666D01*
X148066666Y-110019761D01*
X148028571Y-110095952D01*
X148028571Y-110210238D01*
X148066666Y-110286428D01*
X148104761Y-110324523D01*
X148180952Y-110362619D01*
X148409523Y-110362619D01*
X148485714Y-110324523D01*
X148523809Y-110286428D01*
X148561904Y-110210238D01*
X148561904Y-110095952D01*
X148561904Y-110705476D02*
X148028571Y-110705476D01*
X148180952Y-110705476D02*
X148104761Y-110743571D01*
X148066666Y-110781666D01*
X148028571Y-110857857D01*
X148028571Y-110934047D01*
X148028571Y-112153095D02*
X148561904Y-112153095D01*
X147723809Y-111962619D02*
X148295238Y-111772142D01*
X148295238Y-112267380D01*
X148523809Y-113143571D02*
X148561904Y-113219761D01*
X148561904Y-113372142D01*
X148523809Y-113448333D01*
X148447619Y-113486428D01*
X148409523Y-113486428D01*
X148333333Y-113448333D01*
X148295238Y-113372142D01*
X148295238Y-113257857D01*
X148257142Y-113181666D01*
X148180952Y-113143571D01*
X148142857Y-113143571D01*
X148066666Y-113181666D01*
X148028571Y-113257857D01*
X148028571Y-113372142D01*
X148066666Y-113448333D01*
X148523809Y-114134047D02*
X148561904Y-114057857D01*
X148561904Y-113905476D01*
X148523809Y-113829285D01*
X148447619Y-113791190D01*
X148142857Y-113791190D01*
X148066666Y-113829285D01*
X148028571Y-113905476D01*
X148028571Y-114057857D01*
X148066666Y-114134047D01*
X148142857Y-114172142D01*
X148219047Y-114172142D01*
X148295238Y-113791190D01*
X148523809Y-114857857D02*
X148561904Y-114781666D01*
X148561904Y-114629285D01*
X148523809Y-114553095D01*
X148485714Y-114515000D01*
X148409523Y-114476904D01*
X148180952Y-114476904D01*
X148104761Y-114515000D01*
X148066666Y-114553095D01*
X148028571Y-114629285D01*
X148028571Y-114781666D01*
X148066666Y-114857857D01*
X148561904Y-115315000D02*
X148523809Y-115238809D01*
X148485714Y-115200714D01*
X148409523Y-115162619D01*
X148180952Y-115162619D01*
X148104761Y-115200714D01*
X148066666Y-115238809D01*
X148028571Y-115315000D01*
X148028571Y-115429285D01*
X148066666Y-115505476D01*
X148104761Y-115543571D01*
X148180952Y-115581666D01*
X148409523Y-115581666D01*
X148485714Y-115543571D01*
X148523809Y-115505476D01*
X148561904Y-115429285D01*
X148561904Y-115315000D01*
X148028571Y-115924523D02*
X148561904Y-115924523D01*
X148104761Y-115924523D02*
X148066666Y-115962619D01*
X148028571Y-116038809D01*
X148028571Y-116153095D01*
X148066666Y-116229285D01*
X148142857Y-116267380D01*
X148561904Y-116267380D01*
X148561904Y-116991190D02*
X147761904Y-116991190D01*
X148523809Y-116991190D02*
X148561904Y-116915000D01*
X148561904Y-116762619D01*
X148523809Y-116686428D01*
X148485714Y-116648333D01*
X148409523Y-116610238D01*
X148180952Y-116610238D01*
X148104761Y-116648333D01*
X148066666Y-116686428D01*
X148028571Y-116762619D01*
X148028571Y-116915000D01*
X148066666Y-116991190D01*
X148523809Y-117334047D02*
X148561904Y-117410238D01*
X148561904Y-117562619D01*
X148523809Y-117638809D01*
X148447619Y-117676904D01*
X148409523Y-117676904D01*
X148333333Y-117638809D01*
X148295238Y-117562619D01*
X148295238Y-117448333D01*
X148257142Y-117372142D01*
X148180952Y-117334047D01*
X148142857Y-117334047D01*
X148066666Y-117372142D01*
X148028571Y-117448333D01*
X148028571Y-117562619D01*
X148066666Y-117638809D01*
X148485714Y-118019761D02*
X148523809Y-118057857D01*
X148561904Y-118019761D01*
X148523809Y-117981666D01*
X148485714Y-118019761D01*
X148561904Y-118019761D01*
X149557142Y-91505476D02*
X149557142Y-92115000D01*
X149061904Y-92991190D02*
X149061904Y-93448333D01*
X149861904Y-93219761D02*
X149061904Y-93219761D01*
X149861904Y-93829285D02*
X149823809Y-93753095D01*
X149785714Y-93715000D01*
X149709523Y-93676904D01*
X149480952Y-93676904D01*
X149404761Y-93715000D01*
X149366666Y-93753095D01*
X149328571Y-93829285D01*
X149328571Y-93943571D01*
X149366666Y-94019761D01*
X149404761Y-94057857D01*
X149480952Y-94095952D01*
X149709523Y-94095952D01*
X149785714Y-94057857D01*
X149823809Y-94019761D01*
X149861904Y-93943571D01*
X149861904Y-93829285D01*
X149328571Y-95048333D02*
X150128571Y-95048333D01*
X149366666Y-95048333D02*
X149328571Y-95124523D01*
X149328571Y-95276904D01*
X149366666Y-95353095D01*
X149404761Y-95391190D01*
X149480952Y-95429285D01*
X149709523Y-95429285D01*
X149785714Y-95391190D01*
X149823809Y-95353095D01*
X149861904Y-95276904D01*
X149861904Y-95124523D01*
X149823809Y-95048333D01*
X149861904Y-95772142D02*
X149328571Y-95772142D01*
X149480952Y-95772142D02*
X149404761Y-95810238D01*
X149366666Y-95848333D01*
X149328571Y-95924523D01*
X149328571Y-96000714D01*
X149861904Y-96381666D02*
X149823809Y-96305476D01*
X149785714Y-96267380D01*
X149709523Y-96229285D01*
X149480952Y-96229285D01*
X149404761Y-96267380D01*
X149366666Y-96305476D01*
X149328571Y-96381666D01*
X149328571Y-96495952D01*
X149366666Y-96572142D01*
X149404761Y-96610238D01*
X149480952Y-96648333D01*
X149709523Y-96648333D01*
X149785714Y-96610238D01*
X149823809Y-96572142D01*
X149861904Y-96495952D01*
X149861904Y-96381666D01*
X149328571Y-97334047D02*
X149976190Y-97334047D01*
X150052380Y-97295952D01*
X150090476Y-97257857D01*
X150128571Y-97181666D01*
X150128571Y-97067380D01*
X150090476Y-96991190D01*
X149823809Y-97334047D02*
X149861904Y-97257857D01*
X149861904Y-97105476D01*
X149823809Y-97029285D01*
X149785714Y-96991190D01*
X149709523Y-96953095D01*
X149480952Y-96953095D01*
X149404761Y-96991190D01*
X149366666Y-97029285D01*
X149328571Y-97105476D01*
X149328571Y-97257857D01*
X149366666Y-97334047D01*
X149861904Y-97715000D02*
X149328571Y-97715000D01*
X149480952Y-97715000D02*
X149404761Y-97753095D01*
X149366666Y-97791190D01*
X149328571Y-97867380D01*
X149328571Y-97943571D01*
X149861904Y-98553095D02*
X149442857Y-98553095D01*
X149366666Y-98515000D01*
X149328571Y-98438809D01*
X149328571Y-98286428D01*
X149366666Y-98210238D01*
X149823809Y-98553095D02*
X149861904Y-98476904D01*
X149861904Y-98286428D01*
X149823809Y-98210238D01*
X149747619Y-98172142D01*
X149671428Y-98172142D01*
X149595238Y-98210238D01*
X149557142Y-98286428D01*
X149557142Y-98476904D01*
X149519047Y-98553095D01*
X149861904Y-98934047D02*
X149328571Y-98934047D01*
X149404761Y-98934047D02*
X149366666Y-98972142D01*
X149328571Y-99048333D01*
X149328571Y-99162619D01*
X149366666Y-99238809D01*
X149442857Y-99276904D01*
X149861904Y-99276904D01*
X149442857Y-99276904D02*
X149366666Y-99315000D01*
X149328571Y-99391190D01*
X149328571Y-99505476D01*
X149366666Y-99581666D01*
X149442857Y-99619761D01*
X149861904Y-99619761D01*
X149023809Y-100572142D02*
X150052380Y-99886428D01*
X149328571Y-100724523D02*
X149328571Y-101029285D01*
X149861904Y-100838809D02*
X149176190Y-100838809D01*
X149100000Y-100876904D01*
X149061904Y-100953095D01*
X149061904Y-101029285D01*
X149861904Y-101410238D02*
X149823809Y-101334047D01*
X149747619Y-101295952D01*
X149061904Y-101295952D01*
X149861904Y-102057857D02*
X149442857Y-102057857D01*
X149366666Y-102019761D01*
X149328571Y-101943571D01*
X149328571Y-101791190D01*
X149366666Y-101715000D01*
X149823809Y-102057857D02*
X149861904Y-101981666D01*
X149861904Y-101791190D01*
X149823809Y-101715000D01*
X149747619Y-101676904D01*
X149671428Y-101676904D01*
X149595238Y-101715000D01*
X149557142Y-101791190D01*
X149557142Y-101981666D01*
X149519047Y-102057857D01*
X149823809Y-102400714D02*
X149861904Y-102476904D01*
X149861904Y-102629285D01*
X149823809Y-102705476D01*
X149747619Y-102743571D01*
X149709523Y-102743571D01*
X149633333Y-102705476D01*
X149595238Y-102629285D01*
X149595238Y-102515000D01*
X149557142Y-102438809D01*
X149480952Y-102400714D01*
X149442857Y-102400714D01*
X149366666Y-102438809D01*
X149328571Y-102515000D01*
X149328571Y-102629285D01*
X149366666Y-102705476D01*
X149861904Y-103086428D02*
X149061904Y-103086428D01*
X149861904Y-103429285D02*
X149442857Y-103429285D01*
X149366666Y-103391190D01*
X149328571Y-103315000D01*
X149328571Y-103200714D01*
X149366666Y-103124523D01*
X149404761Y-103086428D01*
X149823809Y-103848333D02*
X149861904Y-103848333D01*
X149938095Y-103810238D01*
X149976190Y-103772142D01*
X149328571Y-104800714D02*
X150128571Y-104800714D01*
X149366666Y-104800714D02*
X149328571Y-104876904D01*
X149328571Y-105029285D01*
X149366666Y-105105476D01*
X149404761Y-105143571D01*
X149480952Y-105181666D01*
X149709523Y-105181666D01*
X149785714Y-105143571D01*
X149823809Y-105105476D01*
X149861904Y-105029285D01*
X149861904Y-104876904D01*
X149823809Y-104800714D01*
X149861904Y-105524523D02*
X149328571Y-105524523D01*
X149480952Y-105524523D02*
X149404761Y-105562619D01*
X149366666Y-105600714D01*
X149328571Y-105676904D01*
X149328571Y-105753095D01*
X149823809Y-106324523D02*
X149861904Y-106248333D01*
X149861904Y-106095952D01*
X149823809Y-106019761D01*
X149747619Y-105981666D01*
X149442857Y-105981666D01*
X149366666Y-106019761D01*
X149328571Y-106095952D01*
X149328571Y-106248333D01*
X149366666Y-106324523D01*
X149442857Y-106362619D01*
X149519047Y-106362619D01*
X149595238Y-105981666D01*
X149823809Y-106667380D02*
X149861904Y-106743571D01*
X149861904Y-106895952D01*
X149823809Y-106972142D01*
X149747619Y-107010238D01*
X149709523Y-107010238D01*
X149633333Y-106972142D01*
X149595238Y-106895952D01*
X149595238Y-106781666D01*
X149557142Y-106705476D01*
X149480952Y-106667380D01*
X149442857Y-106667380D01*
X149366666Y-106705476D01*
X149328571Y-106781666D01*
X149328571Y-106895952D01*
X149366666Y-106972142D01*
X149823809Y-107315000D02*
X149861904Y-107391190D01*
X149861904Y-107543571D01*
X149823809Y-107619761D01*
X149747619Y-107657857D01*
X149709523Y-107657857D01*
X149633333Y-107619761D01*
X149595238Y-107543571D01*
X149595238Y-107429285D01*
X149557142Y-107353095D01*
X149480952Y-107315000D01*
X149442857Y-107315000D01*
X149366666Y-107353095D01*
X149328571Y-107429285D01*
X149328571Y-107543571D01*
X149366666Y-107619761D01*
X149861904Y-108953095D02*
X149442857Y-108953095D01*
X149366666Y-108915000D01*
X149328571Y-108838809D01*
X149328571Y-108686428D01*
X149366666Y-108610238D01*
X149823809Y-108953095D02*
X149861904Y-108876904D01*
X149861904Y-108686428D01*
X149823809Y-108610238D01*
X149747619Y-108572142D01*
X149671428Y-108572142D01*
X149595238Y-108610238D01*
X149557142Y-108686428D01*
X149557142Y-108876904D01*
X149519047Y-108953095D01*
X149328571Y-109334047D02*
X149861904Y-109334047D01*
X149404761Y-109334047D02*
X149366666Y-109372142D01*
X149328571Y-109448333D01*
X149328571Y-109562619D01*
X149366666Y-109638809D01*
X149442857Y-109676904D01*
X149861904Y-109676904D01*
X149861904Y-110400714D02*
X149061904Y-110400714D01*
X149823809Y-110400714D02*
X149861904Y-110324523D01*
X149861904Y-110172142D01*
X149823809Y-110095952D01*
X149785714Y-110057857D01*
X149709523Y-110019761D01*
X149480952Y-110019761D01*
X149404761Y-110057857D01*
X149366666Y-110095952D01*
X149328571Y-110172142D01*
X149328571Y-110324523D01*
X149366666Y-110400714D01*
X149861904Y-111391190D02*
X149061904Y-111391190D01*
X149861904Y-111734047D02*
X149442857Y-111734047D01*
X149366666Y-111695952D01*
X149328571Y-111619761D01*
X149328571Y-111505476D01*
X149366666Y-111429285D01*
X149404761Y-111391190D01*
X149861904Y-112229285D02*
X149823809Y-112153095D01*
X149785714Y-112115000D01*
X149709523Y-112076904D01*
X149480952Y-112076904D01*
X149404761Y-112115000D01*
X149366666Y-112153095D01*
X149328571Y-112229285D01*
X149328571Y-112343571D01*
X149366666Y-112419761D01*
X149404761Y-112457857D01*
X149480952Y-112495952D01*
X149709523Y-112495952D01*
X149785714Y-112457857D01*
X149823809Y-112419761D01*
X149861904Y-112343571D01*
X149861904Y-112229285D01*
X149861904Y-112953095D02*
X149823809Y-112876904D01*
X149747619Y-112838809D01*
X149061904Y-112838809D01*
X149861904Y-113600714D02*
X149061904Y-113600714D01*
X149823809Y-113600714D02*
X149861904Y-113524523D01*
X149861904Y-113372142D01*
X149823809Y-113295952D01*
X149785714Y-113257857D01*
X149709523Y-113219761D01*
X149480952Y-113219761D01*
X149404761Y-113257857D01*
X149366666Y-113295952D01*
X149328571Y-113372142D01*
X149328571Y-113524523D01*
X149366666Y-113600714D01*
X149328571Y-114476904D02*
X149328571Y-114781666D01*
X149061904Y-114591190D02*
X149747619Y-114591190D01*
X149823809Y-114629285D01*
X149861904Y-114705476D01*
X149861904Y-114781666D01*
X149861904Y-115048333D02*
X149061904Y-115048333D01*
X149861904Y-115391190D02*
X149442857Y-115391190D01*
X149366666Y-115353095D01*
X149328571Y-115276904D01*
X149328571Y-115162619D01*
X149366666Y-115086428D01*
X149404761Y-115048333D01*
X149823809Y-116076904D02*
X149861904Y-116000714D01*
X149861904Y-115848333D01*
X149823809Y-115772142D01*
X149747619Y-115734047D01*
X149442857Y-115734047D01*
X149366666Y-115772142D01*
X149328571Y-115848333D01*
X149328571Y-116000714D01*
X149366666Y-116076904D01*
X149442857Y-116115000D01*
X149519047Y-116115000D01*
X149595238Y-115734047D01*
X151161904Y-93334047D02*
X150361904Y-93334047D01*
X150666666Y-93334047D02*
X150628571Y-93410238D01*
X150628571Y-93562619D01*
X150666666Y-93638809D01*
X150704761Y-93676904D01*
X150780952Y-93715000D01*
X151009523Y-93715000D01*
X151085714Y-93676904D01*
X151123809Y-93638809D01*
X151161904Y-93562619D01*
X151161904Y-93410238D01*
X151123809Y-93334047D01*
X150628571Y-94400714D02*
X151161904Y-94400714D01*
X150628571Y-94057857D02*
X151047619Y-94057857D01*
X151123809Y-94095952D01*
X151161904Y-94172142D01*
X151161904Y-94286428D01*
X151123809Y-94362619D01*
X151085714Y-94400714D01*
X150628571Y-94667380D02*
X150628571Y-94972142D01*
X150361904Y-94781666D02*
X151047619Y-94781666D01*
X151123809Y-94819761D01*
X151161904Y-94895952D01*
X151161904Y-94972142D01*
X150628571Y-95124523D02*
X150628571Y-95429285D01*
X150361904Y-95238809D02*
X151047619Y-95238809D01*
X151123809Y-95276904D01*
X151161904Y-95353095D01*
X151161904Y-95429285D01*
X151161904Y-95810238D02*
X151123809Y-95734047D01*
X151085714Y-95695952D01*
X151009523Y-95657857D01*
X150780952Y-95657857D01*
X150704761Y-95695952D01*
X150666666Y-95734047D01*
X150628571Y-95810238D01*
X150628571Y-95924523D01*
X150666666Y-96000714D01*
X150704761Y-96038809D01*
X150780952Y-96076904D01*
X151009523Y-96076904D01*
X151085714Y-96038809D01*
X151123809Y-96000714D01*
X151161904Y-95924523D01*
X151161904Y-95810238D01*
X150628571Y-96419761D02*
X151161904Y-96419761D01*
X150704761Y-96419761D02*
X150666666Y-96457857D01*
X150628571Y-96534047D01*
X150628571Y-96648333D01*
X150666666Y-96724523D01*
X150742857Y-96762619D01*
X151161904Y-96762619D01*
X151161904Y-97867380D02*
X151123809Y-97791190D01*
X151085714Y-97753095D01*
X151009523Y-97715000D01*
X150780952Y-97715000D01*
X150704761Y-97753095D01*
X150666666Y-97791190D01*
X150628571Y-97867380D01*
X150628571Y-97981666D01*
X150666666Y-98057857D01*
X150704761Y-98095952D01*
X150780952Y-98134047D01*
X151009523Y-98134047D01*
X151085714Y-98095952D01*
X151123809Y-98057857D01*
X151161904Y-97981666D01*
X151161904Y-97867380D01*
X150628571Y-98476904D02*
X151161904Y-98476904D01*
X150704761Y-98476904D02*
X150666666Y-98515000D01*
X150628571Y-98591190D01*
X150628571Y-98705476D01*
X150666666Y-98781666D01*
X150742857Y-98819761D01*
X151161904Y-98819761D01*
X150628571Y-99810238D02*
X151428571Y-99810238D01*
X150666666Y-99810238D02*
X150628571Y-99886428D01*
X150628571Y-100038809D01*
X150666666Y-100115000D01*
X150704761Y-100153095D01*
X150780952Y-100191190D01*
X151009523Y-100191190D01*
X151085714Y-100153095D01*
X151123809Y-100115000D01*
X151161904Y-100038809D01*
X151161904Y-99886428D01*
X151123809Y-99810238D01*
X151161904Y-100648333D02*
X151123809Y-100572142D01*
X151085714Y-100534047D01*
X151009523Y-100495952D01*
X150780952Y-100495952D01*
X150704761Y-100534047D01*
X150666666Y-100572142D01*
X150628571Y-100648333D01*
X150628571Y-100762619D01*
X150666666Y-100838809D01*
X150704761Y-100876904D01*
X150780952Y-100915000D01*
X151009523Y-100915000D01*
X151085714Y-100876904D01*
X151123809Y-100838809D01*
X151161904Y-100762619D01*
X151161904Y-100648333D01*
X150628571Y-101181666D02*
X151161904Y-101334047D01*
X150780952Y-101486428D01*
X151161904Y-101638809D01*
X150628571Y-101791190D01*
X151123809Y-102400714D02*
X151161904Y-102324523D01*
X151161904Y-102172142D01*
X151123809Y-102095952D01*
X151047619Y-102057857D01*
X150742857Y-102057857D01*
X150666666Y-102095952D01*
X150628571Y-102172142D01*
X150628571Y-102324523D01*
X150666666Y-102400714D01*
X150742857Y-102438809D01*
X150819047Y-102438809D01*
X150895238Y-102057857D01*
X151161904Y-102781666D02*
X150628571Y-102781666D01*
X150780952Y-102781666D02*
X150704761Y-102819761D01*
X150666666Y-102857857D01*
X150628571Y-102934047D01*
X150628571Y-103010238D01*
X150628571Y-103619761D02*
X151161904Y-103619761D01*
X150628571Y-103276904D02*
X151047619Y-103276904D01*
X151123809Y-103315000D01*
X151161904Y-103391190D01*
X151161904Y-103505476D01*
X151123809Y-103581666D01*
X151085714Y-103619761D01*
X150628571Y-104000714D02*
X151428571Y-104000714D01*
X150666666Y-104000714D02*
X150628571Y-104076904D01*
X150628571Y-104229285D01*
X150666666Y-104305476D01*
X150704761Y-104343571D01*
X150780952Y-104381666D01*
X151009523Y-104381666D01*
X151085714Y-104343571D01*
X151123809Y-104305476D01*
X151161904Y-104229285D01*
X151161904Y-104076904D01*
X151123809Y-104000714D01*
X151085714Y-104724523D02*
X151123809Y-104762619D01*
X151161904Y-104724523D01*
X151123809Y-104686428D01*
X151085714Y-104724523D01*
X151161904Y-104724523D01*
X153685714Y-102934047D02*
X153723809Y-102895952D01*
X153761904Y-102781666D01*
X153761904Y-102705476D01*
X153723809Y-102591190D01*
X153647619Y-102515000D01*
X153571428Y-102476904D01*
X153419047Y-102438809D01*
X153304761Y-102438809D01*
X153152380Y-102476904D01*
X153076190Y-102515000D01*
X153000000Y-102591190D01*
X152961904Y-102705476D01*
X152961904Y-102781666D01*
X153000000Y-102895952D01*
X153038095Y-102934047D01*
X153761904Y-103391190D02*
X153723809Y-103315000D01*
X153685714Y-103276904D01*
X153609523Y-103238809D01*
X153380952Y-103238809D01*
X153304761Y-103276904D01*
X153266666Y-103315000D01*
X153228571Y-103391190D01*
X153228571Y-103505476D01*
X153266666Y-103581666D01*
X153304761Y-103619761D01*
X153380952Y-103657857D01*
X153609523Y-103657857D01*
X153685714Y-103619761D01*
X153723809Y-103581666D01*
X153761904Y-103505476D01*
X153761904Y-103391190D01*
X153228571Y-104000714D02*
X153761904Y-104000714D01*
X153304761Y-104000714D02*
X153266666Y-104038809D01*
X153228571Y-104115000D01*
X153228571Y-104229285D01*
X153266666Y-104305476D01*
X153342857Y-104343571D01*
X153761904Y-104343571D01*
X153228571Y-104610238D02*
X153228571Y-104915000D01*
X152961904Y-104724523D02*
X153647619Y-104724523D01*
X153723809Y-104762619D01*
X153761904Y-104838809D01*
X153761904Y-104915000D01*
X153761904Y-105524523D02*
X153342857Y-105524523D01*
X153266666Y-105486428D01*
X153228571Y-105410238D01*
X153228571Y-105257857D01*
X153266666Y-105181666D01*
X153723809Y-105524523D02*
X153761904Y-105448333D01*
X153761904Y-105257857D01*
X153723809Y-105181666D01*
X153647619Y-105143571D01*
X153571428Y-105143571D01*
X153495238Y-105181666D01*
X153457142Y-105257857D01*
X153457142Y-105448333D01*
X153419047Y-105524523D01*
X153723809Y-106248333D02*
X153761904Y-106172142D01*
X153761904Y-106019761D01*
X153723809Y-105943571D01*
X153685714Y-105905476D01*
X153609523Y-105867380D01*
X153380952Y-105867380D01*
X153304761Y-105905476D01*
X153266666Y-105943571D01*
X153228571Y-106019761D01*
X153228571Y-106172142D01*
X153266666Y-106248333D01*
X153228571Y-106476904D02*
X153228571Y-106781666D01*
X152961904Y-106591190D02*
X153647619Y-106591190D01*
X153723809Y-106629285D01*
X153761904Y-106705476D01*
X153761904Y-106781666D01*
X153685714Y-107048333D02*
X153723809Y-107086428D01*
X153761904Y-107048333D01*
X153723809Y-107010238D01*
X153685714Y-107048333D01*
X153761904Y-107048333D01*
X153266666Y-107048333D02*
X153304761Y-107086428D01*
X153342857Y-107048333D01*
X153304761Y-107010238D01*
X153266666Y-107048333D01*
X153342857Y-107048333D01*
X153761904Y-108038809D02*
X153228571Y-108038809D01*
X153380952Y-108038809D02*
X153304761Y-108076904D01*
X153266666Y-108115000D01*
X153228571Y-108191190D01*
X153228571Y-108267380D01*
X153761904Y-108648333D02*
X153723809Y-108572142D01*
X153685714Y-108534047D01*
X153609523Y-108495952D01*
X153380952Y-108495952D01*
X153304761Y-108534047D01*
X153266666Y-108572142D01*
X153228571Y-108648333D01*
X153228571Y-108762619D01*
X153266666Y-108838809D01*
X153304761Y-108876904D01*
X153380952Y-108915000D01*
X153609523Y-108915000D01*
X153685714Y-108876904D01*
X153723809Y-108838809D01*
X153761904Y-108762619D01*
X153761904Y-108648333D01*
X153761904Y-109257857D02*
X152961904Y-109257857D01*
X153266666Y-109257857D02*
X153228571Y-109334047D01*
X153228571Y-109486428D01*
X153266666Y-109562619D01*
X153304761Y-109600714D01*
X153380952Y-109638809D01*
X153609523Y-109638809D01*
X153685714Y-109600714D01*
X153723809Y-109562619D01*
X153761904Y-109486428D01*
X153761904Y-109334047D01*
X153723809Y-109257857D01*
X153380952Y-110476904D02*
X153342857Y-110438809D01*
X153304761Y-110362619D01*
X153304761Y-110286428D01*
X153342857Y-110210238D01*
X153380952Y-110172142D01*
X153457142Y-110134047D01*
X153533333Y-110134047D01*
X153609523Y-110172142D01*
X153647619Y-110210238D01*
X153685714Y-110286428D01*
X153685714Y-110362619D01*
X153647619Y-110438809D01*
X153609523Y-110476904D01*
X153304761Y-110476904D02*
X153609523Y-110476904D01*
X153647619Y-110515000D01*
X153647619Y-110553095D01*
X153609523Y-110629285D01*
X153533333Y-110667380D01*
X153342857Y-110667380D01*
X153228571Y-110591190D01*
X153152380Y-110476904D01*
X153114285Y-110324523D01*
X153152380Y-110172142D01*
X153228571Y-110057857D01*
X153342857Y-109981666D01*
X153495238Y-109943571D01*
X153647619Y-109981666D01*
X153761904Y-110057857D01*
X153838095Y-110172142D01*
X153876190Y-110324523D01*
X153838095Y-110476904D01*
X153761904Y-110591190D01*
X153723809Y-110972142D02*
X153761904Y-111048333D01*
X153761904Y-111200714D01*
X153723809Y-111276904D01*
X153647619Y-111315000D01*
X153609523Y-111315000D01*
X153533333Y-111276904D01*
X153495238Y-111200714D01*
X153495238Y-111086428D01*
X153457142Y-111010238D01*
X153380952Y-110972142D01*
X153342857Y-110972142D01*
X153266666Y-111010238D01*
X153228571Y-111086428D01*
X153228571Y-111200714D01*
X153266666Y-111276904D01*
X153761904Y-112000714D02*
X153342857Y-112000714D01*
X153266666Y-111962619D01*
X153228571Y-111886428D01*
X153228571Y-111734047D01*
X153266666Y-111657857D01*
X153723809Y-112000714D02*
X153761904Y-111924523D01*
X153761904Y-111734047D01*
X153723809Y-111657857D01*
X153647619Y-111619761D01*
X153571428Y-111619761D01*
X153495238Y-111657857D01*
X153457142Y-111734047D01*
X153457142Y-111924523D01*
X153419047Y-112000714D01*
X153228571Y-112267380D02*
X153228571Y-112572142D01*
X153761904Y-112381666D02*
X153076190Y-112381666D01*
X153000000Y-112419761D01*
X152961904Y-112495952D01*
X152961904Y-112572142D01*
X153723809Y-113143571D02*
X153761904Y-113067380D01*
X153761904Y-112915000D01*
X153723809Y-112838809D01*
X153647619Y-112800714D01*
X153342857Y-112800714D01*
X153266666Y-112838809D01*
X153228571Y-112915000D01*
X153228571Y-113067380D01*
X153266666Y-113143571D01*
X153342857Y-113181666D01*
X153419047Y-113181666D01*
X153495238Y-112800714D01*
X153723809Y-113867380D02*
X153761904Y-113791190D01*
X153761904Y-113638809D01*
X153723809Y-113562619D01*
X153685714Y-113524523D01*
X153609523Y-113486428D01*
X153380952Y-113486428D01*
X153304761Y-113524523D01*
X153266666Y-113562619D01*
X153228571Y-113638809D01*
X153228571Y-113791190D01*
X153266666Y-113867380D01*
X153761904Y-114553095D02*
X153342857Y-114553095D01*
X153266666Y-114515000D01*
X153228571Y-114438809D01*
X153228571Y-114286428D01*
X153266666Y-114210238D01*
X153723809Y-114553095D02*
X153761904Y-114476904D01*
X153761904Y-114286428D01*
X153723809Y-114210238D01*
X153647619Y-114172142D01*
X153571428Y-114172142D01*
X153495238Y-114210238D01*
X153457142Y-114286428D01*
X153457142Y-114476904D01*
X153419047Y-114553095D01*
X153723809Y-114895952D02*
X153761904Y-114972142D01*
X153761904Y-115124523D01*
X153723809Y-115200714D01*
X153647619Y-115238809D01*
X153609523Y-115238809D01*
X153533333Y-115200714D01*
X153495238Y-115124523D01*
X153495238Y-115010238D01*
X153457142Y-114934047D01*
X153380952Y-114895952D01*
X153342857Y-114895952D01*
X153266666Y-114934047D01*
X153228571Y-115010238D01*
X153228571Y-115124523D01*
X153266666Y-115200714D01*
X153228571Y-115467380D02*
X153228571Y-115772142D01*
X152961904Y-115581666D02*
X153647619Y-115581666D01*
X153723809Y-115619761D01*
X153761904Y-115695952D01*
X153761904Y-115772142D01*
X153685714Y-116038809D02*
X153723809Y-116076904D01*
X153761904Y-116038809D01*
X153723809Y-116000714D01*
X153685714Y-116038809D01*
X153761904Y-116038809D01*
X153761904Y-116534047D02*
X153723809Y-116457857D01*
X153685714Y-116419761D01*
X153609523Y-116381666D01*
X153380952Y-116381666D01*
X153304761Y-116419761D01*
X153266666Y-116457857D01*
X153228571Y-116534047D01*
X153228571Y-116648333D01*
X153266666Y-116724523D01*
X153304761Y-116762619D01*
X153380952Y-116800714D01*
X153609523Y-116800714D01*
X153685714Y-116762619D01*
X153723809Y-116724523D01*
X153761904Y-116648333D01*
X153761904Y-116534047D01*
X153761904Y-117143571D02*
X153228571Y-117143571D01*
X153380952Y-117143571D02*
X153304761Y-117181666D01*
X153266666Y-117219761D01*
X153228571Y-117295952D01*
X153228571Y-117372142D01*
X153228571Y-117981666D02*
X153876190Y-117981666D01*
X153952380Y-117943571D01*
X153990476Y-117905476D01*
X154028571Y-117829285D01*
X154028571Y-117715000D01*
X153990476Y-117638809D01*
X153723809Y-117981666D02*
X153761904Y-117905476D01*
X153761904Y-117753095D01*
X153723809Y-117676904D01*
X153685714Y-117638809D01*
X153609523Y-117600714D01*
X153380952Y-117600714D01*
X153304761Y-117638809D01*
X153266666Y-117676904D01*
X153228571Y-117753095D01*
X153228571Y-117905476D01*
X153266666Y-117981666D01*
D11*
X141400000Y-120280000D02*
X141200000Y-120280000D01*
X144200000Y-124420000D02*
X144000000Y-124630000D01*
X142900000Y-124420000D02*
X143100000Y-124630000D01*
X144200000Y-123130000D02*
X144200000Y-124420000D01*
X144000000Y-124630000D02*
X143100000Y-124630000D01*
X142900000Y-124420000D02*
X142900000Y-123130000D01*
X145650000Y-123130000D02*
X139950000Y-123130000D01*
X144400000Y-120280000D02*
X142700000Y-120280000D01*
X146250000Y-121330000D02*
X146250000Y-122120000D01*
X139350000Y-122120000D02*
X139350000Y-121330000D01*
M02*
