%TF.GenerationSoftware,KiCad,Pcbnew,(5.1.0-511-gbeef7c9f2)*%
%TF.CreationDate,2019-05-09T17:34:55+09:00*%
%TF.ProjectId,xbee,78626565-2e6b-4696-9361-645f70636258,rev?*%
%TF.SameCoordinates,Original*%
%TF.FileFunction,Legend,Bot*%
%TF.FilePolarity,Positive*%
%FSLAX46Y46*%
G04 Gerber Fmt 4.6, Leading zero omitted, Abs format (unit mm)*
G04 Created by KiCad (PCBNEW (5.1.0-511-gbeef7c9f2)) date 2019-05-09 17:34:55*
%MOMM*%
%LPD*%
G04 APERTURE LIST*
%ADD10C,0.075000*%
%ADD11C,0.150000*%
%ADD12C,0.120000*%
%ADD13C,0.070000*%
G04 APERTURE END LIST*
D10*
X149005357Y-93241607D02*
X149005357Y-93698750D01*
X148633928Y-94355892D02*
X148633928Y-94698750D01*
X149233928Y-94527321D02*
X148633928Y-94527321D01*
X149233928Y-94984464D02*
X149205357Y-94927321D01*
X149176785Y-94898750D01*
X149119642Y-94870178D01*
X148948214Y-94870178D01*
X148891071Y-94898750D01*
X148862500Y-94927321D01*
X148833928Y-94984464D01*
X148833928Y-95070178D01*
X148862500Y-95127321D01*
X148891071Y-95155892D01*
X148948214Y-95184464D01*
X149119642Y-95184464D01*
X149176785Y-95155892D01*
X149205357Y-95127321D01*
X149233928Y-95070178D01*
X149233928Y-94984464D01*
X148833928Y-95813035D02*
X148833928Y-96041607D01*
X148633928Y-95898750D02*
X149148214Y-95898750D01*
X149205357Y-95927321D01*
X149233928Y-95984464D01*
X149233928Y-96041607D01*
X149233928Y-96327321D02*
X149205357Y-96270178D01*
X149176785Y-96241607D01*
X149119642Y-96213035D01*
X148948214Y-96213035D01*
X148891071Y-96241607D01*
X148862500Y-96270178D01*
X148833928Y-96327321D01*
X148833928Y-96413035D01*
X148862500Y-96470178D01*
X148891071Y-96498750D01*
X148948214Y-96527321D01*
X149119642Y-96527321D01*
X149176785Y-96498750D01*
X149205357Y-96470178D01*
X149233928Y-96413035D01*
X149233928Y-96327321D01*
X148833928Y-97041607D02*
X149319642Y-97041607D01*
X149376785Y-97013035D01*
X149405357Y-96984464D01*
X149433928Y-96927321D01*
X149433928Y-96841607D01*
X149405357Y-96784464D01*
X149205357Y-97041607D02*
X149233928Y-96984464D01*
X149233928Y-96870178D01*
X149205357Y-96813035D01*
X149176785Y-96784464D01*
X149119642Y-96755892D01*
X148948214Y-96755892D01*
X148891071Y-96784464D01*
X148862500Y-96813035D01*
X148833928Y-96870178D01*
X148833928Y-96984464D01*
X148862500Y-97041607D01*
X148833928Y-97584464D02*
X149319642Y-97584464D01*
X149376785Y-97555892D01*
X149405357Y-97527321D01*
X149433928Y-97470178D01*
X149433928Y-97384464D01*
X149405357Y-97327321D01*
X149205357Y-97584464D02*
X149233928Y-97527321D01*
X149233928Y-97413035D01*
X149205357Y-97355892D01*
X149176785Y-97327321D01*
X149119642Y-97298750D01*
X148948214Y-97298750D01*
X148891071Y-97327321D01*
X148862500Y-97355892D01*
X148833928Y-97413035D01*
X148833928Y-97527321D01*
X148862500Y-97584464D01*
X149233928Y-97955892D02*
X149205357Y-97898750D01*
X149148214Y-97870178D01*
X148633928Y-97870178D01*
X149205357Y-98413035D02*
X149233928Y-98355892D01*
X149233928Y-98241607D01*
X149205357Y-98184464D01*
X149148214Y-98155892D01*
X148919642Y-98155892D01*
X148862500Y-98184464D01*
X148833928Y-98241607D01*
X148833928Y-98355892D01*
X148862500Y-98413035D01*
X148919642Y-98441607D01*
X148976785Y-98441607D01*
X149033928Y-98155892D01*
X149233928Y-99155892D02*
X148633928Y-99155892D01*
X148862500Y-99155892D02*
X148833928Y-99213035D01*
X148833928Y-99327321D01*
X148862500Y-99384464D01*
X148891071Y-99413035D01*
X148948214Y-99441607D01*
X149119642Y-99441607D01*
X149176785Y-99413035D01*
X149205357Y-99384464D01*
X149233928Y-99327321D01*
X149233928Y-99213035D01*
X149205357Y-99155892D01*
X149205357Y-99927321D02*
X149233928Y-99870178D01*
X149233928Y-99755892D01*
X149205357Y-99698750D01*
X149148214Y-99670178D01*
X148919642Y-99670178D01*
X148862500Y-99698750D01*
X148833928Y-99755892D01*
X148833928Y-99870178D01*
X148862500Y-99927321D01*
X148919642Y-99955892D01*
X148976785Y-99955892D01*
X149033928Y-99670178D01*
X148833928Y-100127321D02*
X148833928Y-100355892D01*
X148633928Y-100213035D02*
X149148214Y-100213035D01*
X149205357Y-100241607D01*
X149233928Y-100298750D01*
X149233928Y-100355892D01*
X148833928Y-100498750D02*
X149233928Y-100613035D01*
X148948214Y-100727321D01*
X149233928Y-100841607D01*
X148833928Y-100955892D01*
X149205357Y-101413035D02*
X149233928Y-101355892D01*
X149233928Y-101241607D01*
X149205357Y-101184464D01*
X149148214Y-101155892D01*
X148919642Y-101155892D01*
X148862500Y-101184464D01*
X148833928Y-101241607D01*
X148833928Y-101355892D01*
X148862500Y-101413035D01*
X148919642Y-101441607D01*
X148976785Y-101441607D01*
X149033928Y-101155892D01*
X149205357Y-101927321D02*
X149233928Y-101870178D01*
X149233928Y-101755892D01*
X149205357Y-101698750D01*
X149148214Y-101670178D01*
X148919642Y-101670178D01*
X148862500Y-101698750D01*
X148833928Y-101755892D01*
X148833928Y-101870178D01*
X148862500Y-101927321D01*
X148919642Y-101955892D01*
X148976785Y-101955892D01*
X149033928Y-101670178D01*
X148833928Y-102213035D02*
X149233928Y-102213035D01*
X148891071Y-102213035D02*
X148862500Y-102241607D01*
X148833928Y-102298750D01*
X148833928Y-102384464D01*
X148862500Y-102441607D01*
X148919642Y-102470178D01*
X149233928Y-102470178D01*
X148833928Y-103127321D02*
X148833928Y-103355892D01*
X149233928Y-103213035D02*
X148719642Y-103213035D01*
X148662500Y-103241607D01*
X148633928Y-103298750D01*
X148633928Y-103355892D01*
X149233928Y-103555892D02*
X148833928Y-103555892D01*
X148633928Y-103555892D02*
X148662500Y-103527321D01*
X148691071Y-103555892D01*
X148662500Y-103584464D01*
X148633928Y-103555892D01*
X148691071Y-103555892D01*
X149233928Y-103784464D02*
X148833928Y-104098750D01*
X148833928Y-103784464D02*
X149233928Y-104098750D01*
X149233928Y-105041607D02*
X148919642Y-105041607D01*
X148862500Y-105013035D01*
X148833928Y-104955892D01*
X148833928Y-104841607D01*
X148862500Y-104784464D01*
X149205357Y-105041607D02*
X149233928Y-104984464D01*
X149233928Y-104841607D01*
X149205357Y-104784464D01*
X149148214Y-104755892D01*
X149091071Y-104755892D01*
X149033928Y-104784464D01*
X149005357Y-104841607D01*
X149005357Y-104984464D01*
X148976785Y-105041607D01*
X148833928Y-105327321D02*
X149233928Y-105327321D01*
X148891071Y-105327321D02*
X148862500Y-105355892D01*
X148833928Y-105413035D01*
X148833928Y-105498750D01*
X148862500Y-105555892D01*
X148919642Y-105584464D01*
X149233928Y-105584464D01*
X149233928Y-106127321D02*
X148633928Y-106127321D01*
X149205357Y-106127321D02*
X149233928Y-106070178D01*
X149233928Y-105955892D01*
X149205357Y-105898750D01*
X149176785Y-105870178D01*
X149119642Y-105841607D01*
X148948214Y-105841607D01*
X148891071Y-105870178D01*
X148862500Y-105898750D01*
X148833928Y-105955892D01*
X148833928Y-106070178D01*
X148862500Y-106127321D01*
X149233928Y-106870178D02*
X148833928Y-106870178D01*
X148891071Y-106870178D02*
X148862500Y-106898750D01*
X148833928Y-106955892D01*
X148833928Y-107041607D01*
X148862500Y-107098750D01*
X148919642Y-107127321D01*
X149233928Y-107127321D01*
X148919642Y-107127321D02*
X148862500Y-107155892D01*
X148833928Y-107213035D01*
X148833928Y-107298750D01*
X148862500Y-107355892D01*
X148919642Y-107384464D01*
X149233928Y-107384464D01*
X149233928Y-107755892D02*
X149205357Y-107698750D01*
X149176785Y-107670178D01*
X149119642Y-107641607D01*
X148948214Y-107641607D01*
X148891071Y-107670178D01*
X148862500Y-107698750D01*
X148833928Y-107755892D01*
X148833928Y-107841607D01*
X148862500Y-107898750D01*
X148891071Y-107927321D01*
X148948214Y-107955892D01*
X149119642Y-107955892D01*
X149176785Y-107927321D01*
X149205357Y-107898750D01*
X149233928Y-107841607D01*
X149233928Y-107755892D01*
X149233928Y-108213035D02*
X148633928Y-108213035D01*
X148862500Y-108213035D02*
X148833928Y-108270178D01*
X148833928Y-108384464D01*
X148862500Y-108441607D01*
X148891071Y-108470178D01*
X148948214Y-108498750D01*
X149119642Y-108498750D01*
X149176785Y-108470178D01*
X149205357Y-108441607D01*
X149233928Y-108384464D01*
X149233928Y-108270178D01*
X149205357Y-108213035D01*
X149233928Y-108755892D02*
X148833928Y-108755892D01*
X148633928Y-108755892D02*
X148662500Y-108727321D01*
X148691071Y-108755892D01*
X148662500Y-108784464D01*
X148633928Y-108755892D01*
X148691071Y-108755892D01*
X149233928Y-109127321D02*
X149205357Y-109070178D01*
X149148214Y-109041607D01*
X148633928Y-109041607D01*
X149205357Y-109584464D02*
X149233928Y-109527321D01*
X149233928Y-109413035D01*
X149205357Y-109355892D01*
X149148214Y-109327321D01*
X148919642Y-109327321D01*
X148862500Y-109355892D01*
X148833928Y-109413035D01*
X148833928Y-109527321D01*
X148862500Y-109584464D01*
X148919642Y-109613035D01*
X148976785Y-109613035D01*
X149033928Y-109327321D01*
X149233928Y-110327321D02*
X148833928Y-110327321D01*
X148891071Y-110327321D02*
X148862500Y-110355892D01*
X148833928Y-110413035D01*
X148833928Y-110498750D01*
X148862500Y-110555892D01*
X148919642Y-110584464D01*
X149233928Y-110584464D01*
X148919642Y-110584464D02*
X148862500Y-110613035D01*
X148833928Y-110670178D01*
X148833928Y-110755892D01*
X148862500Y-110813035D01*
X148919642Y-110841607D01*
X149233928Y-110841607D01*
X149233928Y-111213035D02*
X149205357Y-111155892D01*
X149176785Y-111127321D01*
X149119642Y-111098750D01*
X148948214Y-111098750D01*
X148891071Y-111127321D01*
X148862500Y-111155892D01*
X148833928Y-111213035D01*
X148833928Y-111298750D01*
X148862500Y-111355892D01*
X148891071Y-111384464D01*
X148948214Y-111413035D01*
X149119642Y-111413035D01*
X149176785Y-111384464D01*
X149205357Y-111355892D01*
X149233928Y-111298750D01*
X149233928Y-111213035D01*
X149233928Y-111927321D02*
X148633928Y-111927321D01*
X149205357Y-111927321D02*
X149233928Y-111870178D01*
X149233928Y-111755892D01*
X149205357Y-111698750D01*
X149176785Y-111670178D01*
X149119642Y-111641607D01*
X148948214Y-111641607D01*
X148891071Y-111670178D01*
X148862500Y-111698750D01*
X148833928Y-111755892D01*
X148833928Y-111870178D01*
X148862500Y-111927321D01*
X149205357Y-112441607D02*
X149233928Y-112384464D01*
X149233928Y-112270178D01*
X149205357Y-112213035D01*
X149148214Y-112184464D01*
X148919642Y-112184464D01*
X148862500Y-112213035D01*
X148833928Y-112270178D01*
X148833928Y-112384464D01*
X148862500Y-112441607D01*
X148919642Y-112470178D01*
X148976785Y-112470178D01*
X149033928Y-112184464D01*
X149808928Y-94613035D02*
X150408928Y-94613035D01*
X149837500Y-94613035D02*
X149808928Y-94670178D01*
X149808928Y-94784464D01*
X149837500Y-94841607D01*
X149866071Y-94870178D01*
X149923214Y-94898750D01*
X150094642Y-94898750D01*
X150151785Y-94870178D01*
X150180357Y-94841607D01*
X150208928Y-94784464D01*
X150208928Y-94670178D01*
X150180357Y-94613035D01*
X150208928Y-95155892D02*
X149808928Y-95155892D01*
X149923214Y-95155892D02*
X149866071Y-95184464D01*
X149837500Y-95213035D01*
X149808928Y-95270178D01*
X149808928Y-95327321D01*
X150180357Y-95755892D02*
X150208928Y-95698750D01*
X150208928Y-95584464D01*
X150180357Y-95527321D01*
X150123214Y-95498750D01*
X149894642Y-95498750D01*
X149837500Y-95527321D01*
X149808928Y-95584464D01*
X149808928Y-95698750D01*
X149837500Y-95755892D01*
X149894642Y-95784464D01*
X149951785Y-95784464D01*
X150008928Y-95498750D01*
X150180357Y-96013035D02*
X150208928Y-96070178D01*
X150208928Y-96184464D01*
X150180357Y-96241607D01*
X150123214Y-96270178D01*
X150094642Y-96270178D01*
X150037500Y-96241607D01*
X150008928Y-96184464D01*
X150008928Y-96098750D01*
X149980357Y-96041607D01*
X149923214Y-96013035D01*
X149894642Y-96013035D01*
X149837500Y-96041607D01*
X149808928Y-96098750D01*
X149808928Y-96184464D01*
X149837500Y-96241607D01*
X150180357Y-96498750D02*
X150208928Y-96555892D01*
X150208928Y-96670178D01*
X150180357Y-96727321D01*
X150123214Y-96755892D01*
X150094642Y-96755892D01*
X150037500Y-96727321D01*
X150008928Y-96670178D01*
X150008928Y-96584464D01*
X149980357Y-96527321D01*
X149923214Y-96498750D01*
X149894642Y-96498750D01*
X149837500Y-96527321D01*
X149808928Y-96584464D01*
X149808928Y-96670178D01*
X149837500Y-96727321D01*
X149808928Y-97384464D02*
X149808928Y-97613035D01*
X149608928Y-97470178D02*
X150123214Y-97470178D01*
X150180357Y-97498750D01*
X150208928Y-97555892D01*
X150208928Y-97613035D01*
X150208928Y-97813035D02*
X149608928Y-97813035D01*
X150208928Y-98070178D02*
X149894642Y-98070178D01*
X149837500Y-98041607D01*
X149808928Y-97984464D01*
X149808928Y-97898750D01*
X149837500Y-97841607D01*
X149866071Y-97813035D01*
X150180357Y-98584464D02*
X150208928Y-98527321D01*
X150208928Y-98413035D01*
X150180357Y-98355892D01*
X150123214Y-98327321D01*
X149894642Y-98327321D01*
X149837500Y-98355892D01*
X149808928Y-98413035D01*
X149808928Y-98527321D01*
X149837500Y-98584464D01*
X149894642Y-98613035D01*
X149951785Y-98613035D01*
X150008928Y-98327321D01*
X150208928Y-99327321D02*
X149608928Y-99327321D01*
X149837500Y-99327321D02*
X149808928Y-99384464D01*
X149808928Y-99498750D01*
X149837500Y-99555892D01*
X149866071Y-99584464D01*
X149923214Y-99613035D01*
X150094642Y-99613035D01*
X150151785Y-99584464D01*
X150180357Y-99555892D01*
X150208928Y-99498750D01*
X150208928Y-99384464D01*
X150180357Y-99327321D01*
X149808928Y-100127321D02*
X150208928Y-100127321D01*
X149808928Y-99870178D02*
X150123214Y-99870178D01*
X150180357Y-99898750D01*
X150208928Y-99955892D01*
X150208928Y-100041607D01*
X150180357Y-100098750D01*
X150151785Y-100127321D01*
X149808928Y-100327321D02*
X149808928Y-100555892D01*
X149608928Y-100413035D02*
X150123214Y-100413035D01*
X150180357Y-100441607D01*
X150208928Y-100498750D01*
X150208928Y-100555892D01*
X149808928Y-100670178D02*
X149808928Y-100898750D01*
X149608928Y-100755892D02*
X150123214Y-100755892D01*
X150180357Y-100784464D01*
X150208928Y-100841607D01*
X150208928Y-100898750D01*
X150208928Y-101184464D02*
X150180357Y-101127321D01*
X150151785Y-101098750D01*
X150094642Y-101070178D01*
X149923214Y-101070178D01*
X149866071Y-101098750D01*
X149837500Y-101127321D01*
X149808928Y-101184464D01*
X149808928Y-101270178D01*
X149837500Y-101327321D01*
X149866071Y-101355892D01*
X149923214Y-101384464D01*
X150094642Y-101384464D01*
X150151785Y-101355892D01*
X150180357Y-101327321D01*
X150208928Y-101270178D01*
X150208928Y-101184464D01*
X149808928Y-101641607D02*
X150208928Y-101641607D01*
X149866071Y-101641607D02*
X149837500Y-101670178D01*
X149808928Y-101727321D01*
X149808928Y-101813035D01*
X149837500Y-101870178D01*
X149894642Y-101898750D01*
X150208928Y-101898750D01*
X150208928Y-102727321D02*
X150180357Y-102670178D01*
X150151785Y-102641607D01*
X150094642Y-102613035D01*
X149923214Y-102613035D01*
X149866071Y-102641607D01*
X149837500Y-102670178D01*
X149808928Y-102727321D01*
X149808928Y-102813035D01*
X149837500Y-102870178D01*
X149866071Y-102898750D01*
X149923214Y-102927321D01*
X150094642Y-102927321D01*
X150151785Y-102898750D01*
X150180357Y-102870178D01*
X150208928Y-102813035D01*
X150208928Y-102727321D01*
X149808928Y-103184464D02*
X150208928Y-103184464D01*
X149866071Y-103184464D02*
X149837500Y-103213035D01*
X149808928Y-103270178D01*
X149808928Y-103355892D01*
X149837500Y-103413035D01*
X149894642Y-103441607D01*
X150208928Y-103441607D01*
X150180357Y-103984464D02*
X150208928Y-103927321D01*
X150208928Y-103813035D01*
X150180357Y-103755892D01*
X150151785Y-103727321D01*
X150094642Y-103698750D01*
X149923214Y-103698750D01*
X149866071Y-103727321D01*
X149837500Y-103755892D01*
X149808928Y-103813035D01*
X149808928Y-103927321D01*
X149837500Y-103984464D01*
X150180357Y-104470178D02*
X150208928Y-104413035D01*
X150208928Y-104298750D01*
X150180357Y-104241607D01*
X150123214Y-104213035D01*
X149894642Y-104213035D01*
X149837500Y-104241607D01*
X149808928Y-104298750D01*
X149808928Y-104413035D01*
X149837500Y-104470178D01*
X149894642Y-104498750D01*
X149951785Y-104498750D01*
X150008928Y-104213035D01*
X150151785Y-104755892D02*
X150180357Y-104784464D01*
X150208928Y-104755892D01*
X150180357Y-104727321D01*
X150151785Y-104755892D01*
X150208928Y-104755892D01*
X150955357Y-93241607D02*
X150955357Y-93698750D01*
X150583928Y-94355892D02*
X150583928Y-94698750D01*
X151183928Y-94527321D02*
X150583928Y-94527321D01*
X151183928Y-94984464D02*
X151155357Y-94927321D01*
X151126785Y-94898750D01*
X151069642Y-94870178D01*
X150898214Y-94870178D01*
X150841071Y-94898750D01*
X150812500Y-94927321D01*
X150783928Y-94984464D01*
X150783928Y-95070178D01*
X150812500Y-95127321D01*
X150841071Y-95155892D01*
X150898214Y-95184464D01*
X151069642Y-95184464D01*
X151126785Y-95155892D01*
X151155357Y-95127321D01*
X151183928Y-95070178D01*
X151183928Y-94984464D01*
X151183928Y-95898750D02*
X150783928Y-95898750D01*
X150898214Y-95898750D02*
X150841071Y-95927321D01*
X150812500Y-95955892D01*
X150783928Y-96013035D01*
X150783928Y-96070178D01*
X150783928Y-96527321D02*
X151183928Y-96527321D01*
X150783928Y-96270178D02*
X151098214Y-96270178D01*
X151155357Y-96298750D01*
X151183928Y-96355892D01*
X151183928Y-96441607D01*
X151155357Y-96498750D01*
X151126785Y-96527321D01*
X150783928Y-96813035D02*
X151183928Y-96813035D01*
X150841071Y-96813035D02*
X150812500Y-96841607D01*
X150783928Y-96898750D01*
X150783928Y-96984464D01*
X150812500Y-97041607D01*
X150869642Y-97070178D01*
X151183928Y-97070178D01*
X151155357Y-98070178D02*
X151183928Y-98013035D01*
X151183928Y-97898750D01*
X151155357Y-97841607D01*
X151126785Y-97813035D01*
X151069642Y-97784464D01*
X150898214Y-97784464D01*
X150841071Y-97813035D01*
X150812500Y-97841607D01*
X150783928Y-97898750D01*
X150783928Y-98013035D01*
X150812500Y-98070178D01*
X151183928Y-98413035D02*
X151155357Y-98355892D01*
X151126785Y-98327321D01*
X151069642Y-98298750D01*
X150898214Y-98298750D01*
X150841071Y-98327321D01*
X150812500Y-98355892D01*
X150783928Y-98413035D01*
X150783928Y-98498750D01*
X150812500Y-98555892D01*
X150841071Y-98584464D01*
X150898214Y-98613035D01*
X151069642Y-98613035D01*
X151126785Y-98584464D01*
X151155357Y-98555892D01*
X151183928Y-98498750D01*
X151183928Y-98413035D01*
X150783928Y-98870178D02*
X151183928Y-98870178D01*
X150841071Y-98870178D02*
X150812500Y-98898750D01*
X150783928Y-98955892D01*
X150783928Y-99041607D01*
X150812500Y-99098750D01*
X150869642Y-99127321D01*
X151183928Y-99127321D01*
X150783928Y-99327321D02*
X150783928Y-99555892D01*
X151183928Y-99413035D02*
X150669642Y-99413035D01*
X150612500Y-99441607D01*
X150583928Y-99498750D01*
X150583928Y-99555892D01*
X151183928Y-99755892D02*
X150783928Y-99755892D01*
X150583928Y-99755892D02*
X150612500Y-99727321D01*
X150641071Y-99755892D01*
X150612500Y-99784464D01*
X150583928Y-99755892D01*
X150641071Y-99755892D01*
X150783928Y-100298750D02*
X151269642Y-100298750D01*
X151326785Y-100270178D01*
X151355357Y-100241607D01*
X151383928Y-100184464D01*
X151383928Y-100098750D01*
X151355357Y-100041607D01*
X151155357Y-100298750D02*
X151183928Y-100241607D01*
X151183928Y-100127321D01*
X151155357Y-100070178D01*
X151126785Y-100041607D01*
X151069642Y-100013035D01*
X150898214Y-100013035D01*
X150841071Y-100041607D01*
X150812500Y-100070178D01*
X150783928Y-100127321D01*
X150783928Y-100241607D01*
X150812500Y-100298750D01*
X151183928Y-101041607D02*
X150783928Y-101041607D01*
X150841071Y-101041607D02*
X150812500Y-101070178D01*
X150783928Y-101127321D01*
X150783928Y-101213035D01*
X150812500Y-101270178D01*
X150869642Y-101298750D01*
X151183928Y-101298750D01*
X150869642Y-101298750D02*
X150812500Y-101327321D01*
X150783928Y-101384464D01*
X150783928Y-101470178D01*
X150812500Y-101527321D01*
X150869642Y-101555892D01*
X151183928Y-101555892D01*
X151183928Y-101927321D02*
X151155357Y-101870178D01*
X151126785Y-101841607D01*
X151069642Y-101813035D01*
X150898214Y-101813035D01*
X150841071Y-101841607D01*
X150812500Y-101870178D01*
X150783928Y-101927321D01*
X150783928Y-102013035D01*
X150812500Y-102070178D01*
X150841071Y-102098750D01*
X150898214Y-102127321D01*
X151069642Y-102127321D01*
X151126785Y-102098750D01*
X151155357Y-102070178D01*
X151183928Y-102013035D01*
X151183928Y-101927321D01*
X151183928Y-102641607D02*
X150583928Y-102641607D01*
X151155357Y-102641607D02*
X151183928Y-102584464D01*
X151183928Y-102470178D01*
X151155357Y-102413035D01*
X151126785Y-102384464D01*
X151069642Y-102355892D01*
X150898214Y-102355892D01*
X150841071Y-102384464D01*
X150812500Y-102413035D01*
X150783928Y-102470178D01*
X150783928Y-102584464D01*
X150812500Y-102641607D01*
X151155357Y-103155892D02*
X151183928Y-103098750D01*
X151183928Y-102984464D01*
X151155357Y-102927321D01*
X151098214Y-102898750D01*
X150869642Y-102898750D01*
X150812500Y-102927321D01*
X150783928Y-102984464D01*
X150783928Y-103098750D01*
X150812500Y-103155892D01*
X150869642Y-103184464D01*
X150926785Y-103184464D01*
X150983928Y-102898750D01*
X151155357Y-103470178D02*
X151183928Y-103470178D01*
X151241071Y-103441607D01*
X151269642Y-103413035D01*
X150783928Y-104184464D02*
X151383928Y-104184464D01*
X150812500Y-104184464D02*
X150783928Y-104241607D01*
X150783928Y-104355892D01*
X150812500Y-104413035D01*
X150841071Y-104441607D01*
X150898214Y-104470178D01*
X151069642Y-104470178D01*
X151126785Y-104441607D01*
X151155357Y-104413035D01*
X151183928Y-104355892D01*
X151183928Y-104241607D01*
X151155357Y-104184464D01*
X151183928Y-104727321D02*
X150783928Y-104727321D01*
X150898214Y-104727321D02*
X150841071Y-104755892D01*
X150812500Y-104784464D01*
X150783928Y-104841607D01*
X150783928Y-104898750D01*
X151155357Y-105327321D02*
X151183928Y-105270178D01*
X151183928Y-105155892D01*
X151155357Y-105098750D01*
X151098214Y-105070178D01*
X150869642Y-105070178D01*
X150812500Y-105098750D01*
X150783928Y-105155892D01*
X150783928Y-105270178D01*
X150812500Y-105327321D01*
X150869642Y-105355892D01*
X150926785Y-105355892D01*
X150983928Y-105070178D01*
X151155357Y-105584464D02*
X151183928Y-105641607D01*
X151183928Y-105755892D01*
X151155357Y-105813035D01*
X151098214Y-105841607D01*
X151069642Y-105841607D01*
X151012500Y-105813035D01*
X150983928Y-105755892D01*
X150983928Y-105670178D01*
X150955357Y-105613035D01*
X150898214Y-105584464D01*
X150869642Y-105584464D01*
X150812500Y-105613035D01*
X150783928Y-105670178D01*
X150783928Y-105755892D01*
X150812500Y-105813035D01*
X151155357Y-106070178D02*
X151183928Y-106127321D01*
X151183928Y-106241607D01*
X151155357Y-106298750D01*
X151098214Y-106327321D01*
X151069642Y-106327321D01*
X151012500Y-106298750D01*
X150983928Y-106241607D01*
X150983928Y-106155892D01*
X150955357Y-106098750D01*
X150898214Y-106070178D01*
X150869642Y-106070178D01*
X150812500Y-106098750D01*
X150783928Y-106155892D01*
X150783928Y-106241607D01*
X150812500Y-106298750D01*
X151183928Y-107041607D02*
X150583928Y-107041607D01*
X150812500Y-107041607D02*
X150783928Y-107098750D01*
X150783928Y-107213035D01*
X150812500Y-107270178D01*
X150841071Y-107298750D01*
X150898214Y-107327321D01*
X151069642Y-107327321D01*
X151126785Y-107298750D01*
X151155357Y-107270178D01*
X151183928Y-107213035D01*
X151183928Y-107098750D01*
X151155357Y-107041607D01*
X150783928Y-107841607D02*
X151183928Y-107841607D01*
X150783928Y-107584464D02*
X151098214Y-107584464D01*
X151155357Y-107613035D01*
X151183928Y-107670178D01*
X151183928Y-107755892D01*
X151155357Y-107813035D01*
X151126785Y-107841607D01*
X150783928Y-108041607D02*
X150783928Y-108270178D01*
X150583928Y-108127321D02*
X151098214Y-108127321D01*
X151155357Y-108155892D01*
X151183928Y-108213035D01*
X151183928Y-108270178D01*
X150783928Y-108384464D02*
X150783928Y-108613035D01*
X150583928Y-108470178D02*
X151098214Y-108470178D01*
X151155357Y-108498750D01*
X151183928Y-108555892D01*
X151183928Y-108613035D01*
X151183928Y-108898750D02*
X151155357Y-108841607D01*
X151126785Y-108813035D01*
X151069642Y-108784464D01*
X150898214Y-108784464D01*
X150841071Y-108813035D01*
X150812500Y-108841607D01*
X150783928Y-108898750D01*
X150783928Y-108984464D01*
X150812500Y-109041607D01*
X150841071Y-109070178D01*
X150898214Y-109098750D01*
X151069642Y-109098750D01*
X151126785Y-109070178D01*
X151155357Y-109041607D01*
X151183928Y-108984464D01*
X151183928Y-108898750D01*
X150783928Y-109355892D02*
X151183928Y-109355892D01*
X150841071Y-109355892D02*
X150812500Y-109384464D01*
X150783928Y-109441607D01*
X150783928Y-109527321D01*
X150812500Y-109584464D01*
X150869642Y-109613035D01*
X151183928Y-109613035D01*
X151758928Y-95013035D02*
X152158928Y-95127321D01*
X151873214Y-95241607D01*
X152158928Y-95355892D01*
X151758928Y-95470178D01*
X152158928Y-95698750D02*
X151558928Y-95698750D01*
X152158928Y-95955892D02*
X151844642Y-95955892D01*
X151787500Y-95927321D01*
X151758928Y-95870178D01*
X151758928Y-95784464D01*
X151787500Y-95727321D01*
X151816071Y-95698750D01*
X152130357Y-96470178D02*
X152158928Y-96413035D01*
X152158928Y-96298750D01*
X152130357Y-96241607D01*
X152073214Y-96213035D01*
X151844642Y-96213035D01*
X151787500Y-96241607D01*
X151758928Y-96298750D01*
X151758928Y-96413035D01*
X151787500Y-96470178D01*
X151844642Y-96498750D01*
X151901785Y-96498750D01*
X151958928Y-96213035D01*
X151758928Y-96755892D02*
X152158928Y-96755892D01*
X151816071Y-96755892D02*
X151787500Y-96784464D01*
X151758928Y-96841607D01*
X151758928Y-96927321D01*
X151787500Y-96984464D01*
X151844642Y-97013035D01*
X152158928Y-97013035D01*
X152158928Y-98041607D02*
X152158928Y-97755892D01*
X151558928Y-97755892D01*
X151844642Y-98241607D02*
X151844642Y-98441607D01*
X152158928Y-98527321D02*
X152158928Y-98241607D01*
X151558928Y-98241607D01*
X151558928Y-98527321D01*
X152158928Y-98784464D02*
X151558928Y-98784464D01*
X151558928Y-98927321D01*
X151587500Y-99013035D01*
X151644642Y-99070178D01*
X151701785Y-99098750D01*
X151816071Y-99127321D01*
X151901785Y-99127321D01*
X152016071Y-99098750D01*
X152073214Y-99070178D01*
X152130357Y-99013035D01*
X152158928Y-98927321D01*
X152158928Y-98784464D01*
X152130357Y-99813035D02*
X152158928Y-99870178D01*
X152158928Y-99984464D01*
X152130357Y-100041607D01*
X152073214Y-100070178D01*
X152044642Y-100070178D01*
X151987500Y-100041607D01*
X151958928Y-99984464D01*
X151958928Y-99898750D01*
X151930357Y-99841607D01*
X151873214Y-99813035D01*
X151844642Y-99813035D01*
X151787500Y-99841607D01*
X151758928Y-99898750D01*
X151758928Y-99984464D01*
X151787500Y-100041607D01*
X151758928Y-100241607D02*
X151758928Y-100470178D01*
X151558928Y-100327321D02*
X152073214Y-100327321D01*
X152130357Y-100355892D01*
X152158928Y-100413035D01*
X152158928Y-100470178D01*
X152158928Y-100755892D02*
X152130357Y-100698750D01*
X152101785Y-100670178D01*
X152044642Y-100641607D01*
X151873214Y-100641607D01*
X151816071Y-100670178D01*
X151787500Y-100698750D01*
X151758928Y-100755892D01*
X151758928Y-100841607D01*
X151787500Y-100898750D01*
X151816071Y-100927321D01*
X151873214Y-100955892D01*
X152044642Y-100955892D01*
X152101785Y-100927321D01*
X152130357Y-100898750D01*
X152158928Y-100841607D01*
X152158928Y-100755892D01*
X151758928Y-101213035D02*
X152358928Y-101213035D01*
X151787500Y-101213035D02*
X151758928Y-101270178D01*
X151758928Y-101384464D01*
X151787500Y-101441607D01*
X151816071Y-101470178D01*
X151873214Y-101498750D01*
X152044642Y-101498750D01*
X152101785Y-101470178D01*
X152130357Y-101441607D01*
X152158928Y-101384464D01*
X152158928Y-101270178D01*
X152130357Y-101213035D01*
X152130357Y-101727321D02*
X152158928Y-101784464D01*
X152158928Y-101898750D01*
X152130357Y-101955892D01*
X152073214Y-101984464D01*
X152044642Y-101984464D01*
X151987500Y-101955892D01*
X151958928Y-101898750D01*
X151958928Y-101813035D01*
X151930357Y-101755892D01*
X151873214Y-101727321D01*
X151844642Y-101727321D01*
X151787500Y-101755892D01*
X151758928Y-101813035D01*
X151758928Y-101898750D01*
X151787500Y-101955892D01*
X152158928Y-102698750D02*
X151558928Y-102698750D01*
X151787500Y-102698750D02*
X151758928Y-102755892D01*
X151758928Y-102870178D01*
X151787500Y-102927321D01*
X151816071Y-102955892D01*
X151873214Y-102984464D01*
X152044642Y-102984464D01*
X152101785Y-102955892D01*
X152130357Y-102927321D01*
X152158928Y-102870178D01*
X152158928Y-102755892D01*
X152130357Y-102698750D01*
X152158928Y-103327321D02*
X152130357Y-103270178D01*
X152073214Y-103241607D01*
X151558928Y-103241607D01*
X152158928Y-103555892D02*
X151758928Y-103555892D01*
X151558928Y-103555892D02*
X151587500Y-103527321D01*
X151616071Y-103555892D01*
X151587500Y-103584464D01*
X151558928Y-103555892D01*
X151616071Y-103555892D01*
X151758928Y-103841607D02*
X152158928Y-103841607D01*
X151816071Y-103841607D02*
X151787500Y-103870178D01*
X151758928Y-103927321D01*
X151758928Y-104013035D01*
X151787500Y-104070178D01*
X151844642Y-104098750D01*
X152158928Y-104098750D01*
X152158928Y-104384464D02*
X151558928Y-104384464D01*
X151930357Y-104441607D02*
X152158928Y-104613035D01*
X151758928Y-104613035D02*
X151987500Y-104384464D01*
X152158928Y-104870178D02*
X151758928Y-104870178D01*
X151558928Y-104870178D02*
X151587500Y-104841607D01*
X151616071Y-104870178D01*
X151587500Y-104898750D01*
X151558928Y-104870178D01*
X151616071Y-104870178D01*
X151758928Y-105155892D02*
X152158928Y-105155892D01*
X151816071Y-105155892D02*
X151787500Y-105184464D01*
X151758928Y-105241607D01*
X151758928Y-105327321D01*
X151787500Y-105384464D01*
X151844642Y-105413035D01*
X152158928Y-105413035D01*
X151758928Y-105955892D02*
X152244642Y-105955892D01*
X152301785Y-105927321D01*
X152330357Y-105898750D01*
X152358928Y-105841607D01*
X152358928Y-105755892D01*
X152330357Y-105698750D01*
X152130357Y-105955892D02*
X152158928Y-105898750D01*
X152158928Y-105784464D01*
X152130357Y-105727321D01*
X152101785Y-105698750D01*
X152044642Y-105670178D01*
X151873214Y-105670178D01*
X151816071Y-105698750D01*
X151787500Y-105727321D01*
X151758928Y-105784464D01*
X151758928Y-105898750D01*
X151787500Y-105955892D01*
X152158928Y-106955892D02*
X151844642Y-106955892D01*
X151787500Y-106927321D01*
X151758928Y-106870178D01*
X151758928Y-106755892D01*
X151787500Y-106698750D01*
X152130357Y-106955892D02*
X152158928Y-106898750D01*
X152158928Y-106755892D01*
X152130357Y-106698750D01*
X152073214Y-106670178D01*
X152016071Y-106670178D01*
X151958928Y-106698750D01*
X151930357Y-106755892D01*
X151930357Y-106898750D01*
X151901785Y-106955892D01*
X151758928Y-107155892D02*
X151758928Y-107384464D01*
X151558928Y-107241607D02*
X152073214Y-107241607D01*
X152130357Y-107270178D01*
X152158928Y-107327321D01*
X152158928Y-107384464D01*
X152130357Y-108013035D02*
X152158928Y-108070178D01*
X152158928Y-108184464D01*
X152130357Y-108241607D01*
X152073214Y-108270178D01*
X152044642Y-108270178D01*
X151987500Y-108241607D01*
X151958928Y-108184464D01*
X151958928Y-108098750D01*
X151930357Y-108041607D01*
X151873214Y-108013035D01*
X151844642Y-108013035D01*
X151787500Y-108041607D01*
X151758928Y-108098750D01*
X151758928Y-108184464D01*
X151787500Y-108241607D01*
X151758928Y-108441607D02*
X151758928Y-108670178D01*
X151558928Y-108527321D02*
X152073214Y-108527321D01*
X152130357Y-108555892D01*
X152158928Y-108613035D01*
X152158928Y-108670178D01*
X152158928Y-109127321D02*
X151844642Y-109127321D01*
X151787500Y-109098750D01*
X151758928Y-109041607D01*
X151758928Y-108927321D01*
X151787500Y-108870178D01*
X152130357Y-109127321D02*
X152158928Y-109070178D01*
X152158928Y-108927321D01*
X152130357Y-108870178D01*
X152073214Y-108841607D01*
X152016071Y-108841607D01*
X151958928Y-108870178D01*
X151930357Y-108927321D01*
X151930357Y-109070178D01*
X151901785Y-109127321D01*
X152158928Y-109413035D02*
X151758928Y-109413035D01*
X151873214Y-109413035D02*
X151816071Y-109441607D01*
X151787500Y-109470178D01*
X151758928Y-109527321D01*
X151758928Y-109584464D01*
X151758928Y-109698750D02*
X151758928Y-109927321D01*
X151558928Y-109784464D02*
X152073214Y-109784464D01*
X152130357Y-109813035D01*
X152158928Y-109870178D01*
X152158928Y-109927321D01*
X151758928Y-110384464D02*
X152158928Y-110384464D01*
X151758928Y-110127321D02*
X152073214Y-110127321D01*
X152130357Y-110155892D01*
X152158928Y-110213035D01*
X152158928Y-110298750D01*
X152130357Y-110355892D01*
X152101785Y-110384464D01*
X151758928Y-110670178D02*
X152358928Y-110670178D01*
X151787500Y-110670178D02*
X151758928Y-110727321D01*
X151758928Y-110841607D01*
X151787500Y-110898750D01*
X151816071Y-110927321D01*
X151873214Y-110955892D01*
X152044642Y-110955892D01*
X152101785Y-110927321D01*
X152130357Y-110898750D01*
X152158928Y-110841607D01*
X152158928Y-110727321D01*
X152130357Y-110670178D01*
X152905357Y-93241607D02*
X152905357Y-93698750D01*
X152533928Y-94355892D02*
X152533928Y-94698750D01*
X153133928Y-94527321D02*
X152533928Y-94527321D01*
X153133928Y-94984464D02*
X153105357Y-94927321D01*
X153076785Y-94898750D01*
X153019642Y-94870178D01*
X152848214Y-94870178D01*
X152791071Y-94898750D01*
X152762500Y-94927321D01*
X152733928Y-94984464D01*
X152733928Y-95070178D01*
X152762500Y-95127321D01*
X152791071Y-95155892D01*
X152848214Y-95184464D01*
X153019642Y-95184464D01*
X153076785Y-95155892D01*
X153105357Y-95127321D01*
X153133928Y-95070178D01*
X153133928Y-94984464D01*
X153133928Y-95898750D02*
X152533928Y-95898750D01*
X153133928Y-96155892D02*
X152819642Y-96155892D01*
X152762500Y-96127321D01*
X152733928Y-96070178D01*
X152733928Y-95984464D01*
X152762500Y-95927321D01*
X152791071Y-95898750D01*
X153133928Y-96698750D02*
X152819642Y-96698750D01*
X152762500Y-96670178D01*
X152733928Y-96613035D01*
X152733928Y-96498750D01*
X152762500Y-96441607D01*
X153105357Y-96698750D02*
X153133928Y-96641607D01*
X153133928Y-96498750D01*
X153105357Y-96441607D01*
X153048214Y-96413035D01*
X152991071Y-96413035D01*
X152933928Y-96441607D01*
X152905357Y-96498750D01*
X152905357Y-96641607D01*
X152876785Y-96698750D01*
X153133928Y-96984464D02*
X152733928Y-96984464D01*
X152848214Y-96984464D02*
X152791071Y-97013035D01*
X152762500Y-97041607D01*
X152733928Y-97098750D01*
X152733928Y-97155892D01*
X153133928Y-97613035D02*
X152533928Y-97613035D01*
X153105357Y-97613035D02*
X153133928Y-97555892D01*
X153133928Y-97441607D01*
X153105357Y-97384464D01*
X153076785Y-97355892D01*
X153019642Y-97327321D01*
X152848214Y-97327321D01*
X152791071Y-97355892D01*
X152762500Y-97384464D01*
X152733928Y-97441607D01*
X152733928Y-97555892D01*
X152762500Y-97613035D01*
X153133928Y-98355892D02*
X152733928Y-98355892D01*
X152848214Y-98355892D02*
X152791071Y-98384464D01*
X152762500Y-98413035D01*
X152733928Y-98470178D01*
X152733928Y-98527321D01*
X153105357Y-98955892D02*
X153133928Y-98898750D01*
X153133928Y-98784464D01*
X153105357Y-98727321D01*
X153048214Y-98698750D01*
X152819642Y-98698750D01*
X152762500Y-98727321D01*
X152733928Y-98784464D01*
X152733928Y-98898750D01*
X152762500Y-98955892D01*
X152819642Y-98984464D01*
X152876785Y-98984464D01*
X152933928Y-98698750D01*
X153105357Y-99213035D02*
X153133928Y-99270178D01*
X153133928Y-99384464D01*
X153105357Y-99441607D01*
X153048214Y-99470178D01*
X153019642Y-99470178D01*
X152962500Y-99441607D01*
X152933928Y-99384464D01*
X152933928Y-99298750D01*
X152905357Y-99241607D01*
X152848214Y-99213035D01*
X152819642Y-99213035D01*
X152762500Y-99241607D01*
X152733928Y-99298750D01*
X152733928Y-99384464D01*
X152762500Y-99441607D01*
X153105357Y-99955892D02*
X153133928Y-99898750D01*
X153133928Y-99784464D01*
X153105357Y-99727321D01*
X153048214Y-99698750D01*
X152819642Y-99698750D01*
X152762500Y-99727321D01*
X152733928Y-99784464D01*
X152733928Y-99898750D01*
X152762500Y-99955892D01*
X152819642Y-99984464D01*
X152876785Y-99984464D01*
X152933928Y-99698750D01*
X152733928Y-100155892D02*
X152733928Y-100384464D01*
X152533928Y-100241607D02*
X153048214Y-100241607D01*
X153105357Y-100270178D01*
X153133928Y-100327321D01*
X153133928Y-100384464D01*
X153133928Y-101041607D02*
X152533928Y-101041607D01*
X153133928Y-101298750D02*
X152819642Y-101298750D01*
X152762500Y-101270178D01*
X152733928Y-101213035D01*
X152733928Y-101127321D01*
X152762500Y-101070178D01*
X152791071Y-101041607D01*
X153133928Y-101670178D02*
X153105357Y-101613035D01*
X153076785Y-101584464D01*
X153019642Y-101555892D01*
X152848214Y-101555892D01*
X152791071Y-101584464D01*
X152762500Y-101613035D01*
X152733928Y-101670178D01*
X152733928Y-101755892D01*
X152762500Y-101813035D01*
X152791071Y-101841607D01*
X152848214Y-101870178D01*
X153019642Y-101870178D01*
X153076785Y-101841607D01*
X153105357Y-101813035D01*
X153133928Y-101755892D01*
X153133928Y-101670178D01*
X153133928Y-102213035D02*
X153105357Y-102155892D01*
X153048214Y-102127321D01*
X152533928Y-102127321D01*
X153133928Y-102698750D02*
X152533928Y-102698750D01*
X153105357Y-102698750D02*
X153133928Y-102641607D01*
X153133928Y-102527321D01*
X153105357Y-102470178D01*
X153076785Y-102441607D01*
X153019642Y-102413035D01*
X152848214Y-102413035D01*
X152791071Y-102441607D01*
X152762500Y-102470178D01*
X152733928Y-102527321D01*
X152733928Y-102641607D01*
X152762500Y-102698750D01*
X153133928Y-103441607D02*
X152533928Y-103441607D01*
X152762500Y-103441607D02*
X152733928Y-103498750D01*
X152733928Y-103613035D01*
X152762500Y-103670178D01*
X152791071Y-103698750D01*
X152848214Y-103727321D01*
X153019642Y-103727321D01*
X153076785Y-103698750D01*
X153105357Y-103670178D01*
X153133928Y-103613035D01*
X153133928Y-103498750D01*
X153105357Y-103441607D01*
X152733928Y-104241607D02*
X153133928Y-104241607D01*
X152733928Y-103984464D02*
X153048214Y-103984464D01*
X153105357Y-104013035D01*
X153133928Y-104070178D01*
X153133928Y-104155892D01*
X153105357Y-104213035D01*
X153076785Y-104241607D01*
X152733928Y-104441607D02*
X152733928Y-104670178D01*
X152533928Y-104527321D02*
X153048214Y-104527321D01*
X153105357Y-104555892D01*
X153133928Y-104613035D01*
X153133928Y-104670178D01*
X152733928Y-104784464D02*
X152733928Y-105013035D01*
X152533928Y-104870178D02*
X153048214Y-104870178D01*
X153105357Y-104898750D01*
X153133928Y-104955892D01*
X153133928Y-105013035D01*
X153133928Y-105298750D02*
X153105357Y-105241607D01*
X153076785Y-105213035D01*
X153019642Y-105184464D01*
X152848214Y-105184464D01*
X152791071Y-105213035D01*
X152762500Y-105241607D01*
X152733928Y-105298750D01*
X152733928Y-105384464D01*
X152762500Y-105441607D01*
X152791071Y-105470178D01*
X152848214Y-105498750D01*
X153019642Y-105498750D01*
X153076785Y-105470178D01*
X153105357Y-105441607D01*
X153133928Y-105384464D01*
X153133928Y-105298750D01*
X152733928Y-105755892D02*
X153133928Y-105755892D01*
X152791071Y-105755892D02*
X152762500Y-105784464D01*
X152733928Y-105841607D01*
X152733928Y-105927321D01*
X152762500Y-105984464D01*
X152819642Y-106013035D01*
X153133928Y-106013035D01*
X152733928Y-106670178D02*
X152733928Y-106898750D01*
X153133928Y-106755892D02*
X152619642Y-106755892D01*
X152562500Y-106784464D01*
X152533928Y-106841607D01*
X152533928Y-106898750D01*
X153133928Y-107184464D02*
X153105357Y-107127321D01*
X153076785Y-107098750D01*
X153019642Y-107070178D01*
X152848214Y-107070178D01*
X152791071Y-107098750D01*
X152762500Y-107127321D01*
X152733928Y-107184464D01*
X152733928Y-107270178D01*
X152762500Y-107327321D01*
X152791071Y-107355892D01*
X152848214Y-107384464D01*
X153019642Y-107384464D01*
X153076785Y-107355892D01*
X153105357Y-107327321D01*
X153133928Y-107270178D01*
X153133928Y-107184464D01*
X153133928Y-107641607D02*
X152733928Y-107641607D01*
X152848214Y-107641607D02*
X152791071Y-107670178D01*
X152762500Y-107698750D01*
X152733928Y-107755892D01*
X152733928Y-107813035D01*
X152733928Y-108727321D02*
X153133928Y-108727321D01*
X152505357Y-108584464D02*
X152933928Y-108441607D01*
X152933928Y-108813035D01*
X153105357Y-109470178D02*
X153133928Y-109527321D01*
X153133928Y-109641607D01*
X153105357Y-109698750D01*
X153048214Y-109727321D01*
X153019642Y-109727321D01*
X152962500Y-109698750D01*
X152933928Y-109641607D01*
X152933928Y-109555892D01*
X152905357Y-109498750D01*
X152848214Y-109470178D01*
X152819642Y-109470178D01*
X152762500Y-109498750D01*
X152733928Y-109555892D01*
X152733928Y-109641607D01*
X152762500Y-109698750D01*
X153105357Y-110213035D02*
X153133928Y-110155892D01*
X153133928Y-110041607D01*
X153105357Y-109984464D01*
X153048214Y-109955892D01*
X152819642Y-109955892D01*
X152762500Y-109984464D01*
X152733928Y-110041607D01*
X152733928Y-110155892D01*
X152762500Y-110213035D01*
X152819642Y-110241607D01*
X152876785Y-110241607D01*
X152933928Y-109955892D01*
X153105357Y-110755892D02*
X153133928Y-110698750D01*
X153133928Y-110584464D01*
X153105357Y-110527321D01*
X153076785Y-110498750D01*
X153019642Y-110470178D01*
X152848214Y-110470178D01*
X152791071Y-110498750D01*
X152762500Y-110527321D01*
X152733928Y-110584464D01*
X152733928Y-110698750D01*
X152762500Y-110755892D01*
X153133928Y-111098750D02*
X153105357Y-111041607D01*
X153076785Y-111013035D01*
X153019642Y-110984464D01*
X152848214Y-110984464D01*
X152791071Y-111013035D01*
X152762500Y-111041607D01*
X152733928Y-111098750D01*
X152733928Y-111184464D01*
X152762500Y-111241607D01*
X152791071Y-111270178D01*
X152848214Y-111298750D01*
X153019642Y-111298750D01*
X153076785Y-111270178D01*
X153105357Y-111241607D01*
X153133928Y-111184464D01*
X153133928Y-111098750D01*
X152733928Y-111555892D02*
X153133928Y-111555892D01*
X152791071Y-111555892D02*
X152762500Y-111584464D01*
X152733928Y-111641607D01*
X152733928Y-111727321D01*
X152762500Y-111784464D01*
X152819642Y-111813035D01*
X153133928Y-111813035D01*
X153133928Y-112355892D02*
X152533928Y-112355892D01*
X153105357Y-112355892D02*
X153133928Y-112298750D01*
X153133928Y-112184464D01*
X153105357Y-112127321D01*
X153076785Y-112098750D01*
X153019642Y-112070178D01*
X152848214Y-112070178D01*
X152791071Y-112098750D01*
X152762500Y-112127321D01*
X152733928Y-112184464D01*
X152733928Y-112298750D01*
X152762500Y-112355892D01*
X153105357Y-112613035D02*
X153133928Y-112670178D01*
X153133928Y-112784464D01*
X153105357Y-112841607D01*
X153048214Y-112870178D01*
X153019642Y-112870178D01*
X152962500Y-112841607D01*
X152933928Y-112784464D01*
X152933928Y-112698750D01*
X152905357Y-112641607D01*
X152848214Y-112613035D01*
X152819642Y-112613035D01*
X152762500Y-112641607D01*
X152733928Y-112698750D01*
X152733928Y-112784464D01*
X152762500Y-112841607D01*
X153076785Y-113127321D02*
X153105357Y-113155892D01*
X153133928Y-113127321D01*
X153105357Y-113098750D01*
X153076785Y-113127321D01*
X153133928Y-113127321D01*
X153880357Y-93241607D02*
X153880357Y-93698750D01*
X153508928Y-94355892D02*
X153508928Y-94698750D01*
X154108928Y-94527321D02*
X153508928Y-94527321D01*
X154108928Y-94984464D02*
X154080357Y-94927321D01*
X154051785Y-94898750D01*
X153994642Y-94870178D01*
X153823214Y-94870178D01*
X153766071Y-94898750D01*
X153737500Y-94927321D01*
X153708928Y-94984464D01*
X153708928Y-95070178D01*
X153737500Y-95127321D01*
X153766071Y-95155892D01*
X153823214Y-95184464D01*
X153994642Y-95184464D01*
X154051785Y-95155892D01*
X154080357Y-95127321D01*
X154108928Y-95070178D01*
X154108928Y-94984464D01*
X153708928Y-95898750D02*
X154308928Y-95898750D01*
X153737500Y-95898750D02*
X153708928Y-95955892D01*
X153708928Y-96070178D01*
X153737500Y-96127321D01*
X153766071Y-96155892D01*
X153823214Y-96184464D01*
X153994642Y-96184464D01*
X154051785Y-96155892D01*
X154080357Y-96127321D01*
X154108928Y-96070178D01*
X154108928Y-95955892D01*
X154080357Y-95898750D01*
X154108928Y-96441607D02*
X153708928Y-96441607D01*
X153823214Y-96441607D02*
X153766071Y-96470178D01*
X153737500Y-96498750D01*
X153708928Y-96555892D01*
X153708928Y-96613035D01*
X154108928Y-96898750D02*
X154080357Y-96841607D01*
X154051785Y-96813035D01*
X153994642Y-96784464D01*
X153823214Y-96784464D01*
X153766071Y-96813035D01*
X153737500Y-96841607D01*
X153708928Y-96898750D01*
X153708928Y-96984464D01*
X153737500Y-97041607D01*
X153766071Y-97070178D01*
X153823214Y-97098750D01*
X153994642Y-97098750D01*
X154051785Y-97070178D01*
X154080357Y-97041607D01*
X154108928Y-96984464D01*
X154108928Y-96898750D01*
X153708928Y-97613035D02*
X154194642Y-97613035D01*
X154251785Y-97584464D01*
X154280357Y-97555892D01*
X154308928Y-97498750D01*
X154308928Y-97413035D01*
X154280357Y-97355892D01*
X154080357Y-97613035D02*
X154108928Y-97555892D01*
X154108928Y-97441607D01*
X154080357Y-97384464D01*
X154051785Y-97355892D01*
X153994642Y-97327321D01*
X153823214Y-97327321D01*
X153766071Y-97355892D01*
X153737500Y-97384464D01*
X153708928Y-97441607D01*
X153708928Y-97555892D01*
X153737500Y-97613035D01*
X154108928Y-97898750D02*
X153708928Y-97898750D01*
X153823214Y-97898750D02*
X153766071Y-97927321D01*
X153737500Y-97955892D01*
X153708928Y-98013035D01*
X153708928Y-98070178D01*
X154108928Y-98527321D02*
X153794642Y-98527321D01*
X153737500Y-98498750D01*
X153708928Y-98441607D01*
X153708928Y-98327321D01*
X153737500Y-98270178D01*
X154080357Y-98527321D02*
X154108928Y-98470178D01*
X154108928Y-98327321D01*
X154080357Y-98270178D01*
X154023214Y-98241607D01*
X153966071Y-98241607D01*
X153908928Y-98270178D01*
X153880357Y-98327321D01*
X153880357Y-98470178D01*
X153851785Y-98527321D01*
X154108928Y-98813035D02*
X153708928Y-98813035D01*
X153766071Y-98813035D02*
X153737500Y-98841607D01*
X153708928Y-98898750D01*
X153708928Y-98984464D01*
X153737500Y-99041607D01*
X153794642Y-99070178D01*
X154108928Y-99070178D01*
X153794642Y-99070178D02*
X153737500Y-99098750D01*
X153708928Y-99155892D01*
X153708928Y-99241607D01*
X153737500Y-99298750D01*
X153794642Y-99327321D01*
X154108928Y-99327321D01*
X153480357Y-100041607D02*
X154251785Y-99527321D01*
X153708928Y-100155892D02*
X153708928Y-100384464D01*
X154108928Y-100241607D02*
X153594642Y-100241607D01*
X153537500Y-100270178D01*
X153508928Y-100327321D01*
X153508928Y-100384464D01*
X154108928Y-100670178D02*
X154080357Y-100613035D01*
X154023214Y-100584464D01*
X153508928Y-100584464D01*
X154108928Y-101155892D02*
X153794642Y-101155892D01*
X153737500Y-101127321D01*
X153708928Y-101070178D01*
X153708928Y-100955892D01*
X153737500Y-100898750D01*
X154080357Y-101155892D02*
X154108928Y-101098750D01*
X154108928Y-100955892D01*
X154080357Y-100898750D01*
X154023214Y-100870178D01*
X153966071Y-100870178D01*
X153908928Y-100898750D01*
X153880357Y-100955892D01*
X153880357Y-101098750D01*
X153851785Y-101155892D01*
X154080357Y-101413035D02*
X154108928Y-101470178D01*
X154108928Y-101584464D01*
X154080357Y-101641607D01*
X154023214Y-101670178D01*
X153994642Y-101670178D01*
X153937500Y-101641607D01*
X153908928Y-101584464D01*
X153908928Y-101498750D01*
X153880357Y-101441607D01*
X153823214Y-101413035D01*
X153794642Y-101413035D01*
X153737500Y-101441607D01*
X153708928Y-101498750D01*
X153708928Y-101584464D01*
X153737500Y-101641607D01*
X154108928Y-101927321D02*
X153508928Y-101927321D01*
X154108928Y-102184464D02*
X153794642Y-102184464D01*
X153737500Y-102155892D01*
X153708928Y-102098750D01*
X153708928Y-102013035D01*
X153737500Y-101955892D01*
X153766071Y-101927321D01*
X154080357Y-102498750D02*
X154108928Y-102498750D01*
X154166071Y-102470178D01*
X154194642Y-102441607D01*
X153708928Y-103213035D02*
X154308928Y-103213035D01*
X153737500Y-103213035D02*
X153708928Y-103270178D01*
X153708928Y-103384464D01*
X153737500Y-103441607D01*
X153766071Y-103470178D01*
X153823214Y-103498750D01*
X153994642Y-103498750D01*
X154051785Y-103470178D01*
X154080357Y-103441607D01*
X154108928Y-103384464D01*
X154108928Y-103270178D01*
X154080357Y-103213035D01*
X154108928Y-103755892D02*
X153708928Y-103755892D01*
X153823214Y-103755892D02*
X153766071Y-103784464D01*
X153737500Y-103813035D01*
X153708928Y-103870178D01*
X153708928Y-103927321D01*
X154080357Y-104355892D02*
X154108928Y-104298750D01*
X154108928Y-104184464D01*
X154080357Y-104127321D01*
X154023214Y-104098750D01*
X153794642Y-104098750D01*
X153737500Y-104127321D01*
X153708928Y-104184464D01*
X153708928Y-104298750D01*
X153737500Y-104355892D01*
X153794642Y-104384464D01*
X153851785Y-104384464D01*
X153908928Y-104098750D01*
X154080357Y-104613035D02*
X154108928Y-104670178D01*
X154108928Y-104784464D01*
X154080357Y-104841607D01*
X154023214Y-104870178D01*
X153994642Y-104870178D01*
X153937500Y-104841607D01*
X153908928Y-104784464D01*
X153908928Y-104698750D01*
X153880357Y-104641607D01*
X153823214Y-104613035D01*
X153794642Y-104613035D01*
X153737500Y-104641607D01*
X153708928Y-104698750D01*
X153708928Y-104784464D01*
X153737500Y-104841607D01*
X154080357Y-105098750D02*
X154108928Y-105155892D01*
X154108928Y-105270178D01*
X154080357Y-105327321D01*
X154023214Y-105355892D01*
X153994642Y-105355892D01*
X153937500Y-105327321D01*
X153908928Y-105270178D01*
X153908928Y-105184464D01*
X153880357Y-105127321D01*
X153823214Y-105098750D01*
X153794642Y-105098750D01*
X153737500Y-105127321D01*
X153708928Y-105184464D01*
X153708928Y-105270178D01*
X153737500Y-105327321D01*
X154108928Y-106327321D02*
X153794642Y-106327321D01*
X153737500Y-106298750D01*
X153708928Y-106241607D01*
X153708928Y-106127321D01*
X153737500Y-106070178D01*
X154080357Y-106327321D02*
X154108928Y-106270178D01*
X154108928Y-106127321D01*
X154080357Y-106070178D01*
X154023214Y-106041607D01*
X153966071Y-106041607D01*
X153908928Y-106070178D01*
X153880357Y-106127321D01*
X153880357Y-106270178D01*
X153851785Y-106327321D01*
X153708928Y-106613035D02*
X154108928Y-106613035D01*
X153766071Y-106613035D02*
X153737500Y-106641607D01*
X153708928Y-106698750D01*
X153708928Y-106784464D01*
X153737500Y-106841607D01*
X153794642Y-106870178D01*
X154108928Y-106870178D01*
X154108928Y-107413035D02*
X153508928Y-107413035D01*
X154080357Y-107413035D02*
X154108928Y-107355892D01*
X154108928Y-107241607D01*
X154080357Y-107184464D01*
X154051785Y-107155892D01*
X153994642Y-107127321D01*
X153823214Y-107127321D01*
X153766071Y-107155892D01*
X153737500Y-107184464D01*
X153708928Y-107241607D01*
X153708928Y-107355892D01*
X153737500Y-107413035D01*
X154108928Y-108155892D02*
X153508928Y-108155892D01*
X154108928Y-108413035D02*
X153794642Y-108413035D01*
X153737500Y-108384464D01*
X153708928Y-108327321D01*
X153708928Y-108241607D01*
X153737500Y-108184464D01*
X153766071Y-108155892D01*
X154108928Y-108784464D02*
X154080357Y-108727321D01*
X154051785Y-108698750D01*
X153994642Y-108670178D01*
X153823214Y-108670178D01*
X153766071Y-108698750D01*
X153737500Y-108727321D01*
X153708928Y-108784464D01*
X153708928Y-108870178D01*
X153737500Y-108927321D01*
X153766071Y-108955892D01*
X153823214Y-108984464D01*
X153994642Y-108984464D01*
X154051785Y-108955892D01*
X154080357Y-108927321D01*
X154108928Y-108870178D01*
X154108928Y-108784464D01*
X154108928Y-109327321D02*
X154080357Y-109270178D01*
X154023214Y-109241607D01*
X153508928Y-109241607D01*
X154108928Y-109813035D02*
X153508928Y-109813035D01*
X154080357Y-109813035D02*
X154108928Y-109755892D01*
X154108928Y-109641607D01*
X154080357Y-109584464D01*
X154051785Y-109555892D01*
X153994642Y-109527321D01*
X153823214Y-109527321D01*
X153766071Y-109555892D01*
X153737500Y-109584464D01*
X153708928Y-109641607D01*
X153708928Y-109755892D01*
X153737500Y-109813035D01*
X153708928Y-110470178D02*
X153708928Y-110698750D01*
X153508928Y-110555892D02*
X154023214Y-110555892D01*
X154080357Y-110584464D01*
X154108928Y-110641607D01*
X154108928Y-110698750D01*
X154108928Y-110898750D02*
X153508928Y-110898750D01*
X154108928Y-111155892D02*
X153794642Y-111155892D01*
X153737500Y-111127321D01*
X153708928Y-111070178D01*
X153708928Y-110984464D01*
X153737500Y-110927321D01*
X153766071Y-110898750D01*
X154080357Y-111670178D02*
X154108928Y-111613035D01*
X154108928Y-111498750D01*
X154080357Y-111441607D01*
X154023214Y-111413035D01*
X153794642Y-111413035D01*
X153737500Y-111441607D01*
X153708928Y-111498750D01*
X153708928Y-111613035D01*
X153737500Y-111670178D01*
X153794642Y-111698750D01*
X153851785Y-111698750D01*
X153908928Y-111413035D01*
X155083928Y-94613035D02*
X154483928Y-94613035D01*
X154712500Y-94613035D02*
X154683928Y-94670178D01*
X154683928Y-94784464D01*
X154712500Y-94841607D01*
X154741071Y-94870178D01*
X154798214Y-94898750D01*
X154969642Y-94898750D01*
X155026785Y-94870178D01*
X155055357Y-94841607D01*
X155083928Y-94784464D01*
X155083928Y-94670178D01*
X155055357Y-94613035D01*
X154683928Y-95413035D02*
X155083928Y-95413035D01*
X154683928Y-95155892D02*
X154998214Y-95155892D01*
X155055357Y-95184464D01*
X155083928Y-95241607D01*
X155083928Y-95327321D01*
X155055357Y-95384464D01*
X155026785Y-95413035D01*
X154683928Y-95613035D02*
X154683928Y-95841607D01*
X154483928Y-95698750D02*
X154998214Y-95698750D01*
X155055357Y-95727321D01*
X155083928Y-95784464D01*
X155083928Y-95841607D01*
X154683928Y-95955892D02*
X154683928Y-96184464D01*
X154483928Y-96041607D02*
X154998214Y-96041607D01*
X155055357Y-96070178D01*
X155083928Y-96127321D01*
X155083928Y-96184464D01*
X155083928Y-96470178D02*
X155055357Y-96413035D01*
X155026785Y-96384464D01*
X154969642Y-96355892D01*
X154798214Y-96355892D01*
X154741071Y-96384464D01*
X154712500Y-96413035D01*
X154683928Y-96470178D01*
X154683928Y-96555892D01*
X154712500Y-96613035D01*
X154741071Y-96641607D01*
X154798214Y-96670178D01*
X154969642Y-96670178D01*
X155026785Y-96641607D01*
X155055357Y-96613035D01*
X155083928Y-96555892D01*
X155083928Y-96470178D01*
X154683928Y-96927321D02*
X155083928Y-96927321D01*
X154741071Y-96927321D02*
X154712500Y-96955892D01*
X154683928Y-97013035D01*
X154683928Y-97098750D01*
X154712500Y-97155892D01*
X154769642Y-97184464D01*
X155083928Y-97184464D01*
X155083928Y-98013035D02*
X155055357Y-97955892D01*
X155026785Y-97927321D01*
X154969642Y-97898750D01*
X154798214Y-97898750D01*
X154741071Y-97927321D01*
X154712500Y-97955892D01*
X154683928Y-98013035D01*
X154683928Y-98098750D01*
X154712500Y-98155892D01*
X154741071Y-98184464D01*
X154798214Y-98213035D01*
X154969642Y-98213035D01*
X155026785Y-98184464D01*
X155055357Y-98155892D01*
X155083928Y-98098750D01*
X155083928Y-98013035D01*
X154683928Y-98470178D02*
X155083928Y-98470178D01*
X154741071Y-98470178D02*
X154712500Y-98498750D01*
X154683928Y-98555892D01*
X154683928Y-98641607D01*
X154712500Y-98698750D01*
X154769642Y-98727321D01*
X155083928Y-98727321D01*
X154683928Y-99470178D02*
X155283928Y-99470178D01*
X154712500Y-99470178D02*
X154683928Y-99527321D01*
X154683928Y-99641607D01*
X154712500Y-99698750D01*
X154741071Y-99727321D01*
X154798214Y-99755892D01*
X154969642Y-99755892D01*
X155026785Y-99727321D01*
X155055357Y-99698750D01*
X155083928Y-99641607D01*
X155083928Y-99527321D01*
X155055357Y-99470178D01*
X155083928Y-100098750D02*
X155055357Y-100041607D01*
X155026785Y-100013035D01*
X154969642Y-99984464D01*
X154798214Y-99984464D01*
X154741071Y-100013035D01*
X154712500Y-100041607D01*
X154683928Y-100098750D01*
X154683928Y-100184464D01*
X154712500Y-100241607D01*
X154741071Y-100270178D01*
X154798214Y-100298750D01*
X154969642Y-100298750D01*
X155026785Y-100270178D01*
X155055357Y-100241607D01*
X155083928Y-100184464D01*
X155083928Y-100098750D01*
X154683928Y-100498750D02*
X155083928Y-100613035D01*
X154798214Y-100727321D01*
X155083928Y-100841607D01*
X154683928Y-100955892D01*
X155055357Y-101413035D02*
X155083928Y-101355892D01*
X155083928Y-101241607D01*
X155055357Y-101184464D01*
X154998214Y-101155892D01*
X154769642Y-101155892D01*
X154712500Y-101184464D01*
X154683928Y-101241607D01*
X154683928Y-101355892D01*
X154712500Y-101413035D01*
X154769642Y-101441607D01*
X154826785Y-101441607D01*
X154883928Y-101155892D01*
X155083928Y-101698750D02*
X154683928Y-101698750D01*
X154798214Y-101698750D02*
X154741071Y-101727321D01*
X154712500Y-101755892D01*
X154683928Y-101813035D01*
X154683928Y-101870178D01*
X154683928Y-102327321D02*
X155083928Y-102327321D01*
X154683928Y-102070178D02*
X154998214Y-102070178D01*
X155055357Y-102098750D01*
X155083928Y-102155892D01*
X155083928Y-102241607D01*
X155055357Y-102298750D01*
X155026785Y-102327321D01*
X154683928Y-102613035D02*
X155283928Y-102613035D01*
X154712500Y-102613035D02*
X154683928Y-102670178D01*
X154683928Y-102784464D01*
X154712500Y-102841607D01*
X154741071Y-102870178D01*
X154798214Y-102898750D01*
X154969642Y-102898750D01*
X155026785Y-102870178D01*
X155055357Y-102841607D01*
X155083928Y-102784464D01*
X155083928Y-102670178D01*
X155055357Y-102613035D01*
X155026785Y-103155892D02*
X155055357Y-103184464D01*
X155083928Y-103155892D01*
X155055357Y-103127321D01*
X155026785Y-103155892D01*
X155083928Y-103155892D01*
X156976785Y-98155892D02*
X157005357Y-98127321D01*
X157033928Y-98041607D01*
X157033928Y-97984464D01*
X157005357Y-97898749D01*
X156948214Y-97841607D01*
X156891071Y-97813035D01*
X156776785Y-97784464D01*
X156691071Y-97784464D01*
X156576785Y-97813035D01*
X156519642Y-97841607D01*
X156462500Y-97898749D01*
X156433928Y-97984464D01*
X156433928Y-98041607D01*
X156462500Y-98127321D01*
X156491071Y-98155892D01*
X157033928Y-98498749D02*
X157005357Y-98441607D01*
X156976785Y-98413035D01*
X156919642Y-98384464D01*
X156748214Y-98384464D01*
X156691071Y-98413035D01*
X156662500Y-98441607D01*
X156633928Y-98498749D01*
X156633928Y-98584464D01*
X156662500Y-98641607D01*
X156691071Y-98670178D01*
X156748214Y-98698749D01*
X156919642Y-98698749D01*
X156976785Y-98670178D01*
X157005357Y-98641607D01*
X157033928Y-98584464D01*
X157033928Y-98498749D01*
X156633928Y-98955892D02*
X157033928Y-98955892D01*
X156691071Y-98955892D02*
X156662500Y-98984464D01*
X156633928Y-99041607D01*
X156633928Y-99127321D01*
X156662500Y-99184464D01*
X156719642Y-99213035D01*
X157033928Y-99213035D01*
X156633928Y-99413035D02*
X156633928Y-99641607D01*
X156433928Y-99498749D02*
X156948214Y-99498749D01*
X157005357Y-99527321D01*
X157033928Y-99584464D01*
X157033928Y-99641607D01*
X157033928Y-100098749D02*
X156719642Y-100098749D01*
X156662500Y-100070178D01*
X156633928Y-100013035D01*
X156633928Y-99898749D01*
X156662500Y-99841607D01*
X157005357Y-100098749D02*
X157033928Y-100041607D01*
X157033928Y-99898749D01*
X157005357Y-99841607D01*
X156948214Y-99813035D01*
X156891071Y-99813035D01*
X156833928Y-99841607D01*
X156805357Y-99898749D01*
X156805357Y-100041607D01*
X156776785Y-100098749D01*
X157005357Y-100641607D02*
X157033928Y-100584464D01*
X157033928Y-100470178D01*
X157005357Y-100413035D01*
X156976785Y-100384464D01*
X156919642Y-100355892D01*
X156748214Y-100355892D01*
X156691071Y-100384464D01*
X156662500Y-100413035D01*
X156633928Y-100470178D01*
X156633928Y-100584464D01*
X156662500Y-100641607D01*
X156633928Y-100813035D02*
X156633928Y-101041607D01*
X156433928Y-100898749D02*
X156948214Y-100898749D01*
X157005357Y-100927321D01*
X157033928Y-100984464D01*
X157033928Y-101041607D01*
X156976785Y-101241607D02*
X157005357Y-101270178D01*
X157033928Y-101241607D01*
X157005357Y-101213035D01*
X156976785Y-101241607D01*
X157033928Y-101241607D01*
X156662500Y-101241607D02*
X156691071Y-101270178D01*
X156719642Y-101241607D01*
X156691071Y-101213035D01*
X156662500Y-101241607D01*
X156719642Y-101241607D01*
X157033928Y-101984464D02*
X156633928Y-101984464D01*
X156433928Y-101984464D02*
X156462500Y-101955892D01*
X156491071Y-101984464D01*
X156462500Y-102013035D01*
X156433928Y-101984464D01*
X156491071Y-101984464D01*
X156633928Y-102270178D02*
X157033928Y-102270178D01*
X156691071Y-102270178D02*
X156662500Y-102298749D01*
X156633928Y-102355892D01*
X156633928Y-102441607D01*
X156662500Y-102498749D01*
X156719642Y-102527321D01*
X157033928Y-102527321D01*
X156633928Y-102727321D02*
X156633928Y-102955892D01*
X157033928Y-102813035D02*
X156519642Y-102813035D01*
X156462500Y-102841607D01*
X156433928Y-102898749D01*
X156433928Y-102955892D01*
X157033928Y-103241607D02*
X157005357Y-103184464D01*
X156976785Y-103155892D01*
X156919642Y-103127321D01*
X156748214Y-103127321D01*
X156691071Y-103155892D01*
X156662500Y-103184464D01*
X156633928Y-103241607D01*
X156633928Y-103327321D01*
X156662500Y-103384464D01*
X156691071Y-103413035D01*
X156748214Y-103441607D01*
X156919642Y-103441607D01*
X156976785Y-103413035D01*
X157005357Y-103384464D01*
X157033928Y-103327321D01*
X157033928Y-103241607D01*
X156748214Y-104070178D02*
X156719642Y-104041607D01*
X156691071Y-103984464D01*
X156691071Y-103927321D01*
X156719642Y-103870178D01*
X156748214Y-103841607D01*
X156805357Y-103813035D01*
X156862500Y-103813035D01*
X156919642Y-103841607D01*
X156948214Y-103870178D01*
X156976785Y-103927321D01*
X156976785Y-103984464D01*
X156948214Y-104041607D01*
X156919642Y-104070178D01*
X156691071Y-104070178D02*
X156919642Y-104070178D01*
X156948214Y-104098749D01*
X156948214Y-104127321D01*
X156919642Y-104184464D01*
X156862500Y-104213035D01*
X156719642Y-104213035D01*
X156633928Y-104155892D01*
X156576785Y-104070178D01*
X156548214Y-103955892D01*
X156576785Y-103841607D01*
X156633928Y-103755892D01*
X156719642Y-103698749D01*
X156833928Y-103670178D01*
X156948214Y-103698749D01*
X157033928Y-103755892D01*
X157091071Y-103841607D01*
X157119642Y-103955892D01*
X157091071Y-104070178D01*
X157033928Y-104155892D01*
X157005357Y-104441607D02*
X157033928Y-104498749D01*
X157033928Y-104613035D01*
X157005357Y-104670178D01*
X156948214Y-104698749D01*
X156919642Y-104698749D01*
X156862500Y-104670178D01*
X156833928Y-104613035D01*
X156833928Y-104527321D01*
X156805357Y-104470178D01*
X156748214Y-104441607D01*
X156719642Y-104441607D01*
X156662500Y-104470178D01*
X156633928Y-104527321D01*
X156633928Y-104613035D01*
X156662500Y-104670178D01*
X157033928Y-105213035D02*
X156719642Y-105213035D01*
X156662500Y-105184464D01*
X156633928Y-105127321D01*
X156633928Y-105013035D01*
X156662500Y-104955892D01*
X157005357Y-105213035D02*
X157033928Y-105155892D01*
X157033928Y-105013035D01*
X157005357Y-104955892D01*
X156948214Y-104927321D01*
X156891071Y-104927321D01*
X156833928Y-104955892D01*
X156805357Y-105013035D01*
X156805357Y-105155892D01*
X156776785Y-105213035D01*
X156633928Y-105413035D02*
X156633928Y-105641607D01*
X157033928Y-105498749D02*
X156519642Y-105498749D01*
X156462500Y-105527321D01*
X156433928Y-105584464D01*
X156433928Y-105641607D01*
X157005357Y-106070178D02*
X157033928Y-106013035D01*
X157033928Y-105898749D01*
X157005357Y-105841607D01*
X156948214Y-105813035D01*
X156719642Y-105813035D01*
X156662500Y-105841607D01*
X156633928Y-105898749D01*
X156633928Y-106013035D01*
X156662500Y-106070178D01*
X156719642Y-106098749D01*
X156776785Y-106098749D01*
X156833928Y-105813035D01*
X157005357Y-106613035D02*
X157033928Y-106555892D01*
X157033928Y-106441607D01*
X157005357Y-106384464D01*
X156976785Y-106355892D01*
X156919642Y-106327321D01*
X156748214Y-106327321D01*
X156691071Y-106355892D01*
X156662500Y-106384464D01*
X156633928Y-106441607D01*
X156633928Y-106555892D01*
X156662500Y-106613035D01*
X157033928Y-107127321D02*
X156719642Y-107127321D01*
X156662500Y-107098749D01*
X156633928Y-107041607D01*
X156633928Y-106927321D01*
X156662500Y-106870178D01*
X157005357Y-107127321D02*
X157033928Y-107070178D01*
X157033928Y-106927321D01*
X157005357Y-106870178D01*
X156948214Y-106841607D01*
X156891071Y-106841607D01*
X156833928Y-106870178D01*
X156805357Y-106927321D01*
X156805357Y-107070178D01*
X156776785Y-107127321D01*
X157005357Y-107384464D02*
X157033928Y-107441607D01*
X157033928Y-107555892D01*
X157005357Y-107613035D01*
X156948214Y-107641607D01*
X156919642Y-107641607D01*
X156862500Y-107613035D01*
X156833928Y-107555892D01*
X156833928Y-107470178D01*
X156805357Y-107413035D01*
X156748214Y-107384464D01*
X156719642Y-107384464D01*
X156662500Y-107413035D01*
X156633928Y-107470178D01*
X156633928Y-107555892D01*
X156662500Y-107613035D01*
X156633928Y-107813035D02*
X156633928Y-108041607D01*
X156433928Y-107898749D02*
X156948214Y-107898749D01*
X157005357Y-107927321D01*
X157033928Y-107984464D01*
X157033928Y-108041607D01*
X156976785Y-108241607D02*
X157005357Y-108270178D01*
X157033928Y-108241607D01*
X157005357Y-108213035D01*
X156976785Y-108241607D01*
X157033928Y-108241607D01*
X157033928Y-108613035D02*
X157005357Y-108555892D01*
X156976785Y-108527321D01*
X156919642Y-108498749D01*
X156748214Y-108498749D01*
X156691071Y-108527321D01*
X156662500Y-108555892D01*
X156633928Y-108613035D01*
X156633928Y-108698749D01*
X156662500Y-108755892D01*
X156691071Y-108784464D01*
X156748214Y-108813035D01*
X156919642Y-108813035D01*
X156976785Y-108784464D01*
X157005357Y-108755892D01*
X157033928Y-108698749D01*
X157033928Y-108613035D01*
X157033928Y-109070178D02*
X156633928Y-109070178D01*
X156748214Y-109070178D02*
X156691071Y-109098749D01*
X156662500Y-109127321D01*
X156633928Y-109184464D01*
X156633928Y-109241607D01*
X156633928Y-109698749D02*
X157119642Y-109698749D01*
X157176785Y-109670178D01*
X157205357Y-109641607D01*
X157233928Y-109584464D01*
X157233928Y-109498749D01*
X157205357Y-109441607D01*
X157005357Y-109698749D02*
X157033928Y-109641607D01*
X157033928Y-109527321D01*
X157005357Y-109470178D01*
X156976785Y-109441607D01*
X156919642Y-109413035D01*
X156748214Y-109413035D01*
X156691071Y-109441607D01*
X156662500Y-109470178D01*
X156633928Y-109527321D01*
X156633928Y-109641607D01*
X156662500Y-109698749D01*
X157980357Y-97784464D02*
X158008928Y-97870178D01*
X158008928Y-98013035D01*
X157980357Y-98070178D01*
X157951785Y-98098750D01*
X157894642Y-98127321D01*
X157837500Y-98127321D01*
X157780357Y-98098750D01*
X157751785Y-98070178D01*
X157723214Y-98013035D01*
X157694642Y-97898750D01*
X157666071Y-97841607D01*
X157637500Y-97813035D01*
X157580357Y-97784464D01*
X157523214Y-97784464D01*
X157466071Y-97813035D01*
X157437500Y-97841607D01*
X157408928Y-97898750D01*
X157408928Y-98041607D01*
X157437500Y-98127321D01*
X158008928Y-98641607D02*
X157694642Y-98641607D01*
X157637500Y-98613035D01*
X157608928Y-98555892D01*
X157608928Y-98441607D01*
X157637500Y-98384464D01*
X157980357Y-98641607D02*
X158008928Y-98584464D01*
X158008928Y-98441607D01*
X157980357Y-98384464D01*
X157923214Y-98355892D01*
X157866071Y-98355892D01*
X157808928Y-98384464D01*
X157780357Y-98441607D01*
X157780357Y-98584464D01*
X157751785Y-98641607D01*
X157608928Y-98841607D02*
X157608928Y-99070178D01*
X158008928Y-98927321D02*
X157494642Y-98927321D01*
X157437500Y-98955892D01*
X157408928Y-99013035D01*
X157408928Y-99070178D01*
X157980357Y-99498750D02*
X158008928Y-99441607D01*
X158008928Y-99327321D01*
X157980357Y-99270178D01*
X157923214Y-99241607D01*
X157694642Y-99241607D01*
X157637500Y-99270178D01*
X157608928Y-99327321D01*
X157608928Y-99441607D01*
X157637500Y-99498750D01*
X157694642Y-99527321D01*
X157751785Y-99527321D01*
X157808928Y-99241607D01*
X157980357Y-100041607D02*
X158008928Y-99984464D01*
X158008928Y-99870178D01*
X157980357Y-99813035D01*
X157951785Y-99784464D01*
X157894642Y-99755892D01*
X157723214Y-99755892D01*
X157666071Y-99784464D01*
X157637500Y-99813035D01*
X157608928Y-99870178D01*
X157608928Y-99984464D01*
X157637500Y-100041607D01*
X158008928Y-100555892D02*
X157694642Y-100555892D01*
X157637500Y-100527321D01*
X157608928Y-100470178D01*
X157608928Y-100355892D01*
X157637500Y-100298750D01*
X157980357Y-100555892D02*
X158008928Y-100498750D01*
X158008928Y-100355892D01*
X157980357Y-100298750D01*
X157923214Y-100270178D01*
X157866071Y-100270178D01*
X157808928Y-100298750D01*
X157780357Y-100355892D01*
X157780357Y-100498750D01*
X157751785Y-100555892D01*
X157980357Y-100813035D02*
X158008928Y-100870178D01*
X158008928Y-100984464D01*
X157980357Y-101041607D01*
X157923214Y-101070178D01*
X157894642Y-101070178D01*
X157837500Y-101041607D01*
X157808928Y-100984464D01*
X157808928Y-100898750D01*
X157780357Y-100841607D01*
X157723214Y-100813035D01*
X157694642Y-100813035D01*
X157637500Y-100841607D01*
X157608928Y-100898750D01*
X157608928Y-100984464D01*
X157637500Y-101041607D01*
X157608928Y-101241607D02*
X157608928Y-101470178D01*
X157408928Y-101327321D02*
X157923214Y-101327321D01*
X157980357Y-101355892D01*
X158008928Y-101413035D01*
X158008928Y-101470178D01*
X157466071Y-102098750D02*
X157437500Y-102127321D01*
X157408928Y-102184464D01*
X157408928Y-102327321D01*
X157437500Y-102384464D01*
X157466071Y-102413035D01*
X157523214Y-102441607D01*
X157580357Y-102441607D01*
X157666071Y-102413035D01*
X158008928Y-102070178D01*
X158008928Y-102441607D01*
X157408928Y-102813035D02*
X157408928Y-102870178D01*
X157437500Y-102927321D01*
X157466071Y-102955892D01*
X157523214Y-102984464D01*
X157637500Y-103013035D01*
X157780357Y-103013035D01*
X157894642Y-102984464D01*
X157951785Y-102955892D01*
X157980357Y-102927321D01*
X158008928Y-102870178D01*
X158008928Y-102813035D01*
X157980357Y-102755892D01*
X157951785Y-102727321D01*
X157894642Y-102698750D01*
X157780357Y-102670178D01*
X157637500Y-102670178D01*
X157523214Y-102698750D01*
X157466071Y-102727321D01*
X157437500Y-102755892D01*
X157408928Y-102813035D01*
X158008928Y-103584464D02*
X158008928Y-103241607D01*
X158008928Y-103413035D02*
X157408928Y-103413035D01*
X157494642Y-103355892D01*
X157551785Y-103298750D01*
X157580357Y-103241607D01*
X158008928Y-103870178D02*
X158008928Y-103984464D01*
X157980357Y-104041607D01*
X157951785Y-104070178D01*
X157866071Y-104127321D01*
X157751785Y-104155892D01*
X157523214Y-104155892D01*
X157466071Y-104127321D01*
X157437500Y-104098750D01*
X157408928Y-104041607D01*
X157408928Y-103927321D01*
X157437500Y-103870178D01*
X157466071Y-103841607D01*
X157523214Y-103813035D01*
X157666071Y-103813035D01*
X157723214Y-103841607D01*
X157751785Y-103870178D01*
X157780357Y-103927321D01*
X157780357Y-104041607D01*
X157751785Y-104098750D01*
X157723214Y-104127321D01*
X157666071Y-104155892D01*
D11*
X143250000Y-90250000D02*
X153500000Y-90250000D01*
X135750000Y-96750000D02*
X143250000Y-90250000D01*
X135750000Y-96750000D02*
X135850000Y-122250000D01*
X153500000Y-90250000D02*
X161201100Y-96750000D01*
X161201100Y-96750000D02*
X161250000Y-122250000D01*
X161250000Y-122250000D02*
X135850000Y-122250000D01*
D12*
X147050000Y-105425000D02*
X147050000Y-95825000D01*
X142250000Y-105425000D02*
X142250000Y-95825000D01*
X147050000Y-105425000D02*
X142250000Y-105425000D01*
X143580000Y-109850000D02*
X143580000Y-111850000D01*
X145720000Y-111850000D02*
X145720000Y-109850000D01*
X141400000Y-119130000D02*
X141200000Y-119130000D01*
X144200000Y-123270000D02*
X144000000Y-123480000D01*
X142900000Y-123270000D02*
X143100000Y-123480000D01*
X144200000Y-121980000D02*
X144200000Y-123270000D01*
X144000000Y-123480000D02*
X143100000Y-123480000D01*
X142900000Y-123270000D02*
X142900000Y-121980000D01*
X145650000Y-121980000D02*
X139950000Y-121980000D01*
X144400000Y-119130000D02*
X142700000Y-119130000D01*
X146250000Y-120180000D02*
X146250000Y-120970000D01*
X139350000Y-120970000D02*
X139350000Y-120180000D01*
D13*
X144828571Y-92666666D02*
X144852380Y-92642857D01*
X144876190Y-92571428D01*
X144876190Y-92523809D01*
X144852380Y-92452380D01*
X144804761Y-92404761D01*
X144757142Y-92380952D01*
X144661904Y-92357142D01*
X144590476Y-92357142D01*
X144495238Y-92380952D01*
X144447619Y-92404761D01*
X144400000Y-92452380D01*
X144376190Y-92523809D01*
X144376190Y-92571428D01*
X144400000Y-92642857D01*
X144423809Y-92666666D01*
X144876190Y-93142857D02*
X144876190Y-92857142D01*
X144876190Y-93000000D02*
X144376190Y-93000000D01*
X144447619Y-92952380D01*
X144495238Y-92904761D01*
X144519047Y-92857142D01*
X144876190Y-106766666D02*
X144638095Y-106600000D01*
X144876190Y-106480952D02*
X144376190Y-106480952D01*
X144376190Y-106671428D01*
X144400000Y-106719047D01*
X144423809Y-106742857D01*
X144471428Y-106766666D01*
X144542857Y-106766666D01*
X144590476Y-106742857D01*
X144614285Y-106719047D01*
X144638095Y-106671428D01*
X144638095Y-106480952D01*
X144423809Y-106957142D02*
X144400000Y-106980952D01*
X144376190Y-107028571D01*
X144376190Y-107147619D01*
X144400000Y-107195238D01*
X144423809Y-107219047D01*
X144471428Y-107242857D01*
X144519047Y-107242857D01*
X144590476Y-107219047D01*
X144876190Y-106933333D01*
X144876190Y-107242857D01*
M02*
