%TF.GenerationSoftware,KiCad,Pcbnew,(5.1.0-4-gc924fc765)*%
%TF.CreationDate,2019-03-12T10:18:20+09:00*%
%TF.ProjectId,xbee,78626565-2e6b-4696-9361-645f70636258,rev?*%
%TF.SameCoordinates,Original*%
%TF.FileFunction,Paste,Top*%
%TF.FilePolarity,Positive*%
%FSLAX46Y46*%
G04 Gerber Fmt 4.6, Leading zero omitted, Abs format (unit mm)*
G04 Created by KiCad (PCBNEW (5.1.0-4-gc924fc765)) date 2019-03-12 10:18:20*
%MOMM*%
%LPD*%
G04 APERTURE LIST*
%ADD10R,0.900000X1.200000*%
%ADD11R,1.200000X0.700000*%
%ADD12R,1.750000X0.900000*%
%ADD13R,0.900000X1.750000*%
%ADD14R,6.000000X6.000000*%
%ADD15R,1.700000X1.000000*%
G04 APERTURE END LIST*
D10*
X137250000Y-121600000D03*
X137250000Y-119400000D03*
D11*
X144950000Y-116950000D03*
X142550000Y-116950000D03*
X144950000Y-119050000D03*
X142550000Y-119050000D03*
D12*
X157600434Y-95482662D03*
X157600434Y-96752662D03*
X157600434Y-98022662D03*
X157600434Y-99292662D03*
X157600434Y-100562662D03*
X157600434Y-101832662D03*
X157600434Y-103102662D03*
X157600434Y-104372662D03*
X157600434Y-105642662D03*
X157600434Y-106912662D03*
X157600434Y-108182662D03*
X157600434Y-109452662D03*
X157600434Y-110722662D03*
X157600434Y-111992662D03*
D13*
X154315434Y-113482662D03*
X153045434Y-113482662D03*
X151775434Y-113482662D03*
X150505434Y-113482662D03*
X149235434Y-113482662D03*
X147965434Y-113482662D03*
X146695434Y-113482662D03*
X145425434Y-113482662D03*
X144155434Y-113482662D03*
X142885434Y-113482662D03*
D12*
X139600434Y-111992662D03*
X139600434Y-110722662D03*
X139600434Y-109452662D03*
X139600434Y-108182662D03*
X139600434Y-106912662D03*
X139600434Y-105642662D03*
X139600434Y-104372662D03*
X139600434Y-103102662D03*
X139600434Y-101832662D03*
X139600434Y-100562662D03*
X139600434Y-99292662D03*
X139600434Y-98022662D03*
X139600434Y-96752662D03*
X139600434Y-95482662D03*
D14*
X148300434Y-103182662D03*
D15*
X155650000Y-120900000D03*
X149350000Y-120900000D03*
X155650000Y-117100000D03*
X149350000Y-117100000D03*
M02*
