M48
; DRILL file {KiCad (5.1.0-511-gbeef7c9f2)} date 2019 May 09, Thursday 17:35:05
; FORMAT={-:-/ absolute / inch / decimal}
; #@! TF.CreationDate,2019-05-09T17:35:05+09:00
; #@! TF.GenerationSoftware,Kicad,Pcbnew,(5.1.0-511-gbeef7c9f2)
FMAT,2
INCH
T1C0.0157
T2C0.0197
T3C0.0276
T4C0.0354
%
G90
G05
T1
X5.5554Y-4.1722
X5.7215Y-4.6093
X6.1466Y-3.9092
T2
X5.4685Y-4.5138
X5.6137Y-3.7605
X5.6319Y-4.3602
X5.6364Y-4.6929
X5.7563Y-4.2443
X5.9744Y-4.565
X6.1516Y-4.502
T3
X5.4094Y-3.9114
X5.4094Y-3.9902
X5.4094Y-4.0689
X5.4094Y-4.1476
X5.4094Y-4.2264
X5.4094Y-4.3051
X5.4094Y-4.3839
X5.4094Y-4.4626
X5.4094Y-4.5413
X5.4094Y-4.6201
X6.2756Y-3.9114
X6.2756Y-3.9902
X6.2756Y-4.0689
X6.2756Y-4.1476
X6.2756Y-4.2264
X6.2756Y-4.3051
X6.2756Y-4.3839
X6.2756Y-4.4626
X6.2756Y-4.5413
X6.2756Y-4.6201
T4
X5.563Y-4.7472
X5.6811Y-4.7472
T0
M30
