%TF.GenerationSoftware,KiCad,Pcbnew,(5.1.0-4-gc924fc765)*%
%TF.CreationDate,2019-03-12T10:18:20+09:00*%
%TF.ProjectId,xbee,78626565-2e6b-4696-9361-645f70636258,rev?*%
%TF.SameCoordinates,Original*%
%TF.FileFunction,Legend,Top*%
%TF.FilePolarity,Positive*%
%FSLAX46Y46*%
G04 Gerber Fmt 4.6, Leading zero omitted, Abs format (unit mm)*
G04 Created by KiCad (PCBNEW (5.1.0-4-gc924fc765)) date 2019-03-12 10:18:20*
%MOMM*%
%LPD*%
G04 APERTURE LIST*
%ADD10C,0.100000*%
%ADD11C,0.120000*%
%ADD12C,0.150000*%
G04 APERTURE END LIST*
D10*
X140238095Y-122261904D02*
X140390476Y-122261904D01*
X140466666Y-122300000D01*
X140542857Y-122376190D01*
X140580952Y-122528571D01*
X140580952Y-122795238D01*
X140542857Y-122947619D01*
X140466666Y-123023809D01*
X140390476Y-123061904D01*
X140238095Y-123061904D01*
X140161904Y-123023809D01*
X140085714Y-122947619D01*
X140047619Y-122795238D01*
X140047619Y-122528571D01*
X140085714Y-122376190D01*
X140161904Y-122300000D01*
X140238095Y-122261904D01*
X141190476Y-122642857D02*
X140923809Y-122642857D01*
X140923809Y-123061904D02*
X140923809Y-122261904D01*
X141304761Y-122261904D01*
X141876190Y-122642857D02*
X141609523Y-122642857D01*
X141609523Y-123061904D02*
X141609523Y-122261904D01*
X141990476Y-122261904D01*
X144304761Y-122261904D02*
X144457142Y-122261904D01*
X144533333Y-122300000D01*
X144609523Y-122376190D01*
X144647619Y-122528571D01*
X144647619Y-122795238D01*
X144609523Y-122947619D01*
X144533333Y-123023809D01*
X144457142Y-123061904D01*
X144304761Y-123061904D01*
X144228571Y-123023809D01*
X144152380Y-122947619D01*
X144114285Y-122795238D01*
X144114285Y-122528571D01*
X144152380Y-122376190D01*
X144228571Y-122300000D01*
X144304761Y-122261904D01*
X144990476Y-123061904D02*
X144990476Y-122261904D01*
X145447619Y-123061904D01*
X145447619Y-122261904D01*
X159567857Y-122827857D02*
X159567857Y-122677857D01*
X159803571Y-122613571D02*
X159803571Y-122827857D01*
X159353571Y-122827857D01*
X159353571Y-122613571D01*
X159782142Y-122442142D02*
X159803571Y-122377857D01*
X159803571Y-122270714D01*
X159782142Y-122227857D01*
X159760714Y-122206428D01*
X159717857Y-122185000D01*
X159675000Y-122185000D01*
X159632142Y-122206428D01*
X159610714Y-122227857D01*
X159589285Y-122270714D01*
X159567857Y-122356428D01*
X159546428Y-122399285D01*
X159525000Y-122420714D01*
X159482142Y-122442142D01*
X159439285Y-122442142D01*
X159396428Y-122420714D01*
X159375000Y-122399285D01*
X159353571Y-122356428D01*
X159353571Y-122249285D01*
X159375000Y-122185000D01*
X159803571Y-121992142D02*
X159353571Y-121992142D01*
X159353571Y-121820714D01*
X159375000Y-121777857D01*
X159396428Y-121756428D01*
X159439285Y-121735000D01*
X159503571Y-121735000D01*
X159546428Y-121756428D01*
X159567857Y-121777857D01*
X159589285Y-121820714D01*
X159589285Y-121992142D01*
X159353571Y-121585000D02*
X159353571Y-121306428D01*
X159525000Y-121456428D01*
X159525000Y-121392142D01*
X159546428Y-121349285D01*
X159567857Y-121327857D01*
X159610714Y-121306428D01*
X159717857Y-121306428D01*
X159760714Y-121327857D01*
X159782142Y-121349285D01*
X159803571Y-121392142D01*
X159803571Y-121520714D01*
X159782142Y-121563571D01*
X159760714Y-121585000D01*
X159396428Y-121135000D02*
X159375000Y-121113571D01*
X159353571Y-121070714D01*
X159353571Y-120963571D01*
X159375000Y-120920714D01*
X159396428Y-120899285D01*
X159439285Y-120877857D01*
X159482142Y-120877857D01*
X159546428Y-120899285D01*
X159803571Y-121156428D01*
X159803571Y-120877857D01*
X159632142Y-120685000D02*
X159632142Y-120342142D01*
X159353571Y-120170714D02*
X159803571Y-119870714D01*
X159353571Y-119870714D02*
X159803571Y-120170714D01*
X159353571Y-119420714D02*
X159803571Y-119270714D01*
X159353571Y-119120714D01*
X159353571Y-118885000D02*
X159353571Y-118842142D01*
X159375000Y-118799285D01*
X159396428Y-118777857D01*
X159439285Y-118756428D01*
X159525000Y-118735000D01*
X159632142Y-118735000D01*
X159717857Y-118756428D01*
X159760714Y-118777857D01*
X159782142Y-118799285D01*
X159803571Y-118842142D01*
X159803571Y-118885000D01*
X159782142Y-118927857D01*
X159760714Y-118949285D01*
X159717857Y-118970714D01*
X159632142Y-118992142D01*
X159525000Y-118992142D01*
X159439285Y-118970714D01*
X159396428Y-118949285D01*
X159375000Y-118927857D01*
X159353571Y-118885000D01*
X159760714Y-118542142D02*
X159782142Y-118520714D01*
X159803571Y-118542142D01*
X159782142Y-118563571D01*
X159760714Y-118542142D01*
X159803571Y-118542142D01*
X159803571Y-118306428D02*
X159803571Y-118220714D01*
X159782142Y-118177857D01*
X159760714Y-118156428D01*
X159696428Y-118113571D01*
X159610714Y-118092142D01*
X159439285Y-118092142D01*
X159396428Y-118113571D01*
X159375000Y-118135000D01*
X159353571Y-118177857D01*
X159353571Y-118263571D01*
X159375000Y-118306428D01*
X159396428Y-118327857D01*
X159439285Y-118349285D01*
X159546428Y-118349285D01*
X159589285Y-118327857D01*
X159610714Y-118306428D01*
X159632142Y-118263571D01*
X159632142Y-118177857D01*
X159610714Y-118135000D01*
X159589285Y-118113571D01*
X159546428Y-118092142D01*
X160557142Y-122849285D02*
X160578571Y-122785000D01*
X160578571Y-122677857D01*
X160557142Y-122635000D01*
X160535714Y-122613571D01*
X160492857Y-122592142D01*
X160450000Y-122592142D01*
X160407142Y-122613571D01*
X160385714Y-122635000D01*
X160364285Y-122677857D01*
X160342857Y-122763571D01*
X160321428Y-122806428D01*
X160300000Y-122827857D01*
X160257142Y-122849285D01*
X160214285Y-122849285D01*
X160171428Y-122827857D01*
X160150000Y-122806428D01*
X160128571Y-122763571D01*
X160128571Y-122656428D01*
X160150000Y-122592142D01*
X160450000Y-122420714D02*
X160450000Y-122206428D01*
X160578571Y-122463571D02*
X160128571Y-122313571D01*
X160578571Y-122163571D01*
X160342857Y-121863571D02*
X160342857Y-122013571D01*
X160578571Y-122013571D02*
X160128571Y-122013571D01*
X160128571Y-121799285D01*
X160342857Y-121627857D02*
X160342857Y-121477857D01*
X160578571Y-121413571D02*
X160578571Y-121627857D01*
X160128571Y-121627857D01*
X160128571Y-121413571D01*
X160535714Y-120963571D02*
X160557142Y-120985000D01*
X160578571Y-121049285D01*
X160578571Y-121092142D01*
X160557142Y-121156428D01*
X160514285Y-121199285D01*
X160471428Y-121220714D01*
X160385714Y-121242142D01*
X160321428Y-121242142D01*
X160235714Y-121220714D01*
X160192857Y-121199285D01*
X160150000Y-121156428D01*
X160128571Y-121092142D01*
X160128571Y-121049285D01*
X160150000Y-120985000D01*
X160171428Y-120963571D01*
X160450000Y-120792142D02*
X160450000Y-120577857D01*
X160578571Y-120835000D02*
X160128571Y-120685000D01*
X160578571Y-120535000D01*
X160557142Y-120406428D02*
X160578571Y-120342142D01*
X160578571Y-120235000D01*
X160557142Y-120192142D01*
X160535714Y-120170714D01*
X160492857Y-120149285D01*
X160450000Y-120149285D01*
X160407142Y-120170714D01*
X160385714Y-120192142D01*
X160364285Y-120235000D01*
X160342857Y-120320714D01*
X160321428Y-120363571D01*
X160300000Y-120385000D01*
X160257142Y-120406428D01*
X160214285Y-120406428D01*
X160171428Y-120385000D01*
X160150000Y-120363571D01*
X160128571Y-120320714D01*
X160128571Y-120213571D01*
X160150000Y-120149285D01*
X160128571Y-120020714D02*
X160128571Y-119763571D01*
X160578571Y-119892142D02*
X160128571Y-119892142D01*
X160171428Y-119292142D02*
X160150000Y-119270714D01*
X160128571Y-119227857D01*
X160128571Y-119120714D01*
X160150000Y-119077857D01*
X160171428Y-119056428D01*
X160214285Y-119035000D01*
X160257142Y-119035000D01*
X160321428Y-119056428D01*
X160578571Y-119313571D01*
X160578571Y-119035000D01*
X160128571Y-118756428D02*
X160128571Y-118713571D01*
X160150000Y-118670714D01*
X160171428Y-118649285D01*
X160214285Y-118627857D01*
X160300000Y-118606428D01*
X160407142Y-118606428D01*
X160492857Y-118627857D01*
X160535714Y-118649285D01*
X160557142Y-118670714D01*
X160578571Y-118713571D01*
X160578571Y-118756428D01*
X160557142Y-118799285D01*
X160535714Y-118820714D01*
X160492857Y-118842142D01*
X160407142Y-118863571D01*
X160300000Y-118863571D01*
X160214285Y-118842142D01*
X160171428Y-118820714D01*
X160150000Y-118799285D01*
X160128571Y-118756428D01*
X160578571Y-118177857D02*
X160578571Y-118435000D01*
X160578571Y-118306428D02*
X160128571Y-118306428D01*
X160192857Y-118349285D01*
X160235714Y-118392142D01*
X160257142Y-118435000D01*
X160578571Y-117963571D02*
X160578571Y-117877857D01*
X160557142Y-117835000D01*
X160535714Y-117813571D01*
X160471428Y-117770714D01*
X160385714Y-117749285D01*
X160214285Y-117749285D01*
X160171428Y-117770714D01*
X160150000Y-117792142D01*
X160128571Y-117835000D01*
X160128571Y-117920714D01*
X160150000Y-117963571D01*
X160171428Y-117985000D01*
X160214285Y-118006428D01*
X160321428Y-118006428D01*
X160364285Y-117985000D01*
X160385714Y-117963571D01*
X160407142Y-117920714D01*
X160407142Y-117835000D01*
X160385714Y-117792142D01*
X160364285Y-117770714D01*
X160321428Y-117749285D01*
D11*
X137930000Y-120000000D02*
X137930000Y-121000000D01*
X136570000Y-121000000D02*
X136570000Y-120000000D01*
X146050000Y-116100000D02*
X146050000Y-119100000D01*
X141450000Y-116100000D02*
X146050000Y-116100000D01*
X141450000Y-119900000D02*
X141450000Y-116100000D01*
X145250000Y-119900000D02*
X141450000Y-119900000D01*
X146050000Y-119100000D02*
X145250000Y-119900000D01*
D12*
X157600434Y-93982662D02*
X139600434Y-93982662D01*
X139600434Y-87982662D02*
X139600434Y-113482662D01*
X157600434Y-87982662D02*
X157600434Y-113482662D01*
X157600434Y-113482662D02*
X139600434Y-113482662D01*
X157600434Y-87982662D02*
X139600434Y-87982662D01*
D11*
X154200000Y-116700000D02*
X153750000Y-116250000D01*
X150800000Y-116700000D02*
X151250000Y-116250000D01*
X150800000Y-121300000D02*
X151250000Y-121750000D01*
X154200000Y-121300000D02*
X153750000Y-121750000D01*
X149750000Y-120000000D02*
X149750000Y-118000000D01*
X153750000Y-116250000D02*
X151250000Y-116250000D01*
X155250000Y-120000000D02*
X155250000Y-118000000D01*
X153750000Y-121750000D02*
X151250000Y-121750000D01*
D10*
X140330952Y-117926190D02*
X140330952Y-117426190D01*
X140450000Y-117426190D01*
X140521428Y-117450000D01*
X140569047Y-117497619D01*
X140592857Y-117545238D01*
X140616666Y-117640476D01*
X140616666Y-117711904D01*
X140592857Y-117807142D01*
X140569047Y-117854761D01*
X140521428Y-117902380D01*
X140450000Y-117926190D01*
X140330952Y-117926190D01*
X141092857Y-117926190D02*
X140807142Y-117926190D01*
X140950000Y-117926190D02*
X140950000Y-117426190D01*
X140902380Y-117497619D01*
X140854761Y-117545238D01*
X140807142Y-117569047D01*
D12*
X147291095Y-95352380D02*
X147291095Y-96161904D01*
X147338714Y-96257142D01*
X147386333Y-96304761D01*
X147481571Y-96352380D01*
X147672047Y-96352380D01*
X147767285Y-96304761D01*
X147814904Y-96257142D01*
X147862523Y-96161904D01*
X147862523Y-95352380D01*
X148862523Y-96352380D02*
X148291095Y-96352380D01*
X148576809Y-96352380D02*
X148576809Y-95352380D01*
X148481571Y-95495238D01*
X148386333Y-95590476D01*
X148291095Y-95638095D01*
X155119666Y-111066666D02*
X155119666Y-110590476D01*
X155405380Y-111161904D02*
X154405380Y-110828571D01*
X155405380Y-110495238D01*
X155405380Y-110161904D02*
X154405380Y-110161904D01*
X155024428Y-109685714D02*
X155024428Y-108923809D01*
X154405380Y-108590476D02*
X154405380Y-108019047D01*
X155405380Y-108304761D02*
X154405380Y-108304761D01*
X155405380Y-107685714D02*
X154405380Y-107685714D01*
X155405380Y-107257142D02*
X154881571Y-107257142D01*
X154786333Y-107304761D01*
X154738714Y-107400000D01*
X154738714Y-107542857D01*
X154786333Y-107638095D01*
X154833952Y-107685714D01*
X155405380Y-106780952D02*
X154738714Y-106780952D01*
X154405380Y-106780952D02*
X154453000Y-106828571D01*
X154500619Y-106780952D01*
X154453000Y-106733333D01*
X154405380Y-106780952D01*
X154500619Y-106780952D01*
X154738714Y-106304761D02*
X155405380Y-106304761D01*
X154833952Y-106304761D02*
X154786333Y-106257142D01*
X154738714Y-106161904D01*
X154738714Y-106019047D01*
X154786333Y-105923809D01*
X154881571Y-105876190D01*
X155405380Y-105876190D01*
X155405380Y-105400000D02*
X154405380Y-105400000D01*
X155024428Y-105304761D02*
X155405380Y-105019047D01*
X154738714Y-105019047D02*
X155119666Y-105400000D01*
X155357761Y-104209523D02*
X155405380Y-104304761D01*
X155405380Y-104495238D01*
X155357761Y-104590476D01*
X155262523Y-104638095D01*
X154881571Y-104638095D01*
X154786333Y-104590476D01*
X154738714Y-104495238D01*
X154738714Y-104304761D01*
X154786333Y-104209523D01*
X154881571Y-104161904D01*
X154976809Y-104161904D01*
X155072047Y-104638095D01*
X155405380Y-103733333D02*
X154738714Y-103733333D01*
X154929190Y-103733333D02*
X154833952Y-103685714D01*
X154786333Y-103638095D01*
X154738714Y-103542857D01*
X154738714Y-103447619D01*
X154357761Y-102400000D02*
X155643476Y-103257142D01*
X154881571Y-102066666D02*
X154881571Y-101733333D01*
X155405380Y-101590476D02*
X155405380Y-102066666D01*
X154405380Y-102066666D01*
X154405380Y-101590476D01*
X155357761Y-101209523D02*
X155405380Y-101114285D01*
X155405380Y-100923809D01*
X155357761Y-100828571D01*
X155262523Y-100780952D01*
X155214904Y-100780952D01*
X155119666Y-100828571D01*
X155072047Y-100923809D01*
X155072047Y-101066666D01*
X155024428Y-101161904D01*
X154929190Y-101209523D01*
X154881571Y-101209523D01*
X154786333Y-101161904D01*
X154738714Y-101066666D01*
X154738714Y-100923809D01*
X154786333Y-100828571D01*
X154738714Y-100352380D02*
X155738714Y-100352380D01*
X154786333Y-100352380D02*
X154738714Y-100257142D01*
X154738714Y-100066666D01*
X154786333Y-99971428D01*
X154833952Y-99923809D01*
X154929190Y-99876190D01*
X155214904Y-99876190D01*
X155310142Y-99923809D01*
X155357761Y-99971428D01*
X155405380Y-100066666D01*
X155405380Y-100257142D01*
X155357761Y-100352380D01*
X155405380Y-99447619D02*
X154738714Y-99447619D01*
X154929190Y-99447619D02*
X154833952Y-99400000D01*
X154786333Y-99352380D01*
X154738714Y-99257142D01*
X154738714Y-99161904D01*
X155357761Y-98447619D02*
X155405380Y-98542857D01*
X155405380Y-98733333D01*
X155357761Y-98828571D01*
X155262523Y-98876190D01*
X154881571Y-98876190D01*
X154786333Y-98828571D01*
X154738714Y-98733333D01*
X154738714Y-98542857D01*
X154786333Y-98447619D01*
X154881571Y-98400000D01*
X154976809Y-98400000D01*
X155072047Y-98876190D01*
X155357761Y-98019047D02*
X155405380Y-97923809D01*
X155405380Y-97733333D01*
X155357761Y-97638095D01*
X155262523Y-97590476D01*
X155214904Y-97590476D01*
X155119666Y-97638095D01*
X155072047Y-97733333D01*
X155072047Y-97876190D01*
X155024428Y-97971428D01*
X154929190Y-98019047D01*
X154881571Y-98019047D01*
X154786333Y-97971428D01*
X154738714Y-97876190D01*
X154738714Y-97733333D01*
X154786333Y-97638095D01*
X155357761Y-97209523D02*
X155405380Y-97114285D01*
X155405380Y-96923809D01*
X155357761Y-96828571D01*
X155262523Y-96780952D01*
X155214904Y-96780952D01*
X155119666Y-96828571D01*
X155072047Y-96923809D01*
X155072047Y-97066666D01*
X155024428Y-97161904D01*
X154929190Y-97209523D01*
X154881571Y-97209523D01*
X154786333Y-97161904D01*
X154738714Y-97066666D01*
X154738714Y-96923809D01*
X154786333Y-96828571D01*
X155405380Y-96352380D02*
X154738714Y-96352380D01*
X154405380Y-96352380D02*
X154453000Y-96400000D01*
X154500619Y-96352380D01*
X154453000Y-96304761D01*
X154405380Y-96352380D01*
X154500619Y-96352380D01*
X154738714Y-96019047D02*
X154738714Y-95638095D01*
X155405380Y-95876190D02*
X154548238Y-95876190D01*
X154453000Y-95828571D01*
X154405380Y-95733333D01*
X154405380Y-95638095D01*
X153381571Y-111038095D02*
X153381571Y-110704761D01*
X153905380Y-110561904D02*
X153905380Y-111038095D01*
X152905380Y-111038095D01*
X152905380Y-110561904D01*
X153857761Y-110180952D02*
X153905380Y-110038095D01*
X153905380Y-109800000D01*
X153857761Y-109704761D01*
X153810142Y-109657142D01*
X153714904Y-109609523D01*
X153619666Y-109609523D01*
X153524428Y-109657142D01*
X153476809Y-109704761D01*
X153429190Y-109800000D01*
X153381571Y-109990476D01*
X153333952Y-110085714D01*
X153286333Y-110133333D01*
X153191095Y-110180952D01*
X153095857Y-110180952D01*
X153000619Y-110133333D01*
X152953000Y-110085714D01*
X152905380Y-109990476D01*
X152905380Y-109752380D01*
X152953000Y-109609523D01*
X153905380Y-109180952D02*
X152905380Y-109180952D01*
X152905380Y-108800000D01*
X152953000Y-108704761D01*
X153000619Y-108657142D01*
X153095857Y-108609523D01*
X153238714Y-108609523D01*
X153333952Y-108657142D01*
X153381571Y-108704761D01*
X153429190Y-108800000D01*
X153429190Y-109180952D01*
X153524428Y-108180952D02*
X153524428Y-107419047D01*
X152905380Y-107038095D02*
X152905380Y-106419047D01*
X153286333Y-106752380D01*
X153286333Y-106609523D01*
X153333952Y-106514285D01*
X153381571Y-106466666D01*
X153476809Y-106419047D01*
X153714904Y-106419047D01*
X153810142Y-106466666D01*
X153857761Y-106514285D01*
X153905380Y-106609523D01*
X153905380Y-106895238D01*
X153857761Y-106990476D01*
X153810142Y-107038095D01*
X153000619Y-106038095D02*
X152953000Y-105990476D01*
X152905380Y-105895238D01*
X152905380Y-105657142D01*
X152953000Y-105561904D01*
X153000619Y-105514285D01*
X153095857Y-105466666D01*
X153191095Y-105466666D01*
X153333952Y-105514285D01*
X153905380Y-106085714D01*
X153905380Y-105466666D01*
X153857761Y-105085714D02*
X153905380Y-104942857D01*
X153905380Y-104704761D01*
X153857761Y-104609523D01*
X153810142Y-104561904D01*
X153714904Y-104514285D01*
X153619666Y-104514285D01*
X153524428Y-104561904D01*
X153476809Y-104609523D01*
X153429190Y-104704761D01*
X153381571Y-104895238D01*
X153333952Y-104990476D01*
X153286333Y-105038095D01*
X153191095Y-105085714D01*
X153095857Y-105085714D01*
X153000619Y-105038095D01*
X152953000Y-104990476D01*
X152905380Y-104895238D01*
X152905380Y-104657142D01*
X152953000Y-104514285D01*
D10*
X157902380Y-119666666D02*
X157926190Y-119595238D01*
X157926190Y-119476190D01*
X157902380Y-119428571D01*
X157878571Y-119404761D01*
X157830952Y-119380952D01*
X157783333Y-119380952D01*
X157735714Y-119404761D01*
X157711904Y-119428571D01*
X157688095Y-119476190D01*
X157664285Y-119571428D01*
X157640476Y-119619047D01*
X157616666Y-119642857D01*
X157569047Y-119666666D01*
X157521428Y-119666666D01*
X157473809Y-119642857D01*
X157450000Y-119619047D01*
X157426190Y-119571428D01*
X157426190Y-119452380D01*
X157450000Y-119380952D01*
X157426190Y-119214285D02*
X157926190Y-119095238D01*
X157569047Y-119000000D01*
X157926190Y-118904761D01*
X157426190Y-118785714D01*
X157926190Y-118333333D02*
X157926190Y-118619047D01*
X157926190Y-118476190D02*
X157426190Y-118476190D01*
X157497619Y-118523809D01*
X157545238Y-118571428D01*
X157569047Y-118619047D01*
M02*
