%TF.GenerationSoftware,KiCad,Pcbnew,(5.1.0-1094-g655126d66)*%
%TF.CreationDate,2019-06-26T20:43:34+09:00*%
%TF.ProjectId,xbee,78626565-2e6b-4696-9361-645f70636258,rev?*%
%TF.SameCoordinates,Original*%
%TF.FileFunction,Soldermask,Bot*%
%TF.FilePolarity,Negative*%
%FSLAX46Y46*%
G04 Gerber Fmt 4.6, Leading zero omitted, Abs format (unit mm)*
G04 Created by KiCad (PCBNEW (5.1.0-1094-g655126d66)) date 2019-06-26 20:43:34*
%MOMM*%
%LPD*%
G04 APERTURE LIST*
%ADD10C,0.150000*%
%ADD11C,0.100000*%
G04 APERTURE END LIST*
D10*
X143250000Y-90250000D02*
X153500000Y-90250000D01*
X135750000Y-96750000D02*
X143250000Y-90250000D01*
X135750000Y-96750000D02*
X135850000Y-122250000D01*
X153500000Y-90250000D02*
X161201100Y-96750000D01*
X161201100Y-96750000D02*
X161250000Y-122250000D01*
X161250000Y-122250000D02*
X135850000Y-122250000D01*
D11*
G36*
X147001000Y-122131000D02*
G01*
X145899000Y-122131000D01*
X145899000Y-121229000D01*
X147001000Y-121229000D01*
X147001000Y-122131000D01*
X147001000Y-122131000D01*
G37*
G36*
X139701000Y-122131000D02*
G01*
X138599000Y-122131000D01*
X138599000Y-121229000D01*
X139701000Y-121229000D01*
X139701000Y-122131000D01*
X139701000Y-122131000D01*
G37*
G36*
X141353523Y-120081377D02*
G01*
X141394623Y-120083962D01*
X141415208Y-120090651D01*
X141445448Y-120095197D01*
X141483648Y-120112888D01*
X141515011Y-120123079D01*
X141540285Y-120139118D01*
X141575670Y-120155506D01*
X141601030Y-120177668D01*
X141621888Y-120190905D01*
X141648021Y-120218734D01*
X141683730Y-120249940D01*
X141697322Y-120271234D01*
X141708540Y-120283180D01*
X141730847Y-120323757D01*
X141760943Y-120370907D01*
X141765655Y-120387072D01*
X141769520Y-120394103D01*
X141782951Y-120446413D01*
X141801101Y-120508683D01*
X141800996Y-120516694D01*
X141801000Y-120516709D01*
X141801000Y-120643291D01*
X141799250Y-120650106D01*
X141799063Y-120664410D01*
X141781450Y-120719433D01*
X141769520Y-120765897D01*
X141762474Y-120778713D01*
X141755312Y-120801088D01*
X141727760Y-120841858D01*
X141708540Y-120876820D01*
X141692824Y-120893556D01*
X141674959Y-120919992D01*
X141643572Y-120946004D01*
X141621888Y-120969095D01*
X141595510Y-120985835D01*
X141564463Y-121011565D01*
X141534761Y-121024387D01*
X141515011Y-121036921D01*
X141477478Y-121049116D01*
X141432707Y-121068444D01*
X141408954Y-121071382D01*
X141394623Y-121076038D01*
X141347162Y-121079024D01*
X141290283Y-121086058D01*
X141274974Y-121083565D01*
X141268293Y-121083985D01*
X141214222Y-121073671D01*
X141148640Y-121062990D01*
X141079542Y-121029957D01*
X141029419Y-121006371D01*
X141028345Y-121005483D01*
X141019165Y-121001094D01*
X140972293Y-120959112D01*
X140931884Y-120925683D01*
X140926135Y-120917770D01*
X140912266Y-120905348D01*
X140883691Y-120859351D01*
X140857481Y-120823276D01*
X140850805Y-120806415D01*
X140836536Y-120783446D01*
X140824298Y-120739465D01*
X140810883Y-120705583D01*
X140807568Y-120679341D01*
X140798065Y-120645190D01*
X140798552Y-120607975D01*
X140795018Y-120580000D01*
X140799369Y-120545559D01*
X140799943Y-120501693D01*
X140808390Y-120474150D01*
X140810883Y-120454417D01*
X140826672Y-120414538D01*
X140842021Y-120364491D01*
X140853232Y-120347457D01*
X140857481Y-120336724D01*
X140887365Y-120295592D01*
X140920915Y-120244614D01*
X140930027Y-120236872D01*
X140931884Y-120234317D01*
X140975762Y-120198018D01*
X141030284Y-120151698D01*
X141092992Y-120123713D01*
X141143950Y-120099734D01*
X141148797Y-120098809D01*
X141161335Y-120093214D01*
X141219951Y-120085237D01*
X141268293Y-120076015D01*
X141281570Y-120076850D01*
X141303534Y-120073861D01*
X141353523Y-120081377D01*
X141353523Y-120081377D01*
G37*
G36*
X144353523Y-120081377D02*
G01*
X144394623Y-120083962D01*
X144415208Y-120090651D01*
X144445448Y-120095197D01*
X144483648Y-120112888D01*
X144515011Y-120123079D01*
X144540285Y-120139118D01*
X144575670Y-120155506D01*
X144601030Y-120177668D01*
X144621888Y-120190905D01*
X144648021Y-120218734D01*
X144683730Y-120249940D01*
X144697322Y-120271234D01*
X144708540Y-120283180D01*
X144730847Y-120323757D01*
X144760943Y-120370907D01*
X144765655Y-120387072D01*
X144769520Y-120394103D01*
X144782951Y-120446413D01*
X144801101Y-120508683D01*
X144800996Y-120516694D01*
X144801000Y-120516709D01*
X144801000Y-120643291D01*
X144799250Y-120650106D01*
X144799063Y-120664410D01*
X144781450Y-120719433D01*
X144769520Y-120765897D01*
X144762474Y-120778713D01*
X144755312Y-120801088D01*
X144727760Y-120841858D01*
X144708540Y-120876820D01*
X144692824Y-120893556D01*
X144674959Y-120919992D01*
X144643572Y-120946004D01*
X144621888Y-120969095D01*
X144595510Y-120985835D01*
X144564463Y-121011565D01*
X144534761Y-121024387D01*
X144515011Y-121036921D01*
X144477478Y-121049116D01*
X144432707Y-121068444D01*
X144408954Y-121071382D01*
X144394623Y-121076038D01*
X144347162Y-121079024D01*
X144290283Y-121086058D01*
X144274974Y-121083565D01*
X144268293Y-121083985D01*
X144214222Y-121073671D01*
X144148640Y-121062990D01*
X144079542Y-121029957D01*
X144029419Y-121006371D01*
X144028345Y-121005483D01*
X144019165Y-121001094D01*
X143972293Y-120959112D01*
X143931884Y-120925683D01*
X143926135Y-120917770D01*
X143912266Y-120905348D01*
X143883691Y-120859351D01*
X143857481Y-120823276D01*
X143850805Y-120806415D01*
X143836536Y-120783446D01*
X143824298Y-120739465D01*
X143810883Y-120705583D01*
X143807568Y-120679341D01*
X143798065Y-120645190D01*
X143798552Y-120607975D01*
X143795018Y-120580000D01*
X143799369Y-120545559D01*
X143799943Y-120501693D01*
X143808390Y-120474150D01*
X143810883Y-120454417D01*
X143826672Y-120414538D01*
X143842021Y-120364491D01*
X143853232Y-120347457D01*
X143857481Y-120336724D01*
X143887365Y-120295592D01*
X143920915Y-120244614D01*
X143930027Y-120236872D01*
X143931884Y-120234317D01*
X143975762Y-120198018D01*
X144030284Y-120151698D01*
X144092992Y-120123713D01*
X144143950Y-120099734D01*
X144148797Y-120098809D01*
X144161335Y-120093214D01*
X144219951Y-120085237D01*
X144268293Y-120076015D01*
X144281570Y-120076850D01*
X144303534Y-120073861D01*
X144353523Y-120081377D01*
X144353523Y-120081377D01*
G37*
G36*
X147001000Y-119921000D02*
G01*
X145899000Y-119921000D01*
X145899000Y-119019000D01*
X147001000Y-119019000D01*
X147001000Y-119921000D01*
X147001000Y-119921000D01*
G37*
G36*
X139701000Y-119921000D02*
G01*
X138599000Y-119921000D01*
X138599000Y-119019000D01*
X139701000Y-119019000D01*
X139701000Y-119921000D01*
X139701000Y-119921000D01*
G37*
G36*
X140951000Y-119621000D02*
G01*
X140149000Y-119621000D01*
X140149000Y-118019000D01*
X140951000Y-118019000D01*
X140951000Y-119621000D01*
X140951000Y-119621000D01*
G37*
G36*
X142451000Y-119621000D02*
G01*
X141649000Y-119621000D01*
X141649000Y-118019000D01*
X142451000Y-118019000D01*
X142451000Y-119621000D01*
X142451000Y-119621000D01*
G37*
G36*
X145451000Y-119621000D02*
G01*
X144649000Y-119621000D01*
X144649000Y-118019000D01*
X145451000Y-118019000D01*
X145451000Y-119621000D01*
X145451000Y-119621000D01*
G37*
G36*
X137488225Y-116602749D02*
G01*
X137523382Y-116604714D01*
X137568027Y-116617179D01*
X137619803Y-116626542D01*
X137652320Y-116640715D01*
X137680541Y-116648594D01*
X137726654Y-116673113D01*
X137780339Y-116696511D01*
X137803972Y-116714223D01*
X137824615Y-116725199D01*
X137868854Y-116762849D01*
X137920473Y-116801536D01*
X137935587Y-116819645D01*
X137948877Y-116830955D01*
X137987520Y-116881865D01*
X138032688Y-116935981D01*
X138040571Y-116951757D01*
X138047529Y-116960924D01*
X138076748Y-117024159D01*
X138110963Y-117092635D01*
X138113639Y-117103998D01*
X138115972Y-117109048D01*
X138132095Y-117182381D01*
X138151101Y-117263095D01*
X138150902Y-117285871D01*
X138150374Y-117437040D01*
X138149552Y-117440660D01*
X138149470Y-117450001D01*
X138130118Y-117526200D01*
X138114272Y-117595947D01*
X138110214Y-117604571D01*
X138106363Y-117619734D01*
X138072838Y-117683999D01*
X138044799Y-117743584D01*
X138035359Y-117755842D01*
X138025366Y-117774998D01*
X137981865Y-117825306D01*
X137945239Y-117872865D01*
X137928844Y-117886622D01*
X137910822Y-117907464D01*
X137861751Y-117942921D01*
X137820242Y-117977751D01*
X137796024Y-117990412D01*
X137768877Y-118010027D01*
X137718451Y-118030966D01*
X137675637Y-118053348D01*
X137643559Y-118062063D01*
X137607144Y-118077184D01*
X137559110Y-118085007D01*
X137518177Y-118096128D01*
X137479084Y-118098040D01*
X137434299Y-118105334D01*
X137391674Y-118102316D01*
X137355199Y-118104100D01*
X137310789Y-118096589D01*
X137259615Y-118092965D01*
X137224495Y-118081993D01*
X137194308Y-118076887D01*
X137147091Y-118057810D01*
X137092462Y-118040743D01*
X137065922Y-118025016D01*
X137043020Y-118015763D01*
X136996152Y-117983672D01*
X136941805Y-117951467D01*
X136923877Y-117934184D01*
X136908387Y-117923578D01*
X136865507Y-117877915D01*
X136815727Y-117829927D01*
X136805473Y-117813985D01*
X136796687Y-117804629D01*
X136761657Y-117745866D01*
X136720991Y-117682643D01*
X136716663Y-117670387D01*
X136713135Y-117664469D01*
X136689780Y-117594261D01*
X136662678Y-117517515D01*
X136661925Y-117510525D01*
X136661631Y-117509642D01*
X136653746Y-117434624D01*
X136643917Y-117343402D01*
X136654330Y-117260392D01*
X136662763Y-117185207D01*
X136664344Y-117180563D01*
X136665714Y-117169642D01*
X136692689Y-117097301D01*
X136715347Y-117030744D01*
X136720968Y-117021463D01*
X136726899Y-117005557D01*
X136766435Y-116946388D01*
X136799876Y-116891170D01*
X136811456Y-116879010D01*
X136824192Y-116859949D01*
X136871892Y-116815545D01*
X136912404Y-116773004D01*
X136931242Y-116760298D01*
X136952372Y-116740628D01*
X137003834Y-116711334D01*
X137047678Y-116681761D01*
X137074309Y-116671217D01*
X137104564Y-116653995D01*
X137155690Y-116638996D01*
X137199391Y-116621694D01*
X137233499Y-116616170D01*
X137272603Y-116604698D01*
X137319882Y-116602179D01*
X137360464Y-116595606D01*
X137400856Y-116597864D01*
X137447477Y-116595380D01*
X137488225Y-116602749D01*
X137488225Y-116602749D01*
G37*
G36*
X159488225Y-116602749D02*
G01*
X159523382Y-116604714D01*
X159568027Y-116617179D01*
X159619803Y-116626542D01*
X159652320Y-116640715D01*
X159680541Y-116648594D01*
X159726654Y-116673113D01*
X159780339Y-116696511D01*
X159803972Y-116714223D01*
X159824615Y-116725199D01*
X159868854Y-116762849D01*
X159920473Y-116801536D01*
X159935587Y-116819645D01*
X159948877Y-116830955D01*
X159987520Y-116881865D01*
X160032688Y-116935981D01*
X160040571Y-116951757D01*
X160047529Y-116960924D01*
X160076748Y-117024159D01*
X160110963Y-117092635D01*
X160113639Y-117103998D01*
X160115972Y-117109048D01*
X160132095Y-117182381D01*
X160151101Y-117263095D01*
X160150902Y-117285871D01*
X160150374Y-117437040D01*
X160149552Y-117440660D01*
X160149470Y-117450001D01*
X160130118Y-117526200D01*
X160114272Y-117595947D01*
X160110214Y-117604571D01*
X160106363Y-117619734D01*
X160072838Y-117683999D01*
X160044799Y-117743584D01*
X160035359Y-117755842D01*
X160025366Y-117774998D01*
X159981865Y-117825306D01*
X159945239Y-117872865D01*
X159928844Y-117886622D01*
X159910822Y-117907464D01*
X159861751Y-117942921D01*
X159820242Y-117977751D01*
X159796024Y-117990412D01*
X159768877Y-118010027D01*
X159718451Y-118030966D01*
X159675637Y-118053348D01*
X159643559Y-118062063D01*
X159607144Y-118077184D01*
X159559110Y-118085007D01*
X159518177Y-118096128D01*
X159479084Y-118098040D01*
X159434299Y-118105334D01*
X159391674Y-118102316D01*
X159355199Y-118104100D01*
X159310789Y-118096589D01*
X159259615Y-118092965D01*
X159224495Y-118081993D01*
X159194308Y-118076887D01*
X159147091Y-118057810D01*
X159092462Y-118040743D01*
X159065922Y-118025016D01*
X159043020Y-118015763D01*
X158996152Y-117983672D01*
X158941805Y-117951467D01*
X158923877Y-117934184D01*
X158908387Y-117923578D01*
X158865507Y-117877915D01*
X158815727Y-117829927D01*
X158805473Y-117813985D01*
X158796687Y-117804629D01*
X158761657Y-117745866D01*
X158720991Y-117682643D01*
X158716663Y-117670387D01*
X158713135Y-117664469D01*
X158689780Y-117594261D01*
X158662678Y-117517515D01*
X158661925Y-117510525D01*
X158661631Y-117509642D01*
X158653746Y-117434624D01*
X158643917Y-117343402D01*
X158654330Y-117260392D01*
X158662763Y-117185207D01*
X158664344Y-117180563D01*
X158665714Y-117169642D01*
X158692689Y-117097301D01*
X158715347Y-117030744D01*
X158720968Y-117021463D01*
X158726899Y-117005557D01*
X158766435Y-116946388D01*
X158799876Y-116891170D01*
X158811456Y-116879010D01*
X158824192Y-116859949D01*
X158871892Y-116815545D01*
X158912404Y-116773004D01*
X158931242Y-116760298D01*
X158952372Y-116740628D01*
X159003834Y-116711334D01*
X159047678Y-116681761D01*
X159074309Y-116671217D01*
X159104564Y-116653995D01*
X159155690Y-116638996D01*
X159199391Y-116621694D01*
X159233499Y-116616170D01*
X159272603Y-116604698D01*
X159319882Y-116602179D01*
X159360464Y-116595606D01*
X159400856Y-116597864D01*
X159447477Y-116595380D01*
X159488225Y-116602749D01*
X159488225Y-116602749D01*
G37*
G36*
X137488225Y-114602749D02*
G01*
X137523382Y-114604714D01*
X137568027Y-114617179D01*
X137619803Y-114626542D01*
X137652320Y-114640715D01*
X137680541Y-114648594D01*
X137726654Y-114673113D01*
X137780339Y-114696511D01*
X137803972Y-114714223D01*
X137824615Y-114725199D01*
X137868854Y-114762849D01*
X137920473Y-114801536D01*
X137935587Y-114819645D01*
X137948877Y-114830955D01*
X137987520Y-114881865D01*
X138032688Y-114935981D01*
X138040571Y-114951757D01*
X138047529Y-114960924D01*
X138076748Y-115024159D01*
X138110963Y-115092635D01*
X138113639Y-115103998D01*
X138115972Y-115109048D01*
X138132095Y-115182381D01*
X138151101Y-115263095D01*
X138150902Y-115285871D01*
X138150374Y-115437040D01*
X138149552Y-115440660D01*
X138149470Y-115450001D01*
X138130118Y-115526200D01*
X138114272Y-115595947D01*
X138110214Y-115604571D01*
X138106363Y-115619734D01*
X138072838Y-115683999D01*
X138044799Y-115743584D01*
X138035359Y-115755842D01*
X138025366Y-115774998D01*
X137981865Y-115825306D01*
X137945239Y-115872865D01*
X137928844Y-115886622D01*
X137910822Y-115907464D01*
X137861751Y-115942921D01*
X137820242Y-115977751D01*
X137796024Y-115990412D01*
X137768877Y-116010027D01*
X137718451Y-116030966D01*
X137675637Y-116053348D01*
X137643559Y-116062063D01*
X137607144Y-116077184D01*
X137559110Y-116085007D01*
X137518177Y-116096128D01*
X137479084Y-116098040D01*
X137434299Y-116105334D01*
X137391674Y-116102316D01*
X137355199Y-116104100D01*
X137310789Y-116096589D01*
X137259615Y-116092965D01*
X137224495Y-116081993D01*
X137194308Y-116076887D01*
X137147091Y-116057810D01*
X137092462Y-116040743D01*
X137065922Y-116025016D01*
X137043020Y-116015763D01*
X136996152Y-115983672D01*
X136941805Y-115951467D01*
X136923877Y-115934184D01*
X136908387Y-115923578D01*
X136865507Y-115877915D01*
X136815727Y-115829927D01*
X136805473Y-115813985D01*
X136796687Y-115804629D01*
X136761657Y-115745866D01*
X136720991Y-115682643D01*
X136716663Y-115670387D01*
X136713135Y-115664469D01*
X136689780Y-115594261D01*
X136662678Y-115517515D01*
X136661925Y-115510525D01*
X136661631Y-115509642D01*
X136653746Y-115434624D01*
X136643917Y-115343402D01*
X136654330Y-115260392D01*
X136662763Y-115185207D01*
X136664344Y-115180563D01*
X136665714Y-115169642D01*
X136692689Y-115097301D01*
X136715347Y-115030744D01*
X136720968Y-115021463D01*
X136726899Y-115005557D01*
X136766435Y-114946388D01*
X136799876Y-114891170D01*
X136811456Y-114879010D01*
X136824192Y-114859949D01*
X136871892Y-114815545D01*
X136912404Y-114773004D01*
X136931242Y-114760298D01*
X136952372Y-114740628D01*
X137003834Y-114711334D01*
X137047678Y-114681761D01*
X137074309Y-114671217D01*
X137104564Y-114653995D01*
X137155690Y-114638996D01*
X137199391Y-114621694D01*
X137233499Y-114616170D01*
X137272603Y-114604698D01*
X137319882Y-114602179D01*
X137360464Y-114595606D01*
X137400856Y-114597864D01*
X137447477Y-114595380D01*
X137488225Y-114602749D01*
X137488225Y-114602749D01*
G37*
G36*
X159488225Y-114602749D02*
G01*
X159523382Y-114604714D01*
X159568027Y-114617179D01*
X159619803Y-114626542D01*
X159652320Y-114640715D01*
X159680541Y-114648594D01*
X159726654Y-114673113D01*
X159780339Y-114696511D01*
X159803972Y-114714223D01*
X159824615Y-114725199D01*
X159868854Y-114762849D01*
X159920473Y-114801536D01*
X159935587Y-114819645D01*
X159948877Y-114830955D01*
X159987520Y-114881865D01*
X160032688Y-114935981D01*
X160040571Y-114951757D01*
X160047529Y-114960924D01*
X160076748Y-115024159D01*
X160110963Y-115092635D01*
X160113639Y-115103998D01*
X160115972Y-115109048D01*
X160132095Y-115182381D01*
X160151101Y-115263095D01*
X160150902Y-115285871D01*
X160150374Y-115437040D01*
X160149552Y-115440660D01*
X160149470Y-115450001D01*
X160130118Y-115526200D01*
X160114272Y-115595947D01*
X160110214Y-115604571D01*
X160106363Y-115619734D01*
X160072838Y-115683999D01*
X160044799Y-115743584D01*
X160035359Y-115755842D01*
X160025366Y-115774998D01*
X159981865Y-115825306D01*
X159945239Y-115872865D01*
X159928844Y-115886622D01*
X159910822Y-115907464D01*
X159861751Y-115942921D01*
X159820242Y-115977751D01*
X159796024Y-115990412D01*
X159768877Y-116010027D01*
X159718451Y-116030966D01*
X159675637Y-116053348D01*
X159643559Y-116062063D01*
X159607144Y-116077184D01*
X159559110Y-116085007D01*
X159518177Y-116096128D01*
X159479084Y-116098040D01*
X159434299Y-116105334D01*
X159391674Y-116102316D01*
X159355199Y-116104100D01*
X159310789Y-116096589D01*
X159259615Y-116092965D01*
X159224495Y-116081993D01*
X159194308Y-116076887D01*
X159147091Y-116057810D01*
X159092462Y-116040743D01*
X159065922Y-116025016D01*
X159043020Y-116015763D01*
X158996152Y-115983672D01*
X158941805Y-115951467D01*
X158923877Y-115934184D01*
X158908387Y-115923578D01*
X158865507Y-115877915D01*
X158815727Y-115829927D01*
X158805473Y-115813985D01*
X158796687Y-115804629D01*
X158761657Y-115745866D01*
X158720991Y-115682643D01*
X158716663Y-115670387D01*
X158713135Y-115664469D01*
X158689780Y-115594261D01*
X158662678Y-115517515D01*
X158661925Y-115510525D01*
X158661631Y-115509642D01*
X158653746Y-115434624D01*
X158643917Y-115343402D01*
X158654330Y-115260392D01*
X158662763Y-115185207D01*
X158664344Y-115180563D01*
X158665714Y-115169642D01*
X158692689Y-115097301D01*
X158715347Y-115030744D01*
X158720968Y-115021463D01*
X158726899Y-115005557D01*
X158766435Y-114946388D01*
X158799876Y-114891170D01*
X158811456Y-114879010D01*
X158824192Y-114859949D01*
X158871892Y-114815545D01*
X158912404Y-114773004D01*
X158931242Y-114760298D01*
X158952372Y-114740628D01*
X159003834Y-114711334D01*
X159047678Y-114681761D01*
X159074309Y-114671217D01*
X159104564Y-114653995D01*
X159155690Y-114638996D01*
X159199391Y-114621694D01*
X159233499Y-114616170D01*
X159272603Y-114604698D01*
X159319882Y-114602179D01*
X159360464Y-114595606D01*
X159400856Y-114597864D01*
X159447477Y-114595380D01*
X159488225Y-114602749D01*
X159488225Y-114602749D01*
G37*
G36*
X137488225Y-112602749D02*
G01*
X137523382Y-112604714D01*
X137568027Y-112617179D01*
X137619803Y-112626542D01*
X137652320Y-112640715D01*
X137680541Y-112648594D01*
X137726654Y-112673113D01*
X137780339Y-112696511D01*
X137803972Y-112714223D01*
X137824615Y-112725199D01*
X137868854Y-112762849D01*
X137920473Y-112801536D01*
X137935587Y-112819645D01*
X137948877Y-112830955D01*
X137987520Y-112881865D01*
X138032688Y-112935981D01*
X138040571Y-112951757D01*
X138047529Y-112960924D01*
X138076748Y-113024159D01*
X138110963Y-113092635D01*
X138113639Y-113103998D01*
X138115972Y-113109048D01*
X138132095Y-113182381D01*
X138151101Y-113263095D01*
X138150902Y-113285871D01*
X138150374Y-113437040D01*
X138149552Y-113440660D01*
X138149470Y-113450001D01*
X138130118Y-113526200D01*
X138114272Y-113595947D01*
X138110214Y-113604571D01*
X138106363Y-113619734D01*
X138072838Y-113683999D01*
X138044799Y-113743584D01*
X138035359Y-113755842D01*
X138025366Y-113774998D01*
X137981865Y-113825306D01*
X137945239Y-113872865D01*
X137928844Y-113886622D01*
X137910822Y-113907464D01*
X137861751Y-113942921D01*
X137820242Y-113977751D01*
X137796024Y-113990412D01*
X137768877Y-114010027D01*
X137718451Y-114030966D01*
X137675637Y-114053348D01*
X137643559Y-114062063D01*
X137607144Y-114077184D01*
X137559110Y-114085007D01*
X137518177Y-114096128D01*
X137479084Y-114098040D01*
X137434299Y-114105334D01*
X137391674Y-114102316D01*
X137355199Y-114104100D01*
X137310789Y-114096589D01*
X137259615Y-114092965D01*
X137224495Y-114081993D01*
X137194308Y-114076887D01*
X137147091Y-114057810D01*
X137092462Y-114040743D01*
X137065922Y-114025016D01*
X137043020Y-114015763D01*
X136996152Y-113983672D01*
X136941805Y-113951467D01*
X136923877Y-113934184D01*
X136908387Y-113923578D01*
X136865507Y-113877915D01*
X136815727Y-113829927D01*
X136805473Y-113813985D01*
X136796687Y-113804629D01*
X136761657Y-113745866D01*
X136720991Y-113682643D01*
X136716663Y-113670387D01*
X136713135Y-113664469D01*
X136689780Y-113594261D01*
X136662678Y-113517515D01*
X136661925Y-113510525D01*
X136661631Y-113509642D01*
X136653746Y-113434624D01*
X136643917Y-113343402D01*
X136654330Y-113260392D01*
X136662763Y-113185207D01*
X136664344Y-113180563D01*
X136665714Y-113169642D01*
X136692689Y-113097301D01*
X136715347Y-113030744D01*
X136720968Y-113021463D01*
X136726899Y-113005557D01*
X136766435Y-112946388D01*
X136799876Y-112891170D01*
X136811456Y-112879010D01*
X136824192Y-112859949D01*
X136871892Y-112815545D01*
X136912404Y-112773004D01*
X136931242Y-112760298D01*
X136952372Y-112740628D01*
X137003834Y-112711334D01*
X137047678Y-112681761D01*
X137074309Y-112671217D01*
X137104564Y-112653995D01*
X137155690Y-112638996D01*
X137199391Y-112621694D01*
X137233499Y-112616170D01*
X137272603Y-112604698D01*
X137319882Y-112602179D01*
X137360464Y-112595606D01*
X137400856Y-112597864D01*
X137447477Y-112595380D01*
X137488225Y-112602749D01*
X137488225Y-112602749D01*
G37*
G36*
X159488225Y-112602749D02*
G01*
X159523382Y-112604714D01*
X159568027Y-112617179D01*
X159619803Y-112626542D01*
X159652320Y-112640715D01*
X159680541Y-112648594D01*
X159726654Y-112673113D01*
X159780339Y-112696511D01*
X159803972Y-112714223D01*
X159824615Y-112725199D01*
X159868854Y-112762849D01*
X159920473Y-112801536D01*
X159935587Y-112819645D01*
X159948877Y-112830955D01*
X159987520Y-112881865D01*
X160032688Y-112935981D01*
X160040571Y-112951757D01*
X160047529Y-112960924D01*
X160076748Y-113024159D01*
X160110963Y-113092635D01*
X160113639Y-113103998D01*
X160115972Y-113109048D01*
X160132095Y-113182381D01*
X160151101Y-113263095D01*
X160150902Y-113285871D01*
X160150374Y-113437040D01*
X160149552Y-113440660D01*
X160149470Y-113450001D01*
X160130118Y-113526200D01*
X160114272Y-113595947D01*
X160110214Y-113604571D01*
X160106363Y-113619734D01*
X160072838Y-113683999D01*
X160044799Y-113743584D01*
X160035359Y-113755842D01*
X160025366Y-113774998D01*
X159981865Y-113825306D01*
X159945239Y-113872865D01*
X159928844Y-113886622D01*
X159910822Y-113907464D01*
X159861751Y-113942921D01*
X159820242Y-113977751D01*
X159796024Y-113990412D01*
X159768877Y-114010027D01*
X159718451Y-114030966D01*
X159675637Y-114053348D01*
X159643559Y-114062063D01*
X159607144Y-114077184D01*
X159559110Y-114085007D01*
X159518177Y-114096128D01*
X159479084Y-114098040D01*
X159434299Y-114105334D01*
X159391674Y-114102316D01*
X159355199Y-114104100D01*
X159310789Y-114096589D01*
X159259615Y-114092965D01*
X159224495Y-114081993D01*
X159194308Y-114076887D01*
X159147091Y-114057810D01*
X159092462Y-114040743D01*
X159065922Y-114025016D01*
X159043020Y-114015763D01*
X158996152Y-113983672D01*
X158941805Y-113951467D01*
X158923877Y-113934184D01*
X158908387Y-113923578D01*
X158865507Y-113877915D01*
X158815727Y-113829927D01*
X158805473Y-113813985D01*
X158796687Y-113804629D01*
X158761657Y-113745866D01*
X158720991Y-113682643D01*
X158716663Y-113670387D01*
X158713135Y-113664469D01*
X158689780Y-113594261D01*
X158662678Y-113517515D01*
X158661925Y-113510525D01*
X158661631Y-113509642D01*
X158653746Y-113434624D01*
X158643917Y-113343402D01*
X158654330Y-113260392D01*
X158662763Y-113185207D01*
X158664344Y-113180563D01*
X158665714Y-113169642D01*
X158692689Y-113097301D01*
X158715347Y-113030744D01*
X158720968Y-113021463D01*
X158726899Y-113005557D01*
X158766435Y-112946388D01*
X158799876Y-112891170D01*
X158811456Y-112879010D01*
X158824192Y-112859949D01*
X158871892Y-112815545D01*
X158912404Y-112773004D01*
X158931242Y-112760298D01*
X158952372Y-112740628D01*
X159003834Y-112711334D01*
X159047678Y-112681761D01*
X159074309Y-112671217D01*
X159104564Y-112653995D01*
X159155690Y-112638996D01*
X159199391Y-112621694D01*
X159233499Y-112616170D01*
X159272603Y-112604698D01*
X159319882Y-112602179D01*
X159360464Y-112595606D01*
X159400856Y-112597864D01*
X159447477Y-112595380D01*
X159488225Y-112602749D01*
X159488225Y-112602749D01*
G37*
G36*
X137488225Y-110602749D02*
G01*
X137523382Y-110604714D01*
X137568027Y-110617179D01*
X137619803Y-110626542D01*
X137652320Y-110640715D01*
X137680541Y-110648594D01*
X137726654Y-110673113D01*
X137780339Y-110696511D01*
X137803972Y-110714223D01*
X137824615Y-110725199D01*
X137868854Y-110762849D01*
X137920473Y-110801536D01*
X137935587Y-110819645D01*
X137948877Y-110830955D01*
X137987520Y-110881865D01*
X138032688Y-110935981D01*
X138040571Y-110951757D01*
X138047529Y-110960924D01*
X138076748Y-111024159D01*
X138110963Y-111092635D01*
X138113639Y-111103998D01*
X138115972Y-111109048D01*
X138132095Y-111182381D01*
X138151101Y-111263095D01*
X138150902Y-111285871D01*
X138150374Y-111437040D01*
X138149552Y-111440660D01*
X138149470Y-111450001D01*
X138130118Y-111526200D01*
X138114272Y-111595947D01*
X138110214Y-111604571D01*
X138106363Y-111619734D01*
X138072838Y-111683999D01*
X138044799Y-111743584D01*
X138035359Y-111755842D01*
X138025366Y-111774998D01*
X137981865Y-111825306D01*
X137945239Y-111872865D01*
X137928844Y-111886622D01*
X137910822Y-111907464D01*
X137861751Y-111942921D01*
X137820242Y-111977751D01*
X137796024Y-111990412D01*
X137768877Y-112010027D01*
X137718451Y-112030966D01*
X137675637Y-112053348D01*
X137643559Y-112062063D01*
X137607144Y-112077184D01*
X137559110Y-112085007D01*
X137518177Y-112096128D01*
X137479084Y-112098040D01*
X137434299Y-112105334D01*
X137391674Y-112102316D01*
X137355199Y-112104100D01*
X137310789Y-112096589D01*
X137259615Y-112092965D01*
X137224495Y-112081993D01*
X137194308Y-112076887D01*
X137147091Y-112057810D01*
X137092462Y-112040743D01*
X137065922Y-112025016D01*
X137043020Y-112015763D01*
X136996152Y-111983672D01*
X136941805Y-111951467D01*
X136923877Y-111934184D01*
X136908387Y-111923578D01*
X136865507Y-111877915D01*
X136815727Y-111829927D01*
X136805473Y-111813985D01*
X136796687Y-111804629D01*
X136761657Y-111745866D01*
X136720991Y-111682643D01*
X136716663Y-111670387D01*
X136713135Y-111664469D01*
X136689780Y-111594261D01*
X136662678Y-111517515D01*
X136661925Y-111510525D01*
X136661631Y-111509642D01*
X136653746Y-111434624D01*
X136643917Y-111343402D01*
X136654330Y-111260392D01*
X136662763Y-111185207D01*
X136664344Y-111180563D01*
X136665714Y-111169642D01*
X136692689Y-111097301D01*
X136715347Y-111030744D01*
X136720968Y-111021463D01*
X136726899Y-111005557D01*
X136766435Y-110946388D01*
X136799876Y-110891170D01*
X136811456Y-110879010D01*
X136824192Y-110859949D01*
X136871892Y-110815545D01*
X136912404Y-110773004D01*
X136931242Y-110760298D01*
X136952372Y-110740628D01*
X137003834Y-110711334D01*
X137047678Y-110681761D01*
X137074309Y-110671217D01*
X137104564Y-110653995D01*
X137155690Y-110638996D01*
X137199391Y-110621694D01*
X137233499Y-110616170D01*
X137272603Y-110604698D01*
X137319882Y-110602179D01*
X137360464Y-110595606D01*
X137400856Y-110597864D01*
X137447477Y-110595380D01*
X137488225Y-110602749D01*
X137488225Y-110602749D01*
G37*
G36*
X159488225Y-110602749D02*
G01*
X159523382Y-110604714D01*
X159568027Y-110617179D01*
X159619803Y-110626542D01*
X159652320Y-110640715D01*
X159680541Y-110648594D01*
X159726654Y-110673113D01*
X159780339Y-110696511D01*
X159803972Y-110714223D01*
X159824615Y-110725199D01*
X159868854Y-110762849D01*
X159920473Y-110801536D01*
X159935587Y-110819645D01*
X159948877Y-110830955D01*
X159987520Y-110881865D01*
X160032688Y-110935981D01*
X160040571Y-110951757D01*
X160047529Y-110960924D01*
X160076748Y-111024159D01*
X160110963Y-111092635D01*
X160113639Y-111103998D01*
X160115972Y-111109048D01*
X160132095Y-111182381D01*
X160151101Y-111263095D01*
X160150902Y-111285871D01*
X160150374Y-111437040D01*
X160149552Y-111440660D01*
X160149470Y-111450001D01*
X160130118Y-111526200D01*
X160114272Y-111595947D01*
X160110214Y-111604571D01*
X160106363Y-111619734D01*
X160072838Y-111683999D01*
X160044799Y-111743584D01*
X160035359Y-111755842D01*
X160025366Y-111774998D01*
X159981865Y-111825306D01*
X159945239Y-111872865D01*
X159928844Y-111886622D01*
X159910822Y-111907464D01*
X159861751Y-111942921D01*
X159820242Y-111977751D01*
X159796024Y-111990412D01*
X159768877Y-112010027D01*
X159718451Y-112030966D01*
X159675637Y-112053348D01*
X159643559Y-112062063D01*
X159607144Y-112077184D01*
X159559110Y-112085007D01*
X159518177Y-112096128D01*
X159479084Y-112098040D01*
X159434299Y-112105334D01*
X159391674Y-112102316D01*
X159355199Y-112104100D01*
X159310789Y-112096589D01*
X159259615Y-112092965D01*
X159224495Y-112081993D01*
X159194308Y-112076887D01*
X159147091Y-112057810D01*
X159092462Y-112040743D01*
X159065922Y-112025016D01*
X159043020Y-112015763D01*
X158996152Y-111983672D01*
X158941805Y-111951467D01*
X158923877Y-111934184D01*
X158908387Y-111923578D01*
X158865507Y-111877915D01*
X158815727Y-111829927D01*
X158805473Y-111813985D01*
X158796687Y-111804629D01*
X158761657Y-111745866D01*
X158720991Y-111682643D01*
X158716663Y-111670387D01*
X158713135Y-111664469D01*
X158689780Y-111594261D01*
X158662678Y-111517515D01*
X158661925Y-111510525D01*
X158661631Y-111509642D01*
X158653746Y-111434624D01*
X158643917Y-111343402D01*
X158654330Y-111260392D01*
X158662763Y-111185207D01*
X158664344Y-111180563D01*
X158665714Y-111169642D01*
X158692689Y-111097301D01*
X158715347Y-111030744D01*
X158720968Y-111021463D01*
X158726899Y-111005557D01*
X158766435Y-110946388D01*
X158799876Y-110891170D01*
X158811456Y-110879010D01*
X158824192Y-110859949D01*
X158871892Y-110815545D01*
X158912404Y-110773004D01*
X158931242Y-110760298D01*
X158952372Y-110740628D01*
X159003834Y-110711334D01*
X159047678Y-110681761D01*
X159074309Y-110671217D01*
X159104564Y-110653995D01*
X159155690Y-110638996D01*
X159199391Y-110621694D01*
X159233499Y-110616170D01*
X159272603Y-110604698D01*
X159319882Y-110602179D01*
X159360464Y-110595606D01*
X159400856Y-110597864D01*
X159447477Y-110595380D01*
X159488225Y-110602749D01*
X159488225Y-110602749D01*
G37*
G36*
X142951000Y-110451000D02*
G01*
X141549000Y-110451000D01*
X141549000Y-108849000D01*
X142951000Y-108849000D01*
X142951000Y-110451000D01*
X142951000Y-110451000D01*
G37*
G36*
X147951000Y-110451000D02*
G01*
X146549000Y-110451000D01*
X146549000Y-108849000D01*
X147951000Y-108849000D01*
X147951000Y-110451000D01*
X147951000Y-110451000D01*
G37*
G36*
X145451000Y-110451000D02*
G01*
X144049000Y-110451000D01*
X144049000Y-108849000D01*
X145451000Y-108849000D01*
X145451000Y-110451000D01*
X145451000Y-110451000D01*
G37*
G36*
X159488225Y-108602749D02*
G01*
X159523382Y-108604714D01*
X159568027Y-108617179D01*
X159619803Y-108626542D01*
X159652320Y-108640715D01*
X159680541Y-108648594D01*
X159726654Y-108673113D01*
X159780339Y-108696511D01*
X159803972Y-108714223D01*
X159824615Y-108725199D01*
X159868854Y-108762849D01*
X159920473Y-108801536D01*
X159935587Y-108819645D01*
X159948877Y-108830955D01*
X159987520Y-108881865D01*
X160032688Y-108935981D01*
X160040571Y-108951757D01*
X160047529Y-108960924D01*
X160076748Y-109024159D01*
X160110963Y-109092635D01*
X160113639Y-109103998D01*
X160115972Y-109109048D01*
X160132095Y-109182381D01*
X160151101Y-109263095D01*
X160150902Y-109285871D01*
X160150374Y-109437040D01*
X160149552Y-109440660D01*
X160149470Y-109450001D01*
X160130118Y-109526200D01*
X160114272Y-109595947D01*
X160110214Y-109604571D01*
X160106363Y-109619734D01*
X160072838Y-109683999D01*
X160044799Y-109743584D01*
X160035359Y-109755842D01*
X160025366Y-109774998D01*
X159981865Y-109825306D01*
X159945239Y-109872865D01*
X159928844Y-109886622D01*
X159910822Y-109907464D01*
X159861751Y-109942921D01*
X159820242Y-109977751D01*
X159796024Y-109990412D01*
X159768877Y-110010027D01*
X159718451Y-110030966D01*
X159675637Y-110053348D01*
X159643559Y-110062063D01*
X159607144Y-110077184D01*
X159559110Y-110085007D01*
X159518177Y-110096128D01*
X159479084Y-110098040D01*
X159434299Y-110105334D01*
X159391674Y-110102316D01*
X159355199Y-110104100D01*
X159310789Y-110096589D01*
X159259615Y-110092965D01*
X159224495Y-110081993D01*
X159194308Y-110076887D01*
X159147091Y-110057810D01*
X159092462Y-110040743D01*
X159065922Y-110025016D01*
X159043020Y-110015763D01*
X158996152Y-109983672D01*
X158941805Y-109951467D01*
X158923877Y-109934184D01*
X158908387Y-109923578D01*
X158865507Y-109877915D01*
X158815727Y-109829927D01*
X158805473Y-109813985D01*
X158796687Y-109804629D01*
X158761657Y-109745866D01*
X158720991Y-109682643D01*
X158716663Y-109670387D01*
X158713135Y-109664469D01*
X158689780Y-109594261D01*
X158662678Y-109517515D01*
X158661925Y-109510525D01*
X158661631Y-109509642D01*
X158653746Y-109434624D01*
X158643917Y-109343402D01*
X158654330Y-109260392D01*
X158662763Y-109185207D01*
X158664344Y-109180563D01*
X158665714Y-109169642D01*
X158692689Y-109097301D01*
X158715347Y-109030744D01*
X158720968Y-109021463D01*
X158726899Y-109005557D01*
X158766435Y-108946388D01*
X158799876Y-108891170D01*
X158811456Y-108879010D01*
X158824192Y-108859949D01*
X158871892Y-108815545D01*
X158912404Y-108773004D01*
X158931242Y-108760298D01*
X158952372Y-108740628D01*
X159003834Y-108711334D01*
X159047678Y-108681761D01*
X159074309Y-108671217D01*
X159104564Y-108653995D01*
X159155690Y-108638996D01*
X159199391Y-108621694D01*
X159233499Y-108616170D01*
X159272603Y-108604698D01*
X159319882Y-108602179D01*
X159360464Y-108595606D01*
X159400856Y-108597864D01*
X159447477Y-108595380D01*
X159488225Y-108602749D01*
X159488225Y-108602749D01*
G37*
G36*
X137488225Y-108602749D02*
G01*
X137523382Y-108604714D01*
X137568027Y-108617179D01*
X137619803Y-108626542D01*
X137652320Y-108640715D01*
X137680541Y-108648594D01*
X137726654Y-108673113D01*
X137780339Y-108696511D01*
X137803972Y-108714223D01*
X137824615Y-108725199D01*
X137868854Y-108762849D01*
X137920473Y-108801536D01*
X137935587Y-108819645D01*
X137948877Y-108830955D01*
X137987520Y-108881865D01*
X138032688Y-108935981D01*
X138040571Y-108951757D01*
X138047529Y-108960924D01*
X138076748Y-109024159D01*
X138110963Y-109092635D01*
X138113639Y-109103998D01*
X138115972Y-109109048D01*
X138132095Y-109182381D01*
X138151101Y-109263095D01*
X138150902Y-109285871D01*
X138150374Y-109437040D01*
X138149552Y-109440660D01*
X138149470Y-109450001D01*
X138130118Y-109526200D01*
X138114272Y-109595947D01*
X138110214Y-109604571D01*
X138106363Y-109619734D01*
X138072838Y-109683999D01*
X138044799Y-109743584D01*
X138035359Y-109755842D01*
X138025366Y-109774998D01*
X137981865Y-109825306D01*
X137945239Y-109872865D01*
X137928844Y-109886622D01*
X137910822Y-109907464D01*
X137861751Y-109942921D01*
X137820242Y-109977751D01*
X137796024Y-109990412D01*
X137768877Y-110010027D01*
X137718451Y-110030966D01*
X137675637Y-110053348D01*
X137643559Y-110062063D01*
X137607144Y-110077184D01*
X137559110Y-110085007D01*
X137518177Y-110096128D01*
X137479084Y-110098040D01*
X137434299Y-110105334D01*
X137391674Y-110102316D01*
X137355199Y-110104100D01*
X137310789Y-110096589D01*
X137259615Y-110092965D01*
X137224495Y-110081993D01*
X137194308Y-110076887D01*
X137147091Y-110057810D01*
X137092462Y-110040743D01*
X137065922Y-110025016D01*
X137043020Y-110015763D01*
X136996152Y-109983672D01*
X136941805Y-109951467D01*
X136923877Y-109934184D01*
X136908387Y-109923578D01*
X136865507Y-109877915D01*
X136815727Y-109829927D01*
X136805473Y-109813985D01*
X136796687Y-109804629D01*
X136761657Y-109745866D01*
X136720991Y-109682643D01*
X136716663Y-109670387D01*
X136713135Y-109664469D01*
X136689780Y-109594261D01*
X136662678Y-109517515D01*
X136661925Y-109510525D01*
X136661631Y-109509642D01*
X136653746Y-109434624D01*
X136643917Y-109343402D01*
X136654330Y-109260392D01*
X136662763Y-109185207D01*
X136664344Y-109180563D01*
X136665714Y-109169642D01*
X136692689Y-109097301D01*
X136715347Y-109030744D01*
X136720968Y-109021463D01*
X136726899Y-109005557D01*
X136766435Y-108946388D01*
X136799876Y-108891170D01*
X136811456Y-108879010D01*
X136824192Y-108859949D01*
X136871892Y-108815545D01*
X136912404Y-108773004D01*
X136931242Y-108760298D01*
X136952372Y-108740628D01*
X137003834Y-108711334D01*
X137047678Y-108681761D01*
X137074309Y-108671217D01*
X137104564Y-108653995D01*
X137155690Y-108638996D01*
X137199391Y-108621694D01*
X137233499Y-108616170D01*
X137272603Y-108604698D01*
X137319882Y-108602179D01*
X137360464Y-108595606D01*
X137400856Y-108597864D01*
X137447477Y-108595380D01*
X137488225Y-108602749D01*
X137488225Y-108602749D01*
G37*
G36*
X159488225Y-106602749D02*
G01*
X159523382Y-106604714D01*
X159568027Y-106617179D01*
X159619803Y-106626542D01*
X159652320Y-106640715D01*
X159680541Y-106648594D01*
X159726654Y-106673113D01*
X159780339Y-106696511D01*
X159803972Y-106714223D01*
X159824615Y-106725199D01*
X159868854Y-106762849D01*
X159920473Y-106801536D01*
X159935587Y-106819645D01*
X159948877Y-106830955D01*
X159987520Y-106881865D01*
X160032688Y-106935981D01*
X160040571Y-106951757D01*
X160047529Y-106960924D01*
X160076748Y-107024159D01*
X160110963Y-107092635D01*
X160113639Y-107103998D01*
X160115972Y-107109048D01*
X160132095Y-107182381D01*
X160151101Y-107263095D01*
X160150902Y-107285871D01*
X160150374Y-107437040D01*
X160149552Y-107440660D01*
X160149470Y-107450001D01*
X160130118Y-107526200D01*
X160114272Y-107595947D01*
X160110214Y-107604571D01*
X160106363Y-107619734D01*
X160072838Y-107683999D01*
X160044799Y-107743584D01*
X160035359Y-107755842D01*
X160025366Y-107774998D01*
X159981865Y-107825306D01*
X159945239Y-107872865D01*
X159928844Y-107886622D01*
X159910822Y-107907464D01*
X159861751Y-107942921D01*
X159820242Y-107977751D01*
X159796024Y-107990412D01*
X159768877Y-108010027D01*
X159718451Y-108030966D01*
X159675637Y-108053348D01*
X159643559Y-108062063D01*
X159607144Y-108077184D01*
X159559110Y-108085007D01*
X159518177Y-108096128D01*
X159479084Y-108098040D01*
X159434299Y-108105334D01*
X159391674Y-108102316D01*
X159355199Y-108104100D01*
X159310789Y-108096589D01*
X159259615Y-108092965D01*
X159224495Y-108081993D01*
X159194308Y-108076887D01*
X159147091Y-108057810D01*
X159092462Y-108040743D01*
X159065922Y-108025016D01*
X159043020Y-108015763D01*
X158996152Y-107983672D01*
X158941805Y-107951467D01*
X158923877Y-107934184D01*
X158908387Y-107923578D01*
X158865507Y-107877915D01*
X158815727Y-107829927D01*
X158805473Y-107813985D01*
X158796687Y-107804629D01*
X158761657Y-107745866D01*
X158720991Y-107682643D01*
X158716663Y-107670387D01*
X158713135Y-107664469D01*
X158689780Y-107594261D01*
X158662678Y-107517515D01*
X158661925Y-107510525D01*
X158661631Y-107509642D01*
X158653746Y-107434624D01*
X158643917Y-107343402D01*
X158654330Y-107260392D01*
X158662763Y-107185207D01*
X158664344Y-107180563D01*
X158665714Y-107169642D01*
X158692689Y-107097301D01*
X158715347Y-107030744D01*
X158720968Y-107021463D01*
X158726899Y-107005557D01*
X158766435Y-106946388D01*
X158799876Y-106891170D01*
X158811456Y-106879010D01*
X158824192Y-106859949D01*
X158871892Y-106815545D01*
X158912404Y-106773004D01*
X158931242Y-106760298D01*
X158952372Y-106740628D01*
X159003834Y-106711334D01*
X159047678Y-106681761D01*
X159074309Y-106671217D01*
X159104564Y-106653995D01*
X159155690Y-106638996D01*
X159199391Y-106621694D01*
X159233499Y-106616170D01*
X159272603Y-106604698D01*
X159319882Y-106602179D01*
X159360464Y-106595606D01*
X159400856Y-106597864D01*
X159447477Y-106595380D01*
X159488225Y-106602749D01*
X159488225Y-106602749D01*
G37*
G36*
X137488225Y-106602749D02*
G01*
X137523382Y-106604714D01*
X137568027Y-106617179D01*
X137619803Y-106626542D01*
X137652320Y-106640715D01*
X137680541Y-106648594D01*
X137726654Y-106673113D01*
X137780339Y-106696511D01*
X137803972Y-106714223D01*
X137824615Y-106725199D01*
X137868854Y-106762849D01*
X137920473Y-106801536D01*
X137935587Y-106819645D01*
X137948877Y-106830955D01*
X137987520Y-106881865D01*
X138032688Y-106935981D01*
X138040571Y-106951757D01*
X138047529Y-106960924D01*
X138076748Y-107024159D01*
X138110963Y-107092635D01*
X138113639Y-107103998D01*
X138115972Y-107109048D01*
X138132095Y-107182381D01*
X138151101Y-107263095D01*
X138150902Y-107285871D01*
X138150374Y-107437040D01*
X138149552Y-107440660D01*
X138149470Y-107450001D01*
X138130118Y-107526200D01*
X138114272Y-107595947D01*
X138110214Y-107604571D01*
X138106363Y-107619734D01*
X138072838Y-107683999D01*
X138044799Y-107743584D01*
X138035359Y-107755842D01*
X138025366Y-107774998D01*
X137981865Y-107825306D01*
X137945239Y-107872865D01*
X137928844Y-107886622D01*
X137910822Y-107907464D01*
X137861751Y-107942921D01*
X137820242Y-107977751D01*
X137796024Y-107990412D01*
X137768877Y-108010027D01*
X137718451Y-108030966D01*
X137675637Y-108053348D01*
X137643559Y-108062063D01*
X137607144Y-108077184D01*
X137559110Y-108085007D01*
X137518177Y-108096128D01*
X137479084Y-108098040D01*
X137434299Y-108105334D01*
X137391674Y-108102316D01*
X137355199Y-108104100D01*
X137310789Y-108096589D01*
X137259615Y-108092965D01*
X137224495Y-108081993D01*
X137194308Y-108076887D01*
X137147091Y-108057810D01*
X137092462Y-108040743D01*
X137065922Y-108025016D01*
X137043020Y-108015763D01*
X136996152Y-107983672D01*
X136941805Y-107951467D01*
X136923877Y-107934184D01*
X136908387Y-107923578D01*
X136865507Y-107877915D01*
X136815727Y-107829927D01*
X136805473Y-107813985D01*
X136796687Y-107804629D01*
X136761657Y-107745866D01*
X136720991Y-107682643D01*
X136716663Y-107670387D01*
X136713135Y-107664469D01*
X136689780Y-107594261D01*
X136662678Y-107517515D01*
X136661925Y-107510525D01*
X136661631Y-107509642D01*
X136653746Y-107434624D01*
X136643917Y-107343402D01*
X136654330Y-107260392D01*
X136662763Y-107185207D01*
X136664344Y-107180563D01*
X136665714Y-107169642D01*
X136692689Y-107097301D01*
X136715347Y-107030744D01*
X136720968Y-107021463D01*
X136726899Y-107005557D01*
X136766435Y-106946388D01*
X136799876Y-106891170D01*
X136811456Y-106879010D01*
X136824192Y-106859949D01*
X136871892Y-106815545D01*
X136912404Y-106773004D01*
X136931242Y-106760298D01*
X136952372Y-106740628D01*
X137003834Y-106711334D01*
X137047678Y-106681761D01*
X137074309Y-106671217D01*
X137104564Y-106653995D01*
X137155690Y-106638996D01*
X137199391Y-106621694D01*
X137233499Y-106616170D01*
X137272603Y-106604698D01*
X137319882Y-106602179D01*
X137360464Y-106595606D01*
X137400856Y-106597864D01*
X137447477Y-106595380D01*
X137488225Y-106602749D01*
X137488225Y-106602749D01*
G37*
G36*
X147951000Y-107751000D02*
G01*
X146549000Y-107751000D01*
X146549000Y-106149000D01*
X147951000Y-106149000D01*
X147951000Y-107751000D01*
X147951000Y-107751000D01*
G37*
G36*
X142951000Y-107751000D02*
G01*
X141549000Y-107751000D01*
X141549000Y-106149000D01*
X142951000Y-106149000D01*
X142951000Y-107751000D01*
X142951000Y-107751000D01*
G37*
G36*
X145451000Y-107751000D02*
G01*
X144049000Y-107751000D01*
X144049000Y-106149000D01*
X145451000Y-106149000D01*
X145451000Y-107751000D01*
X145451000Y-107751000D01*
G37*
G36*
X159488225Y-104602749D02*
G01*
X159523382Y-104604714D01*
X159568027Y-104617179D01*
X159619803Y-104626542D01*
X159652320Y-104640715D01*
X159680541Y-104648594D01*
X159726654Y-104673113D01*
X159780339Y-104696511D01*
X159803972Y-104714223D01*
X159824615Y-104725199D01*
X159868854Y-104762849D01*
X159920473Y-104801536D01*
X159935587Y-104819645D01*
X159948877Y-104830955D01*
X159987520Y-104881865D01*
X160032688Y-104935981D01*
X160040571Y-104951757D01*
X160047529Y-104960924D01*
X160076748Y-105024159D01*
X160110963Y-105092635D01*
X160113639Y-105103998D01*
X160115972Y-105109048D01*
X160132095Y-105182381D01*
X160151101Y-105263095D01*
X160150902Y-105285871D01*
X160150374Y-105437040D01*
X160149552Y-105440660D01*
X160149470Y-105450001D01*
X160130118Y-105526200D01*
X160114272Y-105595947D01*
X160110214Y-105604571D01*
X160106363Y-105619734D01*
X160072838Y-105683999D01*
X160044799Y-105743584D01*
X160035359Y-105755842D01*
X160025366Y-105774998D01*
X159981865Y-105825306D01*
X159945239Y-105872865D01*
X159928844Y-105886622D01*
X159910822Y-105907464D01*
X159861751Y-105942921D01*
X159820242Y-105977751D01*
X159796024Y-105990412D01*
X159768877Y-106010027D01*
X159718451Y-106030966D01*
X159675637Y-106053348D01*
X159643559Y-106062063D01*
X159607144Y-106077184D01*
X159559110Y-106085007D01*
X159518177Y-106096128D01*
X159479084Y-106098040D01*
X159434299Y-106105334D01*
X159391674Y-106102316D01*
X159355199Y-106104100D01*
X159310789Y-106096589D01*
X159259615Y-106092965D01*
X159224495Y-106081993D01*
X159194308Y-106076887D01*
X159147091Y-106057810D01*
X159092462Y-106040743D01*
X159065922Y-106025016D01*
X159043020Y-106015763D01*
X158996152Y-105983672D01*
X158941805Y-105951467D01*
X158923877Y-105934184D01*
X158908387Y-105923578D01*
X158865507Y-105877915D01*
X158815727Y-105829927D01*
X158805473Y-105813985D01*
X158796687Y-105804629D01*
X158761657Y-105745866D01*
X158720991Y-105682643D01*
X158716663Y-105670387D01*
X158713135Y-105664469D01*
X158689780Y-105594261D01*
X158662678Y-105517515D01*
X158661925Y-105510525D01*
X158661631Y-105509642D01*
X158653746Y-105434624D01*
X158643917Y-105343402D01*
X158654330Y-105260392D01*
X158662763Y-105185207D01*
X158664344Y-105180563D01*
X158665714Y-105169642D01*
X158692689Y-105097301D01*
X158715347Y-105030744D01*
X158720968Y-105021463D01*
X158726899Y-105005557D01*
X158766435Y-104946388D01*
X158799876Y-104891170D01*
X158811456Y-104879010D01*
X158824192Y-104859949D01*
X158871892Y-104815545D01*
X158912404Y-104773004D01*
X158931242Y-104760298D01*
X158952372Y-104740628D01*
X159003834Y-104711334D01*
X159047678Y-104681761D01*
X159074309Y-104671217D01*
X159104564Y-104653995D01*
X159155690Y-104638996D01*
X159199391Y-104621694D01*
X159233499Y-104616170D01*
X159272603Y-104604698D01*
X159319882Y-104602179D01*
X159360464Y-104595606D01*
X159400856Y-104597864D01*
X159447477Y-104595380D01*
X159488225Y-104602749D01*
X159488225Y-104602749D01*
G37*
G36*
X137488225Y-104602749D02*
G01*
X137523382Y-104604714D01*
X137568027Y-104617179D01*
X137619803Y-104626542D01*
X137652320Y-104640715D01*
X137680541Y-104648594D01*
X137726654Y-104673113D01*
X137780339Y-104696511D01*
X137803972Y-104714223D01*
X137824615Y-104725199D01*
X137868854Y-104762849D01*
X137920473Y-104801536D01*
X137935587Y-104819645D01*
X137948877Y-104830955D01*
X137987520Y-104881865D01*
X138032688Y-104935981D01*
X138040571Y-104951757D01*
X138047529Y-104960924D01*
X138076748Y-105024159D01*
X138110963Y-105092635D01*
X138113639Y-105103998D01*
X138115972Y-105109048D01*
X138132095Y-105182381D01*
X138151101Y-105263095D01*
X138150902Y-105285871D01*
X138150374Y-105437040D01*
X138149552Y-105440660D01*
X138149470Y-105450001D01*
X138130118Y-105526200D01*
X138114272Y-105595947D01*
X138110214Y-105604571D01*
X138106363Y-105619734D01*
X138072838Y-105683999D01*
X138044799Y-105743584D01*
X138035359Y-105755842D01*
X138025366Y-105774998D01*
X137981865Y-105825306D01*
X137945239Y-105872865D01*
X137928844Y-105886622D01*
X137910822Y-105907464D01*
X137861751Y-105942921D01*
X137820242Y-105977751D01*
X137796024Y-105990412D01*
X137768877Y-106010027D01*
X137718451Y-106030966D01*
X137675637Y-106053348D01*
X137643559Y-106062063D01*
X137607144Y-106077184D01*
X137559110Y-106085007D01*
X137518177Y-106096128D01*
X137479084Y-106098040D01*
X137434299Y-106105334D01*
X137391674Y-106102316D01*
X137355199Y-106104100D01*
X137310789Y-106096589D01*
X137259615Y-106092965D01*
X137224495Y-106081993D01*
X137194308Y-106076887D01*
X137147091Y-106057810D01*
X137092462Y-106040743D01*
X137065922Y-106025016D01*
X137043020Y-106015763D01*
X136996152Y-105983672D01*
X136941805Y-105951467D01*
X136923877Y-105934184D01*
X136908387Y-105923578D01*
X136865507Y-105877915D01*
X136815727Y-105829927D01*
X136805473Y-105813985D01*
X136796687Y-105804629D01*
X136761657Y-105745866D01*
X136720991Y-105682643D01*
X136716663Y-105670387D01*
X136713135Y-105664469D01*
X136689780Y-105594261D01*
X136662678Y-105517515D01*
X136661925Y-105510525D01*
X136661631Y-105509642D01*
X136653746Y-105434624D01*
X136643917Y-105343402D01*
X136654330Y-105260392D01*
X136662763Y-105185207D01*
X136664344Y-105180563D01*
X136665714Y-105169642D01*
X136692689Y-105097301D01*
X136715347Y-105030744D01*
X136720968Y-105021463D01*
X136726899Y-105005557D01*
X136766435Y-104946388D01*
X136799876Y-104891170D01*
X136811456Y-104879010D01*
X136824192Y-104859949D01*
X136871892Y-104815545D01*
X136912404Y-104773004D01*
X136931242Y-104760298D01*
X136952372Y-104740628D01*
X137003834Y-104711334D01*
X137047678Y-104681761D01*
X137074309Y-104671217D01*
X137104564Y-104653995D01*
X137155690Y-104638996D01*
X137199391Y-104621694D01*
X137233499Y-104616170D01*
X137272603Y-104604698D01*
X137319882Y-104602179D01*
X137360464Y-104595606D01*
X137400856Y-104597864D01*
X137447477Y-104595380D01*
X137488225Y-104602749D01*
X137488225Y-104602749D01*
G37*
G36*
X159488225Y-102602749D02*
G01*
X159523382Y-102604714D01*
X159568027Y-102617179D01*
X159619803Y-102626542D01*
X159652320Y-102640715D01*
X159680541Y-102648594D01*
X159726654Y-102673113D01*
X159780339Y-102696511D01*
X159803972Y-102714223D01*
X159824615Y-102725199D01*
X159868854Y-102762849D01*
X159920473Y-102801536D01*
X159935587Y-102819645D01*
X159948877Y-102830955D01*
X159987520Y-102881865D01*
X160032688Y-102935981D01*
X160040571Y-102951757D01*
X160047529Y-102960924D01*
X160076748Y-103024159D01*
X160110963Y-103092635D01*
X160113639Y-103103998D01*
X160115972Y-103109048D01*
X160132095Y-103182381D01*
X160151101Y-103263095D01*
X160150902Y-103285871D01*
X160150374Y-103437040D01*
X160149552Y-103440660D01*
X160149470Y-103450001D01*
X160130118Y-103526200D01*
X160114272Y-103595947D01*
X160110214Y-103604571D01*
X160106363Y-103619734D01*
X160072838Y-103683999D01*
X160044799Y-103743584D01*
X160035359Y-103755842D01*
X160025366Y-103774998D01*
X159981865Y-103825306D01*
X159945239Y-103872865D01*
X159928844Y-103886622D01*
X159910822Y-103907464D01*
X159861751Y-103942921D01*
X159820242Y-103977751D01*
X159796024Y-103990412D01*
X159768877Y-104010027D01*
X159718451Y-104030966D01*
X159675637Y-104053348D01*
X159643559Y-104062063D01*
X159607144Y-104077184D01*
X159559110Y-104085007D01*
X159518177Y-104096128D01*
X159479084Y-104098040D01*
X159434299Y-104105334D01*
X159391674Y-104102316D01*
X159355199Y-104104100D01*
X159310789Y-104096589D01*
X159259615Y-104092965D01*
X159224495Y-104081993D01*
X159194308Y-104076887D01*
X159147091Y-104057810D01*
X159092462Y-104040743D01*
X159065922Y-104025016D01*
X159043020Y-104015763D01*
X158996152Y-103983672D01*
X158941805Y-103951467D01*
X158923877Y-103934184D01*
X158908387Y-103923578D01*
X158865507Y-103877915D01*
X158815727Y-103829927D01*
X158805473Y-103813985D01*
X158796687Y-103804629D01*
X158761657Y-103745866D01*
X158720991Y-103682643D01*
X158716663Y-103670387D01*
X158713135Y-103664469D01*
X158689780Y-103594261D01*
X158662678Y-103517515D01*
X158661925Y-103510525D01*
X158661631Y-103509642D01*
X158653746Y-103434624D01*
X158643917Y-103343402D01*
X158654330Y-103260392D01*
X158662763Y-103185207D01*
X158664344Y-103180563D01*
X158665714Y-103169642D01*
X158692689Y-103097301D01*
X158715347Y-103030744D01*
X158720968Y-103021463D01*
X158726899Y-103005557D01*
X158766435Y-102946388D01*
X158799876Y-102891170D01*
X158811456Y-102879010D01*
X158824192Y-102859949D01*
X158871892Y-102815545D01*
X158912404Y-102773004D01*
X158931242Y-102760298D01*
X158952372Y-102740628D01*
X159003834Y-102711334D01*
X159047678Y-102681761D01*
X159074309Y-102671217D01*
X159104564Y-102653995D01*
X159155690Y-102638996D01*
X159199391Y-102621694D01*
X159233499Y-102616170D01*
X159272603Y-102604698D01*
X159319882Y-102602179D01*
X159360464Y-102595606D01*
X159400856Y-102597864D01*
X159447477Y-102595380D01*
X159488225Y-102602749D01*
X159488225Y-102602749D01*
G37*
G36*
X137488225Y-102602749D02*
G01*
X137523382Y-102604714D01*
X137568027Y-102617179D01*
X137619803Y-102626542D01*
X137652320Y-102640715D01*
X137680541Y-102648594D01*
X137726654Y-102673113D01*
X137780339Y-102696511D01*
X137803972Y-102714223D01*
X137824615Y-102725199D01*
X137868854Y-102762849D01*
X137920473Y-102801536D01*
X137935587Y-102819645D01*
X137948877Y-102830955D01*
X137987520Y-102881865D01*
X138032688Y-102935981D01*
X138040571Y-102951757D01*
X138047529Y-102960924D01*
X138076748Y-103024159D01*
X138110963Y-103092635D01*
X138113639Y-103103998D01*
X138115972Y-103109048D01*
X138132095Y-103182381D01*
X138151101Y-103263095D01*
X138150902Y-103285871D01*
X138150374Y-103437040D01*
X138149552Y-103440660D01*
X138149470Y-103450001D01*
X138130118Y-103526200D01*
X138114272Y-103595947D01*
X138110214Y-103604571D01*
X138106363Y-103619734D01*
X138072838Y-103683999D01*
X138044799Y-103743584D01*
X138035359Y-103755842D01*
X138025366Y-103774998D01*
X137981865Y-103825306D01*
X137945239Y-103872865D01*
X137928844Y-103886622D01*
X137910822Y-103907464D01*
X137861751Y-103942921D01*
X137820242Y-103977751D01*
X137796024Y-103990412D01*
X137768877Y-104010027D01*
X137718451Y-104030966D01*
X137675637Y-104053348D01*
X137643559Y-104062063D01*
X137607144Y-104077184D01*
X137559110Y-104085007D01*
X137518177Y-104096128D01*
X137479084Y-104098040D01*
X137434299Y-104105334D01*
X137391674Y-104102316D01*
X137355199Y-104104100D01*
X137310789Y-104096589D01*
X137259615Y-104092965D01*
X137224495Y-104081993D01*
X137194308Y-104076887D01*
X137147091Y-104057810D01*
X137092462Y-104040743D01*
X137065922Y-104025016D01*
X137043020Y-104015763D01*
X136996152Y-103983672D01*
X136941805Y-103951467D01*
X136923877Y-103934184D01*
X136908387Y-103923578D01*
X136865507Y-103877915D01*
X136815727Y-103829927D01*
X136805473Y-103813985D01*
X136796687Y-103804629D01*
X136761657Y-103745866D01*
X136720991Y-103682643D01*
X136716663Y-103670387D01*
X136713135Y-103664469D01*
X136689780Y-103594261D01*
X136662678Y-103517515D01*
X136661925Y-103510525D01*
X136661631Y-103509642D01*
X136653746Y-103434624D01*
X136643917Y-103343402D01*
X136654330Y-103260392D01*
X136662763Y-103185207D01*
X136664344Y-103180563D01*
X136665714Y-103169642D01*
X136692689Y-103097301D01*
X136715347Y-103030744D01*
X136720968Y-103021463D01*
X136726899Y-103005557D01*
X136766435Y-102946388D01*
X136799876Y-102891170D01*
X136811456Y-102879010D01*
X136824192Y-102859949D01*
X136871892Y-102815545D01*
X136912404Y-102773004D01*
X136931242Y-102760298D01*
X136952372Y-102740628D01*
X137003834Y-102711334D01*
X137047678Y-102681761D01*
X137074309Y-102671217D01*
X137104564Y-102653995D01*
X137155690Y-102638996D01*
X137199391Y-102621694D01*
X137233499Y-102616170D01*
X137272603Y-102604698D01*
X137319882Y-102602179D01*
X137360464Y-102595606D01*
X137400856Y-102597864D01*
X137447477Y-102595380D01*
X137488225Y-102602749D01*
X137488225Y-102602749D01*
G37*
G36*
X144951000Y-103126000D02*
G01*
X142149000Y-103126000D01*
X142149000Y-100474000D01*
X144951000Y-100474000D01*
X144951000Y-103126000D01*
X144951000Y-103126000D01*
G37*
G36*
X137488225Y-100602749D02*
G01*
X137523382Y-100604714D01*
X137568027Y-100617179D01*
X137619803Y-100626542D01*
X137652320Y-100640715D01*
X137680541Y-100648594D01*
X137726654Y-100673113D01*
X137780339Y-100696511D01*
X137803972Y-100714223D01*
X137824615Y-100725199D01*
X137868854Y-100762849D01*
X137920473Y-100801536D01*
X137935587Y-100819645D01*
X137948877Y-100830955D01*
X137987520Y-100881865D01*
X138032688Y-100935981D01*
X138040571Y-100951757D01*
X138047529Y-100960924D01*
X138076748Y-101024159D01*
X138110963Y-101092635D01*
X138113639Y-101103998D01*
X138115972Y-101109048D01*
X138132095Y-101182381D01*
X138151101Y-101263095D01*
X138150902Y-101285871D01*
X138150374Y-101437040D01*
X138149552Y-101440660D01*
X138149470Y-101450001D01*
X138130118Y-101526200D01*
X138114272Y-101595947D01*
X138110214Y-101604571D01*
X138106363Y-101619734D01*
X138072838Y-101683999D01*
X138044799Y-101743584D01*
X138035359Y-101755842D01*
X138025366Y-101774998D01*
X137981865Y-101825306D01*
X137945239Y-101872865D01*
X137928844Y-101886622D01*
X137910822Y-101907464D01*
X137861751Y-101942921D01*
X137820242Y-101977751D01*
X137796024Y-101990412D01*
X137768877Y-102010027D01*
X137718451Y-102030966D01*
X137675637Y-102053348D01*
X137643559Y-102062063D01*
X137607144Y-102077184D01*
X137559110Y-102085007D01*
X137518177Y-102096128D01*
X137479084Y-102098040D01*
X137434299Y-102105334D01*
X137391674Y-102102316D01*
X137355199Y-102104100D01*
X137310789Y-102096589D01*
X137259615Y-102092965D01*
X137224495Y-102081993D01*
X137194308Y-102076887D01*
X137147091Y-102057810D01*
X137092462Y-102040743D01*
X137065922Y-102025016D01*
X137043020Y-102015763D01*
X136996152Y-101983672D01*
X136941805Y-101951467D01*
X136923877Y-101934184D01*
X136908387Y-101923578D01*
X136865507Y-101877915D01*
X136815727Y-101829927D01*
X136805473Y-101813985D01*
X136796687Y-101804629D01*
X136761657Y-101745866D01*
X136720991Y-101682643D01*
X136716663Y-101670387D01*
X136713135Y-101664469D01*
X136689780Y-101594261D01*
X136662678Y-101517515D01*
X136661925Y-101510525D01*
X136661631Y-101509642D01*
X136653746Y-101434624D01*
X136643917Y-101343402D01*
X136654330Y-101260392D01*
X136662763Y-101185207D01*
X136664344Y-101180563D01*
X136665714Y-101169642D01*
X136692689Y-101097301D01*
X136715347Y-101030744D01*
X136720968Y-101021463D01*
X136726899Y-101005557D01*
X136766435Y-100946388D01*
X136799876Y-100891170D01*
X136811456Y-100879010D01*
X136824192Y-100859949D01*
X136871892Y-100815545D01*
X136912404Y-100773004D01*
X136931242Y-100760298D01*
X136952372Y-100740628D01*
X137003834Y-100711334D01*
X137047678Y-100681761D01*
X137074309Y-100671217D01*
X137104564Y-100653995D01*
X137155690Y-100638996D01*
X137199391Y-100621694D01*
X137233499Y-100616170D01*
X137272603Y-100604698D01*
X137319882Y-100602179D01*
X137360464Y-100595606D01*
X137400856Y-100597864D01*
X137447477Y-100595380D01*
X137488225Y-100602749D01*
X137488225Y-100602749D01*
G37*
G36*
X159488225Y-100602749D02*
G01*
X159523382Y-100604714D01*
X159568027Y-100617179D01*
X159619803Y-100626542D01*
X159652320Y-100640715D01*
X159680541Y-100648594D01*
X159726654Y-100673113D01*
X159780339Y-100696511D01*
X159803972Y-100714223D01*
X159824615Y-100725199D01*
X159868854Y-100762849D01*
X159920473Y-100801536D01*
X159935587Y-100819645D01*
X159948877Y-100830955D01*
X159987520Y-100881865D01*
X160032688Y-100935981D01*
X160040571Y-100951757D01*
X160047529Y-100960924D01*
X160076748Y-101024159D01*
X160110963Y-101092635D01*
X160113639Y-101103998D01*
X160115972Y-101109048D01*
X160132095Y-101182381D01*
X160151101Y-101263095D01*
X160150902Y-101285871D01*
X160150374Y-101437040D01*
X160149552Y-101440660D01*
X160149470Y-101450001D01*
X160130118Y-101526200D01*
X160114272Y-101595947D01*
X160110214Y-101604571D01*
X160106363Y-101619734D01*
X160072838Y-101683999D01*
X160044799Y-101743584D01*
X160035359Y-101755842D01*
X160025366Y-101774998D01*
X159981865Y-101825306D01*
X159945239Y-101872865D01*
X159928844Y-101886622D01*
X159910822Y-101907464D01*
X159861751Y-101942921D01*
X159820242Y-101977751D01*
X159796024Y-101990412D01*
X159768877Y-102010027D01*
X159718451Y-102030966D01*
X159675637Y-102053348D01*
X159643559Y-102062063D01*
X159607144Y-102077184D01*
X159559110Y-102085007D01*
X159518177Y-102096128D01*
X159479084Y-102098040D01*
X159434299Y-102105334D01*
X159391674Y-102102316D01*
X159355199Y-102104100D01*
X159310789Y-102096589D01*
X159259615Y-102092965D01*
X159224495Y-102081993D01*
X159194308Y-102076887D01*
X159147091Y-102057810D01*
X159092462Y-102040743D01*
X159065922Y-102025016D01*
X159043020Y-102015763D01*
X158996152Y-101983672D01*
X158941805Y-101951467D01*
X158923877Y-101934184D01*
X158908387Y-101923578D01*
X158865507Y-101877915D01*
X158815727Y-101829927D01*
X158805473Y-101813985D01*
X158796687Y-101804629D01*
X158761657Y-101745866D01*
X158720991Y-101682643D01*
X158716663Y-101670387D01*
X158713135Y-101664469D01*
X158689780Y-101594261D01*
X158662678Y-101517515D01*
X158661925Y-101510525D01*
X158661631Y-101509642D01*
X158653746Y-101434624D01*
X158643917Y-101343402D01*
X158654330Y-101260392D01*
X158662763Y-101185207D01*
X158664344Y-101180563D01*
X158665714Y-101169642D01*
X158692689Y-101097301D01*
X158715347Y-101030744D01*
X158720968Y-101021463D01*
X158726899Y-101005557D01*
X158766435Y-100946388D01*
X158799876Y-100891170D01*
X158811456Y-100879010D01*
X158824192Y-100859949D01*
X158871892Y-100815545D01*
X158912404Y-100773004D01*
X158931242Y-100760298D01*
X158952372Y-100740628D01*
X159003834Y-100711334D01*
X159047678Y-100681761D01*
X159074309Y-100671217D01*
X159104564Y-100653995D01*
X159155690Y-100638996D01*
X159199391Y-100621694D01*
X159233499Y-100616170D01*
X159272603Y-100604698D01*
X159319882Y-100602179D01*
X159360464Y-100595606D01*
X159400856Y-100597864D01*
X159447477Y-100595380D01*
X159488225Y-100602749D01*
X159488225Y-100602749D01*
G37*
G36*
X137488225Y-98602749D02*
G01*
X137523382Y-98604714D01*
X137568027Y-98617179D01*
X137619803Y-98626542D01*
X137652320Y-98640715D01*
X137680541Y-98648594D01*
X137726654Y-98673113D01*
X137780339Y-98696511D01*
X137803972Y-98714223D01*
X137824615Y-98725199D01*
X137868854Y-98762849D01*
X137920473Y-98801536D01*
X137935587Y-98819645D01*
X137948877Y-98830955D01*
X137987520Y-98881865D01*
X138032688Y-98935981D01*
X138040571Y-98951757D01*
X138047529Y-98960924D01*
X138076748Y-99024159D01*
X138110963Y-99092635D01*
X138113639Y-99103998D01*
X138115972Y-99109048D01*
X138132095Y-99182381D01*
X138151101Y-99263095D01*
X138150902Y-99285871D01*
X138150374Y-99437040D01*
X138149552Y-99440660D01*
X138149470Y-99450001D01*
X138130118Y-99526200D01*
X138114272Y-99595947D01*
X138110214Y-99604571D01*
X138106363Y-99619734D01*
X138072838Y-99683999D01*
X138044799Y-99743584D01*
X138035359Y-99755842D01*
X138025366Y-99774998D01*
X137981865Y-99825306D01*
X137945239Y-99872865D01*
X137928844Y-99886622D01*
X137910822Y-99907464D01*
X137861751Y-99942921D01*
X137820242Y-99977751D01*
X137796024Y-99990412D01*
X137768877Y-100010027D01*
X137718451Y-100030966D01*
X137675637Y-100053348D01*
X137643559Y-100062063D01*
X137607144Y-100077184D01*
X137559110Y-100085007D01*
X137518177Y-100096128D01*
X137479084Y-100098040D01*
X137434299Y-100105334D01*
X137391674Y-100102316D01*
X137355199Y-100104100D01*
X137310789Y-100096589D01*
X137259615Y-100092965D01*
X137224495Y-100081993D01*
X137194308Y-100076887D01*
X137147091Y-100057810D01*
X137092462Y-100040743D01*
X137065922Y-100025016D01*
X137043020Y-100015763D01*
X136996152Y-99983672D01*
X136941805Y-99951467D01*
X136923877Y-99934184D01*
X136908387Y-99923578D01*
X136865507Y-99877915D01*
X136815727Y-99829927D01*
X136805473Y-99813985D01*
X136796687Y-99804629D01*
X136761657Y-99745866D01*
X136720991Y-99682643D01*
X136716663Y-99670387D01*
X136713135Y-99664469D01*
X136689780Y-99594261D01*
X136662678Y-99517515D01*
X136661925Y-99510525D01*
X136661631Y-99509642D01*
X136653746Y-99434624D01*
X136643917Y-99343402D01*
X136654330Y-99260392D01*
X136662763Y-99185207D01*
X136664344Y-99180563D01*
X136665714Y-99169642D01*
X136692689Y-99097301D01*
X136715347Y-99030744D01*
X136720968Y-99021463D01*
X136726899Y-99005557D01*
X136766435Y-98946388D01*
X136799876Y-98891170D01*
X136811456Y-98879010D01*
X136824192Y-98859949D01*
X136871892Y-98815545D01*
X136912404Y-98773004D01*
X136931242Y-98760298D01*
X136952372Y-98740628D01*
X137003834Y-98711334D01*
X137047678Y-98681761D01*
X137074309Y-98671217D01*
X137104564Y-98653995D01*
X137155690Y-98638996D01*
X137199391Y-98621694D01*
X137233499Y-98616170D01*
X137272603Y-98604698D01*
X137319882Y-98602179D01*
X137360464Y-98595606D01*
X137400856Y-98597864D01*
X137447477Y-98595380D01*
X137488225Y-98602749D01*
X137488225Y-98602749D01*
G37*
G36*
X159488225Y-98602749D02*
G01*
X159523382Y-98604714D01*
X159568027Y-98617179D01*
X159619803Y-98626542D01*
X159652320Y-98640715D01*
X159680541Y-98648594D01*
X159726654Y-98673113D01*
X159780339Y-98696511D01*
X159803972Y-98714223D01*
X159824615Y-98725199D01*
X159868854Y-98762849D01*
X159920473Y-98801536D01*
X159935587Y-98819645D01*
X159948877Y-98830955D01*
X159987520Y-98881865D01*
X160032688Y-98935981D01*
X160040571Y-98951757D01*
X160047529Y-98960924D01*
X160076748Y-99024159D01*
X160110963Y-99092635D01*
X160113639Y-99103998D01*
X160115972Y-99109048D01*
X160132095Y-99182381D01*
X160151101Y-99263095D01*
X160150902Y-99285871D01*
X160150374Y-99437040D01*
X160149552Y-99440660D01*
X160149470Y-99450001D01*
X160130118Y-99526200D01*
X160114272Y-99595947D01*
X160110214Y-99604571D01*
X160106363Y-99619734D01*
X160072838Y-99683999D01*
X160044799Y-99743584D01*
X160035359Y-99755842D01*
X160025366Y-99774998D01*
X159981865Y-99825306D01*
X159945239Y-99872865D01*
X159928844Y-99886622D01*
X159910822Y-99907464D01*
X159861751Y-99942921D01*
X159820242Y-99977751D01*
X159796024Y-99990412D01*
X159768877Y-100010027D01*
X159718451Y-100030966D01*
X159675637Y-100053348D01*
X159643559Y-100062063D01*
X159607144Y-100077184D01*
X159559110Y-100085007D01*
X159518177Y-100096128D01*
X159479084Y-100098040D01*
X159434299Y-100105334D01*
X159391674Y-100102316D01*
X159355199Y-100104100D01*
X159310789Y-100096589D01*
X159259615Y-100092965D01*
X159224495Y-100081993D01*
X159194308Y-100076887D01*
X159147091Y-100057810D01*
X159092462Y-100040743D01*
X159065922Y-100025016D01*
X159043020Y-100015763D01*
X158996152Y-99983672D01*
X158941805Y-99951467D01*
X158923877Y-99934184D01*
X158908387Y-99923578D01*
X158865507Y-99877915D01*
X158815727Y-99829927D01*
X158805473Y-99813985D01*
X158796687Y-99804629D01*
X158761657Y-99745866D01*
X158720991Y-99682643D01*
X158716663Y-99670387D01*
X158713135Y-99664469D01*
X158689780Y-99594261D01*
X158662678Y-99517515D01*
X158661925Y-99510525D01*
X158661631Y-99509642D01*
X158653746Y-99434624D01*
X158643917Y-99343402D01*
X158654330Y-99260392D01*
X158662763Y-99185207D01*
X158664344Y-99180563D01*
X158665714Y-99169642D01*
X158692689Y-99097301D01*
X158715347Y-99030744D01*
X158720968Y-99021463D01*
X158726899Y-99005557D01*
X158766435Y-98946388D01*
X158799876Y-98891170D01*
X158811456Y-98879010D01*
X158824192Y-98859949D01*
X158871892Y-98815545D01*
X158912404Y-98773004D01*
X158931242Y-98760298D01*
X158952372Y-98740628D01*
X159003834Y-98711334D01*
X159047678Y-98681761D01*
X159074309Y-98671217D01*
X159104564Y-98653995D01*
X159155690Y-98638996D01*
X159199391Y-98621694D01*
X159233499Y-98616170D01*
X159272603Y-98604698D01*
X159319882Y-98602179D01*
X159360464Y-98595606D01*
X159400856Y-98597864D01*
X159447477Y-98595380D01*
X159488225Y-98602749D01*
X159488225Y-98602749D01*
G37*
G36*
X144951000Y-96776000D02*
G01*
X142149000Y-96776000D01*
X142149000Y-94124000D01*
X144951000Y-94124000D01*
X144951000Y-96776000D01*
X144951000Y-96776000D01*
G37*
M02*
