M48
; DRILL file {KiCad (5.1.0-1094-g655126d66)} date 2019 June 27, Thursday 10:43:07
; FORMAT={-:-/ absolute / inch / decimal}
; #@! TF.CreationDate,2019-06-27T10:43:07+09:00
; #@! TF.GenerationSoftware,Kicad,Pcbnew,(5.1.0-1094-g655126d66)
FMAT,2
INCH
T1C0.0157
T2C0.0197
T3C0.0276
T4C0.0354
%
G90
G05
T1
X5.5441Y-4.4883
X5.5546Y-4.1221
X5.5873Y-3.9305
X5.6024Y-4.5303
X5.6497Y-4.2299
X5.6873Y-4.1554
X5.7488Y-4.6094
T2
X5.4154Y-4.7303
X5.5591Y-3.969
X5.5699Y-3.7575
X5.5942Y-4.6132
X6.0138Y-4.2303
X6.0138Y-4.3898
T3
X5.4094Y-3.9114
X5.4094Y-3.9902
X5.4094Y-4.0689
X5.4094Y-4.1476
X5.4094Y-4.2264
X5.4094Y-4.3051
X5.4094Y-4.3839
X5.4094Y-4.4626
X5.4094Y-4.5413
X5.4094Y-4.6201
X6.2756Y-3.9114
X6.2756Y-3.9902
X6.2756Y-4.0689
X6.2756Y-4.1476
X6.2756Y-4.2264
X6.2756Y-4.3051
X6.2756Y-4.3839
X6.2756Y-4.4626
X6.2756Y-4.5413
X6.2756Y-4.6201
T4
X5.563Y-4.7472
X5.6811Y-4.7472
T0
M30
