%TF.GenerationSoftware,KiCad,Pcbnew,(5.1.0-1094-g655126d66)*%
%TF.CreationDate,2019-06-26T20:43:34+09:00*%
%TF.ProjectId,xbee,78626565-2e6b-4696-9361-645f70636258,rev?*%
%TF.SameCoordinates,Original*%
%TF.FileFunction,Legend,Bot*%
%TF.FilePolarity,Positive*%
%FSLAX46Y46*%
G04 Gerber Fmt 4.6, Leading zero omitted, Abs format (unit mm)*
G04 Created by KiCad (PCBNEW (5.1.0-1094-g655126d66)) date 2019-06-26 20:43:34*
%MOMM*%
%LPD*%
G04 APERTURE LIST*
%ADD10C,0.100000*%
%ADD11C,0.150000*%
%ADD12C,0.010000*%
%ADD13C,0.120000*%
%ADD14C,0.075000*%
G04 APERTURE END LIST*
D10*
X155761904Y-95005238D02*
X154961904Y-95005238D01*
X155761904Y-95348095D02*
X155342857Y-95348095D01*
X155266666Y-95310000D01*
X155228571Y-95233809D01*
X155228571Y-95119523D01*
X155266666Y-95043333D01*
X155304761Y-95005238D01*
X155228571Y-95614761D02*
X155228571Y-95919523D01*
X154961904Y-95729047D02*
X155647619Y-95729047D01*
X155723809Y-95767142D01*
X155761904Y-95843333D01*
X155761904Y-95919523D01*
X155228571Y-96071904D02*
X155228571Y-96376666D01*
X154961904Y-96186190D02*
X155647619Y-96186190D01*
X155723809Y-96224285D01*
X155761904Y-96300476D01*
X155761904Y-96376666D01*
X155228571Y-96643333D02*
X156028571Y-96643333D01*
X155266666Y-96643333D02*
X155228571Y-96719523D01*
X155228571Y-96871904D01*
X155266666Y-96948095D01*
X155304761Y-96986190D01*
X155380952Y-97024285D01*
X155609523Y-97024285D01*
X155685714Y-96986190D01*
X155723809Y-96948095D01*
X155761904Y-96871904D01*
X155761904Y-96719523D01*
X155723809Y-96643333D01*
X155723809Y-97329047D02*
X155761904Y-97405238D01*
X155761904Y-97557619D01*
X155723809Y-97633809D01*
X155647619Y-97671904D01*
X155609523Y-97671904D01*
X155533333Y-97633809D01*
X155495238Y-97557619D01*
X155495238Y-97443333D01*
X155457142Y-97367142D01*
X155380952Y-97329047D01*
X155342857Y-97329047D01*
X155266666Y-97367142D01*
X155228571Y-97443333D01*
X155228571Y-97557619D01*
X155266666Y-97633809D01*
X155685714Y-98014761D02*
X155723809Y-98052857D01*
X155761904Y-98014761D01*
X155723809Y-97976666D01*
X155685714Y-98014761D01*
X155761904Y-98014761D01*
X155266666Y-98014761D02*
X155304761Y-98052857D01*
X155342857Y-98014761D01*
X155304761Y-97976666D01*
X155266666Y-98014761D01*
X155342857Y-98014761D01*
X154923809Y-98967142D02*
X155952380Y-98281428D01*
X154923809Y-99805238D02*
X155952380Y-99119523D01*
X155723809Y-100033809D02*
X155761904Y-100110000D01*
X155761904Y-100262380D01*
X155723809Y-100338571D01*
X155647619Y-100376666D01*
X155609523Y-100376666D01*
X155533333Y-100338571D01*
X155495238Y-100262380D01*
X155495238Y-100148095D01*
X155457142Y-100071904D01*
X155380952Y-100033809D01*
X155342857Y-100033809D01*
X155266666Y-100071904D01*
X155228571Y-100148095D01*
X155228571Y-100262380D01*
X155266666Y-100338571D01*
X155761904Y-101062380D02*
X155342857Y-101062380D01*
X155266666Y-101024285D01*
X155228571Y-100948095D01*
X155228571Y-100795714D01*
X155266666Y-100719523D01*
X155723809Y-101062380D02*
X155761904Y-100986190D01*
X155761904Y-100795714D01*
X155723809Y-100719523D01*
X155647619Y-100681428D01*
X155571428Y-100681428D01*
X155495238Y-100719523D01*
X155457142Y-100795714D01*
X155457142Y-100986190D01*
X155419047Y-101062380D01*
X155228571Y-101329047D02*
X155228571Y-101633809D01*
X155761904Y-101443333D02*
X155076190Y-101443333D01*
X155000000Y-101481428D01*
X154961904Y-101557619D01*
X154961904Y-101633809D01*
X155723809Y-102205238D02*
X155761904Y-102129047D01*
X155761904Y-101976666D01*
X155723809Y-101900476D01*
X155647619Y-101862380D01*
X155342857Y-101862380D01*
X155266666Y-101900476D01*
X155228571Y-101976666D01*
X155228571Y-102129047D01*
X155266666Y-102205238D01*
X155342857Y-102243333D01*
X155419047Y-102243333D01*
X155495238Y-101862380D01*
X155723809Y-102929047D02*
X155761904Y-102852857D01*
X155761904Y-102700476D01*
X155723809Y-102624285D01*
X155685714Y-102586190D01*
X155609523Y-102548095D01*
X155380952Y-102548095D01*
X155304761Y-102586190D01*
X155266666Y-102624285D01*
X155228571Y-102700476D01*
X155228571Y-102852857D01*
X155266666Y-102929047D01*
X155761904Y-103614761D02*
X155342857Y-103614761D01*
X155266666Y-103576666D01*
X155228571Y-103500476D01*
X155228571Y-103348095D01*
X155266666Y-103271904D01*
X155723809Y-103614761D02*
X155761904Y-103538571D01*
X155761904Y-103348095D01*
X155723809Y-103271904D01*
X155647619Y-103233809D01*
X155571428Y-103233809D01*
X155495238Y-103271904D01*
X155457142Y-103348095D01*
X155457142Y-103538571D01*
X155419047Y-103614761D01*
X155723809Y-103957619D02*
X155761904Y-104033809D01*
X155761904Y-104186190D01*
X155723809Y-104262380D01*
X155647619Y-104300476D01*
X155609523Y-104300476D01*
X155533333Y-104262380D01*
X155495238Y-104186190D01*
X155495238Y-104071904D01*
X155457142Y-103995714D01*
X155380952Y-103957619D01*
X155342857Y-103957619D01*
X155266666Y-103995714D01*
X155228571Y-104071904D01*
X155228571Y-104186190D01*
X155266666Y-104262380D01*
X155228571Y-104529047D02*
X155228571Y-104833809D01*
X154961904Y-104643333D02*
X155647619Y-104643333D01*
X155723809Y-104681428D01*
X155761904Y-104757619D01*
X155761904Y-104833809D01*
X155685714Y-105100476D02*
X155723809Y-105138571D01*
X155761904Y-105100476D01*
X155723809Y-105062380D01*
X155685714Y-105100476D01*
X155761904Y-105100476D01*
X155761904Y-105595714D02*
X155723809Y-105519523D01*
X155685714Y-105481428D01*
X155609523Y-105443333D01*
X155380952Y-105443333D01*
X155304761Y-105481428D01*
X155266666Y-105519523D01*
X155228571Y-105595714D01*
X155228571Y-105710000D01*
X155266666Y-105786190D01*
X155304761Y-105824285D01*
X155380952Y-105862380D01*
X155609523Y-105862380D01*
X155685714Y-105824285D01*
X155723809Y-105786190D01*
X155761904Y-105710000D01*
X155761904Y-105595714D01*
X155761904Y-106205238D02*
X155228571Y-106205238D01*
X155380952Y-106205238D02*
X155304761Y-106243333D01*
X155266666Y-106281428D01*
X155228571Y-106357619D01*
X155228571Y-106433809D01*
X155228571Y-107043333D02*
X155876190Y-107043333D01*
X155952380Y-107005238D01*
X155990476Y-106967142D01*
X156028571Y-106890952D01*
X156028571Y-106776666D01*
X155990476Y-106700476D01*
X155723809Y-107043333D02*
X155761904Y-106967142D01*
X155761904Y-106814761D01*
X155723809Y-106738571D01*
X155685714Y-106700476D01*
X155609523Y-106662380D01*
X155380952Y-106662380D01*
X155304761Y-106700476D01*
X155266666Y-106738571D01*
X155228571Y-106814761D01*
X155228571Y-106967142D01*
X155266666Y-107043333D01*
X154923809Y-107995714D02*
X155952380Y-107310000D01*
X155761904Y-108262380D02*
X154961904Y-108262380D01*
X155266666Y-108262380D02*
X155228571Y-108338571D01*
X155228571Y-108490952D01*
X155266666Y-108567142D01*
X155304761Y-108605238D01*
X155380952Y-108643333D01*
X155609523Y-108643333D01*
X155685714Y-108605238D01*
X155723809Y-108567142D01*
X155761904Y-108490952D01*
X155761904Y-108338571D01*
X155723809Y-108262380D01*
X155228571Y-109329047D02*
X155876190Y-109329047D01*
X155952380Y-109290952D01*
X155990476Y-109252857D01*
X156028571Y-109176666D01*
X156028571Y-109062380D01*
X155990476Y-108986190D01*
X155723809Y-109329047D02*
X155761904Y-109252857D01*
X155761904Y-109100476D01*
X155723809Y-109024285D01*
X155685714Y-108986190D01*
X155609523Y-108948095D01*
X155380952Y-108948095D01*
X155304761Y-108986190D01*
X155266666Y-109024285D01*
X155228571Y-109100476D01*
X155228571Y-109252857D01*
X155266666Y-109329047D01*
X155723809Y-110052857D02*
X155761904Y-109976666D01*
X155761904Y-109824285D01*
X155723809Y-109748095D01*
X155685714Y-109710000D01*
X155609523Y-109671904D01*
X155380952Y-109671904D01*
X155304761Y-109710000D01*
X155266666Y-109748095D01*
X155228571Y-109824285D01*
X155228571Y-109976666D01*
X155266666Y-110052857D01*
X149733809Y-94567380D02*
X149771904Y-94681666D01*
X149771904Y-94872142D01*
X149733809Y-94948333D01*
X149695714Y-94986428D01*
X149619523Y-95024523D01*
X149543333Y-95024523D01*
X149467142Y-94986428D01*
X149429047Y-94948333D01*
X149390952Y-94872142D01*
X149352857Y-94719761D01*
X149314761Y-94643571D01*
X149276666Y-94605476D01*
X149200476Y-94567380D01*
X149124285Y-94567380D01*
X149048095Y-94605476D01*
X149010000Y-94643571D01*
X148971904Y-94719761D01*
X148971904Y-94910238D01*
X149010000Y-95024523D01*
X149733809Y-95710238D02*
X149771904Y-95634047D01*
X149771904Y-95481666D01*
X149733809Y-95405476D01*
X149695714Y-95367380D01*
X149619523Y-95329285D01*
X149390952Y-95329285D01*
X149314761Y-95367380D01*
X149276666Y-95405476D01*
X149238571Y-95481666D01*
X149238571Y-95634047D01*
X149276666Y-95710238D01*
X149771904Y-96395952D02*
X149352857Y-96395952D01*
X149276666Y-96357857D01*
X149238571Y-96281666D01*
X149238571Y-96129285D01*
X149276666Y-96053095D01*
X149733809Y-96395952D02*
X149771904Y-96319761D01*
X149771904Y-96129285D01*
X149733809Y-96053095D01*
X149657619Y-96015000D01*
X149581428Y-96015000D01*
X149505238Y-96053095D01*
X149467142Y-96129285D01*
X149467142Y-96319761D01*
X149429047Y-96395952D01*
X149238571Y-96776904D02*
X149771904Y-96776904D01*
X149314761Y-96776904D02*
X149276666Y-96815000D01*
X149238571Y-96891190D01*
X149238571Y-97005476D01*
X149276666Y-97081666D01*
X149352857Y-97119761D01*
X149771904Y-97119761D01*
X149848095Y-98643571D02*
X149810000Y-98567380D01*
X149733809Y-98491190D01*
X149619523Y-98376904D01*
X149581428Y-98300714D01*
X149581428Y-98224523D01*
X149771904Y-98262619D02*
X149733809Y-98186428D01*
X149657619Y-98110238D01*
X149505238Y-98072142D01*
X149238571Y-98072142D01*
X149086190Y-98110238D01*
X149010000Y-98186428D01*
X148971904Y-98262619D01*
X148971904Y-98415000D01*
X149010000Y-98491190D01*
X149086190Y-98567380D01*
X149238571Y-98605476D01*
X149505238Y-98605476D01*
X149657619Y-98567380D01*
X149733809Y-98491190D01*
X149771904Y-98415000D01*
X149771904Y-98262619D01*
X149771904Y-99405476D02*
X149390952Y-99138809D01*
X149771904Y-98948333D02*
X148971904Y-98948333D01*
X148971904Y-99253095D01*
X149010000Y-99329285D01*
X149048095Y-99367380D01*
X149124285Y-99405476D01*
X149238571Y-99405476D01*
X149314761Y-99367380D01*
X149352857Y-99329285D01*
X149390952Y-99253095D01*
X149390952Y-98948333D01*
X149733809Y-100700714D02*
X149771904Y-100624523D01*
X149771904Y-100472142D01*
X149733809Y-100395952D01*
X149695714Y-100357857D01*
X149619523Y-100319761D01*
X149390952Y-100319761D01*
X149314761Y-100357857D01*
X149276666Y-100395952D01*
X149238571Y-100472142D01*
X149238571Y-100624523D01*
X149276666Y-100700714D01*
X149771904Y-101157857D02*
X149733809Y-101081666D01*
X149695714Y-101043571D01*
X149619523Y-101005476D01*
X149390952Y-101005476D01*
X149314761Y-101043571D01*
X149276666Y-101081666D01*
X149238571Y-101157857D01*
X149238571Y-101272142D01*
X149276666Y-101348333D01*
X149314761Y-101386428D01*
X149390952Y-101424523D01*
X149619523Y-101424523D01*
X149695714Y-101386428D01*
X149733809Y-101348333D01*
X149771904Y-101272142D01*
X149771904Y-101157857D01*
X149771904Y-102110238D02*
X148971904Y-102110238D01*
X149733809Y-102110238D02*
X149771904Y-102034047D01*
X149771904Y-101881666D01*
X149733809Y-101805476D01*
X149695714Y-101767380D01*
X149619523Y-101729285D01*
X149390952Y-101729285D01*
X149314761Y-101767380D01*
X149276666Y-101805476D01*
X149238571Y-101881666D01*
X149238571Y-102034047D01*
X149276666Y-102110238D01*
X149733809Y-102795952D02*
X149771904Y-102719761D01*
X149771904Y-102567380D01*
X149733809Y-102491190D01*
X149657619Y-102453095D01*
X149352857Y-102453095D01*
X149276666Y-102491190D01*
X149238571Y-102567380D01*
X149238571Y-102719761D01*
X149276666Y-102795952D01*
X149352857Y-102834047D01*
X149429047Y-102834047D01*
X149505238Y-102453095D01*
X150538571Y-94491190D02*
X150538571Y-94795952D01*
X151071904Y-94605476D02*
X150386190Y-94605476D01*
X150310000Y-94643571D01*
X150271904Y-94719761D01*
X150271904Y-94795952D01*
X151071904Y-95176904D02*
X151033809Y-95100714D01*
X150995714Y-95062619D01*
X150919523Y-95024523D01*
X150690952Y-95024523D01*
X150614761Y-95062619D01*
X150576666Y-95100714D01*
X150538571Y-95176904D01*
X150538571Y-95291190D01*
X150576666Y-95367380D01*
X150614761Y-95405476D01*
X150690952Y-95443571D01*
X150919523Y-95443571D01*
X150995714Y-95405476D01*
X151033809Y-95367380D01*
X151071904Y-95291190D01*
X151071904Y-95176904D01*
X151071904Y-95786428D02*
X150538571Y-95786428D01*
X150690952Y-95786428D02*
X150614761Y-95824523D01*
X150576666Y-95862619D01*
X150538571Y-95938809D01*
X150538571Y-96015000D01*
X151071904Y-96891190D02*
X150538571Y-96891190D01*
X150614761Y-96891190D02*
X150576666Y-96929285D01*
X150538571Y-97005476D01*
X150538571Y-97119761D01*
X150576666Y-97195952D01*
X150652857Y-97234047D01*
X151071904Y-97234047D01*
X150652857Y-97234047D02*
X150576666Y-97272142D01*
X150538571Y-97348333D01*
X150538571Y-97462619D01*
X150576666Y-97538809D01*
X150652857Y-97576904D01*
X151071904Y-97576904D01*
X151071904Y-98300714D02*
X150652857Y-98300714D01*
X150576666Y-98262619D01*
X150538571Y-98186428D01*
X150538571Y-98034047D01*
X150576666Y-97957857D01*
X151033809Y-98300714D02*
X151071904Y-98224523D01*
X151071904Y-98034047D01*
X151033809Y-97957857D01*
X150957619Y-97919761D01*
X150881428Y-97919761D01*
X150805238Y-97957857D01*
X150767142Y-98034047D01*
X150767142Y-98224523D01*
X150729047Y-98300714D01*
X150538571Y-98681666D02*
X151071904Y-98681666D01*
X150614761Y-98681666D02*
X150576666Y-98719761D01*
X150538571Y-98795952D01*
X150538571Y-98910238D01*
X150576666Y-98986428D01*
X150652857Y-99024523D01*
X151071904Y-99024523D01*
X150538571Y-99748333D02*
X151071904Y-99748333D01*
X150538571Y-99405476D02*
X150957619Y-99405476D01*
X151033809Y-99443571D01*
X151071904Y-99519761D01*
X151071904Y-99634047D01*
X151033809Y-99710238D01*
X150995714Y-99748333D01*
X151071904Y-100472142D02*
X150652857Y-100472142D01*
X150576666Y-100434047D01*
X150538571Y-100357857D01*
X150538571Y-100205476D01*
X150576666Y-100129285D01*
X151033809Y-100472142D02*
X151071904Y-100395952D01*
X151071904Y-100205476D01*
X151033809Y-100129285D01*
X150957619Y-100091190D01*
X150881428Y-100091190D01*
X150805238Y-100129285D01*
X150767142Y-100205476D01*
X150767142Y-100395952D01*
X150729047Y-100472142D01*
X151071904Y-100967380D02*
X151033809Y-100891190D01*
X150957619Y-100853095D01*
X150271904Y-100853095D01*
X152371904Y-94605476D02*
X151571904Y-94605476D01*
X151876666Y-94605476D02*
X151838571Y-94681666D01*
X151838571Y-94834047D01*
X151876666Y-94910238D01*
X151914761Y-94948333D01*
X151990952Y-94986428D01*
X152219523Y-94986428D01*
X152295714Y-94948333D01*
X152333809Y-94910238D01*
X152371904Y-94834047D01*
X152371904Y-94681666D01*
X152333809Y-94605476D01*
X151610000Y-95748333D02*
X151571904Y-95672142D01*
X151571904Y-95557857D01*
X151610000Y-95443571D01*
X151686190Y-95367380D01*
X151762380Y-95329285D01*
X151914761Y-95291190D01*
X152029047Y-95291190D01*
X152181428Y-95329285D01*
X152257619Y-95367380D01*
X152333809Y-95443571D01*
X152371904Y-95557857D01*
X152371904Y-95634047D01*
X152333809Y-95748333D01*
X152295714Y-95786428D01*
X152029047Y-95786428D01*
X152029047Y-95634047D01*
X152333809Y-96434047D02*
X152371904Y-96357857D01*
X152371904Y-96205476D01*
X152333809Y-96129285D01*
X152257619Y-96091190D01*
X151952857Y-96091190D01*
X151876666Y-96129285D01*
X151838571Y-96205476D01*
X151838571Y-96357857D01*
X151876666Y-96434047D01*
X151952857Y-96472142D01*
X152029047Y-96472142D01*
X152105238Y-96091190D01*
X152371904Y-96815000D02*
X151838571Y-96815000D01*
X151571904Y-96815000D02*
X151610000Y-96776904D01*
X151648095Y-96815000D01*
X151610000Y-96853095D01*
X151571904Y-96815000D01*
X151648095Y-96815000D01*
X151838571Y-97538809D02*
X152486190Y-97538809D01*
X152562380Y-97500714D01*
X152600476Y-97462619D01*
X152638571Y-97386428D01*
X152638571Y-97272142D01*
X152600476Y-97195952D01*
X152333809Y-97538809D02*
X152371904Y-97462619D01*
X152371904Y-97310238D01*
X152333809Y-97234047D01*
X152295714Y-97195952D01*
X152219523Y-97157857D01*
X151990952Y-97157857D01*
X151914761Y-97195952D01*
X151876666Y-97234047D01*
X151838571Y-97310238D01*
X151838571Y-97462619D01*
X151876666Y-97538809D01*
X152371904Y-97919761D02*
X151838571Y-97919761D01*
X151571904Y-97919761D02*
X151610000Y-97881666D01*
X151648095Y-97919761D01*
X151610000Y-97957857D01*
X151571904Y-97919761D01*
X151648095Y-97919761D01*
X152333809Y-98605476D02*
X152371904Y-98529285D01*
X152371904Y-98376904D01*
X152333809Y-98300714D01*
X152257619Y-98262619D01*
X151952857Y-98262619D01*
X151876666Y-98300714D01*
X151838571Y-98376904D01*
X151838571Y-98529285D01*
X151876666Y-98605476D01*
X151952857Y-98643571D01*
X152029047Y-98643571D01*
X152105238Y-98262619D01*
X152067142Y-98986428D02*
X152067142Y-99595952D01*
X152295714Y-100434047D02*
X152333809Y-100395952D01*
X152371904Y-100281666D01*
X152371904Y-100205476D01*
X152333809Y-100091190D01*
X152257619Y-100015000D01*
X152181428Y-99976904D01*
X152029047Y-99938809D01*
X151914761Y-99938809D01*
X151762380Y-99976904D01*
X151686190Y-100015000D01*
X151610000Y-100091190D01*
X151571904Y-100205476D01*
X151571904Y-100281666D01*
X151610000Y-100395952D01*
X151648095Y-100434047D01*
X152371904Y-101119761D02*
X151952857Y-101119761D01*
X151876666Y-101081666D01*
X151838571Y-101005476D01*
X151838571Y-100853095D01*
X151876666Y-100776904D01*
X152333809Y-101119761D02*
X152371904Y-101043571D01*
X152371904Y-100853095D01*
X152333809Y-100776904D01*
X152257619Y-100738809D01*
X152181428Y-100738809D01*
X152105238Y-100776904D01*
X152067142Y-100853095D01*
X152067142Y-101043571D01*
X152029047Y-101119761D01*
X152333809Y-101462619D02*
X152371904Y-101538809D01*
X152371904Y-101691190D01*
X152333809Y-101767380D01*
X152257619Y-101805476D01*
X152219523Y-101805476D01*
X152143333Y-101767380D01*
X152105238Y-101691190D01*
X152105238Y-101576904D01*
X152067142Y-101500714D01*
X151990952Y-101462619D01*
X151952857Y-101462619D01*
X151876666Y-101500714D01*
X151838571Y-101576904D01*
X151838571Y-101691190D01*
X151876666Y-101767380D01*
X151838571Y-102034047D02*
X151838571Y-102338809D01*
X151571904Y-102148333D02*
X152257619Y-102148333D01*
X152333809Y-102186428D01*
X152371904Y-102262619D01*
X152371904Y-102338809D01*
X151571904Y-103100714D02*
X152371904Y-103367380D01*
X151571904Y-103634047D01*
X152371904Y-104319761D02*
X152371904Y-103862619D01*
X152371904Y-104091190D02*
X151571904Y-104091190D01*
X151686190Y-104015000D01*
X151762380Y-103938809D01*
X151800476Y-103862619D01*
X152295714Y-104662619D02*
X152333809Y-104700714D01*
X152371904Y-104662619D01*
X152333809Y-104624523D01*
X152295714Y-104662619D01*
X152371904Y-104662619D01*
X151838571Y-105386428D02*
X152371904Y-105386428D01*
X151533809Y-105195952D02*
X152105238Y-105005476D01*
X152105238Y-105500714D01*
X152295714Y-105805476D02*
X152333809Y-105843571D01*
X152371904Y-105805476D01*
X152333809Y-105767380D01*
X152295714Y-105805476D01*
X152371904Y-105805476D01*
X151571904Y-106338809D02*
X151571904Y-106415000D01*
X151610000Y-106491190D01*
X151648095Y-106529285D01*
X151724285Y-106567380D01*
X151876666Y-106605476D01*
X152067142Y-106605476D01*
X152219523Y-106567380D01*
X152295714Y-106529285D01*
X152333809Y-106491190D01*
X152371904Y-106415000D01*
X152371904Y-106338809D01*
X152333809Y-106262619D01*
X152295714Y-106224523D01*
X152219523Y-106186428D01*
X152067142Y-106148333D01*
X151876666Y-106148333D01*
X151724285Y-106186428D01*
X151648095Y-106224523D01*
X151610000Y-106262619D01*
X151571904Y-106338809D01*
X153671904Y-94605476D02*
X153138571Y-94605476D01*
X152871904Y-94605476D02*
X152910000Y-94567380D01*
X152948095Y-94605476D01*
X152910000Y-94643571D01*
X152871904Y-94605476D01*
X152948095Y-94605476D01*
X153138571Y-94986428D02*
X153671904Y-94986428D01*
X153214761Y-94986428D02*
X153176666Y-95024523D01*
X153138571Y-95100714D01*
X153138571Y-95215000D01*
X153176666Y-95291190D01*
X153252857Y-95329285D01*
X153671904Y-95329285D01*
X153138571Y-95595952D02*
X153138571Y-95900714D01*
X153671904Y-95710238D02*
X152986190Y-95710238D01*
X152910000Y-95748333D01*
X152871904Y-95824523D01*
X152871904Y-95900714D01*
X153671904Y-96281666D02*
X153633809Y-96205476D01*
X153595714Y-96167380D01*
X153519523Y-96129285D01*
X153290952Y-96129285D01*
X153214761Y-96167380D01*
X153176666Y-96205476D01*
X153138571Y-96281666D01*
X153138571Y-96395952D01*
X153176666Y-96472142D01*
X153214761Y-96510238D01*
X153290952Y-96548333D01*
X153519523Y-96548333D01*
X153595714Y-96510238D01*
X153633809Y-96472142D01*
X153671904Y-96395952D01*
X153671904Y-96281666D01*
X153290952Y-97386428D02*
X153252857Y-97348333D01*
X153214761Y-97272142D01*
X153214761Y-97195952D01*
X153252857Y-97119761D01*
X153290952Y-97081666D01*
X153367142Y-97043571D01*
X153443333Y-97043571D01*
X153519523Y-97081666D01*
X153557619Y-97119761D01*
X153595714Y-97195952D01*
X153595714Y-97272142D01*
X153557619Y-97348333D01*
X153519523Y-97386428D01*
X153214761Y-97386428D02*
X153519523Y-97386428D01*
X153557619Y-97424523D01*
X153557619Y-97462619D01*
X153519523Y-97538809D01*
X153443333Y-97576904D01*
X153252857Y-97576904D01*
X153138571Y-97500714D01*
X153062380Y-97386428D01*
X153024285Y-97234047D01*
X153062380Y-97081666D01*
X153138571Y-96967380D01*
X153252857Y-96891190D01*
X153405238Y-96853095D01*
X153557619Y-96891190D01*
X153671904Y-96967380D01*
X153748095Y-97081666D01*
X153786190Y-97234047D01*
X153748095Y-97386428D01*
X153671904Y-97500714D01*
X153633809Y-97881666D02*
X153671904Y-97957857D01*
X153671904Y-98110238D01*
X153633809Y-98186428D01*
X153557619Y-98224523D01*
X153519523Y-98224523D01*
X153443333Y-98186428D01*
X153405238Y-98110238D01*
X153405238Y-97995952D01*
X153367142Y-97919761D01*
X153290952Y-97881666D01*
X153252857Y-97881666D01*
X153176666Y-97919761D01*
X153138571Y-97995952D01*
X153138571Y-98110238D01*
X153176666Y-98186428D01*
X153671904Y-98910238D02*
X153252857Y-98910238D01*
X153176666Y-98872142D01*
X153138571Y-98795952D01*
X153138571Y-98643571D01*
X153176666Y-98567380D01*
X153633809Y-98910238D02*
X153671904Y-98834047D01*
X153671904Y-98643571D01*
X153633809Y-98567380D01*
X153557619Y-98529285D01*
X153481428Y-98529285D01*
X153405238Y-98567380D01*
X153367142Y-98643571D01*
X153367142Y-98834047D01*
X153329047Y-98910238D01*
X153138571Y-99176904D02*
X153138571Y-99481666D01*
X153671904Y-99291190D02*
X152986190Y-99291190D01*
X152910000Y-99329285D01*
X152871904Y-99405476D01*
X152871904Y-99481666D01*
X153633809Y-100053095D02*
X153671904Y-99976904D01*
X153671904Y-99824523D01*
X153633809Y-99748333D01*
X153557619Y-99710238D01*
X153252857Y-99710238D01*
X153176666Y-99748333D01*
X153138571Y-99824523D01*
X153138571Y-99976904D01*
X153176666Y-100053095D01*
X153252857Y-100091190D01*
X153329047Y-100091190D01*
X153405238Y-99710238D01*
X153633809Y-100776904D02*
X153671904Y-100700714D01*
X153671904Y-100548333D01*
X153633809Y-100472142D01*
X153595714Y-100434047D01*
X153519523Y-100395952D01*
X153290952Y-100395952D01*
X153214761Y-100434047D01*
X153176666Y-100472142D01*
X153138571Y-100548333D01*
X153138571Y-100700714D01*
X153176666Y-100776904D01*
X153671904Y-101462619D02*
X153252857Y-101462619D01*
X153176666Y-101424523D01*
X153138571Y-101348333D01*
X153138571Y-101195952D01*
X153176666Y-101119761D01*
X153633809Y-101462619D02*
X153671904Y-101386428D01*
X153671904Y-101195952D01*
X153633809Y-101119761D01*
X153557619Y-101081666D01*
X153481428Y-101081666D01*
X153405238Y-101119761D01*
X153367142Y-101195952D01*
X153367142Y-101386428D01*
X153329047Y-101462619D01*
X153633809Y-101805476D02*
X153671904Y-101881666D01*
X153671904Y-102034047D01*
X153633809Y-102110238D01*
X153557619Y-102148333D01*
X153519523Y-102148333D01*
X153443333Y-102110238D01*
X153405238Y-102034047D01*
X153405238Y-101919761D01*
X153367142Y-101843571D01*
X153290952Y-101805476D01*
X153252857Y-101805476D01*
X153176666Y-101843571D01*
X153138571Y-101919761D01*
X153138571Y-102034047D01*
X153176666Y-102110238D01*
X153138571Y-102376904D02*
X153138571Y-102681666D01*
X152871904Y-102491190D02*
X153557619Y-102491190D01*
X153633809Y-102529285D01*
X153671904Y-102605476D01*
X153671904Y-102681666D01*
X153595714Y-102948333D02*
X153633809Y-102986428D01*
X153671904Y-102948333D01*
X153633809Y-102910238D01*
X153595714Y-102948333D01*
X153671904Y-102948333D01*
X153671904Y-103443571D02*
X153633809Y-103367380D01*
X153595714Y-103329285D01*
X153519523Y-103291190D01*
X153290952Y-103291190D01*
X153214761Y-103329285D01*
X153176666Y-103367380D01*
X153138571Y-103443571D01*
X153138571Y-103557857D01*
X153176666Y-103634047D01*
X153214761Y-103672142D01*
X153290952Y-103710238D01*
X153519523Y-103710238D01*
X153595714Y-103672142D01*
X153633809Y-103634047D01*
X153671904Y-103557857D01*
X153671904Y-103443571D01*
X153671904Y-104053095D02*
X153138571Y-104053095D01*
X153290952Y-104053095D02*
X153214761Y-104091190D01*
X153176666Y-104129285D01*
X153138571Y-104205476D01*
X153138571Y-104281666D01*
X153138571Y-104891190D02*
X153786190Y-104891190D01*
X153862380Y-104853095D01*
X153900476Y-104815000D01*
X153938571Y-104738809D01*
X153938571Y-104624523D01*
X153900476Y-104548333D01*
X153633809Y-104891190D02*
X153671904Y-104815000D01*
X153671904Y-104662619D01*
X153633809Y-104586428D01*
X153595714Y-104548333D01*
X153519523Y-104510238D01*
X153290952Y-104510238D01*
X153214761Y-104548333D01*
X153176666Y-104586428D01*
X153138571Y-104662619D01*
X153138571Y-104815000D01*
X153176666Y-104891190D01*
D11*
X143250000Y-90250000D02*
X153500000Y-90250000D01*
X135750000Y-96750000D02*
X143250000Y-90250000D01*
X135750000Y-96750000D02*
X135850000Y-122250000D01*
X153500000Y-90250000D02*
X161201100Y-96750000D01*
X161201100Y-96750000D02*
X161250000Y-122250000D01*
X161250000Y-122250000D02*
X135850000Y-122250000D01*
D12*
G36*
X157928400Y-111398600D02*
G01*
X147971600Y-111398600D01*
X147971600Y-114319600D01*
X148352600Y-114319600D01*
X148352600Y-111779600D01*
X150892600Y-111779600D01*
X150892600Y-113938600D01*
X151222800Y-113938600D01*
X151934000Y-113938600D01*
X151934000Y-113608400D01*
X151578400Y-113608400D01*
X151578400Y-113227400D01*
X151934000Y-113227400D01*
X151934000Y-112897200D01*
X151222800Y-112897200D01*
X151222800Y-112490800D01*
X151578400Y-112490800D01*
X151578400Y-112186000D01*
X151222800Y-112186000D01*
X151222800Y-111779600D01*
X153051600Y-111779600D01*
X153051600Y-112186000D01*
X152696000Y-112186000D01*
X152696000Y-113227400D01*
X153051600Y-113227400D01*
X153051600Y-113964000D01*
X152696000Y-113964000D01*
X152696000Y-114319600D01*
X152342625Y-114319600D01*
X152335162Y-114503750D01*
X152327700Y-114687900D01*
X151775250Y-114694746D01*
X151222800Y-114701591D01*
X151222800Y-113938600D01*
X150892600Y-113938600D01*
X150892600Y-114319600D01*
X148352600Y-114319600D01*
X147971600Y-114319600D01*
X147971600Y-117901000D01*
X148352600Y-117901000D01*
X148352600Y-117139000D01*
X149114600Y-117139000D01*
X149114600Y-117494600D01*
X149419400Y-117494600D01*
X149419400Y-116834200D01*
X148352600Y-116834200D01*
X148352600Y-116072200D01*
X148759000Y-116072200D01*
X148759000Y-116427800D01*
X149419400Y-116427800D01*
X149419400Y-115767400D01*
X148352600Y-115767400D01*
X148352600Y-115361000D01*
X149063800Y-115361000D01*
X149063800Y-115056200D01*
X148352600Y-115056200D01*
X148352600Y-114649800D01*
X150181400Y-114649800D01*
X150181400Y-115056200D01*
X149470200Y-115056200D01*
X149470200Y-115361000D01*
X150867200Y-115361000D01*
X150867200Y-115056200D01*
X150511600Y-115056200D01*
X150511600Y-114649800D01*
X150892600Y-114649800D01*
X150892600Y-115005400D01*
X151273600Y-115005400D01*
X151273600Y-115361000D01*
X151629200Y-115361000D01*
X151629200Y-115716600D01*
X152340400Y-115716600D01*
X152340400Y-116123000D01*
X151629200Y-116123000D01*
X151629200Y-116783400D01*
X151934000Y-116783400D01*
X151934000Y-116427800D01*
X152645200Y-116427800D01*
X152645200Y-115411800D01*
X151934000Y-115411800D01*
X151934000Y-115005400D01*
X152645200Y-115005400D01*
X152645200Y-114649800D01*
X153051600Y-114649800D01*
X153051600Y-115716600D01*
X153407200Y-115716600D01*
X153407200Y-116072200D01*
X153712000Y-116072200D01*
X153712000Y-115411800D01*
X153356400Y-115411800D01*
X153356400Y-115005400D01*
X153712000Y-115005400D01*
X153712000Y-114649800D01*
X154067600Y-114649800D01*
X154067600Y-113964000D01*
X153762800Y-113964000D01*
X153762800Y-114319600D01*
X153356400Y-114319600D01*
X153356400Y-113938600D01*
X153712000Y-113938600D01*
X153712000Y-112541600D01*
X153356400Y-112541600D01*
X153356400Y-112135200D01*
X153762800Y-112135200D01*
X153762800Y-112490800D01*
X154067600Y-112490800D01*
X154067600Y-111779600D01*
X154474000Y-111779600D01*
X154474000Y-112135200D01*
X154804200Y-112135200D01*
X154804200Y-111779600D01*
X155185200Y-111779600D01*
X155185200Y-112135200D01*
X155871000Y-112135200D01*
X155871000Y-111779600D01*
X156277400Y-111779600D01*
X156277400Y-112186000D01*
X156937800Y-112186000D01*
X156937800Y-111779600D01*
X157344200Y-111779600D01*
X157344200Y-112186000D01*
X156937800Y-112186000D01*
X156277400Y-112186000D01*
X155896400Y-112186000D01*
X155896400Y-112488575D01*
X156080550Y-112496038D01*
X156264700Y-112503500D01*
X156272210Y-112674950D01*
X156279721Y-112846400D01*
X156582200Y-112846400D01*
X156582200Y-112490800D01*
X157344200Y-112490800D01*
X157344200Y-112897200D01*
X156988600Y-112897200D01*
X156988600Y-113938600D01*
X157345558Y-113938600D01*
X157331500Y-114687900D01*
X156988600Y-114702922D01*
X156988600Y-115056200D01*
X156582200Y-115056200D01*
X156582200Y-114649800D01*
X156937800Y-114649800D01*
X156937800Y-113964000D01*
X156582200Y-113964000D01*
X156582200Y-113252800D01*
X156226600Y-113252800D01*
X156226600Y-112897200D01*
X155896400Y-112897200D01*
X155896400Y-115005400D01*
X156277400Y-115005400D01*
X156277400Y-115361000D01*
X156633000Y-115361000D01*
X156633000Y-115716600D01*
X156937800Y-115716600D01*
X156937800Y-115361000D01*
X157344200Y-115361000D01*
X157344200Y-116478600D01*
X156937800Y-116478600D01*
X156937800Y-116123000D01*
X156582200Y-116123000D01*
X156582200Y-115767400D01*
X155871000Y-115767400D01*
X155871000Y-115411800D01*
X155185200Y-115411800D01*
X155185200Y-115716600D01*
X155540800Y-115716600D01*
X155540800Y-116123000D01*
X155185200Y-116123000D01*
X155185200Y-116478600D01*
X154829600Y-116478600D01*
X154829600Y-116783400D01*
X155185200Y-116783400D01*
X155185200Y-117139000D01*
X155540800Y-117139000D01*
X155540800Y-117545400D01*
X155871000Y-117545400D01*
X155871000Y-116427800D01*
X156277400Y-116427800D01*
X156277400Y-116783400D01*
X156633000Y-116783400D01*
X156633000Y-117139000D01*
X156937800Y-117139000D01*
X156937800Y-116783400D01*
X157344200Y-116783400D01*
X157344200Y-117901000D01*
X156937800Y-117901000D01*
X156937800Y-117545400D01*
X156633000Y-117545400D01*
X156633000Y-117901000D01*
X156226600Y-117901000D01*
X156226600Y-117545400D01*
X155871000Y-117545400D01*
X155540800Y-117545400D01*
X155540800Y-117901000D01*
X155159800Y-117901000D01*
X155159800Y-117545400D01*
X154804200Y-117545400D01*
X154804200Y-117189800D01*
X154474000Y-117189800D01*
X154474000Y-117545400D01*
X154118400Y-117545400D01*
X154118400Y-117850200D01*
X154474000Y-117850200D01*
X154474000Y-118612200D01*
X154067600Y-118612200D01*
X154067600Y-117901000D01*
X153712000Y-117901000D01*
X153712000Y-116834200D01*
X153356400Y-116834200D01*
X153356400Y-116123000D01*
X153051600Y-116123000D01*
X153051600Y-117545400D01*
X152696000Y-117545400D01*
X152696000Y-118231200D01*
X153051600Y-118231200D01*
X153051600Y-118586800D01*
X153356400Y-118586800D01*
X153356400Y-118231200D01*
X153762800Y-118231200D01*
X153762800Y-118612200D01*
X153407200Y-118612200D01*
X153407200Y-119298000D01*
X154067600Y-119298000D01*
X154067600Y-118942400D01*
X154474000Y-118942400D01*
X154474000Y-119323400D01*
X154118400Y-119323400D01*
X154118400Y-119704400D01*
X153407200Y-119704400D01*
X153407200Y-120009200D01*
X153762800Y-120009200D01*
X153762800Y-120771200D01*
X154804200Y-120771200D01*
X154804200Y-118231200D01*
X157344200Y-118231200D01*
X157344200Y-120771200D01*
X154804200Y-120771200D01*
X153762800Y-120771200D01*
X153356400Y-120771200D01*
X153356400Y-120415600D01*
X151984800Y-120415600D01*
X151984800Y-120771200D01*
X151222800Y-120771200D01*
X151222800Y-120364800D01*
X151934000Y-120364800D01*
X151934000Y-119704400D01*
X151629200Y-119704400D01*
X151629200Y-120060000D01*
X151222800Y-120060000D01*
X151222800Y-119653600D01*
X151578400Y-119653600D01*
X151578400Y-119298000D01*
X151934000Y-119298000D01*
X151934000Y-118256600D01*
X151629200Y-118256600D01*
X151629200Y-118967800D01*
X151222800Y-118967800D01*
X151222800Y-118231200D01*
X151578400Y-118231200D01*
X151578400Y-117850200D01*
X151934000Y-117850200D01*
X151934000Y-117189800D01*
X151629200Y-117189800D01*
X151629200Y-117545400D01*
X151273600Y-117545400D01*
X151273600Y-117901000D01*
X150511600Y-117901000D01*
X150511600Y-117545400D01*
X150156000Y-117545400D01*
X150156000Y-117189800D01*
X149825800Y-117189800D01*
X149825800Y-117545400D01*
X149470200Y-117545400D01*
X149470200Y-117901000D01*
X149063800Y-117901000D01*
X149063800Y-117545400D01*
X148759000Y-117545400D01*
X148759000Y-117901000D01*
X148352600Y-117901000D01*
X147971600Y-117901000D01*
X147971600Y-120771200D01*
X148352600Y-120771200D01*
X148352600Y-118231200D01*
X150892600Y-118231200D01*
X150892600Y-120771200D01*
X148352600Y-120771200D01*
X147971600Y-120771200D01*
X147971600Y-121101400D01*
X157928400Y-121101400D01*
X157928400Y-111398600D01*
G37*
X157928400Y-111398600D02*
X147971600Y-111398600D01*
X147971600Y-114319600D01*
X148352600Y-114319600D01*
X148352600Y-111779600D01*
X150892600Y-111779600D01*
X150892600Y-113938600D01*
X151222800Y-113938600D01*
X151934000Y-113938600D01*
X151934000Y-113608400D01*
X151578400Y-113608400D01*
X151578400Y-113227400D01*
X151934000Y-113227400D01*
X151934000Y-112897200D01*
X151222800Y-112897200D01*
X151222800Y-112490800D01*
X151578400Y-112490800D01*
X151578400Y-112186000D01*
X151222800Y-112186000D01*
X151222800Y-111779600D01*
X153051600Y-111779600D01*
X153051600Y-112186000D01*
X152696000Y-112186000D01*
X152696000Y-113227400D01*
X153051600Y-113227400D01*
X153051600Y-113964000D01*
X152696000Y-113964000D01*
X152696000Y-114319600D01*
X152342625Y-114319600D01*
X152335162Y-114503750D01*
X152327700Y-114687900D01*
X151775250Y-114694746D01*
X151222800Y-114701591D01*
X151222800Y-113938600D01*
X150892600Y-113938600D01*
X150892600Y-114319600D01*
X148352600Y-114319600D01*
X147971600Y-114319600D01*
X147971600Y-117901000D01*
X148352600Y-117901000D01*
X148352600Y-117139000D01*
X149114600Y-117139000D01*
X149114600Y-117494600D01*
X149419400Y-117494600D01*
X149419400Y-116834200D01*
X148352600Y-116834200D01*
X148352600Y-116072200D01*
X148759000Y-116072200D01*
X148759000Y-116427800D01*
X149419400Y-116427800D01*
X149419400Y-115767400D01*
X148352600Y-115767400D01*
X148352600Y-115361000D01*
X149063800Y-115361000D01*
X149063800Y-115056200D01*
X148352600Y-115056200D01*
X148352600Y-114649800D01*
X150181400Y-114649800D01*
X150181400Y-115056200D01*
X149470200Y-115056200D01*
X149470200Y-115361000D01*
X150867200Y-115361000D01*
X150867200Y-115056200D01*
X150511600Y-115056200D01*
X150511600Y-114649800D01*
X150892600Y-114649800D01*
X150892600Y-115005400D01*
X151273600Y-115005400D01*
X151273600Y-115361000D01*
X151629200Y-115361000D01*
X151629200Y-115716600D01*
X152340400Y-115716600D01*
X152340400Y-116123000D01*
X151629200Y-116123000D01*
X151629200Y-116783400D01*
X151934000Y-116783400D01*
X151934000Y-116427800D01*
X152645200Y-116427800D01*
X152645200Y-115411800D01*
X151934000Y-115411800D01*
X151934000Y-115005400D01*
X152645200Y-115005400D01*
X152645200Y-114649800D01*
X153051600Y-114649800D01*
X153051600Y-115716600D01*
X153407200Y-115716600D01*
X153407200Y-116072200D01*
X153712000Y-116072200D01*
X153712000Y-115411800D01*
X153356400Y-115411800D01*
X153356400Y-115005400D01*
X153712000Y-115005400D01*
X153712000Y-114649800D01*
X154067600Y-114649800D01*
X154067600Y-113964000D01*
X153762800Y-113964000D01*
X153762800Y-114319600D01*
X153356400Y-114319600D01*
X153356400Y-113938600D01*
X153712000Y-113938600D01*
X153712000Y-112541600D01*
X153356400Y-112541600D01*
X153356400Y-112135200D01*
X153762800Y-112135200D01*
X153762800Y-112490800D01*
X154067600Y-112490800D01*
X154067600Y-111779600D01*
X154474000Y-111779600D01*
X154474000Y-112135200D01*
X154804200Y-112135200D01*
X154804200Y-111779600D01*
X155185200Y-111779600D01*
X155185200Y-112135200D01*
X155871000Y-112135200D01*
X155871000Y-111779600D01*
X156277400Y-111779600D01*
X156277400Y-112186000D01*
X156937800Y-112186000D01*
X156937800Y-111779600D01*
X157344200Y-111779600D01*
X157344200Y-112186000D01*
X156937800Y-112186000D01*
X156277400Y-112186000D01*
X155896400Y-112186000D01*
X155896400Y-112488575D01*
X156080550Y-112496038D01*
X156264700Y-112503500D01*
X156272210Y-112674950D01*
X156279721Y-112846400D01*
X156582200Y-112846400D01*
X156582200Y-112490800D01*
X157344200Y-112490800D01*
X157344200Y-112897200D01*
X156988600Y-112897200D01*
X156988600Y-113938600D01*
X157345558Y-113938600D01*
X157331500Y-114687900D01*
X156988600Y-114702922D01*
X156988600Y-115056200D01*
X156582200Y-115056200D01*
X156582200Y-114649800D01*
X156937800Y-114649800D01*
X156937800Y-113964000D01*
X156582200Y-113964000D01*
X156582200Y-113252800D01*
X156226600Y-113252800D01*
X156226600Y-112897200D01*
X155896400Y-112897200D01*
X155896400Y-115005400D01*
X156277400Y-115005400D01*
X156277400Y-115361000D01*
X156633000Y-115361000D01*
X156633000Y-115716600D01*
X156937800Y-115716600D01*
X156937800Y-115361000D01*
X157344200Y-115361000D01*
X157344200Y-116478600D01*
X156937800Y-116478600D01*
X156937800Y-116123000D01*
X156582200Y-116123000D01*
X156582200Y-115767400D01*
X155871000Y-115767400D01*
X155871000Y-115411800D01*
X155185200Y-115411800D01*
X155185200Y-115716600D01*
X155540800Y-115716600D01*
X155540800Y-116123000D01*
X155185200Y-116123000D01*
X155185200Y-116478600D01*
X154829600Y-116478600D01*
X154829600Y-116783400D01*
X155185200Y-116783400D01*
X155185200Y-117139000D01*
X155540800Y-117139000D01*
X155540800Y-117545400D01*
X155871000Y-117545400D01*
X155871000Y-116427800D01*
X156277400Y-116427800D01*
X156277400Y-116783400D01*
X156633000Y-116783400D01*
X156633000Y-117139000D01*
X156937800Y-117139000D01*
X156937800Y-116783400D01*
X157344200Y-116783400D01*
X157344200Y-117901000D01*
X156937800Y-117901000D01*
X156937800Y-117545400D01*
X156633000Y-117545400D01*
X156633000Y-117901000D01*
X156226600Y-117901000D01*
X156226600Y-117545400D01*
X155871000Y-117545400D01*
X155540800Y-117545400D01*
X155540800Y-117901000D01*
X155159800Y-117901000D01*
X155159800Y-117545400D01*
X154804200Y-117545400D01*
X154804200Y-117189800D01*
X154474000Y-117189800D01*
X154474000Y-117545400D01*
X154118400Y-117545400D01*
X154118400Y-117850200D01*
X154474000Y-117850200D01*
X154474000Y-118612200D01*
X154067600Y-118612200D01*
X154067600Y-117901000D01*
X153712000Y-117901000D01*
X153712000Y-116834200D01*
X153356400Y-116834200D01*
X153356400Y-116123000D01*
X153051600Y-116123000D01*
X153051600Y-117545400D01*
X152696000Y-117545400D01*
X152696000Y-118231200D01*
X153051600Y-118231200D01*
X153051600Y-118586800D01*
X153356400Y-118586800D01*
X153356400Y-118231200D01*
X153762800Y-118231200D01*
X153762800Y-118612200D01*
X153407200Y-118612200D01*
X153407200Y-119298000D01*
X154067600Y-119298000D01*
X154067600Y-118942400D01*
X154474000Y-118942400D01*
X154474000Y-119323400D01*
X154118400Y-119323400D01*
X154118400Y-119704400D01*
X153407200Y-119704400D01*
X153407200Y-120009200D01*
X153762800Y-120009200D01*
X153762800Y-120771200D01*
X154804200Y-120771200D01*
X154804200Y-118231200D01*
X157344200Y-118231200D01*
X157344200Y-120771200D01*
X154804200Y-120771200D01*
X153762800Y-120771200D01*
X153356400Y-120771200D01*
X153356400Y-120415600D01*
X151984800Y-120415600D01*
X151984800Y-120771200D01*
X151222800Y-120771200D01*
X151222800Y-120364800D01*
X151934000Y-120364800D01*
X151934000Y-119704400D01*
X151629200Y-119704400D01*
X151629200Y-120060000D01*
X151222800Y-120060000D01*
X151222800Y-119653600D01*
X151578400Y-119653600D01*
X151578400Y-119298000D01*
X151934000Y-119298000D01*
X151934000Y-118256600D01*
X151629200Y-118256600D01*
X151629200Y-118967800D01*
X151222800Y-118967800D01*
X151222800Y-118231200D01*
X151578400Y-118231200D01*
X151578400Y-117850200D01*
X151934000Y-117850200D01*
X151934000Y-117189800D01*
X151629200Y-117189800D01*
X151629200Y-117545400D01*
X151273600Y-117545400D01*
X151273600Y-117901000D01*
X150511600Y-117901000D01*
X150511600Y-117545400D01*
X150156000Y-117545400D01*
X150156000Y-117189800D01*
X149825800Y-117189800D01*
X149825800Y-117545400D01*
X149470200Y-117545400D01*
X149470200Y-117901000D01*
X149063800Y-117901000D01*
X149063800Y-117545400D01*
X148759000Y-117545400D01*
X148759000Y-117901000D01*
X148352600Y-117901000D01*
X147971600Y-117901000D01*
X147971600Y-120771200D01*
X148352600Y-120771200D01*
X148352600Y-118231200D01*
X150892600Y-118231200D01*
X150892600Y-120771200D01*
X148352600Y-120771200D01*
X147971600Y-120771200D01*
X147971600Y-121101400D01*
X157928400Y-121101400D01*
X157928400Y-111398600D01*
G36*
X150511600Y-112186000D02*
G01*
X148759000Y-112186000D01*
X148759000Y-113608400D01*
X149063800Y-113608400D01*
X149063800Y-112490800D01*
X150181400Y-112490800D01*
X150181400Y-113608400D01*
X149063800Y-113608400D01*
X148759000Y-113608400D01*
X148759000Y-113938600D01*
X150511600Y-113938600D01*
X150511600Y-112186000D01*
G37*
X150511600Y-112186000D02*
X148759000Y-112186000D01*
X148759000Y-113608400D01*
X149063800Y-113608400D01*
X149063800Y-112490800D01*
X150181400Y-112490800D01*
X150181400Y-113608400D01*
X149063800Y-113608400D01*
X148759000Y-113608400D01*
X148759000Y-113938600D01*
X150511600Y-113938600D01*
X150511600Y-112186000D01*
G36*
X152289600Y-112186000D02*
G01*
X151984800Y-112186000D01*
X151984800Y-112846400D01*
X152289600Y-112846400D01*
X152289600Y-112186000D01*
G37*
X152289600Y-112186000D02*
X151984800Y-112186000D01*
X151984800Y-112846400D01*
X152289600Y-112846400D01*
X152289600Y-112186000D01*
G36*
X152645200Y-113252800D02*
G01*
X151984800Y-113252800D01*
X151984800Y-113583000D01*
X152645200Y-113583000D01*
X152645200Y-113252800D01*
G37*
X152645200Y-113252800D02*
X151984800Y-113252800D01*
X151984800Y-113583000D01*
X152645200Y-113583000D01*
X152645200Y-113252800D01*
G36*
X155515400Y-112897200D02*
G01*
X155159800Y-112897200D01*
X155159800Y-112186000D01*
X154829600Y-112186000D01*
X154829600Y-113227400D01*
X155515400Y-113227400D01*
X155515400Y-112897200D01*
G37*
X155515400Y-112897200D02*
X155159800Y-112897200D01*
X155159800Y-112186000D01*
X154829600Y-112186000D01*
X154829600Y-113227400D01*
X155515400Y-113227400D01*
X155515400Y-112897200D01*
G36*
X155515400Y-113608400D02*
G01*
X154474000Y-113608400D01*
X154474000Y-114319600D01*
X154804200Y-114319600D01*
X154804200Y-113938600D01*
X155185200Y-113938600D01*
X155185200Y-114319600D01*
X154804200Y-114319600D01*
X154474000Y-114319600D01*
X154474000Y-114649800D01*
X155515400Y-114649800D01*
X155515400Y-113608400D01*
G37*
X155515400Y-113608400D02*
X154474000Y-113608400D01*
X154474000Y-114319600D01*
X154804200Y-114319600D01*
X154804200Y-113938600D01*
X155185200Y-113938600D01*
X155185200Y-114319600D01*
X154804200Y-114319600D01*
X154474000Y-114319600D01*
X154474000Y-114649800D01*
X155515400Y-114649800D01*
X155515400Y-113608400D01*
G36*
X154435900Y-116440500D02*
G01*
X154620050Y-116433038D01*
X154804200Y-116425575D01*
X154804200Y-115056200D01*
X153762800Y-115056200D01*
X153762800Y-115361000D01*
X154118400Y-115361000D01*
X154118400Y-115716600D01*
X154474000Y-115716600D01*
X154474000Y-116123000D01*
X154118400Y-116123000D01*
X154118400Y-117139000D01*
X154421766Y-117139000D01*
X154435900Y-116440500D01*
G37*
X154435900Y-116440500D02*
X154620050Y-116433038D01*
X154804200Y-116425575D01*
X154804200Y-115056200D01*
X153762800Y-115056200D01*
X153762800Y-115361000D01*
X154118400Y-115361000D01*
X154118400Y-115716600D01*
X154474000Y-115716600D01*
X154474000Y-116123000D01*
X154118400Y-116123000D01*
X154118400Y-117139000D01*
X154421766Y-117139000D01*
X154435900Y-116440500D01*
G36*
X150867200Y-116478600D02*
G01*
X150511600Y-116478600D01*
X150511600Y-116072200D01*
X151222800Y-116072200D01*
X151222800Y-115767400D01*
X150181400Y-115767400D01*
X150181400Y-116478600D01*
X149825800Y-116478600D01*
X149825800Y-116783400D01*
X150867200Y-116783400D01*
X150867200Y-116478600D01*
G37*
X150867200Y-116478600D02*
X150511600Y-116478600D01*
X150511600Y-116072200D01*
X151222800Y-116072200D01*
X151222800Y-115767400D01*
X150181400Y-115767400D01*
X150181400Y-116478600D01*
X149825800Y-116478600D01*
X149825800Y-116783400D01*
X150867200Y-116783400D01*
X150867200Y-116478600D01*
G36*
X151578400Y-116834200D02*
G01*
X150892600Y-116834200D01*
X150892600Y-117139000D01*
X151578400Y-117139000D01*
X151578400Y-116834200D01*
G37*
X151578400Y-116834200D02*
X150892600Y-116834200D01*
X150892600Y-117139000D01*
X151578400Y-117139000D01*
X151578400Y-116834200D01*
G36*
X152645200Y-116834200D02*
G01*
X151984800Y-116834200D01*
X151984800Y-117139000D01*
X152340400Y-117139000D01*
X152340400Y-117494600D01*
X152645200Y-117494600D01*
X152645200Y-116834200D01*
G37*
X152645200Y-116834200D02*
X151984800Y-116834200D01*
X151984800Y-117139000D01*
X152340400Y-117139000D01*
X152340400Y-117494600D01*
X152645200Y-117494600D01*
X152645200Y-116834200D01*
G36*
X150867200Y-117189800D02*
G01*
X150537000Y-117189800D01*
X150537000Y-117494600D01*
X150867200Y-117494600D01*
X150867200Y-117189800D01*
G37*
X150867200Y-117189800D02*
X150537000Y-117189800D01*
X150537000Y-117494600D01*
X150867200Y-117494600D01*
X150867200Y-117189800D01*
G36*
X152289600Y-117901000D02*
G01*
X151984800Y-117901000D01*
X151984800Y-118231200D01*
X152289600Y-118231200D01*
X152289600Y-117901000D01*
G37*
X152289600Y-117901000D02*
X151984800Y-117901000D01*
X151984800Y-118231200D01*
X152289600Y-118231200D01*
X152289600Y-117901000D01*
G36*
X152645200Y-118256600D02*
G01*
X152340400Y-118256600D01*
X152340400Y-118586800D01*
X152645200Y-118586800D01*
X152645200Y-118256600D01*
G37*
X152645200Y-118256600D02*
X152340400Y-118256600D01*
X152340400Y-118586800D01*
X152645200Y-118586800D01*
X152645200Y-118256600D01*
G36*
X153000800Y-118612200D02*
G01*
X152696000Y-118612200D01*
X152696000Y-118942400D01*
X153000800Y-118942400D01*
X153000800Y-118612200D01*
G37*
X153000800Y-118612200D02*
X152696000Y-118612200D01*
X152696000Y-118942400D01*
X153000800Y-118942400D01*
X153000800Y-118612200D01*
G36*
X152645200Y-118967800D02*
G01*
X152340400Y-118967800D01*
X152340400Y-119323400D01*
X151984800Y-119323400D01*
X151984800Y-119653600D01*
X152645200Y-119653600D01*
X152645200Y-118967800D01*
G37*
X152645200Y-118967800D02*
X152340400Y-118967800D01*
X152340400Y-119323400D01*
X151984800Y-119323400D01*
X151984800Y-119653600D01*
X152645200Y-119653600D01*
X152645200Y-118967800D01*
G36*
X156582200Y-117189800D02*
G01*
X156277400Y-117189800D01*
X156277400Y-117494600D01*
X156582200Y-117494600D01*
X156582200Y-117189800D01*
G37*
X156582200Y-117189800D02*
X156277400Y-117189800D01*
X156277400Y-117494600D01*
X156582200Y-117494600D01*
X156582200Y-117189800D01*
G36*
X150511600Y-118612200D02*
G01*
X148759000Y-118612200D01*
X148759000Y-120060000D01*
X149063800Y-120060000D01*
X149063800Y-118942400D01*
X150181400Y-118942400D01*
X150181400Y-120060000D01*
X149063800Y-120060000D01*
X148759000Y-120060000D01*
X148759000Y-120364800D01*
X150511600Y-120364800D01*
X150511600Y-118612200D01*
G37*
X150511600Y-118612200D02*
X148759000Y-118612200D01*
X148759000Y-120060000D01*
X149063800Y-120060000D01*
X149063800Y-118942400D01*
X150181400Y-118942400D01*
X150181400Y-120060000D01*
X149063800Y-120060000D01*
X148759000Y-120060000D01*
X148759000Y-120364800D01*
X150511600Y-120364800D01*
X150511600Y-118612200D01*
G36*
X156937800Y-118612200D02*
G01*
X155185200Y-118612200D01*
X155185200Y-120060000D01*
X155515400Y-120060000D01*
X155515400Y-118942400D01*
X156633000Y-118942400D01*
X156633000Y-120060000D01*
X155515400Y-120060000D01*
X155185200Y-120060000D01*
X155185200Y-120364800D01*
X156937800Y-120364800D01*
X156937800Y-118612200D01*
G37*
X156937800Y-118612200D02*
X155185200Y-118612200D01*
X155185200Y-120060000D01*
X155515400Y-120060000D01*
X155515400Y-118942400D01*
X156633000Y-118942400D01*
X156633000Y-120060000D01*
X155515400Y-120060000D01*
X155185200Y-120060000D01*
X155185200Y-120364800D01*
X156937800Y-120364800D01*
X156937800Y-118612200D01*
D13*
X145950000Y-103375000D02*
X145950000Y-94975000D01*
X141150000Y-103375000D02*
X141150000Y-94975000D01*
X145950000Y-103375000D02*
X141150000Y-103375000D01*
X148130000Y-108900000D02*
X148130000Y-107700000D01*
X146370000Y-107700000D02*
X146370000Y-108900000D01*
X141370000Y-107700000D02*
X141370000Y-108900000D01*
X143130000Y-108900000D02*
X143130000Y-107700000D01*
X145630000Y-108900000D02*
X145630000Y-107700000D01*
X143870000Y-107700000D02*
X143870000Y-108900000D01*
X141400000Y-119130000D02*
X141200000Y-119130000D01*
X144200000Y-123270000D02*
X144000000Y-123480000D01*
X142900000Y-123270000D02*
X143100000Y-123480000D01*
X144200000Y-121980000D02*
X144200000Y-123270000D01*
X144000000Y-123480000D02*
X143100000Y-123480000D01*
X142900000Y-123270000D02*
X142900000Y-121980000D01*
X145650000Y-121980000D02*
X139950000Y-121980000D01*
X144400000Y-119130000D02*
X142700000Y-119130000D01*
X146250000Y-120180000D02*
X146250000Y-120970000D01*
X139350000Y-120970000D02*
X139350000Y-120180000D01*
D14*
X143728571Y-104366666D02*
X143752380Y-104342857D01*
X143776190Y-104271428D01*
X143776190Y-104223809D01*
X143752380Y-104152380D01*
X143704761Y-104104761D01*
X143657142Y-104080952D01*
X143561904Y-104057142D01*
X143490476Y-104057142D01*
X143395238Y-104080952D01*
X143347619Y-104104761D01*
X143300000Y-104152380D01*
X143276190Y-104223809D01*
X143276190Y-104271428D01*
X143300000Y-104342857D01*
X143323809Y-104366666D01*
X143776190Y-104842857D02*
X143776190Y-104557142D01*
X143776190Y-104700000D02*
X143276190Y-104700000D01*
X143347619Y-104652380D01*
X143395238Y-104604761D01*
X143419047Y-104557142D01*
X146876190Y-111466666D02*
X146638095Y-111300000D01*
X146876190Y-111180952D02*
X146376190Y-111180952D01*
X146376190Y-111371428D01*
X146400000Y-111419047D01*
X146423809Y-111442857D01*
X146471428Y-111466666D01*
X146542857Y-111466666D01*
X146590476Y-111442857D01*
X146614285Y-111419047D01*
X146638095Y-111371428D01*
X146638095Y-111180952D01*
X146542857Y-111895238D02*
X146876190Y-111895238D01*
X146352380Y-111776190D02*
X146709523Y-111657142D01*
X146709523Y-111966666D01*
X141876190Y-111466666D02*
X141638095Y-111300000D01*
X141876190Y-111180952D02*
X141376190Y-111180952D01*
X141376190Y-111371428D01*
X141400000Y-111419047D01*
X141423809Y-111442857D01*
X141471428Y-111466666D01*
X141542857Y-111466666D01*
X141590476Y-111442857D01*
X141614285Y-111419047D01*
X141638095Y-111371428D01*
X141638095Y-111180952D01*
X141376190Y-111633333D02*
X141376190Y-111942857D01*
X141566666Y-111776190D01*
X141566666Y-111847619D01*
X141590476Y-111895238D01*
X141614285Y-111919047D01*
X141661904Y-111942857D01*
X141780952Y-111942857D01*
X141828571Y-111919047D01*
X141852380Y-111895238D01*
X141876190Y-111847619D01*
X141876190Y-111704761D01*
X141852380Y-111657142D01*
X141828571Y-111633333D01*
X144376190Y-111466666D02*
X144138095Y-111300000D01*
X144376190Y-111180952D02*
X143876190Y-111180952D01*
X143876190Y-111371428D01*
X143900000Y-111419047D01*
X143923809Y-111442857D01*
X143971428Y-111466666D01*
X144042857Y-111466666D01*
X144090476Y-111442857D01*
X144114285Y-111419047D01*
X144138095Y-111371428D01*
X144138095Y-111180952D01*
X144376190Y-111942857D02*
X144376190Y-111657142D01*
X144376190Y-111800000D02*
X143876190Y-111800000D01*
X143947619Y-111752380D01*
X143995238Y-111704761D01*
X144019047Y-111657142D01*
M02*
