<?xml version="1.0" encoding="UTF-8"?>
<!DOCTYPE svg PUBLIC "-//W3C//DTD SVG 1.1//EN" "http://www.w3.org/Graphics/SVG/1.1/DTD/svg11.dtd">
<!-- Creator: CorelDRAW 2018 (64-Bit) -->
<svg xmlns="http://www.w3.org/2000/svg" xml:space="preserve" width="56px" height="56px" version="1.1" style="shape-rendering:geometricPrecision; text-rendering:geometricPrecision; image-rendering:optimizeQuality; fill-rule:evenodd; clip-rule:evenodd"
viewBox="0 0 0.658 0.658"
 xmlns:xlink="http://www.w3.org/1999/xlink">
 <defs>
  <style type="text/css">
   <![CDATA[
    .str0 {stroke:#332C2B;stroke-width:0.033;stroke-linecap:round;stroke-linejoin:round;stroke-miterlimit:22.9256}
    .fil0 {fill:none}
   ]]>
  </style>
 </defs>
 <g id="图层_x0020_1">
  <metadata id="CorelCorpID_0Corel-Layer"/>
  <rect class="fil0" width="0.658" height="0.658"/>
  <path class="fil0 str0" d="M0.615 0.058c0,0 -0.074,-0.022 -0.087,0.062 0,0 0,0 0,0l-0.057 0.291 -0.02 0.104c-0.001,0.006 -0.006,0.01 -0.012,0.01l-0.288 0"/>
  <path class="fil0 str0" d="M0.471 0.411l-0.328 0c-0.005,0 -0.009,-0.003 -0.011,-0.007l-0.083 -0.205c-0.001,-0.004 -0.001,-0.008 0.001,-0.011 0.003,-0.004 0.006,-0.006 0.01,-0.006l0.456 0"/>
  <circle class="fil0 str0" cx="0.211" cy="0.564" r="0.039"/>
  <circle class="fil0 str0" cx="0.412" cy="0.564" r="0.039"/>
 </g>
</svg>
