<?xml version="1.0" encoding="UTF-8"?>
<!DOCTYPE svg PUBLIC "-//W3C//DTD SVG 1.1//EN" "http://www.w3.org/Graphics/SVG/1.1/DTD/svg11.dtd">
<!-- Creator: CorelDRAW 2018 (64-Bit) -->
<svg xmlns="http://www.w3.org/2000/svg" xml:space="preserve" width="350px" height="297px" version="1.1" style="shape-rendering:geometricPrecision; text-rendering:geometricPrecision; image-rendering:optimizeQuality; fill-rule:evenodd; clip-rule:evenodd"
viewBox="0 0 137.783 116.919"
 xmlns:xlink="http://www.w3.org/1999/xlink">
 <defs>
  <style type="text/css">
   <![CDATA[
    .fil2 {fill:none}
    .fil0 {fill:#332C2B}
    .fil1 {fill:#007ABA}
   ]]>
  </style>
 </defs>
 <g id="图层_x0020_1">
  <metadata id="CorelCorpID_0Corel-Layer"/>
  <g id="_1537634024272">
   <g>
    <path class="fil0" d="M81.627 28.078l-0.029 -0.014c-2.296,-1.048 -4.195,-1.304 -5.573,-1.276 -1.343,0.028 -2.178,0.324 -2.395,0.41l-13.355 6.307c-0.243,0.127 -0.557,0.192 -0.87,0.192l0 -0.002c-0.312,0 -0.632,-0.064 -0.888,-0.189l-10.66 -4.615 -0.016 -0.007c-0.201,-0.102 -0.341,-0.235 -0.413,-0.38l0.001 0c-0.043,-0.086 -0.064,-0.174 -0.064,-0.261 0,-0.088 0.021,-0.177 0.064,-0.263l0 0.001c0.073,-0.144 0.207,-0.274 0.403,-0.37l0.012 -0.006 17.509 -7.76c0.231,-0.115 0.533,-0.171 0.833,-0.168 0.3,0.001 0.606,0.062 0.848,0.178 0.21,0.101 0.352,0.235 0.427,0.382 0.04,0.079 0.061,0.163 0.062,0.248 0.001,0.086 -0.017,0.171 -0.056,0.251l-0.001 0c-0.066,0.136 -0.192,0.261 -0.375,0.353l-0.011 0.005 -15.887 7.195 8.115 3.46 12.563 -5.859c0.029,-0.014 0.056,-0.028 0.081,-0.039l0.001 0c0.035,-0.015 0.067,-0.027 0.097,-0.038 0.342,-0.136 1.605,-0.583 3.524,-0.657 1.924,-0.074 4.521,0.226 7.532,1.589l0.054 0.021 0.009 0.004 0.05 0.023 0.007 0.002 0.236 0.115 0.005 0.003 0.047 0.024 0.015 0.006 0.044 0.027c1.557,0.799 2.522,1.567 3.088,2.269 0.471,0.588 0.676,1.137 0.717,1.629 0.042,0.5 -0.083,0.937 -0.266,1.294 -0.262,0.513 -0.645,0.859 -0.808,0.992 -0.025,0.024 -0.05,0.044 -0.076,0.062l-0.001 0.003c-0.024,0.017 -0.054,0.036 -0.09,0.057l-0.031 0.017 -13.322 5.868c-0.238,0.135 -0.553,0.204 -0.871,0.205l-0.001 0c-0.32,0.001 -0.653,-0.065 -0.92,-0.2 -0.208,-0.105 -0.357,-0.24 -0.443,-0.387l0 -0.001c-0.055,-0.094 -0.085,-0.196 -0.09,-0.3 -0.005,-0.106 0.017,-0.211 0.067,-0.309 0.067,-0.132 0.183,-0.253 0.345,-0.348l0.031 -0.015 13.291 -5.819c0.154,-0.13 0.553,-0.523 0.513,-1.092 -0.044,-0.666 -0.66,-1.581 -2.793,-2.68l-0.002 0.001 -0.039 -0.019 -0.005 -0.002 -0.236 -0.114 -0.004 -0.003zm-16.276 -8.232l0 0 0.002 -0.001 -0.002 0.001z"/>
   </g>
   <path class="fil1" d="M29.139 29.814c-0.059,-0.591 0.273,-1.179 0.876,-1.444l37.797 -16.711c0.028,-0.01 0.919,-0.44 2.171,-0.003l30.558 13.213c0.768,0.332 1.389,1.044 0.28,1.595 -1.065,0.594 -3.249,0.297 -4.018,-0.034l-27.071 -11.707c-0.7,-0.262 -1.326,-0.112 -1.629,-0.004l-34.128 15.088 32.629 14.273 0.38 0.166c0.678,0.258 2.185,0.661 3.841,0l0.309 -0.136 0.016 -0.007 0 0.001 35.23 -15.419c0.219,-0.113 0.469,-0.177 0.736,-0.177 0.848,0 1.536,0.648 1.536,1.449l0 26.165c-0.045,0.54 -0.284,1.557 -1.42,2.131l-33.732 14.474 -0.001 -0.002c-0.712,0.345 -4.509,1.969 -9.223,0.002l0.001 -0.002 -0.013 -0.005 -33.651 -14.439c-1.216,-0.583 -1.444,-1.664 -1.48,-2.201l0.003 -17.73c0,-0.796 0.684,-1.442 1.53,-1.442 0.844,-0.001 1.528,0.646 1.528,1.442l-0.001 16.021c0.037,0.506 0.288,1.545 1.649,2.118l31.669 13.589 0.001 -0.001c3.824,1.596 6.601,0.078 6.608,0.075 0.04,-0.023 0.08,-0.042 0.123,-0.059l-0.003 -0.004 31.737 -13.617c1.267,-0.551 1.549,-1.509 1.604,-2.03l0 -22.22 -34.825 15.241c-0.036,0.016 -0.074,0.031 -0.111,0.045 -0.487,0.193 -1.977,0.668 -3.588,-0.023 -0.08,-0.034 -0.154,-0.074 -0.225,-0.118 -0.013,-0.006 -0.027,-0.011 -0.041,-0.017l-36.767 -16.083c-0.609,-0.265 -0.945,-0.858 -0.885,-1.453z"/>
   <path class="fil0" d="M28.272 104.685c0,0.216 -0.084,0.399 -0.252,0.548 -0.167,0.151 -0.365,0.226 -0.594,0.226 -0.248,0 -0.463,-0.075 -0.648,-0.226 -0.185,-0.149 -0.278,-0.332 -0.278,-0.548l0 -13.227c-0.353,0.716 -0.732,1.477 -1.137,2.284 -0.406,0.807 -0.816,1.627 -1.23,2.457 -0.414,0.833 -0.825,1.652 -1.229,2.46 -0.406,0.806 -0.786,1.567 -1.138,2.283 -0.194,0.333 -0.476,0.5 -0.846,0.5 -0.387,0 -0.67,-0.167 -0.846,-0.5l-4.76 -9.484 0 13.227c0,0.216 -0.088,0.399 -0.265,0.548 -0.176,0.151 -0.396,0.226 -0.661,0.226 -0.229,0 -0.423,-0.075 -0.582,-0.226 -0.158,-0.149 -0.238,-0.332 -0.238,-0.548l0 -16.422c0,-0.266 0.088,-0.481 0.265,-0.648 0.176,-0.165 0.405,-0.249 0.687,-0.249 0.423,0 0.741,0.191 0.952,0.574l0 -0.025 5.475 11.054 5.447 -11.08 0 0.026c0.123,-0.2 0.265,-0.342 0.423,-0.425 0.159,-0.083 0.335,-0.124 0.53,-0.124 0.246,0 0.462,0.087 0.647,0.261 0.185,0.175 0.278,0.386 0.278,0.636l0 16.422z"/>
   <path class="fil0" d="M44.826 99.668c0,0.7 -0.101,1.39 -0.304,2.072 -0.203,0.683 -0.516,1.298 -0.939,1.847 -0.423,0.549 -0.965,0.993 -1.626,1.335 -0.661,0.342 -1.45,0.512 -2.366,0.512 -0.265,0 -0.68,-0.022 -1.243,-0.063 -0.566,-0.042 -1.129,-0.12 -1.692,-0.236 -0.565,-0.117 -1.059,-0.283 -1.482,-0.5 -0.423,-0.215 -0.634,-0.508 -0.634,-0.873 0,-0.217 0.074,-0.403 0.224,-0.562 0.15,-0.159 0.339,-0.236 0.569,-0.236 0.105,0 0.264,0.049 0.476,0.148l0 -0.024c0.37,0.233 0.802,0.441 1.296,0.624 0.492,0.182 1.11,0.275 1.851,0.275 0.793,0 1.454,-0.121 1.983,-0.362 0.529,-0.241 0.952,-0.558 1.269,-0.949 0.318,-0.39 0.543,-0.84 0.675,-1.348 0.132,-0.508 0.199,-1.027 0.199,-1.559 0,-1.331 -0.345,-2.321 -1.033,-2.969 -0.687,-0.65 -1.533,-0.974 -2.538,-0.974 -0.405,0 -0.78,0.048 -1.124,0.149 -0.344,0.101 -0.666,0.234 -0.965,0.399l-0.556 0.35c-0.123,0.083 -0.246,0.159 -0.37,0.226 -0.123,0.065 -0.264,0.098 -0.423,0.098 -0.247,0 -0.463,-0.083 -0.648,-0.248 -0.185,-0.168 -0.269,-0.384 -0.251,-0.65l0.264 -7.612c0.018,-0.316 0.138,-0.553 0.357,-0.711 0.221,-0.157 0.454,-0.237 0.701,-0.237l6.507 0c0.246,0 0.479,0.058 0.7,0.175 0.219,0.117 0.33,0.325 0.33,0.624 0,0.266 -0.111,0.453 -0.33,0.562 -0.221,0.108 -0.454,0.16 -0.7,0.16l-6.031 0 -0.211 6.041c0.493,-0.266 0.969,-0.457 1.427,-0.575 0.459,-0.115 0.918,-0.174 1.376,-0.174 0.758,0 1.463,0.121 2.116,0.362 0.651,0.241 1.207,0.587 1.666,1.036 0.457,0.449 0.82,0.999 1.083,1.647 0.266,0.648 0.397,1.39 0.397,2.22z"/>
   <path class="fil0" d="M58.975 100.542c0,-0.415 -0.053,-0.777 -0.159,-1.086 -0.105,-0.307 -0.238,-0.57 -0.397,-0.785 -0.159,-0.216 -0.335,-0.395 -0.528,-0.536 -0.194,-0.142 -0.38,-0.255 -0.556,-0.338 -0.282,-0.133 -0.608,-0.267 -0.978,-0.399 -0.37,-0.133 -0.749,-0.266 -1.138,-0.399 -0.581,-0.183 -1.159,-0.383 -1.732,-0.601 -0.572,-0.215 -1.093,-0.497 -1.56,-0.847 -0.467,-0.349 -0.842,-0.795 -1.123,-1.335 -0.284,-0.541 -0.423,-1.228 -0.423,-2.059 0,-1.514 0.471,-2.692 1.414,-3.531 0.943,-0.84 2.235,-1.26 3.874,-1.26 0.318,0 0.727,0.021 1.23,0.061 0.502,0.042 0.987,0.122 1.455,0.238 0.466,0.117 0.867,0.275 1.203,0.474 0.335,0.2 0.503,0.457 0.503,0.774 0,0.198 -0.076,0.379 -0.225,0.537 -0.151,0.158 -0.366,0.236 -0.649,0.236 -0.142,0 -0.295,-0.021 -0.462,-0.063 -0.168,-0.04 -0.322,-0.095 -0.464,-0.161 -0.299,-0.117 -0.643,-0.228 -1.031,-0.337 -0.388,-0.109 -0.855,-0.163 -1.402,-0.163 -0.458,0 -0.903,0.05 -1.334,0.149 -0.433,0.102 -0.817,0.267 -1.151,0.5 -0.335,0.233 -0.604,0.546 -0.806,0.937 -0.203,0.39 -0.305,0.886 -0.305,1.484 0,0.45 0.057,0.828 0.172,1.136 0.116,0.308 0.256,0.565 0.423,0.774 0.168,0.207 0.353,0.374 0.557,0.498 0.201,0.125 0.382,0.229 0.541,0.312 0.299,0.134 0.634,0.271 1.004,0.412 0.371,0.142 0.741,0.272 1.112,0.387 0.564,0.183 1.132,0.383 1.705,0.599 0.573,0.216 1.088,0.508 1.547,0.874 0.459,0.366 0.834,0.815 1.124,1.347 0.291,0.533 0.437,1.197 0.437,1.997 0,0.816 -0.146,1.539 -0.437,2.171 -0.29,0.632 -0.687,1.164 -1.189,1.597 -0.503,0.433 -1.107,0.761 -1.813,0.986 -0.704,0.225 -1.463,0.337 -2.273,0.337 -0.423,0 -0.909,-0.029 -1.455,-0.088 -0.548,-0.058 -1.068,-0.153 -1.561,-0.287 -0.494,-0.133 -0.912,-0.307 -1.256,-0.524 -0.343,-0.215 -0.515,-0.473 -0.515,-0.774 0,-0.215 0.078,-0.406 0.238,-0.574 0.158,-0.165 0.343,-0.248 0.555,-0.248 0.088,0 0.225,0.028 0.41,0.087 0.185,0.058 0.375,0.12 0.568,0.187 0.354,0.133 0.777,0.271 1.27,0.412 0.494,0.141 1.084,0.211 1.771,0.211 1.271,0 2.222,-0.29 2.857,-0.873 0.635,-0.582 0.952,-1.398 0.952,-2.446z"/>
   <path class="fil0" d="M70.346 89.213l-3.86 0c-0.265,0 -0.481,-0.077 -0.649,-0.226 -0.167,-0.149 -0.25,-0.332 -0.25,-0.548 0,-0.183 0.087,-0.367 0.264,-0.55 0.175,-0.182 0.387,-0.274 0.635,-0.274l9.493 0c0.247,0 0.459,0.079 0.634,0.238 0.177,0.157 0.266,0.353 0.266,0.586 0,0.216 -0.089,0.399 -0.266,0.548 -0.175,0.149 -0.387,0.226 -0.634,0.226l-3.887 0 0 15.422c0,0.233 -0.08,0.43 -0.238,0.586 -0.158,0.158 -0.361,0.238 -0.608,0.238 -0.247,0 -0.459,-0.08 -0.636,-0.238 -0.176,-0.156 -0.264,-0.353 -0.264,-0.586l0 -15.422z"/>
   <path class="fil0" d="M82.749 99.544l6.109 0 -3.04 -9.459 -3.069 9.459zm-1.692 5.316l0 0c-0.089,0.15 -0.217,0.286 -0.383,0.412 -0.168,0.124 -0.322,0.187 -0.464,0.187 -0.247,0 -0.462,-0.075 -0.647,-0.226 -0.185,-0.149 -0.278,-0.349 -0.278,-0.598 0,-0.116 0.017,-0.224 0.053,-0.325l5.262 -15.722c0.106,-0.349 0.247,-0.639 0.424,-0.873 0.175,-0.233 0.439,-0.349 0.794,-0.349 0.333,0 0.594,0.12 0.779,0.361 0.185,0.242 0.339,0.529 0.463,0.861l5.262 15.722c0,0.035 0.005,0.085 0.014,0.15 0.009,0.067 0.013,0.126 0.013,0.175 0,0.249 -0.088,0.449 -0.265,0.598 -0.176,0.151 -0.396,0.226 -0.661,0.226 -0.158,0 -0.326,-0.054 -0.502,-0.163 -0.176,-0.107 -0.292,-0.253 -0.344,-0.436l-1.217 -3.694 -7.114 0 -1.189 3.694z"/>
   <path class="fil0" d="M96.924 93.679c0,-0.948 0.118,-1.813 0.356,-2.595 0.239,-0.781 0.601,-1.448 1.084,-1.997 0.486,-0.549 1.098,-0.972 1.839,-1.272 0.741,-0.299 1.614,-0.449 2.618,-0.449 0.583,0 1.151,0.053 1.706,0.162 0.556,0.108 1.045,0.254 1.468,0.437 0.423,0.182 0.763,0.394 1.018,0.635 0.256,0.242 0.383,0.497 0.383,0.763 0,0.198 -0.07,0.366 -0.211,0.498 -0.141,0.134 -0.326,0.2 -0.556,0.2 -0.123,0 -0.224,-0.022 -0.304,-0.063 -0.078,-0.041 -0.171,-0.095 -0.277,-0.162 -0.035,-0.033 -0.08,-0.057 -0.132,-0.075 -0.053,-0.016 -0.098,-0.041 -0.133,-0.075 -0.441,-0.283 -0.891,-0.494 -1.348,-0.636 -0.459,-0.141 -0.953,-0.212 -1.481,-0.212 -0.794,0 -1.464,0.113 -2.01,0.337 -0.548,0.224 -0.988,0.548 -1.323,0.972 -0.334,0.425 -0.573,0.933 -0.713,1.524 -0.142,0.591 -0.212,1.259 -0.212,2.008l0 5.465c0,0.733 0.07,1.398 0.212,1.997 0.14,0.599 0.379,1.107 0.713,1.523 0.335,0.416 0.775,0.736 1.323,0.961 0.546,0.224 1.216,0.336 2.01,0.336 1.057,0 1.983,-0.266 2.777,-0.799l0.29 -0.174c0.247,-0.166 0.45,-0.249 0.608,-0.249 0.23,0 0.415,0.071 0.556,0.211 0.141,0.142 0.211,0.304 0.211,0.487 0,0.283 -0.127,0.544 -0.383,0.786 -0.255,0.242 -0.595,0.45 -1.018,0.624 -0.423,0.175 -0.912,0.316 -1.468,0.425 -0.555,0.107 -1.123,0.162 -1.706,0.162 -1.004,0 -1.877,-0.15 -2.618,-0.449 -0.741,-0.3 -1.353,-0.724 -1.839,-1.273 -0.483,-0.55 -0.845,-1.211 -1.084,-1.984 -0.238,-0.774 -0.356,-1.635 -0.356,-2.584l0 -5.465z"/>
   <path class="fil0" d="M116.653 96.824l-1.562 1.821 0 5.966c0,0.233 -0.084,0.432 -0.251,0.598 -0.166,0.166 -0.374,0.25 -0.621,0.25 -0.247,0 -0.454,-0.084 -0.62,-0.25 -0.168,-0.166 -0.253,-0.365 -0.253,-0.598l0 -16.423c0,-0.215 0.085,-0.406 0.253,-0.573 0.166,-0.165 0.373,-0.249 0.62,-0.249 0.247,0 0.455,0.084 0.621,0.249 0.167,0.167 0.251,0.358 0.251,0.573l0 7.987 7.221 -8.385c0.088,-0.116 0.207,-0.217 0.357,-0.3 0.15,-0.083 0.304,-0.124 0.463,-0.124 0.158,0 0.325,0.061 0.501,0.186 0.177,0.125 0.257,0.33 0.24,0.612 -0.019,0.217 -0.09,0.408 -0.213,0.574l0 -0.025 -5.897 6.838 6.373 8.635 -0.026 0c0.07,0.117 0.105,0.241 0.105,0.374 0,0.2 -0.052,0.4 -0.157,0.599 -0.106,0.2 -0.309,0.3 -0.61,0.3 -0.193,0 -0.348,-0.034 -0.463,-0.1 -0.114,-0.067 -0.215,-0.158 -0.303,-0.275l-6.029 -8.26z"/>
  </g>
  <rect class="fil2" width="137.783" height="116.919"/>
 </g>
</svg>
